<?xml version="1.0" encoding="UTF-8"?>
<svg width="64" height="64" version="1.1" viewBox="0 0 16.933 16.933" xmlns="http://www.w3.org/2000/svg" xmlns:cc="http://creativecommons.org/ns#" xmlns:dc="http://purl.org/dc/elements/1.1/" xmlns:rdf="http://www.w3.org/1999/02/22-rdf-syntax-ns#" xmlns:xlink="http://www.w3.org/1999/xlink">
 <defs>
  <linearGradient id="linearGradient1448" x1="3.9687" x2="3.9687" y1="16.404" y2="2.6458" gradientTransform="matrix(.91667 0 0 .91667 .70544 .70544)" gradientUnits="userSpaceOnUse">
   <stop stop-color="#bc8b3c" offset="0"/>
   <stop stop-color="#ac7c3e" offset="1"/>
  </linearGradient>
  <filter id="filter861" x="-.027" y="-.027" width="1.054" height="1.054" color-interpolation-filters="sRGB">
   <feGaussianBlur stdDeviation="0.16371"/>
  </filter>
 </defs>
 <metadata>
  <rdf:RDF>
   <cc:Work rdf:about="">
    <dc:format>image/svg+xml</dc:format>
    <dc:type rdf:resource="http://purl.org/dc/dcmitype/StillImage"/>
    <dc:title/>
   </cc:Work>
  </rdf:RDF>
 </metadata>
 <rect x="1.1905" y="1.1905" width="14.552" height="14.552" ry="3.4395" filter="url(#filter861)" opacity=".3" stroke-opacity=".95294" stroke-width=".083153"/>
 <rect x="1.1905" y="1.1905" width="14.552" height="14.552" ry="3.4395" fill="url(#linearGradient1448)" stroke-opacity=".95294" stroke-width=".083153"/>
 <path d="m8.4577 3.9434c-2.5176 0.0049688-4.5618 2.0355-4.5569 4.5319 0.00492 2.4966 2.0573 4.5192 4.5748 4.5143 2.5176-5e-3 4.5615-2.0358 4.5567-4.5322-0.0049-2.4966-2.0568-4.5189-4.5746-4.514zm9.026e-4 0.45892c2.2719-0.00449 4.1103 1.81 4.1146 4.0559 0.0019 0.95999-0.33236 1.8417-0.89221 2.5379-0.04397-0.03147-1.3317-0.9481-2.2502-0.94629 0 0-0.2981-0.33908-0.20024-0.96221 3e-6 4e-7 0.35328-0.31198 0.45083-1.0908 0 0 0.11254-0.48187 0.013341-0.53122 0 0 0.00653-0.1767 0.062579-0.49534 0.055991-0.31864 0.082267-1.3876-1.3751-1.3847-1.4574 0.00288-1.4269 1.0717-1.3697 1.3901 0.057256 0.31844 0.064795 0.4951 0.064795 0.4951-0.099008 0.049744 0.015127 0.53117 0.015127 0.53117 0.10064 0.77845 0.45513 1.089 0.45513 1.089 0.10033 0.62272-0.19613 0.96301-0.19613 0.96301-0.82491 0.001619-1.8948 0.7099-2.1462 0.88363-0.52845-0.6826-0.84332-1.5359-0.84515-2.4632-0.0044355-2.246 1.8267-4.0677 4.0987-4.0723z" color="#000000" color-rendering="auto" fill="#8a5411" image-rendering="auto" opacity=".75" shape-rendering="auto" solid-color="#000000" stroke-width=".26458" style="isolation:auto;mix-blend-mode:normal;text-decoration-color:#000000;text-decoration-line:none;text-decoration-style:solid;text-indent:0;text-transform:none;white-space:normal"/>
</svg>
