<?xml version="1.0" encoding="UTF-8"?>
<svg width="64" height="64" version="1.1" xmlns="http://www.w3.org/2000/svg" xmlns:cc="http://creativecommons.org/ns#" xmlns:dc="http://purl.org/dc/elements/1.1/" xmlns:osb="http://www.openswatchbook.org/uri/2009/osb" xmlns:rdf="http://www.w3.org/1999/02/22-rdf-syntax-ns#" xmlns:xlink="http://www.w3.org/1999/xlink">
 <metadata>
  <rdf:RDF>
   <cc:Work rdf:about="">
    <dc:format>image/svg+xml</dc:format>
    <dc:type rdf:resource="http://purl.org/dc/dcmitype/StillImage"/>
    <dc:title/>
   </cc:Work>
  </rdf:RDF>
 </metadata>
 <defs>
  <linearGradient id="linearGradient1448" x1="3.9687" x2="3.9687" y1="16.404" y2="2.6458" gradientTransform="matrix(3.4646 0 0 3.4646 2.6663 2.6663)" gradientUnits="userSpaceOnUse">
   <stop stop-color="#144bb4" offset="0"/>
   <stop stop-color="#00c8ff" offset="1"/>
  </linearGradient>
  <filter id="filter861" x="-.027" y="-.027" width="1.054" height="1.054" color-interpolation-filters="sRGB">
   <feGaussianBlur stdDeviation="0.16371"/>
  </filter>
 </defs>
 <rect transform="matrix(3.7796 0 0 3.7796 -1.011e-6 -1.011e-6)" x="1.1905" y="1.1905" width="14.552" height="14.552" ry="3.4395" filter="url(#filter861)" opacity=".3" stroke-opacity=".95294" stroke-width=".083153"/>
 <rect x="4.4996" y="4.4996" width="55.001" height="55.001" ry="13" fill="url(#linearGradient1448)" stroke-opacity=".95294" stroke-width=".31428"/>
 <path d="m32.281 49.211c0.0044-0.02327 0.25312-0.14961 0.55345-0.28085 0.73416-0.32071 1.8655-1.0797 2.4604-1.6506 0.90806-0.87144 1.8086-2.2887 1.5821-2.4899-0.05091-0.04509-0.4728 0.14047-0.93753 0.41247-1.7011 0.99591-3.8724 1.6071-6.2397 1.7565-1.166 0.07356-3.335-0.04115-4.4046-0.23304-0.45826-0.08208-0.4557-0.08374 0.53823-0.36326 2.5372-0.71306 4.2887-2.2313 5.1667-4.4787 0.36816-0.94234 0.70062-2.5835 0.5294-2.6134-0.05966-0.01039-0.39737 0.24603-0.75046 0.56985-0.74412 0.68246-1.3646 1.0406-2.287 1.3203-0.68759 0.20844-0.774 0.16478-0.40568-0.20468 0.694-0.69627 1.0969-2.1702 0.85694-3.1351-0.07875-0.3167-0.21944-0.58309-0.3169-0.60011-0.09639-0.01663-0.37139 0.08769-0.61106 0.2321-0.41222 0.2485-0.91037 0.45216-1.0475 0.42822-0.03425-0.0062 0.01144-0.13506 0.10159-0.28678 0.93606-1.5756-0.81088-2.8048-5.0333-3.5415-1.966-0.34303-3.7396-0.46772-5.7194-0.40212l-1.1748 0.03886-0.68346-0.78164c-0.3759-0.42992-0.67071-0.84389-0.65512-0.91996 0.01556-0.07626 0.12505-0.25504 0.24324-0.39763 0.26319-0.31755 0.44784-1.2467 0.29186-1.4686-0.16305-0.232-0.60127-0.28081-0.72115-0.08042-0.05596 0.09371-0.13211 0.34419-0.16925 0.55703-0.03711 0.21286-0.11048 0.4036-0.16298 0.42384-0.10095 0.03886-1.371-1.5598-1.2802-1.6115 0.02919-0.01663 1.7677-0.51938 3.8635-1.1173 2.0957-0.59792 3.9938-1.1808 4.218-1.2953 0.621-0.31713 1.2787-1.084 1.782-2.0778 0.38639-0.76293 0.54075-0.95026 1.0292-1.2491 0.31603-0.19325 0.90075-0.42072 1.2994-0.50529 1.8036-0.38261 3.4995-1.2545 4.1539-2.1356 0.57872-0.7792 2.3489-4.1856 2.8521-5.4885l0.46847-1.2129 0.67825 1.5911c0.37304 0.87508 0.89066 2.1223 1.1503 2.7715 0.45443 1.1364 0.60863 1.3348 0.88612 1.1401 0.25485-0.17891 2.4139-0.415 3.9574-0.43285 1.7091-0.02078 3.7474 0.05797 3.8087 0.14504 0.021 0.03013-0.53574 0.18078-1.2372 0.33548-1.3417 0.29571-3.0353 0.87472-3.3551 1.147-0.11036 0.09392-0.15216 0.20655-0.1004 0.27017 0.04882 0.06005 0.62171 0.26899 1.2732 0.46425 3.5349 1.0597 6.9843 3.2984 9.5441 6.1943 0.92735 1.0491 2.462 3.3364 3.1465 4.6896 0.3421 0.67633 0.60103 1.2445 0.5754 1.2625-0.02564 0.0187-0.40838-0.13901-0.85056-0.3488-1.4352-0.68104-2.7924-0.95277-2.8587-0.57241-0.01538 0.0881 0.194 0.4228 0.46521 0.74411 1.0908 1.2924 2.2181 3.9105 2.518 5.848 0.29106 1.8802 0.17839 4.2256-0.29653 6.1723l-0.29169 1.1956-0.12214-0.5241c-0.31862-1.3672-1.4438-3.1481-2.7388-4.3351-0.39127-0.35861-0.79591-0.7003-0.89921-0.7593-0.22208-0.12696-0.28141-0.0021-0.60581 1.2662-0.91197 3.5677-3.5568 6.0727-7.2086 6.8275-1.1254 0.2326-2.6373 0.31011-4.0125 0.20572-1.1493-0.08727-2.8301-0.33517-2.8161-0.41542zm-6.8503-23.731c1.0138-0.76628 1.3948-1.1576 1.1659-1.1976-0.0331-0.0062-0.49962 0.12197-1.0368 0.28428-0.53714 0.16208-1.2863 0.32902-1.6647 0.37089-0.7947 0.0879-0.90841 0.27892-0.49281 0.82795 0.26258 0.34687 0.46445 0.50602 0.72181 0.56906 0.07323 0.01662 0.66101-0.36667 1.3066-0.85461zm4.9792-4.5995c1.6962-0.97902 1.7751-1.0901 1.5819-2.2263-0.20912-1.23-0.4862-2.3-0.60076-2.32-0.05338-0.0083-0.35413 0.63286-0.66836 1.427-0.31423 0.79414-0.87162 1.979-1.2386 2.633-0.44971 0.80131-0.62028 1.1973-0.52308 1.2142 0.07932 0.01455 0.73136-0.31373 1.4489-0.7279z" fill="#fff"/>
</svg>
