<?xml version="1.0" encoding="UTF-8"?>
<svg width="64" height="64" version="1.1" viewBox="0 0 16.933 16.933" xmlns="http://www.w3.org/2000/svg" xmlns:cc="http://creativecommons.org/ns#" xmlns:dc="http://purl.org/dc/elements/1.1/" xmlns:rdf="http://www.w3.org/1999/02/22-rdf-syntax-ns#" xmlns:xlink="http://www.w3.org/1999/xlink">
 <defs>
  <linearGradient id="linearGradient1448" x1="3.9687" x2="3.9687" y1="16.404" y2="2.6458" gradientTransform="matrix(.91667 0 0 .91667 .70544 .70544)" gradientUnits="userSpaceOnUse">
   <stop stop-color="#b3b4b7" offset="0"/>
   <stop stop-color="#d4d4d4" offset="1"/>
  </linearGradient>
  <filter id="filter861" x="-.027" y="-.027" width="1.054" height="1.054" color-interpolation-filters="sRGB">
   <feGaussianBlur stdDeviation="0.16371"/>
  </filter>
  <linearGradient id="linearGradient1365" x1="-9.3886" x2="6.7749" y1="2.8763" y2="2.8763" gradientTransform="matrix(3.7796 0 0 3.7796 36.939 -.93127)" gradientUnits="userSpaceOnUse">
   <stop stop-color="#344042" offset="0"/>
   <stop stop-color="#0d181b" offset="1"/>
  </linearGradient>
  <linearGradient id="linearGradient1576" x1="55" x2="55" y1="19" y2="56" gradientUnits="userSpaceOnUse">
   <stop stop-color="#f78012" offset="0"/>
   <stop stop-color="#d26501" offset="1"/>
  </linearGradient>
 </defs>
 <metadata>
  <rdf:RDF>
   <cc:Work rdf:about="">
    <dc:format>image/svg+xml</dc:format>
    <dc:type rdf:resource="http://purl.org/dc/dcmitype/StillImage"/>
    <dc:title/>
   </cc:Work>
  </rdf:RDF>
 </metadata>
 <rect x="1.1905" y="1.1905" width="14.552" height="14.552" ry="3.4395" filter="url(#filter861)" opacity=".3" stroke-opacity=".95294" stroke-width=".083153"/>
 <rect x="1.1905" y="1.1905" width="14.552" height="14.552" ry="3.4395" fill="url(#linearGradient1448)" stroke-opacity=".95294" stroke-width=".083153"/>
 <path transform="scale(.26458)" d="m59.369 16c-0.03818-0.27764-0.02868-0.57014-0.08398-0.8418-0.17261-0.84779-0.47505-1.9503-0.8031-2.7285-0.65609-1.5563-1.6064-2.956-2.7812-4.1309s-2.5745-2.1252-4.1309-2.7812c-0.77817-0.32805-1.5956-0.5813-2.4434-0.75391s-1.7267-0.26367-2.627-0.26367h-29c-0.90025 0-1.7792 0.091067-2.627 0.26367-0.84779 0.1726-1.6652 0.42586-2.4434 0.75391-1.5563 0.65609-2.956 1.6064-4.1309 2.7812s-2.1252 2.5745-2.7812 4.1309c-0.32805 0.77817-0.53211 1.8807-0.70472 2.7285-0.055307 0.27165-0.0458 0.56416-0.083984 0.8418z" fill="url(#linearGradient1365)" stroke-width="1.1901"/>
 <path transform="scale(.26458)" d="m46.637 59.486c0.85121-0.008917 1.6866-0.086378 2.4902-0.25 0.84779-0.1726 1.6652-0.42586 2.4434-0.75391 1.5563-0.65609 2.956-1.6064 4.1309-2.7812s2.1252-2.5745 2.7812-4.1309c0.32804-0.77817 0.5813-1.5956 0.75391-2.4434s0.26367-1.7267 0.26367-2.627v-29c0-0.51404-0.092915-1.0019-0.15039-1.5h-14.35v43.486h1.6367z" fill="url(#linearGradient1576)" stroke-width="2.9011"/>
 <path d="m11.906 4.2334-0.05003-1.96e-4 -0.01023 2.2004-3.5084-0.00361 0.014853-2.1967-0.050016-2.563e-4 -0.014813 2.1969-3.593-0.00375 0.021608-2.2002-0.050016-2.563e-4 -0.021648 2.2004-3.2269-0.0033-5.466e-4 0.040739 3.227 0.00339-0.021746 2.2109c-1.2946 8.802e-4 -2.4808 0.00167-3.2347 0.00215l-5.598e-4 0.040803c0.7536-4.906e-4 1.9403-0.00126 3.2349-0.00213l-0.021845 2.225-3.2424-0.0078-5.597e-4 0.04081 3.2425 0.0078-0.021778 2.2158 3.6635 0.02827-0.01661 2.4593 0.049942 2.45e-4 0.016662-2.4591 3.5228 0.02717-0.01135 2.4454 0.05004 1.56e-4 0.01135-2.4451 3.6135 0.0278 4.24e-4 -0.04076-3.6137-0.02791 0.01035-2.2138 3.6858 0.0089 5.6e-4 -0.04081-3.6862-0.0088 0.01035-2.2469c0.43121-2.095e-4 0.99268-6.454e-4 1.3694-7.859e-4 0.72251-2.726e-4 1.3295-4.402e-4 1.7623-4.175e-4 0.34648 1.55e-5 0.48164 2.421e-4 0.57402 4.856e-4l5.46e-4 -0.040739c-0.0943-2.77e-4 -0.22823-4.766e-4 -0.57459-5.012e-4 -0.43286-1.97e-5 -1.0398 1.432e-4 -1.7623 4.177e-4 -0.37663 1.4e-4 -0.93799 4.854e-4 -1.3691 6.875e-4l0.01023-2.1991 3.725 0.00388 5.59e-4 -0.040804-3.7253-0.00386zm-0.06044 2.241-0.01022 2.1992c-1.1106 5.161e-4 -2.2426 0.00111-3.5132 0.00187l0.014846-2.2046zm-3.5584-0.00366-0.014954 2.2047c-0.097861 5.95e-5 -0.17262 7.43e-5 -0.2705 1.355e-4 -1.6704 0.00102-1.9872 0.00132-3.3294 0.00223l0.021733-2.2108zm3.5481 2.2437-0.01047 2.2468-3.518-0.0084 0.015206-2.2364c1.2706-7.672e-4 2.4027-0.00133 3.5133-0.00186zm-3.5634 0.00186-0.015098 2.2363-3.6068-0.0088 0.021871-2.2251c1.3423-9.103e-4 1.6592-0.00116 3.3298-0.00217 0.097772-6.04e-5 0.17244-1.168e-4 0.27018-1.794e-4zm3.5527 2.2857-0.01022 2.2134-3.5227-0.02717 0.014805-2.1948zm-3.5681-0.0086-0.014912 2.1945-3.6134-0.02781 0.021372-2.1753z" fill="#506164" stroke-width=".037634"/>
 <g transform="translate(-.34708 -.2684)" fill="#2d2d2d" stroke-width=".033412">
  <path d="m2.9956 5.6803 0.26186 0.00448-0.12597-0.31762zm0.27685 0.043906-0.29623-0.0050668-0.086095 0.19998-0.041759-7.171e-4 0.28356-0.6526 0.26192 0.66194-0.041759-7.172e-4z"/>
  <path d="m4.0206 5.7879 0.030955 0.021851q-0.046304 0.061429-0.11652 0.096341-0.070209 0.034477-0.15068 0.033099-0.066988-0.00115-0.12744-0.028287-0.060451-0.027142-0.10363-0.072264-0.043174-0.045121-0.068223-0.1069-0.025049-0.06178-0.023895-0.1292 0.00115-0.067423 0.028307-0.12831 0.02715-0.060886 0.071843-0.1045 0.044694-0.043616 0.10604-0.068673 0.061346-0.025057 0.12833-0.02391 0.080037 0.00137 0.14901 0.039101 0.06898 0.037295 0.11358 0.10072l-0.031714 0.022518q-0.039523-0.055069-0.10032-0.087437-0.060355-0.032797-0.13126-0.034011-0.079168-0.00136-0.14683 0.036646-0.067224 0.038009-0.10709 0.10477-0.039861 0.066325-0.041224 0.14593-0.00101 0.059158 0.020683 0.11348 0.02213 0.054334 0.060174 0.094145 0.038043 0.039811 0.09158 0.064225 0.053544 0.023978 0.1127 0.024994 0.070902 0.00121 0.13234-0.029497 0.061877-0.030703 0.10327-0.08482z"/>
 </g>
 <g transform="translate(.28254 -.2724)" fill="#2e2e2e" stroke-width=".033412">
  <path d="m5.801 5.7881-0.043065-7.328e-4 0.00288-0.16843-0.16747-0.00286 7.3e-4 -0.042585 0.16747 0.00286 0.00291-0.16938 0.043065 7.327e-4 -0.0029 0.16938 0.16843 0.00288-7.3e-4 0.042585-0.16843-0.00288z"/>
  <path d="m6.5429 5.2532 0.05359 9.22e-4 -0.52038 0.70568-0.052155-8.94e-4z"/>
  <path d="m6.9407 5.6669-7.328e-4 0.043065-0.29331-0.00502 7.328e-4 -0.043065z"/>
 </g>
 <g fill="#2e2e2e" stroke-width=".033412">
  <path d="m10.04 5.4615q0.04233-0.040437 0.10023-0.039446 0.0579 9.961e-4 0.09835 0.042367 0.04045 0.041376 0.03946 0.099272-9.96e-4 0.057896-0.04285 0.098342-0.04185 0.039967-0.09974 0.038976-0.0579-9.962e-4 -0.09883-0.042376-0.04045-0.041855-0.03945-0.099751 9.83e-4 -0.057418 0.04283-0.097385zm0.02962 0.031139q-0.02871 0.027269-0.02939 0.066984-6.84e-4 0.039714 0.02707 0.068428 0.02823 0.028722 0.0689 0.029419 0.04067 6.991e-4 0.06939-0.027051 0.02919-0.027739 0.02987-0.067454 6.84e-4 -0.039714-0.02755-0.067958-0.02776-0.028236-0.06843-0.028931-0.04067-6.991e-4 -0.06986 0.026563zm-0.37554-0.48601q0.041376-0.040453 0.099273-0.039462 0.057895 9.962e-4 0.098342 0.042846 0.040445 0.041855 0.039454 0.099751-9.961e-4 0.057896-0.042837 0.097864-0.041846 0.039966-0.099742 0.038975-0.057897-9.861e-4 -0.097871-0.042358-0.039497-0.04136-0.038505-0.099256 9.963e-4 -0.057897 0.041888-0.098359zm6.96e-4 0.099087q-6.711e-4 0.039236 0.026598 0.067942 0.027756 0.028236 0.067949 0.028924 0.040671 6.991e-4 0.069378-0.026572 0.029193-0.027739 0.029865-0.066975 6.866e-4 -0.040194-0.027546-0.068436-0.027747-0.028715-0.068419-0.02941-0.040192-6.864e-4 -0.068907 0.02706-0.028228 0.027277-0.028916 0.06747zm0.50329-0.12636 0.05263 8.967e-4 -0.51847 0.70571-0.05407-9.248e-4z"/>
  <path d="m2.7897 7.0466 0.65258-5.534e-4 -0.43575 0.97467-0.064605 5.49e-5 0.411-0.91591-0.58275 4.942e-4z"/>
  <path d="m6.5496 7.0371q0.094624-7.98e-5 0.16255 0.065772 0.067924 0.065853 0.068002 0.15852 5.2e-5 0.061342-0.029922 0.11292-0.029975 0.050927-0.080852 0.079683 0.080297 0.035824 0.12996 0.11018 0.050312 0.074351 0.050388 0.16441 6.96e-5 0.082224-0.040331 0.15143-0.040401 0.069208-0.10954 0.10973-0.068487 0.039865-0.14941 0.039934-0.12529 1.058e-4 -0.21347-0.087264-0.08752-0.088024-0.087626-0.21332-7.71e-5 -0.090708 0.048803-0.16449 0.049533-0.074436 0.13042-0.1104-0.050273-0.02867-0.080987-0.080198-0.030062-0.051528-0.030114-0.11222-7.9e-5 -0.092666 0.067734-0.15863 0.068465-0.065968 0.16439-0.06605zm-0.24217 0.69194q8.45e-5 0.099844 0.071276 0.17157 0.071192 0.07107 0.17169 0.070986 0.09854-8.35e-5 0.16961-0.071274 0.07107-0.071844 0.070986-0.17169-8.35e-5 -0.098539-0.071274-0.16896-0.071192-0.071071-0.16973-0.070987-0.099844 8.44e-5 -0.17157 0.071277-0.071071 0.070539-0.070987 0.16908zm0.2425-0.29909q0.071131-6.03e-5 0.12134-0.049699 0.050207-0.049638 0.050147-0.11881-5.85e-5 -0.06852-0.051001-0.11742-0.050289-0.0489-0.12077-0.048841-0.072436 6.12e-5 -0.1233 0.049048-0.05086 0.048986-0.050801 0.11751 5.85e-5 0.069173 0.051002 0.11873 0.050942 0.049553 0.12338 0.049491z"/>
  <path d="m9.6962 7.3946q1.057e-4 0.12464 0.07914 0.21072 0.07969 0.086073 0.18997 0.085979 0.11094-9.4e-5 0.18983-0.086301 0.07954-0.086207 0.07944-0.21085-1.04e-4 -0.12334-0.07979-0.20876-0.07903-0.086073-0.18997-0.085979-0.11029 9.35e-5 -0.18983 0.086301-0.078889 0.085554-0.078784 0.20889zm0.25178 0.62952-0.06983 5.95e-5 0.20074-0.2984q-0.0561 0.022235-0.11353 0.022284-0.0894 7.61e-5 -0.16514-0.047498-0.075087-0.048228-0.11888-0.12911-0.043139-0.081535-0.04322-0.17681-7.98e-5 -0.094624 0.042921-0.17558 0.043655-0.080957 0.11866-0.12866 0.07566-0.047702 0.16506-0.047778 0.09005-7.62e-5 0.16514 0.047498 0.07574 0.047574 0.11888 0.12846 0.04314 0.08023 0.04322 0.17551 4.5e-5 0.046987-0.01167 0.092676-0.01106 0.04569-0.02864 0.084206-0.01759 0.038516-0.05213 0.092058-0.03454 0.052888-0.06648 0.09729-0.03129 0.043749-0.08604 0.1208-0.054749 0.076398-0.099069 0.143z"/>
  <path d="m3.2981 10.055-4.849e-4 -0.57166-0.43348 0.57203zm0.058282 0.23945-0.058074 8e-6 -1.542e-4 -0.18142-0.55077 4.7e-4 0.60817-0.80514 6.332e-4 0.74655 0.10898-9.6e-5 -0.020833 0.05809-0.088096 7e-5z"/>
  <path d="m6.7579 9.3671-0.41504 3.52e-4 -0.026479 0.32566q0.045639-0.048982 0.105-0.076441 0.060014-0.027459 0.12592-0.027515 0.090055-7.62e-5 0.16514 0.047498 0.07574 0.047574 0.11888 0.12911 0.043139 0.080882 0.04322 0.17681 7.99e-5 0.09528-0.042921 0.17623-0.043002 0.0803-0.11866 0.12801-0.075007 0.04705-0.16506 0.04713-0.12203 1.05e-4 -0.21412-0.08596-0.091433-0.08607-0.10916-0.21199l0.058725-6e-6q0.017707 0.10309 0.092159 0.17155 0.075105 0.06846 0.17234 0.06837 0.11094-9.3e-5 0.18983-0.0863 0.079541-0.0862 0.079436-0.2102-1.05e-4 -0.12334-0.079791-0.20876-0.079035-0.086073-0.18997-0.085979-0.073741 6.22e-5 -0.13635 0.04188-0.062613 0.041165-0.098446 0.11037l-0.064604 5e-5 0.040698-0.48816 0.48943-4.15e-4z"/>
  <path d="m10.235 9.9393q-1.06e-4 -0.12399-0.07979-0.21006-0.07904-0.086073-0.18997-0.085979-0.11029 9.38e-5 -0.18983 0.086301-0.078889 0.086207-0.078784 0.2102 1.049e-4 0.12334 0.07914 0.20941 0.07969 0.08607 0.18997 0.08598 0.11094-9.4e-5 0.18983-0.0863 0.07954-0.08621 0.07944-0.20955zm-0.25243-0.62887 0.07048-5.98e-5 -0.20009 0.2984q0.0561-0.022236 0.11222-0.022283 0.09006-7.61e-5 0.16514 0.048151 0.07574 0.047573 0.11888 0.12846 0.04314 0.080883 0.04322 0.17616 7.8e-5 0.09528-0.04292 0.17623-0.043 0.08096-0.11866 0.12866-0.07501 0.0477-0.16506 0.04778-0.08941 7.6e-5 -0.16515-0.0475-0.075086-0.04757-0.11888-0.12846-0.043139-0.08088-0.043219-0.17616-5.04e-5 -0.05612 0.013616-0.10573 0.013657-0.05026 0.047545-0.10967 0.034536-0.059414 0.067777-0.10708 0.03324-0.047667 0.09907-0.13974 0.06583-0.092069 0.11602-0.16716z"/>
  <path d="m3.1461 12.546-0.00335-0.86923-0.10566 0.06339-0.02941-0.05153 0.19633-0.11698 8.263e-4 0.9743z"/>
  <path d="m6.8671 12.549-0.63496 5.36e-4 -2.5e-5 -0.02806q-5.59e-5 -0.06722 0.029911-0.12597 0.030622-0.05876 0.078875-0.10187 0.048253-0.04311 0.10695-0.08231 0.058699-0.03986 0.11675-0.07645 0.0587-0.03659 0.10696-0.07383 0.048259-0.03724 0.078238-0.08425 0.030631-0.04766 0.030586-0.10118-9e-5 -0.10637-0.066062-0.17875-0.06532-0.07238-0.15733-0.07231-0.093318 8.1e-5 -0.16047 0.07323-0.066502 0.0725-0.066412 0.17821l-0.05742 8e-6q-7.07e-5 -0.08353 0.037066-0.15469 0.03779-0.07117 0.10301-0.11298 0.065223-0.04182 0.14288-0.04189 0.077004-6.6e-5 0.1423 0.04165 0.065292 0.04171 0.10255 0.11281 0.037257 0.0711 0.037327 0.15463 3.54e-5 0.04698-0.017539 0.09007-0.017583 0.04243-0.047574 0.07639-0.02999 0.03396-0.069117 0.06532-0.039128 0.03136-0.082826 0.05945-0.0437 0.0281-0.088051 0.05555-0.0437 0.02744-0.08544 0.0575-0.041087 0.0294-0.074342 0.06075-0.032603 0.0307-0.054757 0.06922-0.022155 0.03852-0.027992 0.08094l0.57688-4.88e-4z"/>
  <path d="m9.6649 12.254 0.06133-4e-6q8e-5 0.09985 0.070625 0.17157 0.07054 0.07107 0.17038 0.07099 0.09919-8.2e-5 0.16961-0.07128 0.07107-0.07184 0.07098-0.17169-8.3e-5 -0.09854-0.07128-0.16896-0.07053-0.07107-0.16973-0.07099l-7e-6 -0.05873q0.07309-6.3e-5 0.12395-0.04513 0.05151-0.04572 0.05146-0.11751-5.7e-5 -0.07113-0.05166-0.12134-0.05094-0.05086-0.12403-0.0508-0.07309 6.3e-5 -0.1246 0.051-0.05086 0.05029-0.05079 0.12142l-0.058072 8e-6q-7.66e-5 -0.09593 0.068386-0.1632 0.06846-0.06727 0.16505-0.06736 0.09658-8.7e-5 0.16516 0.06707 0.06922 0.06716 0.06931 0.16308 1.01e-4 0.062-0.02992 0.11162-0.02997 0.04897-0.0815 0.07903 0.07899 0.03518 0.12734 0.10887 0.04835 0.0737 0.04843 0.1618 6.9e-5 0.08222-0.04034 0.15143-0.0404 0.06921-0.10954 0.10972-0.06849 0.03987-0.14941 0.03994-0.1253 1.1e-4 -0.21347-0.08727-0.087521-0.08802-0.087627-0.21332z"/>
  <path d="m6.8729 14.552q1.104e-4 0.13052-0.040252 0.24344-0.040364 0.11293-0.11535 0.18282-0.074335 0.06989-0.16635 0.06996-0.092666 8.2e-5 -0.16842-0.06968-0.075106-0.06976-0.11566-0.18262-0.040555-0.11286-0.040667-0.24338-8.3e-5 -0.09788 0.023985-0.18796 0.024069-0.09073 0.065776-0.15863 0.041707-0.06856 0.10301-0.10907 0.061307-0.04116 0.13113-0.04122 0.092012-7.3e-5 0.16647 0.06969 0.075104 0.06911 0.11566 0.18262 0.040555 0.11286 0.040666 0.24403zm-0.58862 5e-4q7.84e-5 0.09267 0.022336 0.17552 0.022909 0.08221 0.060155 0.13895 0.037245 0.05674 0.085564 0.08999 0.048318 0.03324 0.098568 0.03319 0.039808-3.6e-5 0.078291-0.02095 0.039136-0.02091 0.072385-0.0601 0.033247-0.03983 0.058653-0.09272 0.025406-0.05288 0.039704-0.12141 0.014952-0.06853 0.014891-0.14293-7.9e-5 -0.09332-0.02299-0.17618-0.022258-0.08286-0.059503-0.1396-0.036593-0.05674-0.084911-0.08934-0.047667-0.03324-0.097262-0.0332-0.050245 2e-5 -0.098511 0.03337-0.048263 0.03267-0.085412 0.08948-0.037148 0.0568-0.059918 0.1397-0.022113 0.0829-0.022042 0.17621z"/>
  <path d="m9.9112 14.551q-6.4e-5 -0.0222 0.01565-0.03786 0.01565-0.01632 0.03784-0.01635 0.0222-6.3e-5 0.03787 0.01628 0.01632 0.01565 0.01635 0.03784 6.6e-5 0.02154-0.01628 0.03851-0.01631 0.01633-0.03784 0.01635-0.02154 6.5e-5 -0.03787-0.01628-0.01567-0.01695-0.01569-0.03848z"/>
 </g>
 <path d="m4.5944 13.182-3.2708 0.0011" fill="none" stroke="#506164" stroke-width=".03733"/>
 <g transform="translate(-.34919 -.13976)">
  <circle transform="rotate(8.6546)" cx="14.898" cy="3.0453" r=".08269" fill="#fff" stroke-width=".033412"/>
  <circle transform="rotate(8.6546)" cx="14.969" cy="3.4824" r=".08269" fill="#fff" stroke-width=".033412"/>
  <path d="m13.993 5.4672 0.57974-0.00137" fill="none" stroke="#fff" stroke-width=".0568"/>
 </g>
 <path d="m14.272 9.8009-0.67709 4.913e-4" fill="none" stroke="#fff" stroke-width=".066339"/>
 <g transform="translate(-.4044 -.042159)" fill="none" stroke="#fff" stroke-width=".066339">
  <path d="m14.676 12.101-0.67709-2.25e-4"/>
  <path d="m14.338 11.762-2.24e-4 0.67709"/>
 </g>
 <g transform="translate(-.34795 -.14938)" fill="none" stroke="#fff" stroke-width=".066339">
  <path d="m14.514 7.9286-0.46568-0.49153"/>
  <path d="m14.049 7.9286 0.46568-0.49153"/>
 </g>
 <text transform="rotate(.041965)" x="5.7366691" y="3.6637857" fill="#ffffff" font-family="Sawasdee" font-size="1.9706px" letter-spacing="0" opacity=".676" stroke-width=".049265" word-spacing="0"><tspan x="5.7366691" y="3.6637857" stroke-width=".049265">3.141592</tspan></text>
</svg>
