<?xml version="1.0" encoding="UTF-8"?>
<svg width="64" height="64" version="1.1" viewBox="0 0 16.933 16.933" xmlns="http://www.w3.org/2000/svg" xmlns:cc="http://creativecommons.org/ns#" xmlns:dc="http://purl.org/dc/elements/1.1/" xmlns:rdf="http://www.w3.org/1999/02/22-rdf-syntax-ns#" xmlns:xlink="http://www.w3.org/1999/xlink">
 <defs>
  <linearGradient id="linearGradient1448" x1="3.9687" x2="3.9687" y1="16.404" y2="2.6458" gradientTransform="matrix(.91667 0 0 .91667 .70544 .70544)" gradientUnits="userSpaceOnUse">
   <stop stop-color="#c80000" offset="0"/>
   <stop stop-color="#ff550f" offset="1"/>
  </linearGradient>
  <filter id="filter861" x="-.027" y="-.027" width="1.054" height="1.054" color-interpolation-filters="sRGB">
   <feGaussianBlur stdDeviation="0.16371"/>
  </filter>
 </defs>
 <metadata>
  <rdf:RDF>
   <cc:Work rdf:about="">
    <dc:format>image/svg+xml</dc:format>
    <dc:type rdf:resource="http://purl.org/dc/dcmitype/StillImage"/>
    <dc:title/>
   </cc:Work>
  </rdf:RDF>
 </metadata>
 <rect x="1.1905" y="1.1905" width="14.552" height="14.552" ry="3.4395" filter="url(#filter861)" opacity=".3" stroke-opacity=".95294" stroke-width=".083153"/>
 <rect x="1.1905" y="1.1905" width="14.552" height="14.552" ry="3.4395" fill="url(#linearGradient1448)" stroke-opacity=".95294" stroke-width=".083153"/>
 <path d="m12.673 7.9964c-0.01339-0.11901-0.15215-0.20845-0.27214-0.20845-0.38794 0-0.73219-0.22779-0.87656-0.58007-0.14749-0.36082-0.05239-0.78162 0.23673-1.0468 0.09101-0.083196 0.10206-0.22246 0.02574-0.3192-0.19855-0.25214-0.42423-0.47989-0.67064-0.67728-0.09649-0.077431-0.23806-0.066657-0.32172 0.025989-0.25233 0.27945-0.70557 0.38331-1.0558 0.23717-0.36447-0.15332-0.59431-0.52264-0.57182-0.91909 0.0074-0.12453-0.08361-0.2328-0.20775-0.24726-0.31621-0.036573-0.6352-0.037707-0.95235-0.00252-0.12273 0.013546-0.21374 0.11926-0.20961 0.24222 0.0138 0.39254-0.21881 0.75541-0.57966 0.90321-0.34604 0.14135-0.79611 0.038369-1.0479-0.23859-0.08323-0.091228-0.2225-0.10244-0.31946-0.026871-0.25371 0.19906-0.48446 0.427-0.68484 0.67706-0.07815 0.097214-0.06666 0.23812 0.02526 0.32176 0.29463 0.26682 0.38977 0.69127 0.2367 1.0562-0.14614 0.34797-0.50746 0.57223-0.9211 0.57223-0.13423-0.00432-0.22984 0.085779-0.24452 0.20782-0.03723 0.31804-0.03768 0.6421-0.0018 0.96272 0.01329 0.11952 0.15628 0.20816 0.27759 0.20816 0.36863-0.00942 0.72255 0.21881 0.87102 0.5801 0.14799 0.36082 0.05286 0.78136-0.2367 1.0468-0.09057 0.0832-0.10206 0.22224-0.02574 0.31898 0.1967 0.25053 0.4224 0.47851 0.66969 0.67753 0.09699 0.07816 0.23812 0.06713 0.3222-0.02552 0.25327-0.28014 0.70648-0.38381 1.0553-0.2374 0.36539 0.15284 0.59522 0.52214 0.57273 0.9188-0.0073 0.12459 0.08411 0.23305 0.20775 0.24729 0.16176 0.01887 0.3245 0.02829 0.48768 0.02829 0.15489 0 0.30982-0.0085 0.46471-0.02574 0.12276-0.01355 0.21371-0.11926 0.20958-0.24244-0.01421-0.39232 0.21881-0.75519 0.57919-0.90274 0.34837-0.14229 0.79655-0.03815 1.0484 0.23853 0.0837 0.09104 0.22199 0.10203 0.31949 0.02671 0.25324-0.19858 0.48352-0.42634 0.68484-0.67709 0.07812-0.09699 0.0671-0.23812-0.0253-0.32172-0.29463-0.26682-0.39024-0.69133-0.23718-1.0561 0.1439-0.34334 0.4918-0.57386 0.86601-0.57386l0.05236 0.00135c0.12138 0.00986 0.23305-0.083637 0.24776-0.20753 0.0373-0.31832 0.03774-0.6421 0.0019-0.96272zm-4.1999 1.891c-0.77865 0-1.412-0.63337-1.412-1.412 0-0.77862 0.63337-1.412 1.412-1.412 0.77862 0 1.412 0.6334 1.412 1.412 0 0.77865-0.63337 1.412-1.412 1.412z" clip-rule="evenodd" fill="#fff" fill-rule="evenodd" stroke-width=".041501"/>
</svg>
