<?xml version="1.0" encoding="UTF-8"?>
<svg width="64" height="64" version="1.1" viewBox="0 0 16.933 16.933" xmlns="http://www.w3.org/2000/svg" xmlns:cc="http://creativecommons.org/ns#" xmlns:dc="http://purl.org/dc/elements/1.1/" xmlns:rdf="http://www.w3.org/1999/02/22-rdf-syntax-ns#" xmlns:xlink="http://www.w3.org/1999/xlink">
 <defs>
  <filter id="filter861" x="-.027" y="-.027" width="1.054" height="1.054" color-interpolation-filters="sRGB">
   <feGaussianBlur stdDeviation="0.16371"/>
  </filter>
  <linearGradient id="linearGradient1097" x1="4.8709" x2="4.8709" y1="15.738" y2="4.0811" gradientUnits="userSpaceOnUse">
   <stop stop-color="#8c9191" offset="0"/>
   <stop stop-color="#c3d7dc" offset="1"/>
  </linearGradient>
 </defs>
 <metadata>
  <rdf:RDF>
   <cc:Work rdf:about="">
    <dc:format>image/svg+xml</dc:format>
    <dc:type rdf:resource="http://purl.org/dc/dcmitype/StillImage"/>
    <dc:title/>
   </cc:Work>
  </rdf:RDF>
 </metadata>
 <g stroke-opacity=".95294">
  <rect x="1.1905" y="1.1905" width="14.552" height="14.552" ry="3.4395" filter="url(#filter861)" opacity=".3" stroke-width=".083153"/>
  <rect x="1.1905" y="1.1905" width="14.552" height="14.552" ry="3.4395" fill="url(#linearGradient1097)" stroke-width=".083153"/>
  <path d="m4.4472 15.739v-14.547c-1.8179 0.096412-3.2566 1.5955-3.2566 3.4383v7.6733c0 1.8428 1.4387 3.3394 3.2566 3.4358z" fill="#5f6f73" stroke-width=".083153"/>
 </g>
 <g transform="matrix(.52417 0 0 .52417 72.433 -16.463)" stroke-width="1.0009">
  <g transform="translate(.53837 -.05249)">
   <path d="m-121.45 39.622-0.22069 7.0571 2.9012-0.02683q0.99838-0.0092 1.4718-0.50336 0.48556-0.50748 0.68421-1.9786l0.43459-0.0041-0.19006 6.0773-0.43459 0.0041q0.0208-1.0459-0.19863-1.5336-0.20784-0.48782-0.61149-0.72235-0.39149-0.24787-1.1902-0.24048l-2.9012 0.02683-0.1764 5.6403q-0.0426 1.3638 0.0964 1.7993 0.1071 0.32992 0.47551 0.56477 0.50689 0.31298 1.0707 0.30777l0.57554-0.0053-0.0153 0.48989-6.836 0.06323 0.0152-0.48989 0.56381-0.0052q0.98662-0.0091 1.4532-0.66203 0.29514-0.4263 0.34569-2.0416l0.36271-11.598q0.0426-1.3637-0.0964-1.7993-0.1071-0.32992-0.46376-0.56488-0.49513-0.3131-1.0707-0.30777l-0.56379 0.0052 0.0152-0.48989 11.851-0.10964 0.0293 3.9442-0.41108 0.0038q-0.26606-1.255-0.65895-1.8338-0.38071-0.59212-0.97147-0.85138-0.579-0.25937-1.824-0.24786z" fill="#4d5a5d"/>
   <g fill="none" stroke="#3f4444" stroke-width=".083608">
    <path d="m-126.56 36.998-0.041 21.228" stroke-dasharray="0.334432, 0.167215"/>
    <path d="m-113.04 36.999-0.041 21.228" stroke-dasharray="0.334432, 0.167215"/>
    <g stroke-dasharray="0.250823, 0.0836077">
     <path d="m-127.81 38.616 16.418 0.0024"/>
     <path d="m-127.92 56.625 16.418 0.0024"/>
     <circle transform="rotate(9.1222)" cx="-117.12" cy="59.885" r="1.2907"/>
     <circle transform="rotate(9.1222)" cx="-108.76" cy="59.62" r="1.8826"/>
     <circle transform="rotate(9.1222)" cx="-109.94" cy="63.102" r="1.7044"/>
     <circle transform="rotate(9.1222)" cx="-109.23" cy="67.662" r="1.7044"/>
     <circle transform="rotate(9.1222)" cx="-110.31" cy="73.08" r="1.3276"/>
     <circle transform="rotate(9.1222)" cx="-115.17" cy="74.101" r="1.0834"/>
    </g>
   </g>
  </g>
 </g>
</svg>
