<?xml version="1.0" encoding="UTF-8"?>
<svg width="64" height="64" version="1.1" viewBox="0 0 16.933 16.933" xmlns="http://www.w3.org/2000/svg" xmlns:cc="http://creativecommons.org/ns#" xmlns:dc="http://purl.org/dc/elements/1.1/" xmlns:rdf="http://www.w3.org/1999/02/22-rdf-syntax-ns#" xmlns:xlink="http://www.w3.org/1999/xlink">
 <defs>
  <radialGradient id="radialGradient1463" cx="58.46" cy="10.178" r="7.2759" gradientTransform="matrix(-1.2984 .66652 -.55127 -1.0739 84.6 2.8304)" gradientUnits="userSpaceOnUse">
   <stop stop-color="#fde34e" offset="0"/>
   <stop stop-color="#f8a621" offset="1"/>
  </radialGradient>
  <linearGradient id="linearGradient1473" x1="85.563" x2="85.563" y1="10.399" y2="6.5915" gradientTransform="translate(-23.132 -.44226)" gradientUnits="userSpaceOnUse">
   <stop stop-color="#fafafa" offset="0"/>
   <stop stop-color="#e8f3f5" offset="1"/>
  </linearGradient>
  <filter id="filter1119" x="-.44953" y="-.56045" width="1.8991" height="2.1209" color-interpolation-filters="sRGB">
   <feGaussianBlur stdDeviation="0.42050151"/>
  </filter>
  <filter id="filter1153" x="-.04632" y="-.085148" width="1.0926" height="1.1703" color-interpolation-filters="sRGB">
   <feGaussianBlur stdDeviation="0.16041279"/>
  </filter>
  <linearGradient id="linearGradient1181" x1="85.793" x2="85.793" y1="10.441" y2="6.5316" gradientTransform="matrix(-1.6091,0,0,1.6091,136.74,25.921)" gradientUnits="userSpaceOnUse">
   <stop stop-color="#fafafa" offset="0"/>
   <stop stop-color="#e8f3f5" offset="1"/>
  </linearGradient>
  <filter id="filter1204" x="-.027792" y="-.051089" width="1.0556" height="1.1022" color-interpolation-filters="sRGB">
   <feGaussianBlur stdDeviation="0.15487236"/>
  </filter>
  <filter id="filter1176" x="-.44449" y="-.55416" width="1.889" height="2.1083" color-interpolation-filters="sRGB">
   <feGaussianBlur stdDeviation="0.41578343"/>
  </filter>
  <filter id="filter1241" x="-.44984" y="-.56084" width="1.8997" height="2.1217" color-interpolation-filters="sRGB">
   <feGaussianBlur stdDeviation="0.42079226"/>
  </filter>
  <linearGradient id="linearGradient1448-3" x1="3.9687" x2="3.9687" y1="16.404" y2="2.6458" gradientTransform="matrix(.91667 0 0 .91667 .70544 .70544)" gradientUnits="userSpaceOnUse">
   <stop stop-color="#dcdcdc" offset="0"/>
   <stop stop-color="#f0f0f0" offset="1"/>
  </linearGradient>
  <filter id="filter861-6" x="-.027" y="-.027" width="1.054" height="1.054" color-interpolation-filters="sRGB">
   <feGaussianBlur stdDeviation="0.16371"/>
  </filter>
 </defs>
 <metadata>
  <rdf:RDF>
   <cc:Work rdf:about="">
    <dc:format>image/svg+xml</dc:format>
    <dc:type rdf:resource="http://purl.org/dc/dcmitype/StillImage"/>
    <dc:title/>
   </cc:Work>
  </rdf:RDF>
 </metadata>
 <g transform="translate(-21.834 .89695)" fill="#5e4aa6" stroke-width=".26458">
  <circle cx="-330.35" cy="-328.38" r="0"/>
  <circle cx="-312.11" cy="-326.25" r="0"/>
  <circle cx="-306.02" cy="-333.07" r="0"/>
  <circle cx="-308.84" cy="-326.01" r="0"/>
 </g>
 <rect x="1.1905" y="1.1905" width="14.552" height="14.552" ry="3.4395" filter="url(#filter861-6)" opacity=".3" stroke-opacity=".95294" stroke-width=".083153"/>
 <rect x="1.1905" y="1.1905" width="14.552" height="14.552" ry="3.4395" fill="url(#linearGradient1448-3)" stroke-opacity=".95294" stroke-width=".083153"/>
 <g transform="matrix(.60365 0 0 .60365 7.3264 -12.696)">
  <path d="m10.174 34.327c0 0.87223-0.15353 1.7085-0.43508 2.4836-0.19571 0.5387-0.45318 1.048-0.76442 1.5191-0.13037 0.19807-0.27054 0.38935-0.41933 0.57317-0.47634 0.5883-1.0424 1.1006-1.6779 1.5164-0.23402 0.15324-0.47725 0.29342-0.72907 0.41902-0.97788 0.48939-2.0818 0.76468-3.2501 0.76468s-2.2722-0.27529-3.2501-0.7647c-0.25184-0.12563-0.49536-0.2658-0.72938-0.41902-0.64355-0.42141-1.2164-0.94176-1.6966-1.5398-0.14907-0.18531-0.28896-0.37835-0.41933-0.5782-0.30292-0.46327-0.55385-0.96312-0.74569-1.4914-0.28151-0.77483-0.43477-1.6108-0.43477-2.4827 0-4.0184 3.2575-7.2759 7.2759-7.2759 2.0171 0 3.8423 0.82084 5.1603 2.1465 0.37982 0.38189 0.7175 0.806 1.0049 1.2645 0.27174 0.43181 0.49891 0.89448 0.67561 1.3812 0.28158 0.77511 0.4351 1.6114 0.4351 2.4836z" fill="url(#radialGradient1463)" stroke-width=".028422"/>
  <g transform="matrix(.78148 0 0 .80944 -42.188 23.658)" fill="#f8a621" filter="url(#filter1153)">
   <path d="m59.813 10.093s-1.3725-0.45807-1.3229-1.4421c0.04961-0.984 0.69504-1.4467 1.2212-1.6506 0.52618-0.20394-0.04677-0.73178 0.77173-1.1757 0.8185-0.44386 2.4204-0.69579 3.1103 0.50385 0 0 0.25949 0.62297 0.5635 0.35904 0.30401-0.26392 1.5412-0.1671 1.6114 1.0205 0 0-0.04677 0.39588 0.23386 0.39588s1.6604 0.97171-0.02338 1.9914z" stroke-width="1.0129"/>
   <ellipse transform="matrix(.7358 0 0 .85243 2.199 -2.3215)" cx="78.599" cy="12.829" rx="1.1225" ry=".90035" filter="url(#filter1119)" opacity=".8" style="paint-order:stroke fill markers"/>
   <ellipse transform="matrix(.95332 0 0 .86082 -13.337 -4.004)" cx="78.599" cy="12.829" rx="1.1225" ry=".90035" filter="url(#filter1119)" opacity=".8" style="paint-order:stroke fill markers"/>
   <ellipse transform="matrix(.65952 0 0 .76405 12.536 -1.9679)" cx="78.599" cy="12.829" rx="1.1225" ry=".90035" filter="url(#filter1119)" opacity=".8" style="paint-order:stroke fill markers"/>
   <ellipse transform="matrix(.55851 0 0 .64704 21.708 .64118)" cx="78.599" cy="12.829" rx="1.1225" ry=".90035" filter="url(#filter1119)" opacity=".8" style="paint-order:stroke fill markers"/>
  </g>
  <g transform="translate(-55.05,21.608)">
   <path d="m59.813 9.9755s-1.3725-0.44648-1.3229-1.4056c0.04961-0.9591 0.69504-1.4101 1.2212-1.6088 0.52618-0.19878-0.04677-0.71326 0.77173-1.1459 0.8185-0.43263 2.4204-0.67818 3.1103 0.4911 0 0 0.25949 0.6072 0.5635 0.34995 0.30401-0.25724 1.5412-0.16287 1.6114 0.99472 0 0-0.04677 0.38586 0.23386 0.38586s1.6604 0.94712-0.02338 1.941z" fill="url(#linearGradient1473)"/>
   <g fill="#fff">
    <ellipse transform="matrix(.7358 0 0 .85243 2.199 -2.3215)" cx="78.599" cy="12.829" rx="1.1225" ry=".90035" filter="url(#filter1119)" opacity=".8" style="paint-order:stroke fill markers"/>
    <ellipse transform="matrix(.95332 0 0 .86082 -13.337 -4.004)" cx="78.599" cy="12.829" rx="1.1225" ry=".90035" filter="url(#filter1119)" opacity=".8" style="paint-order:stroke fill markers"/>
    <ellipse transform="matrix(.65952 0 0 .76405 12.536 -1.9679)" cx="78.599" cy="12.829" rx="1.1225" ry=".90035" filter="url(#filter1119)" opacity=".8" style="paint-order:stroke fill markers"/>
    <ellipse transform="matrix(.55851 0 0 .64704 21.708 .64118)" cx="78.599" cy="12.829" rx="1.1225" ry=".90035" filter="url(#filter1119)" opacity=".8" style="paint-order:stroke fill markers"/>
   </g>
  </g>
  <path transform="matrix(.788 0 0 .92833 .93452 2.5178)" d="m3.2704 42.684s2.2085-0.71842 2.1287-2.2617c-0.079827-1.5433-1.1184-2.2689-1.9651-2.5888-0.84667-0.31985 0.075258-1.1477-1.2418-1.8439-1.317-0.69615-3.8947-1.0913-5.0048 0.79023 0 0-0.41755 0.97704-0.90674 0.56311s-2.48-0.26207-2.5928 1.6006c0 0 0.075258 0.62089-0.3763 0.62089-0.45156 0-2.6717 1.524 0.037621 3.1233z" fill="#f8a621" filter="url(#filter1204)"/>
  <path d="m3.2704 42.684s2.2085-0.71842 2.1287-2.2617c-0.079827-1.5433-1.1184-2.2689-1.9651-2.5888-0.84667-0.31985 0.075258-1.1477-1.2418-1.8439-1.317-0.69615-3.8947-1.0913-5.0048 0.79023 0 0-0.41755 0.97704-0.90674 0.56311s-2.48-0.26207-2.5928 1.6006c0 0 0.075258 0.62089-0.3763 0.62089-0.45156 0-2.6717 1.524 0.037621 3.1233z" fill="url(#linearGradient1181)"/>
  <g fill="#fff">
   <ellipse transform="matrix(-1.184,0,0,1.3716,95.977,22.897)" cx="78.599" cy="12.829" rx="1.1225" ry=".90035" filter="url(#filter1119)" opacity=".8" style="paint-order:stroke fill markers"/>
   <ellipse transform="matrix(-1.534,0,0,1.3851,120.98,20.19)" cx="78.599" cy="12.829" rx="1.1225" ry=".90035" filter="url(#filter1176)" opacity=".8" style="paint-order:stroke fill markers"/>
   <ellipse transform="matrix(-1.0612,0,0,1.2294,79.344,23.466)" cx="78.599" cy="12.829" rx="1.1225" ry=".90035" filter="url(#filter1241)" opacity=".8" style="paint-order:stroke fill markers"/>
   <ellipse transform="matrix(-.89871 0 0 1.0412 64.586 27.664)" cx="78.599" cy="12.829" rx="1.1225" ry=".90035" filter="url(#filter1119)" opacity=".8" style="paint-order:stroke fill markers"/>
  </g>
 </g>
</svg>
