<?xml version="1.0" encoding="UTF-8"?>
<svg width="64" height="64" version="1.1" xmlns="http://www.w3.org/2000/svg" xmlns:cc="http://creativecommons.org/ns#" xmlns:dc="http://purl.org/dc/elements/1.1/" xmlns:rdf="http://www.w3.org/1999/02/22-rdf-syntax-ns#" xmlns:xlink="http://www.w3.org/1999/xlink">
 <metadata>
  <rdf:RDF>
   <cc:Work rdf:about="">
    <dc:format>image/svg+xml</dc:format>
    <dc:type rdf:resource="http://purl.org/dc/dcmitype/StillImage"/>
    <dc:title/>
   </cc:Work>
  </rdf:RDF>
 </metadata>
 <defs>
  <linearGradient id="b" x1="399.57" x2="399.57" y1="545.8" y2="517.8" gradientTransform="matrix(2.1429 0 0 2.1429 -826.36 -1107.5)" gradientUnits="userSpaceOnUse">
   <stop stop-color="#3889e9" offset="0"/>
   <stop stop-color="#5ea5fb" offset="1"/>
  </linearGradient>
  <linearGradient id="linearGradient1448" x1="3.9687" x2="3.9687" y1="16.404" y2="2.6458" gradientTransform="matrix(3.4646 0 0 3.4646 2.6663 2.6663)" gradientUnits="userSpaceOnUse">
   <stop stop-color="#144bb4" offset="0"/>
   <stop stop-color="#00c8ff" offset="1"/>
  </linearGradient>
  <filter id="filter861" x="-.027" y="-.027" width="1.054" height="1.054" color-interpolation-filters="sRGB">
   <feGaussianBlur stdDeviation="0.16371"/>
  </filter>
 </defs>
 <circle cx="32.02" cy="32.044" r="0" fill="url(#b)" stroke-width="1.5715"/>
 <g transform="matrix(3.7796 0 0 3.7796 -79.981 84.574)" fill="#5e4aa6" stroke-width=".26458">
  <circle cx="-322.63" cy="-345.67" r="0"/>
  <circle cx="-31.726" cy="-10.849" r="0" fill-rule="evenodd"/>
  <circle cx="-306.92" cy="-328.72" r="0"/>
 </g>
 <rect transform="matrix(3.7796 0 0 3.7796 -1.011e-6 -1.011e-6)" x="1.1905" y="1.1905" width="14.552" height="14.552" ry="3.4395" filter="url(#filter861)" opacity=".3" stroke-opacity=".95294" stroke-width=".083153"/>
 <rect x="4.4996" y="4.4996" width="55.001" height="55.001" ry="13" fill="url(#linearGradient1448)" stroke-opacity=".95294" stroke-width=".31428"/>
 <path d="m36.853 36.255c-0.2197-0.07186-1.6084-0.6978-0.74063-3.3356h-0.01248c2.262-2.3297 3.9906-6.0784 3.9906-9.7692 0-5.675-3.7736-8.6499-8.1594-8.6499-4.3885 0-8.1414 2.9736-8.1414 8.6499 0 3.7059 1.7189 7.4699 3.9947 9.794 0.8871 2.3269-0.69918 3.1905-1.0308 3.3107-3.0921 0.99992-11.504 5.9852-11.371 13.245h33.233c0.14837-6.9355-6.5052-11.439-11.762-13.245z" fill="#fff" stroke-width="1.3818"/>
</svg>
