<?xml version="1.0" encoding="UTF-8"?>
<svg id="Apps-Visual-Studio-Code" width="64" height="64" enable-background="new 0 0 1024 1024" image-rendering="optimizeSpeed" version="1.1" viewBox="0 0 64 64" xmlns="http://www.w3.org/2000/svg" xmlns:cc="http://creativecommons.org/ns#" xmlns:dc="http://purl.org/dc/elements/1.1/" xmlns:rdf="http://www.w3.org/1999/02/22-rdf-syntax-ns#">
 <metadata>
  <rdf:RDF>
   <cc:Work rdf:about="">
    <dc:format>image/svg+xml</dc:format>
    <dc:type rdf:resource="http://purl.org/dc/dcmitype/StillImage"/>
    <dc:title/>
   </cc:Work>
  </rdf:RDF>
 </metadata>
 <defs>
  <linearGradient id="f" x1="2331.3" x2="2331.3" y1="435.51" y2="45.726" gradientTransform="matrix(.15696 0 0 .15696 -333.45 -5.7811)" gradientUnits="userSpaceOnUse">
   <stop stop-color="#807c76" offset=".057692"/>
   <stop stop-color="#d4d7d0" offset=".38462"/>
   <stop stop-color="#bdbfba" offset=".55769"/>
   <stop stop-color="#acb3ac" offset=".63462"/>
   <stop stop-color="#dadfda" offset=".75"/>
   <stop stop-color="#c2c7c1" offset=".86274"/>
   <stop stop-color="#7f7a75" offset=".94118"/>
  </linearGradient>
  <filter id="g" x="-.048" y="-.048" width="1.096" height="1.096" color-interpolation-filters="sRGB">
   <feGaussianBlur stdDeviation="6.174"/>
  </filter>
  <style type="text/css"/>
  <style type="text/css"/>
  <clipPath id="clipPath13429">
   <path d="m481 318h22v22h-22z"/>
  </clipPath>
  <clipPath id="clipPath13465">
   <path d="m507 318h22v22h-22z"/>
  </clipPath>
  <clipPath id="clipPath13501">
   <path d="m530 318h22v22h-22z"/>
  </clipPath>
  <clipPath id="clipPath13753">
   <path d="m672 1064c0-1.105 4.925-2 11-2s11 0.895 11 2-4.925 2-11 2-11-0.895-11-2"/>
  </clipPath>
  <clipPath id="clipPath13771">
   <path d="m660 1057h51v65.001h-51z"/>
  </clipPath>
  <clipPath id="clipPath14035">
   <path d="m659 517h53v18h-53z"/>
  </clipPath>
  <clipPath id="clipPath14127">
   <path d="m659 500h53v18h-53z"/>
  </clipPath>
  <clipPath id="clipPath14445">
   <path d="m648 112h73v60h-73z"/>
  </clipPath>
  <clipPath id="clipPath14609">
   <path d="m826 1056h59v60h-59z"/>
  </clipPath>
  <clipPath id="clipPath15305">
   <path d="m805 276h100v100h-100z"/>
  </clipPath>
  <clipPath id="clipPath15341">
   <path d="m145 1063.8h74.152v45.21h-74.152z"/>
  </clipPath>
  <clipPath id="clipPath15715">
   <path d="m151 667h57v57h-57z"/>
  </clipPath>
  <clipPath id="clipPath15807">
   <path d="m154 697h51v51h-51z"/>
  </clipPath>
  <clipPath id="clipPath16001">
   <path d="m500.04 864.45h36.012v67.52h-36.012z"/>
  </clipPath>
  <clipPath id="clipPath16093">
   <path d="m836 870.54h47v55.539h-47z"/>
  </clipPath>
  <clipPath id="clipPath16477">
   <path d="m318.03 702.35h62.848v37.991h-62.848z"/>
  </clipPath>
  <clipPath id="clipPath16579">
   <path d="m485.03 133.35h62.847v37.991h-62.847z"/>
  </clipPath>
  <clipPath id="clipPath16709">
   <path d="m493.37 677.93h45.643v68.067h-45.643z"/>
  </clipPath>
  <clipPath id="clipPath24218">
   <path d="m144.34 1018.2h71.467v78h-71.467z"/>
  </clipPath>
  <clipPath id="clipPath24382">
   <path d="m293.21 1068.6 66.323-38.292 36.047 62.435-66.323 38.292z"/>
  </clipPath>
  <clipPath id="clipPath24650">
   <path d="m488.86 1054.5h10v10.706h-10z"/>
  </clipPath>
  <clipPath id="clipPath24700">
   <path d="m508 1066.8h10.001v10.705h-10.001z"/>
  </clipPath>
  <clipPath id="clipPath24750">
   <path d="m525 1045.8h10v10.706h-10z"/>
  </clipPath>
  <clipPath id="clipPath24864">
   <path d="m836 1043.7h25.5v31.5h-25.5z"/>
  </clipPath>
  <clipPath id="clipPath24896">
   <path d="m838 1062.2h24v24h-24z"/>
  </clipPath>
  <clipPath id="clipPath25070">
   <path d="m134 489.24h7v6h-7z"/>
  </clipPath>
  <clipPath id="clipPath25100">
   <path d="m216 489.24h7v6h-7z"/>
  </clipPath>
  <clipPath id="clipPath25502">
   <path d="m838 477.24h22v22h-22z"/>
  </clipPath>
  <clipPath id="clipPath25686">
   <path d="m704 1061.2h25v25h-25z"/>
  </clipPath>
  <clipPath id="clipPath25788">
   <path d="m663.04 1078.6-1.808-3.514-21.07-47.453c13.336-18.439 48.336-26.938 73.836-3.439 0.842 0 6.476 6.246 6 7l-18.386 25.895c-0.483 0.765-1.453 0.946-2.177 0.431l-15.505-11.011c-0.359-0.255-0.847-0.153-1.07 0.238l-18.272 31.869c-0.218 0.384-0.502 0.578-0.782 0.578-0.282 0-0.561-0.197-0.766-0.594"/>
  </clipPath>
  <clipPath id="clipPath26420">
   <path d="m127 820.24h100v100h-100z"/>
  </clipPath>
  <clipPath id="clipPath26860">
   <path d="m809 680.24c0-22.092 17.908-40 40-40s40 17.908 40 40c0 22.091-17.908 40-40 40s-40-17.909-40-40"/>
  </clipPath>
  <clipPath id="clipPath27506">
   <path d="m658 469.24h44v45h-44z"/>
  </clipPath>
  <clipPath id="clipPath27772">
   <path d="m651 271.24h58v58h-58z"/>
  </clipPath>
  <clipPath id="clipPath27864">
   <path d="m662 307.24h38v8h-38z"/>
  </clipPath>
  <clipPath id="clipPath28028">
   <path d="m858.98 137.24c0.013-0.101 0.021-0.203 0.021-0.307v-6.693h15.75c1.237 0 2.25-1.013 2.25-2.25v-11.25l-27-4.5-27 4.5v-2.25l27-4.5 27 4.5v-27c0-1.237-1.013-2.25-2.25-2.25h-49.5c-1.237 0-2.25 1.013-2.25 2.25v-4.25h54v54zm-35.979 0v-9.25c0 1.237 1.013 2.25 2.25 2.25h15.75v6.693c0 0.104 7e-3 0.207 0.02 0.307zm22.5-7h9v4.5h-9zm1.125-9c-0.62 0-1.125-0.506-1.125-1.125v-2.25c0-0.619 0.505-1.125 1.125-1.125h6.75c0.619 0 1.125 0.506 1.125 1.125v2.25c0 0.619-0.506 1.125-1.125 1.125z"/>
  </clipPath>
  <clipPath id="clipPath28200">
   <path d="m531.27 136.24c6.325-2.29 10.727-8.277 10.727-15.484 0-11.316-10.2-20.563-25.65-34.575l-4.35-3.941-4.35 3.941c-15.45 14.012-25.65 23.259-25.65 34.575v-39.516h60v55zm-26.983 0c2.995-1.052 5.686-2.883 7.71-5.25 2.024 2.367 4.715 4.198 7.71 5.25zm-22.29 0v-15.484c0 7.207 4.402 13.194 10.727 15.484z"/>
  </clipPath>
  <clipPath id="clipPath28364">
   <path d="m648 79.241h64v64h-64z"/>
  </clipPath>
  <clipPath id="clipPath28984">
   <path d="m500 691.74c0-3.037 2.463-5.5 5.5-5.5s5.5 2.463 5.5 5.5-2.463 5.5-5.5 5.5-5.5-2.463-5.5-5.5"/>
  </clipPath>
  <clipPath id="clipPath29012">
   <path d="m500 669.74c0-3.037 2.463-5.5 5.5-5.5s5.5 2.463 5.5 5.5c0 3.038-2.463 5.5-5.5 5.5s-5.5-2.462-5.5-5.5"/>
  </clipPath>
  <clipPath id="clipPath29040">
   <path d="m494 680.74c0-3.037 2.462-5.5 5.5-5.5s5.5 2.463 5.5 5.5c0 3.038-2.462 5.5-5.5 5.5s-5.5-2.462-5.5-5.5"/>
  </clipPath>
  <clipPath id="clipPath29068">
   <path d="m513 691.74c0-3.037 2.463-5.5 5.5-5.5s5.5 2.463 5.5 5.5-2.463 5.5-5.5 5.5-5.5-2.463-5.5-5.5"/>
  </clipPath>
  <clipPath id="clipPath29096">
   <path d="m513 669.74c0-3.037 2.463-5.5 5.5-5.5s5.5 2.463 5.5 5.5c0 3.038-2.463 5.5-5.5 5.5s-5.5-2.462-5.5-5.5"/>
  </clipPath>
  <clipPath id="clipPath29124">
   <path d="m507 680.74c0-3.037 2.463-5.5 5.5-5.5s5.5 2.463 5.5 5.5c0 3.038-2.463 5.5-5.5 5.5s-5.5-2.462-5.5-5.5"/>
  </clipPath>
  <clipPath id="clipPath29152">
   <path d="m520 680.74c0-3.037 2.463-5.5 5.5-5.5s5.5 2.463 5.5 5.5c0 3.038-2.463 5.5-5.5 5.5s-5.5-2.462-5.5-5.5"/>
  </clipPath>
  <clipPath id="clipPath29252">
   <path d="m321 322.24c-4.97 0-9-4.029-9-9 0-4.97 4.03-9 9-9h45c4.971 0 9 4.03 9 9 0 4.971-4.029 9-9 9z"/>
  </clipPath>
  <clipPath id="clipPath29280">
   <path d="m322 297.24c-4.971 0-9-4.029-9-9 0-4.97 4.029-9 9-9h45c4.971 0 9 4.03 9 9 0 4.971-4.029 9-9 9z"/>
  </clipPath>
  <clipPath id="clipPath29400">
   <path d="m155 83.24h44v53h-44z"/>
  </clipPath>
  <clipPath id="clipPath13429-3">
   <path d="m481 318h22v22h-22z"/>
  </clipPath>
  <clipPath id="clipPath13465-6">
   <path d="m507 318h22v22h-22z"/>
  </clipPath>
  <clipPath id="clipPath13501-7">
   <path d="m530 318h22v22h-22z"/>
  </clipPath>
  <clipPath id="clipPath13753-5">
   <path d="m672 1064c0-1.105 4.925-2 11-2s11 0.895 11 2-4.925 2-11 2-11-0.895-11-2"/>
  </clipPath>
  <clipPath id="clipPath13771-3">
   <path d="m660 1057h51v65.001h-51z"/>
  </clipPath>
  <clipPath id="clipPath14035-5">
   <path d="m659 517h53v18h-53z"/>
  </clipPath>
  <clipPath id="clipPath14127-6">
   <path d="m659 500h53v18h-53z"/>
  </clipPath>
  <clipPath id="clipPath14445-2">
   <path d="m648 112h73v60h-73z"/>
  </clipPath>
  <clipPath id="clipPath14609-9">
   <path d="m826 1056h59v60h-59z"/>
  </clipPath>
  <clipPath id="clipPath15305-1">
   <path d="m805 276h100v100h-100z"/>
  </clipPath>
  <clipPath id="clipPath15341-2">
   <path d="m145 1063.8h74.152v45.21h-74.152z"/>
  </clipPath>
  <clipPath id="clipPath15715-7">
   <path d="m151 667h57v57h-57z"/>
  </clipPath>
  <clipPath id="clipPath15807-0">
   <path d="m154 697h51v51h-51z"/>
  </clipPath>
  <clipPath id="clipPath16001-9">
   <path d="m500.04 864.45h36.012v67.52h-36.012z"/>
  </clipPath>
  <clipPath id="clipPath16093-3">
   <path d="m836 870.54h47v55.539h-47z"/>
  </clipPath>
  <clipPath id="clipPath16477-6">
   <path d="m318.03 702.35h62.848v37.991h-62.848z"/>
  </clipPath>
  <clipPath id="clipPath16579-0">
   <path d="m485.03 133.35h62.847v37.991h-62.847z"/>
  </clipPath>
  <clipPath id="clipPath16709-6">
   <path d="m493.37 677.93h45.643v68.067h-45.643z"/>
  </clipPath>
  <clipPath id="clipPath24218-2">
   <path d="m144.34 1018.2h71.467v78h-71.467z"/>
  </clipPath>
  <clipPath id="clipPath24382-6">
   <path d="m293.21 1068.6 66.323-38.292 36.047 62.435-66.323 38.292z"/>
  </clipPath>
  <clipPath id="clipPath24650-1">
   <path d="m488.86 1054.5h10v10.706h-10z"/>
  </clipPath>
  <clipPath id="clipPath24700-8">
   <path d="m508 1066.8h10.001v10.705h-10.001z"/>
  </clipPath>
  <clipPath id="clipPath24750-7">
   <path d="m525 1045.8h10v10.706h-10z"/>
  </clipPath>
  <clipPath id="clipPath24864-9">
   <path d="m836 1043.7h25.5v31.5h-25.5z"/>
  </clipPath>
  <clipPath id="clipPath24896-2">
   <path d="m838 1062.2h24v24h-24z"/>
  </clipPath>
  <clipPath id="clipPath25070-0">
   <path d="m134 489.24h7v6h-7z"/>
  </clipPath>
  <clipPath id="clipPath25100-2">
   <path d="m216 489.24h7v6h-7z"/>
  </clipPath>
  <clipPath id="clipPath25502-3">
   <path d="m838 477.24h22v22h-22z"/>
  </clipPath>
  <clipPath id="clipPath25686-7">
   <path d="m704 1061.2h25v25h-25z"/>
  </clipPath>
  <clipPath id="clipPath25788-5">
   <path d="m663.04 1078.6-1.808-3.514-21.07-47.453c13.336-18.439 48.336-26.938 73.836-3.439 0.842 0 6.476 6.246 6 7l-18.386 25.895c-0.483 0.765-1.453 0.946-2.177 0.431l-15.505-11.011c-0.359-0.255-0.847-0.153-1.07 0.238l-18.272 31.869c-0.218 0.384-0.502 0.578-0.782 0.578-0.282 0-0.561-0.197-0.766-0.594"/>
  </clipPath>
  <clipPath id="clipPath26420-9">
   <path d="m127 820.24h100v100h-100z"/>
  </clipPath>
  <clipPath id="clipPath26860-2">
   <path d="m809 680.24c0-22.092 17.908-40 40-40s40 17.908 40 40c0 22.091-17.908 40-40 40s-40-17.909-40-40"/>
  </clipPath>
  <clipPath id="clipPath27506-2">
   <path d="m658 469.24h44v45h-44z"/>
  </clipPath>
  <clipPath id="clipPath27772-8">
   <path d="m651 271.24h58v58h-58z"/>
  </clipPath>
  <clipPath id="clipPath27864-9">
   <path d="m662 307.24h38v8h-38z"/>
  </clipPath>
  <clipPath id="clipPath28028-7">
   <path d="m858.98 137.24c0.013-0.101 0.021-0.203 0.021-0.307v-6.693h15.75c1.237 0 2.25-1.013 2.25-2.25v-11.25l-27-4.5-27 4.5v-2.25l27-4.5 27 4.5v-27c0-1.237-1.013-2.25-2.25-2.25h-49.5c-1.237 0-2.25 1.013-2.25 2.25v-4.25h54v54zm-35.979 0v-9.25c0 1.237 1.013 2.25 2.25 2.25h15.75v6.693c0 0.104 7e-3 0.207 0.02 0.307zm22.5-7h9v4.5h-9zm1.125-9c-0.62 0-1.125-0.506-1.125-1.125v-2.25c0-0.619 0.505-1.125 1.125-1.125h6.75c0.619 0 1.125 0.506 1.125 1.125v2.25c0 0.619-0.506 1.125-1.125 1.125z"/>
  </clipPath>
  <clipPath id="clipPath28200-3">
   <path d="m531.27 136.24c6.325-2.29 10.727-8.277 10.727-15.484 0-11.316-10.2-20.563-25.65-34.575l-4.35-3.941-4.35 3.941c-15.45 14.012-25.65 23.259-25.65 34.575v-39.516h60v55zm-26.983 0c2.995-1.052 5.686-2.883 7.71-5.25 2.024 2.367 4.715 4.198 7.71 5.25zm-22.29 0v-15.484c0 7.207 4.402 13.194 10.727 15.484z"/>
  </clipPath>
  <clipPath id="clipPath28364-6">
   <path d="m648 79.241h64v64h-64z"/>
  </clipPath>
  <clipPath id="clipPath28984-1">
   <path d="m500 691.74c0-3.037 2.463-5.5 5.5-5.5s5.5 2.463 5.5 5.5-2.463 5.5-5.5 5.5-5.5-2.463-5.5-5.5"/>
  </clipPath>
  <clipPath id="clipPath29012-2">
   <path d="m500 669.74c0-3.037 2.463-5.5 5.5-5.5s5.5 2.463 5.5 5.5c0 3.038-2.463 5.5-5.5 5.5s-5.5-2.462-5.5-5.5"/>
  </clipPath>
  <clipPath id="clipPath29040-9">
   <path d="m494 680.74c0-3.037 2.462-5.5 5.5-5.5s5.5 2.463 5.5 5.5c0 3.038-2.462 5.5-5.5 5.5s-5.5-2.462-5.5-5.5"/>
  </clipPath>
  <clipPath id="clipPath29068-3">
   <path d="m513 691.74c0-3.037 2.463-5.5 5.5-5.5s5.5 2.463 5.5 5.5-2.463 5.5-5.5 5.5-5.5-2.463-5.5-5.5"/>
  </clipPath>
  <clipPath id="clipPath29096-1">
   <path d="m513 669.74c0-3.037 2.463-5.5 5.5-5.5s5.5 2.463 5.5 5.5c0 3.038-2.463 5.5-5.5 5.5s-5.5-2.462-5.5-5.5"/>
  </clipPath>
  <clipPath id="clipPath29124-9">
   <path d="m507 680.74c0-3.037 2.463-5.5 5.5-5.5s5.5 2.463 5.5 5.5c0 3.038-2.463 5.5-5.5 5.5s-5.5-2.462-5.5-5.5"/>
  </clipPath>
  <clipPath id="clipPath29152-4">
   <path d="m520 680.74c0-3.037 2.463-5.5 5.5-5.5s5.5 2.463 5.5 5.5c0 3.038-2.463 5.5-5.5 5.5s-5.5-2.462-5.5-5.5"/>
  </clipPath>
  <clipPath id="clipPath29252-7">
   <path d="m321 322.24c-4.97 0-9-4.029-9-9 0-4.97 4.03-9 9-9h45c4.971 0 9 4.03 9 9 0 4.971-4.029 9-9 9z"/>
  </clipPath>
  <clipPath id="clipPath29280-8">
   <path d="m322 297.24c-4.971 0-9-4.029-9-9 0-4.97 4.029-9 9-9h45c4.971 0 9 4.03 9 9 0 4.971-4.029 9-9 9z"/>
  </clipPath>
  <clipPath id="clipPath29400-4">
   <path d="m155 83.24h44v53h-44z"/>
  </clipPath>
  <filter id="filter861-7" x="-.027" y="-.027" width="1.054" height="1.054" color-interpolation-filters="sRGB">
   <feGaussianBlur stdDeviation="0.16371"/>
  </filter>
  <radialGradient id="radialGradient3261" cx="32" cy="32" r="25" gradientTransform="translate(-1.9192e-5)" gradientUnits="userSpaceOnUse">
   <stop stop-opacity="0" offset="0"/>
   <stop stop-opacity=".5" offset="1"/>
  </radialGradient>
  <linearGradient id="linearGradient3277" x1="3.9687" x2="3.9687" y1="16.404" y2=".50182" gradientTransform="matrix(3.16,0,0,3.16,5.2453,5.2453)" gradientUnits="userSpaceOnUse">
   <stop stop-color="#bdbebf" offset="0"/>
   <stop stop-color="#afb0b1" offset="1"/>
  </linearGradient>
  <filter id="filter3294" x="-.075" y="-.075" width="1.15" height="1.15" color-interpolation-filters="sRGB">
   <feGaussianBlur stdDeviation="1.5625"/>
  </filter>
  <linearGradient id="linearGradient3316" x1="3.9687" x2="3.9687" y1="16.404" y2="2.6458" gradientTransform="matrix(3.4646,0,0,3.4646,2.6663,2.6663)" gradientUnits="userSpaceOnUse">
   <stop stop-color="#dcdcdc" offset="0"/>
   <stop stop-color="#f0f0f0" offset="1"/>
  </linearGradient>
 </defs>
 <rect transform="matrix(3.7796,0,0,3.7796,1.5922e-5,1.5922e-5)" x="1.1905" y="1.1905" width="14.552" height="14.552" ry="3.4395" filter="url(#filter861-7)" image-rendering="optimizeSpeed" opacity=".3" stroke-opacity=".95294" stroke-width=".083153"/>
 <rect x="4.4996" y="4.4996" width="55.001" height="55.001" ry="13" fill="url(#linearGradient3316)" image-rendering="optimizeSpeed" stroke-opacity=".95294" stroke-width=".31428"/>
 <g transform="translate(1.6933e-5,1.6933e-5)" fill="#5e4aa6" image-rendering="optimizeSpeed">
  <circle cx="-1403.4" cy="-1240.7" r="0"/>
  <circle cx="-1334.4" cy="-1232.6" r="0"/>
  <circle cx="-1311.4" cy="-1258.4" r="0"/>
  <circle cx="-1322.1" cy="-1231.7" r="0"/>
  <circle cx="-1146.5" cy="-1251.8" r="0"/>
  <circle cx="-47.027" cy="13.726" r="0" fill-rule="evenodd"/>
  <g transform="matrix(4.1232 0 0 4.1232 -92.933 .7892)" stroke-width=".26458">
   <circle cx="-330.35" cy="-328.38" r="0"/>
   <circle cx="-312.11" cy="-326.25" r="0"/>
   <circle cx="-306.02" cy="-333.07" r="0"/>
   <circle cx="-308.84" cy="-326.01" r="0"/>
  </g>
  <g transform="matrix(4.1232,0,0,4.1232,-33.191,88.308)" stroke-width=".26458">
   <g transform="translate(-21.833 .89722)">
    <circle cx="-330.35" cy="-328.38" r="0"/>
    <circle cx="-312.11" cy="-326.25" r="0"/>
    <circle cx="-306.02" cy="-333.07" r="0"/>
    <circle cx="-308.84" cy="-326.01" r="0"/>
   </g>
   <circle cx="-284.23" cy="-330.42" r="0"/>
   <circle cx="6.6786" cy="4.3998" r="0" fill-rule="evenodd"/>
  </g>
 </g>
 <g transform="matrix(1.4545,0,0,-1.4545,786.27,1089.8)" image-rendering="optimizeSpeed">
  <g clip-path="url(#clipPath13429)">
   <g transform="translate(448,326)">
    <path d="m0 0c3.866 0 7 3.134 7 7s-3.134 7-7 7-7-3.134-7-7 3.134-7 7-7" fill="#fff" fill-rule="evenodd"/>
   </g>
  </g>
 </g>
 <g transform="matrix(1.4545,0,0,-1.4545,786.27,1089.8)" image-rendering="optimizeSpeed">
  <g clip-path="url(#clipPath13465)">
   <g transform="translate(474,326)">
    <path d="m0 0c3.866 0 7 3.134 7 7s-3.134 7-7 7-7-3.134-7-7 3.134-7 7-7" fill="#fff" fill-rule="evenodd"/>
   </g>
  </g>
 </g>
 <g transform="matrix(1.4545,0,0,-1.4545,786.27,1089.8)" image-rendering="optimizeSpeed">
  <g clip-path="url(#clipPath13501)">
   <g transform="translate(497,326)">
    <path d="m0 0c3.866 0 7 3.134 7 7s-3.134 7-7 7-7-3.134-7-7 3.134-7 7-7" fill="#fff" fill-rule="evenodd"/>
   </g>
  </g>
 </g>
 <g transform="matrix(1.4545,0,0,-1.4545,786.27,1089.8)" image-rendering="optimizeSpeed">
  <g clip-path="url(#clipPath13753)">
   <path d="m593 1073h36v-18h-36zm18-11c6.075 0 11 0.895 11 2s-4.925 2-11 2-11-0.895-11-2 4.925-2 11-2" fill="#fff" fill-rule="evenodd"/>
  </g>
 </g>
 <g transform="matrix(1.4545,0,0,-1.4545,786.27,1089.8)" image-rendering="optimizeSpeed">
  <g clip-path="url(#clipPath13771)">
   <g transform="translate(583.42,1063)">
    <path d="m0 0s21.582 23.182 21.582 35.147c0 12.048-9.684 21.853-21.582 21.853-11.816 0-21.418-9.805-21.418-21.853 0-8.06 9.766-21.188 16.002-28.832zm0 42.542c3.938 0 7.14-3.323 7.14-7.395 0-3.822-3.202-7.146-7.14-7.146-3.856 0-7.222 3.324-7.222 7.146 0 4.072 3.366 7.395 7.222 7.395" fill="#fff"/>
   </g>
  </g>
 </g>
 <g transform="matrix(1.4545,0,0,-1.4545,786.27,1089.8)" image-rendering="optimizeSpeed">
  <g clip-path="url(#clipPath14035)">
   <g transform="translate(562,535)">
    <path d="m0 0h35c2.762 0 5-2.238 5-5s-2.238-5-5-5h-35c-2.762 0-5 2.238-5 5s2.238 5 5 5" fill="#fff" fill-rule="evenodd"/>
   </g>
  </g>
 </g>
 <g transform="matrix(1.4545,0,0,-1.4545,786.27,1089.8)" image-rendering="optimizeSpeed">
  <g clip-path="url(#clipPath14127)">
   <g transform="translate(562,518)">
    <path d="m0 0h35c2.762 0 5-2.238 5-5s-2.238-5-5-5h-35c-2.762 0-5 2.238-5 5s2.238 5 5 5" fill="#fff" fill-rule="evenodd"/>
   </g>
  </g>
 </g>
 <g transform="matrix(1.4545,0,0,-1.4545,786.27,1089.8)" image-rendering="optimizeSpeed">
  <g clip-path="url(#clipPath14445)">
   <g transform="translate(536.43,133.83)">
    <path d="m0 0c-10.01-12.916-22.288-9.047-24.23-8.072-4.847 1.293-6.464 10.015-0.326 12.918 10.018 3.226 19.06-0.325 25.524-3.553-0.644-0.967-0.968-1.293-0.968-1.293m10.667 3.553c4.521 8.072 6.139 15.826 6.139 15.826h-15.189v5.812h17.767v2.26h-17.767v8.723h-8.074v-8.723h-16.156v-2.584h16.156v-5.812h-13.57v-2.585h27.783c0-0.325 0-0.325-0.324-0.968 0-2.909-1.936-6.779-3.554-10.014-20.677 8.079-26.491 3.235-28.108 2.584-13.564-9.689-0.968-21.963 1.293-21.638 14.538-3.227 23.905 2.91 30.369 10.657 0.324-0.325 0.967-0.325 1.292-0.325 4.528-2.578 25.848-12.592 25.848-12.592v12.274c-3.878 0.325-15.506 4.195-23.905 7.105" fill="#fff"/>
   </g>
  </g>
 </g>
 <g transform="matrix(1.4545,0,0,-1.4545,786.27,1089.8)" image-rendering="optimizeSpeed">
  <g clip-path="url(#clipPath14609)">
   <g transform="translate(720.03,1091.5)">
    <path d="m0 0c-0.149 0.354-0.224 0.837-0.224 1.451 0 0.372 0.103 0.828 0.306 1.368 0.205 0.539 0.428 0.958 0.671 1.256-0.019 0.409 0.051 0.902 0.209 1.478 0.159 0.576 0.368 0.976 0.629 1.2 0 2.586 0.86 5.269 2.581 8.05 1.722 2.782 3.744 4.73 6.07 5.846 2.585 1.228 5.6 1.842 9.041 1.842 2.475 0 4.949-0.511 7.423-1.534 0.912-0.391 1.749-0.837 2.512-1.34 0.762-0.502 1.423-1.022 1.981-1.562 0.559-0.54 1.07-1.172 1.534-1.897 0.465-0.725 0.856-1.413 1.172-2.064 0.318-0.651 0.619-1.437 0.908-2.358 0.287-0.921 0.524-1.753 0.71-2.497s0.391-1.655 0.614-2.734l0.028-0.14c1.023-1.543 1.535-2.939 1.535-4.186 0-0.26-0.084-0.632-0.252-1.115-0.168-0.484-0.252-0.837-0.252-1.061 0-0.019 0.015-0.052 0.043-0.099s0.061-0.093 0.098-0.139c0.038-0.046 0.057-0.077 0.057-0.098 1.432-2.121 2.553-4.116 3.363-5.985 0.809-1.869 1.214-3.808 1.214-5.817 0-0.8-0.182-1.73-0.544-2.791-0.363-1.06-0.879-1.59-1.549-1.59-0.167 0-0.349 0.069-0.544 0.209-0.194 0.14-0.371 0.303-0.529 0.489-0.159 0.186-0.335 0.428-0.53 0.725s-0.344 0.543-0.447 0.739-0.228 0.438-0.377 0.725c-0.147 0.288-0.231 0.451-0.251 0.489-0.019 0.019-0.047 0.028-0.085 0.028l-0.138-0.111c-1.099-2.864-2.327-4.938-3.684-6.222 0.372-0.372 0.944-0.73 1.716-1.075s1.414-0.73 1.925-1.158c0.511-0.426 0.841-1.031 0.991-1.814-0.037-0.074-0.074-0.223-0.112-0.447-0.036-0.224-0.101-0.391-0.195-0.501-1.19-1.804-4-2.706-8.427-2.706-0.986 0-2.013 0.084-3.084 0.251-1.069 0.168-1.981 0.354-2.734 0.558s-1.726 0.483-2.916 0.837c-0.279 0.093-0.493 0.158-0.643 0.196-0.259 0.075-0.687 0.115-1.282 0.125-0.595 9e-3 -0.967 0.023-1.116 0.042-0.763-0.838-1.949-1.442-3.559-1.814-1.609-0.372-3.176-0.558-4.702-0.558-0.65 0-1.293 0.014-1.925 0.042s-1.498 0.113-2.595 0.252c-1.098 0.139-2.038 0.33-2.82 0.572-0.781 0.241-1.473 0.613-2.078 1.115-0.604 0.502-0.906 1.098-0.906 1.786 0 0.744 0.093 1.298 0.279 1.661 0.187 0.364 0.569 0.815 1.144 1.353 0.205 0.038 0.581 0.159 1.131 0.363 0.549 0.204 1.009 0.316 1.381 0.334 0.074 0 0.204 0.019 0.39 0.057 0.038 0.037 0.057 0.074 0.057 0.111l-0.057 0.084c-0.892 0.204-1.897 1.185-3.014 2.944-1.117 1.758-1.796 3.214-2.038 4.367l-0.139 0.084c-0.074 0-0.186-0.185-0.334-0.557-0.335-0.763-0.842-1.455-1.521-2.079-0.679-0.622-1.4-0.971-2.163-1.046h-0.028c-0.073 0-0.129 0.041-0.167 0.125-0.037 0.083-0.084 0.134-0.139 0.153-0.428 1.004-0.642 1.934-0.642 2.79 0 5.116 2.343 9.45 7.032 13.002z" fill="#fff"/>
   </g>
  </g>
 </g>
 <g transform="matrix(1.4545,0,0,-1.4545,786.27,1089.8)" image-rendering="optimizeSpeed">
  <g clip-path="url(#clipPath15305)">
   <g transform="translate(655,300)">
    <path d="m0 0c16.568 0 30 13.432 30 30s-13.432 30-30 30-30-13.432-30-30 13.432-30 30-30z" fill="none" stroke="#fff" stroke-miterlimit="10" stroke-width="8"/>
   </g>
  </g>
 </g>
 <g transform="matrix(1.4545,0,0,-1.4545,786.27,1089.8)" image-rendering="optimizeSpeed">
  <g clip-path="url(#clipPath15341)">
   <g transform="translate(66.849,1083.1)">
    <path d="m0 0c0 5.302-3.661 9.749-8.591 10.948-0.209 8.314-7.006 14.991-15.366 14.991-4.897 0-9.254-2.293-12.07-5.861-1.579 2.041-4.05 3.358-6.828 3.358-4.769 0-8.633-3.868-8.633-8.639 0-0.416 0.031-0.825 0.089-1.224-0.726 0.13-1.47 0.203-2.232 0.203-6.913 0-12.515-5.607-12.515-12.524 0-6.916 5.602-12.523 12.515-12.523h42.394c6.21 0.013 11.241 5.053 11.241 11.269z" fill="#fff"/>
   </g>
  </g>
 </g>
 <g transform="matrix(1.4545,0,0,-1.4545,786.27,1089.8)" image-rendering="optimizeSpeed">
  <g clip-path="url(#clipPath15715)">
   <g transform="translate(65.5,681)">
    <path d="m0 0c9.113 0 16.5 7.387 16.5 16.5s-7.387 16.5-16.5 16.5-16.5-7.387-16.5-16.5 7.387-16.5 16.5-16.5z" fill="none" stroke="#fff" stroke-miterlimit="10" stroke-width="4"/>
   </g>
  </g>
 </g>
 <g transform="matrix(1.4545,0,0,-1.4545,786.27,1089.8)" image-rendering="optimizeSpeed">
  <g clip-path="url(#clipPath15807)">
   <g transform="translate(77.5,711)">
    <path d="m0 0c7.456 0 13.5 6.044 13.5 13.5s-6.044 13.5-13.5 13.5-13.5-6.044-13.5-13.5 6.044-13.5 13.5-13.5z" fill="none" stroke="#fff" stroke-miterlimit="10" stroke-width="4"/>
   </g>
  </g>
 </g>
 <g transform="matrix(1.4545,0,0,-1.4545,786.27,1089.8)" image-rendering="optimizeSpeed">
  <g clip-path="url(#clipPath16001)">
   <g transform="translate(455.91,931.53)">
    <path d="m0 0c-0.742-1.039-4.75-2.821-8.165-3.563-4.305-0.891-6.531-1.633-8.758-2.82-2.969-1.782-4.601-4.009-4.305-6.087 0.149-0.445 3.711-5.64 7.868-11.578 4.304-5.938 7.868-10.985 8.016-11.134 0.149-0.297-0.445-0.297-2.524-0.148-6.531 0.445-12.469-2.969-15.142-8.314-0.742-1.632-0.89-2.523-0.89-4.453 0-4.453 2.376-8.016 6.829-10.094 1.781-0.742 2.375-0.891 6.086-0.891 4.007 0 4.156 0 6.829 1.336 7.125 3.414 10.093 10.095 7.125 16.181-0.594 1.336-4.305 7.719-8.313 14.251l-7.274 12.024h1.187c4.75 0.297 8.017 1.781 10.244 4.305 1.929 2.227 2.523 4.453 2.374 8.016-0.148 3.266-0.445 4.008-1.187 2.969" fill="#fff"/>
   </g>
  </g>
 </g>
 <g transform="matrix(1.4545,0,0,-1.4545,786.27,1089.8)" image-rendering="optimizeSpeed">
  <g clip-path="url(#clipPath16093)">
   <g transform="translate(784,902.31)">
    <path d="m0 0c0-1.565-0.904-2.931-2.251-3.674l-27.781-18.472c-0.012-8e-3 -0.026-0.014-0.037-0.02l-0.017-0.011c-0.684-0.376-1.48-0.592-2.331-0.592-2.53 0-4.583 1.913-4.583 4.269v37c0 2.356 2.053 4.27 4.583 4.27 0.851 0 1.647-0.217 2.331-0.596l0.017-8e-3c0.011-9e-3 0.022-0.014 0.037-0.02l27.781-18.471c1.347-0.743 2.251-2.11 2.251-3.675" fill="#fff"/>
   </g>
  </g>
 </g>
 <g transform="matrix(1.4545,0,0,-1.4545,786.27,1089.8)" image-rendering="optimizeSpeed">
  <g clip-path="url(#clipPath16477)">
   <g transform="translate(223.75,708.35)">
    <path d="m0 0c-15.123 0-27.418 12.329-27.418 27.486 0 1.382 1.111 2.505 2.487 2.505 1.379 0 2.499-1.123 2.499-2.505 0-12.4 10.06-22.487 22.432-22.487 12.375 0 22.443 10.087 22.443 22.487 0 1.382 1.112 2.505 2.488 2.505 1.378 0 2.499-1.123 2.499-2.505 0-15.157-12.304-27.486-27.43-27.486" fill="#fff" fill-rule="evenodd"/>
   </g>
  </g>
 </g>
 <g transform="matrix(1.4545,0,0,-1.4545,786.27,1089.8)" image-rendering="optimizeSpeed">
  <g clip-path="url(#clipPath16579)">
   <g transform="translate(390.75,139.35)">
    <path d="m0 0c-15.123 0-27.418 12.329-27.418 27.485 0 1.383 1.111 2.506 2.487 2.506 1.379 0 2.499-1.123 2.499-2.506 0-12.398 10.06-22.486 22.432-22.486 12.375 0 22.443 10.088 22.443 22.486 0 1.383 1.112 2.506 2.488 2.506 1.378 0 2.499-1.123 2.499-2.506 0-15.156-12.304-27.485-27.43-27.485" fill="#fff" fill-rule="evenodd"/>
   </g>
  </g>
 </g>
 <g transform="matrix(1.4545,0,0,-1.4545,786.27,1089.8)" image-rendering="optimizeSpeed">
  <g clip-path="url(#clipPath16709)">
   <g transform="translate(423.93,686.39)">
    <path d="m0 0c0.245-0.286 0.605-0.456 0.986-0.456 0.382 0 0.743 0.17 0.988 0.456l17.516 20.497c0.333 0.388 0.408 0.933 0.191 1.388-0.211 0.463-0.674 0.756-1.184 0.756h-9.93c-2.118 4.172-3.109 8.382-2.973 12.63 0.135 4.248 1.954 12.361 5.455 24.34-10.956-6.59-17.656-18.44-17.656-31.225v-5.745h-9.93c-0.51 0-0.966-0.293-1.184-0.756-0.211-0.462-0.135-1 0.191-1.388z" fill="#fff"/>
   </g>
  </g>
 </g>
 <g transform="matrix(1.4545,0,0,-1.4545,641.26,1259.7)" image-rendering="optimizeSpeed">
  <g clip-path="url(#clipPath24218)">
   <g transform="translate(9.1685,1040.9)">
    <path d="m0 0 25.314 21.067-26.077 18.651c5.846 7.671 15.079 12.622 25.468 12.622 17.673 0 32-14.327 32-32s-14.327-32-32-32c-9.948 0-18.836 4.539-24.705 11.66m27.349 31.812c2.835 0 5.132 2.297 5.132 5.132 0 2.834-2.297 5.132-5.132 5.132-2.834 0-5.132-2.298-5.132-5.132 0-2.835 2.298-5.132 5.132-5.132" fill="#fff" fill-rule="evenodd"/>
   </g>
  </g>
 </g>
 <g transform="matrix(1.4545,0,0,-1.4545,641.26,1259.7)" image-rendering="optimizeSpeed">
  <g clip-path="url(#clipPath24382)">
   <g transform="translate(194.25,1130.3)">
    <path d="m0 0c20.173-11.579 43.841 2 51.309 14.862 7.467 12.861 5.032 31.138-10.468 37.638s-45.487 6.611-54.5-9-6.515-31.922 13.659-43.5" fill="#fff" fill-rule="evenodd"/>
   </g>
  </g>
 </g>
 <g transform="matrix(1.4545,0,0,-1.4545,641.26,1259.7)" image-rendering="optimizeSpeed">
  <g clip-path="url(#clipPath24650)">
   <g transform="translate(473.86,1057.5)">
    <path d="m0 0c1.657 0 3 1.501 3 3.353s-1.343 3.353-3 3.353c-1.656 0-3-1.501-3-3.353s1.344-3.353 3-3.353" fill="#fff" fill-rule="evenodd"/>
   </g>
  </g>
 </g>
 <g transform="matrix(1.4545,0,0,-1.4545,641.26,1259.7)" image-rendering="optimizeSpeed">
  <g clip-path="url(#clipPath24700)">
   <g transform="translate(493,1069.8)">
    <path d="m0 0c1.657 0 3 1.501 3 3.353s-1.343 3.353-3 3.353-3-1.501-3-3.353 1.343-3.353 3-3.353" fill="#fff" fill-rule="evenodd"/>
   </g>
  </g>
 </g>
 <g transform="matrix(1.4545,0,0,-1.4545,641.26,1259.7)" image-rendering="optimizeSpeed">
  <g clip-path="url(#clipPath24750)">
   <g transform="translate(510,1048.8)">
    <path d="m0 0c1.657 0 3 1.501 3 3.353s-1.343 3.353-3 3.353-3-1.501-3-3.353 1.343-3.353 3-3.353" fill="#fff" fill-rule="evenodd"/>
   </g>
  </g>
 </g>
 <g transform="matrix(1.4545,0,0,-1.4545,641.26,1259.7)" image-rendering="optimizeSpeed">
  <g clip-path="url(#clipPath24864)">
   <g transform="translate(806.5,1072.2)">
    <path d="m0 0c-3.667-14-9.5-21.833-17.5-23.5" fill="none" stroke="#fff" stroke-linecap="round" stroke-miterlimit="10"/>
   </g>
  </g>
 </g>
 <g transform="matrix(1.4545,0,0,-1.4545,641.26,1259.7)" image-rendering="optimizeSpeed">
  <g clip-path="url(#clipPath24896)">
   <g transform="translate(802,1066.2)">
    <path d="m0 0c-4.971 0-9 4.029-9 9s4.029 9 9 9 9-4.029 9-9-4.029-9-9-9m0 6c1.657 0 3 1.343 3 3s-1.343 3-3 3-3-1.343-3-3 1.343-3 3-3" fill="#fff" fill-rule="evenodd"/>
   </g>
  </g>
 </g>
 <g transform="matrix(1.4545,0,0,-1.4545,641.26,1259.7)" image-rendering="optimizeSpeed">
  <g clip-path="url(#clipPath25070)">
   <g transform="translate(122,495.24)">
    <path d="m0 0h3c0.553 0 1-0.447 1-1v-2c0-0.553-0.447-1-1-1h-3c-0.553 0-1 0.447-1 1v2c0 0.553 0.447 1 1 1" fill="#fff" fill-rule="evenodd"/>
   </g>
  </g>
 </g>
 <g transform="matrix(1.4545,0,0,-1.4545,641.26,1259.7)" image-rendering="optimizeSpeed">
  <g clip-path="url(#clipPath25100)">
   <g transform="translate(204,495.24)">
    <path d="m0 0h3c0.553 0 1-0.447 1-1v-2c0-0.553-0.447-1-1-1h-3c-0.553 0-1 0.447-1 1v2c0 0.553 0.447 1 1 1" fill="#fff" fill-rule="evenodd"/>
   </g>
  </g>
 </g>
 <g transform="matrix(1.4545,0,0,-1.4545,641.26,1259.7)" image-rendering="optimizeSpeed">
  <g clip-path="url(#clipPath25502)">
   <g transform="translate(805,482.24)">
    <path d="m0 0c4.418 0 8 3.582 8 8s-3.582 8-8 8-8-3.582-8-8 3.582-8 8-8" fill="#fff" fill-rule="evenodd"/>
   </g>
  </g>
 </g>
 <g transform="matrix(1.4545,0,0,-1.4545,641.26,1259.7)" image-rendering="optimizeSpeed">
  <g clip-path="url(#clipPath25686)">
   <g transform="translate(658,1075.7)">
    <path d="m0 0c0-4.694 3.806-8.5 8.5-8.5s8.5 3.806 8.5 8.5-3.806 8.5-8.5 8.5-8.5-3.806-8.5-8.5" fill="#fff"/>
   </g>
  </g>
 </g>
 <g transform="matrix(1.4545,0,0,-1.4545,641.26,1259.7)" image-rendering="optimizeSpeed">
  <g clip-path="url(#clipPath25788)">
   <path d="m465.44 1082.2h85.864v-75.319h-85.864zm64.45-25.106c-0.483 0.765-1.453 0.947-2.178 0.431l-15.504-11.01c-0.359-0.255-0.847-0.153-1.071 0.238l-18.271 31.869c-0.438 0.771-1.139 0.776-1.549-0.016l-1.807-3.514-21.07-47.452c13.336-18.44 48.336-26.94 73.836-3.44 0.841 0 6.477 6.246 6 7z" fill="#fff" fill-rule="evenodd"/>
  </g>
 </g>
 <g transform="matrix(1.4545,0,0,-1.4545,641.26,1259.7)" image-rendering="optimizeSpeed">
  <g clip-path="url(#clipPath26420)">
   <g transform="translate(-23,837.24)">
    <path d="m0 0c18.778 0 34 15.222 34 34s-15.222 34-34 34-34-15.222-34-34 15.222-34 34-34z" fill="none" stroke="#fff" stroke-miterlimit="10" stroke-width="8"/>
   </g>
  </g>
 </g>
 <g transform="matrix(1.4545,0,0,-1.4545,641.26,1259.7)" image-rendering="optimizeSpeed">
  <g clip-path="url(#clipPath26860)">
   <path d="m644 721.24h82v-82h-82zm41-81c22.092 0 40 17.908 40 40s-17.908 40-40 40-40-17.908-40-40 17.908-40 40-40" fill="#fff" fill-rule="evenodd"/>
  </g>
 </g>
 <g transform="matrix(1.4545,0,0,-1.4545,641.26,1259.7)" image-rendering="optimizeSpeed">
  <g clip-path="url(#clipPath27506)">
   <g transform="translate(613.88,476.03)">
    <path d="m0 0c0.187-0.771 0.148-1.502-0.116-2.193-0.266-0.692-0.678-1.303-1.239-1.833-0.561-0.531-1.247-0.949-2.057-1.255-0.81-0.305-1.683-0.457-2.617-0.457-5.889-0.033-11.156-0.049-15.798-0.049h-15.891c-1.122 0-2.111 0.209-2.968 0.627s-1.543 0.932-2.056 1.543c-0.515 0.611-0.858 1.279-1.029 2.002s-0.148 1.375 0.071 1.953c0.186 0.451 0.373 0.917 0.56 1.398 0.157 0.418 0.343 0.893 0.561 1.424 0.219 0.53 0.452 1.069 0.701 1.615l1.776 4.438h5.329l-2.01-6.077h30.099l-2.009 6.077h5.094c0.655-1.64 1.246-3.119 1.777-4.438 0.218-0.578 0.435-1.14 0.654-1.687 0.218-0.547 0.412-1.037 0.584-1.472 0.171-0.433 0.312-0.804 0.421-1.109 0.108-0.306 0.163-0.474 0.163-0.507m-22.922 9.236c-0.601 0.698-1.289 1.571-2.064 2.618-0.776 1.046-1.575 2.125-2.398 3.235-0.822 1.11-1.637 2.204-2.443 3.283-0.808 1.079-1.527 2.015-2.16 2.808-0.728 0.856-1.013 1.562-0.855 2.117s0.696 0.832 1.614 0.832c0.506-0.031 1.187-0.024 2.041 0.024 0.855 0.048 1.567 0.072 2.136 0.072 0.633 0 1.029 0.19 1.187 0.57 0.158 0.381 0.237 0.889 0.237 1.523 0 0.698-8e-3 1.467-0.024 2.308s-0.024 1.705-0.024 2.593-8e-3 1.76-0.023 2.617c-0.016 0.856-0.024 1.65-0.024 2.379 0 0.318 0.024 0.65 0.071 1 0.047 0.348 0.158 0.666 0.333 0.951 0.173 0.285 0.426 0.523 0.758 0.714 0.332 0.19 0.784 0.285 1.353 0.285 0.665 0 1.274 9e-3 1.827 0.024 0.555 0.016 1.195 0.024 1.923 0.024 1.044 0 1.748-0.246 2.112-0.737 0.364-0.492 0.562-1.277 0.593-2.356v-1.855c0-0.73 8e-3 -1.507 0.023-2.331 0.017-0.826 0.025-1.651 0.025-2.475v-2.236c0-0.92 0.095-1.659 0.284-2.213 0.191-0.555 0.617-0.817 1.282-0.785 0.475 0 1.052-0.016 1.732-0.047 0.68-0.032 1.274-0.049 1.78-0.049 0.855 0 1.4-0.23 1.638-0.69 0.237-0.46 0.071-1.054-0.498-1.784-0.602-0.76-1.298-1.68-2.089-2.759-0.791-1.08-1.606-2.197-2.445-3.355-0.838-1.158-1.661-2.284-2.467-3.379-0.807-1.094-1.528-2.037-2.16-2.83-0.57-0.73-1.116-1.103-1.637-1.119-0.523-0.016-1.069 0.326-1.638 1.023" fill="#fff"/>
   </g>
  </g>
 </g>
 <g transform="matrix(1.4545,0,0,-1.4545,641.26,1259.7)" image-rendering="optimizeSpeed">
  <g clip-path="url(#clipPath27772)">
   <g transform="translate(588.67,331.24)">
    <path d="m0 0h-49.301c-2.41 0-4.367-1.941-4.367-4.299v-49.402c0-2.393 1.957-4.299 4.367-4.299h49.301c2.41 0 4.332 1.941 4.332 4.299v49.367c0 2.393-1.957 4.334-4.332 4.334m-33.403-53.008h-8.839v6.795h8.839zm-8.91 24.58h8.84v-6.795h-8.84zm8.945-15.566h-8.84v6.795h8.84zm12.998-9.014h-8.84v6.795h8.84zm-8.91 24.58h8.84v-6.795h-8.84zm8.944-15.566h-8.839v6.795h8.839zm13.277-9.014h-8.84v6.795h8.84zm-8.909 24.58h8.84v-6.795h-8.84zm8.945-15.566h-8.84v6.795h8.84zm5.276 24.441c0-2.392-1.957-4.299-4.368-4.299h-37.77c-2.411-0.035-4.367 1.907-4.367 4.299v10.054c0 2.392 1.956 4.333 4.332 4.333h37.805c2.411 0 4.368-1.941 4.368-4.333z" fill="#fff"/>
   </g>
  </g>
 </g>
 <g transform="matrix(1.4545,0,0,-1.4545,641.26,1259.7)" image-rendering="optimizeSpeed">
  <g clip-path="url(#clipPath27864)">
   <g transform="translate(609.3,312.46)">
    <path d="m0 0h-0.72c-0.206 0-0.377 0-0.514-0.212-0.103-0.142-0.103-0.283-0.103-0.46v-0.566c0-0.178 0-0.319 0.103-0.461 0.137-0.212 0.308-0.212 0.514-0.212h0.72c0.205 0 0.376 0 0.514 0.212 0.102 0.142 0.102 0.283 0.102 0.461v0.566c0 0.213 0 0.318-0.102 0.46-0.138 0.212-0.275 0.212-0.514 0.212m-5.003 4.779h-2.947c-0.548 0-0.993-0.46-0.993-1.026v-2.407h0.993v2.407h2.947v-2.407h0.993v2.407c0 0.566-0.445 1.026-0.993 1.026m0-6.973h-2.947v2.407h-0.993v-2.407c0-0.567 0.411-1.027 0.993-1.027h2.947c0.582 0 0.993 0.46 0.993 1.027v2.407h-0.993zm-14.357 0h-2.947v2.584h-0.994v-2.584c0-0.567 0.411-1.027 0.994-1.027h2.947c0.583 0 0.994 0.46 0.994 1.027v2.584h-0.994zm0 6.973h-2.947c-0.548 0-0.994-0.46-0.994-1.026v-2.231h0.994v2.231h2.947v-2.231h0.994v2.231c0 0.566-0.446 1.026-0.994 1.026m7.195 0h-2.946c-0.549 0-0.994-0.46-0.994-1.026v-2.231h0.994v2.231h2.946v-2.231h0.994v2.231c0 0.566-0.445 1.026-0.994 1.026m0-6.973h-2.946v2.584h-0.994v-2.584c0-0.567 0.445-1.027 0.994-1.027h2.946c0.583 0 0.994 0.46 0.994 1.027v2.584h-0.994zm18.675 6.973h-2.947c-0.548 0-0.994-0.46-0.994-1.026v-2.584h0.994v2.584h2.947v-2.584h0.994v2.584c0 0.566-0.445 1.026-0.994 1.026m0-6.973h-2.947v2.23h-0.994v-2.23c0-0.567 0.446-1.027 0.994-1.027h2.947c0.583 0 0.994 0.46 0.994 1.027v2.23h-0.994zm7.195 0h-2.946v2.053h-0.994v-2.053c0-0.567 0.411-1.027 0.994-1.027h2.946c0.583 0 0.994 0.46 0.994 1.027v2.053h-0.994zm0 6.973h-2.946c-0.548 0-0.994-0.46-0.994-1.026v-2.761h0.994v2.761h2.946v-2.761h0.994v2.761c0 0.566-0.479 1.026-0.994 1.026" fill="#fff"/>
   </g>
  </g>
 </g>
 <g transform="matrix(1.4545,0,0,-1.4545,641.26,1259.7)" image-rendering="optimizeSpeed">
  <g clip-path="url(#clipPath28028)">
   <g transform="translate(766.75,130.24)">
    <path d="m0 0h-15.75v6.693c0 1.239-1.013 2.307-2.307 2.307h-13.386c-1.239 0-2.307-1.013-2.307-2.307v-6.693h-15.75c-1.237 0-2.25-1.013-2.25-2.25v-11.25l27-4.5 27 4.5v11.25c0 1.237-1.013 2.25-2.25 2.25m-29.25 4.5h9v-4.5h-9zm9-16.875c0-0.619-0.506-1.125-1.125-1.125h-6.75c-0.619 0-1.125 0.506-1.125 1.125v2.25c0 0.619 0.506 1.125 1.125 1.125h6.75c0.619 0 1.125-0.506 1.125-1.125zm-4.5-7.875 27 4.5v-27c0-1.237-1.013-2.25-2.25-2.25h-49.5c-1.237 0-2.25 1.013-2.25 2.25v27z" fill="#fff"/>
   </g>
  </g>
 </g>
 <g transform="matrix(1.4545,0,0,-1.4545,641.26,1259.7)" image-rendering="optimizeSpeed">
  <g clip-path="url(#clipPath28200)">
   <g transform="translate(392,82.24)">
    <path d="M 0,0 -4.35,3.941 C -19.8,17.953 -30,27.2 -30,38.516 -30,47.762 -22.755,55 -13.5,55 -8.28,55 -3.27,52.572 0,48.75 3.27,52.572 8.28,55 13.5,55 22.755,55 30,47.762 30,38.516 30,27.2 19.8,17.953 4.35,3.941 Z" fill="#fff"/>
   </g>
  </g>
 </g>
 <g transform="matrix(1.4545,0,0,-1.4545,641.26,1259.7)" image-rendering="optimizeSpeed">
  <g clip-path="url(#clipPath28364)">
   <g transform="translate(542.77,113.24)">
    <path d="m0 0c0 2.621 0.885 4.8 2.689 6.604s3.983 2.689 6.604 2.689c2.622 0 4.801-0.885 6.604-2.689 1.805-1.804 2.69-3.983 2.69-6.604s-0.885-4.834-2.69-6.639c-1.803-1.803-3.982-2.689-6.604-2.689-2.621 0-4.809 0.877-6.604 2.689-1.813 1.83-2.689 4.051-2.689 6.639m-13.141-6.06c0.545-1.94 1.363-3.846 2.35-5.617l-6.128-7.523 6.944-6.945 7.524 6.127c1.769-0.986 3.71-1.803 5.65-2.382l1.022-9.6h10.008l1.022 9.6c1.94 0.579 3.778 1.396 5.651 2.382l7.49-6.127 7.012 6.945-6.162 7.523c0.953 1.771 1.805 3.677 2.383 5.617l9.601 1.056v10.008l-9.601 1.021c-0.578 1.941-1.43 3.745-2.383 5.618l6.162 7.523-7.012 7.013-7.49-6.161c-1.907 0.953-3.711 1.803-5.651 2.382l-1.022 9.6h-10.008l-1.022-9.6c-2.008-0.579-3.88-1.429-5.65-2.382l-7.524 6.161-6.944-7.013 6.128-7.523c-0.953-1.873-1.771-3.677-2.35-5.618l-9.633-1.021v-10.008z" fill="#fff"/>
   </g>
  </g>
 </g>
 <g transform="matrix(1.4545,0,0,-1.4545,641.26,1259.7)" image-rendering="optimizeSpeed">
  <g clip-path="url(#clipPath28984)">
   <path d="m473 698.24h13v-13h-13zm6.5-12c3.037 0 5.5 2.463 5.5 5.5 0 3.038-2.463 5.5-5.5 5.5s-5.5-2.462-5.5-5.5c0-3.037 2.463-5.5 5.5-5.5" fill="#fff" fill-rule="evenodd"/>
  </g>
 </g>
 <g transform="matrix(1.4545,0,0,-1.4545,641.26,1259.7)" image-rendering="optimizeSpeed">
  <g clip-path="url(#clipPath29012)">
   <path d="m473 676.24h13v-13h-13zm6.5-12c3.037 0 5.5 2.463 5.5 5.5 0 3.038-2.463 5.5-5.5 5.5s-5.5-2.462-5.5-5.5c0-3.037 2.463-5.5 5.5-5.5" fill="#fff" fill-rule="evenodd"/>
  </g>
 </g>
 <g transform="matrix(1.4545,0,0,-1.4545,641.26,1259.7)" image-rendering="optimizeSpeed">
  <g clip-path="url(#clipPath29040)">
   <path d="m467 687.24h13v-13h-13zm6.5-12c3.037 0 5.5 2.463 5.5 5.5 0 3.038-2.463 5.5-5.5 5.5s-5.5-2.462-5.5-5.5c0-3.037 2.463-5.5 5.5-5.5" fill="#fff" fill-rule="evenodd"/>
  </g>
 </g>
 <g transform="matrix(1.4545,0,0,-1.4545,641.26,1259.7)" image-rendering="optimizeSpeed">
  <g clip-path="url(#clipPath29068)">
   <path d="m486 698.24h13v-13h-13zm6.5-12c3.037 0 5.5 2.463 5.5 5.5 0 3.038-2.463 5.5-5.5 5.5s-5.5-2.462-5.5-5.5c0-3.037 2.463-5.5 5.5-5.5" fill="#fff" fill-rule="evenodd"/>
  </g>
 </g>
 <g transform="matrix(1.4545,0,0,-1.4545,641.26,1259.7)" image-rendering="optimizeSpeed">
  <g clip-path="url(#clipPath29096)">
   <path d="m486 676.24h13v-13h-13zm6.5-12c3.037 0 5.5 2.463 5.5 5.5 0 3.038-2.463 5.5-5.5 5.5s-5.5-2.462-5.5-5.5c0-3.037 2.463-5.5 5.5-5.5" fill="#fff" fill-rule="evenodd"/>
  </g>
 </g>
 <g transform="matrix(1.4545,0,0,-1.4545,641.26,1259.7)" image-rendering="optimizeSpeed">
  <g clip-path="url(#clipPath29124)">
   <path d="m480 687.24h13v-13h-13zm6.5-12c3.037 0 5.5 2.463 5.5 5.5 0 3.038-2.463 5.5-5.5 5.5s-5.5-2.462-5.5-5.5c0-3.037 2.463-5.5 5.5-5.5" fill="#fff" fill-rule="evenodd"/>
  </g>
 </g>
 <g transform="matrix(1.4545,0,0,-1.4545,641.26,1259.7)" image-rendering="optimizeSpeed">
  <g clip-path="url(#clipPath29152)">
   <path d="m493 687.24h13v-13h-13zm6.5-12c3.037 0 5.5 2.463 5.5 5.5 0 3.038-2.463 5.5-5.5 5.5s-5.5-2.462-5.5-5.5c0-3.037 2.463-5.5 5.5-5.5" fill="#fff" fill-rule="evenodd"/>
  </g>
 </g>
 <g transform="matrix(1.4545,0,0,-1.4545,641.26,1259.7)" image-rendering="optimizeSpeed">
  <g clip-path="url(#clipPath29252)">
   <path d="m161 327.24h73v-28h-73zm14-5h45c4.971 0 9-4.029 9-9 0-4.97-4.029-9-9-9h-45c-4.971 0-9 4.03-9 9 0 4.971 4.029 9 9 9" fill="#fff" fill-rule="evenodd"/>
  </g>
 </g>
 <g transform="matrix(1.4545,0,0,-1.4545,641.26,1259.7)" image-rendering="optimizeSpeed">
  <g clip-path="url(#clipPath29280)">
   <path d="m162 302.24h73v-28h-73zm14-5h45c4.971 0 9-4.029 9-9 0-4.97-4.029-9-9-9h-45c-4.971 0-9 4.03-9 9 0 4.971 4.029 9 9 9" fill="#fff" fill-rule="evenodd"/>
  </g>
 </g>
 <g transform="matrix(1.4545,0,0,-1.4545,641.26,1259.7)" image-rendering="optimizeSpeed">
  <g clip-path="url(#clipPath29400)">
   <g transform="translate(104.49,129.57)">
    <path d="m0 0c-4.298-0.338-8.165-0.637-11.604-0.898-1.458-0.113-2.906-0.225-4.344-0.336-1.44-0.114-2.747-0.207-3.924-0.282-1.178-0.074-2.168-0.149-2.972-0.224-0.803-0.074-1.28-0.113-1.428-0.113-0.188-0.037-0.403-0.065-0.645-0.084-0.244-0.018-0.459-0.065-0.645-0.139l-0.673-0.225-2.467 1.121c0.187 0.263 0.412 0.506 0.674 0.731 0.185 0.186 0.42 0.364 0.7 0.533 0.28 0.168 0.569 0.27 0.868 0.309 0.225 0.037 0.822 0.093 1.795 0.168 0.971 0.074 2.167 0.168 3.588 0.28 0 0.486 0.047 1.15 0.14 1.992 0.092 0.841 0.317 1.674 0.672 2.497 0.356 0.822 0.869 1.553 1.541 2.188 0.673 0.636 1.589 1.009 2.747 1.123 1.346 0.111 2.439-0.094 3.281-0.618 0.84-0.523 1.494-1.169 1.961-1.935 0.467-0.768 0.795-1.553 0.981-2.358 0.187-0.804 0.299-1.43 0.337-1.878 1.606 0.111 2.942 0.205 4.008 0.279 1.064 0.076 1.653 0.131 1.765 0.169 0.412 0.038 0.87-0.038 1.373-0.225 0.505-0.186 0.907-0.43 1.206-0.729 0.075-0.075 0.177-0.188 0.308-0.336 0.131-0.151 0.252-0.3 0.365-0.449 0.149-0.151 0.28-0.337 0.392-0.561m-15.528 6.676c-0.709-0.074-1.28-0.326-1.709-0.757-0.43-0.431-0.758-0.944-0.982-1.543-0.223-0.599-0.374-1.206-0.448-1.823-0.075-0.617-0.112-1.114-0.112-1.488 1.159 0.076 2.344 0.169 3.559 0.281s2.402 0.206 3.56 0.281c-0.037 0.336-0.121 0.804-0.252 1.402-0.131 0.599-0.346 1.178-0.645 1.74-0.299 0.561-0.691 1.028-1.176 1.403-0.487 0.373-1.084 0.542-1.795 0.504m21.919-41.24c0.186-1.047 0.159-1.917-0.084-2.61-0.244-0.691-0.925-1.168-2.046-1.43-0.374-0.113-1.187-0.299-2.439-0.562-1.252-0.262-2.747-0.579-4.485-0.953-1.737-0.374-3.597-0.777-5.577-1.207-1.982-0.43-3.878-0.832-5.691-1.205-1.812-0.375-3.437-0.711-4.877-1.011-1.438-0.3-2.457-0.505-3.054-0.617-1.383-0.3-2.402-0.206-3.055 0.28-0.654 0.486-0.982 1.217-0.982 2.189v34.452c0 0.934 0.197 1.691 0.589 2.271 0.393 0.58 0.962 0.889 1.709 0.926 0.299 0 0.664 0.02 1.094 0.057s0.85 0.074 1.261 0.112c0.485 0.037 0.991 0.075 1.514 0.112l0.504-8.023c-0.037-0.038-0.112-0.057-0.224-0.057-0.074 0-0.187-0.01-0.336-0.027-0.15-0.02-0.318-0.029-0.505-0.029-0.784-0.075-1.159-0.542-1.121-1.403 0.038-0.336 0.075-0.805 0.112-1.402 0.037-0.599 0.066-1.225 0.084-1.88 0.019-0.655 0.047-1.29 0.084-1.907s0.074-1.114 0.113-1.488c0.037-0.711 0.149-1.112 0.336-1.206 0.186-0.093 0.598-0.14 1.233-0.14h0.785c0.225 0 0.439 0.01 0.645 0.027 0.205 0.02 0.439 0.038 0.701 0.057 0.261 0.018 0.597 0.047 1.008 0.084 0.785 0.075 1.29 0.243 1.513 0.506 0.225 0.261 0.319 0.654 0.281 1.177 0 0.262-0.028 0.721-0.084 1.375-0.056 0.655-0.113 1.337-0.168 2.048-0.056 0.71-0.103 1.384-0.14 2.02-0.037 0.635-0.074 1.085-0.112 1.346-0.076 0.45-0.168 0.768-0.281 0.954-0.112 0.187-0.318 0.262-0.617 0.224-0.148 0-0.299-9e-3 -0.447-0.027-0.151-0.019-0.3-0.028-0.449-0.028h-0.449l-0.505 7.967c2.542 0.225 4.877 0.412 7.008 0.561 0.897 0.076 1.803 0.15 2.719 0.224 0.916 0.076 1.766 0.141 2.551 0.198 0.785 0.055 1.476 0.111 2.074 0.168 0.598 0.056 1.046 0.103 1.346 0.14 1.083 0.074 1.942-0.113 2.578-0.561 0.635-0.449 1.027-1.122 1.178-2.021 0.037-0.299 0.168-1.196 0.391-2.693 0.224-1.496 0.505-3.291 0.841-5.386s0.691-4.349 1.065-6.761c0.374-2.413 0.729-4.667 1.066-6.761 0.336-2.095 0.625-3.891 0.869-5.387 0.242-1.496 0.4-2.395 0.476-2.693m-35.261-4.881c0-0.525 0.028-0.983 0.084-1.375 0.057-0.393 0.122-0.701 0.197-0.926 0.074-0.299 0.168-0.524 0.279-0.674-0.933 0.486-1.831 0.973-2.69 1.459-0.747 0.412-1.495 0.832-2.242 1.263-0.747 0.43-1.383 0.795-1.906 1.094-0.972 0.561-1.635 1.235-1.99 2.02s-0.439 1.608-0.253 2.469c0.076 0.224 0.244 1.047 0.505 2.469 0.262 1.421 0.588 3.142 0.981 5.162 0.392 2.019 0.803 4.189 1.233 6.508 0.43 2.32 0.831 4.49 1.205 6.509 0.374 2.02 0.701 3.76 0.982 5.218 0.28 1.459 0.439 2.319 0.476 2.581 0.15 0.823 0.42 1.459 0.813 1.908 0.392 0.449 0.849 0.561 1.373 0.336 0.299-0.149 0.543-0.317 0.728-0.504 0.114-0.113 0.188-0.207 0.225-0.281z" fill="#fff"/>
   </g>
  </g>
 </g>
 <g transform="translate(1.6933e-5,1.6933e-5)" fill="#5e4aa6" image-rendering="optimizeSpeed" stroke-width=".26458">
  <g transform="matrix(3.7796,0,0,3.7796,210.44,-11.932)">
   <circle cx="-322.63" cy="-345.67" r="0"/>
   <circle cx="-31.726" cy="-10.849" r="0" fill-rule="evenodd"/>
   <circle cx="-306.92" cy="-328.72" r="0"/>
  </g>
  <g transform="matrix(3.7796,0,0,3.7796,178.31,-60.455)" image-rendering="optimizeSpeed">
   <circle cx="-330.35" cy="-328.38" r="0"/>
   <circle cx="-312.11" cy="-326.25" r="0"/>
   <circle cx="-306.02" cy="-333.07" r="0"/>
   <circle cx="-308.84" cy="-326.01" r="0"/>
  </g>
  <g transform="matrix(3.7796,0,0,3.7796,178.31,-60.455)" image-rendering="optimizeSpeed">
   <circle cx="-330.35" cy="-328.38" r="0"/>
   <circle cx="-312.11" cy="-326.25" r="0"/>
   <circle cx="-306.02" cy="-333.07" r="0"/>
   <circle cx="-308.84" cy="-326.01" r="0"/>
  </g>
 </g>
 <g transform="matrix(3.7796,0,0,3.7796,73.851,-13.063)" fill="#5e4aa6" image-rendering="optimizeSpeed" stroke-width=".26458">
  <g transform="translate(-21.833 .89722)">
   <circle cx="-330.35" cy="-328.38" r="0"/>
   <circle cx="-312.11" cy="-326.25" r="0"/>
   <circle cx="-306.02" cy="-333.07" r="0"/>
   <circle cx="-308.84" cy="-326.01" r="0"/>
  </g>
  <circle cx="-284.23" cy="-330.42" r="0"/>
  <circle cx="6.6786" cy="4.3998" r="0" fill-rule="evenodd"/>
 </g>
 <g transform="matrix(1.3333,0,0,-1.3333,825.01,905)" image-rendering="optimizeSpeed">
  <g clip-path="url(#clipPath13429-3)">
   <g transform="translate(448,326)">
    <path d="m0 0c3.866 0 7 3.134 7 7s-3.134 7-7 7-7-3.134-7-7 3.134-7 7-7" fill="#fff" fill-rule="evenodd"/>
   </g>
  </g>
 </g>
 <g transform="matrix(1.3333,0,0,-1.3333,825.01,905)" image-rendering="optimizeSpeed">
  <g clip-path="url(#clipPath13465-6)">
   <g transform="translate(474,326)">
    <path d="m0 0c3.866 0 7 3.134 7 7s-3.134 7-7 7-7-3.134-7-7 3.134-7 7-7" fill="#fff" fill-rule="evenodd"/>
   </g>
  </g>
 </g>
 <g transform="matrix(1.3333,0,0,-1.3333,825.01,905)" image-rendering="optimizeSpeed">
  <g clip-path="url(#clipPath13501-7)">
   <g transform="translate(497,326)">
    <path d="m0 0c3.866 0 7 3.134 7 7s-3.134 7-7 7-7-3.134-7-7 3.134-7 7-7" fill="#fff" fill-rule="evenodd"/>
   </g>
  </g>
 </g>
 <g transform="matrix(1.3333,0,0,-1.3333,825.01,905)" image-rendering="optimizeSpeed">
  <g clip-path="url(#clipPath13753-5)">
   <path d="m593 1073h36v-18h-36zm18-11c6.075 0 11 0.895 11 2s-4.925 2-11 2-11-0.895-11-2 4.925-2 11-2" fill="#fff" fill-rule="evenodd"/>
  </g>
 </g>
 <g transform="matrix(1.3333,0,0,-1.3333,825.01,905)" image-rendering="optimizeSpeed">
  <g clip-path="url(#clipPath13771-3)">
   <g transform="translate(583.42,1063)">
    <path d="m0 0s21.582 23.182 21.582 35.147c0 12.048-9.684 21.853-21.582 21.853-11.816 0-21.418-9.805-21.418-21.853 0-8.06 9.766-21.188 16.002-28.832zm0 42.542c3.938 0 7.14-3.323 7.14-7.395 0-3.822-3.202-7.146-7.14-7.146-3.856 0-7.222 3.324-7.222 7.146 0 4.072 3.366 7.395 7.222 7.395" fill="#fff"/>
   </g>
  </g>
 </g>
 <g transform="matrix(1.3333,0,0,-1.3333,825.01,905)" image-rendering="optimizeSpeed">
  <g clip-path="url(#clipPath14035-5)">
   <g transform="translate(562,535)">
    <path d="m0 0h35c2.762 0 5-2.238 5-5s-2.238-5-5-5h-35c-2.762 0-5 2.238-5 5s2.238 5 5 5" fill="#fff" fill-rule="evenodd"/>
   </g>
  </g>
 </g>
 <g transform="matrix(1.3333,0,0,-1.3333,825.01,905)" image-rendering="optimizeSpeed">
  <g clip-path="url(#clipPath14127-6)">
   <g transform="translate(562,518)">
    <path d="m0 0h35c2.762 0 5-2.238 5-5s-2.238-5-5-5h-35c-2.762 0-5 2.238-5 5s2.238 5 5 5" fill="#fff" fill-rule="evenodd"/>
   </g>
  </g>
 </g>
 <g transform="matrix(1.3333,0,0,-1.3333,825.01,905)" image-rendering="optimizeSpeed">
  <g clip-path="url(#clipPath14445-2)">
   <g transform="translate(536.43,133.83)">
    <path d="m0 0c-10.01-12.916-22.288-9.047-24.23-8.072-4.847 1.293-6.464 10.015-0.326 12.918 10.018 3.226 19.06-0.325 25.524-3.553-0.644-0.967-0.968-1.293-0.968-1.293m10.667 3.553c4.521 8.072 6.139 15.826 6.139 15.826h-15.189v5.812h17.767v2.26h-17.767v8.723h-8.074v-8.723h-16.156v-2.584h16.156v-5.812h-13.57v-2.585h27.783c0-0.325 0-0.325-0.324-0.968 0-2.909-1.936-6.779-3.554-10.014-20.677 8.079-26.491 3.235-28.108 2.584-13.564-9.689-0.968-21.963 1.293-21.638 14.538-3.227 23.905 2.91 30.369 10.657 0.324-0.325 0.967-0.325 1.292-0.325 4.528-2.578 25.848-12.592 25.848-12.592v12.274c-3.878 0.325-15.506 4.195-23.905 7.105" fill="#fff"/>
   </g>
  </g>
 </g>
 <g transform="matrix(1.3333,0,0,-1.3333,825.01,905)" image-rendering="optimizeSpeed">
  <g clip-path="url(#clipPath14609-9)">
   <g transform="translate(720.03,1091.5)">
    <path d="m0 0c-0.149 0.354-0.224 0.837-0.224 1.451 0 0.372 0.103 0.828 0.306 1.368 0.205 0.539 0.428 0.958 0.671 1.256-0.019 0.409 0.051 0.902 0.209 1.478 0.159 0.576 0.368 0.976 0.629 1.2 0 2.586 0.86 5.269 2.581 8.05 1.722 2.782 3.744 4.73 6.07 5.846 2.585 1.228 5.6 1.842 9.041 1.842 2.475 0 4.949-0.511 7.423-1.534 0.912-0.391 1.749-0.837 2.512-1.34 0.762-0.502 1.423-1.022 1.981-1.562 0.559-0.54 1.07-1.172 1.534-1.897 0.465-0.725 0.856-1.413 1.172-2.064 0.318-0.651 0.619-1.437 0.908-2.358 0.287-0.921 0.524-1.753 0.71-2.497s0.391-1.655 0.614-2.734l0.028-0.14c1.023-1.543 1.535-2.939 1.535-4.186 0-0.26-0.084-0.632-0.252-1.115-0.168-0.484-0.252-0.837-0.252-1.061 0-0.019 0.015-0.052 0.043-0.099s0.061-0.093 0.098-0.139c0.038-0.046 0.057-0.077 0.057-0.098 1.432-2.121 2.553-4.116 3.363-5.985 0.809-1.869 1.214-3.808 1.214-5.817 0-0.8-0.182-1.73-0.544-2.791-0.363-1.06-0.879-1.59-1.549-1.59-0.167 0-0.349 0.069-0.544 0.209-0.194 0.14-0.371 0.303-0.529 0.489-0.159 0.186-0.335 0.428-0.53 0.725s-0.344 0.543-0.447 0.739-0.228 0.438-0.377 0.725c-0.147 0.288-0.231 0.451-0.251 0.489-0.019 0.019-0.047 0.028-0.085 0.028l-0.138-0.111c-1.099-2.864-2.327-4.938-3.684-6.222 0.372-0.372 0.944-0.73 1.716-1.075s1.414-0.73 1.925-1.158c0.511-0.426 0.841-1.031 0.991-1.814-0.037-0.074-0.074-0.223-0.112-0.447-0.036-0.224-0.101-0.391-0.195-0.501-1.19-1.804-4-2.706-8.427-2.706-0.986 0-2.013 0.084-3.084 0.251-1.069 0.168-1.981 0.354-2.734 0.558s-1.726 0.483-2.916 0.837c-0.279 0.093-0.493 0.158-0.643 0.196-0.259 0.075-0.687 0.115-1.282 0.125-0.595 9e-3 -0.967 0.023-1.116 0.042-0.763-0.838-1.949-1.442-3.559-1.814-1.609-0.372-3.176-0.558-4.702-0.558-0.65 0-1.293 0.014-1.925 0.042s-1.498 0.113-2.595 0.252c-1.098 0.139-2.038 0.33-2.82 0.572-0.781 0.241-1.473 0.613-2.078 1.115-0.604 0.502-0.906 1.098-0.906 1.786 0 0.744 0.093 1.298 0.279 1.661 0.187 0.364 0.569 0.815 1.144 1.353 0.205 0.038 0.581 0.159 1.131 0.363 0.549 0.204 1.009 0.316 1.381 0.334 0.074 0 0.204 0.019 0.39 0.057 0.038 0.037 0.057 0.074 0.057 0.111l-0.057 0.084c-0.892 0.204-1.897 1.185-3.014 2.944-1.117 1.758-1.796 3.214-2.038 4.367l-0.139 0.084c-0.074 0-0.186-0.185-0.334-0.557-0.335-0.763-0.842-1.455-1.521-2.079-0.679-0.622-1.4-0.971-2.163-1.046h-0.028c-0.073 0-0.129 0.041-0.167 0.125-0.037 0.083-0.084 0.134-0.139 0.153-0.428 1.004-0.642 1.934-0.642 2.79 0 5.116 2.343 9.45 7.032 13.002z" fill="#fff"/>
   </g>
  </g>
 </g>
 <g transform="matrix(1.3333,0,0,-1.3333,825.01,905)" image-rendering="optimizeSpeed">
  <g clip-path="url(#clipPath15305-1)">
   <g transform="translate(655,300)">
    <path d="m0 0c16.568 0 30 13.432 30 30s-13.432 30-30 30-30-13.432-30-30 13.432-30 30-30z" fill="none" stroke="#fff" stroke-miterlimit="10" stroke-width="8"/>
   </g>
  </g>
 </g>
 <g transform="matrix(1.3333,0,0,-1.3333,825.01,905)" image-rendering="optimizeSpeed">
  <g clip-path="url(#clipPath15341-2)">
   <g transform="translate(66.849,1083.1)">
    <path d="m0 0c0 5.302-3.661 9.749-8.591 10.948-0.209 8.314-7.006 14.991-15.366 14.991-4.897 0-9.254-2.293-12.07-5.861-1.579 2.041-4.05 3.358-6.828 3.358-4.769 0-8.633-3.868-8.633-8.639 0-0.416 0.031-0.825 0.089-1.224-0.726 0.13-1.47 0.203-2.232 0.203-6.913 0-12.515-5.607-12.515-12.524 0-6.916 5.602-12.523 12.515-12.523h42.394c6.21 0.013 11.241 5.053 11.241 11.269z" fill="#fff"/>
   </g>
  </g>
 </g>
 <g transform="matrix(1.3333,0,0,-1.3333,825.01,905)" image-rendering="optimizeSpeed">
  <g clip-path="url(#clipPath15715-7)">
   <g transform="translate(65.5,681)">
    <path d="m0 0c9.113 0 16.5 7.387 16.5 16.5s-7.387 16.5-16.5 16.5-16.5-7.387-16.5-16.5 7.387-16.5 16.5-16.5z" fill="none" stroke="#fff" stroke-miterlimit="10" stroke-width="4"/>
   </g>
  </g>
 </g>
 <g transform="matrix(1.3333,0,0,-1.3333,825.01,905)" image-rendering="optimizeSpeed">
  <g clip-path="url(#clipPath15807-0)">
   <g transform="translate(77.5,711)">
    <path d="m0 0c7.456 0 13.5 6.044 13.5 13.5s-6.044 13.5-13.5 13.5-13.5-6.044-13.5-13.5 6.044-13.5 13.5-13.5z" fill="none" stroke="#fff" stroke-miterlimit="10" stroke-width="4"/>
   </g>
  </g>
 </g>
 <g transform="matrix(1.3333,0,0,-1.3333,825.01,905)" image-rendering="optimizeSpeed">
  <g clip-path="url(#clipPath16001-9)">
   <g transform="translate(455.91,931.53)">
    <path d="m0 0c-0.742-1.039-4.75-2.821-8.165-3.563-4.305-0.891-6.531-1.633-8.758-2.82-2.969-1.782-4.601-4.009-4.305-6.087 0.149-0.445 3.711-5.64 7.868-11.578 4.304-5.938 7.868-10.985 8.016-11.134 0.149-0.297-0.445-0.297-2.524-0.148-6.531 0.445-12.469-2.969-15.142-8.314-0.742-1.632-0.89-2.523-0.89-4.453 0-4.453 2.376-8.016 6.829-10.094 1.781-0.742 2.375-0.891 6.086-0.891 4.007 0 4.156 0 6.829 1.336 7.125 3.414 10.093 10.095 7.125 16.181-0.594 1.336-4.305 7.719-8.313 14.251l-7.274 12.024h1.187c4.75 0.297 8.017 1.781 10.244 4.305 1.929 2.227 2.523 4.453 2.374 8.016-0.148 3.266-0.445 4.008-1.187 2.969" fill="#fff"/>
   </g>
  </g>
 </g>
 <g transform="matrix(1.3333,0,0,-1.3333,825.01,905)" image-rendering="optimizeSpeed">
  <g clip-path="url(#clipPath16093-3)">
   <g transform="translate(784,902.31)">
    <path d="m0 0c0-1.565-0.904-2.931-2.251-3.674l-27.781-18.472c-0.012-8e-3 -0.026-0.014-0.037-0.02l-0.017-0.011c-0.684-0.376-1.48-0.592-2.331-0.592-2.53 0-4.583 1.913-4.583 4.269v37c0 2.356 2.053 4.27 4.583 4.27 0.851 0 1.647-0.217 2.331-0.596l0.017-8e-3c0.011-9e-3 0.022-0.014 0.037-0.02l27.781-18.471c1.347-0.743 2.251-2.11 2.251-3.675" fill="#fff"/>
   </g>
  </g>
 </g>
 <g transform="matrix(1.3333,0,0,-1.3333,825.01,905)" image-rendering="optimizeSpeed">
  <g clip-path="url(#clipPath16477-6)">
   <g transform="translate(223.75,708.35)">
    <path d="m0 0c-15.123 0-27.418 12.329-27.418 27.486 0 1.382 1.111 2.505 2.487 2.505 1.379 0 2.499-1.123 2.499-2.505 0-12.4 10.06-22.487 22.432-22.487 12.375 0 22.443 10.087 22.443 22.487 0 1.382 1.112 2.505 2.488 2.505 1.378 0 2.499-1.123 2.499-2.505 0-15.157-12.304-27.486-27.43-27.486" fill="#fff" fill-rule="evenodd"/>
   </g>
  </g>
 </g>
 <g transform="matrix(1.3333,0,0,-1.3333,825.01,905)" image-rendering="optimizeSpeed">
  <g clip-path="url(#clipPath16579-0)">
   <g transform="translate(390.75,139.35)">
    <path d="m0 0c-15.123 0-27.418 12.329-27.418 27.485 0 1.383 1.111 2.506 2.487 2.506 1.379 0 2.499-1.123 2.499-2.506 0-12.398 10.06-22.486 22.432-22.486 12.375 0 22.443 10.088 22.443 22.486 0 1.383 1.112 2.506 2.488 2.506 1.378 0 2.499-1.123 2.499-2.506 0-15.156-12.304-27.485-27.43-27.485" fill="#fff" fill-rule="evenodd"/>
   </g>
  </g>
 </g>
 <g transform="matrix(1.3333,0,0,-1.3333,825.01,905)" image-rendering="optimizeSpeed">
  <g clip-path="url(#clipPath16709-6)">
   <g transform="translate(423.93,686.39)">
    <path d="m0 0c0.245-0.286 0.605-0.456 0.986-0.456 0.382 0 0.743 0.17 0.988 0.456l17.516 20.497c0.333 0.388 0.408 0.933 0.191 1.388-0.211 0.463-0.674 0.756-1.184 0.756h-9.93c-2.118 4.172-3.109 8.382-2.973 12.63 0.135 4.248 1.954 12.361 5.455 24.34-10.956-6.59-17.656-18.44-17.656-31.225v-5.745h-9.93c-0.51 0-0.966-0.293-1.184-0.756-0.211-0.462-0.135-1 0.191-1.388z" fill="#fff"/>
   </g>
  </g>
 </g>
 <g transform="matrix(1.3333,0,0,-1.3333,692.08,1060.7)" image-rendering="optimizeSpeed">
  <g clip-path="url(#clipPath24218-2)">
   <g transform="translate(9.1685,1040.9)">
    <path d="m0 0 25.314 21.067-26.077 18.651c5.846 7.671 15.079 12.622 25.468 12.622 17.673 0 32-14.327 32-32s-14.327-32-32-32c-9.948 0-18.836 4.539-24.705 11.66m27.349 31.812c2.835 0 5.132 2.297 5.132 5.132 0 2.834-2.297 5.132-5.132 5.132-2.834 0-5.132-2.298-5.132-5.132 0-2.835 2.298-5.132 5.132-5.132" fill="#fff" fill-rule="evenodd"/>
   </g>
  </g>
 </g>
 <g transform="matrix(1.3333,0,0,-1.3333,692.08,1060.7)" image-rendering="optimizeSpeed">
  <g clip-path="url(#clipPath24382-6)">
   <g transform="translate(194.25,1130.3)">
    <path d="m0 0c20.173-11.579 43.841 2 51.309 14.862 7.467 12.861 5.032 31.138-10.468 37.638s-45.487 6.611-54.5-9-6.515-31.922 13.659-43.5" fill="#fff" fill-rule="evenodd"/>
   </g>
  </g>
 </g>
 <g transform="matrix(1.3333,0,0,-1.3333,692.08,1060.7)" image-rendering="optimizeSpeed">
  <g clip-path="url(#clipPath24650-1)">
   <g transform="translate(473.86,1057.5)">
    <path d="m0 0c1.657 0 3 1.501 3 3.353s-1.343 3.353-3 3.353c-1.656 0-3-1.501-3-3.353s1.344-3.353 3-3.353" fill="#fff" fill-rule="evenodd"/>
   </g>
  </g>
 </g>
 <g transform="matrix(1.3333,0,0,-1.3333,692.08,1060.7)" image-rendering="optimizeSpeed">
  <g clip-path="url(#clipPath24700-8)">
   <g transform="translate(493,1069.8)">
    <path d="m0 0c1.657 0 3 1.501 3 3.353s-1.343 3.353-3 3.353-3-1.501-3-3.353 1.343-3.353 3-3.353" fill="#fff" fill-rule="evenodd"/>
   </g>
  </g>
 </g>
 <g transform="matrix(1.3333,0,0,-1.3333,692.08,1060.7)" image-rendering="optimizeSpeed">
  <g clip-path="url(#clipPath24750-7)">
   <g transform="translate(510,1048.8)">
    <path d="m0 0c1.657 0 3 1.501 3 3.353s-1.343 3.353-3 3.353-3-1.501-3-3.353 1.343-3.353 3-3.353" fill="#fff" fill-rule="evenodd"/>
   </g>
  </g>
 </g>
 <g transform="matrix(1.3333,0,0,-1.3333,692.08,1060.7)" image-rendering="optimizeSpeed">
  <g clip-path="url(#clipPath24864-9)">
   <g transform="translate(806.5,1072.2)">
    <path d="m0 0c-3.667-14-9.5-21.833-17.5-23.5" fill="none" stroke="#fff" stroke-linecap="round" stroke-miterlimit="10"/>
   </g>
  </g>
 </g>
 <g transform="matrix(1.3333,0,0,-1.3333,692.08,1060.7)" image-rendering="optimizeSpeed">
  <g clip-path="url(#clipPath24896-2)">
   <g transform="translate(802,1066.2)">
    <path d="m0 0c-4.971 0-9 4.029-9 9s4.029 9 9 9 9-4.029 9-9-4.029-9-9-9m0 6c1.657 0 3 1.343 3 3s-1.343 3-3 3-3-1.343-3-3 1.343-3 3-3" fill="#fff" fill-rule="evenodd"/>
   </g>
  </g>
 </g>
 <g transform="matrix(1.3333,0,0,-1.3333,692.08,1060.7)" image-rendering="optimizeSpeed">
  <g clip-path="url(#clipPath25070-0)">
   <g transform="translate(122,495.24)">
    <path d="m0 0h3c0.553 0 1-0.447 1-1v-2c0-0.553-0.447-1-1-1h-3c-0.553 0-1 0.447-1 1v2c0 0.553 0.447 1 1 1" fill="#fff" fill-rule="evenodd"/>
   </g>
  </g>
 </g>
 <g transform="matrix(1.3333,0,0,-1.3333,692.08,1060.7)" image-rendering="optimizeSpeed">
  <g clip-path="url(#clipPath25100-2)">
   <g transform="translate(204,495.24)">
    <path d="m0 0h3c0.553 0 1-0.447 1-1v-2c0-0.553-0.447-1-1-1h-3c-0.553 0-1 0.447-1 1v2c0 0.553 0.447 1 1 1" fill="#fff" fill-rule="evenodd"/>
   </g>
  </g>
 </g>
 <g transform="matrix(1.3333,0,0,-1.3333,692.08,1060.7)" image-rendering="optimizeSpeed">
  <g clip-path="url(#clipPath25502-3)">
   <g transform="translate(805,482.24)">
    <path d="m0 0c4.418 0 8 3.582 8 8s-3.582 8-8 8-8-3.582-8-8 3.582-8 8-8" fill="#fff" fill-rule="evenodd"/>
   </g>
  </g>
 </g>
 <g transform="matrix(1.3333,0,0,-1.3333,692.08,1060.7)" image-rendering="optimizeSpeed">
  <g clip-path="url(#clipPath25686-7)">
   <g transform="translate(658,1075.7)">
    <path d="m0 0c0-4.694 3.806-8.5 8.5-8.5s8.5 3.806 8.5 8.5-3.806 8.5-8.5 8.5-8.5-3.806-8.5-8.5" fill="#fff"/>
   </g>
  </g>
 </g>
 <g transform="matrix(1.3333,0,0,-1.3333,692.08,1060.7)" image-rendering="optimizeSpeed">
  <g clip-path="url(#clipPath25788-5)">
   <path d="m465.44 1082.2h85.864v-75.319h-85.864zm64.45-25.106c-0.483 0.765-1.453 0.947-2.178 0.431l-15.504-11.01c-0.359-0.255-0.847-0.153-1.071 0.238l-18.271 31.869c-0.438 0.771-1.139 0.776-1.549-0.016l-1.807-3.514-21.07-47.452c13.336-18.44 48.336-26.94 73.836-3.44 0.841 0 6.477 6.246 6 7z" fill="#fff" fill-rule="evenodd"/>
  </g>
 </g>
 <g transform="matrix(1.3333,0,0,-1.3333,692.08,1060.7)" image-rendering="optimizeSpeed">
  <g clip-path="url(#clipPath26420-9)">
   <g transform="translate(-23,837.24)">
    <path d="m0 0c18.778 0 34 15.222 34 34s-15.222 34-34 34-34-15.222-34-34 15.222-34 34-34z" fill="none" stroke="#fff" stroke-miterlimit="10" stroke-width="8"/>
   </g>
  </g>
 </g>
 <g transform="matrix(1.3333,0,0,-1.3333,692.08,1060.7)" image-rendering="optimizeSpeed">
  <g clip-path="url(#clipPath26860-2)">
   <path d="m644 721.24h82v-82h-82zm41-81c22.092 0 40 17.908 40 40s-17.908 40-40 40-40-17.908-40-40 17.908-40 40-40" fill="#fff" fill-rule="evenodd"/>
  </g>
 </g>
 <g transform="matrix(1.3333,0,0,-1.3333,692.08,1060.7)" image-rendering="optimizeSpeed">
  <g clip-path="url(#clipPath27506-2)">
   <g transform="translate(613.88,476.03)">
    <path d="m0 0c0.187-0.771 0.148-1.502-0.116-2.193-0.266-0.692-0.678-1.303-1.239-1.833-0.561-0.531-1.247-0.949-2.057-1.255-0.81-0.305-1.683-0.457-2.617-0.457-5.889-0.033-11.156-0.049-15.798-0.049h-15.891c-1.122 0-2.111 0.209-2.968 0.627s-1.543 0.932-2.056 1.543c-0.515 0.611-0.858 1.279-1.029 2.002s-0.148 1.375 0.071 1.953c0.186 0.451 0.373 0.917 0.56 1.398 0.157 0.418 0.343 0.893 0.561 1.424 0.219 0.53 0.452 1.069 0.701 1.615l1.776 4.438h5.329l-2.01-6.077h30.099l-2.009 6.077h5.094c0.655-1.64 1.246-3.119 1.777-4.438 0.218-0.578 0.435-1.14 0.654-1.687 0.218-0.547 0.412-1.037 0.584-1.472 0.171-0.433 0.312-0.804 0.421-1.109 0.108-0.306 0.163-0.474 0.163-0.507m-22.922 9.236c-0.601 0.698-1.289 1.571-2.064 2.618-0.776 1.046-1.575 2.125-2.398 3.235-0.822 1.11-1.637 2.204-2.443 3.283-0.808 1.079-1.527 2.015-2.16 2.808-0.728 0.856-1.013 1.562-0.855 2.117s0.696 0.832 1.614 0.832c0.506-0.031 1.187-0.024 2.041 0.024 0.855 0.048 1.567 0.072 2.136 0.072 0.633 0 1.029 0.19 1.187 0.57 0.158 0.381 0.237 0.889 0.237 1.523 0 0.698-8e-3 1.467-0.024 2.308s-0.024 1.705-0.024 2.593-8e-3 1.76-0.023 2.617c-0.016 0.856-0.024 1.65-0.024 2.379 0 0.318 0.024 0.65 0.071 1 0.047 0.348 0.158 0.666 0.333 0.951 0.173 0.285 0.426 0.523 0.758 0.714 0.332 0.19 0.784 0.285 1.353 0.285 0.665 0 1.274 9e-3 1.827 0.024 0.555 0.016 1.195 0.024 1.923 0.024 1.044 0 1.748-0.246 2.112-0.737 0.364-0.492 0.562-1.277 0.593-2.356v-1.855c0-0.73 8e-3 -1.507 0.023-2.331 0.017-0.826 0.025-1.651 0.025-2.475v-2.236c0-0.92 0.095-1.659 0.284-2.213 0.191-0.555 0.617-0.817 1.282-0.785 0.475 0 1.052-0.016 1.732-0.047 0.68-0.032 1.274-0.049 1.78-0.049 0.855 0 1.4-0.23 1.638-0.69 0.237-0.46 0.071-1.054-0.498-1.784-0.602-0.76-1.298-1.68-2.089-2.759-0.791-1.08-1.606-2.197-2.445-3.355-0.838-1.158-1.661-2.284-2.467-3.379-0.807-1.094-1.528-2.037-2.16-2.83-0.57-0.73-1.116-1.103-1.637-1.119-0.523-0.016-1.069 0.326-1.638 1.023" fill="#fff"/>
   </g>
  </g>
 </g>
 <g transform="matrix(1.3333,0,0,-1.3333,692.08,1060.7)" image-rendering="optimizeSpeed">
  <g clip-path="url(#clipPath27772-8)">
   <g transform="translate(588.67,331.24)">
    <path d="m0 0h-49.301c-2.41 0-4.367-1.941-4.367-4.299v-49.402c0-2.393 1.957-4.299 4.367-4.299h49.301c2.41 0 4.332 1.941 4.332 4.299v49.367c0 2.393-1.957 4.334-4.332 4.334m-33.403-53.008h-8.839v6.795h8.839zm-8.91 24.58h8.84v-6.795h-8.84zm8.945-15.566h-8.84v6.795h8.84zm12.998-9.014h-8.84v6.795h8.84zm-8.91 24.58h8.84v-6.795h-8.84zm8.944-15.566h-8.839v6.795h8.839zm13.277-9.014h-8.84v6.795h8.84zm-8.909 24.58h8.84v-6.795h-8.84zm8.945-15.566h-8.84v6.795h8.84zm5.276 24.441c0-2.392-1.957-4.299-4.368-4.299h-37.77c-2.411-0.035-4.367 1.907-4.367 4.299v10.054c0 2.392 1.956 4.333 4.332 4.333h37.805c2.411 0 4.368-1.941 4.368-4.333z" fill="#fff"/>
   </g>
  </g>
 </g>
 <g transform="matrix(1.3333,0,0,-1.3333,692.08,1060.7)" image-rendering="optimizeSpeed">
  <g clip-path="url(#clipPath27864-9)">
   <g transform="translate(609.3,312.46)">
    <path d="m0 0h-0.72c-0.206 0-0.377 0-0.514-0.212-0.103-0.142-0.103-0.283-0.103-0.46v-0.566c0-0.178 0-0.319 0.103-0.461 0.137-0.212 0.308-0.212 0.514-0.212h0.72c0.205 0 0.376 0 0.514 0.212 0.102 0.142 0.102 0.283 0.102 0.461v0.566c0 0.213 0 0.318-0.102 0.46-0.138 0.212-0.275 0.212-0.514 0.212m-5.003 4.779h-2.947c-0.548 0-0.993-0.46-0.993-1.026v-2.407h0.993v2.407h2.947v-2.407h0.993v2.407c0 0.566-0.445 1.026-0.993 1.026m0-6.973h-2.947v2.407h-0.993v-2.407c0-0.567 0.411-1.027 0.993-1.027h2.947c0.582 0 0.993 0.46 0.993 1.027v2.407h-0.993zm-14.357 0h-2.947v2.584h-0.994v-2.584c0-0.567 0.411-1.027 0.994-1.027h2.947c0.583 0 0.994 0.46 0.994 1.027v2.584h-0.994zm0 6.973h-2.947c-0.548 0-0.994-0.46-0.994-1.026v-2.231h0.994v2.231h2.947v-2.231h0.994v2.231c0 0.566-0.446 1.026-0.994 1.026m7.195 0h-2.946c-0.549 0-0.994-0.46-0.994-1.026v-2.231h0.994v2.231h2.946v-2.231h0.994v2.231c0 0.566-0.445 1.026-0.994 1.026m0-6.973h-2.946v2.584h-0.994v-2.584c0-0.567 0.445-1.027 0.994-1.027h2.946c0.583 0 0.994 0.46 0.994 1.027v2.584h-0.994zm18.675 6.973h-2.947c-0.548 0-0.994-0.46-0.994-1.026v-2.584h0.994v2.584h2.947v-2.584h0.994v2.584c0 0.566-0.445 1.026-0.994 1.026m0-6.973h-2.947v2.23h-0.994v-2.23c0-0.567 0.446-1.027 0.994-1.027h2.947c0.583 0 0.994 0.46 0.994 1.027v2.23h-0.994zm7.195 0h-2.946v2.053h-0.994v-2.053c0-0.567 0.411-1.027 0.994-1.027h2.946c0.583 0 0.994 0.46 0.994 1.027v2.053h-0.994zm0 6.973h-2.946c-0.548 0-0.994-0.46-0.994-1.026v-2.761h0.994v2.761h2.946v-2.761h0.994v2.761c0 0.566-0.479 1.026-0.994 1.026" fill="#fff"/>
   </g>
  </g>
 </g>
 <g transform="matrix(1.3333,0,0,-1.3333,692.08,1060.7)" image-rendering="optimizeSpeed">
  <g clip-path="url(#clipPath28028-7)">
   <g transform="translate(766.75,130.24)">
    <path d="m0 0h-15.75v6.693c0 1.239-1.013 2.307-2.307 2.307h-13.386c-1.239 0-2.307-1.013-2.307-2.307v-6.693h-15.75c-1.237 0-2.25-1.013-2.25-2.25v-11.25l27-4.5 27 4.5v11.25c0 1.237-1.013 2.25-2.25 2.25m-29.25 4.5h9v-4.5h-9zm9-16.875c0-0.619-0.506-1.125-1.125-1.125h-6.75c-0.619 0-1.125 0.506-1.125 1.125v2.25c0 0.619 0.506 1.125 1.125 1.125h6.75c0.619 0 1.125-0.506 1.125-1.125zm-4.5-7.875 27 4.5v-27c0-1.237-1.013-2.25-2.25-2.25h-49.5c-1.237 0-2.25 1.013-2.25 2.25v27z" fill="#fff"/>
   </g>
  </g>
 </g>
 <g transform="matrix(1.3333,0,0,-1.3333,692.08,1060.7)" image-rendering="optimizeSpeed">
  <g clip-path="url(#clipPath28200-3)">
   <g transform="translate(392,82.24)">
    <path d="M 0,0 -4.35,3.941 C -19.8,17.953 -30,27.2 -30,38.516 -30,47.762 -22.755,55 -13.5,55 -8.28,55 -3.27,52.572 0,48.75 3.27,52.572 8.28,55 13.5,55 22.755,55 30,47.762 30,38.516 30,27.2 19.8,17.953 4.35,3.941 Z" fill="#fff"/>
   </g>
  </g>
 </g>
 <g transform="matrix(1.3333,0,0,-1.3333,692.08,1060.7)" image-rendering="optimizeSpeed">
  <g clip-path="url(#clipPath28364-6)">
   <g transform="translate(542.77,113.24)">
    <path d="m0 0c0 2.621 0.885 4.8 2.689 6.604s3.983 2.689 6.604 2.689c2.622 0 4.801-0.885 6.604-2.689 1.805-1.804 2.69-3.983 2.69-6.604s-0.885-4.834-2.69-6.639c-1.803-1.803-3.982-2.689-6.604-2.689-2.621 0-4.809 0.877-6.604 2.689-1.813 1.83-2.689 4.051-2.689 6.639m-13.141-6.06c0.545-1.94 1.363-3.846 2.35-5.617l-6.128-7.523 6.944-6.945 7.524 6.127c1.769-0.986 3.71-1.803 5.65-2.382l1.022-9.6h10.008l1.022 9.6c1.94 0.579 3.778 1.396 5.651 2.382l7.49-6.127 7.012 6.945-6.162 7.523c0.953 1.771 1.805 3.677 2.383 5.617l9.601 1.056v10.008l-9.601 1.021c-0.578 1.941-1.43 3.745-2.383 5.618l6.162 7.523-7.012 7.013-7.49-6.161c-1.907 0.953-3.711 1.803-5.651 2.382l-1.022 9.6h-10.008l-1.022-9.6c-2.008-0.579-3.88-1.429-5.65-2.382l-7.524 6.161-6.944-7.013 6.128-7.523c-0.953-1.873-1.771-3.677-2.35-5.618l-9.633-1.021v-10.008z" fill="#fff"/>
   </g>
  </g>
 </g>
 <g transform="matrix(1.3333,0,0,-1.3333,692.08,1060.7)" image-rendering="optimizeSpeed">
  <g clip-path="url(#clipPath28984-1)">
   <path d="m473 698.24h13v-13h-13zm6.5-12c3.037 0 5.5 2.463 5.5 5.5 0 3.038-2.463 5.5-5.5 5.5s-5.5-2.462-5.5-5.5c0-3.037 2.463-5.5 5.5-5.5" fill="#fff" fill-rule="evenodd"/>
  </g>
 </g>
 <g transform="matrix(1.3333,0,0,-1.3333,692.08,1060.7)" image-rendering="optimizeSpeed">
  <g clip-path="url(#clipPath29012-2)">
   <path d="m473 676.24h13v-13h-13zm6.5-12c3.037 0 5.5 2.463 5.5 5.5 0 3.038-2.463 5.5-5.5 5.5s-5.5-2.462-5.5-5.5c0-3.037 2.463-5.5 5.5-5.5" fill="#fff" fill-rule="evenodd"/>
  </g>
 </g>
 <g transform="matrix(1.3333,0,0,-1.3333,692.08,1060.7)" image-rendering="optimizeSpeed">
  <g clip-path="url(#clipPath29040-9)">
   <path d="m467 687.24h13v-13h-13zm6.5-12c3.037 0 5.5 2.463 5.5 5.5 0 3.038-2.463 5.5-5.5 5.5s-5.5-2.462-5.5-5.5c0-3.037 2.463-5.5 5.5-5.5" fill="#fff" fill-rule="evenodd"/>
  </g>
 </g>
 <g transform="matrix(1.3333,0,0,-1.3333,692.08,1060.7)" image-rendering="optimizeSpeed">
  <g clip-path="url(#clipPath29068-3)">
   <path d="m486 698.24h13v-13h-13zm6.5-12c3.037 0 5.5 2.463 5.5 5.5 0 3.038-2.463 5.5-5.5 5.5s-5.5-2.462-5.5-5.5c0-3.037 2.463-5.5 5.5-5.5" fill="#fff" fill-rule="evenodd"/>
  </g>
 </g>
 <g transform="matrix(1.3333,0,0,-1.3333,692.08,1060.7)" image-rendering="optimizeSpeed">
  <g clip-path="url(#clipPath29096-1)">
   <path d="m486 676.24h13v-13h-13zm6.5-12c3.037 0 5.5 2.463 5.5 5.5 0 3.038-2.463 5.5-5.5 5.5s-5.5-2.462-5.5-5.5c0-3.037 2.463-5.5 5.5-5.5" fill="#fff" fill-rule="evenodd"/>
  </g>
 </g>
 <g transform="matrix(1.3333,0,0,-1.3333,692.08,1060.7)" image-rendering="optimizeSpeed">
  <g clip-path="url(#clipPath29124-9)">
   <path d="m480 687.24h13v-13h-13zm6.5-12c3.037 0 5.5 2.463 5.5 5.5 0 3.038-2.463 5.5-5.5 5.5s-5.5-2.462-5.5-5.5c0-3.037 2.463-5.5 5.5-5.5" fill="#fff" fill-rule="evenodd"/>
  </g>
 </g>
 <g transform="matrix(1.3333,0,0,-1.3333,692.08,1060.7)" image-rendering="optimizeSpeed">
  <g clip-path="url(#clipPath29152-4)">
   <path d="m493 687.24h13v-13h-13zm6.5-12c3.037 0 5.5 2.463 5.5 5.5 0 3.038-2.463 5.5-5.5 5.5s-5.5-2.462-5.5-5.5c0-3.037 2.463-5.5 5.5-5.5" fill="#fff" fill-rule="evenodd"/>
  </g>
 </g>
 <g transform="matrix(1.3333,0,0,-1.3333,692.08,1060.7)" image-rendering="optimizeSpeed">
  <g clip-path="url(#clipPath29252-7)">
   <path d="m161 327.24h73v-28h-73zm14-5h45c4.971 0 9-4.029 9-9 0-4.97-4.029-9-9-9h-45c-4.971 0-9 4.03-9 9 0 4.971 4.029 9 9 9" fill="#fff" fill-rule="evenodd"/>
  </g>
 </g>
 <g transform="matrix(1.3333,0,0,-1.3333,692.08,1060.7)" image-rendering="optimizeSpeed">
  <g clip-path="url(#clipPath29280-8)">
   <path d="m162 302.24h73v-28h-73zm14-5h45c4.971 0 9-4.029 9-9 0-4.97-4.029-9-9-9h-45c-4.971 0-9 4.03-9 9 0 4.971 4.029 9 9 9" fill="#fff" fill-rule="evenodd"/>
  </g>
 </g>
 <g transform="matrix(1.3333,0,0,-1.3333,692.08,1060.7)" image-rendering="optimizeSpeed">
  <g clip-path="url(#clipPath29400-4)">
   <g transform="translate(104.49,129.57)">
    <path d="m0 0c-4.298-0.338-8.165-0.637-11.604-0.898-1.458-0.113-2.906-0.225-4.344-0.336-1.44-0.114-2.747-0.207-3.924-0.282-1.178-0.074-2.168-0.149-2.972-0.224-0.803-0.074-1.28-0.113-1.428-0.113-0.188-0.037-0.403-0.065-0.645-0.084-0.244-0.018-0.459-0.065-0.645-0.139l-0.673-0.225-2.467 1.121c0.187 0.263 0.412 0.506 0.674 0.731 0.185 0.186 0.42 0.364 0.7 0.533 0.28 0.168 0.569 0.27 0.868 0.309 0.225 0.037 0.822 0.093 1.795 0.168 0.971 0.074 2.167 0.168 3.588 0.28 0 0.486 0.047 1.15 0.14 1.992 0.092 0.841 0.317 1.674 0.672 2.497 0.356 0.822 0.869 1.553 1.541 2.188 0.673 0.636 1.589 1.009 2.747 1.123 1.346 0.111 2.439-0.094 3.281-0.618 0.84-0.523 1.494-1.169 1.961-1.935 0.467-0.768 0.795-1.553 0.981-2.358 0.187-0.804 0.299-1.43 0.337-1.878 1.606 0.111 2.942 0.205 4.008 0.279 1.064 0.076 1.653 0.131 1.765 0.169 0.412 0.038 0.87-0.038 1.373-0.225 0.505-0.186 0.907-0.43 1.206-0.729 0.075-0.075 0.177-0.188 0.308-0.336 0.131-0.151 0.252-0.3 0.365-0.449 0.149-0.151 0.28-0.337 0.392-0.561m-15.528 6.676c-0.709-0.074-1.28-0.326-1.709-0.757-0.43-0.431-0.758-0.944-0.982-1.543-0.223-0.599-0.374-1.206-0.448-1.823-0.075-0.617-0.112-1.114-0.112-1.488 1.159 0.076 2.344 0.169 3.559 0.281s2.402 0.206 3.56 0.281c-0.037 0.336-0.121 0.804-0.252 1.402-0.131 0.599-0.346 1.178-0.645 1.74-0.299 0.561-0.691 1.028-1.176 1.403-0.487 0.373-1.084 0.542-1.795 0.504m21.919-41.24c0.186-1.047 0.159-1.917-0.084-2.61-0.244-0.691-0.925-1.168-2.046-1.43-0.374-0.113-1.187-0.299-2.439-0.562-1.252-0.262-2.747-0.579-4.485-0.953-1.737-0.374-3.597-0.777-5.577-1.207-1.982-0.43-3.878-0.832-5.691-1.205-1.812-0.375-3.437-0.711-4.877-1.011-1.438-0.3-2.457-0.505-3.054-0.617-1.383-0.3-2.402-0.206-3.055 0.28-0.654 0.486-0.982 1.217-0.982 2.189v34.452c0 0.934 0.197 1.691 0.589 2.271 0.393 0.58 0.962 0.889 1.709 0.926 0.299 0 0.664 0.02 1.094 0.057s0.85 0.074 1.261 0.112c0.485 0.037 0.991 0.075 1.514 0.112l0.504-8.023c-0.037-0.038-0.112-0.057-0.224-0.057-0.074 0-0.187-0.01-0.336-0.027-0.15-0.02-0.318-0.029-0.505-0.029-0.784-0.075-1.159-0.542-1.121-1.403 0.038-0.336 0.075-0.805 0.112-1.402 0.037-0.599 0.066-1.225 0.084-1.88 0.019-0.655 0.047-1.29 0.084-1.907s0.074-1.114 0.113-1.488c0.037-0.711 0.149-1.112 0.336-1.206 0.186-0.093 0.598-0.14 1.233-0.14h0.785c0.225 0 0.439 0.01 0.645 0.027 0.205 0.02 0.439 0.038 0.701 0.057 0.261 0.018 0.597 0.047 1.008 0.084 0.785 0.075 1.29 0.243 1.513 0.506 0.225 0.261 0.319 0.654 0.281 1.177 0 0.262-0.028 0.721-0.084 1.375-0.056 0.655-0.113 1.337-0.168 2.048-0.056 0.71-0.103 1.384-0.14 2.02-0.037 0.635-0.074 1.085-0.112 1.346-0.076 0.45-0.168 0.768-0.281 0.954-0.112 0.187-0.318 0.262-0.617 0.224-0.148 0-0.299-9e-3 -0.447-0.027-0.151-0.019-0.3-0.028-0.449-0.028h-0.449l-0.505 7.967c2.542 0.225 4.877 0.412 7.008 0.561 0.897 0.076 1.803 0.15 2.719 0.224 0.916 0.076 1.766 0.141 2.551 0.198 0.785 0.055 1.476 0.111 2.074 0.168 0.598 0.056 1.046 0.103 1.346 0.14 1.083 0.074 1.942-0.113 2.578-0.561 0.635-0.449 1.027-1.122 1.178-2.021 0.037-0.299 0.168-1.196 0.391-2.693 0.224-1.496 0.505-3.291 0.841-5.386s0.691-4.349 1.065-6.761c0.374-2.413 0.729-4.667 1.066-6.761 0.336-2.095 0.625-3.891 0.869-5.387 0.242-1.496 0.4-2.395 0.476-2.693m-35.261-4.881c0-0.525 0.028-0.983 0.084-1.375 0.057-0.393 0.122-0.701 0.197-0.926 0.074-0.299 0.168-0.524 0.279-0.674-0.933 0.486-1.831 0.973-2.69 1.459-0.747 0.412-1.495 0.832-2.242 1.263-0.747 0.43-1.383 0.795-1.906 1.094-0.972 0.561-1.635 1.235-1.99 2.02s-0.439 1.608-0.253 2.469c0.076 0.224 0.244 1.047 0.505 2.469 0.262 1.421 0.588 3.142 0.981 5.162 0.392 2.019 0.803 4.189 1.233 6.508 0.43 2.32 0.831 4.49 1.205 6.509 0.374 2.02 0.701 3.76 0.982 5.218 0.28 1.459 0.439 2.319 0.476 2.581 0.15 0.823 0.42 1.459 0.813 1.908 0.392 0.449 0.849 0.561 1.373 0.336 0.299-0.149 0.543-0.317 0.728-0.504 0.114-0.113 0.188-0.207 0.225-0.281z" fill="#fff"/>
   </g>
  </g>
 </g>
 <g transform="matrix(3.7796,0,0,3.7796,-12.657,-13.063)" fill="#5e4aa6" image-rendering="optimizeSpeed" stroke-width=".26458">
  <g transform="translate(55.677,-3.157)">
   <circle cx="-322.63" cy="-345.67" r="0"/>
   <circle cx="-31.726" cy="-10.849" r="0" fill-rule="evenodd"/>
   <circle cx="-306.92" cy="-328.72" r="0"/>
  </g>
  <g transform="translate(47.177,-15.995)" image-rendering="optimizeSpeed">
   <circle cx="-330.35" cy="-328.38" r="0"/>
   <circle cx="-312.11" cy="-326.25" r="0"/>
   <circle cx="-306.02" cy="-333.07" r="0"/>
   <circle cx="-308.84" cy="-326.01" r="0"/>
  </g>
  <g transform="translate(47.177,-15.995)" image-rendering="optimizeSpeed">
   <circle cx="-330.35" cy="-328.38" r="0"/>
   <circle cx="-312.11" cy="-326.25" r="0"/>
   <circle cx="-306.02" cy="-333.07" r="0"/>
   <circle cx="-308.84" cy="-326.01" r="0"/>
  </g>
 </g>
 <g stroke-opacity=".95294">
  <rect x="7" y="7" width="50" height="50" ry="11.818" fill="#646464" image-rendering="optimizeSpeed" stroke-width=".28571"/>
  <rect x="7" y="7" width="50" height="50" ry="11.818" fill="url(#radialGradient3261)" image-rendering="optimizeSpeed" stroke-width=".28571"/>
  <path d="m18.775 6.9172c-6.5688 0-11.858 5.2887-11.858 11.858v26.451c0 6.5688 5.2887 11.858 11.858 11.858h26.451c6.5688 0 11.858-5.2887 11.858-11.858v-26.451c0-6.5688-5.2887-11.858-11.858-11.858zm0.49382 0.93669h25.463c6.3234 0 11.415 5.0913 11.415 11.415v25.463c0 6.3234-5.0913 11.415-11.415 11.415h-25.463c-6.3234 0-11.415-5.0913-11.415-11.415v-25.463c0-6.3234 5.0913-11.415 11.415-11.415z" fill="url(#linearGradient3277)" image-rendering="optimizeSpeed" stroke-width=".28665"/>
  <path transform="matrix(.90435 0 0 .90435 3.0609 3.0609)" d="m18.818 7c-6.5471 0-11.818 5.2712-11.818 11.818v26.363c0 6.5471 5.2712 11.818 11.818 11.818h26.363c6.5471 0 11.818-5.2712 11.818-11.818v-26.363c0-6.5471-5.2712-11.818-11.818-11.818zm0.49219 0.93359h25.379c6.3025 0 11.377 5.0745 11.377 11.377v25.379c0 6.3025-5.0745 11.377-11.377 11.377h-25.379c-6.3025 0-11.377-5.0745-11.377-11.377v-25.379c0-6.3025 5.0745-11.377 11.377-11.377z" filter="url(#filter3294)" image-rendering="optimizeSpeed" opacity=".3" stroke-width=".2857"/>
 </g>
 <g transform="matrix(.84739 0 0 .84739 4.8834 4.8834)">
  <path class="shp86" transform="matrix(.15696 0 0 .15696 -333.45 -6.4874)" d="m2410.5 116.88-6.45 17.23c-0.42 1.13 0.01 2.63 0.96 3.36l7.59 5.81c0.93 0.71 2.52 0.75 3.5 0.05l14.96-10.68c0.98-0.7 2.47-0.58 3.32 0.28l6.27 6.27c0.87 0.87 0.98 2.34 0.28 3.32l-10.68 14.95c-0.7 0.98-0.67 2.55 0.06 3.5l5.82 7.59c0.71 0.93 2.24 1.38 3.36 0.96l17.21-6.45c1.13-0.42 2.53 0.08 3.13 1.13l4.43 7.67c0.62 1.07 0.34 2.51-0.59 3.28l-14.2 11.69c-0.93 0.77-1.31 2.29-0.85 3.39l3.65 8.83c0.45 1.08 1.8 1.91 3 1.8l18.31-1.78c1.2-0.12 2.43 0.73 2.74 1.9l2.29 8.56c0.32 1.19-0.32 2.51-1.42 3.01l-16.75 7.62c-1.1 0.5-1.86 1.87-1.7 3.06l1.25 9.47c0.15 1.16 1.25 2.31 2.44 2.51l18.14 3.02c1.19 0.2 2.15 1.34 2.15 2.54v8.86c0 1.23-0.96 2.35-2.15 2.54l-18.12 3.02c-1.19 0.2-2.28 1.32-2.43 2.51l-1.24 9.48c-0.15 1.16 0.61 2.56 1.7 3.06l16.72 7.61c1.09 0.5 1.73 1.85 1.42 3.01l-2.29 8.56c-0.32 1.19-1.54 2.02-2.74 1.9l-18.29-1.77c-1.2-0.12-2.54 0.69-3 1.8l-3.67 8.83c-0.45 1.08-0.08 2.63 0.85 3.39l14.2 11.69c0.93 0.77 1.2 2.23 0.59 3.28l-4.43 7.67c-0.62 1.07-2.01 1.55-3.14 1.13l-17.23-6.45c-1.13-0.42-2.63 0.01-3.36 0.96l-5.81 7.59c-0.71 0.93-0.75 2.52-0.05 3.5l10.68 14.96c0.7 0.98 0.58 2.47-0.28 3.32l-6.27 6.27c-0.87 0.87-2.34 0.98-3.32 0.28l-14.95-10.68c-0.98-0.7-2.55-0.67-3.5 0.06l-7.59 5.82c-0.93 0.71-1.38 2.24-0.96 3.36l6.45 17.21c0.42 1.13-0.08 2.53-1.13 3.13l-7.67 4.43c-1.07 0.62-2.51 0.34-3.28-0.59l-11.69-14.2c-0.77-0.93-2.29-1.31-3.39-0.85l-8.83 3.65c-1.08 0.45-1.91 1.8-1.8 3l1.78 18.31c0.12 1.2-0.73 2.43-1.9 2.74l-8.56 2.29c-1.19 0.32-2.51-0.32-3.01-1.42l-7.62-16.75c-0.5-1.1-1.87-1.86-3.06-1.7l-9.47 1.25c-1.16 0.15-2.31 1.25-2.51 2.44l-3.02 18.14c-0.2 1.19-1.34 2.15-2.54 2.15h-8.86c-1.23 0-2.35-0.96-2.54-2.15l-3.02-18.12c-0.2-1.19-1.32-2.28-2.51-2.43l-9.48-1.24c-1.16-0.15-2.56 0.61-3.06 1.7l-7.61 16.72c-0.5 1.09-1.85 1.73-3.01 1.42l-8.56-2.29c-1.19-0.32-2.02-1.54-1.9-2.74l1.77-18.29c0.12-1.2-0.69-2.54-1.8-3l-8.83-3.67c-1.08-0.45-2.63-0.08-3.39 0.85l-11.69 14.2c-0.77 0.93-2.23 1.2-3.28 0.59l-7.67-4.43c-1.07-0.62-1.55-2.01-1.13-3.14l6.45-17.23c0.42-1.13-0.01-2.63-0.96-3.36l-7.59-5.81c-0.93-0.71-2.52-0.75-3.5-0.05l-14.96 10.68c-0.98 0.7-2.47 0.58-3.32-0.28l-6.27-6.27c-0.87-0.87-0.98-2.34-0.28-3.32l10.68-14.95c0.7-0.98 0.67-2.55-0.06-3.5l-5.82-7.59c-0.71-0.93-2.24-1.38-3.36-0.96l-17.21 6.45c-1.13 0.42-2.53-0.08-3.13-1.13l-4.43-7.67c-0.62-1.07-0.34-2.51 0.59-3.28l14.2-11.69c0.93-0.77 1.31-2.29 0.85-3.39l-3.65-8.83c-0.45-1.08-1.8-1.91-3-1.8l-18.31 1.78c-1.2 0.12-2.43-0.73-2.74-1.9l-2.29-8.56c-0.32-1.19 0.32-2.51 1.42-3.01l16.75-7.62c1.1-0.5 1.86-1.87 1.7-3.06l-1.25-9.47c-0.15-1.16-1.25-2.31-2.44-2.51l-18.14-3.02c-1.19-0.2-2.15-1.34-2.15-2.54v-8.86c0-1.23 0.96-2.35 2.15-2.54l18.12-3.02c1.19-0.2 2.28-1.32 2.43-2.51l1.24-9.48c0.15-1.16-0.61-2.56-1.7-3.06l-16.72-7.61c-1.09-0.5-1.73-1.85-1.42-3.01l2.29-8.56c0.32-1.19 1.54-2.02 2.74-1.9l18.29 1.77c1.2 0.12 2.54-0.69 3-1.8l3.67-8.83c0.45-1.08 0.08-2.63-0.85-3.39l-14.2-11.69c-0.93-0.77-1.2-2.23-0.59-3.28l4.43-7.67c0.62-1.07 2.01-1.55 3.14-1.13l17.23 6.45c1.13 0.42 2.63-0.01 3.36-0.96l5.81-7.59c0.71-0.93 0.75-2.52 0.05-3.5l-10.68-14.96c-0.7-0.98-0.58-2.47 0.28-3.32l6.27-6.27c0.87-0.87 2.34-0.98 3.32-0.28l14.95 10.68c0.98 0.7 2.55 0.67 3.5-0.06l7.59-5.82c0.93-0.71 1.38-2.24 0.96-3.36l-6.45-17.21c-0.42-1.13 0.08-2.53 1.13-3.13l7.67-4.43c1.07-0.62 2.51-0.34 3.28 0.59l11.69 14.2c0.77 0.93 2.29 1.31 3.39 0.85l8.83-3.65c1.08-0.45 1.91-1.8 1.8-3l-1.78-18.31c-0.12-1.2 0.73-2.43 1.9-2.74l8.56-2.29c1.19-0.32 2.51 0.32 3.01 1.42l7.62 16.75c0.5 1.1 1.87 1.86 3.06 1.7l9.47-1.25c1.16-0.15 2.31-1.25 2.51-2.44l3.02-18.14c0.2-1.19 1.34-2.15 2.54-2.15h8.86c1.23 0 2.35 0.96 2.54 2.15l3.02 18.12c0.2 1.19 1.32 2.28 2.51 2.43l9.48 1.24c1.16 0.15 2.56-0.61 3.06-1.7l7.61-16.72c0.5-1.09 1.85-1.73 3.01-1.42l8.56 2.29c1.19 0.32 2.02 1.54 1.9 2.74l-1.77 18.29c-0.12 1.2 0.69 2.54 1.8 3l8.83 3.67c1.08 0.45 2.63 0.08 3.39-0.85l11.69-14.2c0.77-0.93 2.23-1.2 3.28-0.59l7.67 4.43c1.07 0.62 1.55 2.01 1.13 3.14zm-29.36 36.71c-24.86-14.36-53.13-17.48-78.92-10.94-4.97 1.26-2.05 0.57-2.05 0.57-6.92 2.36-9.68 9.49-6.19 15.85 0 0-2.01-3.67 0.16 0.28 10.34 18.87 31.04 56.63 31.04 56.63 4.68 8.54 16.37 15.3 26.12 15.1 0 0 45.86-0.95 68.8-1.43 4.26-0.09 0 0 0 0 7.06-0.15 11.65-6.09 10.11-12.74-7.16-25.78-24.05-48.88-49.06-63.32zm-1.73 184.17c25.11-13.92 42.34-36.54 50.02-62.02 1.48-4.91 0.57-2.05 0.57-2.05 1.54-7.15-3.15-13.18-10.4-13.47 0 0 4.18 0.17-0.32-0.01-21.5-0.85-64.52-2.56-64.52-2.56-9.73-0.39-21.55 6.15-26.4 14.61 0 0-22.8 39.8-34.21 59.71-2.12 3.7 0 0 0 0-3.51 6.13-0.77 13.12 5.72 15.23 0 0-4.1-1.14 0 0 25.79 7.14 54.29 4.56 79.54-9.44zm-125.19-16.85c5.07 4.57 12.5 3.44 16.05-2.67 0 0-2.14 3.68 0 0 11.54-19.83 34.6-59.48 34.6-59.48 4.9-8.43 4.66-21.93-0.54-30.17 0 0-22.99-36.41-34.48-54.6-2.41-3.81-0.17-0.27-0.17-0.27-3.87-6.13-11.44-7.18-16.86-2.27 0 0 2.02-2.22-1.49 1.52-18.22 19.39-29.2 45.62-28.7 74.33 0.5 28.87 12.52 54.84 31.6 73.6z" fill="#050505" filter="url(#g)" opacity=".75" stroke-width="17"/>
  <path id="gear" class="shp86" d="m44.891 11.858-1.0124 2.7044c-0.0659 0.17736 2e-3 0.4128 0.15068 0.52738l1.1913 0.9119c0.14597 0.11144 0.39554 0.11772 0.54935 0.0079l2.3481-1.6763c0.15382-0.10987 0.38769-0.09104 0.5211 0.04395l0.98414 0.98414c0.13655 0.13655 0.15381 0.36728 0.0439 0.5211l-1.6763 2.3465c-0.10987 0.15382-0.10516 0.40024 9e-3 0.54935l0.91349 1.1913c0.11144 0.14597 0.35159 0.2166 0.52738 0.15068l2.7012-1.0124c0.17737-0.06592 0.39711 0.01256 0.49128 0.17736l0.69531 1.2039c0.0973 0.16794 0.0534 0.39396-0.0926 0.51482l-2.2288 1.8348c-0.14597 0.12086-0.20561 0.35943-0.13342 0.53208l0.57289 1.3859c0.0706 0.16952 0.28253 0.29979 0.47087 0.28252l2.8739-0.27938c0.18834-0.01883 0.3814 0.11458 0.43006 0.29822l0.35943 1.3436c0.0502 0.18678-0.0502 0.39396-0.22287 0.47244l-2.629 1.196c-0.17265 0.07848-0.29194 0.29351-0.26682 0.48029l0.19619 1.4864c0.0235 0.18207 0.19619 0.36257 0.38297 0.39396l2.8472 0.47401c0.18678 0.03139 0.33746 0.21032 0.33746 0.39867v1.3906c0 0.19306-0.15068 0.36885-0.33746 0.39867l-2.8441 0.47401c-0.18678 0.03139-0.35786 0.20718-0.3814 0.39396l-0.19463 1.488c-0.0235 0.18207 0.0957 0.40181 0.26682 0.48029l2.6243 1.1944c0.17108 0.07848 0.27153 0.29037 0.22287 0.47244l-0.35943 1.3436c-0.0502 0.18678-0.24171 0.31706-0.43006 0.29822l-2.8707-0.27781c-0.18835-0.01883-0.39867 0.1083-0.47087 0.28252l-0.57604 1.3859c-0.0706 0.16951-0.0126 0.4128 0.13342 0.53208l2.2288 1.8348c0.14597 0.12086 0.18835 0.35002 0.0926 0.51482l-0.69531 1.2039c-0.0973 0.16794-0.31548 0.24328-0.49285 0.17736l-2.7044-1.0124c-0.17736-0.06592-0.4128 0.0016-0.52738 0.15068l-0.9119 1.1913c-0.11144 0.14597-0.11772 0.39553-8e-3 0.54935l1.6763 2.3481c0.10987 0.15382 0.091 0.38768-0.0439 0.5211l-0.98414 0.98414c-0.13655 0.13655-0.36728 0.15382-0.5211 0.04395l-2.3465-1.6763c-0.15381-0.10987-0.40024-0.10516-0.54935 0.0094l-1.1913 0.91349c-0.14597 0.11144-0.2166 0.35158-0.15068 0.52738l1.0124 2.7012c0.0659 0.17736-0.0126 0.3971-0.17736 0.49128l-1.2039 0.69531c-0.16794 0.09731-0.39396 0.05336-0.51482-0.0926l-1.8348-2.2288c-0.12085-0.14597-0.35943-0.20561-0.53208-0.13342l-1.3859 0.57289c-0.16951 0.07063-0.29979 0.28252-0.28252 0.47087l0.27938 2.8739c0.0188 0.18835-0.11458 0.3814-0.29822 0.43006l-1.3436 0.35943c-0.18678 0.05023-0.39396-0.05023-0.47244-0.22288l-1.196-2.629c-0.0785-0.17265-0.29351-0.29194-0.48029-0.26682l-1.4864 0.19619c-0.18207 0.02354-0.36258 0.19619-0.39396 0.38298l-0.47402 2.8472c-0.0314 0.18678-0.21032 0.33746-0.39866 0.33746h-1.3906c-0.19306 0-0.36885-0.15068-0.39867-0.33746l-0.47401-2.8441c-0.0314-0.18678-0.20718-0.35786-0.39396-0.3814l-1.488-0.19463c-0.18207-0.02354-0.40181 0.09574-0.48029 0.26682l-1.1944 2.6243c-0.07848 0.17108-0.29037 0.27154-0.47244 0.22288l-1.343-0.35942c-0.18678-0.05023-0.31706-0.24171-0.29822-0.43006l0.27781-2.8707c0.01883-0.18835-0.1083-0.39867-0.28252-0.47087l-1.3859-0.57603c-0.16952-0.07063-0.4128-0.01256-0.53208 0.13342l-1.8348 2.2288c-0.12086 0.14597-0.35001 0.18835-0.51482 0.0926l-1.2039-0.69531c-0.16794-0.09732-0.24328-0.31548-0.17736-0.49285l1.0124-2.7044c0.06592-0.17736-0.0016-0.4128-0.15068-0.52738l-1.1913-0.9119c-0.14597-0.11144-0.39553-0.11772-0.54935-0.0078l-2.3481 1.6763c-0.15382 0.10987-0.38769 0.09104-0.5211-0.04395l-0.98414-0.98419c-0.13655-0.13655-0.15382-0.36728-0.04395-0.5211l1.6763-2.3465c0.10987-0.15382 0.10516-0.40024-0.0094-0.54935l-0.91349-1.1913c-0.11144-0.14597-0.35159-0.2166-0.52738-0.15068l-2.7012 1.0124c-0.17736 0.06592-0.3971-0.01256-0.49128-0.17736l-0.69531-1.2039c-0.09731-0.16794-0.05336-0.39396 0.0926-0.51482l2.2288-1.8348c0.14597-0.12086 0.20562-0.35943 0.13342-0.53208l-0.57289-1.3859c-0.07063-0.16951-0.28252-0.29979-0.47087-0.28252l-2.8739 0.27938c-0.18835 0.01883-0.3814-0.11458-0.43006-0.29822l-0.35944-1.3436c-0.05023-0.18678 0.05023-0.39396 0.22288-0.47244l2.629-1.196c0.17265-0.07848 0.29194-0.29351 0.26682-0.48029l-0.19619-1.4864c-0.02354-0.18207-0.19619-0.36257-0.38298-0.39396l-2.8472-0.47401c-0.18678-0.03139-0.33746-0.21032-0.33746-0.39867v-1.3906c0-0.19306 0.15068-0.36885 0.33746-0.39867l2.8441-0.47401c0.18678-0.03139 0.35786-0.20718 0.3814-0.39396l0.19463-1.488c0.02354-0.18207-0.09574-0.40181-0.26682-0.48029l-2.6243-1.1944c-0.17108-0.07848-0.27154-0.29037-0.22288-0.47244l0.35943-1.3436c0.05023-0.18678 0.24171-0.31706 0.43006-0.29822l2.8707 0.27781c0.18835 0.01883 0.39867-0.1083 0.47087-0.28252l0.57603-1.3859c0.07063-0.16952 0.01256-0.4128-0.13342-0.53208l-2.2288-1.8348c-0.14597-0.12086-0.18835-0.35002-0.0926-0.51482l0.69531-1.2039c0.09731-0.16795 0.31548-0.24328 0.49285-0.17736l2.7044 1.0124c0.17736 0.06592 0.4128-0.0016 0.52738-0.15068l0.9119-1.1913c0.11144-0.14597 0.11772-0.39553 0.0078-0.54935l-1.6762-2.3481c-0.10987-0.15382-0.09104-0.38768 0.04395-0.5211l0.98414-0.98414c0.13655-0.13655 0.36728-0.15382 0.5211-0.04395l2.3465 1.6763c0.15382 0.10987 0.40024 0.10516 0.54935-0.0094l1.1913-0.91349c0.14597-0.11144 0.2166-0.35158 0.15068-0.52738l-1.0124-2.7012c-0.06592-0.17736 0.01256-0.3971 0.17736-0.49128l1.2039-0.69531c0.16795-0.09732 0.39396-0.05336 0.51482 0.0926l1.8348 2.2288c0.12086 0.14597 0.35943 0.20561 0.53208 0.13342l1.3859-0.57289c0.16952-0.07063 0.29979-0.28252 0.28252-0.47087l-0.27938-2.8739c-0.01883-0.18835 0.11458-0.3814 0.29822-0.43006l1.3436-0.35943c0.18678-0.05023 0.39396 0.05023 0.47244 0.22288l1.196 2.629c0.0785 0.17265 0.29351 0.29194 0.48029 0.26682l1.4864-0.19619c0.18207-0.02354 0.36256-0.19619 0.39396-0.38297l0.47401-2.8472c0.0314-0.18678 0.21032-0.33746 0.39867-0.33746h1.3906c0.19306 0 0.36885 0.15068 0.39867 0.33746l0.47401 2.8441c0.0314 0.18678 0.20719 0.35786 0.39397 0.3814l1.488 0.19463c0.18207 0.02354 0.40182-0.09574 0.48029-0.26682l1.1944-2.6243c0.0785-0.17108 0.29037-0.27154 0.47244-0.22288l1.3436 0.35943c0.18678 0.05023 0.31705 0.24171 0.29822 0.43006l-0.27781 2.8707c-0.0188 0.18834 0.1083 0.39867 0.28252 0.47087l1.3859 0.57603c0.16951 0.07063 0.4128 0.01256 0.53208-0.13342l1.8348-2.2288c0.12086-0.14597 0.35002-0.18834 0.51482-0.0926l1.2038 0.69531c0.16795 0.09731 0.24329 0.31548 0.17737 0.49285zm-4.6082 5.7619c-3.9019-2.2539-8.339-2.7436-12.387-1.7171-0.78007 0.19776-0.32176 0.08947-0.32176 0.08947-1.0861 0.37042-1.5193 1.4895-0.97155 2.4878 0 0-0.31548-0.57603 0.02511 0.04395 1.6229 2.9618 4.872 8.8885 4.872 8.8885 0.73455 1.3404 2.5694 2.4014 4.0997 2.3701 0 0 7.1978-0.14911 10.798-0.22445 0.66867-0.01413 0 0 0 0 1.1081-0.02354 1.8286-0.95585 1.5869-1.9996-1.1238-4.0463-3.7748-7.672-7.7002-9.9385zm-0.27153 28.907c3.9412-2.1848 6.6455-5.7352 7.8508-9.7344 0.2323-0.77067 0.0895-0.32176 0.0895-0.32176 0.24171-1.1223-0.49441-2.0687-1.6323-2.1142 0 0 0.65608 0.02668-0.0502-0.0016-3.3746-0.13342-10.127-0.40181-10.127-0.40181-1.5272-0.06121-3.3824 0.96526-4.1436 2.2931 0 0-3.5786 6.2466-5.3695 9.372-0.33275 0.58074 0 0 0 0-0.55092 0.96214-0.12086 2.0593 0.89778 2.3905 0 0-0.64354-0.17893 0 0 4.0479 1.1207 8.5214 0.71572 12.484-1.4817zm-19.649-2.6447c0.79578 0.71731 1.9619 0.53993 2.5192-0.41908 0 0-0.33588 0.5776 0 0 1.8113-3.1124 5.4307-9.3355 5.4307-9.3355 0.76908-1.3232 0.73143-3.4421-0.0848-4.7354 0 0-3.6084-5.7148-5.4119-8.5696-0.37827-0.59802-0.02668-0.04238-0.02668-0.04238-0.60743-0.96214-1.7956-1.127-2.6463-0.35629 0 0 0.31706-0.34844-0.23386 0.23858-2.8598 3.0434-4.5831 7.1602-4.5046 11.667 0.07848 4.5313 1.9651 8.6073 4.9598 11.552z" fill="url(#f)" stroke-width="2.6682"/>
 </g>
</svg>
