<?xml version="1.0" encoding="UTF-8"?>
<svg width="64" height="64" version="1.1" viewBox="0 0 16.933 16.933" xmlns="http://www.w3.org/2000/svg" xmlns:cc="http://creativecommons.org/ns#" xmlns:dc="http://purl.org/dc/elements/1.1/" xmlns:rdf="http://www.w3.org/1999/02/22-rdf-syntax-ns#" xmlns:xlink="http://www.w3.org/1999/xlink">
 <defs>
  <linearGradient id="linearGradient1448" x1="3.9687" x2="3.9687" y1="16.404" y2="2.6458" gradientTransform="matrix(.91667 0 0 .91667 .70544 -16.228)" gradientUnits="userSpaceOnUse">
   <stop stop-color="#144bb4" offset="0"/>
   <stop stop-color="#00c8ff" offset="1"/>
  </linearGradient>
  <filter id="filter861" x="-.027" y="-.027" width="1.054" height="1.054" color-interpolation-filters="sRGB">
   <feGaussianBlur stdDeviation="0.16371"/>
  </filter>
 </defs>
 <metadata>
  <rdf:RDF>
   <cc:Work rdf:about="">
    <dc:format>image/svg+xml</dc:format>
    <dc:type rdf:resource="http://purl.org/dc/dcmitype/StillImage"/>
    <dc:title/>
   </cc:Work>
  </rdf:RDF>
 </metadata>
 <rect x="1.1905" y="1.1905" width="14.552" height="14.552" ry="3.4395" filter="url(#filter861)" opacity=".3" stroke-opacity=".95294" stroke-width=".083153"/>
 <rect transform="scale(1,-1)" x="1.1905" y="-15.742" width="14.552" height="14.552" ry="3.4395" fill="url(#linearGradient1448)" stroke-opacity=".95294" stroke-width=".083153"/>
 <path d="m7.6864 4.3973c-0.12525 0-0.15344 0.00548-0.23599 0.046009-0.1196 0.058724-0.22066 0.15992-0.27377 0.27411-0.056412 0.12129-0.066634 0.30684-0.02319 0.42095 0.016507 0.04336 0.16753 0.31626 0.33561 0.60646 0.16808 0.2902 0.30599 0.53854 0.30648 0.55186 4.872e-4 0.013323-0.41379 0.74235-0.92061 1.62l-0.9215 1.5958-1.6731 0.00918-0.094605 0.044131c-0.12323 0.057498-0.2309 0.16468-0.28652 0.28523-0.037682 0.081676-0.044468 0.11677-0.044531 0.23038 0 0.11386 0.00658 0.14826 0.0441 0.22863 0.074719 0.16007 0.2225 0.28348 0.38544 0.32188 0.032961 0.0078 1.2443 0.01464 2.7333 0.01552l2.6741 0.0016 0.030055-0.03326c0.025316-0.02802 0.029896-0.05714 0.029161-0.18527-0.0022146-0.3886-0.22635-0.75958-0.53311-0.88246-0.057325-0.02296-0.1797-0.027101-1.0121-0.034152l-0.94694-0.0080077 0.2703-0.46514c1.6818-2.8939 2.225-3.8358 2.2507-3.9024 0.023744-0.061515 0.029028-0.10655 0.023961-0.20498-0.011493-0.22319-0.12245-0.39268-0.32083-0.49008-0.082498-0.040506-0.11077-0.046009-0.23565-0.046009-0.12337 0-0.15486 0.00597-0.2411 0.045793-0.13676 0.063152-0.21946 0.16035-0.3884 0.45652-0.077379 0.13566-0.1456 0.24664-0.15161 0.24664-0.00601 0-0.073942-0.11077-0.15099-0.24615-0.16975-0.29827-0.24024-0.38168-0.38125-0.4511-0.095205-0.046869-0.11841-0.051706-0.24729-0.051706zm1.621 2.2159c-0.033404-0.0010186-0.1199 0.083969-0.17994 0.17686-0.20807 0.32193-0.291 0.98412-0.17523 1.3994 0.021986 0.078851 0.29498 0.56316 1.1864 2.1049 0.63683 1.1014 1.1822 2.0295 1.2119 2.0625 0.15936 0.177 0.4229 0.22895 0.64834 0.12777 0.21296-0.09557 0.3459-0.32229 0.32616-0.5563-0.0048-0.05747-0.02312-0.13642-0.04059-0.17544-0.01747-0.03902-0.16562-0.30155-0.32921-0.5834l-0.29743-0.51244 0.99501-0.0158 0.0946-0.04416c0.12323-0.0575 0.2309-0.16468 0.28652-0.28523 0.03768-0.08168 0.04444-0.11674 0.0445-0.23035 0-0.11383-0.0065-0.14827-0.04404-0.22863-0.05746-0.12315-0.1647-0.23087-0.28526-0.28659l-0.096321-0.044498-1.6563-0.0091769-0.83534-1.4494c-0.45944-0.79716-0.84367-1.4496-0.85385-1.45zm-3.9456 4.2958c-0.089456 1.87e-4 -0.16513 0.0079-0.19672 0.02414-0.033816 0.01734-0.094134 0.10668-0.23399 0.34661-0.28111 0.48226-0.30236 0.53044-0.30198 0.6849 5.758e-4 0.24456 0.13365 0.43762 0.36632 0.5315 0.1062 0.04285 0.32681 0.03337 0.43595-0.01873 0.14561-0.0695 0.21358-0.15991 0.52107-0.69312l0.28643-0.49667-0.025343-0.04512c-0.067425-0.12006-0.26907-0.23928-0.50283-0.29729-0.096107-0.02385-0.23387-0.03639-0.34889-0.03622z" fill="#fff"/>
</svg>
