<?xml version="1.0" encoding="UTF-8"?>
<svg width="64" height="64" version="1.1" viewBox="0 0 16.933 16.933" xmlns="http://www.w3.org/2000/svg" xmlns:cc="http://creativecommons.org/ns#" xmlns:dc="http://purl.org/dc/elements/1.1/" xmlns:rdf="http://www.w3.org/1999/02/22-rdf-syntax-ns#">
 <defs>
  <style type="text/css"/>
  <style type="text/css"/>
  <style type="text/css"/>
  <linearGradient id="linearGradient1448" x1="3.9687" x2="3.9687" y1="16.404" y2="2.6458" gradientTransform="matrix(.91666 0 0 .91666 .70545 .70545)" gradientUnits="userSpaceOnUse">
   <stop stop-color="#00a0ff" offset="0"/>
   <stop stop-color="#37beff" offset="1"/>
  </linearGradient>
  <filter id="filter861" x="-.027" y="-.027" width="1.054" height="1.054" color-interpolation-filters="sRGB">
   <feGaussianBlur stdDeviation="0.16371"/>
  </filter>
 </defs>
 <metadata>
  <rdf:RDF>
   <cc:Work rdf:about="">
    <dc:format>image/svg+xml</dc:format>
    <dc:type rdf:resource="http://purl.org/dc/dcmitype/StillImage"/>
    <dc:title/>
   </cc:Work>
  </rdf:RDF>
 </metadata>
 <g fill="#5e4aa6" stroke-width=".26458">
  <circle cx="-330.35" cy="-328.38" r="0"/>
  <circle cx="-330.35" cy="-328.37" r="0"/>
  <circle cx="-330.35" cy="-328.37" r="0"/>
  <circle cx="-352.63" cy="-336.83" r="0"/>
 </g>
 <g fill="#5e4aa6">
  <g stroke-width=".26458">
   <circle cx="-330.35" cy="-328.38" r="0"/>
   <circle cx="-330.35" cy="-328.37" r="0"/>
   <circle cx="-330.35" cy="-328.37" r="0"/>
   <circle cx="-352.63" cy="-336.83" r="0"/>
  </g>
  <g transform="translate(32.665,-10.979)" stroke-width=".26458">
   <circle cx="-330.35" cy="-328.38" r="0"/>
   <circle cx="-312.11" cy="-326.25" r="0"/>
   <circle cx="-306.02" cy="-333.07" r="0"/>
   <circle cx="-308.84" cy="-326.01" r="0"/>
  </g>
  <g transform="matrix(.26458 0 0 .26458 4.6401e-6 4.6401e-6)">
   <circle cx="-1331.1" cy="-1237.8" r="0"/>
   <circle cx="-1262.2" cy="-1229.7" r="0"/>
   <circle cx="-1239.2" cy="-1255.5" r="0"/>
   <circle cx="-1249.8" cy="-1228.8" r="0"/>
  </g>
  <g transform="translate(-21.833 .89722)" stroke-width=".26458">
   <circle cx="-330.35" cy="-328.38" r="0"/>
   <circle cx="-312.11" cy="-326.25" r="0"/>
   <circle cx="-306.02" cy="-333.07" r="0"/>
   <circle cx="-308.84" cy="-326.01" r="0"/>
  </g>
 </g>
 <rect x="1.1905" y="1.1905" width="14.552" height="14.552" ry="3.4395" filter="url(#filter861)" opacity=".3" stroke-opacity=".95294" stroke-width=".083153"/>
 <rect x="1.1905" y="1.1905" width="14.552" height="14.552" ry="3.4395" fill="url(#linearGradient1448)" stroke-opacity=".95294" stroke-width=".083152"/>
 <path d="m12.259 11.395-1.6361-1.6361c0.39432-0.56919 0.59156-1.2037 0.59156-1.9032 0-0.45473-0.08829-0.88962-0.26481-1.3046-0.17646-0.41504-0.41498-0.77276-0.7155-1.0733-0.30052-0.30052-0.65819-0.53904-1.0732-0.7155-0.4151-0.17652-0.84999-0.26475-1.3047-0.26475-0.45474 0-0.88962 0.08823-1.3046 0.26475-0.41504 0.17646-0.77276 0.41498-1.0733 0.7155-0.30052 0.30052-0.53904 0.6583-0.7155 1.0733-0.17652 0.41504-0.26475 0.84987-0.26475 1.3046s0.08823 0.88951 0.26475 1.3046c0.17646 0.41498 0.41498 0.77265 0.7155 1.0732 0.30052 0.30058 0.6583 0.53904 1.0733 0.71556 0.41504 0.17652 0.84987 0.26475 1.3046 0.26475 0.6997 0 1.3341-0.19724 1.9033-0.59156l1.6361 1.6313c0.11446 0.12084 0.25743 0.18126 0.42927 0.18126 0.16534 0 0.30854-0.06043 0.42927-0.18126 0.12084-0.12078 0.18126-0.26393 0.18126-0.42927 6e-5 -0.16844-0.05872-0.31159-0.17646-0.42921zm-2.893-2.0297c-0.4182 0.4182-0.92141 0.62727-1.5098 0.62727-0.58828 0-1.0915-0.20913-1.5097-0.62727-0.4182-0.4182-0.62727-0.92136-0.62727-1.5097 0-0.58828 0.20913-1.0916 0.62727-1.5097 0.41814-0.4182 0.92141-0.62727 1.5097-0.62727 0.58828 0 1.0915 0.20913 1.5098 0.62727 0.4182 0.41814 0.62733 0.92141 0.62733 1.5097 0 0.58834-0.20919 1.0915-0.62733 1.5097z" fill="#fff" fill-opacity=".84722" stroke-width=".058547"/>
</svg>
