<?xml version="1.0" encoding="UTF-8"?>
<svg id="Calculator" width="64" height="64" enable-background="new 0 0 1024 1024" image-rendering="optimizeSpeed" version="1.1" viewBox="0 0 64 64" xmlns="http://www.w3.org/2000/svg" xmlns:cc="http://creativecommons.org/ns#" xmlns:dc="http://purl.org/dc/elements/1.1/" xmlns:rdf="http://www.w3.org/1999/02/22-rdf-syntax-ns#" xmlns:xlink="http://www.w3.org/1999/xlink">
 <metadata>
  <rdf:RDF>
   <cc:Work rdf:about="">
    <dc:format>image/svg+xml</dc:format>
    <dc:type rdf:resource="http://purl.org/dc/dcmitype/StillImage"/>
    <dc:title/>
   </cc:Work>
  </rdf:RDF>
 </metadata>
 <defs>
  <filter id="filter827" x="-.058125" y="-.062" width="1.1162" height="1.124" color-interpolation-filters="sRGB">
   <feGaussianBlur stdDeviation="0.89780662"/>
  </filter>
  <linearGradient id="linearGradient1448" x1="3.9687" x2="3.9687" y1="16.404" y2="2.6458" gradientTransform="matrix(3.4646 0 0 3.4646 2.6663 2.6663)" gradientUnits="userSpaceOnUse">
   <stop stop-color="#f55019" offset="0"/>
   <stop stop-color="#ffbe64" offset="1"/>
  </linearGradient>
  <filter id="filter861" x="-.027" y="-.027" width="1.054" height="1.054" color-interpolation-filters="sRGB">
   <feGaussianBlur stdDeviation="0.16371"/>
  </filter>
 </defs>
 <rect transform="matrix(3.7796 0 0 3.7796 -1.011e-6 -1.011e-6)" x="1.1905" y="1.1905" width="14.552" height="14.552" ry="3.4395" filter="url(#filter861)" opacity=".3" stroke-opacity=".95294" stroke-width=".083153"/>
 <rect x="4.4996" y="4.4996" width="55.001" height="55.001" ry="13" fill="url(#linearGradient1448)" stroke-opacity=".95294" stroke-width=".31428"/>
 <g transform="translate(0 -.11863)" stroke-width="6.0561">
  <path d="m32 36.636c4.6149 0 8.478-1.5682 8.7121-3.6152-0.6862-1.925-1.4346-4.0241-2.1698-6.0874-0.5105 1.4716-3.3298 2.5092-6.5419 2.5092-3.2113 0-6.0306-1.038-6.5419-2.5089-0.73524 2.0628-1.4828 4.1616-2.169 6.087 0.23324 2.047 4.0956 3.6152 8.7105 3.6152zm0-12.946c2.169 0 4.1844-0.67152 4.774-1.7141-0.81286-2.2833-1.5114-4.2423-1.9528-5.4784-0.29309-0.82367-1.6222-1.2515-2.8213-1.2515-1.199 0-2.5282 0.42786-2.8216 1.2515-0.4406 1.2361-1.1388 3.195-1.9528 5.4784 0.59005 1.0426 2.6062 1.7141 4.7744 1.7141zm16.954 14.853-7.2508-2.9205 0.83487 2.3297c-0.0421 2.4691-4.8351 4.4365-10.538 4.4365-5.702 0-10.496-1.9675-10.537-4.4365l0.8341-2.3297-7.2501 2.9205c-2.0327 0.81904-2.1177 2.3359-0.18922 3.3696l13.636 7.3119c1.9285 1.0337 5.0849 1.0337 7.0134 0l13.636-7.3119c1.9288-1.0337 1.8435-2.5506-0.18922-3.3696z" filter="url(#filter827)" opacity=".3"/>
  <path d="m31.999 35.636c4.6149 0 8.478-1.5682 8.7121-3.6152-0.6862-1.925-1.4346-4.0241-2.1698-6.0874-0.5105 1.4716-3.3298 2.5092-6.5419 2.5092-3.2113 0-6.0306-1.038-6.5419-2.5089-0.73524 2.0628-1.4828 4.1616-2.169 6.087 0.23324 2.047 4.0956 3.6152 8.7105 3.6152zm0-12.946c2.169 0 4.1844-0.67152 4.774-1.7141-0.81286-2.2833-1.5114-4.2423-1.9528-5.4784-0.29309-0.82367-1.6222-1.2515-2.8213-1.2515-1.199 0-2.5282 0.42786-2.8216 1.2515-0.4406 1.2361-1.1388 3.195-1.9528 5.4784 0.59005 1.0426 2.6062 1.7141 4.7744 1.7141zm16.954 14.853-7.2508-2.9205 0.83487 2.3297c-0.0421 2.4691-4.8351 4.4365-10.538 4.4365-5.702 0-10.496-1.9675-10.537-4.4365l0.8341-2.3297-7.2501 2.9205c-2.0327 0.81904-2.1177 2.3359-0.18922 3.3696l13.636 7.3119c1.9285 1.0337 5.0849 1.0337 7.0134 0l13.636-7.3119c1.9288-1.0337 1.8435-2.5506-0.18922-3.3696z" fill="#fff"/>
 </g>
</svg>
