<?xml version="1.0" encoding="UTF-8" standalone="no"?>
<svg
   width="64"
   height="64"
   viewBox="0 0 16.933 16.933"
   version="1.1"
   id="svg6"
   sodipodi:docname="krusader_root.svg"
   inkscape:version="1.3.2 (091e20ef0f, 2023-11-25, custom)"
   xmlns:inkscape="http://www.inkscape.org/namespaces/inkscape"
   xmlns:sodipodi="http://sodipodi.sourceforge.net/DTD/sodipodi-0.dtd"
   xmlns:xlink="http://www.w3.org/1999/xlink"
   xmlns="http://www.w3.org/2000/svg"
   xmlns:svg="http://www.w3.org/2000/svg">
  <sodipodi:namedview
     id="namedview6"
     pagecolor="#ffffff"
     bordercolor="#000000"
     borderopacity="0.25"
     inkscape:showpageshadow="2"
     inkscape:pageopacity="0.0"
     inkscape:pagecheckerboard="0"
     inkscape:deskcolor="#d1d1d1"
     inkscape:zoom="6.15625"
     inkscape:cx="7.4720812"
     inkscape:cy="21.279188"
     inkscape:window-width="1920"
     inkscape:window-height="995"
     inkscape:window-x="0"
     inkscape:window-y="0"
     inkscape:window-maximized="1"
     inkscape:current-layer="svg6" />
  <defs
     id="defs2">
    <linearGradient
       id="linearGradient32"
       inkscape:collect="always">
      <stop
         style="stop-color:#ff5555;stop-opacity:1"
         offset="0"
         id="stop33" />
      <stop
         style="stop-color:#9d3434;stop-opacity:1"
         offset="1"
         id="stop34" />
    </linearGradient>
    <linearGradient
       id="linearGradient30"
       inkscape:collect="always">
      <stop
         style="stop-color:#d14444;stop-opacity:0;"
         offset="0"
         id="stop31" />
      <stop
         style="stop-color:#bf4040;stop-opacity:1"
         offset="1"
         id="stop32" />
    </linearGradient>
    <linearGradient
       id="linearGradient23"
       inkscape:collect="always">
      <stop
         style="stop-color:#ec4747;stop-opacity:1"
         offset="0"
         id="stop23" />
      <stop
         style="stop-color:#fd6161;stop-opacity:1"
         offset="0.09577917"
         id="stop25" />
      <stop
         style="stop-color:#fd6161;stop-opacity:1"
         offset="0.89863038"
         id="stop26" />
      <stop
         style="stop-color:#ec4747;stop-opacity:1"
         offset="1"
         id="stop24" />
    </linearGradient>
    <linearGradient
       id="a"
       x1="-197.72"
       x2="-197.72"
       y1="263.86"
       y2="273.76"
       gradientTransform="matrix(0.18709,-0.18709,0.18709,0.18709,24.694908,-74.45)"
       gradientUnits="userSpaceOnUse">
      <stop
         offset="0"
         id="stop1" />
      <stop
         offset="1"
         stop-opacity="0"
         id="stop2" />
    </linearGradient>
    <filter
       color-interpolation-filters="sRGB"
       height="1.0264005"
       width="1.0219998"
       y="-0.013200229"
       x="-0.010999908"
       id="filter1733">
      <feGaussianBlur
         id="feGaussianBlur869"
         stdDeviation="0.072761339" />
    </filter>
    <linearGradient
       gradientUnits="userSpaceOnUse"
       gradientTransform="matrix(0.25694718,0,0,0.25694718,-0.526583,-37.784045)"
       y2="166"
       y1="155"
       x2="25"
       x1="25"
       id="linearGradient1387">
      <stop
         id="stop850"
         offset="0"
         stop-color="#3296d7" />
      <stop
         id="stop852"
         offset="1"
         stop-color="#0a7db4" />
    </linearGradient>
    <filter
       color-interpolation-filters="sRGB"
       height="1.2969998"
       width="1.0296998"
       y="-0.14849988"
       x="-0.014849913"
       id="filter935">
      <feGaussianBlur
         id="feGaussianBlur872"
         stdDeviation="0.098224626" />
    </filter>
    <linearGradient
       gradientUnits="userSpaceOnUse"
       gradientTransform="matrix(0.25694718,0,0,0.25694718,-0.526593,-37.784045)"
       y2="185"
       y1="185"
       x2="65"
       x1="5"
       id="linearGradient1401">
      <stop
         id="stop855"
         offset="0"
         stop-color="#3492cb" />
      <stop
         id="stop857"
         offset=".083713"
         stop-color="#6ec8fa" />
      <stop
         id="stop859"
         offset=".91237"
         stop-color="#6ec8fa" />
      <stop
         id="stop861"
         offset="1"
         stop-color="#3492cb" />
    </linearGradient>
    <linearGradient
       gradientUnits="userSpaceOnUse"
       gradientTransform="matrix(0.17643875,0,0,0.39774469,9.1793249,-438.5995)"
       y2="1140.2"
       y1="1138.4"
       x2="-9.6169996"
       x1="-9.6169996"
       id="linearGradient1438">
      <stop
         id="stop864"
         offset="0"
         stop-opacity="0"
         stop-color="#1482be" />
      <stop
         id="stop866"
         offset="1"
         stop-color="#1482be" />
    </linearGradient>
    <linearGradient
       id="linearGradient1011"
       x1="3.9686999"
       x2="3.9686999"
       y1="-12.171"
       y2="-6.8790002"
       gradientTransform="matrix(1,0,0,0.99894,1.0583,14.153)"
       gradientUnits="userSpaceOnUse">
      <stop
         stop-color="#ff6464"
         offset="0"
         id="stop1-3" />
      <stop
         stop-color="#eb4646"
         offset="1"
         id="stop2-6" />
    </linearGradient>
    <linearGradient
       id="linearGradient921"
       x1="7.9373002"
       x2="7.9373002"
       y1="1.0583"
       y2="-8.2018995"
       gradientTransform="translate(1.0583,14.42)"
       gradientUnits="userSpaceOnUse">
      <stop
         stop-color="#eb4646"
         offset="0"
         id="stop3" />
      <stop
         stop-color="#ff6464"
         offset="1"
         id="stop4" />
    </linearGradient>
    <linearGradient
       inkscape:collect="always"
       xlink:href="#linearGradient23"
       id="linearGradient24"
       x1="0.758201"
       y1="9.751377"
       x2="16.175032"
       y2="9.751377"
       gradientUnits="userSpaceOnUse" />
    <linearGradient
       inkscape:collect="always"
       xlink:href="#linearGradient30"
       id="linearGradient28"
       x1="8.4664783"
       y1="13.60539"
       x2="8.4664783"
       y2="14.890029"
       gradientUnits="userSpaceOnUse" />
    <linearGradient
       inkscape:collect="always"
       xlink:href="#linearGradient32"
       id="linearGradient34"
       x1="5.1840091"
       y1="2.087441"
       x2="5.1840091"
       y2="4.8692837"
       gradientUnits="userSpaceOnUse" />
  </defs>
  <g
     id="g891"
     transform="matrix(0.97115118,0,0,0.97115118,-0.526583,-37.784044)"
     style="opacity:0.5;filter:url(#filter1733)">
    <g
       id="g885"
       style="stroke-opacity:0.95294">
      <path
         id="path879"
         d="m 10,155 c -2.77,0 -5,2.23 -5,5 v 40 c 0,2.77 2.23,5 5,5 h 50 c 2.77,0 5,-2.23 5,-5 v -36 c 0,-0.831 -0.3347,-1.5808 -0.87695,-2.123 -0.54225,-0.5422 -1.292,-0.87695 -2.123,-0.87695 h -31 c -0.75,0 -1.5,-0.25001 -2.2188,-0.64062 -0.71875,-0.39063 -1.4062,-0.92188 -2.0312,-1.4844 -1.25,-1.125 -2.25,-2.375 -2.75,-2.875 -0.43528,-0.43528 -1.1061,-0.68419 -1.7754,-0.82617 -0.64042,-0.13585 -1.26,-0.16683 -1.6875,-0.17383 h -0.53711 z"
         transform="scale(0.26458)"
         inkscape:connector-curvature="0"
         style="opacity:1;stroke-width:0.20101" />
      <path
         id="path881"
         d="M 7.4004,165 C 6.0708,165 5,166.0708 5,167.4004 v 32.6 c 0,2.77 2.23,5 5,5 h 50 c 2.77,0 5,-2.23 5,-5 v -32.6 C 65,166.0708 63.9292,165 62.5996,165 Z"
         transform="scale(0.26458)"
         inkscape:connector-curvature="0"
         style="opacity:1;stroke-width:0.17979" />
      <path
         id="path883"
         d="M 7.4004,165 C 6.0708,165 5,166.0708 5,167.4004 v 1 C 5,167.0708 6.0708,166 7.4004,166 h 55.199 c 1.3296,0 2.4004,1.0708 2.4004,2.4004 v -1 C 64.9998,166.0708 63.929,165 62.5994,165 Z"
         transform="scale(0.26458)"
         inkscape:connector-curvature="0"
         style="opacity:1;stroke-width:0.17979" />
    </g>
    <path
       id="path887"
       style="color:#000000;text-indent:0;text-transform:none;opacity:0.5;stroke-width:0.27278"
       d="m 1.3229,52.916 c 0.037387,0.72117 0.52916,1.3229 1.3188,1.3229 h 13.233 c 0.79328,0 1.3224,-0.64408 1.3224,-1.3229 z"
       inkscape:connector-curvature="0" />
    <path
       id="path889"
       style="color:#000000;text-indent:0;text-transform:none;opacity:0.15;stroke-width:0.095585"
       d="m 1.3237,52.916 3.337e-4,0.26458 H 17.198034 L 17.1977,52.916 H 1.3226997 Z m 0.26376,0.79373 h 15.346 c 0.05347,-0.07329 0.11377,-0.15529 0.15166,-0.26458 h -15.653 c 0.046511,0.1129 0.09263,0.17706 0.15532,0.26458 z"
       inkscape:connector-curvature="0" />
  </g>
  <path
     id="path893"
     d="m 2.04282,2.0428649 c -0.711737,0 -1.284735,0.572989 -1.284735,1.284736 V 13.605293 c 0,0.711737 0.572989,1.284736 1.284735,1.284736 h 12.847359 c 0.711738,0 1.284736,-0.572989 1.284736,-1.284736 V 4.3552729 c 0,-0.213517 -0.086,-0.406184 -0.225326,-0.545505 -0.139331,-0.139331 -0.331988,-0.225327 -0.545505,-0.225327 H 7.438799 c -0.192706,0 -0.385421,-0.06424 -0.570095,-0.1646 C 6.68402,3.3194719 6.507377,3.1829669 6.346788,3.0384409 6.025609,2.7493779 5.768661,2.4281989 5.640188,2.2997249 5.52834,2.1878769 5.35599,2.1239269 5.184009,2.0874409 c -0.164552,-0.03491 -0.323743,-0.04287 -0.4336,-0.04467 h -0.13801 z"
     inkscape:connector-curvature="0"
     style="fill:url(#linearGradient34);fill-opacity:1" />
  <path
     id="path895"
     d="M 1.852,4.3131 C 1.66878,4.3131 1.49466,4.350202 1.33628,4.41697 1.1779,4.483736 1.0352,4.58008 0.91564,4.69963 0.79608,4.81919 0.69922,4.96189 0.63246,5.12027 0.56569,5.27865 0.52911,5.45277 0.52911,5.63599 v 0.26458 c 0,-0.18322 0.03658,-0.35734 0.10335,-0.51572 C 0.69922,5.22647 0.79608,5.08377 0.91564,4.96421 1.0352,4.84465 1.1779,4.74831 1.33628,4.68155 1.49466,4.614785 1.66878,4.57768 1.852,4.57768 h 13.229 c 0.18322,0 0.35734,0.037103 0.51572,0.10387 0.15838,0.066765 0.30108,0.16311 0.42064,0.28266 0.11956,0.11956 0.21642,0.26226 0.28318,0.42064 0.06676,0.15838 0.10335,0.3325 0.10335,0.51572 V 5.63599 c 0,-0.18322 -0.03659,-0.35734 -0.10335,-0.51572 C 16.23377,4.96189 16.13692,4.81919 16.01736,4.69963 15.8978,4.58007 15.7551,4.48373 15.59672,4.41697 15.43834,4.350205 15.26422,4.3131 15.081,4.3131 Z"
     inkscape:connector-curvature="0"
     style="opacity:0.1;stroke-width:0.047568;filter:url(#filter935)"
     transform="matrix(0.97115118,0,0,0.97115118,0.244249,0.2442929)" />
  <path
     id="path897"
     d="m 2.042918,4.6124339 c -0.177935,0 -0.347031,0.03603 -0.500842,0.100874 -0.153811,0.06484 -0.292404,0.158404 -0.408496,0.274525 -0.116111,0.11611 -0.210176,0.254694 -0.27501,0.408495 -0.06483,0.153791 -0.100369,0.322908 -0.100369,0.500842 v 7.7084141 c 0,0.711747 0.572989,1.284736 1.284736,1.284736 h 12.847359 c 0.711747,0 1.284736,-0.572989 1.284736,-1.284736 V 5.8971699 c 0,-0.177934 -0.03553,-0.347031 -0.100369,-0.500842 -0.06484,-0.153811 -0.158899,-0.292404 -0.27501,-0.408495 -0.116111,-0.116111 -0.254694,-0.209672 -0.408495,-0.274525 -0.153811,-0.06484 -0.322908,-0.100874 -0.500843,-0.100874 H 2.042956 Z"
     inkscape:connector-curvature="0"
     style="stroke:none;stroke-opacity:1;fill:url(#linearGradient24)" />
  <path
     id="path899"
     d="m 0.758143,13.60539 c 0.03631,0.700365 0.513894,1.284736 1.280754,1.284736 h 12.851244 c 0.770394,0 1.28425,-0.625499 1.28425,-1.284736 z"
     inkscape:connector-curvature="0"
     style="fill:url(#linearGradient28);fill-opacity:1" />
  <path
     id="path901"
     d="m 0.75893,13.60539 3.38e-4,0.256947 H 16.175322 L 16.174999,13.60539 H 0.757958 Z m 0.25615,0.770832 h 14.903286 c 0.05193,-0.07118 0.110488,-0.15081 0.147285,-0.256947 H 0.864222 c 0.04517,0.109643 0.08996,0.171952 0.150839,0.256947 z"
     inkscape:connector-curvature="0"
     style="fill:#e23c3c;fill-opacity:1;opacity:1" />
  <path
     id="path903"
     d="m 2.04282,4.6123369 c -0.177934,0 -0.347031,0.03603 -0.500842,0.100873 -0.15381,0.06484 -0.292394,0.158405 -0.408505,0.274506 -0.11611,0.116111 -0.210176,0.254694 -0.27501,0.408505 -0.06484,0.153811 -0.100369,0.322908 -0.100369,0.500842 v 0.256947 c 0,-0.177934 0.03553,-0.347041 0.100369,-0.500842 0.06484,-0.153811 0.1589,-0.292394 0.27501,-0.408505 0.116111,-0.116111 0.254695,-0.209671 0.408505,-0.274506 0.153811,-0.06484 0.322908,-0.100873 0.500842,-0.100873 h 12.847359 c 0.177935,0 0.347032,0.03603 0.500843,0.100873 0.15381,0.06484 0.292394,0.158405 0.408505,0.274506 0.11611,0.116111 0.210176,0.254694 0.27501,0.408505 0.06483,0.153811 0.100369,0.322908 0.100369,0.500842 v -0.256947 c 0,-0.177934 -0.03554,-0.347031 -0.100369,-0.500842 -0.06484,-0.153811 -0.158909,-0.292394 -0.27501,-0.408505 -0.116111,-0.116111 -0.254695,-0.209671 -0.408505,-0.274506 -0.153811,-0.06484 -0.322908,-0.100873 -0.500843,-0.100873 z"
     style="fill:#ff8d8d;fill-opacity:1" />
  <g
     id="g1"
     transform="matrix(0.80305814,0,0,0.80305814,1.6274688,1.581388)">
    <path
       d="m 8.7004916,8.4664483 v 6.1150997 l 1.3684004,-1.6687 0.90258,2.1779 0.80704,-0.33441 -0.92219,-2.2257 1.9126,0.0043 z"
       fill="none"
       image-rendering="optimizeSpeed"
       stroke="#fafafa"
       stroke-linecap="round"
       stroke-linejoin="round"
       stroke-width="0.87358"
       id="path9" />
    <path
       d="m 8.7004916,8.4664483 v 6.1150997 l 1.3684004,-1.6687 0.90258,2.1779 0.80704,-0.33441 -0.92219,-2.2257 1.9126,0.0043 z"
       image-rendering="optimizeSpeed"
       stroke-width="0.43678"
       id="path10"
       style="fill:#d34646;fill-opacity:1" />
  </g>
</svg>
