<?xml version="1.0" encoding="UTF-8"?>
<svg width="200" height="200" version="1.1" xmlns="http://www.w3.org/2000/svg" xmlns:cc="http://creativecommons.org/ns#" xmlns:dc="http://purl.org/dc/elements/1.1/" xmlns:rdf="http://www.w3.org/1999/02/22-rdf-syntax-ns#">
 <metadata>
  <rdf:RDF>
   <cc:Work rdf:about="">
    <dc:format>image/svg+xml</dc:format>
    <dc:type rdf:resource="http://purl.org/dc/dcmitype/StillImage"/>
    <dc:title/>
   </cc:Work>
  </rdf:RDF>
 </metadata>
 <defs>
  <linearGradient id="linearGradient1011" x1="3.9687" x2="3.9687" y1="-12.171" y2="-6.879" gradientTransform="matrix(1 0 0 .99894 1.0583 14.153)" gradientUnits="userSpaceOnUse">
   <stop stop-color="#14aa78" offset="0"/>
   <stop stop-color="#148c64" offset="1"/>
  </linearGradient>
  <linearGradient id="linearGradient921" x1="7.9373" x2="7.9373" y1="1.0583" y2="-8.2019" gradientTransform="translate(1.0583,14.42)" gradientUnits="userSpaceOnUse">
   <stop stop-color="#148c64" offset="0"/>
   <stop stop-color="#14aa78" offset="1"/>
  </linearGradient>
  <style type="text/css"/>
  <style type="text/css"/>
 </defs>
 <g transform="matrix(12.283 0 0 12.283 -3.998 -3.998)">
  <g fill="#5e4aa6" stroke-width=".26458">
   <circle cx="-330.35" cy="-328.38" r="0"/>
   <circle cx="-312.11" cy="-326.25" r="0"/>
   <circle cx="-306.02" cy="-333.07" r="0"/>
   <circle cx="-308.84" cy="-326.01" r="0"/>
  </g>
  <g transform="translate(-.5293 -.39686)">
   <path d="m1.5875 2.2489c-0.29315 0-0.52916 0.23575-0.52916 0.5286v9.2614c0 0.29284 0.236 0.5286 0.52916 0.5286h14.816c0.29315 0 0.52916-0.23576 0.52916-0.5286v-6.6075c0-0.21963-0.08855-0.4178-0.23202-0.56112s-0.34185-0.23178-0.56171-0.23178h-6.8651c-0.83239 0-1.7561-1.3313-2.1306-1.8604 0 0-0.26458-0.52916-0.80355-0.52916z" fill="url(#linearGradient1011)"/>
   <rect x="1.852" y="5.4239" width="14.287" height="9.6192" ry=".52916" fill="#fff"/>
   <path d="m1.0583 6.2176v8.4665c0 0.43973 0.35401 0.79373 0.79373 0.79373h14.287c0.43973 0 0.79373-0.354 0.79373-0.79373v-8.4665z" fill="url(#linearGradient921)"/>
   <rect x="1.0583" y="6.2176" width="15.875" height=".26458" fill="#fff" opacity=".3"/>
  </g>
 </g>
 <g transform="matrix(12.283 0 0 12.283 227.22 -3.994)" fill="#5e4aa6" stroke-width=".26458">
  <circle cx="-330.35" cy="-328.38" r="0"/>
  <circle cx="-312.11" cy="-326.25" r="0"/>
  <circle cx="-306.02" cy="-333.07" r="0"/>
  <circle cx="-308.84" cy="-326.01" r="0"/>
  <circle cx="-328.8" cy="-330.45" r="0"/>
 </g>
 <g transform="matrix(12.283 0 0 12.283 -40.062 -131.15)" fill="#5e4aa6" stroke-width=".26458">
  <circle cx="-330.35" cy="-328.38" r="0"/>
  <circle cx="-312.11" cy="-326.25" r="0"/>
  <circle cx="-306.02" cy="-333.07" r="0"/>
  <circle cx="-308.84" cy="-326.01" r="0"/>
  <circle cx="-328.8" cy="-330.45" r="0"/>
 </g>
 <g transform="matrix(.067926 0 0 .067926 64.937 93.5)" fill="#fff">
  <path d="m58.187 261.51 431.56 244.55c7.4792 4.2382 16.634 4.2382 24.114 0l431.56-244.55c17.028-9.6493 16.386-34.397-1.12-43.15l-431.56-215.78c-6.8848-3.4424-14.989-3.4424-21.873 0l-431.56 215.78c-17.506 8.753-18.148 33.501-1.12 43.15zm24.114-42.553-1.12 43.15 431.56-215.78h-21.873l431.56 215.78-1.12-43.15-431.56 244.55h24.114z" p-id="1200"/>
  <path d="m477.35 504.93v469.86c0 18.72 20.174 30.499 36.476 21.297l460.33-259.84c7.6827-4.3365 12.434-12.475 12.434-21.297v-316.48c0-13.506-10.949-24.455-24.455-24.455-13.506 0-24.455 10.949-24.455 24.455v316.48l12.434-21.297-460.33 259.84 36.476 21.297v-469.86c0-13.506-10.949-24.455-24.455-24.455s-24.455 10.949-24.455 24.455z" p-id="1201"/>
  <path d="m514.42 953.84-431.56-259.84 11.841 20.951v-460.33c0-13.506-10.949-24.455-24.455-24.455-13.506 0-24.455 10.949-24.455 24.455v460.33c0 8.5769 4.4932 16.527 11.841 20.951l431.56 259.84c11.571 6.9667 26.599 3.2341 33.565-8.3368s3.2341-26.599-8.3368-33.565z" p-id="1202"/>
  <path d="m172.75 448.22 143.85 86.313c11.582 6.9489 26.603 3.1934 33.552-8.3881 6.9489-11.582 3.1934-26.603-8.3881-33.552l-143.85-86.313c-11.582-6.9489-26.603-3.1934-33.552 8.3881s-3.1934 26.603 8.3881 33.552z" p-id="1203"/>
 </g>
</svg>
