<?xml version="1.0" encoding="UTF-8"?>
<svg width="200" height="200" version="1.1" xmlns="http://www.w3.org/2000/svg" xmlns:cc="http://creativecommons.org/ns#" xmlns:dc="http://purl.org/dc/elements/1.1/" xmlns:rdf="http://www.w3.org/1999/02/22-rdf-syntax-ns#">
 <metadata>
  <rdf:RDF>
   <cc:Work rdf:about="">
    <dc:format>image/svg+xml</dc:format>
    <dc:type rdf:resource="http://purl.org/dc/dcmitype/StillImage"/>
    <dc:title/>
   </cc:Work>
  </rdf:RDF>
 </metadata>
 <defs>
  <linearGradient id="linearGradient1011" x1="3.9687" x2="3.9687" y1="-12.171" y2="-6.879" gradientTransform="matrix(1 0 0 .99894 1.0583 14.153)" gradientUnits="userSpaceOnUse">
   <stop stop-color="#ff6464" offset="0"/>
   <stop stop-color="#eb4646" offset="1"/>
  </linearGradient>
  <linearGradient id="linearGradient921" x1="7.9373" x2="7.9373" y1="1.0583" y2="-8.2019" gradientTransform="translate(1.0583,14.42)" gradientUnits="userSpaceOnUse">
   <stop stop-color="#eb4646" offset="0"/>
   <stop stop-color="#ff6464" offset="1"/>
  </linearGradient>
 </defs>
 <g transform="matrix(12.283 0 0 12.283 -3.998 -3.998)">
  <g fill="#5e4aa6" stroke-width=".26458">
   <circle cx="-330.35" cy="-328.38" r="0"/>
   <circle cx="-312.11" cy="-326.25" r="0"/>
   <circle cx="-306.02" cy="-333.07" r="0"/>
   <circle cx="-308.84" cy="-326.01" r="0"/>
   <circle cx="-328.8" cy="-330.45" r="0"/>
  </g>
  <g transform="translate(-.5293 -.39686)">
   <path d="m1.5875 2.2489c-0.29315 0-0.52916 0.23575-0.52916 0.5286v9.2614c0 0.29284 0.236 0.5286 0.52916 0.5286h14.816c0.29315 0 0.52916-0.23576 0.52916-0.5286v-6.6075c0-0.21963-0.08855-0.4178-0.23202-0.56112s-0.34185-0.23178-0.56171-0.23178h-6.8651c-0.83239 0-1.7561-1.3313-2.1306-1.8604 0 0-0.26458-0.52916-0.80355-0.52916z" fill="url(#linearGradient1011)"/>
   <rect x="1.852" y="5.4239" width="14.287" height="9.6192" ry=".52916" fill="#fff"/>
   <path d="m1.0583 6.2176v8.4665c0 0.43973 0.35401 0.79373 0.79373 0.79373h14.287c0.43973 0 0.79373-0.354 0.79373-0.79373v-8.4665z" fill="url(#linearGradient921)"/>
   <rect x="1.0583" y="6.2176" width="15.875" height=".26458" fill="#fff" opacity=".3"/>
  </g>
  <g transform="translate(-.13229)" fill="#fff">
   <g transform="translate(16.404)">
    <path d="m-10.054 7.9373v5.5561h2.1166v-5.5561zm0.26458 0.26458h1.5875v5.027h-1.5875z"/>
    <rect x="-8.7311" y="8.7311" width=".52916" height=".26458"/>
    <rect x="-8.7311" y="9.5248" width=".52916" height=".26458"/>
    <rect x="-8.7311" y="10.319" width=".52916" height=".26458"/>
    <rect x="-8.7311" y="11.112" width=".52916" height=".26458"/>
    <rect x="-8.7311" y="11.906" width=".52916" height=".26458"/>
    <rect x="-8.7311" y="12.7" width=".52916" height=".26458"/>
   </g>
   <path d="m8.9946 7.9373v3.7041l0.79373 1.852h0.26458l0.79374-1.852v-3.7041zm0.26562 0.26562h1.3227v3.4385l-0.65609 1.5875h0.00528l-0.67299-1.5875z" color="#000000" color-rendering="auto" dominant-baseline="auto" image-rendering="auto" shape-rendering="auto" solid-color="#000000" style="font-feature-settings:normal;font-variant-alternates:normal;font-variant-caps:normal;font-variant-ligatures:normal;font-variant-numeric:normal;font-variant-position:normal;isolation:auto;mix-blend-mode:normal;shape-padding:0;text-decoration-color:#000000;text-decoration-line:none;text-decoration-style:solid;text-indent:0;text-orientation:mixed;text-transform:none;white-space:normal"/>
   <rect x="8.9957" y="8.9957" width="1.852" height="2.1166"/>
  </g>
 </g>
</svg>
