<?xml version="1.0" encoding="UTF-8"?>
<svg width="64" height="64" version="1.1" viewBox="0 0 16.933 16.933" xmlns="http://www.w3.org/2000/svg" xmlns:cc="http://creativecommons.org/ns#" xmlns:dc="http://purl.org/dc/elements/1.1/" xmlns:rdf="http://www.w3.org/1999/02/22-rdf-syntax-ns#">
 <defs>
  <linearGradient id="linearGradient894" x1=".52932" x2="16.404" y1="7.9903" y2="7.9903" gradientTransform="matrix(1 0 0 1.1111 -.00016649 -.94068)" gradientUnits="userSpaceOnUse">
   <stop stop-color="#3492cb" offset="0"/>
   <stop stop-color="#6ec8fa" offset=".066667"/>
   <stop stop-color="#6ec8fa" offset=".93389"/>
   <stop stop-color="#3492cb" offset="1"/>
  </linearGradient>
  <style id="current-color-scheme" type="text/css">.ColorScheme-Text {
        color:#4d4d4d;
      }</style>
  <style type="text/css">.ColorScheme-Text {
        color:#4d4d4d;
      }</style>
  <linearGradient id="linearGradient1438" x1="-9.617" x2="-9.617" y1="1138.4" y2="1140.2" gradientTransform="matrix(.18168 0 0 .40956 9.201 -451.88)" gradientUnits="userSpaceOnUse">
   <stop stop-color="#1482be" stop-opacity="0" offset="0"/>
   <stop stop-color="#1482be" offset="1"/>
  </linearGradient>
 </defs>
 <metadata>
  <rdf:RDF>
   <cc:Work rdf:about="">
    <dc:format>image/svg+xml</dc:format>
    <dc:type rdf:resource="http://purl.org/dc/dcmitype/StillImage"/>
    <dc:title/>
   </cc:Work>
  </rdf:RDF>
 </metadata>
 <g fill="#5e4aa6" stroke-width=".27889">
  <circle cx="-302.94" cy="-362.51" r="0"/>
  <circle cx="-302.94" cy="-362.51" r="0"/>
  <circle cx="-330.35" cy="-365.81" r="0"/>
  <circle cx="-312.93" cy="-380.11" r="0"/>
 </g>
 <rect x=".52899" y="1.8521" width="15.875" height="13.229" ry="1.1911" fill="url(#linearGradient894)" fill-rule="evenodd" stroke-width="1.0541" style="paint-order:stroke fill markers"/>
 <rect x="3.1749" y="11.906" width="10.583" height="2.6458" ry=".52916" fill="#328cc3" opacity=".7" stroke-opacity=".95294" stroke-width=".052588"/>
 <g transform="matrix(1 0 0 1.1111 9.9734e-5 -312.86)" fill="#fff">
  <rect x="4.4979" y="292.77" width="1.3229" height="1.3229" ry=".13229" style="paint-order:stroke markers fill"/>
  <rect x="6.7028" y="292.77" width="1.3229" height="1.3229" ry=".13229" style="paint-order:stroke markers fill"/>
  <rect x="8.9076" y="292.77" width="1.3229" height="1.3229" ry=".13229" style="paint-order:stroke markers fill"/>
  <rect x="11.112" y="292.77" width="1.3229" height="1.3229" ry=".13229" style="paint-order:stroke markers fill"/>
 </g>
 <path d="m0.52964 13.758c-4.876e-4 0.8921 0.52916 1.3229 1.3188 1.3229h13.233c0.79328 0 1.3224-0.44347 1.3224-1.3229z" color="#000000" fill="url(#linearGradient1438)" stroke-width=".27278" style="text-indent:0;text-transform:none"/>
 <path transform="scale(.26458)" d="m6.502 7c-2.4941 0-4.502 2.0079-4.502 4.502v1c0-2.4941 2.0079-4.502 4.502-4.502h50.996c2.4941 0 4.502 2.0079 4.502 4.502v-1c0-2.4941-2.0079-4.502-4.502-4.502h-50.996z" fill="#328cc3" fill-rule="evenodd" opacity=".7" stroke-width="3.984" style="paint-order:stroke fill markers"/>
</svg>
