<?xml version="1.0" encoding="UTF-8"?>
<svg width="64" height="64" version="1.1" viewBox="0 0 16.933 16.933" xmlns="http://www.w3.org/2000/svg" xmlns:cc="http://creativecommons.org/ns#" xmlns:dc="http://purl.org/dc/elements/1.1/" xmlns:rdf="http://www.w3.org/1999/02/22-rdf-syntax-ns#">
 <defs>
  <style id="current-color-scheme" type="text/css">.ColorScheme-Text {
        color:#4d4d4d;
      }</style>
  <style type="text/css">.ColorScheme-Text {
        color:#4d4d4d;
      }</style>
  <linearGradient id="linearGradient1387" x1="25" x2="25" y1="155" y2="166" gradientTransform="matrix(.26458 0 0 .26458 -.79373 -39.158)" gradientUnits="userSpaceOnUse">
   <stop stop-color="#3296d7" offset="0"/>
   <stop stop-color="#0a7db4" offset="1"/>
  </linearGradient>
  <linearGradient id="linearGradient1401" x1="5" x2="65" y1="185" y2="185" gradientTransform="matrix(.26458 0 0 .26458 -.79374 -39.158)" gradientUnits="userSpaceOnUse">
   <stop stop-color="#3492cb" offset="0"/>
   <stop stop-color="#6ec8fa" offset=".083713"/>
   <stop stop-color="#6ec8fa" offset=".91237"/>
   <stop stop-color="#3492cb" offset="1"/>
  </linearGradient>
  <linearGradient id="linearGradient1438" x1="-9.617" x2="-9.617" y1="1138.4" y2="1140.2" gradientTransform="matrix(.18168 0 0 .40956 9.2005 -451.88)" gradientUnits="userSpaceOnUse">
   <stop stop-color="#1482be" stop-opacity="0" offset="0"/>
   <stop stop-color="#1482be" offset="1"/>
  </linearGradient>
  <filter id="filter1733" x="-.011" y="-.0132" width="1.022" height="1.0264" color-interpolation-filters="sRGB">
   <feGaussianBlur stdDeviation="0.072761339"/>
  </filter>
  <filter id="filter935" x="-.01485" y="-.1485" width="1.0297" height="1.297" color-interpolation-filters="sRGB">
   <feGaussianBlur stdDeviation="0.098224626"/>
  </filter>
 </defs>
 <metadata>
  <rdf:RDF>
   <cc:Work rdf:about="">
    <dc:format>image/svg+xml</dc:format>
    <dc:type rdf:resource="http://purl.org/dc/dcmitype/StillImage"/>
    <dc:title/>
   </cc:Work>
  </rdf:RDF>
 </metadata>
 <g transform="translate(-.79373 -39.158)" filter="url(#filter1733)" opacity=".5">
  <g stroke-opacity=".95294">
   <path transform="scale(.26458)" d="m10 155c-2.77 0-5 2.23-5 5v40c0 2.77 2.23 5 5 5h50c2.77 0 5-2.23 5-5v-36c0-0.831-0.3347-1.5808-0.87695-2.123s-1.292-0.87695-2.123-0.87695h-31c-0.75 0-1.5-0.25001-2.2188-0.64062-0.71875-0.39063-1.4062-0.92188-2.0312-1.4844-1.25-1.125-2.25-2.375-2.75-2.875-0.43528-0.43528-1.1061-0.68419-1.7754-0.82617-0.64042-0.13585-1.26-0.16683-1.6875-0.17383h-0.53711z" opacity="1" stroke-width=".20101"/>
   <path transform="scale(.26458)" d="m7.4004 165c-1.3296 0-2.4004 1.0708-2.4004 2.4004v32.6c0 2.77 2.23 5 5 5h50c2.77 0 5-2.23 5-5v-32.6c0-1.3296-1.0708-2.4004-2.4004-2.4004z" opacity="1" stroke-width=".17979"/>
   <path transform="scale(.26458)" d="m7.4004 165c-1.3296 0-2.4004 1.0708-2.4004 2.4004v1c0-1.3296 1.0708-2.4004 2.4004-2.4004h55.199c1.3296 0 2.4004 1.0708 2.4004 2.4004v-1c0-1.3296-1.0708-2.4004-2.4004-2.4004z" opacity="1" stroke-width=".17979"/>
  </g>
  <path d="m1.3229 52.916c0.037387 0.72117 0.52916 1.3229 1.3188 1.3229h13.233c0.79328 0 1.3224-0.64408 1.3224-1.3229z" color="#000000" opacity=".5" stroke-width=".27278" style="text-indent:0;text-transform:none"/>
  <path d="m1.3237 52.916 3.337e-4 0.26458h15.874l-3.34e-4 -0.26458h-15.875zm0.26376 0.79373h15.346c0.05347-0.07329 0.11377-0.15529 0.15166-0.26458h-15.653c0.046511 0.1129 0.09263 0.17706 0.15532 0.26458z" color="#000000" opacity=".15" stroke-width=".095585" style="text-indent:0;text-transform:none"/>
 </g>
 <path d="m1.852 1.852c-0.73288 0-1.3229 0.59001-1.3229 1.3229v10.583c0 0.73288 0.59001 1.3229 1.3229 1.3229h13.229c0.73288 0 1.3229-0.59001 1.3229-1.3229v-9.5248c0-0.21986-0.08855-0.41825-0.23202-0.56171-0.14347-0.14347-0.34185-0.23202-0.56171-0.23202h-8.2019c-0.19843 0-0.39687-0.066147-0.58703-0.16949-0.19017-0.10335-0.37206-0.24391-0.53742-0.39273-0.33072-0.29765-0.5953-0.62837-0.72759-0.76066-0.11517-0.11517-0.29264-0.18102-0.46973-0.21859-0.16944-0.035943-0.33336-0.04414-0.44648-0.045992h-0.14211z" fill="url(#linearGradient1387)" stroke-width=".053182"/>
 <path d="m1.852 4.3131c-0.18322 0-0.35734 0.037102-0.51572 0.10387-0.15838 0.066766-0.30108 0.16311-0.42064 0.28266-0.11956 0.11956-0.21642 0.26226-0.28318 0.42064-0.06677 0.15838-0.10335 0.3325-0.10335 0.51572v0.26458c0-0.18322 0.03658-0.35734 0.10335-0.51572 0.06676-0.15838 0.16362-0.30108 0.28318-0.42064 0.11956-0.11956 0.26226-0.2159 0.42064-0.28266 0.15838-0.066765 0.3325-0.10387 0.51572-0.10387h13.229c0.18322 0 0.35734 0.037103 0.51572 0.10387 0.15838 0.066765 0.30108 0.16311 0.42064 0.28266 0.11956 0.11956 0.21642 0.26226 0.28318 0.42064s0.10335 0.3325 0.10335 0.51572v-0.26458c0-0.18322-0.03659-0.35734-0.10335-0.51572-0.06677-0.15838-0.16362-0.30108-0.28318-0.42064s-0.26226-0.2159-0.42064-0.28266c-0.15838-0.066765-0.3325-0.10387-0.51572-0.10387z" filter="url(#filter935)" opacity=".1" stroke-width=".047568"/>
 <path d="m1.8521 4.4979c-0.18322 0-0.35734 0.037102-0.51572 0.10387-0.15838 0.066767-0.30109 0.16311-0.42063 0.28268-0.11956 0.11956-0.21642 0.26226-0.28318 0.42063-0.066761 0.15836-0.10335 0.3325-0.10335 0.51572v7.9374c0 0.73289 0.59001 1.3229 1.3229 1.3229h13.229c0.73289 0 1.3229-0.59001 1.3229-1.3229v-7.9374c0-0.18322-0.03659-0.35734-0.10335-0.51572-0.06677-0.15838-0.16362-0.30109-0.28318-0.42063-0.11956-0.11956-0.26226-0.2159-0.42063-0.28268-0.15838-0.066764-0.3325-0.10387-0.51572-0.10387h-13.229z" fill="url(#linearGradient1401)" stroke-width=".047569"/>
 <path d="m0.52916 13.758c0.037387 0.72117 0.52916 1.3229 1.3188 1.3229h13.233c0.79328 0 1.3224-0.64408 1.3224-1.3229z" color="#000000" fill="url(#linearGradient1438)" stroke-width=".27278" style="text-indent:0;text-transform:none"/>
 <path d="m0.52997 13.758 3.337e-4 0.26458h15.874l-3.34e-4 -0.26458h-15.875zm0.26376 0.79373h15.346c0.05347-0.07329 0.11377-0.15529 0.15166-0.26458h-15.653c0.046511 0.1129 0.09263 0.17706 0.15532 0.26458z" color="#000000" fill="#1482be" opacity=".25" stroke-width=".095585" style="text-indent:0;text-transform:none"/>
 <path d="m1.852 4.4978c-0.18322 0-0.35734 0.037102-0.51572 0.10387-0.15838 0.066766-0.30108 0.16311-0.42064 0.28266-0.11956 0.11956-0.21642 0.26226-0.28318 0.42064-0.06677 0.15838-0.10335 0.3325-0.10335 0.51572v0.26458c0-0.18322 0.036581-0.35735 0.10335-0.51572 0.066765-0.15838 0.16362-0.30108 0.28318-0.42064 0.11956-0.11956 0.26226-0.2159 0.42064-0.28266 0.15838-0.066766 0.3325-0.10387 0.51572-0.10387h13.229c0.18322 0 0.35734 0.037103 0.51572 0.10387 0.15838 0.066765 0.30108 0.16311 0.42064 0.28266 0.11956 0.11956 0.21642 0.26226 0.28318 0.42064s0.10335 0.3325 0.10335 0.51572v-0.26458c0-0.18322-0.03659-0.35734-0.10335-0.51572-0.06677-0.15838-0.16363-0.30108-0.28318-0.42064-0.11956-0.11956-0.26226-0.2159-0.42064-0.28266-0.15838-0.066765-0.3325-0.10387-0.51572-0.10387z" fill="#80cbff" stroke-width=".047568"/>
 <g fill="#5e4aa6" stroke-width=".26458">
  <g transform="translate(-3.2526e-7 4.7281e-5)">
   <g transform="translate(-3.2526e-7,4.7281e-5)">
    <g transform="translate(-3.2526e-7,4.7281e-5)">
     <circle cx="-284.2" cy="-325.31" r="0"/>
     <circle cx="-284.2" cy="-325.31" r="0"/>
     <circle cx="-317.65" cy="-326.53" r="0"/>
    </g>
    <circle cx="-281.6" cy="-325.38" r="0"/>
    <circle cx="-281.6" cy="-325.38" r="0"/>
   </g>
   <circle cx="-283.03" cy="-325.16" r="0"/>
   <circle cx="-283.03" cy="-325.16" r="0"/>
  </g>
  <circle cx="-283.95" cy="-325.66" r="0"/>
  <circle cx="-283.95" cy="-325.66" r="0"/>
 </g>
 <path class="ColorScheme-Text" d="m8.4926 6.0859c-0.04106 0-0.082119 0.015184-0.11993 0.038116l-0.2101 0.12086a0.28169 0.28169 0 0 0-0.10118 0.38565l1.8229 3.183 0.6675-0.4498-1.7967-3.134c-0.048648-0.084755-0.13124-0.13744-0.22126-0.14363-0.013478-0.00171-0.027582 0-0.041214 0zm-0.64503 1.0849c-0.089867 0.00961-0.17633 0.055315-0.22513 0.13991l-0.18376 0.31748 0.69399 0.4044 0.18376-0.31748a0.28169 0.28169 0 0 0-0.10133-0.3855l-0.20623-0.12086a0.282 0.282 0 0 0-0.1613-0.038271zm-0.52526 0.66533-1.5714 2.7484 0.69384 0.40068 1.5716-2.7447zm-2.2953 1.2324v0.80896h0.93028l0.46127-0.80881zm2.7155 0-0.46142 0.80896h2.4419l-0.4653-0.80881zm2.8393 0 0.46514 0.80896h0.85901v-0.80881zm0.09002 0.50279-0.66765 0.4498 0.3339 0.58228 0.66765-0.4498zm0.45398 0.79393-0.66781 0.4498c0.01999 0.80416 0.62938 0.70406 0.86273 1.2059 0.44422-0.47676 0.30989-1.2098-0.19507-1.6559zm-5.4952 0.42718-0.36381 1.3118 1.0576-0.90735z" fill="#328cc3" opacity=".7" stroke-width=".15494"/>
</svg>
