<?xml version="1.0" encoding="UTF-8"?>
<svg width="64" height="64" version="1.1" viewBox="0 0 16.933 16.933" xmlns="http://www.w3.org/2000/svg" xmlns:cc="http://creativecommons.org/ns#" xmlns:dc="http://purl.org/dc/elements/1.1/" xmlns:rdf="http://www.w3.org/1999/02/22-rdf-syntax-ns#">
 <defs>
  <style id="current-color-scheme" type="text/css">.ColorScheme-Text {
        color:#4d4d4d;
      }</style>
  <style type="text/css">.ColorScheme-Text {
        color:#4d4d4d;
      }</style>
  <linearGradient id="linearGradient1387" x1="25" x2="25" y1="155" y2="174.71" gradientTransform="matrix(.26458 0 0 .26458 -.79373 -39.158)" gradientUnits="userSpaceOnUse">
   <stop stop-color="#3296d7" offset="0"/>
   <stop stop-color="#0a7db4" offset="1"/>
  </linearGradient>
  <linearGradient id="linearGradient1401" x1="5" x2="65" y1="185" y2="185" gradientTransform="matrix(.26458 0 0 .26458 -.79374 -39.158)" gradientUnits="userSpaceOnUse">
   <stop stop-color="#3492cb" offset="0"/>
   <stop stop-color="#6ec8fa" offset=".083713"/>
   <stop stop-color="#6ec8fa" offset=".91237"/>
   <stop stop-color="#3492cb" offset="1"/>
  </linearGradient>
  <linearGradient id="linearGradient1438" x1="-9.617" x2="-9.617" y1="1138.4" y2="1140.2" gradientTransform="matrix(.18168 0 0 .40956 9.2005 -451.88)" gradientUnits="userSpaceOnUse">
   <stop stop-color="#1482be" stop-opacity="0" offset="0"/>
   <stop stop-color="#1482be" offset="1"/>
  </linearGradient>
  <filter id="filter1733" x="-.011" y="-.0132" width="1.022" height="1.0264" color-interpolation-filters="sRGB">
   <feGaussianBlur stdDeviation="0.072761339"/>
  </filter>
  <filter id="filter935" x="-.01485" y="-.1485" width="1.0297" height="1.297" color-interpolation-filters="sRGB">
   <feGaussianBlur stdDeviation="0.098224626"/>
  </filter>
  <linearGradient id="b" x1="-9.912" x2="-9.912" y1="1081.4" y2="1139.8" gradientTransform="matrix(1 0 0 .73765 0 299.11)" gradientUnits="userSpaceOnUse">
   <stop stop-color="#1e91ff" offset="0"/>
   <stop stop-color="#2396ff" offset=".5"/>
   <stop stop-color="#1e8cfa" offset="1"/>
  </linearGradient>
  <linearGradient id="linearGradient886" x1="-26.201" x2="-26.201" y1="1070.2" y2="1082.6" gradientUnits="userSpaceOnUse">
   <stop stop-color="#2396ff" offset="0"/>
   <stop stop-color="#41b4ff" offset="1"/>
  </linearGradient>
  <linearGradient id="linearGradient888" x1="-9.617" x2="-9.617" y1="1138.4" y2="1140.2" gradientUnits="userSpaceOnUse">
   <stop stop-color="#0a7deb" offset="0"/>
   <stop stop-color="#0e95c5" offset="1"/>
  </linearGradient>
 </defs>
 <metadata>
  <rdf:RDF>
   <cc:Work rdf:about="">
    <dc:format>image/svg+xml</dc:format>
    <dc:type rdf:resource="http://purl.org/dc/dcmitype/StillImage"/>
    <dc:title/>
   </cc:Work>
  </rdf:RDF>
 </metadata>
 <g transform="translate(-.79373 -39.158)" filter="url(#filter1733)" opacity=".5">
  <g stroke-opacity=".95294">
   <path transform="scale(.26458)" d="m10 155c-2.77 0-5 2.23-5 5v40c0 2.77 2.23 5 5 5h50c2.77 0 5-2.23 5-5v-36c0-0.831-0.3347-1.5808-0.87695-2.123s-1.292-0.87695-2.123-0.87695h-31c-0.75 0-1.5-0.25001-2.2188-0.64062-0.71875-0.39063-1.4062-0.92188-2.0312-1.4844-1.25-1.125-2.25-2.375-2.75-2.875-0.43528-0.43528-1.1061-0.68419-1.7754-0.82617-0.64042-0.13585-1.26-0.16683-1.6875-0.17383h-0.53711z" opacity="1" stroke-width=".20101"/>
   <path transform="scale(.26458)" d="m7.4004 165c-1.3296 0-2.4004 1.0708-2.4004 2.4004v32.6c0 2.77 2.23 5 5 5h50c2.77 0 5-2.23 5-5v-32.6c0-1.3296-1.0708-2.4004-2.4004-2.4004z" opacity="1" stroke-width=".17979"/>
   <path transform="scale(.26458)" d="m7.4004 165c-1.3296 0-2.4004 1.0708-2.4004 2.4004v1c0-1.3296 1.0708-2.4004 2.4004-2.4004h55.199c1.3296 0 2.4004 1.0708 2.4004 2.4004v-1c0-1.3296-1.0708-2.4004-2.4004-2.4004z" opacity="1" stroke-width=".17979"/>
  </g>
  <path d="m1.3229 52.916c0.037387 0.72117 0.52916 1.3229 1.3188 1.3229h13.233c0.79328 0 1.3224-0.64408 1.3224-1.3229z" color="#000000" opacity=".5" stroke-width=".27278" style="text-indent:0;text-transform:none"/>
  <path d="m1.3237 52.916 3.337e-4 0.26458h15.874l-3.34e-4 -0.26458h-15.875zm0.26376 0.79373h15.346c0.05347-0.07329 0.11377-0.15529 0.15166-0.26458h-15.653c0.046511 0.1129 0.09263 0.17706 0.15532 0.26458z" color="#000000" opacity=".15" stroke-width=".095585" style="text-indent:0;text-transform:none"/>
 </g>
 <path d="m1.852 1.852c-0.73288 0-1.3229 0.59001-1.3229 1.3229v10.583c0 0.73288 0.59001 1.3229 1.3229 1.3229h13.229c0.73288 0 1.3229-0.59001 1.3229-1.3229v-9.5248c0-0.21986-0.08855-0.41825-0.23202-0.56171-0.14347-0.14347-0.34185-0.23202-0.56171-0.23202h-8.2019c-0.19843 0-0.39687-0.066147-0.58703-0.16949-0.19017-0.10335-0.37206-0.24391-0.53742-0.39273-0.33072-0.29765-0.5953-0.62837-0.72759-0.76066-0.11517-0.11517-0.29264-0.18102-0.46973-0.21859-0.16944-0.035943-0.33336-0.04414-0.44648-0.045992h-0.14211z" fill="url(#linearGradient1387)" stroke-width=".053182"/>
 <path d="m1.852 6.6145c-0.18322 0-0.35734 0.037102-0.51572 0.10387-0.15838 0.066766-0.30108 0.16311-0.42064 0.28266-0.11956 0.11956-0.21642 0.26226-0.28318 0.42064-0.06677 0.15838-0.10335 0.3325-0.10335 0.51572v0.26458c0-0.18322 0.03658-0.35734 0.10335-0.51572 0.06676-0.15838 0.16362-0.30108 0.28318-0.42064s0.26226-0.2159 0.42064-0.28266c0.15838-0.066765 0.3325-0.10387 0.51572-0.10387h13.229c0.18322 0 0.35734 0.037103 0.51572 0.10387 0.15838 0.066765 0.30108 0.16311 0.42064 0.28266 0.11956 0.11956 0.21642 0.26226 0.28318 0.42064s0.10335 0.3325 0.10335 0.51572v-0.26458c0-0.18322-0.03659-0.35734-0.10335-0.51572-0.06677-0.15838-0.16362-0.30108-0.28318-0.42064s-0.26226-0.2159-0.42064-0.28266c-0.15838-0.066765-0.3325-0.10387-0.51572-0.10387z" filter="url(#filter935)" opacity=".1" stroke-width=".047568"/>
 <path d="m1.3294 6.7986c-0.18322 0-0.35734 0.037102-0.51572 0.10387-0.15838 0.066767-0.30109 0.16311-0.42063 0.28268-0.11956 0.11956-0.21642 0.26226-0.28318 0.42063-0.066761 0.15836-0.12027 0.33328-0.10335 0.51572l0.5227 5.6367c0.067672 0.72976 0.59001 1.3229 1.3229 1.3229h13.229c0.73289 0 1.2542-0.59324 1.3229-1.3229l0.53095-5.6367c0.01718-0.18241-0.03659-0.35734-0.10335-0.51572-0.06677-0.15838-0.16362-0.30109-0.28318-0.42063-0.11956-0.11956-0.26226-0.2159-0.42063-0.28268-0.15838-0.066764-0.3325-0.10387-0.51572-0.10387h-14.283z" fill="url(#linearGradient1401)" stroke-width=".047569"/>
 <path d="m0.52916 13.758c0.037387 0.72117 0.52916 1.3229 1.3188 1.3229h13.233c0.79328 0 1.3224-0.64408 1.3224-1.3229z" color="#000000" fill="url(#linearGradient1438)" stroke-width=".27278" style="text-indent:0;text-transform:none"/>
 <path d="m0.52997 13.758 3.337e-4 0.26458h15.874l-3.34e-4 -0.26458h-15.875zm0.26376 0.79373h15.346c0.05347-0.07329 0.11377-0.15529 0.15166-0.26458h-15.653c0.046511 0.1129 0.09263 0.17706 0.15532 0.26458z" color="#000000" fill="#1482be" opacity=".25" stroke-width=".095585" style="text-indent:0;text-transform:none"/>
 <path d="m1.324 6.7986c-0.18322 0-0.35734 0.037102-0.51572 0.10387-0.15838 0.066766-0.30108 0.16311-0.42064 0.28266-0.11956 0.11956-0.21642 0.26226-0.28318 0.42064-0.06677 0.15838-0.10335 0.3325-0.10335 0.51572v0.26458c0-0.18322 0.036581-0.35735 0.10335-0.51572 0.066765-0.15838 0.16362-0.30108 0.28318-0.42064s0.26226-0.2159 0.42064-0.28266c0.15838-0.066766 0.3325-0.10387 0.51572-0.10387h14.288c0.18322 0 0.35734 0.037103 0.51572 0.10387 0.15838 0.066765 0.30108 0.16311 0.42064 0.28266 0.11956 0.11956 0.21642 0.26226 0.28318 0.42064s0.10335 0.3325 0.10335 0.51572v-0.26458c0-0.18322-0.03659-0.35734-0.10335-0.51572-0.06677-0.15838-0.16363-0.30108-0.28318-0.42064-0.11956-0.11956-0.26226-0.2159-0.42064-0.28266-0.15838-0.066765-0.3325-0.10387-0.51572-0.10387z" fill="#80cbff" stroke-width=".047568"/>
 <g transform="matrix(.079766 0 0 .079766 18.202 .34364)" color="#282828">
  <path transform="matrix(2.2139,0,0,2.2139,109.5,-2344.9)" d="m-44.762 1070.2h22.131c3.287 0 4.652 7.071 7.728 7.071h51.522a3.276 3.276 0 0 1 3.283 3.283v50.508c0 1.819-1.464-2.02-3.283-2.02h-81.38a3.276 3.276 0 0 1-3.283-3.283v-52.275a3.276 3.276 0 0 1 3.283-3.283z" fill="url(#linearGradient886)"/>
  <path transform="matrix(2.2139,0,0,2.2139,109.5,-2344.9)" d="m-45.855 1096.7h83.327c1.819 0 3.313 1.08 3.283 2.422l-0.854 38.56c-0.03 1.342-1.464 2.422-3.283 2.422h-81.38c-1.819 0-3.245-1.08-3.283-2.421l-1.093-38.561c-0.038-1.341 1.464-2.422 3.283-2.422z" fill="url(#b)"/>
  <path d="m3.16 165.84v2.214h194.68v-2.214h-194.69zm0 4.87v1.176c0 0.359 0.019 0.694 0.068 1.038h194.55c0.05-0.344 0.069-0.679 0.069-1.038v-1.176h-194.69z" fill="#0a7deb" opacity=".976" style="text-indent:0;text-transform:none"/>
  <path transform="matrix(2.2139,0,0,2.2139,109.5,-2344.9)" d="m-47.75 1138.2a3.28 3.28 0 0 0 3 1.938h81.375c1.34 0 2.488-0.793 3-1.938z" fill="url(#linearGradient888)" opacity=".976" style="text-indent:0;text-transform:none"/>
 </g>
</svg>
