<?xml version="1.0" encoding="UTF-8"?>
<svg width="64" height="64" version="1.1" viewBox="0 0 16.933 16.933" xmlns="http://www.w3.org/2000/svg" xmlns:cc="http://creativecommons.org/ns#" xmlns:dc="http://purl.org/dc/elements/1.1/" xmlns:rdf="http://www.w3.org/1999/02/22-rdf-syntax-ns#">
 <defs>
  <style id="current-color-scheme" type="text/css">.ColorScheme-Text {
        color:#4d4d4d;
      }</style>
  <style type="text/css">.ColorScheme-Text {
        color:#4d4d4d;
      }</style>
  <linearGradient id="linearGradient1387" x1="25" x2="25" y1="155" y2="166" gradientTransform="matrix(.26458 0 0 .26458 -.79373 -39.158)" gradientUnits="userSpaceOnUse">
   <stop stop-color="#3296d7" offset="0"/>
   <stop stop-color="#0a7db4" offset="1"/>
  </linearGradient>
  <linearGradient id="linearGradient1401" x1="5" x2="65" y1="185" y2="185" gradientTransform="matrix(.26458 0 0 .26458 -.79374 -39.158)" gradientUnits="userSpaceOnUse">
   <stop stop-color="#3492cb" offset="0"/>
   <stop stop-color="#6ec8fa" offset=".083713"/>
   <stop stop-color="#6ec8fa" offset=".91237"/>
   <stop stop-color="#3492cb" offset="1"/>
  </linearGradient>
  <linearGradient id="linearGradient1438" x1="-9.617" x2="-9.617" y1="1138.4" y2="1140.2" gradientTransform="matrix(.18168 0 0 .40956 9.2005 -451.88)" gradientUnits="userSpaceOnUse">
   <stop stop-color="#1482be" stop-opacity="0" offset="0"/>
   <stop stop-color="#1482be" offset="1"/>
  </linearGradient>
  <filter id="filter1733" x="-.011" y="-.0132" width="1.022" height="1.0264" color-interpolation-filters="sRGB">
   <feGaussianBlur stdDeviation="0.072761339"/>
  </filter>
  <filter id="filter935" x="-.01485" y="-.1485" width="1.0297" height="1.297" color-interpolation-filters="sRGB">
   <feGaussianBlur stdDeviation="0.098224626"/>
  </filter>
 </defs>
 <metadata>
  <rdf:RDF>
   <cc:Work rdf:about="">
    <dc:format>image/svg+xml</dc:format>
    <dc:type rdf:resource="http://purl.org/dc/dcmitype/StillImage"/>
    <dc:title/>
   </cc:Work>
  </rdf:RDF>
 </metadata>
 <g transform="translate(-.79373 -39.158)" filter="url(#filter1733)" opacity=".5">
  <g stroke-opacity=".95294">
   <path transform="scale(.26458)" d="m10 155c-2.77 0-5 2.23-5 5v40c0 2.77 2.23 5 5 5h50c2.77 0 5-2.23 5-5v-36c0-0.831-0.3347-1.5808-0.87695-2.123s-1.292-0.87695-2.123-0.87695h-31c-0.75 0-1.5-0.25001-2.2188-0.64062-0.71875-0.39063-1.4062-0.92188-2.0312-1.4844-1.25-1.125-2.25-2.375-2.75-2.875-0.43528-0.43528-1.1061-0.68419-1.7754-0.82617-0.64042-0.13585-1.26-0.16683-1.6875-0.17383h-0.53711z" opacity="1" stroke-width=".20101"/>
   <path transform="scale(.26458)" d="m7.4004 165c-1.3296 0-2.4004 1.0708-2.4004 2.4004v32.6c0 2.77 2.23 5 5 5h50c2.77 0 5-2.23 5-5v-32.6c0-1.3296-1.0708-2.4004-2.4004-2.4004z" opacity="1" stroke-width=".17979"/>
   <path transform="scale(.26458)" d="m7.4004 165c-1.3296 0-2.4004 1.0708-2.4004 2.4004v1c0-1.3296 1.0708-2.4004 2.4004-2.4004h55.199c1.3296 0 2.4004 1.0708 2.4004 2.4004v-1c0-1.3296-1.0708-2.4004-2.4004-2.4004z" opacity="1" stroke-width=".17979"/>
  </g>
  <path d="m1.3229 52.916c0.037387 0.72117 0.52916 1.3229 1.3188 1.3229h13.233c0.79328 0 1.3224-0.64408 1.3224-1.3229z" color="#000000" opacity=".5" stroke-width=".27278" style="text-indent:0;text-transform:none"/>
  <path d="m1.3237 52.916 3.337e-4 0.26458h15.874l-3.34e-4 -0.26458h-15.875zm0.26376 0.79373h15.346c0.05347-0.07329 0.11377-0.15529 0.15166-0.26458h-15.653c0.046511 0.1129 0.09263 0.17706 0.15532 0.26458z" color="#000000" opacity=".15" stroke-width=".095585" style="text-indent:0;text-transform:none"/>
 </g>
 <path d="m1.852 1.852c-0.73288 0-1.3229 0.59001-1.3229 1.3229v10.583c0 0.73288 0.59001 1.3229 1.3229 1.3229h13.229c0.73288 0 1.3229-0.59001 1.3229-1.3229v-9.5248c0-0.21986-0.08855-0.41825-0.23202-0.56171-0.14347-0.14347-0.34185-0.23202-0.56171-0.23202h-8.2019c-0.19843 0-0.39687-0.066147-0.58703-0.16949-0.19017-0.10335-0.37206-0.24391-0.53742-0.39273-0.33072-0.29765-0.5953-0.62837-0.72759-0.76066-0.11517-0.11517-0.29264-0.18102-0.46973-0.21859-0.16944-0.035943-0.33336-0.04414-0.44648-0.045992h-0.14211z" fill="url(#linearGradient1387)" stroke-width=".053182"/>
 <path d="m1.852 4.3131c-0.18322 0-0.35734 0.037102-0.51572 0.10387-0.15838 0.066766-0.30108 0.16311-0.42064 0.28266-0.11956 0.11956-0.21642 0.26226-0.28318 0.42064-0.06677 0.15838-0.10335 0.3325-0.10335 0.51572v0.26458c0-0.18322 0.03658-0.35734 0.10335-0.51572 0.06676-0.15838 0.16362-0.30108 0.28318-0.42064 0.11956-0.11956 0.26226-0.2159 0.42064-0.28266 0.15838-0.066765 0.3325-0.10387 0.51572-0.10387h13.229c0.18322 0 0.35734 0.037103 0.51572 0.10387 0.15838 0.066765 0.30108 0.16311 0.42064 0.28266 0.11956 0.11956 0.21642 0.26226 0.28318 0.42064s0.10335 0.3325 0.10335 0.51572v-0.26458c0-0.18322-0.03659-0.35734-0.10335-0.51572-0.06677-0.15838-0.16362-0.30108-0.28318-0.42064s-0.26226-0.2159-0.42064-0.28266c-0.15838-0.066765-0.3325-0.10387-0.51572-0.10387z" filter="url(#filter935)" opacity=".1" stroke-width=".047568"/>
 <path d="m1.8521 4.4979c-0.18322 0-0.35734 0.037102-0.51572 0.10387-0.15838 0.066767-0.30109 0.16311-0.42063 0.28268-0.11956 0.11956-0.21642 0.26226-0.28318 0.42063-0.066761 0.15836-0.10335 0.3325-0.10335 0.51572v7.9374c0 0.73289 0.59001 1.3229 1.3229 1.3229h13.229c0.73289 0 1.3229-0.59001 1.3229-1.3229v-7.9374c0-0.18322-0.03659-0.35734-0.10335-0.51572-0.06677-0.15838-0.16362-0.30109-0.28318-0.42063-0.11956-0.11956-0.26226-0.2159-0.42063-0.28268-0.15838-0.066764-0.3325-0.10387-0.51572-0.10387h-13.229z" fill="url(#linearGradient1401)" stroke-width=".047569"/>
 <path d="m0.52916 13.758c0.037387 0.72117 0.52916 1.3229 1.3188 1.3229h13.233c0.79328 0 1.3224-0.64408 1.3224-1.3229z" color="#000000" fill="url(#linearGradient1438)" stroke-width=".27278" style="text-indent:0;text-transform:none"/>
 <path d="m0.52997 13.758 3.337e-4 0.26458h15.874l-3.34e-4 -0.26458h-15.875zm0.26376 0.79373h15.346c0.05347-0.07329 0.11377-0.15529 0.15166-0.26458h-15.653c0.046511 0.1129 0.09263 0.17706 0.15532 0.26458z" color="#000000" fill="#1482be" opacity=".25" stroke-width=".095585" style="text-indent:0;text-transform:none"/>
 <path d="m1.852 4.4978c-0.18322 0-0.35734 0.037102-0.51572 0.10387-0.15838 0.066766-0.30108 0.16311-0.42064 0.28266-0.11956 0.11956-0.21642 0.26226-0.28318 0.42064-0.06677 0.15838-0.10335 0.3325-0.10335 0.51572v0.26458c0-0.18322 0.036581-0.35735 0.10335-0.51572 0.066765-0.15838 0.16362-0.30108 0.28318-0.42064 0.11956-0.11956 0.26226-0.2159 0.42064-0.28266 0.15838-0.066766 0.3325-0.10387 0.51572-0.10387h13.229c0.18322 0 0.35734 0.037103 0.51572 0.10387 0.15838 0.066765 0.30108 0.16311 0.42064 0.28266 0.11956 0.11956 0.21642 0.26226 0.28318 0.42064s0.10335 0.3325 0.10335 0.51572v-0.26458c0-0.18322-0.03659-0.35734-0.10335-0.51572-0.06677-0.15838-0.16363-0.30108-0.28318-0.42064-0.11956-0.11956-0.26226-0.2159-0.42064-0.28266-0.15838-0.066765-0.3325-0.10387-0.51572-0.10387z" fill="#80cbff" stroke-width=".047568"/>
 <g fill="#5e4aa6" stroke-width=".26458">
  <g transform="translate(-3.2526e-7 4.7281e-5)">
   <g transform="translate(-3.2526e-7,4.7281e-5)">
    <g transform="translate(-3.2526e-7,4.7281e-5)">
     <g transform="translate(-3.2526e-7,4.7281e-5)">
      <g transform="translate(-3.2526e-7,4.7281e-5)">
       <g transform="translate(-3.2526e-7,4.7281e-5)">
        <circle cx="-284.2" cy="-325.31" r="0"/>
        <circle cx="-284.2" cy="-325.31" r="0"/>
        <circle cx="-317.65" cy="-326.53" r="0"/>
       </g>
       <circle cx="-281.6" cy="-325.38" r="0"/>
       <circle cx="-281.6" cy="-325.38" r="0"/>
      </g>
      <circle cx="-283.03" cy="-325.16" r="0"/>
      <circle cx="-283.03" cy="-325.16" r="0"/>
     </g>
     <circle cx="-283.95" cy="-325.66" r="0"/>
     <circle cx="-283.95" cy="-325.66" r="0"/>
    </g>
    <circle cx="-277.78" cy="-325.72" r="0"/>
    <circle cx="-277.78" cy="-325.72" r="0"/>
   </g>
   <circle cx="-280.05" cy="-325.41" r="0"/>
   <circle cx="-280.05" cy="-325.41" r="0"/>
  </g>
  <circle cx="-283.43" cy="-325.41" r="0"/>
  <circle cx="-283.43" cy="-325.41" r="0"/>
 </g>
 <path d="m8.4664 6.0854c-0.10069 0-0.20198 0.00812-0.30006 0.018307a2.8522 2.8522 0 0 0-0.56403 0.10913 2.9234 2.9234 0 0 0-1.9187 1.9187 2.8522 2.8522 0 0 0-0.10914 0.56402 2.9191 2.9191 0 0 0-0.01834 0.30005c0 0.10069 0.0083 0.20198 0.01834 0.30006a2.8522 2.8522 0 0 0 0.10914 0.56402 2.9234 2.9234 0 0 0 1.9187 1.9187 2.8522 2.8522 0 0 0 0.56403 0.10943c0.09808 0.0099 0.19935 0.01804 0.30006 0.01804s0.20197-0.0082 0.30006-0.01831a2.8522 2.8522 0 0 0 0.56402-0.10884 2.973 2.973 0 0 0 0.52734-0.22759 2.905 2.905 0 0 0 1.3918-1.6915 2.8522 2.8522 0 0 0 0.10884-0.56402c0.01024-0.098078 0.01834-0.19936 0.01834-0.30006 0-0.10039-0.0083-0.20227-0.01834-0.30005a2.8522 2.8522 0 0 0-0.10884-0.56404 2.9308 2.9308 0 0 0-0.53667-0.99123c-0.0594-0.071878-0.12514-0.13416-0.1912-0.20023-0.26281-0.2628-0.57013-0.48049-0.91845-0.62747a3.0157 3.0157 0 0 0-0.2727-0.099825 2.8522 2.8522 0 0 0-0.56402-0.10913 3.0017 3.0017 0 0 0-0.30006-0.018307zm0 0.29102c0.44032 0 0.85448 0.10798 1.2188 0.30005 0.0096 0.00541 0.0175 0.013077 0.02704 0.018307 0.0073 0.00965 0.0055 0.020111 0.01834 0.027056 0.0094 0.00541 0.01834 0.013618 0.02704 0.018307 0.01541 0.0092 0.03053 0.021554 0.02731 0.036345-0.0037 0.021825-0.03959 0.020382-0.05444 0.036435 0.0018 0.030483-0.01046 0.024711-0.01834 0.045363 0.0046 0.013348 0.01631 0.011634 0.01834 0.027416-0.0028 0.016864-0.02475 0.018849-0.01834 0.036345 0.0285 0.022095 0.05499 0.00361 0.08204 0 0.05903-0.00721 0.10885 9.018e-4 0.14553-0.027327-0.0037-0.022726 0.01741-0.029039 0.02704-0.045363 0.01953 0.013618 0.03584 0.031474 0.05473 0.045363-0.01109 0.0045-0.03546 0.011905-0.04565 0.018307-0.01457 0.00992-0.01924 0.025342-0.03612 0.036345-0.01219 0.00812-0.04188 0.036345-0.05473 0.036345-0.01541 0-0.04364-0.012806-0.05473-0.00938-0.01567 0.0045-0.0094 0.030212-0.02704 0.036345-0.03492 0.012806-0.09691-0.034-0.10914 0.018307 0.01457 0.030212 0.06434 0.020111 0.09083 0.036345 0.0166 0.010463 0.04135 0.064122 0.04574 0.081798a0.21333 0.21333 0 0 1 0 0.082069c-0.0166 0.042206-0.0605 0.037247-0.10943 0.036345-0.01311 0-0.0242 9.018e-4 -0.03612 0-0.08204-0.00541-0.16298-0.031474-0.20023 0.027056 0.0028 0.045092 0.01013 0.069802 0 0.10913-0.0073 0.028498-0.03786 0.048069-0.03639 0.07278 5.97e-4 0.012806 0.0242 0.037247 0.02731 0.054742 0.0018 0.00938-0.0046 0.027958 0 0.036345 0.01366 0.025973 0.04831-0.0045 0.07278 0 0.02328 0.00361 0.04538 0.037878 0.04538 0.0634a0.16619 0.16619 0 0 1-0.01834 0.07278c-0.02328 0.034902-0.06663 0.026515-0.09984 0.045634-0.02768 0.015693-0.03813 0.054202-0.05473 0.081798-0.0175 0.029671-0.03401 0.039591-0.02704 0.081798a0.19645 0.19645 0 0 1-0.10012 0.10011 0.28754 0.28754 0 0 0-0.04565 0.027416 0.23051 0.23051 0 0 0-0.03611 0.036345c-0.0186 0.020381-0.04455 0.0294-0.05473 0.045363-0.0073 0.012175-9.02e-4 0.038148-0.0091 0.054742-0.01164 0.022095-0.03089 0.041304-0.04565 0.0634-0.0064 0.010727-0.0198 0.022727-0.02704 0.036435-0.01686 0.030843-0.03959 0.055013-0.03639 0.082069 0.0028 0.025973 0.03493 0.031745 0.03639 0.054471 0.0018 0.012806-0.0096 0.022726-0.0094 0.036345 8.59e-4 0.020376 0.0073 0.029671 0.0094 0.045366 0.0037 0.03932-0.02008 0.055014-0.0274 0.082064-0.0037 0.012534 0.0027 0.026246 0 0.03607-0.0064 0.019836-0.03584 0.031478-0.03639 0.054739-5.97e-4 0.016323 0.02557 0.031478 0.02731 0.054739 9.02e-4 0.015783-0.01219 0.030486-0.0094 0.045366 0.0055 0.028493 0.05967 0.068627 0.08204 0.090831 0.02998 0.030211 0.0594 0.050058 0.07278 0.082064 0.01109 0.026786 0.01567 0.070797 0.03639 0.090831 0.01512 0.014615 0.04391 0.021014 0.06343 0.036434 0.0186 0.014604 0.04428 0.021014 0.06408 0.036434 0.03198 0.025255 0.07562 0.076568 0.12718 0.07278 0.02676-0.00176 0.05151-0.012809 0.08176-0.018305 0.03117-0.0054 0.06837-0.02129 0.10012-0.018041 0.0242 0.00275 0.04711 0.019836 0.07278 0.018305 0.02621-0.00176 0.06086-0.01434 0.09083-0.027325 0.05244-0.022733 0.133-0.065841 0.20925-0.054739 0.05821 0.00925 0.0594 0.074222 0.10012 0.10012 0.04657 0.00363 0.08122-0.00925 0.11815 0 0.02795 0.00727 0.06114 0.059706 0.0637 0.0818 0.0028 0.022733-0.01512 0.040399-0.01834 0.054739-0.0073 0.030486-0.01283 0.071337-0.01805 0.090831-0.0046 0.015419-0.0096 0.030211-0.0094 0.04563 0 0.013613 0.02208 0.045366 0.03667 0.063396 0.0175 0.022369 0.04254 0.03932 0.06343 0.063671 0.03868 0.044551 0.05499 0.10479 0.08204 0.16385 0.0064 0.014615-0.0064 0.017402 0 0.03617-0.01164 0.089015-0.0419 0.14726-0.1001 0.24563-0.02768 0.03202-0.05528 0.06953-0.05473 0.10914-0.0018 0.09516 0.04977 0.14436 0.04574 0.23661-0.0096 0.12368 2.86e-4 0.14289-0.0094 0.20896 0.04189 0.02128 0.02127 0.08351 0.0094 0.12747-0.01805 0.0523-0.03556 0.0652-0.04574 0.10012a0.11641 0.11641 0 0 0 0.0637 0.0093 2.6172 2.6172 0 0 1-1.8917 0.80034 2.6143 2.6143 0 0 1-0.98221-0.19093c-8.71e-4 -5.74e-4 8.8e-4 -0.0093 0-0.0094 0.02768-0.01163 0.08003 0.02039 0.10013-0.01804 0.0099-0.01858-0.01338-0.0542 0-0.07278 0.0094-0.01281 0.07132-0.02417 0.09083-0.02732 0.02823-0.0045 0.05702 9.02e-4 0.07278-0.0093a0.082945 0.082945 0 0 0 0.03639-0.07278c-0.0018-0.01542-0.01512-0.02273-0.02704-0.03643-0.01013-0.01163-0.0028-0.02597-0.0094-0.03635-0.01247-0.01858-0.03117-0.02769-0.03639-0.05474 0.03813-0.0073 0.09057 0.04283 0.14553 0.02732 0.02621-0.0073 0.06985-0.05727 0.08204-0.0818 0.0037-0.0073-0.0046-0.03643 0-0.04537 0.0046-0.01024 0.01631-0.01307 0.01805-0.0183 0.0037-0.01425-0.0027-0.0183 0-0.02705 0.0096-0.02706 0.03868-0.04428 0.05473-0.06404 0.01192-0.01461 0.02502-0.02994 0.03639-0.04537 0.01247-0.01632 0.0186-0.02183 0.02704-0.03616 0.0083-0.04834-0.02969-0.08522-0.01805-0.12746 0.01247-0.0478 0.08149-0.07855 0.12717-0.10013 0.01605-0.0073 0.03227-0.02237 0.04574-0.02705 0.03172-0.01137 0.07011-0.0073 0.09982-0.0183 0.04977-0.01804 0.06692-0.07278 0.09112-0.11816 0.01164-0.02129 0.02502-0.03932 0.02704-0.05474 0.0027-0.01362-0.0027-0.0294 0-0.04537 0.0027-0.01569 0.0046-0.02795 0.0094-0.04537a0.46274 0.46274 0 0 0 0.0091-0.09111c0-0.02102-0.0091-0.02625-0.0091-0.04537-0.0037-0.06863 0.02008-0.0716 0.04538-0.10914 0.01283-0.01858 0.01834-0.05032 0.0274-0.06367 0.04281-0.0634 0.11438-0.09459 0.10914-0.19092-0.0018-0.032017-0.01311-0.098949-0.03639-0.10915-0.01338-0.0054-0.04428-0.00176-0.0637-0.00925-0.0626-0.023272-0.10768-0.094874-0.17286-0.10011-0.01366-5.727e-4 -0.02099 5.97e-4 -0.03639 0-0.0253-5.727e-4 -0.05325-0.024164-0.08177-0.027325-0.01805-0.00176-0.05299 0.0054-0.0637 0-0.01631-0.00727-0.01393-0.036346-0.02704-0.045366-0.01079-0.00727-0.02905-0.012181-0.04565-0.018305a0.21682 0.21682 0 0 0-0.07278-0.018041c-0.0094-5.958e-4 -0.03493 0.00176-0.04538 0-0.01631-0.00275-0.03024-0.017765-0.04538-0.027325-0.01924-0.011631-0.0285-0.019836-0.03639-0.036346 0.01741-0.056997-0.04309-0.066645-0.05473-0.09983-0.0055-0.015419 0.0055-0.040762 0-0.054739-0.0064-0.019572-0.02356-0.029044-0.04538-0.045366-0.03786-0.029671-0.07278-0.056732-0.12747-0.063671-0.0242-0.00275-0.05244 0.00176-0.08149 0a0.14173 0.14173 0 0 1-0.09112-0.045454c-0.02237-0.026246-0.02621-0.051501-0.04565-0.063671-0.01834-0.011631-0.05096-0.015155-0.06343-0.027414-0.0055-0.0054-0.0037-0.015155-0.0094-0.02705-0.0094-0.019208-0.02969-0.022457-0.01805-0.045631-0.02127-0.010463-0.01366 0.013349-0.03639 0.00936-0.02034-0.029044-0.0352-0.045366-0.08177-0.03661-0.02127 0.00452-0.03904 0.03607-0.0637 0.03661-0.02034 5.97e-4 -0.03666-0.03292-0.0637-0.03661-0.02034-0.00275-0.0495 0.021554-0.06343 0.018305-0.02301-0.00363-0.02502-0.031742-0.04565-0.045366-0.01512-0.010243-0.04602-0.036974-0.05444-0.036346-0.02649 5.969e-4 -0.04538 0.055917-0.08204 0.036346-0.01779-0.022733 0.03053-0.02444 0.0094-0.04563-0.01605-0.015695-0.02383 8.591e-4 -0.03639 0.00936-0.01486 0.00991-0.02914 0.021554-0.04574 0.027061-0.03639 0.013889-0.06224 0.012534-0.09083 0.027413-0.02621 0.013889-0.03024 0.036621-0.04537 0.063671-0.01219 0.022094-0.03612 0.053572-0.05473 0.054739-0.02209 0.00176-0.04363-0.027953-0.06343-0.036709-0.06114-0.026246-0.09546 0.017765-0.14552 0.018305-0.04657 5.727e-4 -0.11147-0.074223-0.10914-0.11816 0.0018-0.02705 0.01486-0.06692 0.01805-0.10013 0.0027-0.026246 0.02676-0.04834 0.02731-0.07278 5.87e-4 -0.032017-0.0518-0.059971-0.07278-0.063671-0.04977-0.00925-0.11642 0.022457-0.17287 0-0.01046-0.018041 0.02098-0.027953 0.02731-0.045366 0.0037-0.010243-0.0037-0.016322 0-0.027325 0.0064-0.016862 0.02823-0.027413 0.03639-0.045366 0.0055-0.013624 0.0027-0.037877 0.0091-0.054739 0.0073-0.018849 0.02557-0.031475 0.0274-0.045364 0.0018-0.018037-0.01311-0.042839-0.0274-0.054471a0.28346 0.28346 0 0 0-0.10006 0.018092c-0.05702 0.026244-0.04216 0.1004-0.09982 0.11845-0.01979 0.00628-0.0507 0.014615-0.07278 0.018041a2.5932 2.5932 0 0 1 0.17265-0.54564c0.02034 0.00361 0.03722 0.016595 0.05473 0.018307 0.04858 0.00361 0.0506-0.033459 0.09083-0.054742 0.04134 0.00541 0.0626-0.00361 0.10012 0 0.0253 0.00271 0.06169 0.034902 0.08177 0.036345 0.01686 5.863e-4 0.02034-0.021013 0.03639-0.018307 0.01605 0.00271 0.04281 0.035804 0.04565 0.054742 0.0027 0.023809-0.01605 0.046536-0.0094 0.072779 0.02502 0.025342 0.07361 0.039861 0.10914 0.054742 0.02328-0.019119 0.0037-0.0634 0-0.091113-5.77e-4 -0.012174 0.0018-0.025341 0-0.036344-0.0027-0.018849-0.0091-0.038148-0.0091-0.054742 0-0.075665 0.05821-0.10653 0.10915-0.13622 0.02182-0.012806 0.04455-0.036074 0.0637-0.045634 0.02676-0.013077 0.04135-0.01461 0.06343-0.027056 0.04042-0.022727 0.078-0.046806 0.10914-0.07278 0.01457-0.03436-0.0018-0.075394 0-0.10913 0.01457-0.0092 0.02127 0.00181 0.03639 0 0.02447-0.00541 0.03198-0.040763 0.04565-0.054742 0.0083-0.00812 0.03584-0.010188 0.04537-0.018037 0.02447-0.019119 0.02447-0.046265 0.04537-0.054742 0.0073-0.00271 0.02475-0.00541 0.03639-0.0092 0.01605-0.0045 0.0384-0.018307 0.0637-0.027416 0.01631-0.00541 0.05738-0.00271 0.0637-0.0092 0.0082-0.00812-0.0018-0.042477 0-0.054742 0.01247-0.059703 0.101-0.061686 0.15454-0.081527 0.03694-0.01461 0.07681-0.044551 0.11816-0.036705-0.0083 0.028498-0.04309 0.020381-0.03639 0.054742 0.0091 0.048069 0.06489-0.011634 0.08204-0.018307 0.03198-0.013617 0.094-0.021013 0.13621-0.036345 0.03721-0.013077 0.09866-0.03905 0.0637-0.081798-0.02914-0.00181-0.03813 0.025973-0.0637 0.036345-0.01741 0.00271-0.02153-0.00812-0.03639-0.0092-0.01431-5.952e-4 -0.02208 0.011634-0.03639 0.0092-0.01431-0.00271-0.0341-0.028498-0.03639-0.045363-0.0055-0.044551 0.04565-0.05817 0.0637-0.091113-0.01219-0.040132-0.06608-0.00271-0.10013-0.018037 0.0037-0.023809 0.01741-0.049783 0.04565-0.054742a0.17987 0.17987 0 0 1 0.09083 0.018307c0.0081 0.00631-0.0028 0.025071 0.0091 0.036435 0.01393 0.012175 0.03666 0.00271 0.05473 0 0.0064-0.030212-0.04161-0.016864-0.03639-0.036435 0.03584-0.023268 0.10157-0.012536 0.14552-0.018307 0.0253-0.00361 0.05005-0.02417 0.07278-0.036345 0.02099-0.012175 0.04134-0.029129 0.06343-0.0092 0.0064 0.021825-0.01512 0.034361-0.02704 0.045363-0.04079 0.036164-0.07746 0.076567-0.10914 0.11845 0.01953 0.018849 0.04886 0.00541 0.08177 0.0092 0.01283 0.00181 0.03198 0.00721 0.04537 0.00938 0.01605 0.00271 0.03291-0.00271 0.04565 0 0.02209 0.00541 0.02328 0.036345 0.04538 0.036345 0.03584 0 0.03868-0.030212 0.01805-0.054742 0.0064-0.024711 0.01834-0.045994 0.0094-0.0634-0.0166-0.032917-0.07855 0.00541-0.08204-0.036345-0.0018-0.026515 0.02704-0.034631 0.03639-0.054742-0.0037-0.050684 0.04161-0.05384 0.03639-0.099825-0.0027-0.019119-0.02328-0.018578-0.03639-0.036345-0.0064-0.00965-0.01013-0.02967-0.01805-0.036345-0.02768-0.023268-0.07855-0.019571-0.08204-0.064122-0.0018-0.026244 0.0037-0.04392 0-0.07278-0.0037-0.026785-0.03117-0.1036-0.05444-0.10884-0.02969-0.00631-0.04657 0.047077-0.08177 0.0634a0.14348 0.14348 0 0 1-0.07278 0.00938c-0.01283-0.00271-0.03493-0.012175-0.03639-0.036435-0.0018-0.013889 0.0027-0.018849 0.0091-0.027327 0.0018-0.00181-0.0018-0.00721 0-0.0092a2.6397 2.6397 0 0 1 0.72759-0.10011zm-1.0824 0.23661c-0.02557 0.0827-0.1004 0.1298-0.19993 0.12718-0.02447 0.023268-0.01431 0.067819-0.0274 0.10011a0.080325 0.080325 0 0 1-0.07278 0.045363c-0.01953-0.00181-0.05473-0.027056-0.05473-0.045363 0-0.015151 0.01457-0.032286 0.01834-0.045634a2.5972 2.5972 0 0 1 0.33644-0.18188zm2.2283 0.090835a0.079744 0.079744 0 0 0-0.02731 0.0092c-0.02034 0.012175-0.02127 0.030483-0.03639 0.036345-0.02182 0.00812-0.05151 0.00812-0.05473 0.027416-0.0027 0.016324 0.01889 0.021554 0.01834 0.036345-0.0083 0.01957-0.02328 0.021554-0.02731 0.045363 0.02704 0.04392 0.094 5.872e-4 0.12747-0.0092 0.01457-0.0045 0.02823 0.00271 0.03611-0.0092 0.0091-0.01461 0.0018-0.043649 0.0094-0.063671 0.0073-0.022095 0.02998-0.016864 0.02704-0.036345-0.0018-0.01957-0.03987-0.039592-0.07278-0.036345zm-2.8833 0.33643c0.01953 0.023268 0.03584 0.057628 0 0.07278-0.0055 0.00271-0.06893 0.011634-0.08177 0.00938-0.0037-5.771e-4 -0.0055-0.00631-0.0091-0.00938 0.02769-0.027056 0.06196-0.046806 0.09083-0.07278zm0.07278 0.091113c0.01283 5.871e-4 0.02153 0.026244 0.03639 0.027056 0.01457 0.00181 0.03694-0.011634 0.04574-0.0092 0.02209 0.00541 0.03024 0.047077 0.0091 0.0634-0.01741 0.00181-0.02328-0.021013-0.03611-0.018307-0.03611 0.00631-0.04602 0.075034-0.07278 0.07278-0.02557-0.00271-0.04428-0.054201-0.01834-0.07278 5.77e-4 -0.015693-0.01013-0.020381-0.0091-0.036435 0.0082-0.00992 0.02411-0.028769 0.04537-0.027056zm-0.11815 0.018037c0.0073 0 0.0064-0.00271 0.0091 0-0.0037 0.028227-0.01457 0.032286-0.03639 0.045634a0.14901 0.14901 0 0 0-0.07278 0.099816c-0.0037 0.01461-0.04565 0.05817-0.06343 0.054742-0.0419-0.0092 0.01741-0.08793 0.02704-0.10011 0.01079-0.013348 0.0242-0.021554 0.03639-0.036345 0.01219-0.01461 0.01576-0.045994 0.0274-0.054742 0.01283-0.0092 0.0506-0.00992 0.07278-0.0092zm3.5835 0.07278c0.04161-0.00271 0.0626 0.047527 0.08149 0.07278 0.01605 0.020652 0.06517 0.049512 0.09112 0.06367 0.01486 0.00812 0.02914 0.01984 0.04574 0.027416 0.01715 0.00721 0.04308 0.017405 0.06343 0.036345 0.02034 0.018578 0.03584 0.046536 0.03639 0.0634 5.97e-4 0.017135-0.01164 0.02967-0.0091 0.045634 0.01834 0.00271 0.02795-0.015693 0.03639-0.036435 0.06866 0.097797 0.1269 0.20228 0.18189 0.30908a0.034341 0.034341 0 0 0-0.01834 0.027416c-0.0055 0.02967 0.01741 0.067548-0.02704 0.07278-0.02823 0.00361-0.06141-0.027958-0.10013-0.036345-0.01567-0.00361-0.04189 0.00361-0.05473 0-0.02905-0.010188-0.02034-0.046265-0.04538-0.06367a0.20372 0.20372 0 0 0-0.07278-0.027055c-0.01431-0.00181-0.02153 0.00181-0.03639 0-0.01805-0.00271-0.04886 0-0.06343-0.00938-0.01457-0.0092-0.05096-0.02417-0.05473-0.036345-0.0055-0.019571 0.04455-0.047077 0.04538-0.0634 9.02e-4 -0.012806-0.0154-0.017405-0.01805-0.036705-0.0018-0.011634 0.0028-0.028769 0-0.036074-0.0037-0.013888-0.02383-0.026785-0.04565-0.027327-0.01889 0-0.03787 0.0092-0.05444 0.0092-0.02328 5.78e-4 -0.07104-0.011634-0.10012-0.0092-0.01741 0.00181-0.02905 0.00812-0.04538 0.0092-0.04602 0.00361-0.07306-0.00271-0.10915 0-0.02621 0.00181-0.07562 0.016324-0.10012 0.027327-0.01219 0.00541-0.02034 0.019209-0.03639 0.027056-0.0073 0.00361-0.01741 0.0045-0.02704 0.00938-0.01486 0.00631-0.04042 0.023268-0.05473 0.027056-0.02034 0.00541-0.04428-0.00181-0.08176 0-0.02704 0.00181-0.07214-0.00361-0.07278-0.036074-5.73e-4 -0.049512 0.08993-0.027958 0.13622-0.036705 0.01741-0.00361 0.02447-0.02417 0.04565-0.036074 0.0099-0.00541 0.01741-0.011905 0.02704-0.018307 0.01605-0.011093 0.04309-0.032917 0.04565-0.045363 0.0018-0.011634-0.01068-0.027958-0.0094-0.036345 0.0018-0.011093 0.02208-0.022095 0.03666-0.036345 0.02208-0.022456 0.03612-0.049512 0.06343-0.06367 0.0186-0.010188 0.05528-0.012446 0.0637-0.027325 0.0018-0.016864-5.97e-4 -0.021013 0-0.036345 0.01164-0.010463 0.0083-0.016053 0.01834-0.018037 0.0285-0.00631 0.05738 0.010727 0.09083 0.0092 0.01457-5.771e-4 0.03024 9.019e-4 0.04538-0.0092 0.01283-0.0092 0.02383-0.021013 0.03639-0.027325 0.01393-0.00721 0.0285-0.026244 0.04565-0.027416zm-3.3382 0.027416c0.0073-9.02e-4 0.01889 8.757e-4 0.02769 0 0.01192-5.863e-4 0.02328 0 0.03639 0s0.03088-0.00541 0.03639 0c-0.0091 0.034902-0.09083 0.021825-0.11845 0.0092 8.71e-4 -0.00631 0.01137-0.00812 0.01834-0.0092zm-0.09982 0.06367c0.0091 0 0.01779-0.00361 0.0274 0-0.02447 0.020382-0.05793 0.032016-0.10013 0.045363-0.02034 0.00631-0.05096 0.013077-0.05473-0.0092-0.0037-0.027687 0.0186-0.024711 0.03639-0.027327 0.02328-0.00271 0.06408-0.0092 0.09112-0.0092zm3.447 0c-0.01741 0.00541-0.02621 0.040763 0 0.045363 0.01219-0.00721 0.01219-0.023268 0.0091-0.045363-0.0073-0.00721-0.0037-0.00181-0.0091 0zm-0.0094 0.07278c-0.0083 0.00271-0.01805-5.862e-4 -0.02704 0.0092 5.98e-4 0.02967 0.0055 0.046536 0 0.07278 0.01686 0.032917 0.05528 0.013077 0.06344-0.0092 0.01024-0.055283-0.01079-0.079724-0.03611-0.07278zm0.22759 0.14553a0.078289 0.078289 0 0 0-0.05473 0.018037c0.01979 0.032016 0.05619 0.037878 0.10012 0.045634 0.01576-0.011634 0.01079-0.043649 0.01834-0.064031-0.01915 0-0.03143 0.00181-0.05473 0h-0.0091zm-4.6202 1.1183c0.0186 0.023812 0.03868 0.05149 0.06343 0.064123 0.01338 0.00628 0.02879 0.0054 0.04565 0.00925 0.01366 0.00275 0.02328 0.01434 0.03639 0.018305 0.02795 0.00969 0.06866 0.00815 0.09083 0.018305 0.03401 0.014615 0.0527 0.073859 0.08204 0.090831 0.0018 0.016862-0.0055 0.03292 0 0.045366 0.01366 0.01858 0.04134 0.024076 0.06343 0.036346 0.02704 0.01488 0.03841 0.052041 0.0637 0.063671 0.0091 0.00363 0.02273-0.00363 0.03639 0 0.03491 0.010463 0.04254 0.063396 0.07278 0.054739 0.01953-0.0054 0.02411-0.035806 0.02731-0.054739 0.01311-0.014615 0.02475-0.036346 0.04537-0.036346 0.03291-5.727e-4 0.04254 0.040762 0.05473 0.07278 0.0064 0.018041 0.02246 0.035443 0.02704 0.054739a0.4773 0.4773 0 0 1 0 0.14552c-0.0083 0.024164-0.04364 0.036974-0.06343 0.063396-0.0096 0.012809-0.02008 0.027953-0.02731 0.036346-0.01283 0.016058-0.02676 0.022094-0.03639 0.036346-0.0055 0.00815-0.0046 0.025343-0.0094 0.036346-0.01567 0.034088-0.04042 0.059431-0.02704 0.10012 0.0055 0.016323 0.02704 0.034903 0.02704 0.054739 0 0.023261-0.0506 0.029044-0.05444 0.054475-0.0028 0.01858 0.02153 0.056997 0.0274 0.0818 0.0037 0.01858 0.03437 0.03346 0.04538 0.045719 0.0186 0.020387 0.03786 0.046269 0.05473 0.07278 0.03318 0.05123 0.04886 0.1135 0.08149 0.16357 0.01741 0.02625 0.05244 0.04509 0.06408 0.07278 0.0055 0.01362-0.0055 0.04184 0 0.05474 0.01889 0.04284 0.11146 0.08793 0.15424 0.10885 0.02034 0.01024 0.03639 0.01686 0.05473 0.02733 0.02824 0.01605 0.08589 0.04806 0.10013 0.07278 0.01283 0.02237 0.02099 0.07359 0.02731 0.10915 0.0082 0.04653-0.0018 0.08613 0 0.1365 0.0018 0.02733 0.0091 0.04509 0.0091 0.07278 0 0.0096 5.87e-4 0.02679 0 0.03635-5.77e-4 0.03292 0.0027 0.06692 0 0.10012a0.37893 0.37893 0 0 0 0 0.05448c0.0018 0.0166 0.01715 0.02209 0.01834 0.03635 9.02e-4 0.01542-0.02008 0.03346-0.01834 0.04572 0.0037 0.03318 0.03904 0.06025 0.04537 0.09084 0.0055 0.02444 0.01219 0.07999 0.0094 0.10914-0.0027 0.01542-0.0073 0.03788-0.0094 0.05474-0.0018 0.01307 0.0018 0.02418 0 0.03607-0.72497-0.46569-1.2094-1.2747-1.2094-2.2009 0-0.11874 0.01192-0.23107 0.02731-0.34575zm1.0002 0.26397c0.02557-0.011631 0.02063 0.033185 0 0.036346-0.01953 0.00275-0.01889-0.027413 0-0.036346z" color="#282828" fill="#328cc3" opacity=".7" stroke-width=".29103"/>
</svg>
