<?xml version="1.0" encoding="UTF-8"?>
<svg width="64" height="64" version="1.1" viewBox="0 0 16.933 16.933" xmlns="http://www.w3.org/2000/svg" xmlns:cc="http://creativecommons.org/ns#" xmlns:dc="http://purl.org/dc/elements/1.1/" xmlns:rdf="http://www.w3.org/1999/02/22-rdf-syntax-ns#" xmlns:xlink="http://www.w3.org/1999/xlink">
 <defs>
  <style id="current-color-scheme" type="text/css">.ColorScheme-Text {
        color:#4d4d4d;
      }</style>
  <style type="text/css">.ColorScheme-Text {
        color:#4d4d4d;
      }</style>
  <radialGradient id="radialGradient1110" cx="8.4665" cy="8.4665" r="7.9373" gradientTransform="matrix(.96667 0 0 .96667 .28222 .28222)" gradientUnits="userSpaceOnUse">
   <stop stop-color="#6ec8fa" offset="0"/>
   <stop stop-color="#3492cb" offset="1"/>
  </radialGradient>
 </defs>
 <metadata>
  <rdf:RDF>
   <cc:Work rdf:about="">
    <dc:format>image/svg+xml</dc:format>
    <dc:type rdf:resource="http://purl.org/dc/dcmitype/StillImage"/>
    <dc:title/>
   </cc:Work>
  </rdf:RDF>
 </metadata>
 <g fill="#5e4aa6" stroke-width=".31749">
  <circle cx="-365.21" cy="-392.17" r="0"/>
  <circle cx="-375.63" cy="-392.28" r="0"/>
  <circle cx="-365.21" cy="-392.17" r="0"/>
  <circle cx="-375.63" cy="-392.28" r="0"/>
 </g>
 <g>
  <circle cx="8.4665" cy="8.4665" r="7.9373" fill="#80cbff" fill-rule="evenodd" stroke-width="1.3636" style="paint-order:normal"/>
  <circle cx="8.4665" cy="8.4665" r="7.6728" fill="url(#radialGradient1110)" fill-rule="evenodd" stroke-width="1.3182" style="paint-order:normal"/>
  <g transform="matrix(.80901 0 0 .80901 1.5368 2.0598)" fill="#147db9">
   <path d="m7.2242 8.556v0.39835s0.10755 0.85578-0.50008 1.1723c-0.60764 0.31647-2.6192 1.2658-2.7272 1.4416-0.10802 0.17582-0.26993 0.68298 0.18917 0.81192h8.7592c0.45911-0.12893 0.2972-0.6361 0.18917-0.81192s-2.1196-1.1251-2.7272-1.4416c-0.60764-0.31647-0.50008-1.1723-0.50008-1.1723v-0.39835h-1.3415z"/>
   <g transform="translate(.10535)">
    <path d="m10.452 6.6018c-0.26458 1.8862-0.88842 2.8929-1.9843 2.8929-1.0959 1e-7 -1.7198-1.0067-1.9843-2.8929-0.2414-1.7209 0-3.1436 1.9843-3.1436s2.2257 1.4227 1.9843 3.1436z"/>
    <path d="m10.492 6.1701s0.6201-0.024804 0.45474 0.5953c-0.16536 0.6201-0.47955 1.2816-0.82681 1.356-0.34726 0.074413 0.27285-1.9265 0.37206-1.9513z"/>
    <path d="m6.4284 6.1117s-0.6201-0.024804-0.45474 0.5953c0.16536 0.6201 0.47955 1.2816 0.82681 1.356 0.34726 0.074413-0.27285-1.9265-0.37206-1.9513z"/>
    <path d="m10.452 6.6018c-0.26458 1.8862-0.88842 2.8929-1.9843 2.8929-1.0959 1e-7 -1.7198-1.0067-1.9843-2.8929-0.2414-1.7209 0-3.1436 1.9843-3.1436s2.2257 1.4227 1.9843 3.1436z"/>
   </g>
  </g>
 </g>
</svg>
