<?xml version="1.0" encoding="UTF-8" standalone="no"?>
<svg
   width="64"
   height="64"
   viewBox="0 0 16.933 16.933"
   version="1.1"
   id="svg18"
   sodipodi:docname="folder-html.svg"
   inkscape:version="1.4 (e7c3feb100, 2024-10-09)"
   xmlns:inkscape="http://www.inkscape.org/namespaces/inkscape"
   xmlns:sodipodi="http://sodipodi.sourceforge.net/DTD/sodipodi-0.dtd"
   xmlns="http://www.w3.org/2000/svg"
   xmlns:svg="http://www.w3.org/2000/svg">
  <sodipodi:namedview
     id="namedview18"
     pagecolor="#505050"
     bordercolor="#eeeeee"
     borderopacity="1"
     inkscape:showpageshadow="0"
     inkscape:pageopacity="0"
     inkscape:pagecheckerboard="0"
     inkscape:deskcolor="#505050"
     inkscape:zoom="5.84375"
     inkscape:cx="46.802139"
     inkscape:cy="31.315508"
     inkscape:window-width="1920"
     inkscape:window-height="1007"
     inkscape:window-x="0"
     inkscape:window-y="0"
     inkscape:window-maximized="1"
     inkscape:current-layer="svg18" />
  <defs
     id="defs13">
    <linearGradient
       id="a"
       x1="6.879"
       x2="6.879"
       y1="285.36"
       y2="283.77"
       gradientTransform="matrix(0.99998,0,0,0.99998,22.501874,-280.06)"
       gradientUnits="userSpaceOnUse">
      <stop
         offset="0"
         id="stop1" />
      <stop
         stop-opacity="0"
         offset="1"
         id="stop2" />
    </linearGradient>
    <linearGradient
       id="b"
       x1="445.28"
       x2="445.28"
       y1="179.28"
       y2="200.07"
       gradientTransform="matrix(0.38956,0,0,0.38184,-143.01813,-63.44)"
       gradientUnits="userSpaceOnUse">
      <stop
         stop-color="#60c0f0"
         offset="0"
         id="stop3" />
      <stop
         stop-color="#83d4fb"
         offset="1"
         id="stop4" />
    </linearGradient>
    <linearGradient
       id="c"
       x1="8.467"
       x2="8.467"
       y1="293.3"
       y2="292.77"
       gradientTransform="translate(22.501874,-280.07)"
       gradientUnits="userSpaceOnUse">
      <stop
         stop-color="#008ea2"
         stop-opacity=".25"
         offset="0"
         id="stop5" />
      <stop
         stop-color="#fff"
         stop-opacity=".15"
         offset="1"
         id="stop6" />
    </linearGradient>
    <linearGradient
       id="d"
       x1="8.467"
       x2="8.467"
       y1="294.62"
       y2="293.56"
       gradientTransform="matrix(0.99998,0,0,0.99998,22.501874,-280.06)"
       gradientUnits="userSpaceOnUse">
      <stop
         stop-color="#008ea2"
         stop-opacity=".251"
         offset="0"
         id="stop7" />
      <stop
         stop-color="#008ea2"
         stop-opacity=".15"
         offset=".757"
         id="stop8" />
      <stop
         stop-color="#fff"
         stop-opacity=".15"
         offset="1"
         id="stop9" />
    </linearGradient>
    <linearGradient
       id="e"
       x1="1.058"
       x2="15.875"
       y1="289.59"
       y2="289.59"
       gradientTransform="translate(22.501874,-280.07)"
       gradientUnits="userSpaceOnUse">
      <stop
         stop-color="#46a2d7"
         stop-opacity=".5"
         offset="0"
         id="stop10" />
      <stop
         stop-color="#46a2d7"
         stop-opacity="0"
         offset=".108"
         id="stop11" />
      <stop
         stop-color="#46a2d7"
         stop-opacity=".096"
         offset=".894"
         id="stop12" />
      <stop
         stop-color="#46a2d7"
         stop-opacity=".5"
         offset="1"
         id="stop13" />
    </linearGradient>
    <filter
       color-interpolation-filters="sRGB"
       height="1.0264005"
       width="1.0219998"
       y="-0.013200229"
       x="-0.010999908"
       id="filter1733">
      <feGaussianBlur
         id="feGaussianBlur869"
         stdDeviation="0.072761339" />
    </filter>
    <linearGradient
       gradientUnits="userSpaceOnUse"
       gradientTransform="matrix(0.26458,0,0,0.26458,-0.79373,-39.158)"
       y2="166"
       y1="155"
       x2="25"
       x1="25"
       id="linearGradient1387">
      <stop
         id="stop850"
         offset="0"
         stop-color="#3296d7" />
      <stop
         id="stop852"
         offset="1"
         stop-color="#0a7db4" />
    </linearGradient>
    <filter
       color-interpolation-filters="sRGB"
       height="1.2969998"
       width="1.0296998"
       y="-0.14849988"
       x="-0.014849913"
       id="filter935">
      <feGaussianBlur
         id="feGaussianBlur872"
         stdDeviation="0.098224626" />
    </filter>
    <linearGradient
       gradientUnits="userSpaceOnUse"
       gradientTransform="matrix(0.26458,0,0,0.26458,-0.79374,-39.158)"
       y2="185"
       y1="185"
       x2="65"
       x1="5"
       id="linearGradient1401">
      <stop
         id="stop855"
         offset="0"
         stop-color="#3492cb" />
      <stop
         id="stop857"
         offset=".083713"
         stop-color="#6ec8fa" />
      <stop
         id="stop859"
         offset=".91237"
         stop-color="#6ec8fa" />
      <stop
         id="stop861"
         offset="1"
         stop-color="#3492cb" />
    </linearGradient>
    <linearGradient
       gradientUnits="userSpaceOnUse"
       gradientTransform="matrix(0.18168,0,0,0.40956,9.2005,-451.88)"
       y2="1140.2"
       y1="1138.4"
       x2="-9.6169996"
       x1="-9.6169996"
       id="linearGradient1438">
      <stop
         id="stop864"
         offset="0"
         stop-opacity="0"
         stop-color="#1482be" />
      <stop
         id="stop866"
         offset="1"
         stop-color="#1482be" />
    </linearGradient>
  </defs>
  <g
     id="g905"
     transform="matrix(1.0035228,0,0,1.0035228,-0.02982617,-0.02977904)">
    <g
       id="g891"
       transform="translate(-0.79373,-39.158)"
       style="opacity:0.5;filter:url(#filter1733)">
      <g
         id="g885"
         style="stroke-opacity:0.95294">
        <path
           id="path879"
           d="m 10,155 c -2.77,0 -5,2.23 -5,5 v 40 c 0,2.77 2.23,5 5,5 h 50 c 2.77,0 5,-2.23 5,-5 v -36 c 0,-0.831 -0.3347,-1.5808 -0.87695,-2.123 -0.54225,-0.5422 -1.292,-0.87695 -2.123,-0.87695 h -31 c -0.75,0 -1.5,-0.25001 -2.2188,-0.64062 -0.71875,-0.39063 -1.4062,-0.92188 -2.0312,-1.4844 -1.25,-1.125 -2.25,-2.375 -2.75,-2.875 -0.43528,-0.43528 -1.1061,-0.68419 -1.7754,-0.82617 -0.64042,-0.13585 -1.26,-0.16683 -1.6875,-0.17383 h -0.53711 z"
           transform="scale(0.26458)"
           inkscape:connector-curvature="0"
           style="opacity:1;stroke-width:0.20101" />
        <path
           id="path881"
           d="M 7.4004,165 C 6.0708,165 5,166.0708 5,167.4004 v 32.6 c 0,2.77 2.23,5 5,5 h 50 c 2.77,0 5,-2.23 5,-5 v -32.6 C 65,166.0708 63.9292,165 62.5996,165 Z"
           transform="scale(0.26458)"
           inkscape:connector-curvature="0"
           style="opacity:1;stroke-width:0.17979" />
        <path
           id="path883"
           d="M 7.4004,165 C 6.0708,165 5,166.0708 5,167.4004 v 1 C 5,167.0708 6.0708,166 7.4004,166 h 55.199 c 1.3296,0 2.4004,1.0708 2.4004,2.4004 v -1 C 64.9998,166.0708 63.929,165 62.5994,165 Z"
           transform="scale(0.26458)"
           inkscape:connector-curvature="0"
           style="opacity:1;stroke-width:0.17979" />
      </g>
      <path
         id="path887"
         style="color:#000000;text-indent:0;text-transform:none;opacity:0.5;stroke-width:0.27278"
         d="m 1.3229,52.916 c 0.037387,0.72117 0.52916,1.3229 1.3188,1.3229 h 13.233 c 0.79328,0 1.3224,-0.64408 1.3224,-1.3229 z"
         inkscape:connector-curvature="0" />
      <path
         id="path889"
         style="color:#000000;text-indent:0;text-transform:none;opacity:0.15;stroke-width:0.095585"
         d="m 1.3237,52.916 3.337e-4,0.26458 H 17.198034 L 17.1977,52.916 H 1.3226997 Z m 0.26376,0.79373 h 15.346 c 0.05347,-0.07329 0.11377,-0.15529 0.15166,-0.26458 h -15.653 c 0.046511,0.1129 0.09263,0.17706 0.15532,0.26458 z"
         inkscape:connector-curvature="0" />
    </g>
    <path
       id="path893"
       d="m 1.852,1.852 c -0.73288,0 -1.3229,0.59001 -1.3229,1.3229 v 10.583 c 0,0.73288 0.59001,1.3229 1.3229,1.3229 h 13.229 c 0.73288,0 1.3229,-0.59001 1.3229,-1.3229 V 4.2331 c 0,-0.21986 -0.08855,-0.41825 -0.23202,-0.56171 C 16.02841,3.52792 15.83003,3.43937 15.61017,3.43937 H 7.40827 C 7.20984,3.43937 7.0114,3.373223 6.82124,3.26988 6.63107,3.16653 6.44918,3.02597 6.28382,2.87715 5.9531,2.5795 5.68852,2.24878 5.55623,2.11649 5.44106,2.00132 5.26359,1.93547 5.0865,1.8979 4.91706,1.861957 4.75314,1.85376 4.64002,1.851908 H 4.49791 Z"
       inkscape:connector-curvature="0"
       style="fill:url(#linearGradient1387);stroke-width:0.053182" />
    <path
       id="path895"
       d="M 1.852,4.3131 C 1.66878,4.3131 1.49466,4.350202 1.33628,4.41697 1.1779,4.483736 1.0352,4.58008 0.91564,4.69963 0.79608,4.81919 0.69922,4.96189 0.63246,5.12027 0.56569,5.27865 0.52911,5.45277 0.52911,5.63599 v 0.26458 c 0,-0.18322 0.03658,-0.35734 0.10335,-0.51572 C 0.69922,5.22647 0.79608,5.08377 0.91564,4.96421 1.0352,4.84465 1.1779,4.74831 1.33628,4.68155 1.49466,4.614785 1.66878,4.57768 1.852,4.57768 h 13.229 c 0.18322,0 0.35734,0.037103 0.51572,0.10387 0.15838,0.066765 0.30108,0.16311 0.42064,0.28266 0.11956,0.11956 0.21642,0.26226 0.28318,0.42064 0.06676,0.15838 0.10335,0.3325 0.10335,0.51572 V 5.63599 c 0,-0.18322 -0.03659,-0.35734 -0.10335,-0.51572 C 16.23377,4.96189 16.13692,4.81919 16.01736,4.69963 15.8978,4.58007 15.7551,4.48373 15.59672,4.41697 15.43834,4.350205 15.26422,4.3131 15.081,4.3131 Z"
       inkscape:connector-curvature="0"
       style="opacity:0.1;stroke-width:0.047568;filter:url(#filter935)" />
    <path
       id="path897"
       d="M 1.8521,4.4979 C 1.66888,4.4979 1.49476,4.535002 1.33638,4.60177 1.178,4.668537 1.03529,4.76488 0.91575,4.88445 0.79619,5.00401 0.69933,5.14671 0.63257,5.30508 0.565809,5.46344 0.52922,5.63758 0.52922,5.8208 v 7.9374 c 0,0.73289 0.59001,1.3229 1.3229,1.3229 h 13.229 c 0.73289,0 1.3229,-0.59001 1.3229,-1.3229 V 5.8208 c 0,-0.18322 -0.03659,-0.35734 -0.10335,-0.51572 C 16.2339,5.1467 16.13705,5.00399 16.01749,4.88445 15.89793,4.76489 15.75523,4.66855 15.59686,4.60177 15.43848,4.535006 15.26436,4.4979 15.08114,4.4979 h -13.229 z"
       inkscape:connector-curvature="0"
       style="fill:url(#linearGradient1401);stroke-width:0.047569" />
    <path
       id="path899"
       style="color:#000000;text-indent:0;text-transform:none;fill:url(#linearGradient1438);stroke-width:0.27278"
       d="m 0.52916,13.758 c 0.037387,0.72117 0.52916,1.3229 1.3188,1.3229 h 13.233 c 0.79328,0 1.3224,-0.64408 1.3224,-1.3229 z"
       inkscape:connector-curvature="0" />
    <path
       id="path901"
       style="color:#000000;text-indent:0;text-transform:none;opacity:0.25;fill:#1482be;stroke-width:0.095585"
       d="m 0.52997,13.758 3.337e-4,0.26458 H 16.404304 L 16.40397,13.758 H 0.5289697 Z m 0.26376,0.79373 h 15.346 c 0.05347,-0.07329 0.11377,-0.15529 0.15166,-0.26458 h -15.653 c 0.046511,0.1129 0.09263,0.17706 0.15532,0.26458 z"
       inkscape:connector-curvature="0" />
    <path
       id="path903"
       d="M 1.852,4.4978 C 1.66878,4.4978 1.49466,4.534902 1.33628,4.60167 1.1779,4.668436 1.0352,4.76478 0.91564,4.88433 0.79608,5.00389 0.69922,5.14659 0.63246,5.30497 0.56569,5.46335 0.52911,5.63747 0.52911,5.82069 v 0.26458 c 0,-0.18322 0.036581,-0.35735 0.10335,-0.51572 C 0.699225,5.41117 0.79608,5.26847 0.91564,5.14891 1.0352,5.02935 1.1779,4.93301 1.33628,4.86625 1.49466,4.799484 1.66878,4.76238 1.852,4.76238 h 13.229 c 0.18322,0 0.35734,0.037103 0.51572,0.10387 0.15838,0.066765 0.30108,0.16311 0.42064,0.28266 0.11956,0.11956 0.21642,0.26226 0.28318,0.42064 0.06676,0.15838 0.10335,0.3325 0.10335,0.51572 V 5.82069 c 0,-0.18322 -0.03659,-0.35734 -0.10335,-0.51572 C 16.23377,5.14659 16.13691,5.00389 16.01736,4.88433 15.8978,4.76477 15.7551,4.66843 15.59672,4.60167 15.43834,4.534905 15.26422,4.4978 15.081,4.4978 Z"
       inkscape:connector-curvature="0"
       style="fill:#80cbff;stroke-width:0.047568" />
  </g>
  <path
     class="ColorScheme-Text"
     d="m 8.4655,6.099128 a 3.175,3.175 0 0 0 -0.06,0.003 3.175,3.175 0 0 0 -0.015,10e-4 3.242,3.242 0 0 0 -0.011,0 3.175,3.175 0 0 0 -0.039,0.003 3.175,3.175 0 0 0 -0.267,0.02 3.175,3.175 0 0 0 -0.04,0.007 3.175,3.175 0 0 0 -0.264,0.047 3.175,3.175 0 0 0 -0.063,0.015 3.175,3.175 0 0 0 -0.252,0.073 3.175,3.175 0 0 0 -0.03,0.011 3.175,3.175 0 0 0 -0.272,0.108 3.175,3.175 0 0 0 -0.006,0.003 3.175,3.175 0 0 0 -0.274,0.141 3.175,3.175 0 0 0 -0.013,0.009 3.175,3.175 0 0 0 -0.255,0.166 3.175,3.175 0 0 0 -0.006,0.004 3.175,3.175 0 0 0 -0.235,0.19 3.175,3.175 0 0 0 -0.028,0.026 3.175,3.175 0 0 0 -0.199,0.195 3.175,3.175 0 0 0 -0.025,0.028 3.175,3.175 0 0 0 -0.182,0.22 3.175,3.175 0 0 0 -0.01,0.015 3.175,3.175 0 0 0 -0.163,0.242 3.175,3.175 0 0 0 -0.024,0.04 3.175,3.175 0 0 0 -0.125,0.233 3.175,3.175 0 0 0 -0.025,0.055 3.175,3.175 0 0 0 -0.101,0.247 3.175,3.175 0 0 0 -0.01,0.028 3.175,3.175 0 0 0 -0.08,0.265 3.175,3.175 0 0 0 -0.026,0.107 h 0.002 a 3.175,3.175 0 0 0 -0.007,0.034 3.175,3.175 0 0 0 -0.038,0.22 3.175,3.175 0 0 0 -0.013,0.107 3.175,3.175 0 0 0 -0.016,0.245 3.175,3.175 0 0 0 -0.002,0.067 3.175,3.175 0 0 0 1.82,2.867 3.175,3.175 0 0 0 0.004,0.003 3.175,3.175 0 0 0 0.155,0.069 3.175,3.175 0 0 0 0.003,0.002 3.175,3.175 0 0 0 0.245,0.086 3.175,3.175 0 0 0 0.062,0.02 3.175,3.175 0 0 0 0.214,0.052 3.175,3.175 0 0 0 0.102,0.023 3.175,3.175 0 0 0 0.204,0.028 3.175,3.175 0 0 0 0.11,0.014 3.175,3.175 0 0 0 0.256,0.011 3.175,3.175 0 0 0 0.262,-0.012 v -10e-4 a 3.175,3.175 0 0 0 0.006,0 3.175,3.175 0 0 0 0.292,-0.04 3.175,3.175 0 0 0 0.022,-0.003 3.175,3.175 0 0 0 0.005,0 3.175,3.175 0 0 0 0.304,-0.074 3.175,3.175 0 0 0 1.45,-0.906 3.175,3.175 0 0 0 0.008,-0.009 3.175,3.175 0 0 0 0.079,-0.084 3.175,3.175 0 0 0 0,-0.002 l -0.005,0.003 a 3.175,3.175 0 0 0 0.752,-2.047 3.175,3.175 0 0 0 -0.104,-0.79 h 0.001 a 3.175,3.175 0 0 0 -0.008,-0.025 3.175,3.175 0 0 0 -0.002,-0.006 3.175,3.175 0 0 0 -0.077,-0.246 3.175,3.175 0 0 0 -0.017,-0.047 3.175,3.175 0 0 0 -0.437,-0.796 3.175,3.175 0 0 0 -0.011,-0.015 3.175,3.175 0 0 0 -0.01,-0.012 3.175,3.175 0 0 0 -0.41,-0.44 3.175,3.175 0 0 0 -0.02,-0.015 3.175,3.175 0 0 0 -0.003,-0.004 3.175,3.175 0 0 0 -0.224,-0.177 3.175,3.175 0 0 0 -0.028,-0.02 3.175,3.175 0 0 0 -0.229,-0.146 3.175,3.175 0 0 0 -0.035,-0.021 3.175,3.175 0 0 0 -1.561,-0.415 z m 0,0.397 a 2.778,2.778 0 0 1 0.01,0 c -0.002,0.05 -0.01,0.097 -0.01,0.146 0,0.39 0.05,0.77 0.135,1.135 -0.44,0.372 -0.99,0.619 -1.594,0.685 0.17,-0.723 0.512,-1.377 0.977,-1.923 a 2.778,2.778 0 0 1 0.197,-0.025 2.778,2.778 0 0 1 0.084,-0.01 2.778,2.778 0 0 1 0.202,-0.008 z m 0.404,0.033 a 2.778,2.778 0 0 1 0.007,0.001 2.778,2.778 0 0 1 0.265,0.053 2.778,2.778 0 0 1 10e-4,0 2.778,2.778 0 0 1 0.265,0.081 2.778,2.778 0 0 1 0.01,0.003 c -0.121,0.284 -0.282,0.546 -0.48,0.776 a 4.635,4.635 0 0 1 -0.075,-0.801 c 0,-0.038 0.006,-0.075 0.007,-0.113 z m -1.532,0.21 a 4.938,4.938 0 0 0 -0.743,1.737 2.962,2.962 0 0 1 -0.747,-0.12 2.778,2.778 0 0 1 0.102,-0.251 2.778,2.778 0 0 1 0.008,-0.017 2.778,2.778 0 0 1 0.123,-0.232 2.778,2.778 0 0 1 0.004,-0.006 2.778,2.778 0 0 1 0.152,-0.228 2.778,2.778 0 0 1 0.175,-0.213 2.778,2.778 0 0 1 0.004,-0.004 2.778,2.778 0 0 1 0.191,-0.19 2.778,2.778 0 0 1 0.01,-0.008 2.778,2.778 0 0 1 0.204,-0.167 2.778,2.778 0 0 1 0.012,-0.008 2.778,2.778 0 0 1 0.222,-0.147 2.778,2.778 0 0 1 0.006,-0.003 2.778,2.778 0 0 1 0.243,-0.127 2.778,2.778 0 0 1 0.034,-0.015 z m 2.44,0.087 a 2.778,2.778 0 0 1 0.002,0.002 2.778,2.778 0 0 1 0.236,0.142 2.778,2.778 0 0 1 0.198,0.148 2.778,2.778 0 0 1 0.024,0.018 2.778,2.778 0 0 1 0.003,0.002 2.778,2.778 0 0 1 0.179,0.164 2.778,2.778 0 0 1 0.023,0.021 2.778,2.778 0 0 1 0.002,0.003 2.778,2.778 0 0 1 0.133,0.148 2.778,2.778 0 0 1 0.055,0.063 2.778,2.778 0 0 1 0.103,0.14 2.778,2.778 0 0 1 0.06,0.085 2.778,2.778 0 0 1 0.116,0.2 2.778,2.778 0 0 1 0.02,0.033 2.778,2.778 0 0 1 0,0.002 2.778,2.778 0 0 1 0.095,0.205 2.778,2.778 0 0 1 0.02,0.045 2.778,2.778 0 0 1 0.002,0.005 2.778,2.778 0 0 1 0.062,0.181 2.778,2.778 0 0 1 0.03,0.09 3.358,3.358 0 0 0 -1.527,0.64 4.586,4.586 0 0 1 -0.57,-1.255 c 0.31,-0.307 0.56,-0.674 0.734,-1.082 z m -1.064,1.364 c 0.143,0.44 0.344,0.854 0.596,1.231 a 3.368,3.368 0 0 0 -0.975,1.767 4.58,4.58 0 0 1 -1.281,-0.419 4.617,4.617 0 0 1 -0.175,-1.244 c 0,-0.225 0.022,-0.444 0.053,-0.66 a 3.351,3.351 0 0 0 1.782,-0.675 z m -2.972,0.542 c 0.252,0.075 0.515,0.125 0.788,0.138 a 5.023,5.023 0 0 0 -0.048,0.655 c 0,0.333 0.035,0.659 0.097,0.974 a 4.578,4.578 0 0 1 -0.844,-0.725 2.778,2.778 0 0 1 -0.027,-0.2 2.778,2.778 0 0 1 -0.01,-0.088 2.778,2.778 0 0 1 -0.01,-0.212 2.778,2.778 0 0 1 0.015,-0.277 2.778,2.778 0 0 1 0.04,-0.265 z m 5.476,0.18 a 2.778,2.778 0 0 1 0.023,0.263 2.778,2.778 0 0 1 0.004,0.1 2.778,2.778 0 0 1 -0.28,1.207 2.778,2.778 0 0 1 -0.01,0.02 4.651,4.651 0 0 1 -1.11,-1.018 2.962,2.962 0 0 1 1.373,-0.573 z m -1.672,0.829 c 0.34,0.431 0.752,0.8 1.214,1.1 a 2.778,2.778 0 0 1 0,0.002 2.778,2.778 0 0 1 -0.113,0.147 4.59,4.59 0 0 1 -1.532,0.269 c -0.13,0 -0.258,-0.01 -0.386,-0.02 0.122,-0.58 0.412,-1.097 0.817,-1.498 z m -3.532,0.834 c 0.22,0.176 0.456,0.335 0.706,0.471 0.059,0.186 0.13,0.366 0.21,0.541 a 2.778,2.778 0 0 1 -0.002,-10e-4 2.778,2.778 0 0 1 -0.21,-0.156 2.778,2.778 0 0 1 -0.012,-0.01 2.778,2.778 0 0 1 -0.204,-0.185 2.778,2.778 0 0 1 -0.186,-0.206 2.778,2.778 0 0 1 -0.164,-0.223 2.778,2.778 0 0 1 -0.138,-0.231 z m 1.213,0.71 c 0.335,0.136 0.689,0.234 1.055,0.295 -0.007,0.09 -0.014,0.181 -0.014,0.274 0,0.064 0.005,0.126 0.009,0.189 a 2.778,2.778 0 0 1 -0.004,0 2.778,2.778 0 0 1 -0.735,-0.154 2.778,2.778 0 0 1 -0.003,-10e-4 4.315,4.315 0 0 1 -0.308,-0.604 z m 2.802,0.283 a 2.778,2.778 0 0 1 -10e-4,10e-4 2.778,2.778 0 0 1 -0.231,0.14 2.778,2.778 0 0 1 -0.005,0.004 2.778,2.778 0 0 1 -0.002,0 2.778,2.778 0 0 1 -0.212,0.104 2.778,2.778 0 0 1 -0.052,0.022 2.778,2.778 0 0 1 -0.204,0.075 2.778,2.778 0 0 1 -0.057,0.018 2.778,2.778 0 0 1 -0.191,0.05 2.778,2.778 0 0 1 -0.086,0.02 2.778,2.778 0 0 1 -0.179,0.025 2.778,2.778 0 0 1 -0.132,0.017 c -0.005,-0.063 -0.012,-0.126 -0.012,-0.19 0,-0.075 0.006,-0.147 0.011,-0.22 a 4.83,4.83 0 0 0 1.353,-0.066 z"
     color="#363636"
     opacity="0.15"
     id="path19"
     style="opacity:1;fill:#449ed4;fill-opacity:1" />
</svg>
