<?xml version="1.0" encoding="UTF-8" standalone="no"?>
<svg
   width="64"
   height="64"
   viewBox="0 0 16.933 16.933"
   version="1.1"
   id="svg18"
   sodipodi:docname="folder-projects.svg"
   inkscape:version="1.4 (e7c3feb100, 2024-10-09)"
   xmlns:inkscape="http://www.inkscape.org/namespaces/inkscape"
   xmlns:sodipodi="http://sodipodi.sourceforge.net/DTD/sodipodi-0.dtd"
   xmlns="http://www.w3.org/2000/svg"
   xmlns:svg="http://www.w3.org/2000/svg">
  <sodipodi:namedview
     id="namedview18"
     pagecolor="#505050"
     bordercolor="#eeeeee"
     borderopacity="1"
     inkscape:showpageshadow="0"
     inkscape:pageopacity="0"
     inkscape:pagecheckerboard="0"
     inkscape:deskcolor="#505050"
     inkscape:zoom="4.1321553"
     inkscape:cx="44.649823"
     inkscape:cy="53.72499"
     inkscape:window-width="1920"
     inkscape:window-height="1007"
     inkscape:window-x="0"
     inkscape:window-y="0"
     inkscape:window-maximized="1"
     inkscape:current-layer="svg18" />
  <defs
     id="defs13">
    <linearGradient
       id="b"
       x1="445.28"
       x2="445.28"
       y1="179.28"
       y2="200.07"
       gradientTransform="matrix(0.38956,0,0,0.38184,-136.38677,-63.44)"
       gradientUnits="userSpaceOnUse">
      <stop
         stop-color="#60c0f0"
         offset="0"
         id="stop1" />
      <stop
         stop-color="#83d4fb"
         offset="1"
         id="stop2" />
    </linearGradient>
    <linearGradient
       id="c"
       x1="8.467"
       x2="8.467"
       y1="293.3"
       y2="292.77"
       gradientTransform="translate(29.133234,-280.07)"
       gradientUnits="userSpaceOnUse">
      <stop
         stop-color="#008ea2"
         stop-opacity=".25"
         offset="0"
         id="stop3" />
      <stop
         stop-color="#fff"
         stop-opacity=".15"
         offset="1"
         id="stop4" />
    </linearGradient>
    <linearGradient
       id="d"
       x1="8.467"
       x2="8.467"
       y1="294.62"
       y2="293.56"
       gradientTransform="matrix(0.99998,0,0,0.99998,29.133234,-280.06)"
       gradientUnits="userSpaceOnUse">
      <stop
         stop-color="#008ea2"
         stop-opacity=".251"
         offset="0"
         id="stop5" />
      <stop
         stop-color="#008ea2"
         stop-opacity=".15"
         offset=".757"
         id="stop6" />
      <stop
         stop-color="#fff"
         stop-opacity=".15"
         offset="1"
         id="stop7" />
    </linearGradient>
    <linearGradient
       id="a"
       x1="6.879"
       x2="6.879"
       y1="285.36"
       y2="283.77"
       gradientTransform="matrix(0.99998,0,0,0.99998,29.133234,-280.06)"
       gradientUnits="userSpaceOnUse">
      <stop
         offset="0"
         id="stop8" />
      <stop
         stop-opacity="0"
         offset="1"
         id="stop9" />
    </linearGradient>
    <linearGradient
       id="e"
       x1="1.058"
       x2="15.875"
       y1="289.59"
       y2="289.59"
       gradientTransform="translate(29.133234,-280.07)"
       gradientUnits="userSpaceOnUse">
      <stop
         stop-color="#46a2d7"
         stop-opacity=".5"
         offset="0"
         id="stop10" />
      <stop
         stop-color="#46a2d7"
         stop-opacity="0"
         offset=".108"
         id="stop11" />
      <stop
         stop-color="#46a2d7"
         stop-opacity=".096"
         offset=".894"
         id="stop12" />
      <stop
         stop-color="#46a2d7"
         stop-opacity=".5"
         offset="1"
         id="stop13" />
    </linearGradient>
    <filter
       color-interpolation-filters="sRGB"
       height="1.0264005"
       width="1.0219998"
       y="-0.013200229"
       x="-0.010999908"
       id="filter1733">
      <feGaussianBlur
         id="feGaussianBlur869"
         stdDeviation="0.072761339" />
    </filter>
    <linearGradient
       gradientUnits="userSpaceOnUse"
       gradientTransform="matrix(0.26458,0,0,0.26458,-0.79373,-39.158)"
       y2="166"
       y1="155"
       x2="25"
       x1="25"
       id="linearGradient1387">
      <stop
         id="stop850"
         offset="0"
         stop-color="#3296d7" />
      <stop
         id="stop852"
         offset="1"
         stop-color="#0a7db4" />
    </linearGradient>
    <filter
       color-interpolation-filters="sRGB"
       height="1.2969998"
       width="1.0296998"
       y="-0.14849988"
       x="-0.014849913"
       id="filter935">
      <feGaussianBlur
         id="feGaussianBlur872"
         stdDeviation="0.098224626" />
    </filter>
    <linearGradient
       gradientUnits="userSpaceOnUse"
       gradientTransform="matrix(0.26458,0,0,0.26458,-0.79374,-39.158)"
       y2="185"
       y1="185"
       x2="65"
       x1="5"
       id="linearGradient1401">
      <stop
         id="stop855"
         offset="0"
         stop-color="#3492cb" />
      <stop
         id="stop857"
         offset=".083713"
         stop-color="#6ec8fa" />
      <stop
         id="stop859"
         offset=".91237"
         stop-color="#6ec8fa" />
      <stop
         id="stop861"
         offset="1"
         stop-color="#3492cb" />
    </linearGradient>
    <linearGradient
       gradientUnits="userSpaceOnUse"
       gradientTransform="matrix(0.18168,0,0,0.40956,9.2005,-451.88)"
       y2="1140.2"
       y1="1138.4"
       x2="-9.6169996"
       x1="-9.6169996"
       id="linearGradient1438">
      <stop
         id="stop864"
         offset="0"
         stop-opacity="0"
         stop-color="#1482be" />
      <stop
         id="stop866"
         offset="1"
         stop-color="#1482be" />
    </linearGradient>
  </defs>
  <g
     id="g905"
     transform="matrix(1.0035228,0,0,1.0035228,-0.02982617,-0.02977904)">
    <g
       id="g891"
       transform="translate(-0.79373,-39.158)"
       style="opacity:0.5;filter:url(#filter1733)">
      <g
         id="g885"
         style="stroke-opacity:0.95294">
        <path
           id="path879"
           d="m 10,155 c -2.77,0 -5,2.23 -5,5 v 40 c 0,2.77 2.23,5 5,5 h 50 c 2.77,0 5,-2.23 5,-5 v -36 c 0,-0.831 -0.3347,-1.5808 -0.87695,-2.123 -0.54225,-0.5422 -1.292,-0.87695 -2.123,-0.87695 h -31 c -0.75,0 -1.5,-0.25001 -2.2188,-0.64062 -0.71875,-0.39063 -1.4062,-0.92188 -2.0312,-1.4844 -1.25,-1.125 -2.25,-2.375 -2.75,-2.875 -0.43528,-0.43528 -1.1061,-0.68419 -1.7754,-0.82617 -0.64042,-0.13585 -1.26,-0.16683 -1.6875,-0.17383 h -0.53711 z"
           transform="scale(0.26458)"
           inkscape:connector-curvature="0"
           style="opacity:1;stroke-width:0.20101" />
        <path
           id="path881"
           d="M 7.4004,165 C 6.0708,165 5,166.0708 5,167.4004 v 32.6 c 0,2.77 2.23,5 5,5 h 50 c 2.77,0 5,-2.23 5,-5 v -32.6 C 65,166.0708 63.9292,165 62.5996,165 Z"
           transform="scale(0.26458)"
           inkscape:connector-curvature="0"
           style="opacity:1;stroke-width:0.17979" />
        <path
           id="path883"
           d="M 7.4004,165 C 6.0708,165 5,166.0708 5,167.4004 v 1 C 5,167.0708 6.0708,166 7.4004,166 h 55.199 c 1.3296,0 2.4004,1.0708 2.4004,2.4004 v -1 C 64.9998,166.0708 63.929,165 62.5994,165 Z"
           transform="scale(0.26458)"
           inkscape:connector-curvature="0"
           style="opacity:1;stroke-width:0.17979" />
      </g>
      <path
         id="path887"
         style="color:#000000;text-indent:0;text-transform:none;opacity:0.5;stroke-width:0.27278"
         d="m 1.3229,52.916 c 0.037387,0.72117 0.52916,1.3229 1.3188,1.3229 h 13.233 c 0.79328,0 1.3224,-0.64408 1.3224,-1.3229 z"
         inkscape:connector-curvature="0" />
      <path
         id="path889"
         style="color:#000000;text-indent:0;text-transform:none;opacity:0.15;stroke-width:0.095585"
         d="m 1.3237,52.916 3.337e-4,0.26458 H 17.198034 L 17.1977,52.916 H 1.3226997 Z m 0.26376,0.79373 h 15.346 c 0.05347,-0.07329 0.11377,-0.15529 0.15166,-0.26458 h -15.653 c 0.046511,0.1129 0.09263,0.17706 0.15532,0.26458 z"
         inkscape:connector-curvature="0" />
    </g>
    <path
       id="path893"
       d="m 1.852,1.852 c -0.73288,0 -1.3229,0.59001 -1.3229,1.3229 v 10.583 c 0,0.73288 0.59001,1.3229 1.3229,1.3229 h 13.229 c 0.73288,0 1.3229,-0.59001 1.3229,-1.3229 V 4.2331 c 0,-0.21986 -0.08855,-0.41825 -0.23202,-0.56171 C 16.02841,3.52792 15.83003,3.43937 15.61017,3.43937 H 7.40827 C 7.20984,3.43937 7.0114,3.373223 6.82124,3.26988 6.63107,3.16653 6.44918,3.02597 6.28382,2.87715 5.9531,2.5795 5.68852,2.24878 5.55623,2.11649 5.44106,2.00132 5.26359,1.93547 5.0865,1.8979 4.91706,1.861957 4.75314,1.85376 4.64002,1.851908 H 4.49791 Z"
       inkscape:connector-curvature="0"
       style="fill:url(#linearGradient1387);stroke-width:0.053182" />
    <path
       id="path895"
       d="M 1.852,4.3131 C 1.66878,4.3131 1.49466,4.350202 1.33628,4.41697 1.1779,4.483736 1.0352,4.58008 0.91564,4.69963 0.79608,4.81919 0.69922,4.96189 0.63246,5.12027 0.56569,5.27865 0.52911,5.45277 0.52911,5.63599 v 0.26458 c 0,-0.18322 0.03658,-0.35734 0.10335,-0.51572 C 0.69922,5.22647 0.79608,5.08377 0.91564,4.96421 1.0352,4.84465 1.1779,4.74831 1.33628,4.68155 1.49466,4.614785 1.66878,4.57768 1.852,4.57768 h 13.229 c 0.18322,0 0.35734,0.037103 0.51572,0.10387 0.15838,0.066765 0.30108,0.16311 0.42064,0.28266 0.11956,0.11956 0.21642,0.26226 0.28318,0.42064 0.06676,0.15838 0.10335,0.3325 0.10335,0.51572 V 5.63599 c 0,-0.18322 -0.03659,-0.35734 -0.10335,-0.51572 C 16.23377,4.96189 16.13692,4.81919 16.01736,4.69963 15.8978,4.58007 15.7551,4.48373 15.59672,4.41697 15.43834,4.350205 15.26422,4.3131 15.081,4.3131 Z"
       inkscape:connector-curvature="0"
       style="opacity:0.1;stroke-width:0.047568;filter:url(#filter935)" />
    <path
       id="path897"
       d="M 1.8521,4.4979 C 1.66888,4.4979 1.49476,4.535002 1.33638,4.60177 1.178,4.668537 1.03529,4.76488 0.91575,4.88445 0.79619,5.00401 0.69933,5.14671 0.63257,5.30508 0.565809,5.46344 0.52922,5.63758 0.52922,5.8208 v 7.9374 c 0,0.73289 0.59001,1.3229 1.3229,1.3229 h 13.229 c 0.73289,0 1.3229,-0.59001 1.3229,-1.3229 V 5.8208 c 0,-0.18322 -0.03659,-0.35734 -0.10335,-0.51572 C 16.2339,5.1467 16.13705,5.00399 16.01749,4.88445 15.89793,4.76489 15.75523,4.66855 15.59686,4.60177 15.43848,4.535006 15.26436,4.4979 15.08114,4.4979 h -13.229 z"
       inkscape:connector-curvature="0"
       style="fill:url(#linearGradient1401);stroke-width:0.047569" />
    <path
       id="path899"
       style="color:#000000;text-indent:0;text-transform:none;fill:url(#linearGradient1438);stroke-width:0.27278"
       d="m 0.52916,13.758 c 0.037387,0.72117 0.52916,1.3229 1.3188,1.3229 h 13.233 c 0.79328,0 1.3224,-0.64408 1.3224,-1.3229 z"
       inkscape:connector-curvature="0" />
    <path
       id="path901"
       style="color:#000000;text-indent:0;text-transform:none;opacity:0.25;fill:#1482be;stroke-width:0.095585"
       d="m 0.52997,13.758 3.337e-4,0.26458 H 16.404304 L 16.40397,13.758 H 0.5289697 Z m 0.26376,0.79373 h 15.346 c 0.05347,-0.07329 0.11377,-0.15529 0.15166,-0.26458 h -15.653 c 0.046511,0.1129 0.09263,0.17706 0.15532,0.26458 z"
       inkscape:connector-curvature="0" />
    <path
       id="path903"
       d="M 1.852,4.4978 C 1.66878,4.4978 1.49466,4.534902 1.33628,4.60167 1.1779,4.668436 1.0352,4.76478 0.91564,4.88433 0.79608,5.00389 0.69922,5.14659 0.63246,5.30497 0.56569,5.46335 0.52911,5.63747 0.52911,5.82069 v 0.26458 c 0,-0.18322 0.036581,-0.35735 0.10335,-0.51572 C 0.699225,5.41117 0.79608,5.26847 0.91564,5.14891 1.0352,5.02935 1.1779,4.93301 1.33628,4.86625 1.49466,4.799484 1.66878,4.76238 1.852,4.76238 h 13.229 c 0.18322,0 0.35734,0.037103 0.51572,0.10387 0.15838,0.066765 0.30108,0.16311 0.42064,0.28266 0.11956,0.11956 0.21642,0.26226 0.28318,0.42064 0.06676,0.15838 0.10335,0.3325 0.10335,0.51572 V 5.82069 c 0,-0.18322 -0.03659,-0.35734 -0.10335,-0.51572 C 16.23377,5.14659 16.13691,5.00389 16.01736,4.88433 15.8978,4.76477 15.7551,4.66843 15.59672,4.60167 15.43834,4.534905 15.26422,4.4978 15.081,4.4978 Z"
       inkscape:connector-curvature="0"
       style="fill:#80cbff;stroke-width:0.047568" />
  </g>
  <path
     class="st0"
     d="m 10.948874,10.038594 0.196398,0.196399 c 0.05168,0.05168 0.05168,0.134378 0,0.186062 l -0.16022,0.159186 c 0.04135,0.08269 0.07753,0.170556 0.0982,0.263587 h 0.206735 c 0.07236,0 0.134378,0.06202 0.134378,0.134378 v 0.279093 c 0,0.07236 -0.06202,0.134378 -0.134378,0.134378 h -0.222241 c -0.02584,0.08683 -0.06719,0.174691 -0.113703,0.252217 l 0.144714,0.144715 c 0.05168,0.05168 0.05168,0.134378 0,0.186061 l -0.196399,0.196399 c -0.05168,0.05168 -0.134377,0.05168 -0.186062,0 L 10.55711,12.009815 c -0.08269,0.04135 -0.170556,0.07753 -0.263587,0.0982 v 0.206735 c 0,0.07236 -0.06202,0.134378 -0.134378,0.134378 H 9.8800527 c -0.07236,0 -0.134378,-0.06202 -0.134378,-0.134378 v -0.227409 a 1.1163707,1.1163707 0 0 1 -0.252217,-0.113704 l -0.144715,0.144715 c -0.05168,0.05168 -0.134378,0.05168 -0.186061,0 l -0.196399,-0.196399 a 0.13127692,0.13127692 0 0 1 0,-0.186062 l 0.16022,-0.159186 a 1.150482,1.150482 0 0 1 -0.0982,-0.263588 h -0.206736 c -0.07236,0 -0.134378,-0.06202 -0.134378,-0.134377 v -0.279093 c 0,-0.07236 0.06202,-0.134378 0.134378,-0.134378 h 0.222241 a 1.1163707,1.1163707 0 0 1 0.113704,-0.252217 L 9.0179658,10.373506 a 0.13127692,0.13127692 0 0 1 0,-0.186062 l 0.196398,-0.1963993 c 0.05168,-0.05168 0.134378,-0.05168 0.186062,0 l 0.16022,0.1612543 c 0.08269,-0.04135 0.170557,-0.07753 0.262554,-0.0982 V 9.8473638 c 0,-0.072357 0.06202,-0.1343779 0.134378,-0.1343779 h 0.2790932 c 0.07236,0 0.134377,0.062021 0.134377,0.1343779 v 0.2222412 c 0.08786,0.02584 0.175725,0.06719 0.253251,0.113704 l 0.144715,-0.144715 c 0.04135,-0.05168 0.128176,-0.05168 0.17986,0 z m -3.3036303,0.303901 c -0.07236,0 -0.129209,-0.07236 -0.129209,-0.155051 0,-0.08683 0.05685,-0.155052 0.129209,-0.155052 h 0.64088 c 0.07236,0 0.128176,0.07236 0.128176,0.155052 0,0.08786 -0.05685,0.155051 -0.12921,0.155051 z m 0.191231,1.553616 a 0.1550515,0.1550515 0 0 1 0,0.310103 H 5.8745557 A 0.36798885,0.36798885 0 0 1 5.5086347,11.840293 V 6.4651742 c 0,-0.1033677 0.04135,-0.1901965 0.107502,-0.2573855 0.066156,-0.067189 0.155052,-0.108536 0.258419,-0.108536 H 10.350375 A 0.36798885,0.36798885 0 0 1 10.71733,6.4662079 V 8.9594357 A 0.15505148,0.15505148 0 0 1 10.562279,9.1144872 0.15505148,0.15505148 0 0 1 10.407227,8.9594357 V 6.4662079 a 0.04651544,0.04651544 0 0 0 -0.01551,-0.036179 0.04651544,0.04651544 0 0 0 -0.03618,-0.015505 H 5.8745497 a 0.04651544,0.04651544 0 0 0 -0.03618,0.015505 c -0.01034,0.00517 -0.0155,0.020674 -0.0155,0.036179 v 5.3844211 c 0,0.0155 0.0052,0.02584 0.0155,0.03618 0.01034,0.01034 0.02067,0.0155 0.03618,0.0155 h 1.961919 z M 6.4782237,9.9248897 h 0.553017 c 0.03101,0 0.05168,0.02067 0.05168,0.05168 v 0.4754913 c 0,0.03101 -0.02067,0.05168 -0.05168,0.05168 h -0.553017 c -0.03101,0 -0.05168,-0.02067 -0.05168,-0.05168 V 9.9765697 c 0,-0.03101 0.02067,-0.05168 0.05168,-0.05168 z m 0,-2.7309735 h 0.553017 c 0.03101,0 0.05168,0.020674 0.05168,0.051684 v 0.4754912 c 0,0.03101 -0.02067,0.051684 -0.05168,0.051684 h -0.553017 c -0.03101,0 -0.05168,-0.020674 -0.05168,-0.051684 V 7.2456 c 0,-0.03101 0.02067,-0.051684 0.05168,-0.051684 z m 1.16702,0.4176053 c -0.07236,0 -0.129209,-0.072357 -0.129209,-0.1550515 0,-0.086829 0.05685,-0.1550515 0.129209,-0.1550515 h 1.791362 c 0.07236,0 0.129209,0.072357 0.129209,0.1550515 0,0.088896 -0.05685,0.1550515 -0.129209,0.1550515 z m -1.006801,1.4512818 c -0.03618,0.025842 -0.08269,0.020674 -0.118872,-0.015505 l -0.01034,-0.010337 -0.165388,-0.1705566 c -0.03514,-0.036179 -0.02481,-0.093031 0.01654,-0.1343779 0.04548,-0.036179 0.107503,-0.041347 0.144715,-0.00517 l 0.08683,0.093031 0.289429,-0.2325773 c 0.03618,-0.03101 0.0982,-0.015505 0.12921,0.03101 0.03618,0.046515 0.03101,0.1137045 -0.01034,0.1447147 z m 0.919973,-0.1343779 c -0.07236,0 -0.130244,-0.072357 -0.130244,-0.1550515 0,-0.087862 0.05685,-0.1550515 0.12921,-0.1550515 h 1.791361 c 0.07236,0 0.12921,0.072357 0.12921,0.1550515 0,0.087862 -0.05685,0.1550515 -0.12921,0.1550515 z m 2.4973613,1.6052996 a 0.547849,0.547849 0 1 1 0,1.095698 0.547849,0.547849 0 0 1 0,-1.095698 z"
     clip-rule="evenodd"
     fill-rule="evenodd"
     opacity="0.15"
     id="path19"
     style="stroke-width:1.03368;opacity:1;fill:#449ed4;fill-opacity:1" />
</svg>
