<?xml version="1.0" encoding="UTF-8" standalone="no"?>
<svg
   version="1.1"
   viewBox="0 0 64 64"
   id="svg7"
   sodipodi:docname="folder-trash.svg"
   inkscape:version="1.4 (e7c3feb100, 2024-10-09)"
   xmlns:inkscape="http://www.inkscape.org/namespaces/inkscape"
   xmlns:sodipodi="http://sodipodi.sourceforge.net/DTD/sodipodi-0.dtd"
   xmlns="http://www.w3.org/2000/svg"
   xmlns:svg="http://www.w3.org/2000/svg">
  <sodipodi:namedview
     id="namedview7"
     pagecolor="#505050"
     bordercolor="#eeeeee"
     borderopacity="1"
     inkscape:showpageshadow="0"
     inkscape:pageopacity="0"
     inkscape:pagecheckerboard="0"
     inkscape:deskcolor="#505050"
     inkscape:zoom="4.1321553"
     inkscape:cx="26.741493"
     inkscape:cy="48.642896"
     inkscape:window-width="1920"
     inkscape:window-height="1007"
     inkscape:window-x="0"
     inkscape:window-y="0"
     inkscape:window-maximized="1"
     inkscape:current-layer="svg7" />
  <defs
     id="defs2">
    <style
       id="current-color-scheme"
       type="text/css">.ColorScheme-Text {
        color:#232629;
      }
      .ColorScheme-Highlight {
        color:#3daee9;
      }</style>
    <linearGradient
       id="a"
       x1="445.28"
       x2="445.28"
       y1="179.28"
       y2="200.07"
       gradientTransform="matrix(1.4723,0,0,1.4432,-547.93693,-239.75)"
       gradientUnits="userSpaceOnUse">
      <stop
         stop-opacity=".15"
         offset="0"
         id="stop1" />
      <stop
         stop-opacity="0"
         offset="1"
         id="stop2" />
    </linearGradient>
    <filter
       color-interpolation-filters="sRGB"
       height="1.0264005"
       width="1.0219998"
       y="-0.013200229"
       x="-0.010999908"
       id="filter1733">
      <feGaussianBlur
         id="feGaussianBlur869"
         stdDeviation="0.072761339" />
    </filter>
    <linearGradient
       gradientUnits="userSpaceOnUse"
       gradientTransform="matrix(0.26458,0,0,0.26458,-0.79373,-39.158)"
       y2="166"
       y1="155"
       x2="25"
       x1="25"
       id="linearGradient1387">
      <stop
         id="stop850"
         offset="0"
         stop-color="#3296d7"
         style="stop-color:#a8df8d;stop-opacity:1" />
      <stop
         id="stop852"
         offset="1"
         stop-color="#0a7db4"
         style="stop-color:#88b572;stop-opacity:1" />
    </linearGradient>
    <filter
       color-interpolation-filters="sRGB"
       height="1.2969998"
       width="1.0296998"
       y="-0.14849988"
       x="-0.014849913"
       id="filter935">
      <feGaussianBlur
         id="feGaussianBlur872"
         stdDeviation="0.098224626" />
    </filter>
    <linearGradient
       gradientUnits="userSpaceOnUse"
       gradientTransform="matrix(0.26458,0,0,0.26458,-0.79374,-39.158)"
       y2="185"
       y1="185"
       x2="65"
       x1="5"
       id="linearGradient1401">
      <stop
         id="stop855"
         offset="0"
         stop-color="#3492cb"
         style="stop-color:#88b572;stop-opacity:1" />
      <stop
         id="stop857"
         offset=".083713"
         stop-color="#6ec8fa"
         style="stop-color:#a8df8d;stop-opacity:1" />
      <stop
         id="stop859"
         offset=".91237"
         stop-color="#6ec8fa"
         style="stop-color:#a8e08d;stop-opacity:1" />
      <stop
         id="stop861"
         offset="1"
         stop-color="#3492cb"
         style="stop-color:#88b572;stop-opacity:1" />
    </linearGradient>
    <linearGradient
       gradientUnits="userSpaceOnUse"
       gradientTransform="matrix(0.18168,0,0,0.40956,9.2005,-451.88)"
       y2="1140.2"
       y1="1138.4"
       x2="-9.6169996"
       x1="-9.6169996"
       id="linearGradient1438">
      <stop
         id="stop864"
         offset="0"
         stop-opacity="0"
         stop-color="#1482be"
         style="stop-color:#86b271;stop-opacity:0;" />
      <stop
         id="stop866"
         offset="1"
         stop-color="#1482be"
         style="stop-color:#86b271;stop-opacity:1;" />
    </linearGradient>
  </defs>
  <g
     id="g905"
     transform="matrix(3.792917,0,0,3.792917,-0.11273105,-0.11255291)">
    <g
       id="g891"
       transform="translate(-0.79373,-39.158)"
       style="opacity:0.5;filter:url(#filter1733)">
      <g
         id="g885"
         style="stroke-opacity:0.95294">
        <path
           id="path879"
           d="m 10,155 c -2.77,0 -5,2.23 -5,5 v 40 c 0,2.77 2.23,5 5,5 h 50 c 2.77,0 5,-2.23 5,-5 v -36 c 0,-0.831 -0.3347,-1.5808 -0.87695,-2.123 -0.54225,-0.5422 -1.292,-0.87695 -2.123,-0.87695 h -31 c -0.75,0 -1.5,-0.25001 -2.2188,-0.64062 -0.71875,-0.39063 -1.4062,-0.92188 -2.0312,-1.4844 -1.25,-1.125 -2.25,-2.375 -2.75,-2.875 -0.43528,-0.43528 -1.1061,-0.68419 -1.7754,-0.82617 -0.64042,-0.13585 -1.26,-0.16683 -1.6875,-0.17383 h -0.53711 z"
           transform="scale(0.26458)"
           inkscape:connector-curvature="0"
           style="opacity:1;stroke-width:0.20101" />
        <path
           id="path881"
           d="M 7.4004,165 C 6.0708,165 5,166.0708 5,167.4004 v 32.6 c 0,2.77 2.23,5 5,5 h 50 c 2.77,0 5,-2.23 5,-5 v -32.6 C 65,166.0708 63.9292,165 62.5996,165 Z"
           transform="scale(0.26458)"
           inkscape:connector-curvature="0"
           style="opacity:1;stroke-width:0.17979" />
        <path
           id="path883"
           d="M 7.4004,165 C 6.0708,165 5,166.0708 5,167.4004 v 1 C 5,167.0708 6.0708,166 7.4004,166 h 55.199 c 1.3296,0 2.4004,1.0708 2.4004,2.4004 v -1 C 64.9998,166.0708 63.929,165 62.5994,165 Z"
           transform="scale(0.26458)"
           inkscape:connector-curvature="0"
           style="opacity:1;stroke-width:0.17979" />
      </g>
      <path
         id="path887"
         style="color:#000000;text-indent:0;text-transform:none;opacity:0.5;stroke-width:0.27278"
         d="m 1.3229,52.916 c 0.037387,0.72117 0.52916,1.3229 1.3188,1.3229 h 13.233 c 0.79328,0 1.3224,-0.64408 1.3224,-1.3229 z"
         inkscape:connector-curvature="0" />
      <path
         id="path889"
         style="color:#000000;text-indent:0;text-transform:none;opacity:0.15;stroke-width:0.095585"
         d="m 1.3237,52.916 3.337e-4,0.26458 H 17.198034 L 17.1977,52.916 H 1.3226997 Z m 0.26376,0.79373 h 15.346 c 0.05347,-0.07329 0.11377,-0.15529 0.15166,-0.26458 h -15.653 c 0.046511,0.1129 0.09263,0.17706 0.15532,0.26458 z"
         inkscape:connector-curvature="0" />
    </g>
    <path
       id="path893"
       d="m 1.852,1.852 c -0.73288,0 -1.3229,0.59001 -1.3229,1.3229 v 10.583 c 0,0.73288 0.59001,1.3229 1.3229,1.3229 h 13.229 c 0.73288,0 1.3229,-0.59001 1.3229,-1.3229 V 4.2331 c 0,-0.21986 -0.08855,-0.41825 -0.23202,-0.56171 C 16.02841,3.52792 15.83003,3.43937 15.61017,3.43937 H 7.40827 C 7.20984,3.43937 7.0114,3.373223 6.82124,3.26988 6.63107,3.16653 6.44918,3.02597 6.28382,2.87715 5.9531,2.5795 5.68852,2.24878 5.55623,2.11649 5.44106,2.00132 5.26359,1.93547 5.0865,1.8979 4.91706,1.861957 4.75314,1.85376 4.64002,1.851908 H 4.49791 Z"
       inkscape:connector-curvature="0"
       style="fill:url(#linearGradient1387);stroke-width:0.053182" />
    <path
       id="path895"
       d="M 1.852,4.3131 C 1.66878,4.3131 1.49466,4.350202 1.33628,4.41697 1.1779,4.483736 1.0352,4.58008 0.91564,4.69963 0.79608,4.81919 0.69922,4.96189 0.63246,5.12027 0.56569,5.27865 0.52911,5.45277 0.52911,5.63599 v 0.26458 c 0,-0.18322 0.03658,-0.35734 0.10335,-0.51572 C 0.69922,5.22647 0.79608,5.08377 0.91564,4.96421 1.0352,4.84465 1.1779,4.74831 1.33628,4.68155 1.49466,4.614785 1.66878,4.57768 1.852,4.57768 h 13.229 c 0.18322,0 0.35734,0.037103 0.51572,0.10387 0.15838,0.066765 0.30108,0.16311 0.42064,0.28266 0.11956,0.11956 0.21642,0.26226 0.28318,0.42064 0.06676,0.15838 0.10335,0.3325 0.10335,0.51572 V 5.63599 c 0,-0.18322 -0.03659,-0.35734 -0.10335,-0.51572 C 16.23377,4.96189 16.13692,4.81919 16.01736,4.69963 15.8978,4.58007 15.7551,4.48373 15.59672,4.41697 15.43834,4.350205 15.26422,4.3131 15.081,4.3131 Z"
       inkscape:connector-curvature="0"
       style="opacity:0.1;stroke-width:0.047568;filter:url(#filter935)" />
    <path
       id="path897"
       d="M 1.8521,4.4979 C 1.66888,4.4979 1.49476,4.535002 1.33638,4.60177 1.178,4.668537 1.03529,4.76488 0.91575,4.88445 0.79619,5.00401 0.69933,5.14671 0.63257,5.30508 0.565809,5.46344 0.52922,5.63758 0.52922,5.8208 v 7.9374 c 0,0.73289 0.59001,1.3229 1.3229,1.3229 h 13.229 c 0.73289,0 1.3229,-0.59001 1.3229,-1.3229 V 5.8208 c 0,-0.18322 -0.03659,-0.35734 -0.10335,-0.51572 C 16.2339,5.1467 16.13705,5.00399 16.01749,4.88445 15.89793,4.76489 15.75523,4.66855 15.59686,4.60177 15.43848,4.535006 15.26436,4.4979 15.08114,4.4979 h -13.229 z"
       inkscape:connector-curvature="0"
       style="fill:url(#linearGradient1401);stroke-width:0.047569" />
    <path
       id="path899"
       style="color:#000000;text-indent:0;text-transform:none;fill:url(#linearGradient1438);stroke-width:0.27278"
       d="m 0.52916,13.758 c 0.037387,0.72117 0.52916,1.3229 1.3188,1.3229 h 13.233 c 0.79328,0 1.3224,-0.64408 1.3224,-1.3229 z"
       inkscape:connector-curvature="0" />
    <path
       id="path901"
       style="color:#000000;text-indent:0;text-transform:none;opacity:1;fill:#90bf79;stroke-width:0.095585;fill-opacity:1"
       d="m 0.52997,13.758 3.337e-4,0.26458 H 16.404304 L 16.40397,13.758 H 0.5289697 Z m 0.26376,0.79373 h 15.346 c 0.05347,-0.07329 0.11377,-0.15529 0.15166,-0.26458 h -15.653 c 0.046511,0.1129 0.09263,0.17706 0.15532,0.26458 z"
       inkscape:connector-curvature="0" />
    <path
       id="path903"
       d="M 1.852,4.4978 C 1.66878,4.4978 1.49466,4.534902 1.33628,4.60167 1.1779,4.668436 1.0352,4.76478 0.91564,4.88433 0.79608,5.00389 0.69922,5.14659 0.63246,5.30497 0.56569,5.46335 0.52911,5.63747 0.52911,5.82069 v 0.26458 c 0,-0.18322 0.036581,-0.35735 0.10335,-0.51572 C 0.699225,5.41117 0.79608,5.26847 0.91564,5.14891 1.0352,5.02935 1.1779,4.93301 1.33628,4.86625 1.49466,4.799484 1.66878,4.76238 1.852,4.76238 h 13.229 c 0.18322,0 0.35734,0.037103 0.51572,0.10387 0.15838,0.066765 0.30108,0.16311 0.42064,0.28266 0.11956,0.11956 0.21642,0.26226 0.28318,0.42064 0.06676,0.15838 0.10335,0.3325 0.10335,0.51572 V 5.82069 c 0,-0.18322 -0.03659,-0.35734 -0.10335,-0.51572 C 16.23377,5.14659 16.13691,5.00389 16.01736,4.88433 15.8978,4.76477 15.7551,4.66843 15.59672,4.60167 15.43834,4.534905 15.26422,4.4978 15.081,4.4978 Z"
       inkscape:connector-curvature="0"
       style="fill:#b6eb9c;stroke-width:0.047568;fill-opacity:1" />
  </g>
  <path
     d="m 29.977141,23.613954 c 0.61437,0.256049 1.127,0.719094 1.51043,1.383394 l 2.73711,4.759614 -1.71286,0.970581 5.55157,0.0794 2.71323,-4.864794 -1.68715,1.000356 -1.56205,-2.661608 c -0.25684,-0.435474 -0.69129,-0.6669 -1.25443,-0.6669 h -6.29585 z m -1.45686,0.230237 c -0.97165,1e-6 -1.76712,0.460698 -2.25279,1.306059 l -2.32818,4.017259 4.88665,2.84026 3.02094,-5.220068 -0.87133,-1.458798 c -0.58796,-0.996759 -1.40647,-1.48461 -2.45522,-1.48461 z m 12.79229,7.01036 -4.88663,2.788638 3.01891,5.2221 h 1.68907 c 0.53591,1e-6 1.07437,-0.1296 1.4588,-0.335437 0.81786,-0.460057 1.40728,-1.43258 1.40728,-2.353995 0,-0.443412 -0.12831,-0.894445 -0.35926,-1.304026 l -2.32819,-4.017259 z m -15.73327,1.17903 -5.579302,0.105201 1.714888,0.97058 -1.536235,2.68742 c -0.102273,0.178898 -0.178632,0.459774 -0.178632,0.690722 0,0.230685 0.07611,0.486541 0.178632,0.66492 l 3.199509,5.499937 c -0.0251,-0.178379 -0.0258,-0.305671 -0.0258,-0.406887 0,-0.43574 0.20469,-1.12832 0.46048,-1.587859 h -0.002 l 2.73905,-4.733803 1.7407,0.998365 -2.7113,-4.888575 z m 10.12857,5.448314 -2.86414,4.785428 2.86414,4.785426 v -1.970978 h 2.99513 c 0.53722,0 0.99663,-0.256029 1.2524,-0.690722 l 3.17369,-5.525749 c -0.53695,0.408534 -1.17629,0.613315 -1.94313,0.613315 h -5.47809 v -1.996689 z m -10.48953,1.947097 -0.81775,1.456868 c -0.25579,0.434692 -0.43467,1.126694 -0.43467,1.553713 0,1.440913 1.20128,2.64423 2.65968,2.64423 h 4.65839 v -5.654811 h -6.06566 z"
     fill="#000000"
     opacity="0.15"
     id="path8"
     style="stroke-width:1.01623;opacity:1;fill:#7da668;fill-opacity:1" />
</svg>
