<?xml version="1.0" encoding="UTF-8" standalone="no"?>
<svg
   xmlns:dc="http://purl.org/dc/elements/1.1/"
   xmlns:cc="http://creativecommons.org/ns#"
   xmlns:rdf="http://www.w3.org/1999/02/22-rdf-syntax-ns#"
   xmlns:svg="http://www.w3.org/2000/svg"
   xmlns="http://www.w3.org/2000/svg"
   xmlns:xlink="http://www.w3.org/1999/xlink"
   xmlns:sodipodi="http://sodipodi.sourceforge.net/DTD/sodipodi-0.dtd"
   xmlns:inkscape="http://www.inkscape.org/namespaces/inkscape"
   width="200"
   height="200"
   version="1.1"
   id="svg60"
   sodipodi:docname="folder-root.svg"
   inkscape:version="0.92.5 (6c0c36ef5a, 2020-05-15, custom)">
  <sodipodi:namedview
     pagecolor="#ffffff"
     bordercolor="#666666"
     borderopacity="1"
     objecttolerance="10"
     gridtolerance="10"
     guidetolerance="10"
     inkscape:pageopacity="0"
     inkscape:pageshadow="2"
     inkscape:window-width="1920"
     inkscape:window-height="949"
     id="namedview62"
     showgrid="false"
     inkscape:zoom="1.18"
     inkscape:cx="78.292413"
     inkscape:cy="134.28432"
     inkscape:window-x="0"
     inkscape:window-y="36"
     inkscape:window-maximized="1"
     inkscape:current-layer="svg60" />
  <metadata
     id="metadata2">
    <rdf:RDF>
      <cc:Work
         rdf:about="">
        <dc:format>image/svg+xml</dc:format>
        <dc:type
           rdf:resource="http://purl.org/dc/dcmitype/StillImage" />
        <dc:title></dc:title>
      </cc:Work>
    </rdf:RDF>
  </metadata>
  <defs
     id="defs18">
    <linearGradient
       id="linearGradient1011"
       x1="3.9687"
       x2="3.9687"
       y1="-12.171"
       y2="-6.879"
       gradientTransform="matrix(1,0,0,0.99894,1.0583,14.153)"
       gradientUnits="userSpaceOnUse">
      <stop
         stop-color="#059bff"
         offset="0"
         id="stop4" />
      <stop
         stop-color="#005aff"
         offset="1"
         id="stop6" />
    </linearGradient>
    <linearGradient
       id="linearGradient921"
       x1="7.9373"
       x2="7.9373"
       y1="1.0583"
       y2="-8.2019"
       gradientTransform="translate(1.0583,14.42)"
       gradientUnits="userSpaceOnUse">
      <stop
         stop-color="#005aff"
         offset="0"
         id="stop9" />
      <stop
         stop-color="#059bff"
         offset="1"
         id="stop11" />
    </linearGradient>
    <style
       type="text/css"
       id="style14" />
    <style
       type="text/css"
       id="style16" />
    <style
       id="style14-6"
       type="text/css" />
    <style
       id="style16-2"
       type="text/css" />
    <style
       id="current-color-scheme"
       type="text/css">.ColorScheme-Text {
        color:#4d4d4d;
      }</style>
    <style
       type="text/css"
       id="style859">.ColorScheme-Text {
        color:#4d4d4d;
      }</style>
    <linearGradient
       id="linearGradient1387"
       x1="25"
       x2="25"
       y1="155"
       y2="166"
       gradientTransform="matrix(3.1562629,0,0,3.1562629,-10.468371,-468.12796)"
       gradientUnits="userSpaceOnUse">
      <stop
         stop-color="#3296d7"
         offset="0"
         id="stop861" />
      <stop
         stop-color="#0a7db4"
         offset="1"
         id="stop863" />
    </linearGradient>
    <linearGradient
       id="linearGradient1401"
       x1="5"
       x2="65"
       y1="185"
       y2="185"
       gradientTransform="matrix(3.1562629,0,0,3.1562629,-10.46849,-468.12796)"
       gradientUnits="userSpaceOnUse">
      <stop
         stop-color="#3492cb"
         offset="0"
         id="stop866" />
      <stop
         stop-color="#6ec8fa"
         offset=".083713"
         id="stop868" />
      <stop
         stop-color="#6ec8fa"
         offset=".91237"
         id="stop870" />
      <stop
         stop-color="#3492cb"
         offset="1"
         id="stop872" />
    </linearGradient>
    <linearGradient
       id="linearGradient1438"
       x1="-9.617"
       x2="-9.617"
       y1="1138.4"
       y2="1140.2"
       gradientTransform="matrix(2.1673212,0,0,4.8857776,108.75613,-5391.6261)"
       gradientUnits="userSpaceOnUse">
      <stop
         stop-color="#1482be"
         stop-opacity="0"
         offset="0"
         id="stop875" />
      <stop
         stop-color="#1482be"
         offset="1"
         id="stop877" />
    </linearGradient>
    <filter
       id="filter1733"
       x="-.011"
       y="-.0132"
       width="1.022"
       height="1.0264"
       color-interpolation-filters="sRGB">
      <feGaussianBlur
         stdDeviation="0.072761339"
         id="feGaussianBlur880" />
    </filter>
    <filter
       id="filter935"
       x="-.01485"
       y="-.1485"
       width="1.0297"
       height="1.297"
       color-interpolation-filters="sRGB">
      <feGaussianBlur
         stdDeviation="0.098224626"
         id="feGaussianBlur883" />
    </filter>
    <linearGradient
       id="i">
      <stop
         id="stop985"
         offset="0"
         stop-color="#03b6ec" />
      <stop
         id="stop987"
         offset="1"
         stop-color="#13c0f7" />
    </linearGradient>
    <linearGradient
       gradientUnits="userSpaceOnUse"
       y2="1082.6"
       y1="1070.2"
       x2="-26.201"
       x1="-26.201"
       id="j"
       gradientTransform="matrix(2.2139,0,0,2.2139,-149.84542,-2330.7484)">
      <stop
         id="stop990"
         offset="0"
         stop-color="#78d9fd" />
      <stop
         id="stop992"
         offset="1"
         stop-color="#7bdeff" />
    </linearGradient>
    <linearGradient
       gradientUnits="userSpaceOnUse"
       y2="1139.8"
       y1="1081.4"
       x2="-9.912"
       x1="-9.912"
       id="k"
       gradientTransform="matrix(2.2139,0,0,2.2139,-149.84542,-2330.7484)">
      <stop
         id="stop995"
         offset="0"
         stop-color="#35cafc" />
      <stop
         id="stop997"
         offset=".5"
         stop-color="#50d4ff" />
      <stop
         id="stop999"
         offset="1"
         stop-color="#4dcbf6" />
    </linearGradient>
    <linearGradient
       gradientUnits="userSpaceOnUse"
       y2="1140.2"
       y1="1138.4"
       x2="-9.617"
       x1="-9.617"
       id="l"
       gradientTransform="matrix(2.2139,0,0,2.2139,-149.84542,-2330.7484)">
      <stop
         id="stop1002"
         offset="0"
         stop-color="#3bc1f1" />
      <stop
         id="stop1004"
         offset="1"
         stop-color="#0e95c5" />
    </linearGradient>
    <linearGradient
       xlink:href="#i"
       gradientUnits="userSpaceOnUse"
       y2="14"
       y1="2"
       x2="8"
       x1="8"
       id="a" />
  </defs>
  <g
     transform="matrix(12.283 0 0 12.283 -3.9957 -3.994)"
     fill="#5e4aa6"
     stroke-width=".26458"
     id="g30">
    <circle
       cx="-330.35"
       cy="-328.38"
       r="0"
       id="circle20" />
    <circle
       cx="-312.11"
       cy="-326.25"
       r="0"
       id="circle22" />
    <circle
       cx="-306.02"
       cy="-333.07"
       r="0"
       id="circle24" />
    <circle
       cx="-308.84"
       cy="-326.01"
       r="0"
       id="circle26" />
    <circle
       cx="-328.8"
       cy="-330.45"
       r="0"
       id="circle28" />
  </g>
  <g
     transform="matrix(12.283 0 0 12.283 -271.27 -131.15)"
     fill="#5e4aa6"
     stroke-width=".26458"
     id="g42">
    <circle
       cx="-330.35"
       cy="-328.38"
       r="0"
       id="circle32" />
    <circle
       cx="-312.11"
       cy="-326.25"
       r="0"
       id="circle34" />
    <circle
       cx="-306.02"
       cy="-333.07"
       r="0"
       id="circle36" />
    <circle
       cx="-308.84"
       cy="-326.01"
       r="0"
       id="circle38" />
    <circle
       cx="-328.8"
       cy="-330.45"
       r="0"
       id="circle40" />
  </g>
  <g
     id="g902"
     transform="matrix(11.929333,0,0,11.929333,-10.468371,-468.12796)"
     style="opacity:0.5;filter:url(#filter1733)">
    <g
       id="g896"
       style="stroke-opacity:0.95293998">
      <path
         id="path890"
         d="m 10,155 c -2.77,0 -5,2.23 -5,5 v 40 c 0,2.77 2.23,5 5,5 h 50 c 2.77,0 5,-2.23 5,-5 v -36 c 0,-0.831 -0.3347,-1.5808 -0.87695,-2.123 -0.54225,-0.5422 -1.292,-0.87695 -2.123,-0.87695 h -31 c -0.75,0 -1.5,-0.25001 -2.2188,-0.64062 -0.71875,-0.39063 -1.4062,-0.92188 -2.0312,-1.4844 -1.25,-1.125 -2.25,-2.375 -2.75,-2.875 -0.43528,-0.43528 -1.1061,-0.68419 -1.7754,-0.82617 -0.64042,-0.13585 -1.26,-0.16683 -1.6875,-0.17383 h -0.53711 z"
         transform="scale(0.26458)"
         inkscape:connector-curvature="0"
         style="opacity:1;stroke-width:0.20101" />
      <path
         id="path892"
         d="M 7.4004,165 C 6.0708,165 5,166.0708 5,167.4004 v 32.6 c 0,2.77 2.23,5 5,5 h 50 c 2.77,0 5,-2.23 5,-5 v -32.6 C 65,166.0708 63.9292,165 62.5996,165 Z"
         transform="scale(0.26458)"
         inkscape:connector-curvature="0"
         style="opacity:1;stroke-width:0.17979001" />
      <path
         id="path894"
         d="M 7.4004,165 C 6.0708,165 5,166.0708 5,167.4004 v 1 C 5,167.0708 6.0708,166 7.4004,166 h 55.199 c 1.3296,0 2.4004,1.0708 2.4004,2.4004 v -1 C 64.9998,166.0708 63.929,165 62.5994,165 Z"
         transform="scale(0.26458)"
         inkscape:connector-curvature="0"
         style="opacity:1;stroke-width:0.17979001" />
    </g>
    <path
       id="path898"
       style="color:#000000;text-indent:0;text-transform:none;opacity:0.5;stroke-width:0.27278"
       d="m 1.3229,52.916 c 0.037387,0.72117 0.52916,1.3229 1.3188,1.3229 h 13.233 c 0.79328,0 1.3224,-0.64408 1.3224,-1.3229 z"
       inkscape:connector-curvature="0" />
    <path
       id="path900"
       style="color:#000000;text-indent:0;text-transform:none;opacity:0.15;stroke-width:0.095585"
       d="m 1.3237,52.916 3.337e-4,0.26458 H 17.198034 L 17.1977,52.916 H 1.3226997 Z m 0.26376,0.79373 h 15.346 c 0.05347,-0.07329 0.11377,-0.15529 0.15166,-0.26458 h -15.653 c 0.046511,0.1129 0.09263,0.17706 0.15532,0.26458 z"
       inkscape:connector-curvature="0" />
  </g>
  <path
     id="path904"
     d="m 21.093423,21.093991 c -8.74277,0 -15.7813146,7.038426 -15.7813146,15.781315 V 163.12344 c 0,8.74277 7.0384256,15.78131 15.7813146,15.78131 H 178.90657 c 8.74277,0 15.78131,-7.03842 15.78131,-15.78131 V 49.498926 c 0,-2.622783 -1.05634,-4.989444 -2.76784,-6.700826 -1.7115,-1.711501 -4.07804,-2.767844 -6.70083,-2.767844 H 87.376018 c -2.367137,0 -4.734394,-0.789089 -7.002876,-2.021902 -2.268602,-1.232897 -4.438428,-2.909684 -6.411062,-4.685007 -3.945269,-3.550766 -7.101532,-7.496035 -8.679664,-9.074167 -1.373901,-1.373901 -3.491,-2.159448 -5.603565,-2.607633 -2.021307,-0.428776 -3.976763,-0.52656 -5.326209,-0.548654 h -1.695278 z"
     inkscape:connector-curvature="0"
     style="fill:url(#linearGradient1387);stroke-width:0.63442576" />
  <path
     id="path906"
     d="M 1.852,4.3131 C 1.66878,4.3131 1.49466,4.350202 1.33628,4.41697 1.1779,4.483736 1.0352,4.58008 0.91564,4.69963 0.79608,4.81919 0.69922,4.96189 0.63246,5.12027 0.56569,5.27865 0.52911,5.45277 0.52911,5.63599 v 0.26458 c 0,-0.18322 0.03658,-0.35734 0.10335,-0.51572 C 0.69922,5.22647 0.79608,5.08377 0.91564,4.96421 1.0352,4.84465 1.1779,4.74831 1.33628,4.68155 1.49466,4.614785 1.66878,4.57768 1.852,4.57768 h 13.229 c 0.18322,0 0.35734,0.037103 0.51572,0.10387 0.15838,0.066765 0.30108,0.16311 0.42064,0.28266 0.11956,0.11956 0.21642,0.26226 0.28318,0.42064 0.06676,0.15838 0.10335,0.3325 0.10335,0.51572 V 5.63599 c 0,-0.18322 -0.03659,-0.35734 -0.10335,-0.51572 C 16.23377,4.96189 16.13692,4.81919 16.01736,4.69963 15.8978,4.58007 15.7551,4.48373 15.59672,4.41697 15.43834,4.350205 15.26422,4.3131 15.081,4.3131 Z"
     inkscape:connector-curvature="0"
     style="opacity:0.1;stroke-width:0.047568;filter:url(#filter935)"
     transform="matrix(11.929333,0,0,11.929333,-0.99970172,-0.99913381)" />
  <path
     id="path908"
     d="m 21.094616,52.657813 c -2.185692,0 -4.262828,0.442602 -6.152196,1.2391 -1.889367,0.796486 -3.591803,1.945793 -5.017835,3.372184 -1.4262711,1.426271 -2.5817463,3.128587 -3.3781485,5.017835 -0.7964142,1.889129 -1.2328966,3.966503 -1.2328966,6.152196 v 94.687892 c 0,8.74288 7.0384261,15.78131 15.7813151,15.78131 H 178.908 c 8.74289,0 15.78132,-7.03843 15.78132,-15.78131 V 68.439128 c 0,-2.185693 -0.4365,-4.262828 -1.2329,-6.152196 -0.79652,-1.889368 -1.95188,-3.591803 -3.37815,-5.017835 -1.42627,-1.426271 -3.12859,-2.575543 -5.01784,-3.372184 -1.88936,-0.79645 -3.9665,-1.2391 -6.15219,-1.2391 H 21.095093 Z"
     inkscape:connector-curvature="0"
     style="fill:url(#linearGradient1401);stroke-width:0.56746644" />
  <path
     id="path910"
     style="color:#000000;text-indent:0;text-transform:none;fill:url(#linearGradient1438);stroke-width:3.2540834"
     d="m 5.3128241,163.12463 c 0.446002,8.60308 6.3125259,15.78131 15.7324039,15.78131 H 178.90609 c 9.4633,0 15.77535,-7.68344 15.77535,-15.78131 z"
     inkscape:connector-curvature="0" />
  <path
     id="path912"
     style="color:#000000;text-indent:0;text-transform:none;opacity:0.25;fill:#1482be;stroke-width:1.14026535"
     d="m 5.3224869,163.12463 0.00398,3.15626 H 194.6927 l -0.004,-3.15626 H 5.310554 Z m 3.1464809,9.46867 H 191.53651 c 0.63786,-0.8743 1.3572,-1.85251 1.8092,-3.15626 H 6.6158652 c 0.5548452,1.34682 1.1050141,2.1122 1.852864,3.15626 z"
     inkscape:connector-curvature="0" />
  <path
     id="path914"
     d="m 21.093423,52.65662 c -2.185692,0 -4.262828,0.442602 -6.152196,1.2391 -1.889367,0.796474 -3.591683,1.945793 -5.0179543,3.371945 -1.426271,1.426271 -2.5817462,3.128587 -3.3781485,5.017955 -0.7965215,1.889368 -1.2328965,3.966503 -1.2328965,6.152195 v 3.156263 c 0,-2.185692 0.4363869,-4.262947 1.2328965,-6.152195 0.7964619,-1.889368 1.9518775,-3.591684 3.3781485,-5.017955 1.4262713,-1.426271 3.1285873,-2.575543 5.0179543,-3.371945 1.889368,-0.796474 3.966504,-1.2391 6.152196,-1.2391 H 178.90657 c 2.18569,0 4.26283,0.442614 6.15219,1.2391 1.88937,0.796462 3.59169,1.945793 5.01796,3.371945 1.42627,1.426271 2.58175,3.128587 3.37815,5.017955 0.7964,1.889368 1.23289,3.966503 1.23289,6.152195 v -3.156263 c 0,-2.185692 -0.43649,-4.262827 -1.23289,-6.152195 -0.79652,-1.889368 -1.952,-3.591684 -3.37815,-5.017955 -1.42627,-1.426271 -3.12859,-2.575543 -5.01796,-3.371945 -1.88936,-0.796462 -3.9665,-1.2391 -6.15219,-1.2391 z"
     inkscape:connector-curvature="0"
     style="fill:#80cbff;stroke-width:0.56745452" />
  <g
     id="g952"
     style="fill:#5e4aa6;stroke-width:0.26458001"
     transform="matrix(11.929333,0,0,11.929333,-0.99970172,-0.99913381)">
    <g
       id="g946"
       transform="translate(-3.2526e-7,4.7281e-5)">
      <g
         id="g940"
         transform="translate(-3.2526e-7,4.7281e-5)">
        <g
           id="g934"
           transform="translate(-3.2526e-7,4.7281e-5)">
          <g
             id="g928"
             transform="translate(-3.2526e-7,4.7281e-5)">
            <g
               id="g922"
               transform="translate(-3.2526e-7,4.7281e-5)">
              <circle
                 id="circle916"
                 r="0"
                 cy="-325.31"
                 cx="-284.20001" />
              <circle
                 id="circle918"
                 r="0"
                 cy="-325.31"
                 cx="-284.20001" />
              <circle
                 id="circle920"
                 r="0"
                 cy="-326.53"
                 cx="-317.64999" />
            </g>
            <circle
               id="circle924"
               r="0"
               cy="-325.38"
               cx="-281.60001" />
            <circle
               id="circle926"
               r="0"
               cy="-325.38"
               cx="-281.60001" />
          </g>
          <circle
             id="circle930"
             r="0"
             cy="-325.16"
             cx="-283.03" />
          <circle
             id="circle932"
             r="0"
             cy="-325.16"
             cx="-283.03" />
        </g>
        <circle
           id="circle936"
           r="0"
           cy="-325.66"
           cx="-283.95001" />
        <circle
           id="circle938"
           r="0"
           cy="-325.66"
           cx="-283.95001" />
      </g>
      <circle
         id="circle942"
         r="0"
         cy="-325.72"
         cx="-277.78" />
      <circle
         id="circle944"
         r="0"
         cy="-325.72"
         cx="-277.78" />
    </g>
    <circle
       id="circle948"
       r="0"
       cy="-325.41"
       cx="-280.04999" />
    <circle
       id="circle950"
       r="0"
       cy="-325.41"
       cx="-280.04999" />
  </g>
  <g
     style="color:#4d4d4d;opacity:0.7;fill:#328cc3;fill-opacity:1;stroke-width:0.15789001"
     class="ColorScheme-Text"
     transform="matrix(5.8333333,0,0,5.8333333,53.333334,61.007041)"
     id="g1022">
    <path
       style="fill:#328cc3;fill-opacity:1"
       inkscape:connector-curvature="0"
       d="M 10,2 H 8 L 2,14 h 2 z"
       id="path1018" />
    <rect
       style="fill:#328cc3;fill-opacity:1"
       x="8"
       y="13"
       width="6"
       height="1"
       id="rect1020" />
  </g>
</svg>
