<?xml version="1.0" encoding="UTF-8" standalone="no"?>
<svg
   width="64"
   height="64"
   version="1.1"
   viewBox="0 0 64 64"
   id="svg7"
   sodipodi:docname="folder-sign.svg"
   inkscape:version="1.4 (e7c3feb100, 2024-10-09)"
   xmlns:inkscape="http://www.inkscape.org/namespaces/inkscape"
   xmlns:sodipodi="http://sodipodi.sourceforge.net/DTD/sodipodi-0.dtd"
   xmlns="http://www.w3.org/2000/svg"
   xmlns:svg="http://www.w3.org/2000/svg">
  <sodipodi:namedview
     id="namedview7"
     pagecolor="#505050"
     bordercolor="#eeeeee"
     borderopacity="1"
     inkscape:showpageshadow="0"
     inkscape:pageopacity="0"
     inkscape:pagecheckerboard="0"
     inkscape:deskcolor="#505050"
     inkscape:zoom="5.84375"
     inkscape:cx="21.647059"
     inkscape:cy="31.486631"
     inkscape:window-width="1920"
     inkscape:window-height="1007"
     inkscape:window-x="0"
     inkscape:window-y="0"
     inkscape:window-maximized="1"
     inkscape:current-layer="svg7" />
  <defs
     id="defs2">
    <style
       id="current-color-scheme"
       type="text/css">.ColorScheme-Text {
      color:#333333;
    }
    .ColorScheme-Highlight {
      color:#60c0f0;
    }</style>
    <linearGradient
       id="linearGradient946"
       x1="445.28"
       x2="445.28"
       y1="181.8"
       y2="200.07"
       gradientTransform="matrix(1.4724,0,0,1.4432,-550.55862,-239.75)"
       gradientUnits="userSpaceOnUse">
      <stop
         stop-color="#ffffff"
         stop-opacity="0"
         offset="0"
         id="stop1" />
      <stop
         stop-color="#ffffff"
         offset="1"
         id="stop2" />
    </linearGradient>
    <filter
       color-interpolation-filters="sRGB"
       height="1.0264005"
       width="1.0219998"
       y="-0.013200229"
       x="-0.010999908"
       id="filter1733">
      <feGaussianBlur
         id="feGaussianBlur869"
         stdDeviation="0.072761339" />
    </filter>
    <linearGradient
       gradientUnits="userSpaceOnUse"
       gradientTransform="matrix(0.26458,0,0,0.26458,-0.79373,-39.158)"
       y2="166"
       y1="155"
       x2="25"
       x1="25"
       id="linearGradient1387">
      <stop
         id="stop850"
         offset="0"
         stop-color="#3296d7" />
      <stop
         id="stop852"
         offset="1"
         stop-color="#0a7db4" />
    </linearGradient>
    <filter
       color-interpolation-filters="sRGB"
       height="1.2969998"
       width="1.0296998"
       y="-0.14849988"
       x="-0.014849913"
       id="filter935">
      <feGaussianBlur
         id="feGaussianBlur872"
         stdDeviation="0.098224626" />
    </filter>
    <linearGradient
       gradientUnits="userSpaceOnUse"
       gradientTransform="matrix(0.26458,0,0,0.26458,-0.79374,-39.158)"
       y2="185"
       y1="185"
       x2="65"
       x1="5"
       id="linearGradient1401">
      <stop
         id="stop855"
         offset="0"
         stop-color="#3492cb" />
      <stop
         id="stop857"
         offset=".083713"
         stop-color="#6ec8fa" />
      <stop
         id="stop859"
         offset=".91237"
         stop-color="#6ec8fa" />
      <stop
         id="stop861"
         offset="1"
         stop-color="#3492cb" />
    </linearGradient>
    <linearGradient
       gradientUnits="userSpaceOnUse"
       gradientTransform="matrix(0.18168,0,0,0.40956,9.2005,-451.88)"
       y2="1140.2"
       y1="1138.4"
       x2="-9.6169996"
       x1="-9.6169996"
       id="linearGradient1438">
      <stop
         id="stop864"
         offset="0"
         stop-opacity="0"
         stop-color="#1482be" />
      <stop
         id="stop866"
         offset="1"
         stop-color="#1482be" />
    </linearGradient>
  </defs>
  <g
     id="g905"
     transform="matrix(3.792917,0,0,3.792917,-0.11273105,-0.11255291)">
    <g
       id="g891"
       transform="translate(-0.79373,-39.158)"
       style="opacity:0.5;filter:url(#filter1733)">
      <g
         id="g885"
         style="stroke-opacity:0.95294">
        <path
           id="path879"
           d="m 10,155 c -2.77,0 -5,2.23 -5,5 v 40 c 0,2.77 2.23,5 5,5 h 50 c 2.77,0 5,-2.23 5,-5 v -36 c 0,-0.831 -0.3347,-1.5808 -0.87695,-2.123 -0.54225,-0.5422 -1.292,-0.87695 -2.123,-0.87695 h -31 c -0.75,0 -1.5,-0.25001 -2.2188,-0.64062 -0.71875,-0.39063 -1.4062,-0.92188 -2.0312,-1.4844 -1.25,-1.125 -2.25,-2.375 -2.75,-2.875 -0.43528,-0.43528 -1.1061,-0.68419 -1.7754,-0.82617 -0.64042,-0.13585 -1.26,-0.16683 -1.6875,-0.17383 h -0.53711 z"
           transform="scale(0.26458)"
           inkscape:connector-curvature="0"
           style="opacity:1;stroke-width:0.20101" />
        <path
           id="path881"
           d="M 7.4004,165 C 6.0708,165 5,166.0708 5,167.4004 v 32.6 c 0,2.77 2.23,5 5,5 h 50 c 2.77,0 5,-2.23 5,-5 v -32.6 C 65,166.0708 63.9292,165 62.5996,165 Z"
           transform="scale(0.26458)"
           inkscape:connector-curvature="0"
           style="opacity:1;stroke-width:0.17979" />
        <path
           id="path883"
           d="M 7.4004,165 C 6.0708,165 5,166.0708 5,167.4004 v 1 C 5,167.0708 6.0708,166 7.4004,166 h 55.199 c 1.3296,0 2.4004,1.0708 2.4004,2.4004 v -1 C 64.9998,166.0708 63.929,165 62.5994,165 Z"
           transform="scale(0.26458)"
           inkscape:connector-curvature="0"
           style="opacity:1;stroke-width:0.17979" />
      </g>
      <path
         id="path887"
         style="color:#000000;text-indent:0;text-transform:none;opacity:0.5;stroke-width:0.27278"
         d="m 1.3229,52.916 c 0.037387,0.72117 0.52916,1.3229 1.3188,1.3229 h 13.233 c 0.79328,0 1.3224,-0.64408 1.3224,-1.3229 z"
         inkscape:connector-curvature="0" />
      <path
         id="path889"
         style="color:#000000;text-indent:0;text-transform:none;opacity:0.15;stroke-width:0.095585"
         d="m 1.3237,52.916 3.337e-4,0.26458 H 17.198034 L 17.1977,52.916 H 1.3226997 Z m 0.26376,0.79373 h 15.346 c 0.05347,-0.07329 0.11377,-0.15529 0.15166,-0.26458 h -15.653 c 0.046511,0.1129 0.09263,0.17706 0.15532,0.26458 z"
         inkscape:connector-curvature="0" />
    </g>
    <path
       id="path893"
       d="m 1.852,1.852 c -0.73288,0 -1.3229,0.59001 -1.3229,1.3229 v 10.583 c 0,0.73288 0.59001,1.3229 1.3229,1.3229 h 13.229 c 0.73288,0 1.3229,-0.59001 1.3229,-1.3229 V 4.2331 c 0,-0.21986 -0.08855,-0.41825 -0.23202,-0.56171 C 16.02841,3.52792 15.83003,3.43937 15.61017,3.43937 H 7.40827 C 7.20984,3.43937 7.0114,3.373223 6.82124,3.26988 6.63107,3.16653 6.44918,3.02597 6.28382,2.87715 5.9531,2.5795 5.68852,2.24878 5.55623,2.11649 5.44106,2.00132 5.26359,1.93547 5.0865,1.8979 4.91706,1.861957 4.75314,1.85376 4.64002,1.851908 H 4.49791 Z"
       inkscape:connector-curvature="0"
       style="fill:url(#linearGradient1387);stroke-width:0.053182" />
    <path
       id="path895"
       d="M 1.852,4.3131 C 1.66878,4.3131 1.49466,4.350202 1.33628,4.41697 1.1779,4.483736 1.0352,4.58008 0.91564,4.69963 0.79608,4.81919 0.69922,4.96189 0.63246,5.12027 0.56569,5.27865 0.52911,5.45277 0.52911,5.63599 v 0.26458 c 0,-0.18322 0.03658,-0.35734 0.10335,-0.51572 C 0.69922,5.22647 0.79608,5.08377 0.91564,4.96421 1.0352,4.84465 1.1779,4.74831 1.33628,4.68155 1.49466,4.614785 1.66878,4.57768 1.852,4.57768 h 13.229 c 0.18322,0 0.35734,0.037103 0.51572,0.10387 0.15838,0.066765 0.30108,0.16311 0.42064,0.28266 0.11956,0.11956 0.21642,0.26226 0.28318,0.42064 0.06676,0.15838 0.10335,0.3325 0.10335,0.51572 V 5.63599 c 0,-0.18322 -0.03659,-0.35734 -0.10335,-0.51572 C 16.23377,4.96189 16.13692,4.81919 16.01736,4.69963 15.8978,4.58007 15.7551,4.48373 15.59672,4.41697 15.43834,4.350205 15.26422,4.3131 15.081,4.3131 Z"
       inkscape:connector-curvature="0"
       style="opacity:0.1;stroke-width:0.047568;filter:url(#filter935)" />
    <path
       id="path897"
       d="M 1.8521,4.4979 C 1.66888,4.4979 1.49476,4.535002 1.33638,4.60177 1.178,4.668537 1.03529,4.76488 0.91575,4.88445 0.79619,5.00401 0.69933,5.14671 0.63257,5.30508 0.565809,5.46344 0.52922,5.63758 0.52922,5.8208 v 7.9374 c 0,0.73289 0.59001,1.3229 1.3229,1.3229 h 13.229 c 0.73289,0 1.3229,-0.59001 1.3229,-1.3229 V 5.8208 c 0,-0.18322 -0.03659,-0.35734 -0.10335,-0.51572 C 16.2339,5.1467 16.13705,5.00399 16.01749,4.88445 15.89793,4.76489 15.75523,4.66855 15.59686,4.60177 15.43848,4.535006 15.26436,4.4979 15.08114,4.4979 h -13.229 z"
       inkscape:connector-curvature="0"
       style="fill:url(#linearGradient1401);stroke-width:0.047569" />
    <path
       id="path899"
       style="color:#000000;text-indent:0;text-transform:none;fill:url(#linearGradient1438);stroke-width:0.27278"
       d="m 0.52916,13.758 c 0.037387,0.72117 0.52916,1.3229 1.3188,1.3229 h 13.233 c 0.79328,0 1.3224,-0.64408 1.3224,-1.3229 z"
       inkscape:connector-curvature="0" />
    <path
       id="path901"
       style="color:#000000;text-indent:0;text-transform:none;opacity:0.25;fill:#1482be;stroke-width:0.095585"
       d="m 0.52997,13.758 3.337e-4,0.26458 H 16.404304 L 16.40397,13.758 H 0.5289697 Z m 0.26376,0.79373 h 15.346 c 0.05347,-0.07329 0.11377,-0.15529 0.15166,-0.26458 h -15.653 c 0.046511,0.1129 0.09263,0.17706 0.15532,0.26458 z"
       inkscape:connector-curvature="0" />
    <path
       id="path903"
       d="M 1.852,4.4978 C 1.66878,4.4978 1.49466,4.534902 1.33628,4.60167 1.1779,4.668436 1.0352,4.76478 0.91564,4.88433 0.79608,5.00389 0.69922,5.14659 0.63246,5.30497 0.56569,5.46335 0.52911,5.63747 0.52911,5.82069 v 0.26458 c 0,-0.18322 0.036581,-0.35735 0.10335,-0.51572 C 0.699225,5.41117 0.79608,5.26847 0.91564,5.14891 1.0352,5.02935 1.1779,4.93301 1.33628,4.86625 1.49466,4.799484 1.66878,4.76238 1.852,4.76238 h 13.229 c 0.18322,0 0.35734,0.037103 0.51572,0.10387 0.15838,0.066765 0.30108,0.16311 0.42064,0.28266 0.11956,0.11956 0.21642,0.26226 0.28318,0.42064 0.06676,0.15838 0.10335,0.3325 0.10335,0.51572 V 5.82069 c 0,-0.18322 -0.03659,-0.35734 -0.10335,-0.51572 C 16.23377,5.14659 16.13691,5.00389 16.01736,4.88433 15.8978,4.76477 15.7551,4.66843 15.59672,4.60167 15.43834,4.534905 15.26422,4.4978 15.081,4.4978 Z"
       inkscape:connector-curvature="0"
       style="fill:#80cbff;stroke-width:0.047568" />
  </g>
  <path
     d="m 40.070381,22.849616 c -0.11364,-0.0012 -0.2302,0.03008 -0.34011,0.100127 -0.0587,0.04069 -0.31366,0.346309 -0.5642,0.680217 l -0.45613,0.613468 -0.16528,-0.112838 c -0.23132,-0.152547 -0.45453,-0.186283 -0.66273,-0.09218 -0.1439,0.0648 -0.48114,0.500174 -2.6938,3.442421 -1.39642,1.854863 -2.53196,3.386925 -2.52854,3.410605 0.003,0.01976 0.5698,0.462515 1.25556,0.977434 l 1.25394,0.942445 1.64964,-2.198007 c 0.90794,-1.209181 1.6634,-2.187754 1.68146,-2.174165 0.0587,0.04394 0.16567,0.99322 0.14463,1.298445 -0.008,0.166502 -0.0707,0.465705 -0.13509,0.664325 -0.1148,0.354918 -0.1273,0.375716 -2.17254,3.108635 -1.13114,1.510906 -2.07294,2.794134 -2.08994,2.844829 -0.0486,0.139861 0.006,0.40147 0.11125,0.551487 0.17692,0.252919 0.61453,0.33285 0.86294,0.152571 0.17164,-0.125238 4.22269,-5.578422 4.3515,-5.862897 0.37628,-0.811152 0.4542,-1.849818 0.21614,-2.871844 -0.094,-0.405645 -0.21704,-0.795569 -0.33692,-1.072802 -0.0349,-0.07568 0.0232,-0.172524 0.40209,-0.681804 0.35804,-0.486145 0.44013,-0.622662 0.44659,-0.748552 0.0142,-0.267924 -0.0677,-0.417062 -0.33057,-0.62141 l -0.24475,-0.190718 0.48632,-0.653194 c 0.39866,-0.540233 0.48485,-0.681494 0.49109,-0.80736 0.0181,-0.401275 -0.29163,-0.695645 -0.63253,-0.69929 z m -8.19249,9.059088 c -0.012,0.0017 -1.49983,1.978792 -3.30889,4.388039 -2.909594,3.879631 -3.323449,4.453869 -3.591812,4.947469 -0.533146,0.98256 -1.113325,2.48061 -1.498701,3.849278 -0.249802,0.877836 -0.262349,0.79836 0.08582,0.611873 1.073941,-0.580032 2.476786,-1.521565 3.293021,-2.213874 0.798122,-0.677727 0.933982,-0.850007 4.314892,-5.352698 l 3.25168,-4.335555 -1.26345,-0.948792 c -0.69491,-0.521786 -1.27062,-0.947326 -1.28258,-0.945618 z m 0.36554,10.041243 c -0.15969,-0.009 -0.3241,-0.0041 -0.4307,0.01748 v 0.0016 c -0.50531,0.106596 -1.068,0.544424 -1.33978,1.04896 -0.0732,0.131008 -0.18981,0.427835 -0.26224,0.651606 -0.0683,0.22784 -0.13179,0.417867 -0.13667,0.42275 -0.0391,0.04882 -1.00543,0.280601 -1.5734,0.378247 -1.33531,0.233536 -1.699855,0.320579 -1.830863,0.441823 -0.257134,0.237604 -0.05777,0.476902 0.30673,0.370305 0.09683,-0.02929 0.509573,-0.111235 0.907453,-0.179587 0.39872,-0.06835 1.0051,-0.194461 1.3493,-0.271764 0.34502,-0.08219 0.63696,-0.137022 0.65161,-0.122375 0.0147,0.01465 -0.0431,0.291155 -0.13509,0.616641 l -0.16528,0.583271 -0.36554,0.160514 c -0.19936,0.08707 -0.48518,0.23758 -0.63572,0.340108 -0.45649,0.301075 -0.54469,0.679297 -0.22408,0.921776 0.17494,0.131008 0.66044,0.12624 0.96148,-0.0048 0.2669,-0.121243 0.41705,-0.290813 0.62618,-0.73266 0.11148,-0.228654 0.19946,-0.349304 0.267,-0.363951 0.0537,-0.01465 0.53579,-0.111796 1.06963,-0.224089 0.53461,-0.106596 1.01967,-0.209442 1.08232,-0.224089 0.10172,-0.02441 0.11194,-0.01489 0.0826,0.07787 -0.0195,0.05859 -0.10748,0.229305 -0.20024,0.379842 -0.0919,0.150537 -0.16529,0.329669 -0.16529,0.402089 0,0.150537 0.12714,0.301294 0.22886,0.262236 0.0391,-0.01465 0.0916,-0.02861 0.11601,-0.02861 0.0244,0 0.1318,-0.07799 0.2384,-0.174819 0.19936,-0.179831 0.68022,-1.059701 0.68022,-1.244414 0,-0.09195 0.0729,-0.115328 0.11601,-0.04291 0.0147,0.02441 0.1251,0.06847 0.24634,0.09695 0.17007,0.04394 0.21932,0.07685 0.21932,0.154158 0,0.150537 0.24836,0.370086 0.46725,0.413213 0.17007,0.02929 0.38869,-0.0049 0.62141,-0.101715 0.0822,-0.03418 0.0873,-0.02441 0.0588,0.101715 -0.0195,0.07812 -0.16096,0.326007 -0.31149,0.55466 -0.32061,0.476024 -0.70882,1.233348 -0.81054,1.568599 -0.0822,0.286427 -0.0488,0.500622 0.10172,0.602336 0.13589,0.08707 0.35883,0.04747 0.47519,-0.07947 0.10171,-0.111479 0.65638,-1.281195 0.85977,-1.814992 0.14566,-0.374309 0.21317,-0.476527 0.54354,-0.826409 0.27178,-0.286427 0.36055,-0.354641 0.30196,-0.243162 -0.0968,0.209125 -0.0923,0.368833 0.0143,0.465665 0.22784,0.209124 0.55826,0.0051 0.84553,-0.519696 0.17007,-0.310839 0.2967,-0.402284 0.92813,-0.69929 l 0.32898,-0.150985 -0.0334,0.179587 c -0.0195,0.09683 -0.13157,0.374268 -0.24793,0.611873 -0.22866,0.480906 -0.27099,0.786911 -0.1351,1.04896 0.0919,0.179831 0.18899,0.185616 0.63572,0.0302 0.62168,-0.209125 1.43254,-0.69121 1.6433,-0.967914 0.28642,-0.388956 0.37438,-0.762288 0.20024,-0.888414 -0.17983,-0.131008 -0.2815,-0.07778 -0.51015,0.257468 -0.30596,0.456494 -0.68439,0.811884 -1.04896,0.991755 -0.17007,0.08707 -0.3207,0.144972 -0.33534,0.130325 -0.0195,-0.01953 0.36859,-1.063688 0.5769,-1.554358 0.0439,-0.101715 0.0795,-0.22841 0.0795,-0.281302 0,-0.13589 -0.17061,-0.290838 -0.31626,-0.290838 -0.0684,0 -0.38981,0.130423 -0.71042,0.295607 -0.66562,0.330368 -0.62142,0.359442 -0.45136,-0.262236 0.10172,-0.38326 0.0683,-0.485747 -0.16528,-0.510159 -0.22377,-0.02441 -0.31068,0.04948 -0.51493,0.413213 -0.131,0.247369 -0.30523,0.452019 -0.64048,0.762858 -0.44185,0.407671 -0.46167,0.422065 -0.5642,0.349645 -0.15542,-0.111479 -0.24303,-0.0966 -0.62141,0.09218 -0.36942,0.184714 -0.49132,0.209239 -0.58327,0.09695 -0.0781,-0.09195 0.0446,-0.140756 0.71995,-0.271764 0.65586,-0.126126 0.73743,-0.161311 0.73743,-0.297201 0,-0.21889 -0.18002,-0.426607 -0.50063,-0.567371 -0.55414,-0.24737 -0.61573,-0.262903 -0.85822,-0.200247 -0.26202,0.06835 -0.65116,0.441912 -0.70405,0.675448 -0.0537,0.243301 -0.21932,0.169953 -0.21932,-0.09695 0,-0.111479 -0.13644,-0.393 -0.21456,-0.441823 -0.16518,-0.111479 -0.43147,0.131773 -0.63571,0.578503 l -0.16052,0.344877 -0.35918,0.07787 c -0.46626,0.101715 -1.8211,0.373455 -2.00093,0.408444 -0.11636,0.01953 -0.13566,0.0096 -0.11125,-0.05881 0.0195,-0.04882 0.0773,-0.261072 0.13509,-0.479961 0.15054,-0.602149 0.19514,-0.680787 0.41322,-0.75809 0.26201,-0.09195 1.14693,-0.471678 1.37477,-0.588039 0.10659,-0.05371 0.32443,-0.218295 0.48473,-0.36395 0.49067,-0.456494 0.56763,-0.879545 0.21773,-1.190384 -0.0968,-0.08219 -0.22353,-0.16948 -0.2813,-0.193892 -0.0895,-0.03418 -0.24398,-0.0577 -0.40368,-0.06675 z m -0.4895,0.567379 c 0.0675,-0.0038 0.14724,-0.0013 0.24793,0.0048 0.25714,0.01465 0.35987,0.03872 0.43229,0.116019 0.0968,0.09683 0.0966,0.101356 0.01,0.28607 -0.0586,0.116361 -0.19388,0.25313 -0.36395,0.370305 -0.29619,0.204243 -1.22464,0.577697 -1.25393,0.510159 -0.0391,-0.111479 0.25858,-0.777708 0.44817,-0.991756 0.18919,-0.214821 0.27762,-0.284239 0.47997,-0.295606 z m -2.49363,4.066947 c 0.037,0.0024 0.0377,0.03474 0.007,0.09536 -0.0635,0.121244 -0.22908,0.208995 -0.32103,0.174819 -0.1066,-0.04394 -0.0779,-0.101243 0.0922,-0.189124 0.11188,-0.05574 0.18547,-0.08349 0.2225,-0.08105 z"
     fill="#000000"
     opacity="0.15"
     id="path8"
     style="opacity:1;fill:#449ed4;fill-opacity:1;stroke-width:0.813715" />
</svg>
