<?xml version="1.0" encoding="UTF-8" standalone="no"?>
<svg
   version="1.1"
   viewBox="0 0 64 64"
   id="svg7"
   sodipodi:docname="folder-deb.svg"
   inkscape:version="1.4 (e7c3feb100, 2024-10-09)"
   xmlns:inkscape="http://www.inkscape.org/namespaces/inkscape"
   xmlns:sodipodi="http://sodipodi.sourceforge.net/DTD/sodipodi-0.dtd"
   xmlns="http://www.w3.org/2000/svg"
   xmlns:svg="http://www.w3.org/2000/svg">
  <sodipodi:namedview
     id="namedview7"
     pagecolor="#505050"
     bordercolor="#eeeeee"
     borderopacity="1"
     inkscape:showpageshadow="0"
     inkscape:pageopacity="0"
     inkscape:pagecheckerboard="0"
     inkscape:deskcolor="#505050"
     inkscape:zoom="4.1321553"
     inkscape:cx="31.823586"
     inkscape:cy="-0.24200446"
     inkscape:window-width="1920"
     inkscape:window-height="1007"
     inkscape:window-x="0"
     inkscape:window-y="0"
     inkscape:window-maximized="1"
     inkscape:current-layer="svg7" />
  <defs
     id="defs2">
    <style
       id="current-color-scheme"
       type="text/css">.ColorScheme-Text {
        color:#232629;
      }
      .ColorScheme-Highlight {
        color:#3daee9;
      }</style>
    <linearGradient
       id="a"
       x1="445.28"
       x2="445.28"
       y1="179.28"
       y2="200.07"
       gradientTransform="matrix(1.4723,0,0,1.4432,-548.04128,-239.75)"
       gradientUnits="userSpaceOnUse">
      <stop
         stop-opacity=".15"
         offset="0"
         id="stop1" />
      <stop
         stop-opacity="0"
         offset="1"
         id="stop2" />
    </linearGradient>
    <filter
       color-interpolation-filters="sRGB"
       height="1.0264005"
       width="1.0219998"
       y="-0.013200229"
       x="-0.010999908"
       id="filter1733">
      <feGaussianBlur
         id="feGaussianBlur869"
         stdDeviation="0.072761339" />
    </filter>
    <linearGradient
       gradientUnits="userSpaceOnUse"
       gradientTransform="matrix(0.26458,0,0,0.26458,-0.79373,-39.158)"
       y2="166"
       y1="155"
       x2="25"
       x1="25"
       id="linearGradient1387">
      <stop
         id="stop850"
         offset="0"
         stop-color="#3296d7"
         style="stop-color:#e25378;stop-opacity:1" />
      <stop
         id="stop852"
         offset="1"
         stop-color="#0a7db4"
         style="stop-color:#b94462;stop-opacity:1" />
    </linearGradient>
    <filter
       color-interpolation-filters="sRGB"
       height="1.2969998"
       width="1.0296998"
       y="-0.14849988"
       x="-0.014849913"
       id="filter935">
      <feGaussianBlur
         id="feGaussianBlur872"
         stdDeviation="0.098224626" />
    </filter>
    <linearGradient
       gradientUnits="userSpaceOnUse"
       gradientTransform="matrix(0.26458,0,0,0.26458,-0.79374,-39.158)"
       y2="185"
       y1="185"
       x2="65"
       x1="5"
       id="linearGradient1401">
      <stop
         id="stop855"
         offset="0"
         stop-color="#3492cb"
         style="stop-color:#b94462;stop-opacity:1" />
      <stop
         id="stop857"
         offset=".083713"
         stop-color="#6ec8fa"
         style="stop-color:#e5547a;stop-opacity:1" />
      <stop
         id="stop859"
         offset=".91237"
         stop-color="#6ec8fa"
         style="stop-color:#e6547a;stop-opacity:1" />
      <stop
         id="stop861"
         offset="1"
         stop-color="#3492cb"
         style="stop-color:#b94462;stop-opacity:1" />
    </linearGradient>
    <linearGradient
       gradientUnits="userSpaceOnUse"
       gradientTransform="matrix(0.18168,0,0,0.40956,9.2005,-451.88)"
       y2="1140.2"
       y1="1138.4"
       x2="-9.6169996"
       x1="-9.6169996"
       id="linearGradient1438">
      <stop
         id="stop864"
         offset="0"
         stop-opacity="0"
         stop-color="#1482be"
         style="stop-color:#c44869;stop-opacity:0;" />
      <stop
         id="stop866"
         offset="1"
         stop-color="#1482be"
         style="stop-color:#b44262;stop-opacity:1;" />
    </linearGradient>
  </defs>
  <g
     id="g905"
     transform="matrix(3.792917,0,0,3.792917,-0.11273105,-0.11255291)">
    <g
       id="g891"
       transform="translate(-0.79373,-39.158)"
       style="opacity:0.5;filter:url(#filter1733)">
      <g
         id="g885"
         style="stroke-opacity:0.95294">
        <path
           id="path879"
           d="m 10,155 c -2.77,0 -5,2.23 -5,5 v 40 c 0,2.77 2.23,5 5,5 h 50 c 2.77,0 5,-2.23 5,-5 v -36 c 0,-0.831 -0.3347,-1.5808 -0.87695,-2.123 -0.54225,-0.5422 -1.292,-0.87695 -2.123,-0.87695 h -31 c -0.75,0 -1.5,-0.25001 -2.2188,-0.64062 -0.71875,-0.39063 -1.4062,-0.92188 -2.0312,-1.4844 -1.25,-1.125 -2.25,-2.375 -2.75,-2.875 -0.43528,-0.43528 -1.1061,-0.68419 -1.7754,-0.82617 -0.64042,-0.13585 -1.26,-0.16683 -1.6875,-0.17383 h -0.53711 z"
           transform="scale(0.26458)"
           inkscape:connector-curvature="0"
           style="opacity:1;stroke-width:0.20101" />
        <path
           id="path881"
           d="M 7.4004,165 C 6.0708,165 5,166.0708 5,167.4004 v 32.6 c 0,2.77 2.23,5 5,5 h 50 c 2.77,0 5,-2.23 5,-5 v -32.6 C 65,166.0708 63.9292,165 62.5996,165 Z"
           transform="scale(0.26458)"
           inkscape:connector-curvature="0"
           style="opacity:1;stroke-width:0.17979" />
        <path
           id="path883"
           d="M 7.4004,165 C 6.0708,165 5,166.0708 5,167.4004 v 1 C 5,167.0708 6.0708,166 7.4004,166 h 55.199 c 1.3296,0 2.4004,1.0708 2.4004,2.4004 v -1 C 64.9998,166.0708 63.929,165 62.5994,165 Z"
           transform="scale(0.26458)"
           inkscape:connector-curvature="0"
           style="opacity:1;stroke-width:0.17979" />
      </g>
      <path
         id="path887"
         style="color:#000000;text-indent:0;text-transform:none;opacity:0.5;stroke-width:0.27278"
         d="m 1.3229,52.916 c 0.037387,0.72117 0.52916,1.3229 1.3188,1.3229 h 13.233 c 0.79328,0 1.3224,-0.64408 1.3224,-1.3229 z"
         inkscape:connector-curvature="0" />
      <path
         id="path889"
         style="color:#000000;text-indent:0;text-transform:none;opacity:0.15;stroke-width:0.095585"
         d="m 1.3237,52.916 3.337e-4,0.26458 H 17.198034 L 17.1977,52.916 H 1.3226997 Z m 0.26376,0.79373 h 15.346 c 0.05347,-0.07329 0.11377,-0.15529 0.15166,-0.26458 h -15.653 c 0.046511,0.1129 0.09263,0.17706 0.15532,0.26458 z"
         inkscape:connector-curvature="0" />
    </g>
    <path
       id="path893"
       d="m 1.852,1.852 c -0.73288,0 -1.3229,0.59001 -1.3229,1.3229 v 10.583 c 0,0.73288 0.59001,1.3229 1.3229,1.3229 h 13.229 c 0.73288,0 1.3229,-0.59001 1.3229,-1.3229 V 4.2331 c 0,-0.21986 -0.08855,-0.41825 -0.23202,-0.56171 C 16.02841,3.52792 15.83003,3.43937 15.61017,3.43937 H 7.40827 C 7.20984,3.43937 7.0114,3.373223 6.82124,3.26988 6.63107,3.16653 6.44918,3.02597 6.28382,2.87715 5.9531,2.5795 5.68852,2.24878 5.55623,2.11649 5.44106,2.00132 5.26359,1.93547 5.0865,1.8979 4.91706,1.861957 4.75314,1.85376 4.64002,1.851908 H 4.49791 Z"
       inkscape:connector-curvature="0"
       style="fill:url(#linearGradient1387);stroke-width:0.053182" />
    <path
       id="path895"
       d="M 1.852,4.3131 C 1.66878,4.3131 1.49466,4.350202 1.33628,4.41697 1.1779,4.483736 1.0352,4.58008 0.91564,4.69963 0.79608,4.81919 0.69922,4.96189 0.63246,5.12027 0.56569,5.27865 0.52911,5.45277 0.52911,5.63599 v 0.26458 c 0,-0.18322 0.03658,-0.35734 0.10335,-0.51572 C 0.69922,5.22647 0.79608,5.08377 0.91564,4.96421 1.0352,4.84465 1.1779,4.74831 1.33628,4.68155 1.49466,4.614785 1.66878,4.57768 1.852,4.57768 h 13.229 c 0.18322,0 0.35734,0.037103 0.51572,0.10387 0.15838,0.066765 0.30108,0.16311 0.42064,0.28266 0.11956,0.11956 0.21642,0.26226 0.28318,0.42064 0.06676,0.15838 0.10335,0.3325 0.10335,0.51572 V 5.63599 c 0,-0.18322 -0.03659,-0.35734 -0.10335,-0.51572 C 16.23377,4.96189 16.13692,4.81919 16.01736,4.69963 15.8978,4.58007 15.7551,4.48373 15.59672,4.41697 15.43834,4.350205 15.26422,4.3131 15.081,4.3131 Z"
       inkscape:connector-curvature="0"
       style="opacity:0.1;stroke-width:0.047568;filter:url(#filter935)" />
    <path
       id="path897"
       d="M 1.8521,4.4979 C 1.66888,4.4979 1.49476,4.535002 1.33638,4.60177 1.178,4.668537 1.03529,4.76488 0.91575,4.88445 0.79619,5.00401 0.69933,5.14671 0.63257,5.30508 0.565809,5.46344 0.52922,5.63758 0.52922,5.8208 v 7.9374 c 0,0.73289 0.59001,1.3229 1.3229,1.3229 h 13.229 c 0.73289,0 1.3229,-0.59001 1.3229,-1.3229 V 5.8208 c 0,-0.18322 -0.03659,-0.35734 -0.10335,-0.51572 C 16.2339,5.1467 16.13705,5.00399 16.01749,4.88445 15.89793,4.76489 15.75523,4.66855 15.59686,4.60177 15.43848,4.535006 15.26436,4.4979 15.08114,4.4979 h -13.229 z"
       inkscape:connector-curvature="0"
       style="fill:url(#linearGradient1401);stroke-width:0.047569" />
    <path
       id="path899"
       style="color:#000000;text-indent:0;text-transform:none;fill:url(#linearGradient1438);stroke-width:0.27278"
       d="m 0.52916,13.758 c 0.037387,0.72117 0.52916,1.3229 1.3188,1.3229 h 13.233 c 0.79328,0 1.3224,-0.64408 1.3224,-1.3229 z"
       inkscape:connector-curvature="0" />
    <path
       id="path901"
       style="color:#000000;text-indent:0;text-transform:none;opacity:1;fill:#c44969;stroke-width:0.095585;fill-opacity:1"
       d="m 0.52997,13.758 3.337e-4,0.26458 H 16.404304 L 16.40397,13.758 H 0.5289697 Z m 0.26376,0.79373 h 15.346 c 0.05347,-0.07329 0.11377,-0.15529 0.15166,-0.26458 h -15.653 c 0.046511,0.1129 0.09263,0.17706 0.15532,0.26458 z"
       inkscape:connector-curvature="0" />
    <path
       id="path903"
       d="M 1.852,4.4978 C 1.66878,4.4978 1.49466,4.534902 1.33628,4.60167 1.1779,4.668436 1.0352,4.76478 0.91564,4.88433 0.79608,5.00389 0.69922,5.14659 0.63246,5.30497 0.56569,5.46335 0.52911,5.63747 0.52911,5.82069 v 0.26458 c 0,-0.18322 0.036581,-0.35735 0.10335,-0.51572 C 0.699225,5.41117 0.79608,5.26847 0.91564,5.14891 1.0352,5.02935 1.1779,4.93301 1.33628,4.86625 1.49466,4.799484 1.66878,4.76238 1.852,4.76238 h 13.229 c 0.18322,0 0.35734,0.037103 0.51572,0.10387 0.15838,0.066765 0.30108,0.16311 0.42064,0.28266 0.11956,0.11956 0.21642,0.26226 0.28318,0.42064 0.06676,0.15838 0.10335,0.3325 0.10335,0.51572 V 5.82069 c 0,-0.18322 -0.03659,-0.35734 -0.10335,-0.51572 C 16.23377,5.14659 16.13691,5.00389 16.01736,4.88433 15.8978,4.76477 15.7551,4.66843 15.59672,4.60167 15.43834,4.534905 15.26422,4.4978 15.081,4.4978 Z"
       inkscape:connector-curvature="0"
       style="fill:#f5668c;stroke-width:0.047568;fill-opacity:1" />
  </g>
  <path
     d="m 33.644316,46.926008 c -1.30813,-0.218021 -3.16131,-0.981096 -4.25142,-1.689666 -2.50724,-1.635162 -4.14829,-3.454006 -5.16264,-5.724155 -0.32703,-0.763075 -0.52108,-1.308129 -1.0901,-3.270322 -0.10902,-0.490549 -0.29393,-1.040246 -0.36217,-1.211546 -0.11511,-0.288944 -0.12016,-0.38641 -0.07,-1.350207 0.0476,-0.872086 0.21803,-2.180215 0.32704,-2.284865 0.0161,-0.02529 0.0541,-0.03129 0.0844,-0.0133 0.10247,0.06083 0.19722,-0.220408 0.29033,-0.861893 0.051,-0.351451 0.13116,-0.720005 0.17811,-0.819031 0.047,-0.09898 0.12649,-0.317537 0.17675,-0.485599 0.11567,-0.386835 0.27339,-0.684184 0.76097,-1.434581 0.21444,-0.330041 0.43734,-0.689515 0.49534,-0.798831 0.0682,-0.128611 0.1428,-0.19163 0.21126,-0.17856 0.066,0.01254 0.1748,-0.07086 0.28879,-0.221292 0.49574,-0.654304 2.83068,-2.584753 3.04674,-2.518911 0.059,0.01799 0.30536,-0.06312 0.54753,-0.18014 0.43802,-0.211688 0.63102,-0.260656 0.63102,-0.160115 0,0.029 -0.0633,0.09484 -0.14069,0.146336 -0.13579,0.09037 -0.13307,0.0919 0.0782,0.04284 0.12037,-0.02802 0.32309,-0.0678 0.45049,-0.08852 0.1574,-0.02562 0.2214,-0.06334 0.19968,-0.117611 -0.0191,-0.04764 0.0263,-0.09484 0.11226,-0.11698 0.21526,-0.05527 0.55067,-0.04622 0.55067,0.01494 0,0.07336 -0.19178,0.147448 -0.34391,0.132971 -0.10377,-0.0098 -0.10907,-0.0011 -0.0313,0.04982 0.0774,0.05102 0.0784,0.06192 0.005,0.06268 -0.0487,5.02e-4 -0.0725,0.01624 -0.053,0.0351 0.0196,0.01875 0.14998,-0.0218 0.28973,-0.09026 0.13976,-0.06846 0.39573,-0.153553 0.56882,-0.189189 0.21307,-0.04382 0.31471,-0.09473 0.31471,-0.15752 0,-0.08078 0.099,-0.08765 0.76596,-0.0532 0.4213,0.0218 1.05703,0.08514 1.41278,0.140831 0.64672,0.101271 0.64678,0.101271 0.88779,-0.03183 0.28907,-0.159658 0.75404,-0.180446 0.87622,-0.03913 0.0447,0.05167 0.16773,0.136863 0.27341,0.189308 0.17238,0.08557 0.18379,0.08568 0.11092,0.0011 -0.13841,-0.160137 -9.4e-4,-0.156104 0.53349,0.0157 1.72303,0.553786 3.12763,1.539995 4.16988,2.92792 0.24717,0.329115 0.26214,0.477184 0.028,0.276844 l -0.134,-0.114647 0.10236,0.192055 c 0.0562,0.105632 0.10236,0.224334 0.10236,0.263785 0,0.03946 0.1657,0.331087 0.3682,0.648058 0.4564,0.71438 0.58408,0.955065 0.55346,1.043233 -0.0132,0.03783 -0.21533,-0.213814 -0.44933,-0.559149 -0.234,-0.345314 -0.58027,-0.810593 -0.76949,-1.033924 -0.28258,-0.333518 -0.35659,-0.390563 -0.41424,-0.319281 -0.0386,0.04775 -0.1329,0.09538 -0.20954,0.106067 l -0.13934,0.01929 0.13785,0.259337 c 0.0758,0.142629 0.14789,0.230394 0.16019,0.19502 0.0658,-0.189439 0.3722,0.05963 0.51153,0.415756 0.0451,0.115508 0.1653,0.353391 0.26694,0.528626 0.1016,0.175224 0.17199,0.330869 0.15636,0.34588 -0.0156,0.01504 -0.10836,-0.03303 -0.20591,-0.106721 l -0.17747,-0.133975 0.12103,0.199425 c 0.0666,0.109686 0.17805,0.243857 0.24772,0.298166 0.0869,0.0678 0.12846,0.174809 0.13234,0.341225 0.008,0.307247 0.19056,0.670209 0.29029,0.574498 0.15538,-0.149105 0.18733,-0.05592 0.14823,0.432391 -0.0288,0.359768 -0.0135,0.596899 0.0548,0.848638 0.10378,0.38218 0.0814,0.476508 -0.0703,0.297893 -0.0965,-0.113589 -0.0975,-0.113513 -0.0543,0.0044 0.0927,0.252709 0.16184,0.630758 0.1426,0.779143 -0.0359,0.276888 -0.14425,0.161772 -0.18152,-0.192927 l -0.0364,-0.346185 -0.0109,0.368412 c -0.005,0.20264 -0.0554,0.594185 -0.11018,0.870113 -0.0554,0.278708 -0.0835,0.616423 -0.0632,0.759816 0.038,0.269769 0.0111,0.280223 -0.22382,0.08699 -0.0956,-0.07871 -0.1121,-0.06279 -0.17778,0.17131 -0.0553,0.196972 -0.0548,0.309111 0.002,0.474066 0.0409,0.118844 0.0647,0.280038 0.0528,0.358188 -0.0274,0.180369 -0.17791,0.236607 -0.17791,0.0665 0,-0.213901 -0.0848,-0.137768 -0.34391,0.308773 -0.69972,1.205877 -1.80685,2.139009 -3.05993,2.579194 -0.73876,0.259511 -1.23422,0.355735 -2.06739,0.401498 l -0.75034,0.04121 0.37073,0.109752 c 0.29894,0.08852 0.47449,0.101707 0.90666,0.06824 0.56618,-0.04393 1.23094,-0.161816 1.53236,-0.271797 0.1203,-0.04393 0.20155,-0.04589 0.24313,-0.0065 0.098,0.09408 -0.77278,0.463971 -1.28971,0.547779 -0.87956,0.142607 -2.05692,-0.01156 -3.09623,-0.405313 -0.70516,-0.267186 -1.75159,-0.963034 -1.59123,-1.058135 0.0304,-0.01799 0.22945,0.07293 0.4424,0.202182 0.27219,0.165152 0.38716,0.208658 0.38716,0.146445 0,-0.117502 0.0402,-0.111867 0.2565,0.03587 0.19528,0.133451 0.79594,0.381243 1.22855,0.506834 0.47158,0.136885 0.28874,-0.029 -0.3439,-0.312086 -2.00035,-0.894946 -2.83069,-1.790066 -3.2446,-3.497392 -0.15177,-0.626093 0.0109,-1.998712 0.28762,-2.428542 0.0702,-0.108902 0.12755,-0.242887 0.12755,-0.297686 0,-0.237807 0.4132,-0.866102 0.8372,-1.273028 0.74713,-0.716996 1.52386,-1.014661 2.53232,-0.97037 0.48745,0.02148 0.69564,0.06257 1.10133,0.217596 0.46014,0.175856 1.03952,0.544008 0.86208,0.54779 -0.0418,8.83e-4 -0.22461,-0.05788 -0.40643,-0.130595 -0.27639,-0.110526 -0.45361,-0.132666 -1.08093,-0.135009 -0.88091,-0.0033 -1.31151,0.116641 -1.93843,0.539962 -0.88881,0.600159 -1.38302,1.291451 -1.55809,2.179234 -0.11745,0.595701 -0.12105,0.760754 -0.0294,1.351625 0.0528,0.340484 0.0903,0.440392 0.15632,0.416083 0.0555,-0.02038 0.0869,0.0098 0.0869,0.08263 0,0.211034 0.47847,1.067052 0.8103,1.449734 0.79869,0.921097 2.09061,1.508927 3.31654,1.508927 0.63625,0 1.15061,-0.117198 1.62404,-0.370059 0.19012,-0.101598 0.43008,-0.225685 0.53325,-0.275874 0.36402,-0.177077 0.58986,-0.379335 0.85389,-0.764732 0.14679,-0.21426 0.30636,-0.38955 0.3546,-0.38955 0.0713,0 0.0682,0.03096 -0.0165,0.165021 -0.2791,0.442038 0.37592,-0.361698 0.71511,-0.877482 l 0.37993,-0.577703 -0.0414,-0.379488 c -0.0398,-0.364663 -0.034,-0.386923 0.14777,-0.570072 0.17509,-0.176368 0.19082,-0.228573 0.211,-0.700056 0.0181,-0.42198 0.005,-0.509592 -0.072,-0.510072 -0.0722,-4.14e-4 -0.10312,-0.111551 -0.13419,-0.480628 -0.0411,-0.488456 -0.45552,-2.132033 -0.55201,-2.189372 -0.0291,-0.01722 -0.10994,-0.175311 -0.17957,-0.351211 -0.23503,-0.593607 -0.64726,-1.164453 -1.29004,-1.78625 -0.92486,-0.894728 -2.08995,-1.585671 -3.19041,-1.891991 -0.9361,-0.260601 -2.52567,-0.166001 -3.65797,0.217662 -0.55258,0.187259 -1.09708,0.435193 -1.18887,0.541434 -0.0416,0.04818 -0.10214,0.07206 -0.1343,0.05298 -0.0339,-0.02006 -0.0245,-0.07391 0.0222,-0.127968 0.20858,-0.241197 -0.48357,0.200253 -0.92917,0.592604 -0.26938,0.237208 -0.49961,0.438496 -0.51162,0.447315 -0.012,0.0087 0.0405,4.14e-4 0.11653,-0.01864 0.12661,-0.03172 0.13197,-0.02333 0.0633,0.09985 -0.044,0.07892 -0.27325,0.220856 -0.55422,0.343166 -0.47209,0.205507 -0.77743,0.431355 -1.02003,0.754518 -0.0968,0.129025 -0.10247,0.156812 -0.0258,0.1286 0.0537,-0.01984 0.0978,-0.0076 0.0978,0.02758 0,0.171376 -0.16225,0.362701 -0.40259,0.474775 -0.53248,0.248272 -1.46793,1.574442 -1.96895,2.791438 -0.2233,0.54234 -0.21975,0.523503 -0.0983,0.523503 0.12797,0 0.11907,0.139468 -0.0567,0.888688 -0.25606,1.091307 -0.25636,1.056412 0.0225,2.59173 0.33976,1.870625 0.53825,2.495584 0.91564,2.88279 0.0885,0.09081 0.17458,0.284049 0.21294,0.478165 0.0458,0.231778 0.1227,0.384742 0.26662,0.530326 0.13121,0.132731 0.17496,0.21413 0.12456,0.231768 -0.0989,0.03456 0.21069,0.477576 0.49314,0.705648 0.14209,0.114734 0.2474,0.153313 0.36147,0.132383 0.25001,-0.04589 0.50457,0.09233 0.89571,0.486231 0.40648,0.409357 0.4472,0.519415 0.17821,0.481523 -0.1735,-0.02442 -0.17747,-0.01995 -0.0921,0.105195 0.0492,0.07195 0.23027,0.244849 0.40258,0.384274 0.24201,0.195859 0.30435,0.280583 0.27397,0.372446 -0.0437,0.132099 0.0809,0.255347 0.36282,0.358776 0.1748,0.0641 0.23112,0.202455 0.0995,0.244533 -0.0398,0.01275 0.20639,0.255935 0.54712,0.540443 0.38388,0.320535 0.6421,0.496227 0.67891,0.4619 0.0972,-0.09059 0.22182,-0.06301 0.22406,0.0496 0.002,0.122877 0.11279,0.251978 0.50981,0.596332 0.25088,0.217607 0.31351,0.244991 0.46729,0.204341 0.14082,-0.03728 0.22938,-0.0133 0.42771,0.115322 0.39567,0.256699 0.63559,0.359158 0.84103,0.359158 0.20213,0 0.23091,0.0557 0.12596,0.243977 -0.0556,0.09964 -0.0437,0.116064 0.084,0.116064 0.0818,0 0.3123,0.05396 0.51221,0.12001 0.45456,0.150086 0.64417,0.160289 0.53024,0.02856 -0.16829,-0.194606 0.01,-0.14142 0.61148,0.182156 0.84018,0.452155 1.26518,0.503815 2.93827,0.357098 0.24771,-0.02169 0.32828,-0.0087 0.32828,0.05167 0,0.05211 -0.21494,0.130355 -0.60966,0.222 -0.51888,0.120457 -0.79583,0.143764 -1.86016,0.15654 -0.83871,0.0098 -1.41158,-0.01188 -1.73959,-0.0665 z m -0.85532,-8.995676 c 0,-0.01275 -0.0774,-0.06835 -0.17195,-0.123574 l -0.17196,-0.100508 0.14763,0.123574 c 0.14404,0.120577 0.19628,0.147317 0.19628,0.100508 z m 8.60913,-6.288939 c -0.02,-0.04786 -0.0348,-0.03368 -0.0378,0.0363 -0.003,0.06323 0.0121,0.09865 0.0328,0.0787 0.0208,-0.01995 0.023,-0.07173 0.004,-0.115006 z m -14.18993,-6.293518 c 0.0778,-0.09517 0.0755,-0.09735 -0.0237,-0.02267 -0.0602,0.04535 -0.10942,0.09255 -0.10942,0.104977 0,0.04938 0.0513,0.01755 0.13303,-0.0823 z m 0.7111,-0.555071 c 0.0622,-0.06606 0.0991,-0.12001 0.0819,-0.12001 -0.0172,0 -0.0822,0.05396 -0.14443,0.12001 -0.0622,0.06606 -0.0991,0.120009 -0.0819,0.120009 0.0172,0 0.0822,-0.05396 0.14444,-0.120009 z m 0.78708,-0.421828 c 0.20611,-0.06693 0.32323,-0.07881 0.3667,-0.03706 0.0435,0.04175 0.20475,0.01701 0.50495,-0.07751 0.24259,-0.07631 0.42992,-0.149464 0.4163,-0.162557 -0.0136,-0.01308 -0.21338,0.03663 -0.44387,0.110494 -0.31658,0.101489 -0.43051,0.116532 -0.46582,0.0617 -0.0596,-0.09266 -0.62862,0.08993 -0.87317,0.280266 l -0.16712,0.130028 0.17959,-0.103451 c 0.0988,-0.0569 0.31587,-0.147753 0.48244,-0.201877 z m 1.80271,-0.152332 c 0.18159,-0.05178 0.31932,-0.104541 0.30609,-0.117187 -0.0292,-0.02801 -0.67608,0.149737 -0.67608,0.185798 0,0.0363 0.005,0.03543 0.36999,-0.06857 z m 1.0369,-0.32713 0.25012,-0.04382 -0.21885,-0.0054 c -0.12037,-0.0033 -0.28919,0.03608 -0.37517,0.08666 -0.10116,0.05963 -0.11223,0.07696 -0.0313,0.04916 0.0688,-0.02355 0.2376,-0.06257 0.37516,-0.08666 z m 0.49663,-0.113241 c 0.0193,-0.02987 -0.0213,-0.04022 -0.0902,-0.023 -0.146,0.03663 -0.16446,0.0774 -0.035,0.0774 0.0496,0 0.10585,-0.02453 0.12515,-0.0544 z m 2.01888,0.0181 c -0.0208,-0.01995 -0.0747,-0.02202 -0.11985,-0.0044 -0.0499,0.01919 -0.0351,0.03336 0.0378,0.0363 0.0659,0.0022 0.10279,-0.01156 0.0821,-0.0315 z m -0.37387,-0.06508 c -0.0602,-0.01504 -0.15866,-0.01504 -0.21885,0 -0.0602,0.01504 -0.0109,0.02747 0.10943,0.02747 0.12037,0 0.16961,-0.01232 0.10942,-0.02747 z m -0.62363,-0.06225 c -0.12805,-0.01286 -0.35316,-0.01308 -0.50023,-3.92e-4 -0.14706,0.01264 -0.0423,0.02322 0.23283,0.02344 0.27513,2.18e-4 0.39546,-0.0098 0.2674,-0.023 z m -0.81582,-0.05265 c -0.0208,-0.01995 -0.0747,-0.02213 -0.11985,-0.0044 -0.0499,0.01919 -0.0351,0.03336 0.0378,0.0363 0.066,0.0022 0.1028,-0.01155 0.0821,-0.0315 z m -0.42326,14.423213 c -0.63692,-0.437951 -0.8729,-0.664475 -0.8729,-0.837933 0,-0.09201 0.0217,-0.16731 0.0482,-0.16731 0.0901,0 1.15497,1.066627 1.13164,1.133712 -0.0135,0.03881 -0.14196,-0.01494 -0.30696,-0.128426 z m -0.32774,-1.112019 c -0.33078,-0.320786 -0.43677,-0.493328 -0.30308,-0.493328 0.0803,0 0.69584,0.676313 0.69584,0.764579 0,0.04153 -0.008,0.07554 -0.0175,0.07554 -0.01,0 -0.1785,-0.156038 -0.37518,-0.346774 z m 3.65993,-1.313144 c -0.17464,-0.06759 -0.0656,-0.192938 0.21885,-0.251509 0.16335,-0.03368 0.42295,-0.115279 0.57687,-0.181449 0.15393,-0.06617 0.29098,-0.10961 0.30457,-0.09658 0.0136,0.01308 -0.0561,0.146401 -0.15481,0.296378 -0.17842,0.271012 -0.18161,0.272647 -0.52341,0.268047 -0.18916,-0.0022 -0.37909,-0.0182 -0.42207,-0.03488 z m 1.87586,-1.342249 c -0.16879,-0.06508 -0.17577,-0.1759 -0.0349,-0.553208 0.12104,-0.324078 0.24657,-0.388013 0.17674,-0.09004 -0.0252,0.107267 -0.0587,0.262542 -0.0746,0.345041 l -0.0289,0.150021 0.12496,-0.136569 c 0.0739,-0.08078 0.14239,-0.270499 0.16762,-0.464386 0.0234,-0.180303 0.0676,-0.313013 0.0981,-0.294939 0.0774,0.04589 0.0691,0.520341 -0.0145,0.839317 -0.0731,0.278632 -0.13888,0.311095 -0.41465,0.204722 z M 22.235846,33.51906 c -0.0208,-0.05222 -0.0379,-0.256982 -0.0379,-0.455055 0,-0.261331 0.0215,-0.353326 0.0782,-0.335328 0.0929,0.02943 0.14735,0.885309 0.0564,0.885309 -0.0323,0 -0.0756,-0.04273 -0.0966,-0.09495 z m 15.04239,-1.403623 c -0.0971,-0.126114 -0.1271,-0.225685 -0.0995,-0.331044 0.0566,-0.216375 0.20462,-0.185601 0.31382,0.06519 0.1699,0.390226 0.0225,0.573113 -0.21428,0.265801 z m -15.05548,-0.952699 c -0.004,-0.340266 -3e-5,-0.350786 0.15693,-0.345041 0.13309,0.0044 0.16522,0.03848 0.18057,0.189144 0.0173,0.169894 -0.17519,0.506868 -0.28956,0.506868 -0.0237,0 -0.0452,-0.157935 -0.048,-0.35096 z m 16.20772,-7.376867 c 0.009,-0.537019 0.10302,-0.718937 0.17648,-0.342948 0.0512,0.261986 -0.0139,0.724606 -0.11314,0.803628 -0.054,0.04295 -0.0701,-0.07413 -0.0633,-0.46068 z m -8.21614,-0.32181 c 0.02518,-0.07238 0.8877,-0.411407 1.04681,-0.411407 0.18693,0 -0.1484,0.21982 -0.53515,0.350807 -0.43123,0.146053 -0.54606,0.159658 -0.51166,0.06061 z"
     fill="#000000"
     opacity="0.15"
     id="path8"
     style="stroke-width:1.09011" />
</svg>
