<?xml version="1.0" encoding="UTF-8" standalone="no"?>
<svg
   xmlns:dc="http://purl.org/dc/elements/1.1/"
   xmlns:cc="http://creativecommons.org/ns#"
   xmlns:rdf="http://www.w3.org/1999/02/22-rdf-syntax-ns#"
   xmlns:svg="http://www.w3.org/2000/svg"
   xmlns="http://www.w3.org/2000/svg"
   xmlns:sodipodi="http://sodipodi.sourceforge.net/DTD/sodipodi-0.dtd"
   xmlns:inkscape="http://www.inkscape.org/namespaces/inkscape"
   width="200"
   height="200"
   version="1.1"
   viewBox="0 0 52.916667 52.916667"
   id="svg30"
   sodipodi:docname="user-identity.svg"
   inkscape:version="0.92.5 (6c0c36ef5a, 2020-05-15, custom)">
  <metadata
     id="metadata34">
    <rdf:RDF>
      <cc:Work
         rdf:about="">
        <dc:format>image/svg+xml</dc:format>
        <dc:type
           rdf:resource="http://purl.org/dc/dcmitype/StillImage" />
        <dc:title></dc:title>
      </cc:Work>
    </rdf:RDF>
  </metadata>
  <sodipodi:namedview
     pagecolor="#ffffff"
     bordercolor="#666666"
     borderopacity="1"
     objecttolerance="10"
     gridtolerance="10"
     guidetolerance="10"
     inkscape:pageopacity="0"
     inkscape:pageshadow="2"
     inkscape:window-width="1920"
     inkscape:window-height="949"
     id="namedview32"
     showgrid="false"
     inkscape:zoom="0.86915209"
     inkscape:cx="178.89888"
     inkscape:cy="99.70686"
     inkscape:window-x="0"
     inkscape:window-y="36"
     inkscape:window-maximized="1"
     inkscape:current-layer="svg30" />
  <defs
     id="defs18">
    <linearGradient
       id="b"
       x1="6.3499999"
       x2="6.3499999"
       y1="284.82999"
       y2="296.47"
       gradientUnits="userSpaceOnUse">
      <stop
         stop-color="#0e78d7"
         offset="0"
         id="stop2" />
      <stop
         stop-color="#29d6f9"
         offset="1"
         id="stop4" />
    </linearGradient>
    <linearGradient
       id="a"
       x1="6.3499999"
       x2="6.3499999"
       y1="287.76001"
       y2="293.54001"
       gradientUnits="userSpaceOnUse">
      <stop
         stop-color="#c3efff"
         offset="0"
         id="stop7" />
      <stop
         stop-color="#fff"
         offset="1"
         id="stop9" />
    </linearGradient>
    <filter
       id="d"
       x="-0.034394"
       y="-0.037763"
       width="1.0688"
       height="1.0755"
       style="color-interpolation-filters:sRGB">
      <feGaussianBlur
         stdDeviation="0.09100177"
         id="feGaussianBlur12" />
    </filter>
    <filter
       id="c"
       x="-0.035999998"
       y="-0.035999998"
       width="1.072"
       height="1.072"
       style="color-interpolation-filters:sRGB">
      <feGaussianBlur
         stdDeviation="0.174625"
         id="feGaussianBlur15" />
    </filter>
    <style
       type="text/css"
       id="current-color-scheme">.ColorScheme-Text {
        color:#4d4d4d;
      }</style>
    <style
       id="style842"
       type="text/css">.ColorScheme-Text {
        color:#4d4d4d;
      }</style>
    <radialGradient
       gradientUnits="userSpaceOnUse"
       gradientTransform="matrix(0.96667,0,0,0.96667,0.28222,0.28222)"
       r="7.9373002"
       cy="8.4665003"
       cx="8.4665003"
       id="radialGradient1110">
      <stop
         id="stop844"
         offset="0"
         stop-color="#6ec8fa" />
      <stop
         id="stop846"
         offset="1"
         stop-color="#3492cb" />
    </radialGradient>
  </defs>
  <g
     id="g907"
     transform="matrix(3.2500818,0,0,3.2500818,-1.058485,-1.058485)">
    <g
       id="g861"
       style="fill:#5e4aa6;stroke-width:0.31749001">
      <circle
         id="circle853"
         r="0"
         cy="-392.17001"
         cx="-365.20999" />
      <circle
         id="circle855"
         r="0"
         cy="-392.28"
         cx="-375.63" />
      <circle
         id="circle857"
         r="0"
         cy="-392.17001"
         cx="-365.20999" />
      <circle
         id="circle859"
         r="0"
         cy="-392.28"
         cx="-375.63" />
    </g>
    <g
       id="g881">
      <circle
         id="circle863"
         style="fill:#80cbff;fill-rule:evenodd;stroke-width:1.36360002;paint-order:normal"
         r="7.9373002"
         cy="8.4665003"
         cx="8.4665003" />
      <circle
         id="circle865"
         style="fill:url(#radialGradient1110);fill-rule:evenodd;stroke-width:1.31819999;paint-order:normal"
         r="7.6728001"
         cy="8.4665003"
         cx="8.4665003" />
      <g
         id="g879"
         transform="matrix(0.80901,0,0,0.80901,1.5368,2.0598)"
         style="fill:#147db9">
        <path
           id="path867"
           d="m 7.2242,8.556 v 0.39835 c 0,0 0.10755,0.85578 -0.50008,1.1723 -0.60764,0.31647 -2.6192,1.2658 -2.7272,1.4416 -0.10802,0.17582 -0.26993,0.68298 0.18917,0.81192 h 8.7592 c 0.45911,-0.12893 0.2972,-0.6361 0.18917,-0.81192 -0.10803,-0.17582 -2.1196,-1.1251 -2.7272,-1.4416 C 9.79962,9.81018 9.90718,8.95435 9.90718,8.95435 V 8.556 h -1.3415 z"
           inkscape:connector-curvature="0" />
        <g
           id="g877"
           transform="translate(0.10535)">
          <path
             id="path869"
             d="M 10.452,6.6018 C 10.18742,8.488 9.56358,9.4947 8.4677,9.4947 7.3718,9.4947001 6.7479,8.488 6.4834,6.6018 c -0.2414,-1.7209 0,-3.1436 1.9843,-3.1436 1.9843,0 2.2257,1.4227 1.9843,3.1436 z"
             inkscape:connector-curvature="0" />
          <path
             id="path871"
             d="m 10.492,6.1701 c 0,0 0.6201,-0.024804 0.45474,0.5953 -0.16536,0.6201 -0.47955,1.2816 -0.82681,1.356 -0.34726,0.074413 0.27285,-1.9265 0.37206,-1.9513 z"
             inkscape:connector-curvature="0" />
          <path
             id="path873"
             d="m 6.4284,6.1117 c 0,0 -0.6201,-0.024804 -0.45474,0.5953 C 6.13902,7.3271 6.45321,7.9886 6.80047,8.063 7.14773,8.137413 6.52762,6.1365 6.42841,6.1117 Z"
             inkscape:connector-curvature="0" />
          <path
             id="path875"
             d="M 10.452,6.6018 C 10.18742,8.488 9.56358,9.4947 8.4677,9.4947 7.3718,9.4947001 6.7479,8.488 6.4834,6.6018 c -0.2414,-1.7209 0,-3.1436 1.9843,-3.1436 1.9843,0 2.2257,1.4227 1.9843,3.1436 z"
             inkscape:connector-curvature="0" />
        </g>
      </g>
    </g>
  </g>
</svg>
