<?xml version="1.0" encoding="UTF-8" standalone="no"?>
<svg
   xmlns:dc="http://purl.org/dc/elements/1.1/"
   xmlns:cc="http://creativecommons.org/ns#"
   xmlns:rdf="http://www.w3.org/1999/02/22-rdf-syntax-ns#"
   xmlns:svg="http://www.w3.org/2000/svg"
   xmlns="http://www.w3.org/2000/svg"
   xmlns:sodipodi="http://sodipodi.sourceforge.net/DTD/sodipodi-0.dtd"
   xmlns:inkscape="http://www.inkscape.org/namespaces/inkscape"
   height="16"
   width="16"
   version="1.1"
   id="svg8"
   sodipodi:docname="system-shutdown-symbolic.svg"
   inkscape:version="0.92.5 (2060ec1f9f, 2020-04-08)">
  <metadata
     id="metadata14">
    <rdf:RDF>
      <cc:Work
         rdf:about="">
        <dc:format>image/svg+xml</dc:format>
        <dc:type
           rdf:resource="http://purl.org/dc/dcmitype/StillImage" />
      </cc:Work>
    </rdf:RDF>
  </metadata>
  <defs
     id="defs12" />
  <sodipodi:namedview
     pagecolor="#ffffff"
     bordercolor="#666666"
     borderopacity="1"
     objecttolerance="10"
     gridtolerance="10"
     guidetolerance="10"
     inkscape:pageopacity="0"
     inkscape:pageshadow="2"
     inkscape:window-width="1920"
     inkscape:window-height="975"
     id="namedview10"
     showgrid="false"
     inkscape:zoom="14.75"
     inkscape:cx="8"
     inkscape:cy="8"
     inkscape:window-x="0"
     inkscape:window-y="30"
     inkscape:window-maximized="1"
     inkscape:current-layer="svg8" />
  <g
     color="#000"
     fill="gray"
     font-family="sans-serif"
     font-weight="400"
     white-space="normal"
     id="g6">
 <defs>
  <style id="current-color-scheme" type="text/css">.ColorScheme-Text { color:#727272; } .ColorScheme-Highlight { color:#5294e2; }</style>
 </defs>
 <path class="ColorScheme-Text" d="M 9 0.75 L 7 1 L 7 8 L 9 8 L 9 0.75 z M 3.9863281 2.3027344 A 6.985 6.985 0 0 0 1 7.9199219 A 6.94 6.94 0 0 0 1.3242188 10.121094 A 7.004 7.004 0 0 0 8 15 A 7.004 7.004 0 0 0 14.675781 10.121094 A 6.978 6.978 0 0 0 12.013672 2.3027344 L 10.869141 3.9433594 A 4.96 4.96 0 0 1 12.769531 9.5175781 A 4.99 4.99 0 0 1 8 13 A 4.99 4.99 0 0 1 3.2304688 9.5175781 A 4.96 4.96 0 0 1 5.1308594 3.9433594 L 3.9863281 2.3027344 z" fill="currentColor"/>
  </g>
</svg>
