<?xml version="1.0" encoding="UTF-8" standalone="no"?>
<svg
   xmlns:dc="http://purl.org/dc/elements/1.1/"
   xmlns:cc="http://creativecommons.org/ns#"
   xmlns:rdf="http://www.w3.org/1999/02/22-rdf-syntax-ns#"
   xmlns:svg="http://www.w3.org/2000/svg"
   xmlns="http://www.w3.org/2000/svg"
   xmlns:sodipodi="http://sodipodi.sourceforge.net/DTD/sodipodi-0.dtd"
   xmlns:inkscape="http://www.inkscape.org/namespaces/inkscape"
   width="16"
   height="16"
   version="1.1"
   id="svg15"
   sodipodi:docname="folder-txt.svg"
   inkscape:version="0.92.5 (6c0c36ef5a, 2020-05-15, custom)">
  <metadata
     id="metadata19">
    <rdf:RDF>
      <cc:Work
         rdf:about="">
        <dc:format>image/svg+xml</dc:format>
        <dc:type
           rdf:resource="http://purl.org/dc/dcmitype/StillImage" />
        <dc:title></dc:title>
      </cc:Work>
    </rdf:RDF>
  </metadata>
  <sodipodi:namedview
     pagecolor="#ffffff"
     bordercolor="#666666"
     borderopacity="1"
     objecttolerance="10"
     gridtolerance="10"
     guidetolerance="10"
     inkscape:pageopacity="0"
     inkscape:pageshadow="2"
     inkscape:window-width="1920"
     inkscape:window-height="954"
     id="namedview17"
     showgrid="true"
     inkscape:zoom="5.6568543"
     inkscape:cx="-0.5182512"
     inkscape:cy="-7.0468917"
     inkscape:window-x="0"
     inkscape:window-y="36"
     inkscape:window-maximized="1"
     inkscape:current-layer="svg15">
    <inkscape:grid
       type="xygrid"
       id="grid817" />
  </sodipodi:namedview>
  <defs
     id="defs3">
    <style
       id="current-color-scheme"
       type="text/css">.ColorScheme-Text { color:#363636; }</style>
  </defs>
  <path
     inkscape:connector-curvature="0"
     style="opacity:1;fill:#0550eb;fill-opacity:1;stroke:none;stroke-width:0.60000002;stroke-linecap:round;stroke-miterlimit:4;stroke-dasharray:none;stroke-opacity:1"
     d="M 3,3 C 1.892,3 1,3.892 1,5 v 9 c 0,1.108 0.892,2 2,2 h 6 c 1.108,0 2,-0.892 2,-2 V 9 h -1 v 5 c 0,0.554 -0.446,1 -1,1 H 3 C 2.446,15 2,14.554 2,14 V 5 C 2,4.446 2.446,4 3,4 H 5 V 3 Z"
     id="rect855" />
  <path
     inkscape:connector-curvature="0"
     style="opacity:1;fill:#0550eb;fill-opacity:1;stroke:none;stroke-width:0.60000002;stroke-linecap:round;stroke-miterlimit:4;stroke-dasharray:none;stroke-opacity:1"
     d="m 5,3 v 6 h 6 V 8 L 6.005859,3 6,3.0058594 V 3 Z M 6,4.421875 9.572266,8 H 6 Z"
     id="rect863" />
  <path
     style="opacity:1;fill:#0550eb;fill-opacity:1;stroke:none;stroke-width:0.60000002;stroke-linecap:round;stroke-miterlimit:4;stroke-dasharray:none;stroke-opacity:1"
     d="M 6,0 C 4.892,0 4,0.892 4,2 V 3 H 5 V 2 C 5,1.446 5.446,1 6,1 H 9 V 0 Z m 7,5 v 6 c 0,0.554 -0.446,1 -1,1 h -1 v 1 h 1 c 1.108,0 2,-0.892 2,-2 V 5 Z"
     id="path877"
     inkscape:connector-curvature="0"
     sodipodi:nodetypes="ssccssccscssccsscc" />
  <path
     id="path879"
     d="m 9,0 v 5 h 5 V 4 L 10.005859,0 9.999959,0.0058594 V 0 Z M 10,1.421875 12.572266,4 H 10 Z"
     style="opacity:1;fill:#0550eb;fill-opacity:1;stroke:none;stroke-width:0.60000002;stroke-linecap:round;stroke-miterlimit:4;stroke-dasharray:none;stroke-opacity:1"
     inkscape:connector-curvature="0"
     sodipodi:nodetypes="cccccccccccc" />
</svg>
