<?xml version="1.0" encoding="UTF-8" standalone="no"?>
<svg
   xmlns:dc="http://purl.org/dc/elements/1.1/"
   xmlns:cc="http://creativecommons.org/ns#"
   xmlns:rdf="http://www.w3.org/1999/02/22-rdf-syntax-ns#"
   xmlns:svg="http://www.w3.org/2000/svg"
   xmlns="http://www.w3.org/2000/svg"
   xmlns:sodipodi="http://sodipodi.sourceforge.net/DTD/sodipodi-0.dtd"
   xmlns:inkscape="http://www.inkscape.org/namespaces/inkscape"
   inkscape:version="1.0 (4035a4fb49, 2020-05-01)"
   sodipodi:docname="folder-download.svg"
   id="svg13"
   viewBox="0 0 16 16"
   version="1.1"
   height="16"
   width="16">
  <metadata
     id="metadata17">
    <rdf:RDF>
      <cc:Work
         rdf:about="">
        <dc:format>image/svg+xml</dc:format>
        <dc:type
           rdf:resource="http://purl.org/dc/dcmitype/StillImage" />
        <dc:title />
      </cc:Work>
    </rdf:RDF>
  </metadata>
  <sodipodi:namedview
     inkscape:document-rotation="0"
     inkscape:bbox-nodes="true"
     inkscape:snap-bbox="true"
     inkscape:current-layer="svg13"
     inkscape:window-maximized="1"
     inkscape:window-y="36"
     inkscape:window-x="0"
     inkscape:cy="5.6883273"
     inkscape:cx="-5.4552316"
     inkscape:zoom="14.75"
     showgrid="true"
     id="namedview15"
     inkscape:window-height="936"
     inkscape:window-width="1920"
     inkscape:pageshadow="2"
     inkscape:pageopacity="0"
     guidetolerance="10"
     gridtolerance="10"
     objecttolerance="10"
     borderopacity="1"
     bordercolor="#666666"
     pagecolor="#ffffff">
    <inkscape:grid
       id="grid830"
       type="xygrid" />
  </sodipodi:namedview>
  <defs
     id="defs3">
    <style
       type="text/css"
       id="current-color-scheme">.ColorScheme-Text { color:#363636; } .ColorScheme-Highlight { color:#5294e2; }</style>
  </defs>
  <g
     transform="translate(-19)"
     id="g852">
    <rect
       style="opacity:1;fill:#0096ff;fill-opacity:1;stroke:none;stroke-width:0.60000002;stroke-linecap:round;stroke-miterlimit:4;stroke-dasharray:none;stroke-opacity:1"
       id="rect843"
       width="1"
       height="8"
       x="27"
       y="4"
       ry="0.5" />
    <rect
       ry="0.5"
       y="-15.814352"
       x="27.077164"
       height="5"
       width="1"
       id="rect845"
       style="opacity:1;fill:#0096ff;fill-opacity:1;stroke:none;stroke-width:0.47434166;stroke-linecap:round;stroke-miterlimit:4;stroke-dasharray:none;stroke-opacity:1"
       transform="rotate(45)" />
    <rect
       transform="matrix(-0.70710678,0.70710678,0.70710678,0.70710678,0,0)"
       style="opacity:1;fill:#0096ff;fill-opacity:1;stroke:none;stroke-width:0.47434166;stroke-linecap:round;stroke-miterlimit:4;stroke-dasharray:none;stroke-opacity:1"
       id="rect847"
       width="1"
       height="5"
       x="-11.813709"
       y="23.076521"
       ry="0.5" />
  </g>
  <path
     inkscape:connector-curvature="0"
     id="path885"
     d="M 8.5,1 A 7.5,7.5 0 0 0 1,8.5 7.5,7.5 0 0 0 8.5,16 7.5,7.5 0 0 0 16,8.5 7.5,7.5 0 0 0 8.5,1 Z m 0,1.0714286 A 6.4285714,6.4285714 0 0 1 14.928571,8.5 6.4285714,6.4285714 0 0 1 8.5,14.928571 6.4285714,6.4285714 0 0 1 2.0714286,8.5 6.4285714,6.4285714 0 0 1 8.5,2.0714286 Z"
     style="opacity:1;fill:#0096ff;fill-opacity:1;stroke:none;stroke-width:0.64285719;stroke-linecap:round;stroke-miterlimit:4;stroke-dasharray:none;stroke-opacity:1" />
</svg>
