<?xml version="1.0" encoding="UTF-8" standalone="no"?>
<svg
   width="16"
   height="16"
   version="1.1"
   id="svg243"
   sodipodi:docname="folder-templates.svg"
   inkscape:version="1.2.2 (b0a8486541, 2022-12-01)"
   xmlns:inkscape="http://www.inkscape.org/namespaces/inkscape"
   xmlns:sodipodi="http://sodipodi.sourceforge.net/DTD/sodipodi-0.dtd"
   xmlns="http://www.w3.org/2000/svg"
   xmlns:svg="http://www.w3.org/2000/svg">
  <sodipodi:namedview
     id="namedview245"
     pagecolor="#ffffff"
     bordercolor="#999999"
     borderopacity="1"
     inkscape:showpageshadow="0"
     inkscape:pageopacity="0"
     inkscape:pagecheckerboard="0"
     inkscape:deskcolor="#d1d1d1"
     showgrid="false"
     inkscape:zoom="18.782524"
     inkscape:cx="-0.15972294"
     inkscape:cy="4.8449293"
     inkscape:window-width="1920"
     inkscape:window-height="1000"
     inkscape:window-x="0"
     inkscape:window-y="0"
     inkscape:window-maximized="1"
     inkscape:current-layer="svg243" />
  <defs
     id="defs239">
    <style
       id="current-color-scheme"
       type="text/css">.ColorScheme-Text { color:#363636; }</style>
  </defs>
  <path
     d="m 26.573832,2.0078 c -0.02062,0.00258 -0.04,0.015631 -0.06055,0.019531 -0.07284,0.013668 -0.13888,0.040876 -0.20703,0.070312 -0.03602,0.015516 -0.07455,0.017001 -0.10938,0.037109 -0.01754,0.010127 -0.02628,0.02807 -0.04297,0.039062 -0.05963,0.039037 -0.10921,0.088489 -0.16016,0.14062 -0.04279,0.043832 -0.08567,0.084809 -0.11914,0.13477 -0.013,0.019317 -0.0331,0.0303 -0.04492,0.050781 l -3.1758,5.5 h -2.956998 c -0.554,0 -1,0.446 -1,1 0,0.554 0.446,1 1,1 h 1.8027 2.3105 4.6211 l -1.1543,-2 h -1.1582 -1.1543 l 1.7324,-3.002 1.1543,-2 -0.28711,-0.49805 c -0.01183,-0.020481 -0.03192,-0.031464 -0.04492,-0.050781 -0.03347,-0.049957 -0.07635,-0.090934 -0.11914,-0.13477 -0.05094,-0.052136 -0.10053,-0.10159 -0.16016,-0.14062 -0.01669,-0.010993 -0.02543,-0.028935 -0.04297,-0.039062 -0.03483,-0.020108 -0.07336,-0.021593 -0.10938,-0.037109 -0.06815,-0.029436 -0.13419,-0.056644 -0.20703,-0.070312 -0.06182,-0.011736 -0.12163,-0.011763 -0.18359,-0.011719 -0.04137,-2.92e-5 -0.08162,-0.013003 -0.12305,-0.00781 z m 1.8555,1.9902 -1.1543,2 1.1543,2.002 1.1543,2 2.248,3.8926 c 0.277,0.47978 0.88546,0.64419 1.3652,0.36719 0.47974,-0.277 0.64419,-0.88741 0.36719,-1.3672 l -1.6699,-2.8926 h 1.8027 c 0.554,0 1,-0.446 1,-1 0,-0.554 -0.446,-1 -1,-1 h -2.957 l -2.3105,-4.002 z m -7.5078,7.002 -1.0918,1.8926 c -0.277,0.47978 -0.11259,1.0902 0.36719,1.3672 0.47978,0.277 1.0882,0.11259 1.3652,-0.36719 l 1.6699,-2.8926 h -2.3105 z"
     style="fill:currentColor"
     class="ColorScheme-Text"
     id="path241" />
  <path
     class="ColorScheme-Text"
     d="m 7.99999,1.0057905 c -0.12781,0 -0.25558,0.04855 -0.35352,0.14648 l -7.0703,7.0723 c -0.19587,0.19587 -0.19587,0.51116 0,0.70703 0.19587,0.19587 0.51116,0.19587 0.70703,0 L 2,8.2148005 V 14 c 0,1.108 0.892,2 2,2 h 8 c 1.108,0 2,-0.892 2,-1.999999 V 8.2148005 l 0.7168,0.7168 c 0.19587,0.19587 0.51116,0.19587 0.70703,0 0.19587,-0.19587 0.19587,-0.51116 0,-0.70703 l -7.0703,-7.0723 C 8.2556,1.0543365 8.12782,1.0057905 8.00001,1.0057905 Z m 0,1.209 5,5 V 13.99999 c 0,0.554001 -0.446,1 -1,1 h -2 v -3 c 0,-1.107999 -0.892,-1.9999995 -2,-1.9999995 -1.108,0 -2,0.8920005 -2,1.9999995 v 3 h -2 c -0.554,0 -1,-0.445999 -1,-0.999999 V 7.2147905 Z"
     fill="currentColor"
     id="path5"
     style="color:#363636" />
</svg>
