<?xml version="1.0" encoding="UTF-8" standalone="no"?>
<svg
   xmlns:dc="http://purl.org/dc/elements/1.1/"
   xmlns:cc="http://creativecommons.org/ns#"
   xmlns:rdf="http://www.w3.org/1999/02/22-rdf-syntax-ns#"
   xmlns:svg="http://www.w3.org/2000/svg"
   xmlns="http://www.w3.org/2000/svg"
   xmlns:sodipodi="http://sodipodi.sourceforge.net/DTD/sodipodi-0.dtd"
   xmlns:inkscape="http://www.inkscape.org/namespaces/inkscape"
   inkscape:version="1.0 (4035a4fb49, 2020-05-01)"
   sodipodi:docname="folder-video.svg"
   id="svg13"
   viewBox="0 0 16 16"
   version="1.1"
   height="16"
   width="16">
  <metadata
     id="metadata17">
    <rdf:RDF>
      <cc:Work
         rdf:about="">
        <dc:format>image/svg+xml</dc:format>
        <dc:type
           rdf:resource="http://purl.org/dc/dcmitype/StillImage" />
        <dc:title />
      </cc:Work>
    </rdf:RDF>
  </metadata>
  <sodipodi:namedview
     inkscape:document-rotation="0"
     inkscape:current-layer="svg13"
     inkscape:window-maximized="1"
     inkscape:window-y="36"
     inkscape:window-x="0"
     inkscape:cy="6.5898777"
     inkscape:cx="2.7621815"
     inkscape:zoom="20.85965"
     showgrid="true"
     id="namedview15"
     inkscape:window-height="936"
     inkscape:window-width="1920"
     inkscape:pageshadow="2"
     inkscape:pageopacity="0"
     guidetolerance="10"
     gridtolerance="10"
     objecttolerance="10"
     borderopacity="1"
     bordercolor="#666666"
     pagecolor="#ffffff">
    <inkscape:grid
       id="grid819"
       type="xygrid" />
  </sodipodi:namedview>
  <defs
     id="defs3">
    <style
       type="text/css"
       id="current-color-scheme">.ColorScheme-Text { color:#363636; } .ColorScheme-Highlight { color:#5294e2; }</style>
  </defs>
  <path
     inkscape:connector-curvature="0"
     id="rect957"
     d="M 2,3 C 0.892,3 0,3.892 0,5 v 7 c 0,1.108 0.892,2 2,2 h 12 c 1.108,0 2,-0.892 2,-2 V 5 C 16,3.892 15.108,3 14,3 Z M 1.5,4 H 3 V 5 H 1.5 1 V 4.5 A 0.5,0.5 0 0 1 1.00195,4.449219 0.5,0.5 0 0 1 1.00976,4.400391 0.5,0.5 0 0 1 1.021478,4.351563 0.5,0.5 0 0 1 1.039056,4.304688 0.5,0.5 0 0 1 1.060541,4.259766 0.5,0.5 0 0 1 1.087885,4.216797 0.5,0.5 0 0 1 1.117182,4.177734 0.5,0.5 0 0 1 1.152338,4.140625 0.5,0.5 0 0 1 1.189447,4.107422 0.5,0.5 0 0 1 1.230463,4.080078 0.5,0.5 0 0 1 1.273432,4.054687 0.5,0.5 0 0 1 1.318353,4.033203 0.5,0.5 0 0 1 1.367182,4.017578 0.5,0.5 0 0 1 1.414056,4.007808 0.5,0.5 0 0 1 1.464838,4.001948 0.5,0.5 0 0 1 1.5,4 Z M 5,4 h 6 c 0.554,0 1,0.446 1,1 v 2 c 0,0.554 -0.446,1 -1,1 H 5 C 4.446,8 4,7.554 4,7 V 5 C 4,4.446 4.446,4 5,4 Z m 8,0 h 1.5 a 0.5,0.5 0 0 1 0.03516,0.00195 0.5,0.5 0 0 1 0.05078,0.00586 0.5,0.5 0 0 1 0.04687,0.00977 0.5,0.5 0 0 1 0.04883,0.015625 0.5,0.5 0 0 1 0.04492,0.021484 0.5,0.5 0 0 1 0.04297,0.025391 0.5,0.5 0 0 1 0.04102,0.027344 0.5,0.5 0 0 1 0.03711,0.033203 0.5,0.5 0 0 1 0.03516,0.037109 0.5,0.5 0 0 1 0.0293,0.039063 0.5,0.5 0 0 1 0.02734,0.042969 0.5,0.5 0 0 1 0.02149,0.044922 0.5,0.5 0 0 1 0.01758,0.046875 0.5,0.5 0 0 1 0.01172,0.048828 0.5,0.5 0 0 1 0.0078,0.048828 A 0.5,0.5 0 0 1 15,4.5 V 5 H 14.5 13 Z M 1,6 H 3 V 7 H 1 Z m 12,0 h 2 V 7 H 13 Z M 1,8 H 3 V 9 H 1 Z m 12,0 h 2 V 9 H 13 Z M 5,9 h 6 c 0.554,0 1,0.446 1,1 v 2 c 0,0.554 -0.446,1 -1,1 H 5 C 4.446,13 4,12.554 4,12 V 10 C 4,9.446 4.446,9 5,9 Z m -4,1 h 2 v 1 H 1 Z m 12,0 h 2 v 1 H 13 Z M 1,12 H 1.5 3 v 1 H 1.5 A 0.5,0.5 0 0 1 1.464844,12.998 0.5,0.5 0 0 1 1.414062,12.9921 0.5,0.5 0 0 1 1.367188,12.9823 0.5,0.5 0 0 1 1.318359,12.96667 0.5,0.5 0 0 1 1.273438,12.94518 0.5,0.5 0 0 1 1.230469,12.91979 0.5,0.5 0 0 1 1.189453,12.89245 0.5,0.5 0 0 1 1.152344,12.85925 0.5,0.5 0 0 1 1.117188,12.82214 0.5,0.5 0 0 1 1.087891,12.78308 0.5,0.5 0 0 1 1.060547,12.74011 0.5,0.5 0 0 1 1.039062,12.69519 0.5,0.5 0 0 1 1.021484,12.64832 0.5,0.5 0 0 1 1.009766,12.59949 0.5,0.5 0 0 1 1.001956,12.55066 0.5,0.5 0 0 1 1,12.5 Z m 12,0 h 1.5 0.5 v 0.5 a 0.5,0.5 0 0 1 -0.002,0.05078 0.5,0.5 0 0 1 -0.0078,0.04883 0.5,0.5 0 0 1 -0.01172,0.04883 0.5,0.5 0 0 1 -0.01758,0.04687 0.5,0.5 0 0 1 -0.02149,0.04492 0.5,0.5 0 0 1 -0.02734,0.04297 0.5,0.5 0 0 1 -0.0293,0.03906 0.5,0.5 0 0 1 -0.03516,0.03711 0.5,0.5 0 0 1 -0.03711,0.0332 0.5,0.5 0 0 1 -0.04102,0.02734 0.5,0.5 0 0 1 -0.04297,0.02539 0.5,0.5 0 0 1 -0.04492,0.02149 0.5,0.5 0 0 1 -0.04883,0.01563 0.5,0.5 0 0 1 -0.04687,0.0098 0.5,0.5 0 0 1 -0.05078,0.0059 A 0.5,0.5 0 0 1 14.5,13 H 13 Z"
     style="opacity:1;fill:#0096ff;fill-opacity:1;stroke:none;stroke-width:0.60000002;stroke-linecap:round;stroke-miterlimit:4;stroke-dasharray:none;stroke-opacity:1" />
</svg>
