<?xml version="1.0" encoding="UTF-8" standalone="no"?>
<svg
   xmlns:dc="http://purl.org/dc/elements/1.1/"
   xmlns:cc="http://creativecommons.org/ns#"
   xmlns:rdf="http://www.w3.org/1999/02/22-rdf-syntax-ns#"
   xmlns:svg="http://www.w3.org/2000/svg"
   xmlns="http://www.w3.org/2000/svg"
   xmlns:sodipodi="http://sodipodi.sourceforge.net/DTD/sodipodi-0.dtd"
   xmlns:inkscape="http://www.inkscape.org/namespaces/inkscape"
   width="16"
   height="16"
   version="1.1"
   viewBox="0 0 16 16"
   id="svg13"
   sodipodi:docname="folder-camera.svg"
   inkscape:version="0.92.5 (6c0c36ef5a, 2020-05-15, custom)">
  <metadata
     id="metadata17">
    <rdf:RDF>
      <cc:Work
         rdf:about="">
        <dc:format>image/svg+xml</dc:format>
        <dc:type
           rdf:resource="http://purl.org/dc/dcmitype/StillImage" />
        <dc:title></dc:title>
      </cc:Work>
    </rdf:RDF>
  </metadata>
  <sodipodi:namedview
     pagecolor="#ffffff"
     bordercolor="#666666"
     borderopacity="1"
     objecttolerance="10"
     gridtolerance="10"
     guidetolerance="10"
     inkscape:pageopacity="0"
     inkscape:pageshadow="2"
     inkscape:window-width="1920"
     inkscape:window-height="954"
     id="namedview15"
     showgrid="true"
     inkscape:zoom="7.375"
     inkscape:cx="49.749768"
     inkscape:cy="-6.1859777"
     inkscape:window-x="0"
     inkscape:window-y="36"
     inkscape:window-maximized="1"
     inkscape:current-layer="svg13">
    <inkscape:grid
       type="xygrid"
       id="grid819" />
  </sodipodi:namedview>
  <defs
     id="defs3">
    <style
       id="current-color-scheme"
       type="text/css">.ColorScheme-Text { color:#363636; } .ColorScheme-Highlight { color:#5294e2; }</style>
    <style
       type="text/css"
       id="current-color-scheme-5">.ColorScheme-Text { color:#363636; } .ColorScheme-Highlight { color:#5294e2; }</style>
  </defs>
  <g
     id="g880"
     transform="translate(-20)">
    <path
       inkscape:connector-curvature="0"
       d="m 22,2 c -1.108,0 -2,0.892 -2,2 v 9 c 0,1.108 0.892,2 2,2 h 12 c 1.108,0 2,-0.892 2,-2 V 4 C 36,2.892 35.108,2 34,2 Z m 0,1 h 12 c 0.554,0 1,0.446 1,1 v 9 c 0,0.554 -0.446,1 -1,1 H 22 c -0.554,0 -1,-0.446 -1,-1 V 4 c 0,-0.554 0.446,-1 1,-1 z"
       id="path866"
       style="color:#363636;opacity:1;fill:#0550eb;fill-opacity:1" />
    <path
       id="rect850"
       d="M 24.117188,15 H 34 c 0.554,0 1.054516,-0.222484 1.416016,-0.583984 0.281292,-0.281293 0.381314,-0.692364 0.455078,-1.101563 L 31.544922,8.9882812 c -0.391737,-0.3917371 -1.022325,-0.3917371 -1.414063,0 z"
       style="opacity:1;fill:#0550eb;fill-opacity:1;stroke:none;stroke-width:1.76901269;stroke-linecap:round;stroke-miterlimit:4;stroke-dasharray:none;stroke-opacity:1"
       inkscape:connector-curvature="0" />
    <path
       id="rect852"
       d="m 20.292969,13.707031 c 0.100945,0.239637 0.11014,0.528109 0.291015,0.708985 C 20.945484,14.777516 21.446,15 22,15 h 7 l -4.292969,-4.292969 c -0.391737,-0.391737 -1.022325,-0.391737 -1.414062,0 z"
       style="opacity:1;fill:#0550eb;fill-opacity:1;stroke:none;stroke-width:1.76901269;stroke-linecap:round;stroke-miterlimit:4;stroke-dasharray:none;stroke-opacity:1"
       inkscape:connector-curvature="0" />
    <circle
       r="1.5"
       cy="6.5"
       cx="24.5"
       id="path874"
       style="opacity:1;fill:#0550eb;fill-opacity:1;stroke:none;stroke-width:0.60000002;stroke-linecap:round;stroke-miterlimit:4;stroke-dasharray:none;stroke-opacity:1" />
  </g>
</svg>
