<?xml version="1.0" encoding="UTF-8" standalone="no"?>
<svg
   xmlns:dc="http://purl.org/dc/elements/1.1/"
   xmlns:cc="http://creativecommons.org/ns#"
   xmlns:rdf="http://www.w3.org/1999/02/22-rdf-syntax-ns#"
   xmlns:svg="http://www.w3.org/2000/svg"
   xmlns="http://www.w3.org/2000/svg"
   xmlns:sodipodi="http://sodipodi.sourceforge.net/DTD/sodipodi-0.dtd"
   xmlns:inkscape="http://www.inkscape.org/namespaces/inkscape"
   inkscape:version="1.0 (4035a4fb49, 2020-05-01)"
   sodipodi:docname="folder.svg"
   id="svg13"
   version="1.1"
   viewBox="0 0 16 16"
   height="16"
   width="16">
  <metadata
     id="metadata17">
    <rdf:RDF>
      <cc:Work
         rdf:about="">
        <dc:format>image/svg+xml</dc:format>
        <dc:type
           rdf:resource="http://purl.org/dc/dcmitype/StillImage" />
        <dc:title />
      </cc:Work>
    </rdf:RDF>
  </metadata>
  <sodipodi:namedview
     inkscape:document-rotation="0"
     inkscape:current-layer="svg13"
     inkscape:window-maximized="1"
     inkscape:window-y="36"
     inkscape:window-x="0"
     inkscape:cy="8.5125957"
     inkscape:cx="8.5435592"
     inkscape:zoom="20.85965"
     showgrid="true"
     id="namedview15"
     inkscape:window-height="936"
     inkscape:window-width="1920"
     inkscape:pageshadow="2"
     inkscape:pageopacity="0"
     guidetolerance="10"
     gridtolerance="10"
     objecttolerance="10"
     borderopacity="1"
     bordercolor="#666666"
     pagecolor="#ffffff">
    <inkscape:grid
       id="grid825"
       type="xygrid" />
  </sodipodi:namedview>
  <defs
     id="defs3">
    <style
       type="text/css"
       id="current-color-scheme">
   .ColorScheme-Text { color:#363636; } .ColorScheme-Highlight { color:#5294e2; }
  </style>
  </defs>
  <path
     inkscape:connector-curvature="0"
     id="path832"
     d="M 2,2 C 0.892,2 0,2.892 0,4 v 9 c 0,1.108 0.892,2 2,2 h 12 c 1.108,0 2,-0.892 2,-2 V 5 4.5 A 1.5,1.5 0 0 0 15.9961,4.394531 1.5,1.5 0 0 0 15.97852,4.244141 1.5,1.5 0 0 0 15.94532,4.099609 1.5,1.5 0 0 0 15.89845,3.957031 1.5,1.5 0 0 0 15.83595,3.820312 1.5,1.5 0 0 0 15.76172,3.689453 1.5,1.5 0 0 0 15.67578,3.568359 1.5,1.5 0 0 0 15.57617,3.455078 1.5,1.5 0 0 0 15.466797,3.353516 1.5,1.5 0 0 0 15.347656,3.261719 1.5,1.5 0 0 0 15.21875,3.183594 1.5,1.5 0 0 0 15.083984,3.119141 1.5,1.5 0 0 0 14.943359,3.066406 1.5,1.5 0 0 0 14.798828,3.029297 1.5,1.5 0 0 0 14.650391,3.007812 1.5,1.5 0 0 0 14.5,3 H 6.375 C 5.79515,2.9771 5.768264,3.07689 5.333984,2.642578 4.899704,2.208298 4.72103,2 4,2 H 3 Z M 2,3 H 3 4 C 4.3123,3 4.52123,2.999093 5,3.470703 5.47877,3.942313 5.6388,4 6,4 H 13.087891 14 a 1,1 0 0 1 0.09961,0.00586 1,1 0 0 1 0.09961,0.013672 1,1 0 0 1 0.0957,0.025391 1,1 0 0 1 0.09375,0.033203 1,1 0 0 1 0.08984,0.044922 1,1 0 0 1 0.08594,0.050781 1,1 0 0 1 0.08008,0.060547 1,1 0 0 1 0.07227,0.068359 1,1 0 0 1 0.06641,0.076172 1,1 0 0 1 0.05859,0.080078 1,1 0 0 1 0.04883,0.087891 1,1 0 0 1 0.04102,0.089844 1,1 0 0 1 0.03125,0.095703 1,1 0 0 1 0.02344,0.097656 1,1 0 0 1 0.01172,0.09961 A 1,1 0 0 1 15,5 H 14 2 1 V 4 C 1.000294,3.96672 1.0023,3.933481 1.0059,3.900391 1.0088,3.866981 1.0133,3.833731 1.01957,3.800781 1.02647,3.768481 1.03492,3.736538 1.04496,3.705078 1.05446,3.673298 1.06555,3.642008 1.07816,3.611328 1.09162,3.580648 1.10661,3.550654 1.12308,3.521484 1.13857,3.492014 1.15551,3.463337 1.17386,3.435547 1.19269,3.407857 1.2129,3.381129 1.23441,3.355469 1.25598,3.330259 1.2788,3.306143 1.30277,3.283203 1.32703,3.259793 1.35245,3.237637 1.37894,3.216797 1.40465,3.195957 1.43137,3.176393 1.45902,3.158203 1.48748,3.140463 1.51681,3.124165 1.54691,3.109375 1.57616,3.094235 1.60615,3.080549 1.63675,3.068359 1.66811,3.056339 1.70005,3.045909 1.73245,3.037109 1.76459,3.027709 1.79718,3.019842 1.83011,3.013672 1.8631,3.008072 1.89634,3.004172 1.92972,3.001953 1.953097,3.000453 1.97655,2.999903 2,3.000003 Z m 0,3 h 12 c 0.554,0 1,0.446 1,1 v 6 c 0,0.554 -0.446,1 -1,1 H 2 C 1.446,14 1,13.554 1,13 V 7 C 1,6.446 1.446,6 2,6 Z"
     style="color:#363636;opacity:1;fill:#0096ff;fill-opacity:1" />
</svg>
