<?xml version="1.0" encoding="UTF-8" standalone="no"?>
<svg
   xmlns:dc="http://purl.org/dc/elements/1.1/"
   xmlns:cc="http://creativecommons.org/ns#"
   xmlns:rdf="http://www.w3.org/1999/02/22-rdf-syntax-ns#"
   xmlns:svg="http://www.w3.org/2000/svg"
   xmlns="http://www.w3.org/2000/svg"
   xmlns:sodipodi="http://sodipodi.sourceforge.net/DTD/sodipodi-0.dtd"
   xmlns:inkscape="http://www.inkscape.org/namespaces/inkscape"
   inkscape:version="1.0 (4035a4fb49, 2020-05-01)"
   sodipodi:docname="user-trash.svg"
   id="svg9"
   viewBox="0 0 16 16"
   version="1.1"
   height="16"
   width="16">
  <metadata
     id="metadata13">
    <rdf:RDF>
      <cc:Work
         rdf:about="">
        <dc:format>image/svg+xml</dc:format>
        <dc:type
           rdf:resource="http://purl.org/dc/dcmitype/StillImage" />
        <dc:title />
      </cc:Work>
    </rdf:RDF>
  </metadata>
  <sodipodi:namedview
     inkscape:document-rotation="0"
     inkscape:snap-nodes="false"
     inkscape:snap-bbox-edge-midpoints="true"
     inkscape:bbox-nodes="true"
     inkscape:snap-bbox="true"
     inkscape:current-layer="svg9"
     inkscape:window-maximized="1"
     inkscape:window-y="36"
     inkscape:window-x="0"
     inkscape:cy="7.200215"
     inkscape:cx="1.8483948"
     inkscape:zoom="29.5"
     showgrid="true"
     id="namedview11"
     inkscape:window-height="936"
     inkscape:window-width="1920"
     inkscape:pageshadow="2"
     inkscape:pageopacity="0"
     guidetolerance="10"
     gridtolerance="10"
     objecttolerance="10"
     borderopacity="1"
     bordercolor="#666666"
     pagecolor="#ffffff">
    <inkscape:grid
       id="grid830"
       type="xygrid" />
  </sodipodi:namedview>
  <defs
     id="defs3">
    <style
       type="text/css"
       id="current-color-scheme">.ColorScheme-Text { color:#363636; } .ColorScheme-Highlight { color:#5294e2; }</style>
  </defs>
  <path
     id="rect817"
     d="m -14,6 v 8 c 0,1.108 0.892,2 2,2 h 6 c 1.108,0 2,-0.892 2,-2 V 6 h -1 v 8 c 0,0.554 -0.446,1 -1,1 h -6 c -0.554,0 -1,-0.446 -1,-1 V 6 Z"
     style="opacity:1;fill:#0550eb;fill-opacity:1;stroke:none;stroke-width:0.507093;stroke-linecap:round;stroke-miterlimit:4;stroke-dasharray:none;stroke-opacity:1"
     inkscape:connector-curvature="0" />
  <rect
     ry="0.5"
     y="7"
     x="-11"
     height="7"
     width="1"
     id="rect822"
     style="opacity:1;fill:#0550eb;fill-opacity:1;stroke:none;stroke-width:0.6;stroke-linecap:round;stroke-miterlimit:4;stroke-dasharray:none;stroke-opacity:1" />
  <rect
     style="opacity:1;fill:#0550eb;fill-opacity:1;stroke:none;stroke-width:0.6;stroke-linecap:round;stroke-miterlimit:4;stroke-dasharray:none;stroke-opacity:1"
     id="rect824"
     width="1"
     height="7"
     x="-8"
     y="7"
     ry="0.5" />
  <rect
     transform="rotate(15)"
     ry="0.5"
     y="6.425385"
     x="-14.232803"
     height="1"
     width="14"
     id="rect846"
     style="opacity:1;fill:#0550eb;fill-opacity:1;stroke:none;stroke-width:0.6;stroke-linecap:round;stroke-miterlimit:4;stroke-dasharray:none;stroke-opacity:1" />
  <path
     inkscape:connector-curvature="0"
     id="rect848"
     d="M -9.8047584,0.91904241 C -10.875004,0.63227091 -11.967477,1.26301 -12.254248,2.3332558 l -0.258819,0.9659258 0.965926,0.2588191 0.258819,-0.9659258 c 0.143385,-0.5351229 0.689622,-0.8504926 1.224745,-0.7071068 l 3.863703,1.0352762 c 0.535123,0.1433857 0.850492,0.6896219 0.707106,1.2247448 L -5.751587,5.110915 -4.785661,5.369734 -4.526842,4.4038082 C -4.24007,3.3335624 -4.870809,2.2410899 -5.941055,1.9543184 Z"
     style="opacity:1;fill:#0550eb;fill-opacity:1;stroke:none;stroke-width:1.11098;stroke-linecap:round;stroke-miterlimit:4;stroke-dasharray:none;stroke-opacity:1" />
  <g
     id="g865"
     transform="translate(-17)">
    <path
       id="rect817-3"
       d="m 20,6 v 8 c 0,1.108 0.892,2 2,2 h 6 c 1.108,0 2,-0.892 2,-2 V 6 h -1 v 8 c 0,0.554 -0.446,1 -1,1 h -6 c -0.554,0 -1,-0.446 -1,-1 V 6 Z"
       style="opacity:1;fill:#0096ff;fill-opacity:1;stroke:none;stroke-width:0.507093;stroke-linecap:round;stroke-miterlimit:4;stroke-dasharray:none;stroke-opacity:1"
       inkscape:connector-curvature="0" />
    <rect
       ry="0.5"
       y="7"
       x="23"
       height="7"
       width="1"
       id="rect822-6"
       style="opacity:1;fill:#0096ff;fill-opacity:1;stroke:none;stroke-width:0.6;stroke-linecap:round;stroke-miterlimit:4;stroke-dasharray:none;stroke-opacity:1" />
    <rect
       style="opacity:1;fill:#0096ff;fill-opacity:1;stroke:none;stroke-width:0.6;stroke-linecap:round;stroke-miterlimit:4;stroke-dasharray:none;stroke-opacity:1"
       id="rect824-7"
       width="1"
       height="7"
       x="26"
       y="7"
       ry="0.5" />
    <rect
       ry="0.5"
       y="4"
       x="18"
       height="1"
       width="14"
       id="rect846-5"
       style="opacity:1;fill:#0096ff;fill-opacity:1;stroke:none;stroke-width:0.6;stroke-linecap:round;stroke-miterlimit:4;stroke-dasharray:none;stroke-opacity:1" />
    <path
       inkscape:connector-curvature="0"
       id="rect848-3"
       d="m 23,1 c -1.108,0 -2,0.892 -2,2 v 1 h 1 V 3 c 0,-0.554 0.446,-1 1,-1 h 4 c 0.554,0 1,0.446 1,1 v 1 h 1 V 3 C 29,1.892 28.108,1 27,1 Z"
       style="opacity:1;fill:#0096ff;fill-opacity:1;stroke:none;stroke-width:1.11098;stroke-linecap:round;stroke-miterlimit:4;stroke-dasharray:none;stroke-opacity:1" />
  </g>
</svg>
