<?xml version="1.0" encoding="UTF-8" standalone="no"?>
<svg
   width="64"
   height="64"
   version="1.1"
   id="svg18"
   sodipodi:docname="folder-html.svg"
   inkscape:version="1.4 (e7c3feb100, 2024-10-09)"
   xmlns:inkscape="http://www.inkscape.org/namespaces/inkscape"
   xmlns:sodipodi="http://sodipodi.sourceforge.net/DTD/sodipodi-0.dtd"
   xmlns:xlink="http://www.w3.org/1999/xlink"
   xmlns="http://www.w3.org/2000/svg"
   xmlns:svg="http://www.w3.org/2000/svg">
  <sodipodi:namedview
     id="namedview18"
     pagecolor="#505050"
     bordercolor="#eeeeee"
     borderopacity="1"
     inkscape:showpageshadow="0"
     inkscape:pageopacity="0"
     inkscape:pagecheckerboard="0"
     inkscape:deskcolor="#505050"
     inkscape:zoom="5.84375"
     inkscape:cx="68.962567"
     inkscape:cy="46.374332"
     inkscape:window-width="1920"
     inkscape:window-height="1007"
     inkscape:window-x="0"
     inkscape:window-y="0"
     inkscape:window-maximized="1"
     inkscape:current-layer="svg18" />
  <defs
     id="defs13">
    <linearGradient
       id="e"
       x1="8.467"
       x2="8.467"
       y1="4.498"
       y2="9.985"
       gradientTransform="matrix(3.7794,0,0,3.7794,87.958219,0)"
       gradientUnits="userSpaceOnUse">
      <stop
         offset="0"
         id="stop1" />
      <stop
         offset="1"
         stop-opacity="0"
         id="stop2" />
    </linearGradient>
    <linearGradient
       id="d"
       x1="8.467"
       x2="8.467"
       y1="294.62"
       y2="293.56"
       gradientTransform="matrix(3.7794,0,0,3.7794,87.958219,-1058.5)"
       gradientUnits="userSpaceOnUse">
      <stop
         offset="0"
         stop-opacity=".1"
         id="stop3" />
      <stop
         offset=".5"
         stop-opacity=".05"
         id="stop4" />
      <stop
         offset="1"
         stop-color="#fff"
         stop-opacity=".15"
         id="stop5" />
    </linearGradient>
    <linearGradient
       id="c"
       x1="8.467"
       x2="8.467"
       y1="293.3"
       y2="292.77"
       gradientTransform="matrix(3.7794,0,0,3.7794,87.957219,-1058.5)"
       gradientUnits="userSpaceOnUse">
      <stop
         offset="0"
         stop-opacity=".1"
         id="stop6" />
      <stop
         offset="1"
         stop-color="#fff"
         stop-opacity=".15"
         id="stop7" />
    </linearGradient>
    <linearGradient
       id="b"
       x1="1.058"
       x2="15.875"
       y1="289.59"
       y2="289.59"
       gradientTransform="matrix(3.7794,0,0,3.7794,87.957219,-1058.5)"
       gradientUnits="userSpaceOnUse">
      <stop
         offset="0"
         stop-opacity=".1"
         id="stop8" />
      <stop
         offset=".108"
         stop-opacity="0"
         id="stop9" />
      <stop
         offset=".894"
         stop-opacity="0"
         id="stop10" />
      <stop
         offset="1"
         stop-opacity=".1"
         id="stop11" />
    </linearGradient>
    <linearGradient
       id="a"
       x1="6.879"
       x2="6.879"
       y1="285.36"
       y2="283.77"
       gradientTransform="matrix(3.7794,0,0,3.7794,87.958219,-1058.5)"
       gradientUnits="userSpaceOnUse">
      <stop
         offset="0"
         id="stop12" />
      <stop
         offset="1"
         stop-opacity=".2"
         id="stop13" />
    </linearGradient>
    <filter
       id="filter1733"
       x="-0.010999908"
       y="-0.013200229"
       width="1.0219998"
       height="1.0264005"
       color-interpolation-filters="sRGB">
      <feGaussianBlur
         stdDeviation="0.072761339"
         id="feGaussianBlur880" />
    </filter>
    <linearGradient
       inkscape:collect="always"
       xlink:href="#linearGradient1620"
       id="linearGradient1622"
       x1="60"
       y1="21"
       x2="60"
       y2="55"
       gradientUnits="userSpaceOnUse"
       gradientTransform="matrix(0.31794879,0,0,0.31794879,0.205124,0.2051254)" />
    <linearGradient
       inkscape:collect="always"
       id="linearGradient1620">
      <stop
         style="stop-color:#505050;stop-opacity:1;"
         offset="0"
         id="stop1616" />
      <stop
         style="stop-color:#323232;stop-opacity:1"
         offset="1"
         id="stop1618" />
    </linearGradient>
    <filter
       id="filter935"
       x="-0.014849913"
       y="-0.14849988"
       width="1.0296998"
       height="1.2969998"
       color-interpolation-filters="sRGB">
      <feGaussianBlur
         stdDeviation="0.098224626"
         id="feGaussianBlur883" />
    </filter>
    <linearGradient
       inkscape:collect="always"
       xlink:href="#linearGradient1448"
       id="linearGradient1450"
       x1="5.31354"
       y1="115.78307"
       x2="194.68932"
       y2="115.78307"
       gradientUnits="userSpaceOnUse"
       gradientTransform="matrix(0.31794879,0,0,0.31794879,0.205124,0.2051254)" />
    <linearGradient
       inkscape:collect="always"
       id="linearGradient1448">
      <stop
         style="stop-color:#282828;stop-opacity:1"
         offset="0"
         id="stop1444" />
      <stop
         style="stop-color:#3c3c3c;stop-opacity:1"
         offset="0.08254468"
         id="stop1458" />
      <stop
         id="stop1460"
         offset="0.91187197"
         style="stop-color:#3c3c3c;stop-opacity:1" />
      <stop
         style="stop-color:#282828;stop-opacity:1"
         offset="1"
         id="stop1446" />
    </linearGradient>
    <linearGradient
       inkscape:collect="always"
       xlink:href="#linearGradient4447"
       id="linearGradient4449"
       x1="93.546776"
       y1="178.53749"
       x2="93.546776"
       y2="172.15199"
       gradientUnits="userSpaceOnUse" />
    <linearGradient
       inkscape:collect="always"
       id="linearGradient4447">
      <stop
         style="stop-color:#505050;stop-opacity:1"
         offset="0"
         id="stop4443" />
      <stop
         style="stop-color:#505050;stop-opacity:0"
         offset="1"
         id="stop4445" />
    </linearGradient>
    <filter
       color-interpolation-filters="sRGB"
       height="1.0264005"
       width="1.0219998"
       y="-0.013200229"
       x="-0.010999908"
       id="filter1733-8">
      <feGaussianBlur
         id="feGaussianBlur869"
         stdDeviation="0.072761339" />
    </filter>
    <linearGradient
       gradientUnits="userSpaceOnUse"
       gradientTransform="matrix(0.26458,0,0,0.26458,-0.79373,-39.158)"
       y2="166"
       y1="155"
       x2="25"
       x1="25"
       id="linearGradient1387">
      <stop
         id="stop850"
         offset="0"
         stop-color="#3296d7" />
      <stop
         id="stop852"
         offset="1"
         stop-color="#0a7db4" />
    </linearGradient>
    <filter
       color-interpolation-filters="sRGB"
       height="1.2969998"
       width="1.0296998"
       y="-0.14849988"
       x="-0.014849913"
       id="filter935-9">
      <feGaussianBlur
         id="feGaussianBlur872"
         stdDeviation="0.098224626" />
    </filter>
    <linearGradient
       gradientUnits="userSpaceOnUse"
       gradientTransform="matrix(0.26458,0,0,0.26458,-0.79374,-39.158)"
       y2="185"
       y1="185"
       x2="65"
       x1="5"
       id="linearGradient1401">
      <stop
         id="stop855"
         offset="0"
         stop-color="#3492cb" />
      <stop
         id="stop857"
         offset=".083713"
         stop-color="#6ec8fa" />
      <stop
         id="stop859"
         offset=".91237"
         stop-color="#6ec8fa" />
      <stop
         id="stop861"
         offset="1"
         stop-color="#3492cb" />
    </linearGradient>
    <linearGradient
       gradientUnits="userSpaceOnUse"
       gradientTransform="matrix(0.18168,0,0,0.40956,9.2005,-451.88)"
       y2="1140.2"
       y1="1138.4"
       x2="-9.6169996"
       x1="-9.6169996"
       id="linearGradient1438">
      <stop
         id="stop864"
         offset="0"
         stop-opacity="0"
         stop-color="#1482be" />
      <stop
         id="stop866"
         offset="1"
         stop-color="#1482be" />
    </linearGradient>
  </defs>
  <g
     id="g902"
     transform="matrix(3.792917,0,0,3.792917,-3.123282,-148.6356)"
     style="opacity:0.5;filter:url(#filter1733)">
    <g
       id="g896"
       style="stroke-opacity:0.95294">
      <path
         id="path890"
         d="m 10,155 c -2.77,0 -5,2.23 -5,5 v 40 c 0,2.77 2.23,5 5,5 h 50 c 2.77,0 5,-2.23 5,-5 v -36 c 0,-0.831 -0.3347,-1.5808 -0.87695,-2.123 -0.54225,-0.5422 -1.292,-0.87695 -2.123,-0.87695 h -31 c -0.75,0 -1.5,-0.25001 -2.2188,-0.64062 -0.71875,-0.39063 -1.4062,-0.92188 -2.0312,-1.4844 -1.25,-1.125 -2.25,-2.375 -2.75,-2.875 -0.43528,-0.43528 -1.1061,-0.68419 -1.7754,-0.82617 -0.64042,-0.13585 -1.26,-0.16683 -1.6875,-0.17383 h -0.53711 z"
         transform="scale(0.26458)"
         inkscape:connector-curvature="0"
         style="opacity:1;stroke-width:0.20101" />
      <path
         id="path892"
         d="M 7.4004,165 C 6.0708,165 5,166.0708 5,167.4004 v 32.6 c 0,2.77 2.23,5 5,5 h 50 c 2.77,0 5,-2.23 5,-5 v -32.6 C 65,166.0708 63.9292,165 62.5996,165 Z"
         transform="scale(0.26458)"
         inkscape:connector-curvature="0"
         style="opacity:1;stroke-width:0.17979" />
      <path
         id="path894"
         d="M 7.4004,165 C 6.0708,165 5,166.0708 5,167.4004 v 1 C 5,167.0708 6.0708,166 7.4004,166 h 55.199 c 1.3296,0 2.4004,1.0708 2.4004,2.4004 v -1 C 64.9998,166.0708 63.929,165 62.5994,165 Z"
         transform="scale(0.26458)"
         inkscape:connector-curvature="0"
         style="opacity:1;stroke-width:0.17979" />
    </g>
    <path
       id="path898"
       style="color:#000000;text-indent:0;text-transform:none;opacity:0.5;stroke-width:0.27278"
       d="m 1.3229,52.916 c 0.037387,0.72117 0.52916,1.3229 1.3188,1.3229 h 13.233 c 0.79328,0 1.3224,-0.64408 1.3224,-1.3229 z"
       inkscape:connector-curvature="0" />
    <path
       id="path900"
       style="color:#000000;text-indent:0;text-transform:none;opacity:0.15;stroke-width:0.095585"
       d="m 1.3237,52.916 3.337e-4,0.26458 H 17.198034 L 17.1977,52.916 H 1.3226997 Z m 0.26376,0.79373 h 15.346 c 0.05347,-0.07329 0.11377,-0.15529 0.15166,-0.26458 h -15.653 c 0.046511,0.1129 0.09263,0.17706 0.15532,0.26458 z"
       inkscape:connector-curvature="0" />
  </g>
  <path
     id="path904"
     d="m 6.911752,6.9119344 c -2.779753,0 -5.01765,2.237859 -5.01765,5.0176496 v 40.140442 c 0,2.779752 2.237859,5.017647 5.01765,5.017647 H 57.08825 c 2.779753,0 5.017648,-2.237857 5.017648,-5.017647 V 15.943249 c 0,-0.833911 -0.335862,-1.586388 -0.880031,-2.130519 -0.544169,-0.54417 -1.296608,-0.880033 -2.130521,-0.880033 H 27.986223 c -0.752629,0 -1.505295,-0.25089 -2.226556,-0.642861 -0.721299,-0.391998 -1.411193,-0.925131 -2.03839,-1.489593 C 22.466884,9.6712815 21.463354,8.416888 20.961589,7.9151229 20.524759,7.4782927 19.851629,7.228529 19.179942,7.0860291 18.53727,6.9497003 17.915535,6.91861 17.48648,6.9115852 h -0.539011 z"
     inkscape:connector-curvature="0"
     style="fill:url(#linearGradient1622);fill-opacity:1;stroke-width:0.201715" />
  <path
     transform="matrix(3.792917,0,0,3.792917,-0.112731,-0.112548)"
     id="path906"
     d="M 1.852,4.3131 C 1.66878,4.3131 1.49466,4.350202 1.33628,4.41697 1.1779,4.483736 1.0352,4.58008 0.91564,4.69963 0.79608,4.81919 0.69922,4.96189 0.63246,5.12027 0.56569,5.27865 0.52911,5.45277 0.52911,5.63599 v 0.26458 c 0,-0.18322 0.03658,-0.35734 0.10335,-0.51572 C 0.69922,5.22647 0.79608,5.08377 0.91564,4.96421 1.0352,4.84465 1.1779,4.74831 1.33628,4.68155 1.49466,4.614785 1.66878,4.57768 1.852,4.57768 h 13.229 c 0.18322,0 0.35734,0.037103 0.51572,0.10387 0.15838,0.066765 0.30108,0.16311 0.42064,0.28266 0.11956,0.11956 0.21642,0.26226 0.28318,0.42064 0.06676,0.15838 0.10335,0.3325 0.10335,0.51572 V 5.63599 c 0,-0.18322 -0.03659,-0.35734 -0.10335,-0.51572 C 16.23377,4.96189 16.13692,4.81919 16.01736,4.69963 15.8978,4.58007 15.7551,4.48373 15.59672,4.41697 15.43834,4.350205 15.26422,4.3131 15.081,4.3131 Z"
     inkscape:connector-curvature="0"
     style="opacity:0.1;stroke-width:0.047568;filter:url(#filter935)" />
  <path
     id="path908"
     d="m 6.912131,16.947613 c -0.694938,0 -1.355361,0.140725 -1.956083,0.393971 -0.600722,0.253242 -1.14201,0.618662 -1.595415,1.072182 -0.453481,0.453481 -0.820863,0.99473 -1.074078,1.595414 -0.253219,0.600646 -0.391998,1.261145 -0.391998,1.956083 v 30.105901 c 0,2.779787 2.237859,5.017648 5.01765,5.017648 h 50.176498 c 2.779791,0 5.017651,-2.237861 5.017651,-5.017648 V 21.965263 c 0,-0.694938 -0.138784,-1.355361 -0.391999,-1.956083 -0.253252,-0.600722 -0.620598,-1.142009 -1.074078,-1.595414 -0.453481,-0.453482 -0.994732,-0.818891 -1.595417,-1.072182 -0.600719,-0.253231 -1.261144,-0.393971 -1.956081,-0.393971 H 6.912283 Z"
     inkscape:connector-curvature="0"
     style="fill:url(#linearGradient1450);fill-opacity:1;stroke-width:0.180425" />
  <path
     id="path914"
     d="m 6.911752,16.947234 c -0.694938,0 -1.355361,0.140725 -1.956083,0.39397 C 4.354947,17.594442 3.813697,17.959867 3.360216,18.41331 2.906735,18.866791 2.539353,19.408041 2.286138,20.008763 2.032885,20.609485 1.89414,21.269908 1.89414,21.964846 v 1.00353 c 0,-0.694938 0.138749,-1.355399 0.391998,-1.956083 0.253234,-0.600722 0.620597,-1.141972 1.074078,-1.595453 0.453481,-0.453481 0.994731,-0.81889 1.595453,-1.072106 0.600722,-0.253237 1.261145,-0.39397 1.956083,-0.39397 H 57.08825 c 0.694938,0 1.355362,0.140729 1.956081,0.39397 0.600723,0.253235 1.141974,0.618663 1.595455,1.072106 0.453481,0.453481 0.820864,0.994731 1.074078,1.595453 0.253215,0.600722 0.391996,1.261145 0.391996,1.956083 v -1.00353 c 0,-0.694938 -0.138781,-1.355361 -0.391996,-1.956083 -0.253252,-0.600722 -0.620636,-1.141972 -1.074078,-1.595453 -0.453481,-0.453481 -0.994732,-0.81889 -1.595455,-1.072106 -0.600719,-0.253234 -1.261143,-0.39397 -1.956081,-0.39397 z"
     inkscape:connector-curvature="0"
     style="fill:#414141;fill-opacity:1;stroke-width:0.180422" />
  <g
     id="g4439"
     transform="matrix(0.31794879,0,0,0.31794879,0.205124,0.4057893)">
    <path
       inkscape:connector-curvature="0"
       d="m 5.315695,162.49589 c 0.446,8.60308 6.31252,15.78132 15.7324,15.78132 H 178.90895 c 9.46331,0 15.77535,-7.68345 15.77535,-15.78132 z"
       style="color:#000000;text-indent:0;text-transform:none;fill:url(#linearGradient4449);fill-opacity:1;stroke-width:3.25408"
       id="path926" />
    <path
       inkscape:connector-curvature="0"
       d="m 5.320845,162.49589 0.004,3.15626 H 194.69109 l -0.004,-3.15626 H 5.308915 Z m 3.14648,9.46867 H 191.53487 c 0.63787,-0.8743 1.35719,-1.8525 1.80921,-3.15626 H 6.614225 c 0.55484,1.34682 1.10501,2.11221 1.85286,3.15626 z"
       style="color:#000000;text-indent:0;text-transform:none;opacity:0.25;fill:#5a5a5a;fill-opacity:1;stroke-width:1.14027"
       id="path928" />
  </g>
  <path
     d="m 32,23.052817 -0.229,0.009 -0.002,0.003 -0.053,0.003 -0.044,-0.003 -0.146,0.012 a 12,12 0 0 0 -1.011,0.079 l -0.153,0.023 a 12,12 0 0 0 -0.996,0.179 l -0.237,0.058 a 12,12 0 0 0 -0.952,0.276 l -0.114,0.04 a 12,12 0 0 0 -1.029,0.408 l -0.023,0.012 a 12,12 0 0 0 -1.034,0.533 l -0.05,0.032 a 12,12 0 0 0 -0.964,0.63 l -0.02,0.015 a 12,12 0 0 0 -0.888,0.715 l -0.108,0.1 a 12,12 0 0 0 -0.75,0.737 l -0.094,0.106 a 12,12 0 0 0 -0.689,0.832 l -0.038,0.056 a 12,12 0 0 0 -0.618,0.914 l -0.09,0.155 a 12,12 0 0 0 -0.472,0.879 l -0.094,0.208 a 12,12 0 0 0 -0.384,0.934 l -0.035,0.103 a 12,12 0 0 0 -0.305,1.005 12,12 0 0 0 -0.097,0.401 l 0.006,0.003 -0.026,0.126 a 12,12 0 0 0 -0.14,0.83 12,12 0 0 0 -0.05,0.406 12,12 0 0 0 -0.062,0.926 l -0.009,0.255 a 12,12 0 0 0 6.88,10.837 l 0.017,0.009 a 12,12 0 0 0 0.583,0.26 v 0.004 l 0.014,0.005 a 12,12 0 0 0 0.926,0.326 l 0.232,0.076 a 12,12 0 0 0 0.808,0.196 12,12 0 0 0 0.387,0.085 12,12 0 0 0 0.77,0.108 12,12 0 0 0 0.416,0.05 12,12 0 0 0 0.967,0.044 12,12 0 0 0 0.993,-0.047 v -0.003 h 0.02 a 12,12 0 0 0 1.105,-0.149 l 0.085,-0.012 0.018,-0.003 a 12,12 0 0 0 1.148,-0.278 12,12 0 0 0 5.482,-3.425 l 0.029,-0.032 a 12,12 0 0 0 0.299,-0.32 l 0.003,-0.005 -0.024,0.009 a 12,12 0 0 0 2.842,-7.735 12,12 0 0 0 -0.393,-2.985 h 0.006 l -0.032,-0.096 -0.006,-0.021 a 12,12 0 0 0 -0.29,-0.932 l -0.064,-0.178 a 12,12 0 0 0 -1.653,-3.01 l -0.044,-0.055 -0.035,-0.044 a 12,12 0 0 0 -1.553,-1.66 l -0.07,-0.06 -0.015,-0.014 a 12,12 0 0 0 -0.846,-0.671 l -0.106,-0.076 a 12,12 0 0 0 -0.864,-0.551 l -0.135,-0.08 a 12,12 0 0 0 -5.9,-1.566 z m 0,1.5 0.035,0.003 c -0.007,0.184 -0.035,0.362 -0.035,0.548 0,1.478 0.189,2.91 0.51,4.292 a 11.2,11.2 0 0 1 -6.027,2.586 17.34,17.34 0 0 1 3.695,-7.268 11,11 0 0 1 0.741,-0.094 11,11 0 0 1 0.32,-0.038 11,11 0 0 1 0.761,-0.029 z m 1.526,0.123 0.024,0.006 a 11,11 0 0 1 1.002,0.2 h 0.006 a 11,11 0 0 1 1.001,0.307 l 0.036,0.011 a 11.3,11.3 0 0 1 -1.814,2.933 17.5,17.5 0 0 1 -0.281,-3.03 c 0,-0.144 0.022,-0.283 0.026,-0.427 z m -5.792,0.797 a 18.7,18.7 0 0 0 -2.809,6.562 11.2,11.2 0 0 1 -2.821,-0.454 11,11 0 0 1 0.386,-0.949 l 0.03,-0.062 a 11,11 0 0 1 0.466,-0.878 l 0.014,-0.024 a 11,11 0 0 1 0.574,-0.858 11,11 0 0 1 0.663,-0.806 l 0.011,-0.015 a 11,11 0 0 1 0.724,-0.72 l 0.035,-0.03 a 11,11 0 0 1 0.773,-0.63 l 0.047,-0.032 a 11,11 0 0 1 0.838,-0.553 l 0.024,-0.012 a 11,11 0 0 1 0.917,-0.48 z m 9.223,0.328 0.009,0.006 a 11,11 0 0 1 0.89,0.536 11,11 0 0 1 0.75,0.56 l 0.091,0.067 0.009,0.009 a 11,11 0 0 1 0.677,0.618 l 0.088,0.082 0.006,0.009 a 11,11 0 0 1 0.503,0.56 11,11 0 0 1 0.208,0.24 11,11 0 0 1 0.39,0.53 11,11 0 0 1 0.226,0.32 11,11 0 0 1 0.44,0.752 l 0.072,0.126 0.003,0.009 a 11,11 0 0 1 0.358,0.776 l 0.076,0.17 0.006,0.018 a 11,11 0 0 1 0.234,0.685 11,11 0 0 1 0.114,0.34 12.7,12.7 0 0 0 -5.768,2.42 17.3,17.3 0 0 1 -2.16,-4.746 12.8,12.8 0 0 0 2.778,-4.087 m -4.022,5.153 a 18.9,18.9 0 0 0 2.253,4.655 12.73,12.73 0 0 0 -3.686,6.677 17.3,17.3 0 0 1 -4.843,-1.582 17.5,17.5 0 0 1 -0.659,-4.701 c 0,-0.851 0.082,-1.68 0.2,-2.5 a 12.67,12.67 0 0 0 6.735,-2.548 m -11.232,2.051 c 0.953,0.283 1.945,0.473 2.979,0.519 a 19,19 0 0 0 -0.182,2.478 c 0,1.26 0.132,2.489 0.367,3.68 a 17.3,17.3 0 0 1 -3.19,-2.74 v -0.003 a 11,11 0 0 1 -0.103,-0.753 11,11 0 0 1 -0.041,-0.334 11,11 0 0 1 -0.033,-0.8 11,11 0 0 1 0.053,-1.048 11,11 0 0 1 0.15,-1 z m 20.695,0.677 a 11,11 0 0 1 0.087,0.996 11,11 0 0 1 0.015,0.374 10.5,10.5 0 0 1 -1.06,4.564 l -0.035,0.08 a 17.6,17.6 0 0 1 -4.196,-3.853 11.2,11.2 0 0 1 5.189,-2.162 m -6.32,3.134 a 19,19 0 0 0 4.591,4.16 l -0.003,0.006 a 11,11 0 0 1 -0.425,0.557 17.4,17.4 0 0 1 -5.791,1.014 c -0.492,0 -0.974,-0.034 -1.456,-0.073 a 11.2,11.2 0 0 1 3.085,-5.663 m -13.347,3.153 a 18.3,18.3 0 0 0 2.666,1.781 c 0.224,0.702 0.494,1.383 0.797,2.045 l -0.009,-0.006 a 11,11 0 0 1 -0.794,-0.589 l -0.047,-0.035 a 11,11 0 0 1 -0.77,-0.7 11,11 0 0 1 -0.703,-0.78 11,11 0 0 1 -0.621,-0.843 11,11 0 0 1 -0.519,-0.873 m 4.585,2.68 c 1.267,0.517 2.602,0.887 3.987,1.12 -0.027,0.342 -0.052,0.684 -0.052,1.034 0,0.241 0.018,0.477 0.032,0.715 l -0.015,-0.003 a 10.5,10.5 0 0 1 -2.777,-0.58 l -0.012,-0.003 a 16,16 0 0 1 -1.163,-2.282 z m 10.591,1.073 -0.006,0.006 a 11,11 0 0 1 -0.873,0.53 l -0.017,0.012 -0.01,0.002 a 11,11 0 0 1 -0.799,0.39 l -0.196,0.085 a 11,11 0 0 1 -0.77,0.281 l -0.218,0.07 a 11,11 0 0 1 -0.723,0.188 11,11 0 0 1 -0.325,0.073 11,11 0 0 1 -0.674,0.1 11,11 0 0 1 -0.501,0.062 c -0.019,-0.239 -0.044,-0.475 -0.044,-0.718 0,-0.281 0.02,-0.557 0.04,-0.832 0.548,0.047 1.1,0.082 1.66,0.082 1.182,0 2.337,-0.116 3.456,-0.331"
     class="ColorScheme-Text"
     color="#363636"
     opacity="0.15"
     id="path20"
     style="opacity:0.7;fill:#646464;fill-opacity:1" />
</svg>
