<?xml version="1.0" encoding="UTF-8" standalone="no"?>
<svg
   width="64"
   height="64"
   version="1.1"
   id="svg18"
   sodipodi:docname="folder-projects.svg"
   inkscape:version="1.4 (e7c3feb100, 2024-10-09)"
   xmlns:inkscape="http://www.inkscape.org/namespaces/inkscape"
   xmlns:sodipodi="http://sodipodi.sourceforge.net/DTD/sodipodi-0.dtd"
   xmlns:xlink="http://www.w3.org/1999/xlink"
   xmlns="http://www.w3.org/2000/svg"
   xmlns:svg="http://www.w3.org/2000/svg">
  <sodipodi:namedview
     id="namedview18"
     pagecolor="#505050"
     bordercolor="#eeeeee"
     borderopacity="1"
     inkscape:showpageshadow="0"
     inkscape:pageopacity="0"
     inkscape:pagecheckerboard="0"
     inkscape:deskcolor="#505050"
     inkscape:zoom="5.84375"
     inkscape:cx="8.7272727"
     inkscape:cy="38.160428"
     inkscape:window-width="1920"
     inkscape:window-height="1007"
     inkscape:window-x="0"
     inkscape:window-y="0"
     inkscape:window-maximized="1"
     inkscape:current-layer="svg18" />
  <defs
     id="defs13">
    <linearGradient
       id="c"
       x1="8.467"
       x2="8.467"
       y1="293.3"
       y2="292.77"
       gradientTransform="matrix(3.7794,0,0,3.7794,80.427807,-1058.5)"
       gradientUnits="userSpaceOnUse">
      <stop
         offset="0"
         stop-opacity=".1"
         id="stop1" />
      <stop
         offset="1"
         stop-color="#fff"
         stop-opacity=".15"
         id="stop2" />
    </linearGradient>
    <linearGradient
       id="d"
       x1="8.467"
       x2="8.467"
       y1="294.62"
       y2="293.56"
       gradientTransform="matrix(3.7794,0,0,3.7794,80.428807,-1058.5)"
       gradientUnits="userSpaceOnUse">
      <stop
         offset="0"
         stop-opacity=".1"
         id="stop3" />
      <stop
         offset=".5"
         stop-opacity=".05"
         id="stop4" />
      <stop
         offset="1"
         stop-color="#fff"
         stop-opacity=".15"
         id="stop5" />
    </linearGradient>
    <linearGradient
       id="a"
       x1="6.879"
       x2="6.879"
       y1="285.36"
       y2="283.77"
       gradientTransform="matrix(3.7794,0,0,3.7794,80.428807,-1058.5)"
       gradientUnits="userSpaceOnUse">
      <stop
         offset="0"
         id="stop6" />
      <stop
         offset="1"
         stop-opacity=".2"
         id="stop7" />
    </linearGradient>
    <linearGradient
       id="b"
       x1="1.058"
       x2="15.875"
       y1="289.59"
       y2="289.59"
       gradientTransform="matrix(3.7794,0,0,3.7794,80.427807,-1058.5)"
       gradientUnits="userSpaceOnUse">
      <stop
         offset="0"
         stop-opacity=".1"
         id="stop8" />
      <stop
         offset=".108"
         stop-opacity="0"
         id="stop9" />
      <stop
         offset=".894"
         stop-opacity="0"
         id="stop10" />
      <stop
         offset="1"
         stop-opacity=".1"
         id="stop11" />
    </linearGradient>
    <linearGradient
       id="e"
       x1="8.467"
       x2="8.467"
       y1="4.498"
       y2="9.985"
       gradientTransform="matrix(3.7794,0,0,3.7794,80.428807,0)"
       gradientUnits="userSpaceOnUse">
      <stop
         offset="0"
         id="stop12" />
      <stop
         offset="1"
         stop-opacity="0"
         id="stop13" />
    </linearGradient>
    <filter
       id="filter1733"
       x="-0.010999908"
       y="-0.013200229"
       width="1.0219998"
       height="1.0264005"
       color-interpolation-filters="sRGB">
      <feGaussianBlur
         stdDeviation="0.072761339"
         id="feGaussianBlur880" />
    </filter>
    <linearGradient
       inkscape:collect="always"
       xlink:href="#linearGradient1620"
       id="linearGradient1622"
       x1="60"
       y1="21"
       x2="60"
       y2="55"
       gradientUnits="userSpaceOnUse"
       gradientTransform="matrix(0.31794879,0,0,0.31794879,0.205124,0.2051283)" />
    <linearGradient
       inkscape:collect="always"
       id="linearGradient1620">
      <stop
         style="stop-color:#505050;stop-opacity:1;"
         offset="0"
         id="stop1616" />
      <stop
         style="stop-color:#323232;stop-opacity:1"
         offset="1"
         id="stop1618" />
    </linearGradient>
    <filter
       id="filter935"
       x="-0.014849913"
       y="-0.14849988"
       width="1.0296998"
       height="1.2969998"
       color-interpolation-filters="sRGB">
      <feGaussianBlur
         stdDeviation="0.098224626"
         id="feGaussianBlur883" />
    </filter>
    <linearGradient
       inkscape:collect="always"
       xlink:href="#linearGradient1448"
       id="linearGradient1450"
       x1="5.31354"
       y1="115.78307"
       x2="194.68932"
       y2="115.78307"
       gradientUnits="userSpaceOnUse"
       gradientTransform="matrix(0.31794879,0,0,0.31794879,0.205124,0.2051283)" />
    <linearGradient
       inkscape:collect="always"
       id="linearGradient1448">
      <stop
         style="stop-color:#282828;stop-opacity:1"
         offset="0"
         id="stop1444" />
      <stop
         style="stop-color:#3c3c3c;stop-opacity:1"
         offset="0.08254468"
         id="stop1458" />
      <stop
         id="stop1460"
         offset="0.91187197"
         style="stop-color:#3c3c3c;stop-opacity:1" />
      <stop
         style="stop-color:#282828;stop-opacity:1"
         offset="1"
         id="stop1446" />
    </linearGradient>
    <linearGradient
       inkscape:collect="always"
       xlink:href="#linearGradient4447"
       id="linearGradient4449"
       x1="93.546776"
       y1="178.53749"
       x2="93.546776"
       y2="172.15199"
       gradientUnits="userSpaceOnUse" />
    <linearGradient
       inkscape:collect="always"
       id="linearGradient4447">
      <stop
         style="stop-color:#505050;stop-opacity:1"
         offset="0"
         id="stop4443" />
      <stop
         style="stop-color:#505050;stop-opacity:0"
         offset="1"
         id="stop4445" />
    </linearGradient>
  </defs>
  <g
     id="g902"
     transform="matrix(3.792917,0,0,3.792917,-3.123282,-148.6356)"
     style="opacity:0.5;filter:url(#filter1733)">
    <g
       id="g896"
       style="stroke-opacity:0.95294">
      <path
         id="path890"
         d="m 10,155 c -2.77,0 -5,2.23 -5,5 v 40 c 0,2.77 2.23,5 5,5 h 50 c 2.77,0 5,-2.23 5,-5 v -36 c 0,-0.831 -0.3347,-1.5808 -0.87695,-2.123 -0.54225,-0.5422 -1.292,-0.87695 -2.123,-0.87695 h -31 c -0.75,0 -1.5,-0.25001 -2.2188,-0.64062 -0.71875,-0.39063 -1.4062,-0.92188 -2.0312,-1.4844 -1.25,-1.125 -2.25,-2.375 -2.75,-2.875 -0.43528,-0.43528 -1.1061,-0.68419 -1.7754,-0.82617 -0.64042,-0.13585 -1.26,-0.16683 -1.6875,-0.17383 h -0.53711 z"
         transform="scale(0.26458)"
         inkscape:connector-curvature="0"
         style="opacity:1;stroke-width:0.20101" />
      <path
         id="path892"
         d="M 7.4004,165 C 6.0708,165 5,166.0708 5,167.4004 v 32.6 c 0,2.77 2.23,5 5,5 h 50 c 2.77,0 5,-2.23 5,-5 v -32.6 C 65,166.0708 63.9292,165 62.5996,165 Z"
         transform="scale(0.26458)"
         inkscape:connector-curvature="0"
         style="opacity:1;stroke-width:0.17979" />
      <path
         id="path894"
         d="M 7.4004,165 C 6.0708,165 5,166.0708 5,167.4004 v 1 C 5,167.0708 6.0708,166 7.4004,166 h 55.199 c 1.3296,0 2.4004,1.0708 2.4004,2.4004 v -1 C 64.9998,166.0708 63.929,165 62.5994,165 Z"
         transform="scale(0.26458)"
         inkscape:connector-curvature="0"
         style="opacity:1;stroke-width:0.17979" />
    </g>
    <path
       id="path898"
       style="color:#000000;text-indent:0;text-transform:none;opacity:0.5;stroke-width:0.27278"
       d="m 1.3229,52.916 c 0.037387,0.72117 0.52916,1.3229 1.3188,1.3229 h 13.233 c 0.79328,0 1.3224,-0.64408 1.3224,-1.3229 z"
       inkscape:connector-curvature="0" />
    <path
       id="path900"
       style="color:#000000;text-indent:0;text-transform:none;opacity:0.15;stroke-width:0.095585"
       d="m 1.3237,52.916 3.337e-4,0.26458 H 17.198034 L 17.1977,52.916 H 1.3226997 Z m 0.26376,0.79373 h 15.346 c 0.05347,-0.07329 0.11377,-0.15529 0.15166,-0.26458 h -15.653 c 0.046511,0.1129 0.09263,0.17706 0.15532,0.26458 z"
       inkscape:connector-curvature="0" />
  </g>
  <path
     id="path904"
     d="m 6.911752,6.9119373 c -2.779753,0 -5.01765,2.237859 -5.01765,5.0176497 v 40.140442 c 0,2.779752 2.237859,5.017647 5.01765,5.017647 H 57.08825 c 2.779753,0 5.017648,-2.237857 5.017648,-5.017647 V 15.943252 c 0,-0.833911 -0.335862,-1.586388 -0.880031,-2.130519 C 60.681698,13.268563 59.929259,12.9327 59.095346,12.9327 H 27.986223 c -0.752629,0 -1.505295,-0.25089 -2.226556,-0.642861 -0.721299,-0.391998 -1.411193,-0.925131 -2.03839,-1.489593 C 22.466884,9.6712844 21.463354,8.4168909 20.961589,7.9151258 20.524759,7.4782956 19.851629,7.2285319 19.179942,7.086032 18.53727,6.9497032 17.915535,6.9186129 17.48648,6.9115881 h -0.539011 z"
     inkscape:connector-curvature="0"
     style="fill:url(#linearGradient1622);fill-opacity:1;stroke-width:0.201715" />
  <path
     transform="matrix(3.792917,0,0,3.792917,-0.112731,-0.1125451)"
     id="path906"
     d="M 1.852,4.3131 C 1.66878,4.3131 1.49466,4.350202 1.33628,4.41697 1.1779,4.483736 1.0352,4.58008 0.91564,4.69963 0.79608,4.81919 0.69922,4.96189 0.63246,5.12027 0.56569,5.27865 0.52911,5.45277 0.52911,5.63599 v 0.26458 c 0,-0.18322 0.03658,-0.35734 0.10335,-0.51572 C 0.69922,5.22647 0.79608,5.08377 0.91564,4.96421 1.0352,4.84465 1.1779,4.74831 1.33628,4.68155 1.49466,4.614785 1.66878,4.57768 1.852,4.57768 h 13.229 c 0.18322,0 0.35734,0.037103 0.51572,0.10387 0.15838,0.066765 0.30108,0.16311 0.42064,0.28266 0.11956,0.11956 0.21642,0.26226 0.28318,0.42064 0.06676,0.15838 0.10335,0.3325 0.10335,0.51572 V 5.63599 c 0,-0.18322 -0.03659,-0.35734 -0.10335,-0.51572 C 16.23377,4.96189 16.13692,4.81919 16.01736,4.69963 15.8978,4.58007 15.7551,4.48373 15.59672,4.41697 15.43834,4.350205 15.26422,4.3131 15.081,4.3131 Z"
     inkscape:connector-curvature="0"
     style="opacity:0.1;stroke-width:0.047568;filter:url(#filter935)" />
  <path
     id="path908"
     d="m 6.912131,16.947616 c -0.694938,0 -1.355361,0.140725 -1.956083,0.393971 -0.600722,0.253242 -1.14201,0.618662 -1.595415,1.072182 -0.453481,0.453481 -0.820863,0.99473 -1.074078,1.595414 -0.253219,0.600646 -0.391998,1.261145 -0.391998,1.956083 v 30.105901 c 0,2.779787 2.237859,5.017648 5.01765,5.017648 h 50.176498 c 2.779791,0 5.017651,-2.237861 5.017651,-5.017648 V 21.965266 c 0,-0.694938 -0.138784,-1.355361 -0.391999,-1.956083 -0.253252,-0.600722 -0.620598,-1.142009 -1.074078,-1.595414 -0.453481,-0.453482 -0.994732,-0.818891 -1.595417,-1.072182 -0.600719,-0.253231 -1.261144,-0.393971 -1.956081,-0.393971 H 6.912283 Z"
     inkscape:connector-curvature="0"
     style="fill:url(#linearGradient1450);fill-opacity:1;stroke-width:0.180425" />
  <path
     id="path914"
     d="m 6.911752,16.947237 c -0.694938,0 -1.355361,0.140725 -1.956083,0.39397 C 4.354947,17.594445 3.813697,17.95987 3.360216,18.413313 2.906735,18.866794 2.539353,19.408044 2.286138,20.008766 2.032885,20.609488 1.89414,21.269911 1.89414,21.964849 v 1.00353 c 0,-0.694938 0.138749,-1.355399 0.391998,-1.956083 0.253234,-0.600722 0.620597,-1.141972 1.074078,-1.595453 0.453481,-0.453481 0.994731,-0.81889 1.595453,-1.072106 0.600722,-0.253237 1.261145,-0.39397 1.956083,-0.39397 H 57.08825 c 0.694938,0 1.355362,0.140729 1.956081,0.39397 0.600723,0.253235 1.141974,0.618663 1.595455,1.072106 0.453481,0.453481 0.820864,0.994731 1.074078,1.595453 0.253215,0.600722 0.391996,1.261145 0.391996,1.956083 v -1.00353 c 0,-0.694938 -0.138781,-1.355361 -0.391996,-1.956083 -0.253252,-0.600722 -0.620636,-1.141972 -1.074078,-1.595453 -0.453481,-0.453481 -0.994732,-0.81889 -1.595455,-1.072106 -0.600719,-0.253234 -1.261143,-0.39397 -1.956081,-0.39397 z"
     inkscape:connector-curvature="0"
     style="fill:#414141;fill-opacity:1;stroke-width:0.180422" />
  <g
     id="g4439"
     transform="matrix(0.31794879,0,0,0.31794879,0.205124,0.4057922)">
    <path
       inkscape:connector-curvature="0"
       d="m 5.315695,162.49589 c 0.446,8.60308 6.31252,15.78132 15.7324,15.78132 H 178.90895 c 9.46331,0 15.77535,-7.68345 15.77535,-15.78132 z"
       style="color:#000000;text-indent:0;text-transform:none;fill:url(#linearGradient4449);fill-opacity:1;stroke-width:3.25408"
       id="path926" />
    <path
       inkscape:connector-curvature="0"
       d="m 5.320845,162.49589 0.004,3.15626 H 194.69109 l -0.004,-3.15626 H 5.308915 Z m 3.14648,9.46867 H 191.53487 c 0.63787,-0.8743 1.35719,-1.8525 1.80921,-3.15626 H 6.614225 c 0.55484,1.34682 1.10501,2.11221 1.85286,3.15626 z"
       style="color:#000000;text-indent:0;text-transform:none;opacity:0.25;fill:#5a5a5a;fill-opacity:1;stroke-width:1.14027"
       id="path928" />
  </g>
  <path
     d="m 41.3856,37.941173 0.74121,0.741213 a 0.49620951,0.49620951 0 0 1 0,0.702963 l -0.60476,0.604756 c 0.1561,0.312198 0.29256,0.644038 0.37113,0.99552 h 0.78049 a 0.51688491,0.51688491 0 0 1 0.50655,0.506547 v 1.054445 a 0.51688491,0.51688491 0 0 1 -0.50655,0.506548 h -0.83942 c -0.0972,0.33184 -0.25327,0.66368 -0.42901,0.956237 l 0.54583,0.546864 a 0.49620951,0.49620951 0 0 1 0,0.702963 l -0.74121,0.741213 a 0.49620951,0.49620951 0 0 1 -0.70297,0 l -0.60475,-0.605789 a 4.3418332,4.3418332 0 0 1 -0.99449,0.371124 v 0.780496 A 0.51688491,0.51688491 0 0 1 38.4011,47.05282 h -1.05444 a 0.51688491,0.51688491 0 0 1 -0.50758,-0.506547 v -0.858029 a 4.1350793,4.1350793 0 0 1 -0.95624,-0.430048 l -0.54583,0.546864 a 0.49620951,0.49620951 0 0 1 -0.70296,0 l -0.74122,-0.741213 a 0.49620951,0.49620951 0 0 1 0,-0.702964 l 0.60476,-0.604755 a 4.3418332,4.3418332 0 0 1 -0.37112,-0.99552 h -0.7805 a 0.51688491,0.51688491 0 0 1 -0.50655,-0.506547 v -1.054446 a 0.51688491,0.51688491 0 0 1 0.50655,-0.506547 h 0.83942 c 0.0972,-0.33184 0.25327,-0.66368 0.42901,-0.956237 l -0.52722,-0.527223 a 0.49620951,0.49620951 0 0 1 0,-0.702963 l 0.74225,-0.741213 a 0.49620951,0.49620951 0 0 1 0.70296,0 l 0.60476,0.604755 c 0.3122,-0.155065 0.643,-0.292557 0.99448,-0.370089 v -0.780496 a 0.51688491,0.51688491 0 0 1 0.50655,-0.507581 h 1.05445 a 0.51688491,0.51688491 0 0 1 0.50758,0.506547 v 0.839421 c 0.3308,0.09821 0.66368,0.254307 0.95623,0.430048 l 0.54583,-0.546864 c 0.1561,-0.195383 0.48794,-0.195383 0.68333,0 m -12.48794,1.151619 c -0.27292,0 -0.48794,-0.273949 -0.48794,-0.586147 0,-0.330806 0.21502,-0.585114 0.48794,-0.585114 h 2.41902 c 0.27395,0 0.48794,0.272915 0.48794,0.585114 0,0.33184 -0.21399,0.586147 -0.48794,0.586147 z m 0.72157,5.872847 c 0.33184,0 0.58615,0.272915 0.58615,0.585113 0,0.331841 -0.27395,0.586148 -0.58615,0.586148 h -7.4142 c -0.37112,0 -0.7226,-0.156099 -0.97588,-0.410407 -0.25327,-0.254307 -0.40937,-0.585113 -0.40937,-0.975878 V 24.438072 c 0,-0.389732 0.15507,-0.721572 0.40937,-0.974845 0.25431,-0.253274 0.58512,-0.410407 0.97588,-0.410407 h 16.91764 c 0.37009,0 0.72158,0.156099 0.97588,0.410407 0.25431,0.254307 0.40938,0.585113 0.40938,0.974845 v 9.424879 c 0,0.33184 -0.27292,0.585114 -0.58512,0.585114 a 0.58924879,0.58924879 0 0 1 -0.58615,-0.585114 v -9.424879 a 0.17574087,0.17574087 0 0 0 -0.0579,-0.136458 0.17574087,0.17574087 0 0 0 -0.13645,-0.05789 H 22.20502 a 0.17574087,0.17574087 0 0 0 -0.13646,0.05789 c -0.0393,0.02068 -0.0589,0.07857 -0.0589,0.136458 v 20.351826 c 0,0.05892 0.0196,0.09821 0.0589,0.137491 a 0.17574087,0.17574087 0 0 0 0.13646,0.05789 h 7.4142 z M 24.4876,37.512158 h 2.08821 c 0.11682,0 0.19538,0.07753 0.19538,0.194349 v 1.795658 c 0,0.116816 -0.0786,0.195383 -0.19641,0.195383 H 24.4876 c -0.11682,0 -0.19539,-0.07857 -0.19539,-0.196416 v -1.794625 c 0,-0.116816 0.0786,-0.194349 0.19642,-0.194349 m 0,-10.322191 h 2.08821 c 0.11682,0 0.19539,0.07753 0.19539,0.194349 v 1.795658 c 0,0.116816 -0.0786,0.195382 -0.19642,0.195382 h -2.08718 c -0.11682,0 -0.19538,-0.07857 -0.19538,-0.196416 v -1.794624 c 0,-0.116816 0.0786,-0.194349 0.19641,-0.194349 m 4.41006,1.580634 c -0.27291,0 -0.48793,-0.273949 -0.48793,-0.586148 0,-0.330806 0.21502,-0.585113 0.48793,-0.585113 h 6.7712 c 0.27291,0 0.48794,0.272915 0.48794,0.585113 0,0.33184 -0.21503,0.586148 -0.48794,0.586148 z m -3.80427,5.482081 c -0.13749,0.09821 -0.31323,0.07857 -0.44969,-0.05789 l -0.0393,-0.03928 -0.6244,-0.644039 c -0.13646,-0.136457 -0.0972,-0.351482 0.0589,-0.506547 0.17574,-0.137491 0.40937,-0.157133 0.54686,-0.02068 l 0.33081,0.351481 1.09269,-0.87767 c 0.13749,-0.116816 0.37113,-0.05893 0.48794,0.116816 0.13646,0.175741 0.11785,0.429014 -0.0383,0.546864 z m 3.47347,-0.506547 c -0.27395,0 -0.48897,-0.273949 -0.48897,-0.586148 0,-0.330806 0.21502,-0.585113 0.48793,-0.585113 h 6.7712 c 0.27291,0 0.48794,0.272915 0.48794,0.585113 0,0.331841 -0.21503,0.586148 -0.48794,0.586148 z m 9.44349,6.068229 a 2.0696072,2.0696072 0 0 1 0,4.137147 c -1.13198,0 -2.06858,-0.917988 -2.06858,-2.068574 0,-1.150586 0.9366,-2.068573 2.06754,-2.068573"
     opacity="0.15"
     style="clip-rule:evenodd;fill-rule:evenodd;stroke-width:1.03377;opacity:0.7;fill:#646464;fill-opacity:1"
     id="path19" />
</svg>
