<?xml version="1.0" encoding="UTF-8" standalone="no"?>
<svg
   width="64"
   height="64"
   version="1.1"
   id="svg20"
   sodipodi:docname="folder-steam.svg"
   inkscape:version="1.4 (e7c3feb100, 2024-10-09)"
   xmlns:inkscape="http://www.inkscape.org/namespaces/inkscape"
   xmlns:sodipodi="http://sodipodi.sourceforge.net/DTD/sodipodi-0.dtd"
   xmlns:xlink="http://www.w3.org/1999/xlink"
   xmlns="http://www.w3.org/2000/svg"
   xmlns:svg="http://www.w3.org/2000/svg">
  <sodipodi:namedview
     id="namedview20"
     pagecolor="#505050"
     bordercolor="#eeeeee"
     borderopacity="1"
     inkscape:showpageshadow="0"
     inkscape:pageopacity="0"
     inkscape:pagecheckerboard="0"
     inkscape:deskcolor="#505050"
     inkscape:zoom="5.84375"
     inkscape:cx="49.967914"
     inkscape:cy="42.096257"
     inkscape:window-width="1920"
     inkscape:window-height="1007"
     inkscape:window-x="0"
     inkscape:window-y="0"
     inkscape:window-maximized="1"
     inkscape:current-layer="svg20" />
  <defs
     id="defs13">
    <linearGradient
       id="c"
       x1="8.467"
       x2="8.467"
       y1="293.3"
       y2="292.77"
       gradientTransform="matrix(3.7794,0,0,3.7794,94.631016,-1058.5)"
       gradientUnits="userSpaceOnUse">
      <stop
         offset="0"
         stop-opacity=".1"
         id="stop1" />
      <stop
         offset="1"
         stop-color="#fff"
         stop-opacity=".15"
         id="stop2" />
    </linearGradient>
    <linearGradient
       id="d"
       x1="8.467"
       x2="8.467"
       y1="294.62"
       y2="293.56"
       gradientTransform="matrix(3.7794,0,0,3.7794,94.632016,-1058.5)"
       gradientUnits="userSpaceOnUse">
      <stop
         offset="0"
         stop-opacity=".1"
         id="stop3" />
      <stop
         offset=".5"
         stop-opacity=".05"
         id="stop4" />
      <stop
         offset="1"
         stop-color="#fff"
         stop-opacity=".15"
         id="stop5" />
    </linearGradient>
    <linearGradient
       id="a"
       x1="6.879"
       x2="6.879"
       y1="285.36"
       y2="283.77"
       gradientTransform="matrix(3.7794,0,0,3.7794,94.632016,-1058.5)"
       gradientUnits="userSpaceOnUse">
      <stop
         offset="0"
         id="stop6" />
      <stop
         offset="1"
         stop-opacity=".2"
         id="stop7" />
    </linearGradient>
    <linearGradient
       id="b"
       x1="1.058"
       x2="15.875"
       y1="289.59"
       y2="289.59"
       gradientTransform="matrix(3.7794,0,0,3.7794,94.631016,-1058.5)"
       gradientUnits="userSpaceOnUse">
      <stop
         offset="0"
         stop-opacity=".1"
         id="stop8" />
      <stop
         offset=".108"
         stop-opacity="0"
         id="stop9" />
      <stop
         offset=".894"
         stop-opacity="0"
         id="stop10" />
      <stop
         offset="1"
         stop-opacity=".1"
         id="stop11" />
    </linearGradient>
    <linearGradient
       id="e"
       x1="8.467"
       x2="8.467"
       y1="4.498"
       y2="9.985"
       gradientTransform="matrix(3.7794,0,0,3.7794,94.632016,0)"
       gradientUnits="userSpaceOnUse">
      <stop
         offset="0"
         id="stop12" />
      <stop
         offset="1"
         stop-opacity="0"
         id="stop13" />
    </linearGradient>
    <filter
       id="filter1733"
       x="-0.010999908"
       y="-0.013200229"
       width="1.0219998"
       height="1.0264005"
       color-interpolation-filters="sRGB">
      <feGaussianBlur
         stdDeviation="0.072761339"
         id="feGaussianBlur880" />
    </filter>
    <linearGradient
       inkscape:collect="always"
       xlink:href="#linearGradient1620"
       id="linearGradient1622"
       x1="60"
       y1="21"
       x2="60"
       y2="55"
       gradientUnits="userSpaceOnUse"
       gradientTransform="matrix(0.31794879,0,0,0.31794879,0.205124,0.2051283)" />
    <linearGradient
       inkscape:collect="always"
       id="linearGradient1620">
      <stop
         style="stop-color:#505050;stop-opacity:1;"
         offset="0"
         id="stop1616" />
      <stop
         style="stop-color:#323232;stop-opacity:1"
         offset="1"
         id="stop1618" />
    </linearGradient>
    <filter
       id="filter935"
       x="-0.014849913"
       y="-0.14849988"
       width="1.0296998"
       height="1.2969998"
       color-interpolation-filters="sRGB">
      <feGaussianBlur
         stdDeviation="0.098224626"
         id="feGaussianBlur883" />
    </filter>
    <linearGradient
       inkscape:collect="always"
       xlink:href="#linearGradient1448"
       id="linearGradient1450"
       x1="5.31354"
       y1="115.78307"
       x2="194.68932"
       y2="115.78307"
       gradientUnits="userSpaceOnUse"
       gradientTransform="matrix(0.31794879,0,0,0.31794879,0.205124,0.2051283)" />
    <linearGradient
       inkscape:collect="always"
       id="linearGradient1448">
      <stop
         style="stop-color:#282828;stop-opacity:1"
         offset="0"
         id="stop1444" />
      <stop
         style="stop-color:#3c3c3c;stop-opacity:1"
         offset="0.08254468"
         id="stop1458" />
      <stop
         id="stop1460"
         offset="0.91187197"
         style="stop-color:#3c3c3c;stop-opacity:1" />
      <stop
         style="stop-color:#282828;stop-opacity:1"
         offset="1"
         id="stop1446" />
    </linearGradient>
    <linearGradient
       inkscape:collect="always"
       xlink:href="#linearGradient4447"
       id="linearGradient4449"
       x1="93.546776"
       y1="178.53749"
       x2="93.546776"
       y2="172.15199"
       gradientUnits="userSpaceOnUse" />
    <linearGradient
       inkscape:collect="always"
       id="linearGradient4447">
      <stop
         style="stop-color:#505050;stop-opacity:1"
         offset="0"
         id="stop4443" />
      <stop
         style="stop-color:#505050;stop-opacity:0"
         offset="1"
         id="stop4445" />
    </linearGradient>
  </defs>
  <g
     id="g902"
     transform="matrix(3.792917,0,0,3.792917,-3.123282,-148.6356)"
     style="opacity:0.5;filter:url(#filter1733)">
    <g
       id="g896"
       style="stroke-opacity:0.95294">
      <path
         id="path890"
         d="m 10,155 c -2.77,0 -5,2.23 -5,5 v 40 c 0,2.77 2.23,5 5,5 h 50 c 2.77,0 5,-2.23 5,-5 v -36 c 0,-0.831 -0.3347,-1.5808 -0.87695,-2.123 -0.54225,-0.5422 -1.292,-0.87695 -2.123,-0.87695 h -31 c -0.75,0 -1.5,-0.25001 -2.2188,-0.64062 -0.71875,-0.39063 -1.4062,-0.92188 -2.0312,-1.4844 -1.25,-1.125 -2.25,-2.375 -2.75,-2.875 -0.43528,-0.43528 -1.1061,-0.68419 -1.7754,-0.82617 -0.64042,-0.13585 -1.26,-0.16683 -1.6875,-0.17383 h -0.53711 z"
         transform="scale(0.26458)"
         inkscape:connector-curvature="0"
         style="opacity:1;stroke-width:0.20101" />
      <path
         id="path892"
         d="M 7.4004,165 C 6.0708,165 5,166.0708 5,167.4004 v 32.6 c 0,2.77 2.23,5 5,5 h 50 c 2.77,0 5,-2.23 5,-5 v -32.6 C 65,166.0708 63.9292,165 62.5996,165 Z"
         transform="scale(0.26458)"
         inkscape:connector-curvature="0"
         style="opacity:1;stroke-width:0.17979" />
      <path
         id="path894"
         d="M 7.4004,165 C 6.0708,165 5,166.0708 5,167.4004 v 1 C 5,167.0708 6.0708,166 7.4004,166 h 55.199 c 1.3296,0 2.4004,1.0708 2.4004,2.4004 v -1 C 64.9998,166.0708 63.929,165 62.5994,165 Z"
         transform="scale(0.26458)"
         inkscape:connector-curvature="0"
         style="opacity:1;stroke-width:0.17979" />
    </g>
    <path
       id="path898"
       style="color:#000000;text-indent:0;text-transform:none;opacity:0.5;stroke-width:0.27278"
       d="m 1.3229,52.916 c 0.037387,0.72117 0.52916,1.3229 1.3188,1.3229 h 13.233 c 0.79328,0 1.3224,-0.64408 1.3224,-1.3229 z"
       inkscape:connector-curvature="0" />
    <path
       id="path900"
       style="color:#000000;text-indent:0;text-transform:none;opacity:0.15;stroke-width:0.095585"
       d="m 1.3237,52.916 3.337e-4,0.26458 H 17.198034 L 17.1977,52.916 H 1.3226997 Z m 0.26376,0.79373 h 15.346 c 0.05347,-0.07329 0.11377,-0.15529 0.15166,-0.26458 h -15.653 c 0.046511,0.1129 0.09263,0.17706 0.15532,0.26458 z"
       inkscape:connector-curvature="0" />
  </g>
  <path
     id="path904"
     d="m 6.911752,6.9119373 c -2.779753,0 -5.01765,2.237859 -5.01765,5.0176497 v 40.140442 c 0,2.779752 2.237859,5.017647 5.01765,5.017647 H 57.08825 c 2.779753,0 5.017648,-2.237857 5.017648,-5.017647 V 15.943252 c 0,-0.833911 -0.335862,-1.586388 -0.880031,-2.130519 C 60.681698,13.268563 59.929259,12.9327 59.095346,12.9327 H 27.986223 c -0.752629,0 -1.505295,-0.25089 -2.226556,-0.642861 -0.721299,-0.391998 -1.411193,-0.925131 -2.03839,-1.489593 C 22.466884,9.6712844 21.463354,8.4168909 20.961589,7.9151258 20.524759,7.4782956 19.851629,7.2285319 19.179942,7.086032 18.53727,6.9497032 17.915535,6.9186129 17.48648,6.9115881 h -0.539011 z"
     inkscape:connector-curvature="0"
     style="fill:url(#linearGradient1622);fill-opacity:1;stroke-width:0.201715" />
  <path
     transform="matrix(3.792917,0,0,3.792917,-0.112731,-0.1125451)"
     id="path906"
     d="M 1.852,4.3131 C 1.66878,4.3131 1.49466,4.350202 1.33628,4.41697 1.1779,4.483736 1.0352,4.58008 0.91564,4.69963 0.79608,4.81919 0.69922,4.96189 0.63246,5.12027 0.56569,5.27865 0.52911,5.45277 0.52911,5.63599 v 0.26458 c 0,-0.18322 0.03658,-0.35734 0.10335,-0.51572 C 0.69922,5.22647 0.79608,5.08377 0.91564,4.96421 1.0352,4.84465 1.1779,4.74831 1.33628,4.68155 1.49466,4.614785 1.66878,4.57768 1.852,4.57768 h 13.229 c 0.18322,0 0.35734,0.037103 0.51572,0.10387 0.15838,0.066765 0.30108,0.16311 0.42064,0.28266 0.11956,0.11956 0.21642,0.26226 0.28318,0.42064 0.06676,0.15838 0.10335,0.3325 0.10335,0.51572 V 5.63599 c 0,-0.18322 -0.03659,-0.35734 -0.10335,-0.51572 C 16.23377,4.96189 16.13692,4.81919 16.01736,4.69963 15.8978,4.58007 15.7551,4.48373 15.59672,4.41697 15.43834,4.350205 15.26422,4.3131 15.081,4.3131 Z"
     inkscape:connector-curvature="0"
     style="opacity:0.1;stroke-width:0.047568;filter:url(#filter935)" />
  <path
     id="path908"
     d="m 6.912131,16.947616 c -0.694938,0 -1.355361,0.140725 -1.956083,0.393971 -0.600722,0.253242 -1.14201,0.618662 -1.595415,1.072182 -0.453481,0.453481 -0.820863,0.99473 -1.074078,1.595414 -0.253219,0.600646 -0.391998,1.261145 -0.391998,1.956083 v 30.105901 c 0,2.779787 2.237859,5.017648 5.01765,5.017648 h 50.176498 c 2.779791,0 5.017651,-2.237861 5.017651,-5.017648 V 21.965266 c 0,-0.694938 -0.138784,-1.355361 -0.391999,-1.956083 -0.253252,-0.600722 -0.620598,-1.142009 -1.074078,-1.595414 -0.453481,-0.453482 -0.994732,-0.818891 -1.595417,-1.072182 -0.600719,-0.253231 -1.261144,-0.393971 -1.956081,-0.393971 H 6.912283 Z"
     inkscape:connector-curvature="0"
     style="fill:url(#linearGradient1450);fill-opacity:1;stroke-width:0.180425" />
  <path
     id="path914"
     d="m 6.911752,16.947237 c -0.694938,0 -1.355361,0.140725 -1.956083,0.39397 C 4.354947,17.594445 3.813697,17.95987 3.360216,18.413313 2.906735,18.866794 2.539353,19.408044 2.286138,20.008766 2.032885,20.609488 1.89414,21.269911 1.89414,21.964849 v 1.00353 c 0,-0.694938 0.138749,-1.355399 0.391998,-1.956083 0.253234,-0.600722 0.620597,-1.141972 1.074078,-1.595453 0.453481,-0.453481 0.994731,-0.81889 1.595453,-1.072106 0.600722,-0.253237 1.261145,-0.39397 1.956083,-0.39397 H 57.08825 c 0.694938,0 1.355362,0.140729 1.956081,0.39397 0.600723,0.253235 1.141974,0.618663 1.595455,1.072106 0.453481,0.453481 0.820864,0.994731 1.074078,1.595453 0.253215,0.600722 0.391996,1.261145 0.391996,1.956083 v -1.00353 c 0,-0.694938 -0.138781,-1.355361 -0.391996,-1.956083 -0.253252,-0.600722 -0.620636,-1.141972 -1.074078,-1.595453 -0.453481,-0.453481 -0.994732,-0.81889 -1.595455,-1.072106 -0.600719,-0.253234 -1.261143,-0.39397 -1.956081,-0.39397 z"
     inkscape:connector-curvature="0"
     style="fill:#414141;fill-opacity:1;stroke-width:0.180422" />
  <g
     id="g4439"
     transform="matrix(0.31794879,0,0,0.31794879,0.205124,0.4057922)">
    <path
       inkscape:connector-curvature="0"
       d="m 5.315695,162.49589 c 0.446,8.60308 6.31252,15.78132 15.7324,15.78132 H 178.90895 c 9.46331,0 15.77535,-7.68345 15.77535,-15.78132 z"
       style="color:#000000;text-indent:0;text-transform:none;fill:url(#linearGradient4449);fill-opacity:1;stroke-width:3.25408"
       id="path926" />
    <path
       inkscape:connector-curvature="0"
       d="m 5.320845,162.49589 0.004,3.15626 H 194.69109 l -0.004,-3.15626 H 5.308915 Z m 3.14648,9.46867 H 191.53487 c 0.63787,-0.8743 1.35719,-1.8525 1.80921,-3.15626 H 6.614225 c 0.55484,1.34682 1.10501,2.11221 1.85286,3.15626 z"
       style="color:#000000;text-indent:0;text-transform:none;opacity:0.25;fill:#5a5a5a;fill-opacity:1;stroke-width:1.14027"
       id="path928" />
  </g>
  <g
     opacity="0.15"
     transform="translate(8,12.05282)"
     id="g23"
     style="opacity:0.7;fill:#646464;fill-opacity:1">
    <path
       d="m 26,18 v 9.625 l 3.684,0.957 4.287,-6.742 h -3.625 z"
       id="path21"
       style="fill:#646464;fill-opacity:1" />
    <path
       d="m 31,11 a 6,6 0 0 0 -6,6 6,6 0 0 0 6,6 6,6 0 0 0 6,-6 6,6 0 0 0 -6,-6 m 0,2 a 4,4 0 0 1 4,4 4,4 0 0 1 -4,4 4,4 0 0 1 -4,-4 4,4 0 0 1 4,-4 m 0,2 a 2,2 0 0 0 -2,2 2,2 0 0 0 2,2 2,2 0 0 0 2,-2 2,2 0 0 0 -2,-2 m -16,6 a 4,4 0 0 0 -4,4 4,4 0 0 0 4,4 4,4 0 0 0 4,-4 4,4 0 0 0 -4,-4 m 0,1 a 3,3 0 0 1 3,3 3,3 0 0 1 -3,3 3,3 0 0 1 -3,-3 3,3 0 0 1 3,-3"
       opacity="1"
       id="path22"
       style="fill:#646464;fill-opacity:1" />
    <rect
       width="17.423"
       height="3.964"
       x="22.784"
       y="13.579"
       opacity="1"
       rx="1.982"
       transform="matrix(0.89311,0.44985,-0.45815,0.88887,0,0)"
       id="rect22"
       style="fill:#646464;fill-opacity:1" />
    <path
       d="m 27,27 a 4,4 0 0 0 -4,4 4,4 0 0 0 4,4 4,4 0 0 0 4,-4 4,4 0 0 0 -4,-4 m 0,1 a 3,3 0 0 1 3,3 3,3 0 0 1 -3,3 3,3 0 0 1 -3,-3 3,3 0 0 1 3,-3"
       opacity="1"
       id="path23"
       style="fill:#646464;fill-opacity:1" />
  </g>
</svg>
