<?xml version="1.0" encoding="UTF-8" standalone="no"?>
<svg
   xmlns:dc="http://purl.org/dc/elements/1.1/"
   xmlns:cc="http://creativecommons.org/ns#"
   xmlns:rdf="http://www.w3.org/1999/02/22-rdf-syntax-ns#"
   xmlns:svg="http://www.w3.org/2000/svg"
   xmlns="http://www.w3.org/2000/svg"
   xmlns:xlink="http://www.w3.org/1999/xlink"
   xmlns:sodipodi="http://sodipodi.sourceforge.net/DTD/sodipodi-0.dtd"
   xmlns:inkscape="http://www.inkscape.org/namespaces/inkscape"
   width="32"
   height="32"
   version="1.1"
   id="svg15"
   sodipodi:docname="system-lock-screen.svg"
   inkscape:version="0.92.5 (2060ec1f9f, 2020-04-08)">
  <sodipodi:namedview
     pagecolor="#ffffff"
     bordercolor="#666666"
     borderopacity="1"
     objecttolerance="10"
     gridtolerance="10"
     guidetolerance="10"
     inkscape:pageopacity="0"
     inkscape:pageshadow="2"
     inkscape:window-width="1920"
     inkscape:window-height="975"
     id="namedview17"
     showgrid="false"
     inkscape:zoom="5.6568542"
     inkscape:cx="13.576843"
     inkscape:cy="14.475238"
     inkscape:window-x="0"
     inkscape:window-y="30"
     inkscape:window-maximized="1"
     inkscape:current-layer="svg15" />
  <metadata
     id="metadata2">
    <rdf:RDF>
      <cc:Work
         rdf:about="">
        <dc:format>image/svg+xml</dc:format>
        <dc:type
           rdf:resource="http://purl.org/dc/dcmitype/StillImage" />
        <dc:title />
      </cc:Work>
    </rdf:RDF>
  </metadata>
  <defs
     id="defs5">
    <linearGradient
       inkscape:collect="always"
       id="linearGradient825">
      <stop
         style="stop-color:#58626b;stop-opacity:1"
         offset="0"
         id="stop821" />
      <stop
         style="stop-color:#6b7783;stop-opacity:1"
         offset="1"
         id="stop823" />
    </linearGradient>
    <style
       id="current-color-scheme"
       type="text/css">.ColorScheme-Text {
        color:#31363b;
      }
      .ColorScheme-Background{
        color:#E9E8E8;
      }
      .ColorScheme-ViewText {
        color:#000000;
      }
      .ColorScheme-ViewBackground{
        color:#ffffff;
      }
      .ColorScheme-ViewHover {
        color:#000000;
      }
      .ColorScheme-ViewFocus{
        color:#5a5a5a;
      }
      .ColorScheme-ButtonText {
        color:#000000;
      }
      .ColorScheme-ButtonBackground{
        color:#E9E8E8;
      }
      .ColorScheme-ButtonHover {
        color:#1489ff;
      }
      .ColorScheme-ButtonFocus{
        color:#2B74C7;
      }</style>
    <linearGradient
       gradientTransform="matrix(0.04836713,0,0,0.04836713,6.757719,6.7179417)"
       id="b"
       gradientUnits="userSpaceOnUse"
       x1="167.45781"
       x2="167.45781"
       y1="569.97095"
       y2="-138.89499">
      <stop
         offset="0"
         stop-color="#566069"
         id="stop7" />
      <stop
         offset="1"
         stop-color="#6c7884"
         id="stop9" />
    </linearGradient>
    <linearGradient
       inkscape:collect="always"
       xlink:href="#linearGradient825"
       id="linearGradient827"
       x1="-17.125"
       y1="31.625"
       x2="-17.125"
       y2="-0.25"
       gradientUnits="userSpaceOnUse"
       gradientTransform="translate(33.25,0.25)" />
  </defs>
  <circle
     style="opacity:1;fill:url(#linearGradient827);fill-opacity:1;stroke:none;stroke-width:1.12775326;stroke-opacity:1"
     id="path819"
     cx="16"
     cy="16"
     r="16" />
  <g
     id="g856"
     style="fill:#ffffff;fill-opacity:1">
    <path
       id="path844"
       d="m 21.220556,14.517867 h -8.98879 v -2.238673 c 0,-1.99969 1.626829,-3.6265184 3.62652,-3.6265184 1.632777,0 3.071941,1.0987071 3.499797,2.6718484 0.140168,0.515448 0.671723,0.819629 1.187268,0.679558 0.515545,-0.140168 0.819774,-0.671771 0.679558,-1.187316 -0.656342,-2.4133264 -2.86314,-4.0988243 -5.366623,-4.0988243 -3.066477,0 -5.561205,2.4947769 -5.561205,5.5612043 v 2.259471 c -0.438254,0.09199 -0.768456,0.481349 -0.768456,0.946592 v 8.466522 c 0,0.533393 0.433949,0.967342 0.967342,0.967342 h 10.724589 c 0.533393,0 0.967343,-0.433949 0.967343,-0.967342 v -8.466522 c 0,-0.53344 -0.43395,-0.967342 -0.967343,-0.967342 z"
       style="fill:#ffffff;stroke-width:0.04836714;fill-opacity:1" />
    <path
       id="path842"
       d="m 17.157523,21.755863 c 0.01974,0.10457 -0.05117,0.190131 -0.15758,0.190131 h -2.257632 c -0.106408,0 -0.177314,-0.08556 -0.15758,-0.190131 l 0.359464,-1.905036 c -0.272113,-0.248172 -0.442897,-0.605557 -0.442897,-1.002844 0,-0.749449 0.607539,-1.356988 1.356988,-1.356988 0.749448,0 1.356988,0.607539 1.356988,1.356988 0,0.386501 -0.161837,0.734938 -0.421132,0.982094 z"
       style="fill:#5f6a74;stroke-width:0.04836714;fill-opacity:1" />
  </g>
</svg>
