<?xml version="1.0" encoding="UTF-8" standalone="no"?>
<svg
   xmlns:dc="http://purl.org/dc/elements/1.1/"
   xmlns:cc="http://creativecommons.org/ns#"
   xmlns:rdf="http://www.w3.org/1999/02/22-rdf-syntax-ns#"
   xmlns:svg="http://www.w3.org/2000/svg"
   xmlns="http://www.w3.org/2000/svg"
   xmlns:xlink="http://www.w3.org/1999/xlink"
   xmlns:sodipodi="http://sodipodi.sourceforge.net/DTD/sodipodi-0.dtd"
   xmlns:inkscape="http://www.inkscape.org/namespaces/inkscape"
   inkscape:version="1.0 (4035a4fb49, 2020-05-01)"
   sodipodi:docname="folder.svg"
   id="svg38"
   version="1.1"
   height="200"
   width="200">
  <sodipodi:namedview
     inkscape:document-rotation="0"
     inkscape:current-layer="svg38"
     inkscape:window-maximized="1"
     inkscape:window-y="36"
     inkscape:window-x="0"
     inkscape:cy="100"
     inkscape:cx="100"
     inkscape:zoom="1.18"
     showgrid="false"
     id="namedview40"
     inkscape:window-height="936"
     inkscape:window-width="1920"
     inkscape:pageshadow="2"
     inkscape:pageopacity="0"
     guidetolerance="10"
     gridtolerance="10"
     objecttolerance="10"
     borderopacity="1"
     bordercolor="#666666"
     pagecolor="#ffffff" />
  <metadata
     id="metadata2">
    <rdf:RDF>
      <cc:Work
         rdf:about="">
        <dc:format>image/svg+xml</dc:format>
        <dc:type
           rdf:resource="http://purl.org/dc/dcmitype/StillImage" />
        <dc:title></dc:title>
      </cc:Work>
    </rdf:RDF>
  </metadata>
  <defs
     id="defs14">
    <linearGradient
       gradientUnits="userSpaceOnUse"
       gradientTransform="matrix(1 0 0 .99894 1.0583 14.153)"
       y2="-6.879"
       y1="-12.171"
       x2="3.9687"
       x1="3.9687"
       id="linearGradient1011">
      <stop
         id="stop4"
         offset="0"
         stop-color="#059bff" />
      <stop
         id="stop6"
         offset="1"
         stop-color="#005aff" />
    </linearGradient>
    <linearGradient
       gradientUnits="userSpaceOnUse"
       gradientTransform="translate(1.0583,14.42)"
       y2="-8.2019"
       y1="1.0583"
       x2="7.9373"
       x1="7.9373"
       id="linearGradient921">
      <stop
         id="stop9"
         offset="0"
         stop-color="#005aff" />
      <stop
         id="stop11"
         offset="1"
         stop-color="#059bff" />
    </linearGradient>
    <style
       id="current-color-scheme"
       type="text/css">.ColorScheme-Text {
        color:#4d4d4d;
      }</style>
    <style
       type="text/css"
       id="style848">.ColorScheme-Text {
        color:#4d4d4d;
      }</style>
    <linearGradient
       id="linearGradient1387"
       x1="25"
       x2="25"
       y1="155"
       y2="166"
       gradientTransform="matrix(0.26458,0,0,0.26458,-0.79373,-39.158)"
       gradientUnits="userSpaceOnUse">
      <stop
         stop-color="#3296d7"
         offset="0"
         id="stop850" />
      <stop
         stop-color="#0a7db4"
         offset="1"
         id="stop852" />
    </linearGradient>
    <linearGradient
       id="linearGradient1401"
       x1="5"
       x2="65"
       y1="185"
       y2="185"
       gradientTransform="matrix(0.26458,0,0,0.26458,-0.79374,-39.158)"
       gradientUnits="userSpaceOnUse">
      <stop
         stop-color="#3492cb"
         offset="0"
         id="stop855" />
      <stop
         stop-color="#6ec8fa"
         offset=".083713"
         id="stop857" />
      <stop
         stop-color="#6ec8fa"
         offset=".91237"
         id="stop859" />
      <stop
         stop-color="#3492cb"
         offset="1"
         id="stop861" />
    </linearGradient>
    <linearGradient
       id="linearGradient1438"
       x1="-9.617"
       x2="-9.617"
       y1="1138.4"
       y2="1140.2"
       gradientTransform="matrix(0.18168,0,0,0.40956,9.2005,-451.88)"
       gradientUnits="userSpaceOnUse">
      <stop
         stop-color="#1482be"
         stop-opacity="0"
         offset="0"
         id="stop864" />
      <stop
         stop-color="#1482be"
         offset="1"
         id="stop866" />
    </linearGradient>
    <filter
       id="filter1733"
       x="-.011"
       y="-.0132"
       width="1.022"
       height="1.0264"
       color-interpolation-filters="sRGB">
      <feGaussianBlur
         stdDeviation="0.072761339"
         id="feGaussianBlur869" />
    </filter>
    <filter
       id="filter935"
       x="-.01485"
       y="-.1485"
       width="1.0297"
       height="1.297"
       color-interpolation-filters="sRGB">
      <feGaussianBlur
         stdDeviation="0.098224626"
         id="feGaussianBlur872" />
    </filter>
    <filter
       color-interpolation-filters="sRGB"
       height="1.0264"
       width="1.022"
       y="-0.0132"
       x="-0.011"
       id="filter1733-3">
      <feGaussianBlur
         id="feGaussianBlur880"
         stdDeviation="0.072761339" />
    </filter>
    <linearGradient
       gradientTransform="translate(233.05085,150)"
       gradientUnits="userSpaceOnUse"
       y2="55"
       x2="60"
       y1="21"
       x1="60"
       id="linearGradient1622"
       xlink:href="#linearGradient1620"
       inkscape:collect="always" />
    <linearGradient
       id="linearGradient1620"
       inkscape:collect="always">
      <stop
         id="stop1616"
         offset="0"
         style="stop-color:#505050;stop-opacity:1;" />
      <stop
         id="stop1618"
         offset="1"
         style="stop-color:#323232;stop-opacity:1" />
    </linearGradient>
    <filter
       color-interpolation-filters="sRGB"
       height="1.2970001"
       width="1.0297"
       y="-0.1485"
       x="-0.01485"
       id="filter935-6">
      <feGaussianBlur
         id="feGaussianBlur883"
         stdDeviation="0.098224626" />
    </filter>
    <linearGradient
       gradientTransform="translate(233.05085,150)"
       gradientUnits="userSpaceOnUse"
       y2="115.78307"
       x2="194.68932"
       y1="115.78307"
       x1="5.31354"
       id="linearGradient1450"
       xlink:href="#linearGradient1448"
       inkscape:collect="always" />
    <linearGradient
       id="linearGradient1448"
       inkscape:collect="always">
      <stop
         id="stop1444"
         offset="0"
         style="stop-color:#282828;stop-opacity:1" />
      <stop
         id="stop1458"
         offset="0.08254468"
         style="stop-color:#3c3c3c;stop-opacity:1" />
      <stop
         style="stop-color:#3c3c3c;stop-opacity:1"
         offset="0.91187197"
         id="stop1460" />
      <stop
         id="stop1446"
         offset="1"
         style="stop-color:#282828;stop-opacity:1" />
    </linearGradient>
    <linearGradient
       gradientUnits="userSpaceOnUse"
       y2="172.15199"
       x2="93.546776"
       y1="178.53749"
       x1="93.546776"
       id="linearGradient4449"
       xlink:href="#linearGradient4447"
       inkscape:collect="always" />
    <linearGradient
       id="linearGradient4447"
       inkscape:collect="always">
      <stop
         id="stop4443"
         offset="0"
         style="stop-color:#505050;stop-opacity:1" />
      <stop
         id="stop4445"
         offset="1"
         style="stop-color:#505050;stop-opacity:0" />
    </linearGradient>
  </defs>
  <g
     transform="translate(-233.05085,-150)"
     id="g948">
    <g
       id="g902"
       transform="matrix(11.929333,0,0,11.929333,222.58248,-318.12796)"
       style="opacity:0.5;filter:url(#filter1733-3)">
      <g
         id="g896"
         style="stroke-opacity:0.95294">
        <path
           id="path890"
           d="m 10,155 c -2.77,0 -5,2.23 -5,5 v 40 c 0,2.77 2.23,5 5,5 h 50 c 2.77,0 5,-2.23 5,-5 v -36 c 0,-0.831 -0.3347,-1.5808 -0.87695,-2.123 -0.54225,-0.5422 -1.292,-0.87695 -2.123,-0.87695 h -31 c -0.75,0 -1.5,-0.25001 -2.2188,-0.64062 -0.71875,-0.39063 -1.4062,-0.92188 -2.0312,-1.4844 -1.25,-1.125 -2.25,-2.375 -2.75,-2.875 -0.43528,-0.43528 -1.1061,-0.68419 -1.7754,-0.82617 -0.64042,-0.13585 -1.26,-0.16683 -1.6875,-0.17383 h -0.53711 z"
           transform="scale(0.26458)"
           inkscape:connector-curvature="0"
           style="opacity:1;stroke-width:0.20101" />
        <path
           id="path892"
           d="M 7.4004,165 C 6.0708,165 5,166.0708 5,167.4004 v 32.6 c 0,2.77 2.23,5 5,5 h 50 c 2.77,0 5,-2.23 5,-5 v -32.6 C 65,166.0708 63.9292,165 62.5996,165 Z"
           transform="scale(0.26458)"
           inkscape:connector-curvature="0"
           style="opacity:1;stroke-width:0.17979" />
        <path
           id="path894"
           d="M 7.4004,165 C 6.0708,165 5,166.0708 5,167.4004 v 1 C 5,167.0708 6.0708,166 7.4004,166 h 55.199 c 1.3296,0 2.4004,1.0708 2.4004,2.4004 v -1 C 64.9998,166.0708 63.929,165 62.5994,165 Z"
           transform="scale(0.26458)"
           inkscape:connector-curvature="0"
           style="opacity:1;stroke-width:0.17979" />
      </g>
      <path
         id="path898"
         style="color:#000000;text-indent:0;text-transform:none;opacity:0.5;stroke-width:0.27278"
         d="m 1.3229,52.916 c 0.037387,0.72117 0.52916,1.3229 1.3188,1.3229 h 13.233 c 0.79328,0 1.3224,-0.64408 1.3224,-1.3229 z"
         inkscape:connector-curvature="0" />
      <path
         id="path900"
         style="color:#000000;text-indent:0;text-transform:none;opacity:0.15;stroke-width:0.095585"
         d="m 1.3237,52.916 3.337e-4,0.26458 H 17.198034 L 17.1977,52.916 H 1.3226997 Z m 0.26376,0.79373 h 15.346 c 0.05347,-0.07329 0.11377,-0.15529 0.15166,-0.26458 h -15.653 c 0.046511,0.1129 0.09263,0.17706 0.15532,0.26458 z"
         inkscape:connector-curvature="0" />
    </g>
    <path
       id="path904"
       d="m 254.14427,171.09399 c -8.74277,0 -15.78131,7.03843 -15.78131,15.78132 v 126.24813 c 0,8.74277 7.03842,15.78131 15.78131,15.78131 h 157.81315 c 8.74277,0 15.78131,-7.03842 15.78131,-15.78131 V 199.49893 c 0,-2.62279 -1.05634,-4.98945 -2.76784,-6.70083 -1.7115,-1.7115 -4.07804,-2.76784 -6.70083,-2.76784 h -97.84319 c -2.36714,0 -4.7344,-0.78909 -7.00288,-2.0219 -2.2686,-1.2329 -4.43843,-2.90969 -6.41106,-4.68501 -3.94527,-3.55077 -7.10153,-7.49604 -8.67967,-9.07417 -1.3739,-1.3739 -3.491,-2.15945 -5.60356,-2.60763 -2.02131,-0.42878 -3.97676,-0.52656 -5.32621,-0.54866 h -1.69528 z"
       inkscape:connector-curvature="0"
       style="fill:url(#linearGradient1622);fill-opacity:1;stroke-width:0.634426" />
    <path
       transform="matrix(11.929333,0,0,11.929333,232.05115,149.00087)"
       id="path906"
       d="M 1.852,4.3131 C 1.66878,4.3131 1.49466,4.350202 1.33628,4.41697 1.1779,4.483736 1.0352,4.58008 0.91564,4.69963 0.79608,4.81919 0.69922,4.96189 0.63246,5.12027 0.56569,5.27865 0.52911,5.45277 0.52911,5.63599 v 0.26458 c 0,-0.18322 0.03658,-0.35734 0.10335,-0.51572 C 0.69922,5.22647 0.79608,5.08377 0.91564,4.96421 1.0352,4.84465 1.1779,4.74831 1.33628,4.68155 1.49466,4.614785 1.66878,4.57768 1.852,4.57768 h 13.229 c 0.18322,0 0.35734,0.037103 0.51572,0.10387 0.15838,0.066765 0.30108,0.16311 0.42064,0.28266 0.11956,0.11956 0.21642,0.26226 0.28318,0.42064 0.06676,0.15838 0.10335,0.3325 0.10335,0.51572 V 5.63599 c 0,-0.18322 -0.03659,-0.35734 -0.10335,-0.51572 C 16.23377,4.96189 16.13692,4.81919 16.01736,4.69963 15.8978,4.58007 15.7551,4.48373 15.59672,4.41697 15.43834,4.350205 15.26422,4.3131 15.081,4.3131 Z"
       inkscape:connector-curvature="0"
       style="opacity:0.1;stroke-width:0.047568;filter:url(#filter935-6)" />
    <path
       id="path908"
       d="m 254.14546,202.65781 c -2.18569,0 -4.26282,0.44261 -6.15219,1.2391 -1.88937,0.79649 -3.59181,1.9458 -5.01784,3.37219 -1.42627,1.42627 -2.58174,3.12859 -3.37815,5.01783 -0.79641,1.88913 -1.23289,3.96651 -1.23289,6.1522 v 94.68789 c 0,8.74288 7.03842,15.78131 15.78131,15.78131 h 157.81315 c 8.74289,0 15.78132,-7.03843 15.78132,-15.78131 v -94.68789 c 0,-2.18569 -0.4365,-4.26283 -1.2329,-6.1522 -0.79652,-1.88936 -1.95188,-3.5918 -3.37815,-5.01783 -1.42627,-1.42627 -3.12859,-2.57554 -5.01784,-3.37219 -1.88936,-0.79645 -3.9665,-1.2391 -6.15219,-1.2391 H 254.14594 Z"
       inkscape:connector-curvature="0"
       style="fill:url(#linearGradient1450);fill-opacity:1;stroke-width:0.567466" />
    <path
       id="path914"
       d="m 254.14427,202.65662 c -2.18569,0 -4.26283,0.4426 -6.1522,1.2391 -1.88936,0.79648 -3.59168,1.94579 -5.01795,3.37195 -1.42627,1.42627 -2.58175,3.12858 -3.37815,5.01795 -0.79652,1.88937 -1.23289,3.9665 -1.23289,6.1522 v 3.15626 c 0,-2.18569 0.43638,-4.26295 1.23289,-6.1522 0.79646,-1.88936 1.95188,-3.59168 3.37815,-5.01795 1.42627,-1.42627 3.12859,-2.57554 5.01795,-3.37195 1.88937,-0.79647 3.96651,-1.2391 6.1522,-1.2391 h 157.81315 c 2.18569,0 4.26283,0.44262 6.15219,1.2391 1.88937,0.79647 3.59169,1.9458 5.01796,3.37195 1.42627,1.42627 2.58175,3.12859 3.37815,5.01795 0.7964,1.88937 1.23289,3.96651 1.23289,6.1522 v -3.15626 c 0,-2.1857 -0.43649,-4.26283 -1.23289,-6.1522 -0.79652,-1.88937 -1.952,-3.59168 -3.37815,-5.01795 -1.42627,-1.42627 -3.12859,-2.57555 -5.01796,-3.37195 -1.88936,-0.79646 -3.9665,-1.2391 -6.15219,-1.2391 z"
       inkscape:connector-curvature="0"
       style="fill:#414141;fill-opacity:1;stroke-width:0.567455" />
    <g
       id="g4439"
       transform="translate(233.05085,150.63112)">
      <path
         inkscape:connector-curvature="0"
         d="m 5.315695,162.49589 c 0.446,8.60308 6.31252,15.78132 15.7324,15.78132 H 178.90895 c 9.46331,0 15.77535,-7.68345 15.77535,-15.78132 z"
         style="color:#000000;text-indent:0;text-transform:none;fill:url(#linearGradient4449);fill-opacity:1;stroke-width:3.25408"
         id="path926" />
      <path
         inkscape:connector-curvature="0"
         d="m 5.320845,162.49589 0.004,3.15626 H 194.69109 l -0.004,-3.15626 H 5.308915 Z m 3.14648,9.46867 H 191.53487 c 0.63787,-0.8743 1.35719,-1.8525 1.80921,-3.15626 H 6.614225 c 0.55484,1.34682 1.10501,2.11221 1.85286,3.15626 z"
         style="color:#000000;text-indent:0;text-transform:none;opacity:0.25;fill:#5a5a5a;fill-opacity:1;stroke-width:1.14027"
         id="path928" />
    </g>
  </g>
</svg>
