<?xml version="1.0" encoding="UTF-8" standalone="no"?>
<svg
   xmlns:dc="http://purl.org/dc/elements/1.1/"
   xmlns:cc="http://creativecommons.org/ns#"
   xmlns:rdf="http://www.w3.org/1999/02/22-rdf-syntax-ns#"
   xmlns:svg="http://www.w3.org/2000/svg"
   xmlns="http://www.w3.org/2000/svg"
   xmlns:xlink="http://www.w3.org/1999/xlink"
   xmlns:sodipodi="http://sodipodi.sourceforge.net/DTD/sodipodi-0.dtd"
   xmlns:inkscape="http://www.inkscape.org/namespaces/inkscape"
   id="svg46"
   version="1.1"
   height="200"
   width="200"
   sodipodi:docname="folder-bookmark.svg"
   inkscape:version="1.0 (4035a4fb49, 2020-05-01)">
  <sodipodi:namedview
     inkscape:document-rotation="0"
     inkscape:current-layer="svg46"
     inkscape:window-maximized="1"
     inkscape:window-y="36"
     inkscape:window-x="0"
     inkscape:cy="149.21821"
     inkscape:cx="72.779112"
     inkscape:zoom="3.337544"
     showgrid="false"
     id="namedview48"
     inkscape:window-height="936"
     inkscape:window-width="1920"
     inkscape:pageshadow="2"
     inkscape:pageopacity="0"
     guidetolerance="10"
     gridtolerance="10"
     objecttolerance="10"
     borderopacity="1"
     bordercolor="#666666"
     pagecolor="#ffffff">
    <inkscape:grid
       type="xygrid"
       id="grid1422" />
  </sodipodi:namedview>
  <metadata
     id="metadata2">
    <rdf:RDF>
      <cc:Work
         rdf:about="">
        <dc:format>image/svg+xml</dc:format>
        <dc:type
           rdf:resource="http://purl.org/dc/dcmitype/StillImage" />
        <dc:title></dc:title>
      </cc:Work>
    </rdf:RDF>
  </metadata>
  <defs
     id="defs18">
    <linearGradient
       inkscape:collect="always"
       id="linearGradient4447">
      <stop
         style="stop-color:#505050;stop-opacity:1"
         offset="0"
         id="stop4443" />
      <stop
         style="stop-color:#505050;stop-opacity:0"
         offset="1"
         id="stop4445" />
    </linearGradient>
    <linearGradient
       inkscape:collect="always"
       id="linearGradient1620">
      <stop
         style="stop-color:#505050;stop-opacity:1;"
         offset="0"
         id="stop1616" />
      <stop
         style="stop-color:#323232;stop-opacity:1"
         offset="1"
         id="stop1618" />
    </linearGradient>
    <linearGradient
       inkscape:collect="always"
       id="linearGradient1448">
      <stop
         style="stop-color:#282828;stop-opacity:1"
         offset="0"
         id="stop1444" />
      <stop
         style="stop-color:#3c3c3c;stop-opacity:1"
         offset="0.08254468"
         id="stop1458" />
      <stop
         id="stop1460"
         offset="0.91187197"
         style="stop-color:#3c3c3c;stop-opacity:1" />
      <stop
         style="stop-color:#282828;stop-opacity:1"
         offset="1"
         id="stop1446" />
    </linearGradient>
    <linearGradient
       spreadMethod="pad"
       gradientUnits="userSpaceOnUse"
       gradientTransform="matrix(0.18168,0,0,0.40956,9.2005,-451.88)"
       y2="1140.2"
       y1="1138.4"
       x2="-9.6169996"
       x1="-9.6169996"
       id="linearGradient1114">
      <stop
         id="stop1110"
         offset="0"
         stop-opacity="0"
         stop-color="#1482be" />
      <stop
         style="stop-color:#4b82be;stop-opacity:1"
         id="stop1112"
         offset="1"
         stop-color="#1482be" />
    </linearGradient>
    <linearGradient
       spreadMethod="pad"
       gradientUnits="userSpaceOnUse"
       gradientTransform="matrix(0.18168,0,0,0.40956,9.2005,-451.88)"
       y2="1140.2"
       y1="1138.4"
       x2="-9.6169996"
       x1="-9.6169996"
       id="linearGradient1108">
      <stop
         id="stop1104"
         offset="0"
         stop-opacity="0"
         stop-color="#1482be" />
      <stop
         style="stop-color:#14824b;stop-opacity:1"
         id="stop1106"
         offset="1"
         stop-color="#1482be" />
    </linearGradient>
    <linearGradient
       spreadMethod="pad"
       gradientUnits="userSpaceOnUse"
       gradientTransform="matrix(0.18168,0,0,0.40956,9.2005,-451.88)"
       y2="1140.2"
       y1="1138.4"
       x2="-9.6169996"
       x1="-9.6169996"
       id="linearGradient1102">
      <stop
         id="stop1098"
         offset="0"
         stop-opacity="0"
         stop-color="#1482be" />
      <stop
         style="stop-color:#144bbe;stop-opacity:1"
         id="stop1100"
         offset="1"
         stop-color="#1482be" />
    </linearGradient>
    <linearGradient
       spreadMethod="pad"
       gradientUnits="userSpaceOnUse"
       gradientTransform="matrix(0.18168,0,0,0.40956,9.2005,-451.88)"
       y2="1140.2"
       y1="1138.4"
       x2="-9.6169996"
       x1="-9.6169996"
       id="linearGradient1096">
      <stop
         id="stop1092"
         offset="0"
         stop-opacity="0"
         stop-color="#1482be" />
      <stop
         style="stop-color:#4b82be;stop-opacity:1"
         id="stop1094"
         offset="1"
         stop-color="#1482be" />
    </linearGradient>
    <linearGradient
       spreadMethod="pad"
       gradientUnits="userSpaceOnUse"
       gradientTransform="matrix(0.18168,0,0,0.40956,9.2005,-451.88)"
       y2="1140.2"
       y1="1138.4"
       x2="-9.6169996"
       x1="-9.6169996"
       id="linearGradient1090">
      <stop
         id="stop1086"
         offset="0"
         stop-opacity="0"
         stop-color="#1482be" />
      <stop
         style="stop-color:#14824b;stop-opacity:1"
         id="stop1088"
         offset="1"
         stop-color="#1482be" />
    </linearGradient>
    <linearGradient
       spreadMethod="pad"
       gradientUnits="userSpaceOnUse"
       gradientTransform="matrix(0.18168,0,0,0.40956,9.2005,-451.88)"
       y2="1140.2"
       y1="1138.4"
       x2="-9.6169996"
       x1="-9.6169996"
       id="linearGradient1084">
      <stop
         id="stop1080"
         offset="0"
         stop-opacity="0"
         stop-color="#1482be" />
      <stop
         style="stop-color:#144bbe;stop-opacity:1"
         id="stop1082"
         offset="1"
         stop-color="#1482be" />
    </linearGradient>
    <linearGradient
       gradientUnits="userSpaceOnUse"
       gradientTransform="matrix(0.18168,0,0,0.40956,9.2005,-451.88)"
       y2="1140.2"
       y1="1138.4"
       x2="-9.617"
       x1="-9.617"
       id="linearGradient1078">
      <stop
         id="stop1074"
         offset="0"
         stop-opacity="0"
         stop-color="#1482be" />
      <stop
         style="stop-color:#4b82be;stop-opacity:1"
         id="stop1076"
         offset="1"
         stop-color="#1482be" />
    </linearGradient>
    <linearGradient
       gradientUnits="userSpaceOnUse"
       gradientTransform="matrix(1,0,0,0.99894,1.0583,14.153)"
       y2="-6.879"
       y1="-12.171"
       x2="3.9687"
       x1="3.9687"
       id="linearGradient1011">
      <stop
         id="stop4"
         offset="0"
         stop-color="#059bff" />
      <stop
         id="stop6"
         offset="1"
         stop-color="#005aff" />
    </linearGradient>
    <linearGradient
       gradientUnits="userSpaceOnUse"
       gradientTransform="translate(1.0583,14.42)"
       y2="-8.2019"
       y1="1.0583"
       x2="7.9373"
       x1="7.9373"
       id="linearGradient921">
      <stop
         id="stop9"
         offset="0"
         stop-color="#005aff" />
      <stop
         id="stop11"
         offset="1"
         stop-color="#059bff" />
    </linearGradient>
    <style
       id="style14"
       type="text/css" />
    <style
       id="style16"
       type="text/css" />
    <style
       id="current-color-scheme"
       type="text/css">.ColorScheme-Text {
        color:#4d4d4d;
      }</style>
    <style
       type="text/css"
       id="style859">.ColorScheme-Text {
        color:#4d4d4d;
      }</style>
    <linearGradient
       id="linearGradient1387"
       x1="25"
       x2="25"
       y1="155"
       y2="166"
       gradientTransform="matrix(3.1562629,0,0,3.1562629,-10.468371,-468.12796)"
       gradientUnits="userSpaceOnUse">
      <stop
         style="stop-color:#505050;stop-opacity:1"
         stop-color="#3296d7"
         offset="0"
         id="stop861" />
      <stop
         style="stop-color:#141414;stop-opacity:1"
         stop-color="#0a7db4"
         offset="1"
         id="stop863" />
    </linearGradient>
    <linearGradient
       id="linearGradient1401"
       x1="5"
       x2="65"
       y1="185"
       y2="185"
       gradientTransform="matrix(3.1562629,0,0,3.1562629,-10.46849,-468.12796)"
       gradientUnits="userSpaceOnUse">
      <stop
         style="stop-color:#1e1e1e;stop-opacity:1"
         stop-color="#3492cb"
         offset="0"
         id="stop866" />
      <stop
         style="stop-color:#3c3c3c;stop-opacity:1"
         stop-color="#6ec8fa"
         offset=".083713"
         id="stop868" />
      <stop
         style="stop-color:#3c3c3c;stop-opacity:1"
         stop-color="#6ec8fa"
         offset=".91237"
         id="stop870" />
      <stop
         style="stop-color:#1e1e1e;stop-opacity:1"
         stop-color="#3492cb"
         offset="1"
         id="stop872" />
    </linearGradient>
    <linearGradient
       spreadMethod="pad"
       id="linearGradient1438"
       x1="-9.6169996"
       x2="-9.6169996"
       y1="1138.4"
       y2="1140.2"
       gradientTransform="matrix(2.1673212,0,0,4.8857776,108.759,-5392.2549)"
       gradientUnits="userSpaceOnUse">
      <stop
         stop-color="#1482be"
         stop-opacity="0"
         offset="0"
         id="stop875" />
      <stop
         stop-color="#1482be"
         offset="1"
         id="stop877" />
    </linearGradient>
    <filter
       id="filter1733"
       x="-.011"
       y="-.0132"
       width="1.022"
       height="1.0264"
       color-interpolation-filters="sRGB">
      <feGaussianBlur
         stdDeviation="0.072761339"
         id="feGaussianBlur880" />
    </filter>
    <filter
       id="filter935"
       x="-.01485"
       y="-.1485"
       width="1.0297"
       height="1.297"
       color-interpolation-filters="sRGB">
      <feGaussianBlur
         stdDeviation="0.098224626"
         id="feGaussianBlur883" />
    </filter>
    <linearGradient
       id="linearGradient1011-3"
       x1="3.9687"
       x2="3.9687"
       y1="-12.171"
       y2="-6.879"
       gradientTransform="matrix(1,0,0,0.99894,1.0583,14.153)"
       gradientUnits="userSpaceOnUse">
      <stop
         stop-color="#464646"
         offset="0"
         id="stop890" />
      <stop
         stop-color="#323232"
         offset="1"
         id="stop892" />
    </linearGradient>
    <linearGradient
       id="linearGradient921-6"
       x1="7.9373"
       x2="7.9373"
       y1="1.0583"
       y2="-8.2019"
       gradientTransform="translate(1.0583,14.42)"
       gradientUnits="userSpaceOnUse">
      <stop
         stop-color="#323232"
         offset="0"
         id="stop895" />
      <stop
         stop-color="#464646"
         offset="1"
         id="stop897" />
    </linearGradient>
    <style
       type="text/css"
       id="style900" />
    <style
       type="text/css"
       id="style902" />
    <style
       type="text/css"
       id="style14-2" />
    <style
       type="text/css"
       id="style16-7" />
    <style
       type="text/css"
       id="current-color-scheme-0">.ColorScheme-Text {
        color:#4d4d4d;
      }</style>
    <style
       id="style859-9"
       type="text/css">.ColorScheme-Text {
        color:#4d4d4d;
      }</style>
    <linearGradient
       gradientUnits="userSpaceOnUse"
       gradientTransform="matrix(3.1562629,0,0,3.1562629,204.33961,-458.9993)"
       y2="166"
       y1="155"
       x2="25"
       x1="25"
       id="linearGradient1387-3">
      <stop
         id="stop861-6"
         offset="0"
         stop-color="#3296d7" />
      <stop
         id="stop863-0"
         offset="1"
         stop-color="#0a7db4" />
    </linearGradient>
    <linearGradient
       gradientUnits="userSpaceOnUse"
       gradientTransform="matrix(3.1562629,0,0,3.1562629,204.33949,-458.9993)"
       y2="185"
       y1="185"
       x2="65"
       x1="5"
       id="linearGradient1401-6">
      <stop
         id="stop866-2"
         offset="0"
         stop-color="#3492cb" />
      <stop
         id="stop868-6"
         offset=".083713"
         stop-color="#6ec8fa" />
      <stop
         id="stop870-1"
         offset=".91237"
         stop-color="#6ec8fa" />
      <stop
         id="stop872-8"
         offset="1"
         stop-color="#3492cb" />
    </linearGradient>
    <filter
       color-interpolation-filters="sRGB"
       height="1.0264"
       width="1.022"
       y="-.0132"
       x="-.011"
       id="filter1733-2">
      <feGaussianBlur
         id="feGaussianBlur880-0"
         stdDeviation="0.072761339" />
    </filter>
    <filter
       color-interpolation-filters="sRGB"
       height="1.297"
       width="1.0297"
       y="-.1485"
       x="-.01485"
       id="filter935-2">
      <feGaussianBlur
         id="feGaussianBlur883-3"
         stdDeviation="0.098224626" />
    </filter>
    <linearGradient
       inkscape:collect="always"
       xlink:href="#linearGradient1448"
       id="linearGradient1450"
       x1="5.3135399"
       y1="115.78307"
       x2="194.68932"
       y2="115.78307"
       gradientUnits="userSpaceOnUse" />
    <linearGradient
       inkscape:collect="always"
       xlink:href="#linearGradient1620"
       id="linearGradient1622"
       x1="60"
       y1="21"
       x2="60"
       y2="55"
       gradientUnits="userSpaceOnUse" />
    <style
       id="current-color-scheme-5"
       type="text/css">.ColorScheme-Text {
        color:#4d4d4d;
      }</style>
    <style
       type="text/css"
       id="style875">.ColorScheme-Text {
        color:#4d4d4d;
      }</style>
    <filter
       id="filter1733-1"
       x="-.011"
       y="-.0132"
       width="1.022"
       height="1.0264"
       color-interpolation-filters="sRGB">
      <feGaussianBlur
         stdDeviation="0.072761339"
         id="feGaussianBlur896" />
    </filter>
    <filter
       id="filter935-27"
       x="-.01485"
       y="-.1485"
       width="1.0297"
       height="1.297"
       color-interpolation-filters="sRGB">
      <feGaussianBlur
         stdDeviation="0.098224626"
         id="feGaussianBlur899" />
    </filter>
    <linearGradient
       inkscape:collect="always"
       xlink:href="#linearGradient4447"
       id="linearGradient4449"
       x1="93.546776"
       y1="178.53749"
       x2="93.546776"
       y2="172.15199"
       gradientUnits="userSpaceOnUse" />
  </defs>
  <g
     id="g902"
     transform="matrix(11.929333,0,0,11.929333,-10.468371,-468.12796)"
     style="opacity:0.5;filter:url(#filter1733)">
    <g
       id="g896"
       style="stroke-opacity:0.95294">
      <path
         id="path890"
         d="m 10,155 c -2.77,0 -5,2.23 -5,5 v 40 c 0,2.77 2.23,5 5,5 h 50 c 2.77,0 5,-2.23 5,-5 v -36 c 0,-0.831 -0.3347,-1.5808 -0.87695,-2.123 -0.54225,-0.5422 -1.292,-0.87695 -2.123,-0.87695 h -31 c -0.75,0 -1.5,-0.25001 -2.2188,-0.64062 -0.71875,-0.39063 -1.4062,-0.92188 -2.0312,-1.4844 -1.25,-1.125 -2.25,-2.375 -2.75,-2.875 -0.43528,-0.43528 -1.1061,-0.68419 -1.7754,-0.82617 -0.64042,-0.13585 -1.26,-0.16683 -1.6875,-0.17383 h -0.53711 z"
         transform="scale(0.26458)"
         inkscape:connector-curvature="0"
         style="opacity:1;stroke-width:0.20101" />
      <path
         id="path892"
         d="M 7.4004,165 C 6.0708,165 5,166.0708 5,167.4004 v 32.6 c 0,2.77 2.23,5 5,5 h 50 c 2.77,0 5,-2.23 5,-5 v -32.6 C 65,166.0708 63.9292,165 62.5996,165 Z"
         transform="scale(0.26458)"
         inkscape:connector-curvature="0"
         style="opacity:1;stroke-width:0.17979" />
      <path
         id="path894"
         d="M 7.4004,165 C 6.0708,165 5,166.0708 5,167.4004 v 1 C 5,167.0708 6.0708,166 7.4004,166 h 55.199 c 1.3296,0 2.4004,1.0708 2.4004,2.4004 v -1 C 64.9998,166.0708 63.929,165 62.5994,165 Z"
         transform="scale(0.26458)"
         inkscape:connector-curvature="0"
         style="opacity:1;stroke-width:0.17979" />
    </g>
    <path
       id="path898"
       style="color:#000000;text-indent:0;text-transform:none;opacity:0.5;stroke-width:0.27278"
       d="m 1.3229,52.916 c 0.037387,0.72117 0.52916,1.3229 1.3188,1.3229 h 13.233 c 0.79328,0 1.3224,-0.64408 1.3224,-1.3229 z"
       inkscape:connector-curvature="0" />
    <path
       id="path900"
       style="color:#000000;text-indent:0;text-transform:none;opacity:0.15;stroke-width:0.095585"
       d="m 1.3237,52.916 3.337e-4,0.26458 H 17.198034 L 17.1977,52.916 H 1.3226997 Z m 0.26376,0.79373 h 15.346 c 0.05347,-0.07329 0.11377,-0.15529 0.15166,-0.26458 h -15.653 c 0.046511,0.1129 0.09263,0.17706 0.15532,0.26458 z"
       inkscape:connector-curvature="0" />
  </g>
  <path
     id="path904"
     d="m 21.093423,21.093991 c -8.74277,0 -15.7813146,7.038426 -15.7813146,15.781315 V 163.12344 c 0,8.74277 7.0384256,15.78131 15.7813146,15.78131 H 178.90657 c 8.74277,0 15.78131,-7.03842 15.78131,-15.78131 V 49.498926 c 0,-2.622783 -1.05634,-4.989444 -2.76784,-6.700826 -1.7115,-1.711501 -4.07804,-2.767844 -6.70083,-2.767844 H 87.376018 c -2.367137,0 -4.734394,-0.789089 -7.002876,-2.021902 -2.268602,-1.232897 -4.438428,-2.909684 -6.411062,-4.685007 -3.945269,-3.550766 -7.101532,-7.496035 -8.679664,-9.074167 -1.373901,-1.373901 -3.491,-2.159448 -5.603565,-2.607633 -2.021307,-0.428776 -3.976763,-0.52656 -5.326209,-0.548654 h -1.695278 z"
     inkscape:connector-curvature="0"
     style="fill:url(#linearGradient1622);stroke-width:0.634426;fill-opacity:1" />
  <path
     transform="matrix(11.929333,0,0,11.929333,-0.99970172,-0.99913381)"
     id="path906"
     d="M 1.852,4.3131 C 1.66878,4.3131 1.49466,4.350202 1.33628,4.41697 1.1779,4.483736 1.0352,4.58008 0.91564,4.69963 0.79608,4.81919 0.69922,4.96189 0.63246,5.12027 0.56569,5.27865 0.52911,5.45277 0.52911,5.63599 v 0.26458 c 0,-0.18322 0.03658,-0.35734 0.10335,-0.51572 C 0.69922,5.22647 0.79608,5.08377 0.91564,4.96421 1.0352,4.84465 1.1779,4.74831 1.33628,4.68155 1.49466,4.614785 1.66878,4.57768 1.852,4.57768 h 13.229 c 0.18322,0 0.35734,0.037103 0.51572,0.10387 0.15838,0.066765 0.30108,0.16311 0.42064,0.28266 0.11956,0.11956 0.21642,0.26226 0.28318,0.42064 0.06676,0.15838 0.10335,0.3325 0.10335,0.51572 V 5.63599 c 0,-0.18322 -0.03659,-0.35734 -0.10335,-0.51572 C 16.23377,4.96189 16.13692,4.81919 16.01736,4.69963 15.8978,4.58007 15.7551,4.48373 15.59672,4.41697 15.43834,4.350205 15.26422,4.3131 15.081,4.3131 Z"
     inkscape:connector-curvature="0"
     style="opacity:0.1;stroke-width:0.047568;filter:url(#filter935)" />
  <path
     id="path908"
     d="m 21.094616,52.657813 c -2.185692,0 -4.262828,0.442602 -6.152196,1.2391 -1.889367,0.796486 -3.591803,1.945793 -5.017835,3.372184 -1.4262711,1.426271 -2.5817463,3.128587 -3.3781485,5.017835 -0.7964142,1.889129 -1.2328966,3.966503 -1.2328966,6.152196 v 94.687892 c 0,8.74288 7.0384261,15.78131 15.7813151,15.78131 H 178.908 c 8.74289,0 15.78132,-7.03843 15.78132,-15.78131 V 68.439128 c 0,-2.185693 -0.4365,-4.262828 -1.2329,-6.152196 -0.79652,-1.889368 -1.95188,-3.591803 -3.37815,-5.017835 -1.42627,-1.426271 -3.12859,-2.575543 -5.01784,-3.372184 -1.88936,-0.79645 -3.9665,-1.2391 -6.15219,-1.2391 H 21.095093 Z"
     inkscape:connector-curvature="0"
     style="fill:url(#linearGradient1450);stroke-width:0.567466;fill-opacity:1" />
  <path
     id="path914"
     d="m 21.093423,52.65662 c -2.185692,0 -4.262828,0.442602 -6.152196,1.2391 -1.889367,0.796474 -3.591683,1.945793 -5.0179543,3.371945 -1.426271,1.426271 -2.5817462,3.128587 -3.3781485,5.017955 -0.7965215,1.889368 -1.2328965,3.966503 -1.2328965,6.152195 v 3.156263 c 0,-2.185692 0.4363869,-4.262947 1.2328965,-6.152195 0.7964619,-1.889368 1.9518775,-3.591684 3.3781485,-5.017955 1.4262713,-1.426271 3.1285873,-2.575543 5.0179543,-3.371945 1.889368,-0.796474 3.966504,-1.2391 6.152196,-1.2391 H 178.90657 c 2.18569,0 4.26283,0.442614 6.15219,1.2391 1.88937,0.796462 3.59169,1.945793 5.01796,3.371945 1.42627,1.426271 2.58175,3.128587 3.37815,5.017955 0.7964,1.889368 1.23289,3.966503 1.23289,6.152195 v -3.156263 c 0,-2.185692 -0.43649,-4.262827 -1.23289,-6.152195 -0.79652,-1.889368 -1.952,-3.591684 -3.37815,-5.017955 -1.42627,-1.426271 -3.12859,-2.575543 -5.01796,-3.371945 -1.88936,-0.796462 -3.9665,-1.2391 -6.15219,-1.2391 z"
     inkscape:connector-curvature="0"
     style="fill:#414141;fill-opacity:1;stroke-width:0.567455" />
  <g
     transform="matrix(11.929333,0,0,11.929333,-0.99970172,-0.99913381)"
     id="g952"
     style="fill:#5e4aa6;stroke-width:0.26458">
    <g
       id="g946"
       transform="translate(-3.2526e-7,4.7281e-5)">
      <g
         id="g940"
         transform="translate(-3.2526e-7,4.7281e-5)">
        <g
           id="g934"
           transform="translate(-3.2526e-7,4.7281e-5)">
          <g
             id="g928"
             transform="translate(-3.2526e-7,4.7281e-5)">
            <g
               id="g922"
               transform="translate(-3.2526e-7,4.7281e-5)">
              <circle
                 id="circle916"
                 r="0"
                 cy="-325.31"
                 cx="-284.20001" />
              <circle
                 id="circle918"
                 r="0"
                 cy="-325.31"
                 cx="-284.20001" />
              <circle
                 id="circle920"
                 r="0"
                 cy="-326.53"
                 cx="-317.64999" />
            </g>
            <circle
               id="circle924"
               r="0"
               cy="-325.38"
               cx="-281.60001" />
            <circle
               id="circle926"
               r="0"
               cy="-325.38"
               cx="-281.60001" />
          </g>
          <circle
             id="circle930"
             r="0"
             cy="-325.16"
             cx="-283.03" />
          <circle
             id="circle932"
             r="0"
             cy="-325.16"
             cx="-283.03" />
        </g>
        <circle
           id="circle936"
           r="0"
           cy="-325.66"
           cx="-283.95001" />
        <circle
           id="circle938"
           r="0"
           cy="-325.66"
           cx="-283.95001" />
      </g>
      <circle
         id="circle942"
         r="0"
         cy="-325.72"
         cx="-277.78" />
      <circle
         id="circle944"
         r="0"
         cy="-325.72"
         cx="-277.78" />
    </g>
    <circle
       id="circle948"
       r="0"
       cy="-325.41"
       cx="-280.04999" />
    <circle
       id="circle950"
       r="0"
       cy="-325.41"
       cx="-280.04999" />
  </g>
  <path
     id="path954"
     d="m 99.999996,71.594436 -9.618502,24.953779 -26.677567,1.406468 20.734374,16.877617 -6.850897,25.81627 22.412826,-14.51799 22.41284,14.51799 -6.8509,-25.81627 20.73437,-16.877617 -26.67756,-1.406468 z"
     class="ColorScheme-Text"
     inkscape:connector-curvature="0"
     style="color:#4d4d4d;opacity:0.7;fill:#646464;fill-opacity:1;stroke-width:0.95517" />
  <g
     id="g4439"
     transform="translate(0,0.63112)">
    <path
       inkscape:connector-curvature="0"
       d="m 5.315695,162.49589 c 0.446,8.60308 6.31252,15.78132 15.7324,15.78132 H 178.90895 c 9.46331,0 15.77535,-7.68345 15.77535,-15.78132 z"
       style="color:#000000;text-indent:0;text-transform:none;fill:url(#linearGradient4449);stroke-width:3.25408;fill-opacity:1"
       id="path926" />
    <path
       inkscape:connector-curvature="0"
       d="m 5.320845,162.49589 0.004,3.15626 H 194.69109 l -0.004,-3.15626 H 5.308915 Z m 3.14648,9.46867 H 191.53487 c 0.63787,-0.8743 1.35719,-1.8525 1.80921,-3.15626 H 6.614225 c 0.55484,1.34682 1.10501,2.11221 1.85286,3.15626 z"
       style="color:#000000;text-indent:0;text-transform:none;opacity:0.25;fill:#5a5a5a;stroke-width:1.14027;fill-opacity:1"
       id="path928" />
  </g>
</svg>
