<?xml version="1.0" encoding="UTF-8" standalone="no"?>
<svg
   xmlns:dc="http://purl.org/dc/elements/1.1/"
   xmlns:cc="http://creativecommons.org/ns#"
   xmlns:rdf="http://www.w3.org/1999/02/22-rdf-syntax-ns#"
   xmlns:svg="http://www.w3.org/2000/svg"
   xmlns="http://www.w3.org/2000/svg"
   xmlns:xlink="http://www.w3.org/1999/xlink"
   xmlns:sodipodi="http://sodipodi.sourceforge.net/DTD/sodipodi-0.dtd"
   xmlns:inkscape="http://www.inkscape.org/namespaces/inkscape"
   inkscape:version="1.0 (4035a4fb49, 2020-05-01)"
   sodipodi:docname="user-identity.svg"
   id="svg30"
   viewBox="0 0 52.916667 52.916667"
   version="1.1"
   height="200"
   width="200">
  <metadata
     id="metadata34">
    <rdf:RDF>
      <cc:Work
         rdf:about="">
        <dc:format>image/svg+xml</dc:format>
        <dc:type
           rdf:resource="http://purl.org/dc/dcmitype/StillImage" />
        <dc:title></dc:title>
      </cc:Work>
    </rdf:RDF>
  </metadata>
  <sodipodi:namedview
     inkscape:document-rotation="0"
     inkscape:current-layer="svg30"
     inkscape:window-maximized="1"
     inkscape:window-y="36"
     inkscape:window-x="0"
     inkscape:cy="154.09994"
     inkscape:cx="350.7963"
     inkscape:zoom="0.43457605"
     showgrid="false"
     id="namedview32"
     inkscape:window-height="936"
     inkscape:window-width="1920"
     inkscape:pageshadow="2"
     inkscape:pageopacity="0"
     guidetolerance="10"
     gridtolerance="10"
     objecttolerance="10"
     borderopacity="1"
     bordercolor="#666666"
     pagecolor="#ffffff" />
  <defs
     id="defs18">
    <linearGradient
       id="linearGradient972"
       inkscape:collect="always">
      <stop
         id="stop968"
         offset="0"
         style="stop-color:#646464;stop-opacity:1" />
      <stop
         id="stop970"
         offset="1"
         style="stop-color:#282828;stop-opacity:1" />
    </linearGradient>
    <linearGradient
       gradientUnits="userSpaceOnUse"
       y2="296.47"
       y1="284.82999"
       x2="6.3499999"
       x1="6.3499999"
       id="b">
      <stop
         id="stop2"
         offset="0"
         stop-color="#0e78d7" />
      <stop
         id="stop4"
         offset="1"
         stop-color="#29d6f9" />
    </linearGradient>
    <linearGradient
       gradientUnits="userSpaceOnUse"
       y2="293.54001"
       y1="287.76001"
       x2="6.3499999"
       x1="6.3499999"
       id="a">
      <stop
         id="stop7"
         offset="0"
         stop-color="#c3efff" />
      <stop
         id="stop9"
         offset="1"
         stop-color="#fff" />
    </linearGradient>
    <filter
       style="color-interpolation-filters:sRGB"
       height="1.0755"
       width="1.0688"
       y="-0.037763"
       x="-0.034394"
       id="d">
      <feGaussianBlur
         id="feGaussianBlur12"
         stdDeviation="0.09100177" />
    </filter>
    <filter
       style="color-interpolation-filters:sRGB"
       height="1.072"
       width="1.072"
       y="-0.035999998"
       x="-0.035999998"
       id="c">
      <feGaussianBlur
         id="feGaussianBlur15"
         stdDeviation="0.174625" />
    </filter>
    <style
       id="current-color-scheme"
       type="text/css">.ColorScheme-Text {
        color:#4d4d4d;
      }</style>
    <style
       type="text/css"
       id="style842">.ColorScheme-Text {
        color:#4d4d4d;
      }</style>
    <radialGradient
       id="radialGradient1110"
       cx="8.4665003"
       cy="8.4665003"
       r="7.9373002"
       gradientTransform="matrix(3.1417566,0,0,3.1417566,-0.14124691,-0.14124691)"
       gradientUnits="userSpaceOnUse">
      <stop
         stop-color="#6ec8fa"
         offset="0"
         id="stop844" />
      <stop
         stop-color="#3492cb"
         offset="1"
         id="stop846" />
    </radialGradient>
    <filter
       color-interpolation-filters="sRGB"
       height="1.0264"
       width="1.022"
       y="-0.0132"
       x="-0.011"
       id="filter1733">
      <feGaussianBlur
         id="feGaussianBlur880"
         stdDeviation="0.072761339" />
    </filter>
    <filter
       color-interpolation-filters="sRGB"
       height="1.2970001"
       width="1.0297"
       y="-0.1485"
       x="-0.01485"
       id="filter935">
      <feGaussianBlur
         id="feGaussianBlur883"
         stdDeviation="0.098224626" />
    </filter>
    <radialGradient
       gradientUnits="userSpaceOnUse"
       r="24.937227"
       fy="26.458334"
       fx="26.458334"
       cy="26.458334"
       cx="26.458334"
       id="radialGradient974"
       xlink:href="#linearGradient972"
       inkscape:collect="always" />
  </defs>
  <g
     transform="matrix(3.2500818,0,0,3.2500818,-1.058485,-1.058485)"
     id="g861"
     style="fill:#5e4aa6;stroke-width:0.31749">
    <circle
       id="circle853"
       r="0"
       cy="-392.17001"
       cx="-365.20999" />
    <circle
       id="circle855"
       r="0"
       cy="-392.28"
       cx="-375.63" />
    <circle
       id="circle857"
       r="0"
       cy="-392.17001"
       cx="-365.20999" />
    <circle
       id="circle859"
       r="0"
       cy="-392.28"
       cx="-375.63" />
  </g>
  <circle
     cx="26.458334"
     cy="26.458334"
     r="25.796875"
     style="fill:#646464;fill-rule:evenodd;stroke-width:4.43181;paint-order:normal;fill-opacity:1"
     id="circle863" />
  <circle
     cx="26.458334"
     cy="26.458334"
     r="24.937227"
     style="fill:url(#radialGradient974);fill-rule:evenodd;stroke-width:4.28426;paint-order:normal;fill-opacity:1"
     id="circle865" />
  <g
     style="fill:#787878;fill-opacity:1"
     transform="matrix(2.6293487,0,0,2.6293487,3.9362407,5.6360335)"
     id="g879">
    <path
       style="fill-opacity:1;fill:#787878"
       inkscape:connector-curvature="0"
       d="m 7.2242,8.556 v 0.39835 c 0,0 0.10755,0.85578 -0.50008,1.1723 -0.60764,0.31647 -2.6192,1.2658 -2.7272,1.4416 -0.10802,0.17582 -0.26993,0.68298 0.18917,0.81192 h 8.7592 c 0.45911,-0.12893 0.2972,-0.6361 0.18917,-0.81192 -0.10803,-0.17582 -2.1196,-1.1251 -2.7272,-1.4416 C 9.79962,9.81018 9.90718,8.95435 9.90718,8.95435 V 8.556 h -1.3415 z"
       id="path867" />
    <g
       style="fill-opacity:1;fill:#787878"
       transform="translate(0.10535)"
       id="g877">
      <path
         style="fill-opacity:1;fill:#787878"
         inkscape:connector-curvature="0"
         d="M 10.452,6.6018 C 10.18742,8.488 9.56358,9.4947 8.4677,9.4947 7.3718,9.4947001 6.7479,8.488 6.4834,6.6018 c -0.2414,-1.7209 0,-3.1436 1.9843,-3.1436 1.9843,0 2.2257,1.4227 1.9843,3.1436 z"
         id="path869" />
      <path
         style="fill-opacity:1;fill:#787878"
         inkscape:connector-curvature="0"
         d="m 10.492,6.1701 c 0,0 0.6201,-0.024804 0.45474,0.5953 -0.16536,0.6201 -0.47955,1.2816 -0.82681,1.356 -0.34726,0.074413 0.27285,-1.9265 0.37206,-1.9513 z"
         id="path871" />
      <path
         style="fill-opacity:1;fill:#787878"
         inkscape:connector-curvature="0"
         d="m 6.4284,6.1117 c 0,0 -0.6201,-0.024804 -0.45474,0.5953 C 6.13902,7.3271 6.45321,7.9886 6.80047,8.063 7.14773,8.137413 6.52762,6.1365 6.42841,6.1117 Z"
         id="path873" />
      <path
         style="fill-opacity:1;fill:#787878"
         inkscape:connector-curvature="0"
         d="M 10.452,6.6018 C 10.18742,8.488 9.56358,9.4947 8.4677,9.4947 7.3718,9.4947001 6.7479,8.488 6.4834,6.6018 c -0.2414,-1.7209 0,-3.1436 1.9843,-3.1436 1.9843,0 2.2257,1.4227 1.9843,3.1436 z"
         id="path875" />
    </g>
  </g>
</svg>
