<?xml version="1.0" encoding="UTF-8" standalone="no"?>
<svg
   xmlns:dc="http://purl.org/dc/elements/1.1/"
   xmlns:cc="http://creativecommons.org/ns#"
   xmlns:rdf="http://www.w3.org/1999/02/22-rdf-syntax-ns#"
   xmlns:svg="http://www.w3.org/2000/svg"
   xmlns="http://www.w3.org/2000/svg"
   xmlns:sodipodi="http://sodipodi.sourceforge.net/DTD/sodipodi-0.dtd"
   xmlns:inkscape="http://www.inkscape.org/namespaces/inkscape"
   inkscape:version="1.0 (4035a4fb49, 2020-05-01)"
   sodipodi:docname="drive-removable-media.svg"
   id="svg19"
   viewBox="0 0 16 16"
   version="1.1">
  <metadata
     id="metadata23">
    <rdf:RDF>
      <cc:Work
         rdf:about="">
        <dc:format>image/svg+xml</dc:format>
        <dc:type
           rdf:resource="http://purl.org/dc/dcmitype/StillImage" />
        <dc:title />
      </cc:Work>
    </rdf:RDF>
  </metadata>
  <sodipodi:namedview
     inkscape:document-rotation="0"
     inkscape:current-layer="svg19"
     inkscape:window-maximized="1"
     inkscape:window-y="36"
     inkscape:window-x="0"
     inkscape:cy="10.404985"
     inkscape:cx="13.460354"
     inkscape:zoom="20.85965"
     showgrid="true"
     id="namedview21"
     inkscape:window-height="936"
     inkscape:window-width="1920"
     inkscape:pageshadow="2"
     inkscape:pageopacity="0"
     guidetolerance="10"
     gridtolerance="10"
     objecttolerance="10"
     borderopacity="1"
     bordercolor="#666666"
     pagecolor="#ffffff">
    <inkscape:grid
       id="grid838"
       type="xygrid" />
  </sodipodi:namedview>
  <defs
     id="defs3">
    <style
       type="text/css"
       id="current-color-scheme">.ColorScheme-Text { color:#363636; }</style>
  </defs>
  <g
     transform="translate(34,-1)"
     id="g1004">
    <path
       inkscape:connector-curvature="0"
       style="opacity:1;fill:#0096ff;fill-opacity:1;stroke:none;stroke-width:0.6820783;stroke-linecap:round;stroke-miterlimit:4;stroke-dasharray:none;stroke-opacity:1"
       d="m -30,10 c -1.662,0 -3,1.338 -3,3 0,1.662 1.338,3 3,3 h 8 c 1.662,0 3,-1.338 3,-3 0,-1.662 -1.338,-3 -3,-3 z m 0,1 h 8 c 1.108,0 2,0.892 2,2 0,1.108 -0.892,2 -2,2 h -8 c -1.108,0 -2,-0.892 -2,-2 0,-1.108 0.892,-2 2,-2 z"
       id="rect970" />
    <path
       style="opacity:1;fill:#0096ff;fill-opacity:1;stroke:none;stroke-width:0.67936629;stroke-linecap:round;stroke-miterlimit:4;stroke-dasharray:none;stroke-opacity:1"
       d="m -29,3 c -1.108,0 -1.659319,0.9456754 -2,2 l -1.823223,7 h 1 L -30,5 c 0.170341,-0.5271623 0.446,-1 1,-1 h 6 c 0.554,0 0.829438,0.4729093 1,1 l 1.832031,7 h 1 L -21,5 c -0.341124,-1.0541814 -0.892,-2 -2,-2 z"
       id="rect974"
       inkscape:connector-curvature="0"
       sodipodi:nodetypes="sccccssccccss" />
    <circle
       style="opacity:1;fill:#0096ff;fill-opacity:1;stroke:none;stroke-width:0.60000002;stroke-linecap:round;stroke-miterlimit:4;stroke-dasharray:none;stroke-opacity:1"
       id="path999"
       cx="-22"
       cy="13"
       r="1" />
  </g>
</svg>
