<?xml version="1.0" encoding="UTF-8" standalone="no"?>
<svg
   xmlns:dc="http://purl.org/dc/elements/1.1/"
   xmlns:cc="http://creativecommons.org/ns#"
   xmlns:rdf="http://www.w3.org/1999/02/22-rdf-syntax-ns#"
   xmlns:svg="http://www.w3.org/2000/svg"
   xmlns="http://www.w3.org/2000/svg"
   xmlns:sodipodi="http://sodipodi.sourceforge.net/DTD/sodipodi-0.dtd"
   xmlns:inkscape="http://www.inkscape.org/namespaces/inkscape"
   width="64"
   height="64"
   version="1.1"
   viewBox="0 0 16.933 16.933"
   id="svg58"
   sodipodi:docname="accessories-text-editor.svg"
   inkscape:version="0.92.5 (6c0c36ef5a, 2020-05-15, custom)">
  <sodipodi:namedview
     pagecolor="#ffffff"
     bordercolor="#666666"
     borderopacity="1"
     objecttolerance="10"
     gridtolerance="10"
     guidetolerance="10"
     inkscape:pageopacity="0"
     inkscape:pageshadow="2"
     inkscape:window-width="1920"
     inkscape:window-height="954"
     id="namedview60"
     showgrid="false"
     inkscape:zoom="2.6074563"
     inkscape:cx="17.15486"
     inkscape:cy="33.141489"
     inkscape:window-x="0"
     inkscape:window-y="36"
     inkscape:window-maximized="1"
     inkscape:current-layer="svg58" />
  <defs
     id="defs10">
    <filter
       id="filter861"
       x="-.027"
       y="-.027"
       width="1.054"
       height="1.054"
       color-interpolation-filters="sRGB">
      <feGaussianBlur
         stdDeviation="0.16371"
         id="feGaussianBlur2" />
    </filter>
    <linearGradient
       id="linearGradient1261"
       x1="54.456"
       x2="54.456"
       y1="6.4548"
       y2="11.072"
       gradientTransform="matrix(.99367 .11225 -.11225 .99367 -44.428 -12.119)"
       gradientUnits="userSpaceOnUse">
      <stop
         stop-color="#ffd700"
         offset="0"
         id="stop5" />
      <stop
         stop-color="#ffb300"
         offset="1"
         id="stop7" />
    </linearGradient>
  </defs>
  <metadata
     id="metadata12">
    <rdf:RDF>
      <cc:Work
         rdf:about="">
        <dc:format>image/svg+xml</dc:format>
        <dc:type
           rdf:resource="http://purl.org/dc/dcmitype/StillImage" />
        <dc:title></dc:title>
      </cc:Work>
    </rdf:RDF>
  </metadata>
  <rect
     x="1.1905"
     y="1.1905"
     width="14.552"
     height="14.552"
     ry="3.4395"
     filter="url(#filter861)"
     opacity=".3"
     stroke-opacity=".95294"
     stroke-width=".083153"
     id="rect14" />
  <rect
     x="1.1905"
     y="1.1905"
     width="14.552"
     height="14.552"
     ry="3.4395"
     fill="#fafafa"
     stroke-opacity=".95294"
     stroke-width=".083153"
     id="rect16" />
  <path
     d="m4.6291 1.1906c-0.23782 7.05e-5 -0.47002 0.024162-0.694 0.069762-0.22431 0.045667-0.44057 0.11267-0.64646 0.19947-0.41177 0.17359-0.78209 0.42501-1.0929 0.73586-0.31084 0.31084-0.56227 0.68116-0.73586 1.0929-0.086794 0.20589-0.1538 0.42215-0.19947 0.64646-0.00947 0.046529-0.00688 0.096971-0.014469 0.14417l14.441 5.167e-4c-0.0076-0.047373-5e-3 -0.097997-0.01447-0.14469-0.045667-0.22431-0.11267-0.44057-0.19947-0.64646-0.17359-0.41177-0.42501-0.78209-0.73586-1.0929-0.31084-0.31084-0.68116-0.56227-1.0929-0.73586-0.20589-0.086794-0.42215-0.1538-0.64646-0.19947-0.22297-0.045395-0.4542-0.068961-0.6909-0.069245l-7.6769-5.168e-4z"
     fill="url(#linearGradient1261)"
     stroke-width=".99999"
     id="path18" />
  <g
     transform="translate(.15105)"
     fill="#a0a0a0"
     stroke-width=".96154"
     id="g44">
    <circle
       transform="rotate(.011734)"
       cx="2.664"
       cy="4.606"
       r=".1574"
       id="circle20" />
    <circle
       transform="rotate(.011734)"
       cx="3.6919"
       cy="4.606"
       r=".1574"
       id="circle22" />
    <circle
       transform="rotate(.011734)"
       cx="4.7198"
       cy="4.606"
       r=".1574"
       id="circle24" />
    <circle
       transform="rotate(.011734)"
       cx="5.7476"
       cy="4.606"
       r=".1574"
       id="circle26" />
    <circle
       transform="rotate(.011734)"
       cx="6.7746"
       cy="4.606"
       r=".1574"
       id="circle28" />
    <circle
       transform="rotate(.011734)"
       cx="7.8025"
       cy="4.606"
       r=".1574"
       id="circle30" />
    <circle
       transform="rotate(.011734)"
       cx="8.8303"
       cy="4.606"
       r=".1574"
       id="circle32" />
    <circle
       transform="rotate(.011734)"
       cx="9.8582"
       cy="4.606"
       r=".1574"
       id="circle34" />
    <circle
       transform="rotate(.011734)"
       cx="10.886"
       cy="4.606"
       r=".1574"
       id="circle36" />
    <circle
       transform="rotate(.011734)"
       cx="11.914"
       cy="4.606"
       r=".1574"
       id="circle38" />
    <circle
       transform="rotate(.011734)"
       cx="13.969"
       cy="4.606"
       r=".1574"
       id="circle40" />
    <circle
       transform="rotate(.011734)"
       cx="12.941"
       cy="4.606"
       r=".1574"
       id="circle42" />
  </g>
  <rect
     style="fill:#dcdcdc"
     id="rect46"
     ry="0"
     height="0.26458001"
     width="13.758"
     y="6.6145"
     x="1.5875" />
  <rect
     style="fill:#dcdcdc"
     id="rect48"
     ry="0"
     height="0.26458001"
     width="13.758"
     y="8.4665003"
     x="1.5875" />
  <rect
     style="fill:#dcdcdc"
     id="rect50"
     ry="0"
     height="0.26458001"
     width="13.758"
     y="10.319"
     x="1.5875" />
  <rect
     style="fill:#dcdcdc"
     id="rect52"
     ry="0"
     height="0.26458001"
     width="13.758"
     y="12.171"
     x="1.5875" />
  <rect
     style="fill:#dcdcdc"
     id="rect54"
     ry="0"
     height="0.26458001"
     width="12.7"
     y="14.023"
     x="2.1166" />
  <path
     style="color:#000000;font-style:normal;font-variant:normal;font-weight:normal;font-stretch:normal;font-size:medium;line-height:normal;font-family:sans-serif;font-variant-ligatures:normal;font-variant-position:normal;font-variant-caps:normal;font-variant-numeric:normal;font-variant-alternates:normal;font-feature-settings:normal;text-indent:0;text-align:start;text-decoration:none;text-decoration-line:none;text-decoration-style:solid;text-decoration-color:#000000;letter-spacing:normal;word-spacing:normal;text-transform:none;writing-mode:lr-tb;direction:ltr;text-orientation:mixed;dominant-baseline:auto;baseline-shift:baseline;text-anchor:start;white-space:normal;shape-padding:0;clip-rule:nonzero;display:inline;overflow:visible;visibility:visible;opacity:0.6;isolation:auto;mix-blend-mode:normal;color-interpolation:sRGB;color-interpolation-filters:linearRGB;solid-color:#000000;solid-opacity:1;vector-effect:none;fill:#646464;fill-opacity:1;fill-rule:nonzero;stroke:none;stroke-width:0.50821453;stroke-linecap:butt;stroke-linejoin:miter;stroke-miterlimit:4;stroke-dasharray:none;stroke-dashoffset:0;stroke-opacity:1;color-rendering:auto;image-rendering:auto;shape-rendering:auto;text-rendering:auto;enable-background:accumulate"
     d="m 1.3071593,3.7378121 c -0.026122,0.1124751 -0.05742,0.226497 -0.061833,0.340328 l 14.4416147,0.0016 -0.06261,-0.3419266 z"
     id="rect872"
     inkscape:connector-curvature="0"
     sodipodi:nodetypes="ccccc" />
</svg>
