<?xml version="1.0" encoding="UTF-8" standalone="no"?>
<svg
   xmlns:dc="http://purl.org/dc/elements/1.1/"
   xmlns:cc="http://creativecommons.org/ns#"
   xmlns:rdf="http://www.w3.org/1999/02/22-rdf-syntax-ns#"
   xmlns:svg="http://www.w3.org/2000/svg"
   xmlns="http://www.w3.org/2000/svg"
   xmlns:xlink="http://www.w3.org/1999/xlink"
   xmlns:sodipodi="http://sodipodi.sourceforge.net/DTD/sodipodi-0.dtd"
   xmlns:inkscape="http://www.inkscape.org/namespaces/inkscape"
   width="64"
   height="64"
   version="1.1"
   id="svg34"
   sodipodi:docname="access.svg"
   inkscape:version="0.92.5 (6c0c36ef5a, 2020-05-15, custom)">
  <metadata
     id="metadata38">
    <rdf:RDF>
      <cc:Work
         rdf:about="">
        <dc:format>image/svg+xml</dc:format>
        <dc:type
           rdf:resource="http://purl.org/dc/dcmitype/StillImage" />
        <dc:title></dc:title>
      </cc:Work>
    </rdf:RDF>
  </metadata>
  <sodipodi:namedview
     pagecolor="#ffffff"
     bordercolor="#666666"
     borderopacity="1"
     objecttolerance="10"
     gridtolerance="10"
     guidetolerance="10"
     inkscape:pageopacity="0"
     inkscape:pageshadow="2"
     inkscape:window-width="1920"
     inkscape:window-height="954"
     id="namedview36"
     showgrid="false"
     inkscape:zoom="2.6074563"
     inkscape:cx="26.368754"
     inkscape:cy="30.204242"
     inkscape:window-x="0"
     inkscape:window-y="36"
     inkscape:window-maximized="1"
     inkscape:current-layer="svg34" />
  <defs
     id="defs18">
    <linearGradient
       id="b"
       x1="399.57"
       x2="399.57"
       y1="545.8"
       y2="517.8"
       gradientTransform="matrix(2.1429,0,0,2.1429,-826.36,-1107.5)"
       gradientUnits="userSpaceOnUse">
      <stop
         stop-color="#3889e9"
         offset="0"
         id="stop2" />
      <stop
         stop-color="#5ea5fb"
         offset="1"
         id="stop4" />
    </linearGradient>
    <linearGradient
       id="a"
       x1="399.99"
       x2="399.99"
       y1="545.14"
       y2="518.14"
       gradientTransform="matrix(2.1429,0,0,2.1429,-826.36,-1107.5)"
       gradientUnits="userSpaceOnUse">
      <stop
         stop-color="#197ff1"
         offset="0"
         id="stop7" />
      <stop
         stop-color="#21c6fb"
         offset="1"
         id="stop9" />
    </linearGradient>
    <filter
       id="c"
       x="-.036"
       y="-.036"
       width="1.072"
       height="1.072"
       color-interpolation-filters="sRGB">
      <feGaussianBlur
         stdDeviation="0.41999874"
         id="feGaussianBlur12" />
    </filter>
    <filter
       id="d"
       x="-.038118"
       y="-.034105"
       width="1.0762"
       height="1.0682"
       color-interpolation-filters="sRGB">
      <feGaussianBlur
         stdDeviation="0.22736867"
         id="feGaussianBlur15" />
    </filter>
    <linearGradient
       id="linearGradient1054"
       inkscape:collect="always">
      <stop
         id="stop1050"
         offset="0"
         style="stop-color:#1eaff0;stop-opacity:1" />
      <stop
         id="stop1052"
         offset="1"
         style="stop-color:#1464c8;stop-opacity:1" />
    </linearGradient>
    <linearGradient
       gradientUnits="userSpaceOnUse"
       gradientTransform="matrix(.91667 0 0 .91667 .70544 -16.228)"
       y2="0.56832188"
       y1="13.415262"
       x2="3.9686999"
       x1="3.9686999"
       id="linearGradient1448">
      <stop
         style="stop-color:#1eaff0;stop-opacity:1"
         id="stop2-3"
         offset="0"
         stop-color="#144bb4" />
      <stop
         style="stop-color:#1464c8;stop-opacity:1"
         id="stop4-6"
         offset="1"
         stop-color="#00c8ff" />
    </linearGradient>
    <filter
       color-interpolation-filters="sRGB"
       height="1.054"
       width="1.054"
       y="-.027"
       x="-.027"
       id="filter861">
      <feGaussianBlur
         id="feGaussianBlur7"
         stdDeviation="0.16371" />
    </filter>
    <linearGradient
       gradientUnits="userSpaceOnUse"
       y2="-15.816832"
       x2="3.8558533"
       y1="-3.8941278"
       x1="3.8558533"
       id="linearGradient1056"
       xlink:href="#linearGradient1054"
       inkscape:collect="always"
       gradientTransform="matrix(3.779602,0,0,3.779602,7.9121267e-7,1.011042e-6)" />
    <filter
       inkscape:collect="always"
       style="color-interpolation-filters:sRGB"
       id="filter886"
       x="-0.063529264"
       width="1.1270585"
       y="-0.056842224"
       height="1.1136844">
      <feGaussianBlur
         inkscape:collect="always"
         stdDeviation="0.37894775"
         id="feGaussianBlur888" />
    </filter>
  </defs>
  <rect
     id="rect910"
     ry="3.4395001"
     height="14.552"
     width="14.552"
     y="1.1905"
     x="1.1904995"
     style="opacity:0.3;stroke-width:0.083153;stroke-opacity:0.95293998;filter:url(#filter861)"
     transform="matrix(3.779602,0,0,3.779602,7.9121267e-7,-1.011042e-6)" />
  <rect
     style="fill:url(#linearGradient1056);fill-opacity:1;stroke-width:0.31428525;stroke-opacity:0.95293998"
     id="rect912"
     ry="12.999942"
     height="55.000767"
     width="55.000767"
     y="-59.498493"
     x="4.4996152"
     transform="scale(1,-1)" />
  <path
     transform="matrix(2.1428,0,0,2.1428,-84.514943,17.804097)"
     d="m 56.312,0.45712 c 0,1.0113 -0.82843,1.8321 -1.8492,1.8321 -1.0207,0 -1.8492,-0.82079 -1.8492,-1.8321 0,-1.0113 0.82843,-1.8321 1.8492,-1.8321 1.0207,0 1.8492,0.82079 1.8492,1.8321 z m 4.6153,1.9481 c -0.08553,0.013727 -0.16634,0.047149 -0.23561,0.097499 l -6.3166,0.97592 -6.2825,-0.98938 c -0.1624,-0.1167 -0.39074,-0.15165 -0.5722,-0.065003 -0.18147,0.086644 -0.30043,0.292 -0.30293,0.48742 -0.0023,0.19544 0.12372,0.36399 0.30293,0.45493 l 4.923,1.5473 -0.03367,3.5521 -1.7371,5.3199 c -0.16731,0.24225 -0.11631,0.55336 0.13464,0.71486 0.25096,0.16152 0.60685,0.11231 0.77417,-0.12996 l 2.8034,-5.7423 2.7504,5.7324 c 0.14872,0.25126 0.48025,0.33854 0.7405,0.19497 0.26026,-0.14357 0.35068,-0.46362 0.20196,-0.71488 l -1.7049,-5.3428 -0.06731,-3.3441 4.9921,-1.8065 c 0.2017,-0.13655 0.28932,-0.39506 0.20196,-0.61739 -0.08737,-0.22236 -0.32746,-0.3519 -0.57222,-0.32496 h 1.8e-5 z"
     id="path30"
     inkscape:connector-curvature="0"
     style="opacity:0.5;fill-opacity:0.85204001;stroke-width:0.73333001;enable-background:new;filter:url(#filter886)" />
  <path
     d="m 36.149428,18.783555 c 0,2.167 -1.7752,3.9259 -3.9625,3.9259 -2.1872,0 -3.9625,-1.7588 -3.9625,-3.9259 0,-2.167 1.7752,-3.9259 3.9625,-3.9259 2.1872,0 3.9625,1.7588 3.9625,3.9259 z m 9.8897,4.1744 c -0.18328,0.02941 -0.35644,0.10103 -0.50487,0.20892 l -13.535,2.0912 -13.462,-2.1201 c -0.34799,-0.25007 -0.83728,-0.32496 -1.2261,-0.13929 -0.38886,0.18566 -0.64377,0.6257 -0.64912,1.0445 -0.005,0.41879 0.26511,0.77996 0.64912,0.97483 l 10.549,3.3156 -0.0721,7.6115 -3.7223,11.4 c -0.35851,0.5191 -0.24923,1.1857 0.28851,1.5318 0.53776,0.34611 1.3004,0.24066 1.6589,-0.27848 l 6.0072,-12.305 5.8936,12.283 c 0.31868,0.5384 1.0291,0.72543 1.5868,0.41778 0.55769,-0.30764 0.75144,-0.99345 0.43276,-1.5319 l -3.6533,-11.449 -0.14423,-7.1658 10.697,-3.871 c 0.43221,-0.2926 0.61996,-0.84654 0.43276,-1.323 -0.18722,-0.47648 -0.70169,-0.75406 -1.2262,-0.69633 h 4e-5 z"
     id="path32"
     inkscape:connector-curvature="0"
     style="fill:#ffffff;fill-opacity:1;stroke-width:1.57140005;enable-background:new" />
</svg>
