<?xml version="1.0" encoding="UTF-8" standalone="no"?>
<svg
   xmlns:dc="http://purl.org/dc/elements/1.1/"
   xmlns:cc="http://creativecommons.org/ns#"
   xmlns:rdf="http://www.w3.org/1999/02/22-rdf-syntax-ns#"
   xmlns:svg="http://www.w3.org/2000/svg"
   xmlns="http://www.w3.org/2000/svg"
   xmlns:xlink="http://www.w3.org/1999/xlink"
   xmlns:sodipodi="http://sodipodi.sourceforge.net/DTD/sodipodi-0.dtd"
   xmlns:inkscape="http://www.inkscape.org/namespaces/inkscape"
   width="64"
   height="64"
   version="1.1"
   viewBox="0 0 64 64"
   id="svg28"
   sodipodi:docname="accessories-podcast.svg"
   inkscape:version="0.92.5 (6c0c36ef5a, 2020-05-15, custom)">
  <metadata
     id="metadata32">
    <rdf:RDF>
      <cc:Work
         rdf:about="">
        <dc:format>image/svg+xml</dc:format>
        <dc:type
           rdf:resource="http://purl.org/dc/dcmitype/StillImage" />
        <dc:title></dc:title>
      </cc:Work>
    </rdf:RDF>
  </metadata>
  <sodipodi:namedview
     pagecolor="#ffffff"
     bordercolor="#666666"
     borderopacity="1"
     objecttolerance="10"
     gridtolerance="10"
     guidetolerance="10"
     inkscape:pageopacity="0"
     inkscape:pageshadow="2"
     inkscape:window-width="1920"
     inkscape:window-height="954"
     id="namedview30"
     showgrid="false"
     inkscape:zoom="5.2149125"
     inkscape:cx="33.27263"
     inkscape:cy="37.639436"
     inkscape:window-x="0"
     inkscape:window-y="36"
     inkscape:window-maximized="1"
     inkscape:current-layer="svg28" />
  <defs
     id="defs13">
    <linearGradient
       inkscape:collect="always"
       id="linearGradient919">
      <stop
         style="stop-color:#d26ef5;stop-opacity:1"
         offset="0"
         id="stop915" />
      <stop
         style="stop-color:#822dbe;stop-opacity:1"
         offset="1"
         id="stop917" />
    </linearGradient>
    <linearGradient
       id="a"
       x1="68.113"
       x2="68.113"
       y1="119.96"
       y2="8.7812"
       gradientTransform="matrix(0.49622,0,0,0.49622,80.370292,-2.3573253)"
       gradientUnits="userSpaceOnUse">
      <stop
         stop-color="#852ec0"
         offset="0"
         id="stop2" />
      <stop
         stop-color="#d26ef7"
         offset="1"
         id="stop4" />
    </linearGradient>
    <filter
       id="c"
       x="-.036"
       y="-.036"
       width="1.072"
       height="1.072"
       color-interpolation-filters="sRGB">
      <feGaussianBlur
         stdDeviation="1.8137109"
         id="feGaussianBlur7" />
    </filter>
    <filter
       id="b"
       x="-.063245"
       y="-.057072"
       width="1.1265"
       height="1.1141"
       color-interpolation-filters="sRGB">
      <feGaussianBlur
         stdDeviation="2.131827"
         id="feGaussianBlur10" />
    </filter>
    <linearGradient
       gradientUnits="userSpaceOnUse"
       gradientTransform="matrix(.96154 0 0 .96154 -65.275 -1.6916)"
       y2="14.704"
       y1="13.177"
       x2="82.141"
       x1="80.368"
       id="linearGradient938">
      <stop
         id="stop4-3"
         offset="0"
         stop-color="#fafafa" />
      <stop
         id="stop6"
         offset="1"
         stop-color="#90a0b3" />
    </linearGradient>
    <filter
       color-interpolation-filters="sRGB"
       height="1.1131"
       width="1.1278"
       y="-.056531"
       x="-.063923"
       id="filter1066">
      <feGaussianBlur
         id="feGaussianBlur9"
         stdDeviation="0.22705935" />
    </filter>
    <filter
       color-interpolation-filters="sRGB"
       height="1.237"
       width="1.2439"
       y="-.11848"
       x="-.12197"
       id="filter1100">
      <feGaussianBlur
         id="feGaussianBlur12"
         stdDeviation="0.47586465" />
    </filter>
    <filter
       id="filter861"
       x="-.027"
       y="-.027"
       width="1.054"
       height="1.054"
       color-interpolation-filters="sRGB">
      <feGaussianBlur
         stdDeviation="0.16371"
         id="feGaussianBlur866" />
    </filter>
    <linearGradient
       id="linearGradient1261"
       x1="54.456"
       x2="54.456"
       y1="6.4548"
       y2="11.072"
       gradientTransform="matrix(0.99367,0.11225,-0.11225,0.99367,-28.365566,-11.171754)"
       gradientUnits="userSpaceOnUse">
      <stop
         stop-color="#ffd700"
         offset="0"
         id="stop869" />
      <stop
         stop-color="#ffb300"
         offset="1"
         id="stop871" />
    </linearGradient>
    <linearGradient
       inkscape:collect="always"
       xlink:href="#linearGradient919"
       id="linearGradient921"
       x1="17.066442"
       y1="4.3633327"
       x2="17.066442"
       y2="55.370903"
       gradientUnits="userSpaceOnUse" />
  </defs>
  <filter
     id="i"
     x="-.069933"
     y="-.054406"
     width="1.1399"
     height="1.1088"
     color-interpolation-filters="sRGB">
    <feGaussianBlur
       stdDeviation="1.9764485"
       id="feGaussianBlur15" />
  </filter>
  <rect
     style="opacity:0.3;stroke-width:0.083153;stroke-opacity:0.95293998;filter:url(#filter861)"
     x="1.1905"
     y="1.1905"
     width="14.552"
     height="14.552"
     ry="3.4395001"
     id="rect878"
     transform="matrix(3.779602,0,0,3.779602,-1.011042e-6,-1.011042e-6)" />
  <rect
     style="fill:url(#linearGradient921);stroke-width:0.31428525;stroke-opacity:0.95293998;fill-opacity:1"
     x="4.4996152"
     y="4.4996152"
     width="55.000767"
     height="55.000767"
     ry="12.999942"
     id="rect880" />
  <path
     inkscape:connector-curvature="0"
     id="path22"
     style="opacity:0.3;stroke-width:2.0151999;paint-order:fill markers stroke;filter:url(#b)"
     d="m 68.124,-44.691 c -1.7157,-7.08e-4 -3.4306,0.04594 -4.2532,0.13961 -10.082,1.1473 -18.337,5.3141 -25.461,12.852 -4.795,5.0734 -8.0744,11.193 -9.8305,18.345 -0.5745,2.3397 -0.72462,3.3635 -0.86114,5.887 -0.14037,2.5949 0.0042,7.0847 0.30133,9.3495 0.43017,3.2818 1.7148,7.4822 3.4266,11.204 3.1662,6.8849 8.2782,12.677 14.892,16.877 2.0881,1.3259 6.3336,3.5016 8.1082,4.155 0.53648,0.19753 0.63193,0.19627 0.8017,-0.008 0.31462,-0.37909 -0.09831,-3.8721 -0.56534,-4.7826 -0.2999,-0.58465 -0.60237,-0.81811 -1.902,-1.4666 -7.1106,-3.548 -12.764,-9.2953 -16.367,-16.637 -1.5551,-3.1686 -2.6206,-6.332 -2.9801,-8.8505 -0.40534,-2.8394 -0.47605,-7.5435 -0.16725,-11.163 0.27606,-3.2358 1.2112,-6.4326 2.929,-10.012 2.6074,-5.4326 6.3388,-9.9879 11.099,-13.553 4.6347,-3.4707 10.137,-5.785 15.561,-6.5435 1.4129,-0.19759 7.4828,-0.27196 9.3398,-0.11473 4.2421,0.35917 7.8412,1.4286 12.066,3.5855 7.6091,3.8852 13.714,10.631 16.912,18.688 1.7098,4.308 2.1588,7.0391 2.1591,13.137 2.3e-4,4.8726 -0.26145,6.8127 -1.3629,10.11 -1.6504,4.9401 -4.2515,9.3923 -7.7295,13.228 -2.78,3.066 -6.9235,6.2272 -10.441,7.9673 -1.607,0.79485 -1.9092,1.0614 -2.2268,1.9614 -0.41211,1.168 -0.68728,4.1437 -0.40915,4.4218 0.23082,0.23082 1.0851,-0.0858 3.5676,-1.3187 2.4838,-1.2336 5.8505,-3.1936 7.4019,-4.3098 7.1426,-5.1389 12.809,-13.326 15.159,-21.902 0.97022,-3.54 1.1662,-5.0319 1.2523,-9.5389 0.0722,-3.7777 -0.0694,-6.5469 -0.42712,-8.3432 -1.3703,-6.8818 -4.0131,-12.734 -7.9935,-17.702 -2.056,-2.5664 -4.6595,-5.1973 -6.9333,-7.0052 -6.1309,-4.8745 -12.797,-7.602 -20.805,-8.5146 -0.82769,-0.09432 -2.5444,-0.14303 -4.2601,-0.14376 z m -0.11749,13.475 c -3.0364,0.01505 -5.9918,0.39124 -7.9548,1.0491 -4.191,1.4045 -8.3388,4.0235 -11.468,7.243 -2.9429,3.0273 -5.0342,6.4663 -6.368,10.47 -0.95072,2.8542 -1.2465,5.2521 -1.1417,9.2458 0.03623,1.3823 0.14544,2.999 0.24742,3.6519 0.79952,5.1183 4.1468,11.342 8.1234,15.107 0.54418,0.5151 1.1706,1.0594 1.3933,1.2095 0.22264,0.15006 0.83268,0.57812 1.356,0.95098 0.52331,0.37286 1.0054,0.66049 1.0712,0.6386 0.06582,-0.0219 0.15296,-0.18814 0.19214,-0.36907 0.03914,-0.18092 0.07698,-1.471 0.08432,-2.8668 l 0.01246,-2.5378 -1.3062,-1.5771 c -2.7846,-3.3611 -4.3456,-6.2541 -5.2345,-9.702 -2.178,-8.4472 0.89912,-17.258 7.9548,-22.777 3.333,-2.6069 7.3325,-4.0763 12.401,-4.5559 2.5662,-0.24279 7.2936,0.73526 10.249,2.1204 5.2231,2.4476 9.5418,7.3868 11.401,13.036 0.86033,2.6145 1.0114,3.6361 1.0063,6.8255 -0.0042,2.556 -0.02696,2.868 -0.30548,4.1744 -0.60324,2.8293 -1.8123,5.7221 -3.3478,8.0101 -0.43463,0.64765 -1.4033,1.9137 -2.1521,2.8129 l -1.3615,1.6338 0.03454,2.7852 c 0.02449,2.0225 0.07157,2.8238 0.17278,2.9248 0.1868,0.18656 1.2806,-0.56166 2.7921,-1.9089 5.3241,-4.7454 8.1571,-9.9912 9.2666,-17.162 0.30096,-1.9452 0.27248,-5.5609 -0.05803,-7.442 -0.50908,-2.897 -1.2169,-5.0997 -2.4452,-7.6106 -4.2144,-8.6151 -12.633,-14.572 -21.585,-15.272 -0.99638,-0.07796 -2.0177,-0.11283 -3.0299,-0.10781 z m 0.20596,14.494 c -1.7918,-9.2e-4 -2.058,0.02495 -2.8986,0.28336 -2.3599,0.72553 -4.6154,2.7218 -5.7211,5.0659 -0.54329,1.1518 -0.74565,1.9875 -0.81691,3.3727 -0.10792,2.0982 0.39925,4.1075 1.432,5.6796 0.60036,0.91391 2.2168,2.5131 3.1888,3.1543 2.2864,1.5082 5.0698,1.9829 7.6977,1.3131 3.3444,-0.85235 5.8501,-3.3011 6.8863,-6.7301 0.26298,-0.87021 0.29995,-1.186 0.29995,-2.571 0,-1.385 -0.03694,-1.6994 -0.29995,-2.5696 -1.035,-3.4249 -3.4731,-5.8136 -6.8932,-6.7509 -0.76768,-0.21038 -1.1958,-0.24654 -2.8751,-0.24742 z M 67.95951,6.002 c -4.4891,0.02307 -7.7774,1.5201 -9.1214,4.1827 -0.67158,1.3304 -0.88294,3.6276 -0.67038,7.2982 0.35532,6.136 1.8233,17.23 2.7783,20.998 0.69585,2.7451 1.6914,4.3774 3.2925,5.3949 0.62862,0.3995 2.0378,0.85929 3.0713,1.0035 1.2454,0.17378 3.2351,0.0459 4.2462,-0.27369 2.2465,-0.70981 3.5129,-2.2386 4.3002,-5.1917 0.69525,-2.608 1.9421,-11.909 2.5696,-19.169 0.2463,-2.8495 0.25049,-6.9092 0.0083,-8.0999 -0.34583,-1.7001 -0.9224,-2.6118 -2.3305,-3.6837 -2.2703,-1.7283 -4.033,-2.3234 -7.2305,-2.4438 -0.30972,-0.01166 -0.61439,-0.01674 -0.91366,-0.0152 z"
     transform="matrix(0.49622,0,0,0.49622,-1.7992467,31.935165)" />
  <path
     inkscape:connector-curvature="0"
     id="path24"
     style="fill:#ffffff;stroke-width:0.99998248;paint-order:fill markers stroke"
     d="m 32.005445,9.7576325 c -0.85136,-3.51e-4 -1.70233,0.0228 -2.11052,0.06928 -5.00289,0.5693135 -9.09919,2.6369635 -12.634257,6.3774205 -2.379375,2.517522 -4.006679,5.55419 -4.878091,9.103156 -0.285078,1.161006 -0.359571,1.669036 -0.427315,2.921247 -0.06965,1.287641 0.0021,3.51557 0.149526,4.639409 0.213459,1.628494 0.850918,3.712817 1.700348,5.559649 1.571132,3.416425 4.107809,6.29058 7.389709,8.374704 1.03616,0.657939 3.14286,1.737564 4.02345,2.061795 0.26621,0.09802 0.31358,0.09739 0.39782,-0.004 0.15612,-0.188112 -0.0488,-1.921414 -0.28053,-2.373222 -0.14882,-0.290115 -0.29891,-0.405963 -0.94381,-0.727756 -3.52843,-1.760589 -6.33376,-4.612514 -8.121637,-8.255612 -0.771671,-1.572323 -1.300394,-3.142065 -1.478785,-4.391795 -0.201138,-1.408968 -0.236225,-3.743236 -0.08299,-5.539304 0.136987,-1.605669 0.601022,-3.191985 1.453429,-4.968155 1.293844,-2.695765 3.145433,-4.956196 5.507543,-6.72527 2.29983,-1.72223 5.03018,-2.870632 7.72168,-3.247015 0.70111,-0.09805 3.71311,-0.134952 4.63459,-0.05693 2.10502,0.178228 3.89096,0.7089 5.9874,1.779197 3.77578,1.927914 6.80516,5.275315 8.39207,9.27336 0.84843,2.137715 1.07124,3.492942 1.07139,6.518842 1.1e-4,2.417881 -0.12974,3.380598 -0.6763,5.016784 -0.81896,2.451376 -2.10968,4.660647 -3.83553,6.563998 -1.3795,1.521411 -3.43558,3.090061 -5.18104,3.953534 -0.79742,0.39442 -0.94738,0.526688 -1.10498,0.973286 -0.2045,0.579585 -0.34104,2.056186 -0.20303,2.194185 0.11454,0.114538 0.53845,-0.04257 1.77032,-0.654365 1.23251,-0.612137 2.90313,-1.584728 3.67297,-2.138609 3.5443,-2.550025 6.35608,-6.612628 7.5222,-10.86821 0.48144,-1.756619 0.57869,-2.49693 0.62141,-4.733393 0.0358,-1.874571 -0.0344,-3.248703 -0.21194,-4.140063 -0.67997,-3.414887 -1.99138,-6.318866 -3.96654,-8.784087 -1.02023,-1.273499 -2.31214,-2.579004 -3.44044,-3.47612 -3.04228,-2.418824 -6.35013,-3.772264 -10.32386,-4.2251155 -0.41071,-0.0468 -1.26258,-0.07097 -2.11394,-0.07134 z m -0.0583,6.6865645 c -1.50672,0.0075 -2.97325,0.194142 -3.94733,0.520585 -2.07966,0.696941 -4.13788,1.996541 -5.69065,3.594121 -1.46033,1.502207 -2.49807,3.208708 -3.15993,5.195424 -0.47176,1.416311 -0.61854,2.606197 -0.56653,4.587951 0.018,0.685925 0.0722,1.488163 0.12277,1.812145 0.39674,2.539803 2.05773,5.628128 4.031,7.496396 0.27003,0.255603 0.58087,0.525695 0.69138,0.600178 0.11048,0.07446 0.41319,0.286875 0.67287,0.471895 0.25968,0.185021 0.4989,0.327749 0.53155,0.316886 0.0327,-0.01087 0.0759,-0.09336 0.0954,-0.183139 0.0194,-0.08978 0.0382,-0.72994 0.0418,-1.422564 l 0.006,-1.259307 -0.64816,-0.782589 c -1.38177,-1.667845 -2.15637,-3.103409 -2.59746,-4.814326 -1.08077,-4.19167 0.44616,-8.563765 3.94733,-11.302403 1.6539,-1.293596 3.63853,-2.022742 6.15362,-2.260729 1.2734,-0.120477 3.61923,0.364851 5.08576,1.052185 2.59181,1.214548 4.73483,3.665478 5.6574,6.468724 0.42692,1.297367 0.50188,1.804306 0.49935,3.38695 -0.002,1.268338 -0.0134,1.423159 -0.15159,2.07142 -0.29933,1.403956 -0.89929,2.839421 -1.66124,3.974772 -0.21567,0.321377 -0.69635,0.949617 -1.06792,1.395818 l -0.6756,0.810724 0.0171,1.382072 c 0.0122,1.003605 0.0355,1.401226 0.0857,1.451344 0.0927,0.09257 0.63546,-0.278707 1.38549,-0.947234 2.64193,-2.354763 4.04772,-4.957834 4.59828,-8.516128 0.14934,-0.965247 0.13521,-2.75943 -0.0288,-3.692869 -0.25262,-1.43755 -0.60385,-2.530573 -1.21336,-3.776532 -2.09127,-4.274985 -6.26874,-7.230918 -10.71091,-7.578272 -0.49442,-0.03869 -1.00122,-0.05599 -1.50349,-0.0535 z m 0.1022,7.192213 c -0.88912,-4.56e-4 -1.02122,0.01238 -1.43834,0.140609 -1.17103,0.360023 -2.29025,1.350612 -2.83892,2.513801 -0.2696,0.571546 -0.37001,0.986237 -0.40537,1.673601 -0.0536,1.041169 0.19812,2.038224 0.71059,2.818331 0.29791,0.453501 1.10002,1.247051 1.58234,1.565227 1.13456,0.748399 2.51574,0.983955 3.81976,0.651586 1.65955,-0.422953 2.90293,-1.638071 3.41712,-3.33961 0.13049,-0.431815 0.14884,-0.588517 0.14884,-1.275781 0,-0.687265 -0.0183,-0.843277 -0.14884,-1.275087 -0.51359,-1.699504 -1.72343,-2.884825 -3.42055,-3.349932 -0.38094,-0.104395 -0.59338,-0.122338 -1.42668,-0.122775 z m -0.12552,11.276103 c -2.22758,0.01145 -3.8593,0.754304 -4.52622,2.07554 -0.33325,0.660171 -0.43813,1.800088 -0.33266,3.621513 0.17632,3.044806 0.90476,8.54987 1.37865,10.419627 0.3453,1.362174 0.83931,2.172154 1.63381,2.677057 0.31193,0.19824 1.01119,0.426397 1.52404,0.497957 0.61799,0.08623 1.60532,0.02278 2.10705,-0.13581 1.11475,-0.352222 1.74317,-1.110838 2.13384,-2.576226 0.345,-1.294141 0.96371,-5.909484 1.27509,-9.512041 0.12222,-1.413979 0.1243,-3.428483 0.004,-4.019332 -0.17161,-0.843624 -0.45772,-1.296028 -1.15644,-1.827926 -1.12657,-0.857617 -2.00126,-1.152917 -3.58792,-1.212662 -0.15369,-0.0058 -0.30488,-0.0083 -0.45338,-0.0075 z" />
</svg>
