<?xml version="1.0" encoding="UTF-8"?>
<svg id="SimpleNote" width="64" height="64" enable-background="new 0 0 1024 1024" image-rendering="optimizeSpeed" version="1.1" viewBox="0 0 64 64" xmlns="http://www.w3.org/2000/svg" xmlns:cc="http://creativecommons.org/ns#" xmlns:dc="http://purl.org/dc/elements/1.1/" xmlns:rdf="http://www.w3.org/1999/02/22-rdf-syntax-ns#" xmlns:xlink="http://www.w3.org/1999/xlink">
 <metadata>
  <rdf:RDF>
   <cc:Work rdf:about="">
    <dc:format>image/svg+xml</dc:format>
    <dc:type rdf:resource="http://purl.org/dc/dcmitype/StillImage"/>
    <dc:title/>
   </cc:Work>
  </rdf:RDF>
 </metadata>
 <defs>
  <linearGradient id="linearGradient1448" x1="3.9687" x2="3.9687" y1="16.404" y2="2.6458" gradientTransform="matrix(3.4646 0 0 3.4646 2.6663 2.6663)" gradientUnits="userSpaceOnUse">
   <stop stop-color="#e12d2d" offset="0"/>
   <stop stop-color="#f55050" offset="1"/>
  </linearGradient>
  <filter id="filter861" x="-.027" y="-.027" width="1.054" height="1.054" color-interpolation-filters="sRGB">
   <feGaussianBlur stdDeviation="0.16371"/>
  </filter>
  <linearGradient id="linearGradient957" x1="13.085" x2="28.809" y1="1024.7" y2="1024.7" gradientTransform="matrix(2.2259 0 0 2.2259 -14.625 -2248.9)" gradientUnits="userSpaceOnUse">
   <stop stop-color="#f6fbff" offset="0"/>
   <stop stop-color="#eaeff2" offset="1"/>
  </linearGradient>
 </defs>
 <rect transform="matrix(3.7796 0 0 3.7796 -1.011e-6 -1.011e-6)" x="1.1905" y="1.1905" width="14.552" height="14.552" ry="3.4395" filter="url(#filter861)" opacity=".3" stroke-opacity=".95294" stroke-width=".083153"/>
 <rect x="4.4996" y="4.4996" width="55.001" height="55.001" ry="13" fill="url(#linearGradient1448)" stroke-opacity=".95294" stroke-width=".31428"/>
 <path d="m48.934 35.98c-0.69962-0.68935-2.2512-1.0542-4.6123-1.0853-1.5983-0.02672-3.5219 0.12243-5.5453 0.40644-0.90601-0.52286-1.8397-1.0916-2.5728-1.7767-1.9718-1.8412-3.6177-4.3972-4.6433-7.2073 0.06682-0.26265 0.12371-0.49325 0.17667-0.72852 0 0 1.1107-6.309 0.81666-8.4416-0.04044-0.29248-0.06538-0.37751-0.14401-0.60499l-0.09647-0.24685c-0.30208-0.69669-0.89442-1.4348-1.8231-1.3947l-0.5446-0.02672-0.01514-4.45e-4c-1.0356 0-1.8796 0.52976-2.1011 1.3215-0.67344 2.4825 0.02136 6.1972 1.2807 11.008l-0.32235 0.78395c-0.90169 2.1978-2.0316 4.4117-3.0286 6.3646l-0.12963 0.25442c-1.0489 2.0525-2.0005 3.7951-2.8633 5.2711l-0.89077 0.47122c-0.06487 0.03117-1.5915 0.84138-1.9496 1.058-3.0377 1.8139-5.0506 3.8728-5.3846 5.5068-0.10631 0.5213-0.02715 1.1884 0.5133 1.4976l0.86154 0.43338c0.37373 0.18697 0.76784 0.28224 1.1716 0.28224 2.1635 0 4.6753-2.6951 8.1355-8.7338 3.995-1.3006 8.5434-2.3814 12.53-2.978 3.0379 1.7108 6.7742 2.8985 9.1324 2.8985 0.41872 0 0.77965-0.04006 1.073-0.11796 0.45228-0.1202 0.83348-0.37773 1.0659-0.72763 0.45748-0.68846 0.5503-1.6371 0.42608-2.6083-0.03704-0.2878-0.26723-0.64416-0.51625-0.88745zm-32.315 11.512c0.3945-1.0787 1.9563-3.2113 4.2654-5.1035 0.14519-0.11796 0.50277-0.45296 0.83024-0.76392-2.4147 3.8512-4.0318 5.3861-5.0956 5.8674zm13.677-31.495c0.69549 0 1.0911 1.7531 1.1239 3.3967 0.03278 1.6436-0.35158 2.797-0.82837 3.6502-0.39489-1.2634-0.58574-3.2549-0.58574-4.5575 0 0-0.02902-2.4894 0.29017-2.4894zm-4.0798 22.444c0.48446-0.8672 0.98851-1.7818 1.5036-2.7516 1.2555-2.3745 2.0485-4.2323 2.639-5.7594 1.1745 2.137 2.6373 3.9536 4.3568 5.4091 0.21448 0.18029 0.44173 0.36415 0.68042 0.546-3.4967 0.69202-6.519 1.5334-9.1799 2.556zm22.047-0.19588c-0.21299 0.13132-0.82305 0.21146-1.2155 0.21146-1.2665 0-2.8335-0.57895-5.0302-1.5205 0.84402-0.06233 1.618-0.09349 2.312-0.09349 1.2703 0 1.6466 0 2.8888 0.31095 1.2422 0.31674 1.2578 0.96046 1.0449 1.0936z" fill="url(#linearGradient957)" stroke-width="2.2259"/>
</svg>
