<?xml version="1.0" encoding="UTF-8"?>
<svg width="64" height="64" version="1.1" viewBox="0 0 16.933 16.933" xmlns="http://www.w3.org/2000/svg" xmlns:cc="http://creativecommons.org/ns#" xmlns:dc="http://purl.org/dc/elements/1.1/" xmlns:rdf="http://www.w3.org/1999/02/22-rdf-syntax-ns#" xmlns:xlink="http://www.w3.org/1999/xlink">
 <metadata>
  <rdf:RDF>
   <cc:Work rdf:about="">
    <dc:format>image/svg+xml</dc:format>
    <dc:type rdf:resource="http://purl.org/dc/dcmitype/StillImage"/>
    <dc:title/>
   </cc:Work>
  </rdf:RDF>
 </metadata>
 <defs>
  <style type="text/css"/>
  <linearGradient id="i" x1="400.4" x2="400.4" y1="545.62" y2="517.62" gradientTransform="matrix(.41967 0 0 .41967 -173.34 -178.23)" gradientUnits="userSpaceOnUse">
   <stop stop-color="#d3d3d3" offset="0"/>
   <stop stop-color="#fcf9f9" offset="1"/>
  </linearGradient>
  <linearGradient id="f" x1="400.4" x2="400.4" y1="545.62" y2="517.62" gradientTransform="matrix(.43343 0 0 .43343 -193.09 -179.69)" gradientUnits="userSpaceOnUse">
   <stop stop-color="#8d3aff" offset="0"/>
   <stop stop-color="#ff3680" offset="1"/>
  </linearGradient>
  <linearGradient id="linearGradient1978" x1="-59.235" x2="-59.235" y1=".7041" y2="-11.929" gradientTransform="matrix(1.0909 0 0 1.0909 72.897 15.613)" gradientUnits="userSpaceOnUse">
   <stop stop-color="#005ad7" offset="0"/>
   <stop stop-color="#0aaff0" offset="1"/>
  </linearGradient>
  <linearGradient id="linearGradient4832" x1="18.7" x2="24.507" y1="35.259" y2="9.4573" gradientTransform="matrix(1.1111 0 0 1.1111 -2.6667 -2.778)" gradientUnits="userSpaceOnUse">
   <stop stop-color="#c4e7f9" offset="0"/>
   <stop stop-color="#edfafd" offset="1"/>
  </linearGradient>
 </defs>
 <g fill="#5e4aa6">
  <g transform="scale(.26458)" image-rendering="optimizeSpeed">
   <circle cx="-1160" cy="-1257.6" r="0"/>
   <circle cx="-1160" cy="-1257.6" r="0"/>
   <circle cx="-1244.2" cy="-1289.6" r="0"/>
  </g>
  <circle cx="-297.6" cy="-338.47" r="0" image-rendering="optimizeSpeed" stroke-width=".26458"/>
  <g transform="translate(32.763 -10.103)" image-rendering="optimizeSpeed" stroke-width=".26458">
   <circle cx="-299.02" cy="-338.77" r="0"/>
   <circle cx="-8.1062" cy="-3.9487" r="0" fill-rule="evenodd"/>
   <circle cx="-278.25" cy="-357.69" r="0"/>
   <circle cx="12.663" cy="-22.859" r="0" fill-rule="evenodd"/>
  </g>
  <g stroke-width=".26458">
   <circle cx="-352.18" cy="-327.48" r="0"/>
   <circle cx="-333.94" cy="-325.35" r="0"/>
   <circle cx="-327.85" cy="-332.17" r="0"/>
   <circle cx="-330.67" cy="-325.11" r="0"/>
  </g>
 </g>
 <circle cx="-5.2345" cy="44.956" r="0" fill="url(#i)" image-rendering="optimizeSpeed" stroke-width=".26458"/>
 <circle cx="-19.466" cy="50.818" r="0" fill="none" image-rendering="optimizeSpeed" stroke="url(#f)" stroke-width=".56347"/>
 <path d="m16.404 8.4664c0 0.95152-0.16748 1.8638-0.47463 2.7094-0.2135 0.58767-0.49437 1.1433-0.83391 1.6572-0.14222 0.21607-0.29513 0.42474-0.45745 0.62527-0.51964 0.64178-1.1372 1.2006-1.8304 1.6542-0.25529 0.16717-0.52063 0.32009-0.79534 0.45711-1.0668 0.53388-2.271 0.83419-3.5455 0.83419s-2.4787-0.30031-3.5455-0.83421c-0.27473-0.13705-0.54039-0.28996-0.79568-0.45711-0.70205-0.45972-1.327-1.0274-1.8508-1.6798-0.16262-0.20216-0.31523-0.41274-0.45745-0.63076-0.33046-0.50538-0.60419-1.0507-0.81347-1.627-0.3071-0.84526-0.47429-1.7572-0.47429-2.7084 0-4.3837 3.5536-7.9373 7.9373-7.9373 2.2005 0 4.1916 0.89545 5.6294 2.3416 0.41435 0.4166 0.78272 0.87927 1.0962 1.3794 0.29644 0.47106 0.54426 0.97579 0.73702 1.5068 0.30718 0.84557 0.47465 1.7579 0.47465 2.7094z" fill="url(#linearGradient1978)" stroke-width=".031006"/>
 <g transform="matrix(.3816 0 0 .3816 -.69197 -1.0744)" stroke-width="1.3174">
  <text x="877.22626" y="10.812601" opacity=".8"><tspan x="877.22626" y="10.812601"/></text>
  <text x="901.18719" y="-29.929106" opacity=".8"><tspan x="901.18719" y="-29.929106"/></text>
  <text x="-569.37115" y="-60.007248" opacity=".8"><tspan x="-569.37115" y="-60.007248"/></text>
  <text x="-2393.0571" y="685.5462" opacity=".8"><tspan x="-2393.0571" y="685.5462"/></text>
  <text x="-454.88007" y="-445.32822" opacity=".8"><tspan x="-454.88007" y="-445.32822"/></text>
  <text x="352.72208" y="-858.79834" opacity=".8"><tspan x="352.72208" y="-858.79834"/></text>
  <text x="376.68301" y="-899.54004" opacity=".8"><tspan x="376.68301" y="-899.54004"/></text>
  <text x="-1114.7802" y="-906.74994" opacity=".8"><tspan x="-1114.7802" y="-906.74994"/></text>
  <text x="345.7626" y="-1179.9841" opacity=".8"><tspan x="345.7626" y="-1179.9841"/></text>
  <text x="1831.8861" y="-553.29272" opacity=".8"><tspan x="1831.8861" y="-553.29272"/></text>
  <text x="1855.8469" y="-594.03448" opacity=".8"><tspan x="1855.8469" y="-594.03448"/></text>
  <text x="364.38376" y="-601.24438" opacity=".8"><tspan x="364.38376" y="-601.24438"/></text>
  <text x="1824.9266" y="-874.47839" opacity=".8"><tspan x="1824.9266" y="-874.47839"/></text>
  <text x="-573.43256" y="-649.33569" opacity=".8"><tspan x="-573.43256" y="-649.33569"/></text>
  <text x="-2397.1182" y="96.217857" opacity=".8"><tspan x="-2397.1182" y="96.217857"/></text>
  <text x="-682.36279" y="189.09" opacity=".8"><tspan x="-682.36279" y="189.09"/></text>
  <text x="426.66153" y="9.9078522" opacity=".8"><tspan x="426.66153" y="9.9078522"/></text>
  <text x="450.62247" y="-30.833855" opacity=".8"><tspan x="450.62247" y="-30.833855"/></text>
  <text x="-1040.8407" y="-38.043827" opacity=".8"><tspan x="-1040.8407" y="-38.043827"/></text>
  <text x="419.70206" y="-311.27789" opacity=".8"><tspan x="419.70206" y="-311.27789"/></text>
  <text x="-608.03253" y="-40.758072" opacity=".8"><tspan x="-608.03253" y="-40.758072"/></text>
  <text x="-2431.7185" y="704.79541" opacity=".8"><tspan x="-2431.7185" y="704.79541"/></text>
  <text x="-456.93948" y="-902.28857" opacity=".8"><tspan x="-456.93948" y="-902.28857"/></text>
  <text x="350.66266" y="-1315.7588" opacity=".8"><tspan x="350.66266" y="-1315.7588"/></text>
  <text x="374.62357" y="-1356.5005" opacity=".8"><tspan x="374.62357" y="-1356.5005"/></text>
  <text x="-1116.8396" y="-1363.7104" opacity=".8"><tspan x="-1116.8396" y="-1363.7104"/></text>
  <text x="343.70316" y="-1636.9446" opacity=".8"><tspan x="343.70316" y="-1636.9446"/></text>
  <text x="1829.8265" y="-1010.2533" opacity=".8"><tspan x="1829.8265" y="-1010.2533"/></text>
  <text x="1853.7874" y="-1050.9949" opacity=".8"><tspan x="1853.7874" y="-1050.9949"/></text>
  <text x="362.32431" y="-1058.2048" opacity=".8"><tspan x="362.32431" y="-1058.2048"/></text>
  <text x="1822.8671" y="-1331.439" opacity=".8"><tspan x="1822.8671" y="-1331.439"/></text>
  <text x="-575.492" y="-1106.2961" opacity=".8"><tspan x="-575.492" y="-1106.2961"/></text>
  <text x="-2399.1777" y="-360.74261" opacity=".8"><tspan x="-2399.1777" y="-360.74261"/></text>
  <text x="-684.42224" y="-267.87045" opacity=".8"><tspan x="-684.42224" y="-267.87045"/></text>
  <text x="155.5923" y="-26.956278" opacity=".8"><tspan x="155.5923" y="-26.956278"/></text>
  <text x="179.55324" y="-67.697998" opacity=".8"><tspan x="179.55324" y="-67.697998"/></text>
  <text x="-1090.2634" y="-261.72662" opacity=".8"><tspan x="-1090.2634" y="-261.72662"/></text>
  <text x="-282.66141" y="-675.19678" opacity=".8"><tspan x="-282.66141" y="-675.19678"/></text>
  <text x="-258.70047" y="-715.93848" opacity=".8"><tspan x="-258.70047" y="-715.93848"/></text>
  <text x="-1750.1636" y="-723.14838" opacity=".8"><tspan x="-1750.1636" y="-723.14838"/></text>
  <text x="-289.62085" y="-996.38251" opacity=".8"><tspan x="-289.62085" y="-996.38251"/></text>
  <text x="1196.5026" y="-369.69113" opacity=".8"><tspan x="1196.5026" y="-369.69113"/></text>
  <text x="1220.4634" y="-410.43286" opacity=".8"><tspan x="1220.4634" y="-410.43286"/></text>
  <text x="-270.99973" y="-417.64282" opacity=".8"><tspan x="-270.99973" y="-417.64282"/></text>
  <text x="1189.5431" y="-690.87689" opacity=".8"><tspan x="1189.5431" y="-690.87689"/></text>
  <text x="-1208.816" y="-465.7341" opacity=".8"><tspan x="-1208.816" y="-465.7341"/></text>
  <text x="-3032.5017" y="279.81946" opacity=".8"><tspan x="-3032.5017" y="279.81946"/></text>
  <text transform="matrix(.90475 0 0 .90475 -716.75 -676.29)" x="-664.2738" y="1159.4154" opacity=".8"><tspan x="-664.2738" y="1159.4154"/></text>
  <text x="877.22626" y="18.050589" opacity=".8"><tspan x="877.22626" y="18.050589"/></text>
  <text x="901.18719" y="-22.691116" opacity=".8"><tspan x="901.18719" y="-22.691116"/></text>
  <text x="-569.37115" y="-52.76926" opacity=".8"><tspan x="-569.37115" y="-52.76926"/></text>
  <text x="-2393.0571" y="692.78418" opacity=".8"><tspan x="-2393.0571" y="692.78418"/></text>
  <text x="-454.88007" y="-438.09021" opacity=".8"><tspan x="-454.88007" y="-438.09021"/></text>
  <text x="352.72208" y="-851.5603" opacity=".8"><tspan x="352.72208" y="-851.5603"/></text>
  <text x="376.68301" y="-892.30206" opacity=".8"><tspan x="376.68301" y="-892.30206"/></text>
  <text x="-1114.7802" y="-899.51196" opacity=".8"><tspan x="-1114.7802" y="-899.51196"/></text>
  <text x="345.7626" y="-1172.7461" opacity=".8"><tspan x="345.7626" y="-1172.7461"/></text>
  <text x="1831.8861" y="-546.05475" opacity=".8"><tspan x="1831.8861" y="-546.05475"/></text>
  <text x="1855.8469" y="-586.79651" opacity=".8"><tspan x="1855.8469" y="-586.79651"/></text>
  <text x="364.38376" y="-594.00641" opacity=".8"><tspan x="364.38376" y="-594.00641"/></text>
  <text x="1824.9266" y="-867.24036" opacity=".8"><tspan x="1824.9266" y="-867.24036"/></text>
  <text x="-573.43256" y="-642.09772" opacity=".8"><tspan x="-573.43256" y="-642.09772"/></text>
  <text x="-2397.1182" y="103.45585" opacity=".8"><tspan x="-2397.1182" y="103.45585"/></text>
  <text x="-682.36279" y="196.32799" opacity=".8"><tspan x="-682.36279" y="196.32799"/></text>
  <text x="426.66153" y="17.14584" opacity=".8"><tspan x="426.66153" y="17.14584"/></text>
  <text x="450.62247" y="-23.595865" opacity=".8"><tspan x="450.62247" y="-23.595865"/></text>
  <text x="-1040.8407" y="-30.805836" opacity=".8"><tspan x="-1040.8407" y="-30.805836"/></text>
  <text x="419.70206" y="-304.03989" opacity=".8"><tspan x="419.70206" y="-304.03989"/></text>
  <text x="-608.03253" y="-33.520081" opacity=".8"><tspan x="-608.03253" y="-33.520081"/></text>
  <text x="-2431.7185" y="712.03345" opacity=".8"><tspan x="-2431.7185" y="712.03345"/></text>
  <text x="-456.93948" y="-895.0506" opacity=".8"><tspan x="-456.93948" y="-895.0506"/></text>
  <text x="350.66266" y="-1308.5208" opacity=".8"><tspan x="350.66266" y="-1308.5208"/></text>
  <text x="374.62357" y="-1349.2626" opacity=".8"><tspan x="374.62357" y="-1349.2626"/></text>
  <text x="-1116.8396" y="-1356.4724" opacity=".8"><tspan x="-1116.8396" y="-1356.4724"/></text>
  <text x="343.70316" y="-1629.7065" opacity=".8"><tspan x="343.70316" y="-1629.7065"/></text>
  <text x="1829.8265" y="-1003.0153" opacity=".8"><tspan x="1829.8265" y="-1003.0153"/></text>
  <text x="1853.7874" y="-1043.757" opacity=".8"><tspan x="1853.7874" y="-1043.757"/></text>
  <text x="362.32431" y="-1050.9668" opacity=".8"><tspan x="362.32431" y="-1050.9668"/></text>
  <text x="1822.8671" y="-1324.2009" opacity=".8"><tspan x="1822.8671" y="-1324.2009"/></text>
  <text x="-575.492" y="-1099.0581" opacity=".8"><tspan x="-575.492" y="-1099.0581"/></text>
  <text x="-2399.1777" y="-353.50461" opacity=".8"><tspan x="-2399.1777" y="-353.50461"/></text>
  <text x="-684.42224" y="-260.63245" opacity=".8"><tspan x="-684.42224" y="-260.63245"/></text>
  <text x="155.5923" y="-19.71829" opacity=".8"><tspan x="155.5923" y="-19.71829"/></text>
  <text x="179.55324" y="-60.460011" opacity=".8"><tspan x="179.55324" y="-60.460011"/></text>
  <text x="-1090.2634" y="-254.4886" opacity=".8"><tspan x="-1090.2634" y="-254.4886"/></text>
  <text x="-282.66141" y="-667.9588" opacity=".8"><tspan x="-282.66141" y="-667.9588"/></text>
  <text x="-258.70047" y="-708.7005" opacity=".8"><tspan x="-258.70047" y="-708.7005"/></text>
  <text x="-1750.1636" y="-715.91046" opacity=".8"><tspan x="-1750.1636" y="-715.91046"/></text>
  <text x="-289.62085" y="-989.14447" opacity=".8"><tspan x="-289.62085" y="-989.14447"/></text>
  <text x="1196.5026" y="-362.45316" opacity=".8"><tspan x="1196.5026" y="-362.45316"/></text>
  <text x="1220.4634" y="-403.19489" opacity=".8"><tspan x="1220.4634" y="-403.19489"/></text>
  <text x="-270.99973" y="-410.40482" opacity=".8"><tspan x="-270.99973" y="-410.40482"/></text>
  <text x="1189.5431" y="-683.63892" opacity=".8"><tspan x="1189.5431" y="-683.63892"/></text>
  <text x="-1208.816" y="-458.49609" opacity=".8"><tspan x="-1208.816" y="-458.49609"/></text>
  <text x="-3032.5017" y="287.05743" opacity=".8"><tspan x="-3032.5017" y="287.05743"/></text>
  <text transform="matrix(.90475 0 0 .90475 -716.75 -669.05)" x="-664.2738" y="1159.4154" opacity=".8"><tspan x="-664.2738" y="1159.4154"/></text>
  <text x="435.90427" y="-361.22546"><tspan x="435.90427" y="-361.22546"/><tspan x="435.90427" y="-345.3924"/></text>
  <text x="901.0882" y="-843.27002" opacity=".8"><tspan x="901.0882" y="-843.27002"/></text>
  <text x="-922.59778" y="-97.716553" opacity=".8"><tspan x="-922.59778" y="-97.716553"/></text>
  <text x="1628.1677" y="-1128.2659" opacity=".8"><tspan x="1628.1677" y="-1128.2659"/></text>
  <text x="1652.1285" y="-1169.0076" opacity=".8"><tspan x="1652.1285" y="-1169.0076"/></text>
  <text x="160.66542" y="-1176.2175" opacity=".8"><tspan x="160.66542" y="-1176.2175"/></text>
  <text x="1621.2083" y="-1449.4517" opacity=".8"><tspan x="1621.2083" y="-1449.4517"/></text>
  <text x="808.48047" y="9.5922623" opacity=".8"><tspan x="808.48047" y="9.5922623"/></text>
  <text x="832.44141" y="-31.149445" opacity=".8"><tspan x="832.44141" y="-31.149445"/></text>
  <text x="-638.11694" y="-61.227589" opacity=".8"><tspan x="-638.11694" y="-61.227589"/></text>
  <text x="-2461.803" y="684.32587" opacity=".8"><tspan x="-2461.803" y="684.32587"/></text>
  <text x="-523.62585" y="-446.54855" opacity=".8"><tspan x="-523.62585" y="-446.54855"/></text>
  <text x="283.97632" y="-860.01868" opacity=".8"><tspan x="283.97632" y="-860.01868"/></text>
  <text x="307.93726" y="-900.76038" opacity=".8"><tspan x="307.93726" y="-900.76038"/></text>
  <text x="-1183.5259" y="-907.97028" opacity=".8"><tspan x="-1183.5259" y="-907.97028"/></text>
  <text x="277.01685" y="-1181.2045" opacity=".8"><tspan x="277.01685" y="-1181.2045"/></text>
  <text x="1763.1404" y="-554.51306" opacity=".8"><tspan x="1763.1404" y="-554.51306"/></text>
  <text x="1787.1012" y="-595.25482" opacity=".8"><tspan x="1787.1012" y="-595.25482"/></text>
  <text x="295.638" y="-602.46472" opacity=".8"><tspan x="295.638" y="-602.46472"/></text>
  <text x="1756.1809" y="-875.69873" opacity=".8"><tspan x="1756.1809" y="-875.69873"/></text>
  <text x="-642.17834" y="-650.55603" opacity=".8"><tspan x="-642.17834" y="-650.55603"/></text>
  <text x="-2465.864" y="94.99752" opacity=".8"><tspan x="-2465.864" y="94.99752"/></text>
  <text x="-751.10858" y="187.86966" opacity=".8"><tspan x="-751.10858" y="187.86966"/></text>
  <text x="357.91577" y="8.6875134" opacity=".8"><tspan x="357.91577" y="8.6875134"/></text>
  <text x="381.87671" y="-32.054195" opacity=".8"><tspan x="381.87671" y="-32.054195"/></text>
  <text x="-1109.5864" y="-39.264168" opacity=".8"><tspan x="-1109.5864" y="-39.264168"/></text>
  <text x="350.9563" y="-312.49823" opacity=".8"><tspan x="350.9563" y="-312.49823"/></text>
  <text x="-676.77832" y="-41.978413" opacity=".8"><tspan x="-676.77832" y="-41.978413"/></text>
  <text x="-2500.4644" y="703.57507" opacity=".8"><tspan x="-2500.4644" y="703.57507"/></text>
  <text x="-525.68524" y="-903.50891" opacity=".8"><tspan x="-525.68524" y="-903.50891"/></text>
  <text x="281.9169" y="-1316.9791" opacity=".8"><tspan x="281.9169" y="-1316.9791"/></text>
  <text x="305.87781" y="-1357.7208" opacity=".8"><tspan x="305.87781" y="-1357.7208"/></text>
  <text x="-1185.5853" y="-1364.9308" opacity=".8"><tspan x="-1185.5853" y="-1364.9308"/></text>
  <text x="274.9574" y="-1638.1649" opacity=".8"><tspan x="274.9574" y="-1638.1649"/></text>
  <text x="1761.0808" y="-1011.4736" opacity=".8"><tspan x="1761.0808" y="-1011.4736"/></text>
  <text x="1785.0416" y="-1052.2152" opacity=".8"><tspan x="1785.0416" y="-1052.2152"/></text>
  <text x="293.57855" y="-1059.4252" opacity=".8"><tspan x="293.57855" y="-1059.4252"/></text>
  <text x="1754.1213" y="-1332.6593" opacity=".8"><tspan x="1754.1213" y="-1332.6593"/></text>
  <text x="-644.23779" y="-1107.5165" opacity=".8"><tspan x="-644.23779" y="-1107.5165"/></text>
  <text x="-2467.9236" y="-361.96295" opacity=".8"><tspan x="-2467.9236" y="-361.96295"/></text>
  <text x="-753.16803" y="-269.09079" opacity=".8"><tspan x="-753.16803" y="-269.09079"/></text>
  <text x="86.846535" y="-28.176617" opacity=".8"><tspan x="86.846535" y="-28.176617"/></text>
  <text x="110.80747" y="-68.918335" opacity=".8"><tspan x="110.80747" y="-68.918335"/></text>
  <text x="-1159.0092" y="-262.94696" opacity=".8"><tspan x="-1159.0092" y="-262.94696"/></text>
  <text x="-351.40717" y="-676.41711" opacity=".8"><tspan x="-351.40717" y="-676.41711"/></text>
  <text x="-327.44623" y="-717.15881" opacity=".8"><tspan x="-327.44623" y="-717.15881"/></text>
  <text x="-1818.9093" y="-724.36871" opacity=".8"><tspan x="-1818.9093" y="-724.36871"/></text>
  <text x="-358.36661" y="-997.60284" opacity=".8"><tspan x="-358.36661" y="-997.60284"/></text>
  <text x="1127.7568" y="-370.91147" opacity=".8"><tspan x="1127.7568" y="-370.91147"/></text>
  <text x="1151.7177" y="-411.6532" opacity=".8"><tspan x="1151.7177" y="-411.6532"/></text>
  <text x="-339.74548" y="-418.86316" opacity=".8"><tspan x="-339.74548" y="-418.86316"/></text>
  <text x="1120.7974" y="-692.09723" opacity=".8"><tspan x="1120.7974" y="-692.09723"/></text>
  <text x="-1277.5618" y="-466.95444" opacity=".8"><tspan x="-1277.5618" y="-466.95444"/></text>
  <text x="-3101.2476" y="278.59912" opacity=".8"><tspan x="-3101.2476" y="278.59912"/></text>
  <text transform="matrix(.90475 0 0 .90475 -785.5 -677.51)" x="-664.2738" y="1159.4154" opacity=".8"><tspan x="-664.2738" y="1159.4154"/></text>
  <text x="808.48047" y="16.83025" opacity=".8"><tspan x="808.48047" y="16.83025"/></text>
  <text x="832.44141" y="-23.911455" opacity=".8"><tspan x="832.44141" y="-23.911455"/></text>
  <text x="-638.11694" y="-53.989601" opacity=".8"><tspan x="-638.11694" y="-53.989601"/></text>
  <text x="-2461.803" y="691.56384" opacity=".8"><tspan x="-2461.803" y="691.56384"/></text>
  <text x="-523.62585" y="-439.31055" opacity=".8"><tspan x="-523.62585" y="-439.31055"/></text>
  <text x="283.97632" y="-852.78064" opacity=".8"><tspan x="283.97632" y="-852.78064"/></text>
  <text x="307.93726" y="-893.5224" opacity=".8"><tspan x="307.93726" y="-893.5224"/></text>
  <text x="-1183.5259" y="-900.7323" opacity=".8"><tspan x="-1183.5259" y="-900.7323"/></text>
  <text x="277.01685" y="-1173.9664" opacity=".8"><tspan x="277.01685" y="-1173.9664"/></text>
  <text x="1763.1404" y="-547.27509" opacity=".8"><tspan x="1763.1404" y="-547.27509"/></text>
  <text x="1787.1012" y="-588.01685" opacity=".8"><tspan x="1787.1012" y="-588.01685"/></text>
  <text x="295.638" y="-595.22675" opacity=".8"><tspan x="295.638" y="-595.22675"/></text>
  <text x="1756.1809" y="-868.46069" opacity=".8"><tspan x="1756.1809" y="-868.46069"/></text>
  <text x="-642.17834" y="-643.31805" opacity=".8"><tspan x="-642.17834" y="-643.31805"/></text>
  <text x="-2465.864" y="102.23551" opacity=".8"><tspan x="-2465.864" y="102.23551"/></text>
  <text x="-751.10858" y="195.10765" opacity=".8"><tspan x="-751.10858" y="195.10765"/></text>
  <text x="357.91577" y="15.925501" opacity=".8"><tspan x="357.91577" y="15.925501"/></text>
  <text x="381.87671" y="-24.816204" opacity=".8"><tspan x="381.87671" y="-24.816204"/></text>
  <text x="-1109.5864" y="-32.026176" opacity=".8"><tspan x="-1109.5864" y="-32.026176"/></text>
  <text x="350.9563" y="-305.26022" opacity=".8"><tspan x="350.9563" y="-305.26022"/></text>
  <text x="-676.77832" y="-34.740421" opacity=".8"><tspan x="-676.77832" y="-34.740421"/></text>
  <text x="-2500.4644" y="710.81311" opacity=".8"><tspan x="-2500.4644" y="710.81311"/></text>
  <text x="-525.68524" y="-896.27094" opacity=".8"><tspan x="-525.68524" y="-896.27094"/></text>
  <text x="281.9169" y="-1309.7411" opacity=".8"><tspan x="281.9169" y="-1309.7411"/></text>
  <text x="305.87781" y="-1350.4829" opacity=".8"><tspan x="305.87781" y="-1350.4829"/></text>
  <text x="-1185.5853" y="-1357.6927" opacity=".8"><tspan x="-1185.5853" y="-1357.6927"/></text>
  <text x="274.9574" y="-1630.9269" opacity=".8"><tspan x="274.9574" y="-1630.9269"/></text>
  <text x="1761.0808" y="-1004.2357" opacity=".8"><tspan x="1761.0808" y="-1004.2357"/></text>
  <text x="1785.0416" y="-1044.9773" opacity=".8"><tspan x="1785.0416" y="-1044.9773"/></text>
  <text x="293.57855" y="-1052.1871" opacity=".8"><tspan x="293.57855" y="-1052.1871"/></text>
  <text x="1754.1213" y="-1325.4213" opacity=".8"><tspan x="1754.1213" y="-1325.4213"/></text>
  <text x="-644.23779" y="-1100.2784" opacity=".8"><tspan x="-644.23779" y="-1100.2784"/></text>
  <text x="-2467.9236" y="-354.72495" opacity=".8"><tspan x="-2467.9236" y="-354.72495"/></text>
  <text x="-753.16803" y="-261.85278" opacity=".8"><tspan x="-753.16803" y="-261.85278"/></text>
  <text x="86.846535" y="-20.938629" opacity=".8"><tspan x="86.846535" y="-20.938629"/></text>
  <text x="110.80747" y="-61.680351" opacity=".8"><tspan x="110.80747" y="-61.680351"/></text>
  <text x="-1159.0092" y="-255.70894" opacity=".8"><tspan x="-1159.0092" y="-255.70894"/></text>
  <text x="-351.40717" y="-669.17914" opacity=".8"><tspan x="-351.40717" y="-669.17914"/></text>
  <text x="-327.44623" y="-709.92084" opacity=".8"><tspan x="-327.44623" y="-709.92084"/></text>
  <text x="-1818.9093" y="-717.1308" opacity=".8"><tspan x="-1818.9093" y="-717.1308"/></text>
  <text x="-358.36661" y="-990.36481" opacity=".8"><tspan x="-358.36661" y="-990.36481"/></text>
  <text x="1127.7568" y="-363.67349" opacity=".8"><tspan x="1127.7568" y="-363.67349"/></text>
  <text x="1151.7177" y="-404.41522" opacity=".8"><tspan x="1151.7177" y="-404.41522"/></text>
  <text x="-339.74548" y="-411.62515" opacity=".8"><tspan x="-339.74548" y="-411.62515"/></text>
  <text x="1120.7974" y="-684.85925" opacity=".8"><tspan x="1120.7974" y="-684.85925"/></text>
  <text x="-1277.5618" y="-459.71643" opacity=".8"><tspan x="-1277.5618" y="-459.71643"/></text>
  <text x="-3101.2476" y="285.8371" opacity=".8"><tspan x="-3101.2476" y="285.8371"/></text>
  <text transform="matrix(.90475 0 0 .90475 -785.5 -670.27)" x="-664.2738" y="1159.4154" opacity=".8"><tspan x="-664.2738" y="1159.4154"/></text>
  <text x="367.15851" y="-362.4458"><tspan x="367.15851" y="-362.4458"/><tspan x="367.15851" y="-346.61273"/></text>
  <text x="832.34241" y="-844.49036" opacity=".8"><tspan x="832.34241" y="-844.49036"/></text>
  <text x="-991.34357" y="-98.93689" opacity=".8"><tspan x="-991.34357" y="-98.93689"/></text>
  <text x="1559.422" y="-1129.4862" opacity=".8"><tspan x="1559.422" y="-1129.4862"/></text>
  <text x="1583.3828" y="-1170.2279" opacity=".8"><tspan x="1583.3828" y="-1170.2279"/></text>
  <text x="91.919655" y="-1177.4379" opacity=".8"><tspan x="91.919655" y="-1177.4379"/></text>
  <text x="1552.4625" y="-1450.672" opacity=".8"><tspan x="1552.4625" y="-1450.672"/></text>
  <text x="747.22797" y="8.5972128" opacity=".8"><tspan x="747.22797" y="8.5972128"/></text>
  <text x="771.1889" y="-32.144497" opacity=".8"><tspan x="771.1889" y="-32.144497"/></text>
  <text x="-699.36945" y="-62.222637" opacity=".8"><tspan x="-699.36945" y="-62.222637"/></text>
  <text x="-2523.0554" y="683.33081" opacity=".8"><tspan x="-2523.0554" y="683.33081"/></text>
  <text x="-584.87836" y="-447.54361" opacity=".8"><tspan x="-584.87836" y="-447.54361"/></text>
  <text x="222.72385" y="-861.01373" opacity=".8"><tspan x="222.72385" y="-861.01373"/></text>
  <text x="246.68478" y="-901.75543" opacity=".8"><tspan x="246.68478" y="-901.75543"/></text>
  <text x="-1244.7783" y="-908.96533" opacity=".8"><tspan x="-1244.7783" y="-908.96533"/></text>
  <text x="215.76437" y="-1182.1995" opacity=".8"><tspan x="215.76437" y="-1182.1995"/></text>
  <text x="1701.8879" y="-555.50812" opacity=".8"><tspan x="1701.8879" y="-555.50812"/></text>
  <text x="1725.8488" y="-596.24988" opacity=".8"><tspan x="1725.8488" y="-596.24988"/></text>
  <text x="234.38553" y="-603.45978" opacity=".8"><tspan x="234.38553" y="-603.45978"/></text>
  <text x="1694.9285" y="-876.69379" opacity=".8"><tspan x="1694.9285" y="-876.69379"/></text>
  <text x="-703.43085" y="-651.55109" opacity=".8"><tspan x="-703.43085" y="-651.55109"/></text>
  <text x="-2527.1165" y="94.002472" opacity=".8"><tspan x="-2527.1165" y="94.002472"/></text>
  <text x="-812.36108" y="186.8746" opacity=".8"><tspan x="-812.36108" y="186.8746"/></text>
  <text x="296.6633" y="7.6924639" opacity=".8"><tspan x="296.6633" y="7.6924639"/></text>
  <text x="320.62424" y="-33.049244" opacity=".8"><tspan x="320.62424" y="-33.049244"/></text>
  <text x="-1170.8389" y="-40.259216" opacity=".8"><tspan x="-1170.8389" y="-40.259216"/></text>
  <text x="289.70383" y="-313.49329" opacity=".8"><tspan x="289.70383" y="-313.49329"/></text>
  <text x="-738.03082" y="-42.973461" opacity=".8"><tspan x="-738.03082" y="-42.973461"/></text>
  <text x="-2561.7168" y="702.58002" opacity=".8"><tspan x="-2561.7168" y="702.58002"/></text>
  <text x="-586.93774" y="-904.50397" opacity=".8"><tspan x="-586.93774" y="-904.50397"/></text>
  <text x="220.66443" y="-1317.9741" opacity=".8"><tspan x="220.66443" y="-1317.9741"/></text>
  <text x="244.62534" y="-1358.7158" opacity=".8"><tspan x="244.62534" y="-1358.7158"/></text>
  <text x="-1246.8378" y="-1365.9258" opacity=".8"><tspan x="-1246.8378" y="-1365.9258"/></text>
  <text x="213.70493" y="-1639.1599" opacity=".8"><tspan x="213.70493" y="-1639.1599"/></text>
  <text x="1699.8284" y="-1012.4688" opacity=".8"><tspan x="1699.8284" y="-1012.4688"/></text>
  <text x="1723.7892" y="-1053.2102" opacity=".8"><tspan x="1723.7892" y="-1053.2102"/></text>
  <text x="232.32608" y="-1060.4202" opacity=".8"><tspan x="232.32608" y="-1060.4202"/></text>
  <text x="1692.8689" y="-1333.6543" opacity=".8"><tspan x="1692.8689" y="-1333.6543"/></text>
  <text x="-705.4903" y="-1108.5115" opacity=".8"><tspan x="-705.4903" y="-1108.5115"/></text>
  <text x="-2529.176" y="-362.95801" opacity=".8"><tspan x="-2529.176" y="-362.95801"/></text>
  <text x="-814.42053" y="-270.08585" opacity=".8"><tspan x="-814.42053" y="-270.08585"/></text>
  <text x="25.594065" y="-29.171667" opacity=".8"><tspan x="25.594065" y="-29.171667"/></text>
  <text x="49.555012" y="-69.913383" opacity=".8"><tspan x="49.555012" y="-69.913383"/></text>
  <text x="-1220.2616" y="-263.94202" opacity=".8"><tspan x="-1220.2616" y="-263.94202"/></text>
  <text x="-412.65964" y="-677.41217" opacity=".8"><tspan x="-412.65964" y="-677.41217"/></text>
  <text x="-388.6987" y="-718.15387" opacity=".8"><tspan x="-388.6987" y="-718.15387"/></text>
  <text x="-1880.1617" y="-725.36377" opacity=".8"><tspan x="-1880.1617" y="-725.36377"/></text>
  <text x="-419.61908" y="-998.5979" opacity=".8"><tspan x="-419.61908" y="-998.5979"/></text>
  <text x="1066.5044" y="-371.90652" opacity=".8"><tspan x="1066.5044" y="-371.90652"/></text>
  <text x="1090.4652" y="-412.64825" opacity=".8"><tspan x="1090.4652" y="-412.64825"/></text>
  <text x="-400.99796" y="-419.85822" opacity=".8"><tspan x="-400.99796" y="-419.85822"/></text>
  <text x="1059.5449" y="-693.09229" opacity=".8"><tspan x="1059.5449" y="-693.09229"/></text>
  <text x="-1338.8142" y="-467.94949" opacity=".8"><tspan x="-1338.8142" y="-467.94949"/></text>
  <text x="-3162.5" y="277.60406" opacity=".8"><tspan x="-3162.5" y="277.60406"/></text>
  <text x="-1447.7445" y="370.47617" opacity=".8"><tspan x="-1447.7445" y="370.47617"/></text>
  <text x="747.22797" y="15.835199" opacity=".8"><tspan x="747.22797" y="15.835199"/></text>
  <text x="771.1889" y="-24.906506" opacity=".8"><tspan x="771.1889" y="-24.906506"/></text>
  <text x="-699.36945" y="-54.98465" opacity=".8"><tspan x="-699.36945" y="-54.98465"/></text>
  <text x="-2523.0554" y="690.56879" opacity=".8"><tspan x="-2523.0554" y="690.56879"/></text>
  <text x="-584.87836" y="-440.3056" opacity=".8"><tspan x="-584.87836" y="-440.3056"/></text>
  <text x="222.72385" y="-853.7757" opacity=".8"><tspan x="222.72385" y="-853.7757"/></text>
  <text x="246.68478" y="-894.51746" opacity=".8"><tspan x="246.68478" y="-894.51746"/></text>
  <text x="-1244.7783" y="-901.72736" opacity=".8"><tspan x="-1244.7783" y="-901.72736"/></text>
  <text x="215.76437" y="-1174.9614" opacity=".8"><tspan x="215.76437" y="-1174.9614"/></text>
  <text x="1701.8879" y="-548.27014" opacity=".8"><tspan x="1701.8879" y="-548.27014"/></text>
  <text x="1725.8488" y="-589.0119" opacity=".8"><tspan x="1725.8488" y="-589.0119"/></text>
  <text x="234.38553" y="-596.2218" opacity=".8"><tspan x="234.38553" y="-596.2218"/></text>
  <text x="1694.9285" y="-869.45575" opacity=".8"><tspan x="1694.9285" y="-869.45575"/></text>
  <text x="-703.43085" y="-644.31311" opacity=".8"><tspan x="-703.43085" y="-644.31311"/></text>
  <text x="-2527.1165" y="101.24046" opacity=".8"><tspan x="-2527.1165" y="101.24046"/></text>
  <text x="-812.36108" y="194.11259" opacity=".8"><tspan x="-812.36108" y="194.11259"/></text>
  <text x="296.6633" y="14.93045" opacity=".8"><tspan x="296.6633" y="14.93045"/></text>
  <text x="320.62424" y="-25.811255" opacity=".8"><tspan x="320.62424" y="-25.811255"/></text>
  <text x="-1170.8389" y="-33.021225" opacity=".8"><tspan x="-1170.8389" y="-33.021225"/></text>
  <text x="289.70383" y="-306.25528" opacity=".8"><tspan x="289.70383" y="-306.25528"/></text>
  <text x="-738.03082" y="-35.73547" opacity=".8"><tspan x="-738.03082" y="-35.73547"/></text>
  <text x="-2561.7168" y="709.81805" opacity=".8"><tspan x="-2561.7168" y="709.81805"/></text>
  <text x="-586.93774" y="-897.26599" opacity=".8"><tspan x="-586.93774" y="-897.26599"/></text>
  <text x="220.66443" y="-1310.7361" opacity=".8"><tspan x="220.66443" y="-1310.7361"/></text>
  <text x="244.62534" y="-1351.4779" opacity=".8"><tspan x="244.62534" y="-1351.4779"/></text>
  <text x="-1246.8378" y="-1358.6877" opacity=".8"><tspan x="-1246.8378" y="-1358.6877"/></text>
  <text x="213.70493" y="-1631.9219" opacity=".8"><tspan x="213.70493" y="-1631.9219"/></text>
  <text x="1699.8284" y="-1005.2307" opacity=".8"><tspan x="1699.8284" y="-1005.2307"/></text>
  <text x="1723.7892" y="-1045.9723" opacity=".8"><tspan x="1723.7892" y="-1045.9723"/></text>
  <text x="232.32608" y="-1053.1821" opacity=".8"><tspan x="232.32608" y="-1053.1821"/></text>
  <text x="1692.8689" y="-1326.4163" opacity=".8"><tspan x="1692.8689" y="-1326.4163"/></text>
  <text x="-705.4903" y="-1101.2734" opacity=".8"><tspan x="-705.4903" y="-1101.2734"/></text>
  <text x="-2529.176" y="-355.72" opacity=".8"><tspan x="-2529.176" y="-355.72"/></text>
  <text x="-814.42053" y="-262.84784" opacity=".8"><tspan x="-814.42053" y="-262.84784"/></text>
  <text x="25.594065" y="-21.93368" opacity=".8"><tspan x="25.594065" y="-21.93368"/></text>
  <text x="49.555012" y="-62.6754" opacity=".8"><tspan x="49.555012" y="-62.6754"/></text>
  <text x="-1220.2616" y="-256.70401" opacity=".8"><tspan x="-1220.2616" y="-256.70401"/></text>
  <text x="-412.65964" y="-670.17419" opacity=".8"><tspan x="-412.65964" y="-670.17419"/></text>
  <text x="-388.6987" y="-710.91589" opacity=".8"><tspan x="-388.6987" y="-710.91589"/></text>
  <text x="-1880.1617" y="-718.12585" opacity=".8"><tspan x="-1880.1617" y="-718.12585"/></text>
  <text x="-419.61908" y="-991.35986" opacity=".8"><tspan x="-419.61908" y="-991.35986"/></text>
  <text x="1066.5044" y="-364.66855" opacity=".8"><tspan x="1066.5044" y="-364.66855"/></text>
  <text x="1090.4652" y="-405.41028" opacity=".8"><tspan x="1090.4652" y="-405.41028"/></text>
  <text x="-400.99796" y="-412.62021" opacity=".8"><tspan x="-400.99796" y="-412.62021"/></text>
  <text x="1059.5449" y="-685.85431" opacity=".8"><tspan x="1059.5449" y="-685.85431"/></text>
  <text x="-1338.8142" y="-460.71149" opacity=".8"><tspan x="-1338.8142" y="-460.71149"/></text>
  <text x="-3162.5" y="284.84204" opacity=".8"><tspan x="-3162.5" y="284.84204"/></text>
  <text x="-1447.7445" y="377.71417" opacity=".8"><tspan x="-1447.7445" y="377.71417"/></text>
  <text x="305.90604" y="-363.44086"><tspan x="305.90604" y="-363.44086"/><tspan x="305.90604" y="-347.60779"/></text>
  <text x="771.0899" y="-845.48541" opacity=".8"><tspan x="771.0899" y="-845.48541"/></text>
  <text x="-1052.5961" y="-99.931938" opacity=".8"><tspan x="-1052.5961" y="-99.931938"/></text>
  <text x="1498.1696" y="-1130.4812" opacity=".8"><tspan x="1498.1696" y="-1130.4812"/></text>
  <text x="1522.1304" y="-1171.2229" opacity=".8"><tspan x="1522.1304" y="-1171.2229"/></text>
  <text x="30.667185" y="-1178.4329" opacity=".8"><tspan x="30.667185" y="-1178.4329"/></text>
  <text x="1491.2101" y="-1451.667" opacity=".8"><tspan x="1491.2101" y="-1451.667"/></text>
  <path d="m24.029 10.561c3.0389 0.0067 6.1203 0.95377 8.5273 2.8284 1.6921 1.9493-1.5321 4.037-2.9842 2.1362-4.3714-2.6451-10.537-1.7138-13.826 2.2408-1.7499 1.9624-2.7358 4.5812-2.7242 7.2101h2.8889l-4.6222 6.9333-4.6222-6.9333h2.8889c-0.09222-6.2767 4.4222-12.248 10.483-13.873 1.3-0.35667 2.64-0.55667 3.99-0.54222zm12.682 7.5111 4.6222 6.9333h-2.8889c0.08189 6.3521-4.5478 12.39-10.715 13.93-4.1613 1.1621-8.8668 0.31411-12.287-2.3446-1.745-1.9819 1.524-4.0494 2.9897-2.1312 4.2354 2.5697 10.167 1.7547 13.51-1.9156 1.9356-1.9944 3.0489-4.7589 3.0344-7.5389h-2.8889l4.6222-6.9333z" fill="url(#linearGradient4832)" stroke-width="1.4638"/>
 </g>
</svg>
