<?xml version="1.0" encoding="UTF-8"?>
<svg width="64" height="64" version="1.1" viewBox="0 0 64 64" xmlns="http://www.w3.org/2000/svg" xmlns:cc="http://creativecommons.org/ns#" xmlns:dc="http://purl.org/dc/elements/1.1/" xmlns:rdf="http://www.w3.org/1999/02/22-rdf-syntax-ns#" xmlns:xlink="http://www.w3.org/1999/xlink">
 <metadata>
  <rdf:RDF>
   <cc:Work rdf:about="">
    <dc:format>image/svg+xml</dc:format>
    <dc:type rdf:resource="http://purl.org/dc/dcmitype/StillImage"/>
    <dc:title/>
   </cc:Work>
  </rdf:RDF>
 </metadata>
 <linearGradient id="a">
  <stop stop-color="#8d3aff" offset="0"/>
  <stop stop-color="#ff3680" offset="1"/>
 </linearGradient>
 <linearGradient id="b" x1="389.96" x2="410.34" y1="509.78" y2="509.78" gradientTransform="matrix(.91926 -.16589 .15464 .98614 -50.723 75.737)" gradientUnits="userSpaceOnUse" xlink:href="#a"/>
 <linearGradient id="c" x1="412.34" x2="413.21" y1="548.16" y2="505.35" gradientTransform="matrix(1.0181 0 0 1.0212 -8.4818 -10.866)" gradientUnits="userSpaceOnUse" xlink:href="#a"/>
 <linearGradient id="d" x1="408.75" x2="408.57" y1="540.96" y2="506.8" gradientTransform="matrix(1.1967 0 0 1.1968 -81.459 -102.75)" gradientUnits="userSpaceOnUse">
  <stop stop-color="#8798a9" offset="0"/>
  <stop stop-color="#bfc8d1" offset="1"/>
 </linearGradient>
 <linearGradient id="e" x1="409.57" x2="409.57" y1="540.8" y2="506.8" gradientTransform="matrix(.41429 0 0 .41426 238.23 307.12)" gradientUnits="userSpaceOnUse">
  <stop stop-color="#3d434a" offset="0"/>
  <stop stop-color="#5f6974" offset="1"/>
 </linearGradient>
 <g transform="matrix(1.445 0 0 1.445 -556.24 -725.34)">
  <path d="m406.28 504.57c-9.315 0.38153-9.8321 1.2833-10.968 1.9617-2.6299 1.571-3.3333 0.0114-2.1263-1.515-1.1652 0.11994-2.379 2.3006-2.2442 3.5998 0.12749 1.2286-0.30819 2.41-0.98535 1.9904-1.1223-0.69552-3.5099-0.27915-3.6349 1.4626 0.81367-0.42575 2.2889-0.65434 2.0734 0.70139-0.17857 1.1236-0.40134 3.568 1.6527 4.9451 2.0541 1.3771 10.024-0.0162 10.024-0.0162z" fill="url(#b)" fill-rule="evenodd"/>
  <path d="m407.5 503.76c-11.271 0-20.345 9.0738-20.345 20.345s9.074 20.345 20.345 20.345c11.271 0 20.345-9.0738 20.345-20.345s-9.074-20.345-20.345-20.345zm0 17.997c1.3006 0 2.3477 1.047 2.3477 2.3475s-1.0471 2.3475-2.3477 2.3475c-1.3006 0-2.3477-1.047-2.3477-2.3475s1.0471-2.3475 2.3477-2.3475z" fill="url(#d)"/>
  <path d="m407.5 517.06c-3.9018 0-7.043 3.1409-7.043 7.0425s3.1412 7.0425 7.043 7.0425 7.043-3.1409 7.043-7.0425-3.1412-7.0425-7.043-7.0425zm0 4.695c1.3006 0 2.3477 1.047 2.3477 2.3475s-1.0471 2.3475-2.3477 2.3475c-1.3006 0-2.3477-1.047-2.3477-2.3475s1.0471-2.3475 2.3477-2.3475z" fill="url(#e)"/>
  <path d="m407.5 517.85a6.2604 6.26 0 0 0-6.2604 6.26 6.2604 6.26 0 0 0 6.2604 6.26 6.2604 6.26 0 0 0 6.2604-6.26 6.2604 6.26 0 0 0-6.2604-6.26zm0 0.7825a5.4779 5.4775 0 0 1 5.4779 5.4775 5.4779 5.4775 0 0 1-5.4779 5.4775 5.4779 5.4775 0 0 1-5.4779-5.4775 5.4779 5.4775 0 0 1 5.4779-5.4775z" fill="#9da9b5" stroke-linecap="round"/>
  <path d="m416.1 505.53c0.63745 0.58725 1.4635 1.4342 1.9745 2.3495 0.89083 1.5956 0.76357 4.3719-1.9726 4.8825-2.7362 0.51059-2.8407-0.42422-2.8316-1.5318-1.4545 0.20084-2.105 3.4348 0.44542 4.5634 2.1634 0.95736 2.9588 0.57442 7.0312 0.31913 4.0724-0.2553 4.5496 4.723 2.6407 5.4888-1.9089 0.76589-2.6378-0.59932-2.5134-1.3403-1.53 0.59931-1.7168 2.2713-0.95447 3.0635 5.9526 6.1863 3.0977 10.966 1.4635 11.456-2.025 0.60707-3.4526-0.59632-2.418-2.2019 0.84311-1.3084 0.11546-3.4662-0.90874-4.2303-1.0242-0.7642-3.013-0.58148-3.8636-0.0139 1.226 0.4649 3.0225 1.1807 2.5452 2.7763-0.36852 1.2322-1.5759 2.0082-3.0861 1.9785-2.8268-1.2608-4.4314-5.1335-2.6534-6.3926-2.2407 0.0432-2.4996 4.3806-1.6463 6.2722 0.67567 1.4976 2.6513 2.6557 1.6408 4.3966-1.0599 1.826-1.7953 2.8082-4.3405 2.2977-2.5452-0.51059-3.9451-2.1381-3.6269-3.638 0.31815-1.4998 1.0612-1.7 2.3543-1.7232-0.80674-1.7145-3.5228-1.0059-5.4586 1.2446-0.88874 1.0332-1.3478 0.91733-2.8452 0.0639-1.9909-1.1346 1.4899-4.3062 2.677-2.4572 0.0911-2.167-3.2497-1.1169-3.727-3.5103-0.47723-2.3934 2.0666-3.1067 2.0666-3.1067-3.0154 0.79173-4.5086 1.8553-7.5935 0.93361-1.0952-0.32722 0.17402-3.3145-3.3476-2.2866 0.59483 10.772 9.4352 19.267 20.328 19.267 11.28 0 20.362-9.109 20.362-20.424 0-8.2161-4.8-15.25-11.742-18.497z" fill="url(#c)" fill-rule="evenodd"/>
 </g>
</svg>
