<?xml version="1.0" encoding="UTF-8"?>
<svg width="64" height="64" version="1.1" viewBox="0 0 64 64" xmlns="http://www.w3.org/2000/svg" xmlns:cc="http://creativecommons.org/ns#" xmlns:dc="http://purl.org/dc/elements/1.1/" xmlns:rdf="http://www.w3.org/1999/02/22-rdf-syntax-ns#">
 <metadata>
  <rdf:RDF>
   <cc:Work rdf:about="">
    <dc:format>image/svg+xml</dc:format>
    <dc:type rdf:resource="http://purl.org/dc/dcmitype/StillImage"/>
    <dc:title/>
   </cc:Work>
  </rdf:RDF>
 </metadata>
 <linearGradient id="a" x1="400.98" x2="413.21" y1="532.74" y2="505.35" gradientTransform="matrix(.97382 0 0 .97678 9.613 12.395)" gradientUnits="userSpaceOnUse">
  <stop stop-color="#87deaa" offset="0"/>
  <stop stop-color="#d4ff2a" offset="1"/>
 </linearGradient>
 <linearGradient id="b" x1="408.75" x2="408.57" y1="540.96" y2="506.8" gradientTransform="matrix(1.1447 0 0 1.1447 -60.191 -75.498)" gradientUnits="userSpaceOnUse">
  <stop stop-color="#8798a9" offset="0"/>
  <stop stop-color="#bfc8d1" offset="1"/>
 </linearGradient>
 <linearGradient id="c" x1="409.57" x2="409.57" y1="540.8" y2="506.8" gradientTransform="matrix(.39628 0 0 .39625 245.6 316.55)" gradientUnits="userSpaceOnUse">
  <stop stop-color="#3d434a" offset="0"/>
  <stop stop-color="#5f6974" offset="1"/>
 </linearGradient>
 <linearGradient id="d" x1="387.25" x2="406.34" y1="512" y2="512" gradientUnits="userSpaceOnUse">
  <stop stop-color="#87de87" offset="0"/>
  <stop stop-color="#d4ff2a" offset="1"/>
 </linearGradient>
 <g transform="matrix(1.5107 0 0 1.5107 -583.02 -759.76)">
  <path d="m406.34 505.42c-8.91 0.36495-9.4046 1.2275-10.491 1.8764-2.5156 1.5027-3.1883 0.0109-2.0339-1.4491-1.1145 0.11472-2.2755 2.2006-2.1466 3.4433 0.12195 1.1752-0.29479 2.3053-0.9425 1.9039-1.0735-0.66527-3.3573-0.26701-3.4768 1.399 0.77829-0.40724 2.1894-0.62589 1.9833 0.67089-0.17081 1.0748-0.38389 3.4129 1.5809 4.7301 1.9648 1.3172 9.5878-0.0155 9.5878-0.0155z" fill="url(#d)" fill-rule="evenodd"/>
  <path d="m407.51 504.65c-10.781 0-19.46 8.6793-19.46 19.46s8.6794 19.46 19.46 19.46c10.781 0 19.46-8.6793 19.46-19.46s-8.6794-19.46-19.46-19.46zm0 17.215c1.2441 0 2.2456 1.0015 2.2456 2.2454s-1.0015 2.2454-2.2456 2.2454c-1.244 0-2.2456-1.0015-2.2456-2.2454s1.0015-2.2454 2.2456-2.2454z" fill="url(#b)"/>
  <path d="m407.51 517.37c-3.7322 0-6.7368 3.0044-6.7368 6.7363s3.0046 6.7363 6.7368 6.7363 6.7368-3.0044 6.7368-6.7363-3.0046-6.7363-6.7368-6.7363zm0 4.4908c1.2441 0 2.2456 1.0015 2.2456 2.2454s-1.0015 2.2454-2.2456 2.2454c-1.244 0-2.2456-1.0015-2.2456-2.2454s1.0015-2.2454 2.2456-2.2454z" fill="url(#c)"/>
  <path d="m407.51 518.12a5.9882 5.9878 0 0 0-5.9882 5.9878 5.9882 5.9878 0 0 0 5.9882 5.9878 5.9882 5.9878 0 0 0 5.9882-5.9878 5.9882 5.9878 0 0 0-5.9882-5.9878zm0 0.74848a5.2397 5.2393 0 0 1 5.2397 5.2393 5.2397 5.2393 0 0 1-5.2397 5.2393 5.2397 5.2393 0 0 1-5.2397-5.2393 5.2397 5.2393 0 0 1 5.2397-5.2393z" fill="#9da9b5" stroke-linecap="round"/>
  <path d="m415.73 506.34c0.60974 0.56172 1.3999 1.3719 1.8887 2.2474 0.8521 1.5262 0.73037 4.1818-1.8868 4.6702-2.6172 0.48839-2.7172-0.40577-2.7085-1.4652-1.3913 0.19211-2.0135 3.2855 0.42605 4.365 2.0694 0.91573 2.8302 0.54944 6.7255 0.30525 3.8953-0.2442 4.3518 4.5176 2.5259 5.2502-1.8259 0.73259-2.5231-0.57326-2.4041-1.282-1.4635 0.57326-1.6421 2.1726-0.91297 2.9303 5.6938 5.9173 2.963 10.49 1.3999 10.958-1.937 0.58067-3.3025-0.5704-2.3128-2.1062 0.80645-1.2515 0.11044-3.3155-0.86923-4.0464-0.97965-0.73097-2.882-0.5562-3.6956-0.0133 1.1726 0.44468 2.891 1.1294 2.4346 2.6556-0.3525 1.1786-1.5074 1.9208-2.9519 1.8925-2.7038-1.206-4.2387-4.9103-2.538-6.1146-2.1432 0.0413-2.391 4.1902-1.5747 5.9994 0.64629 1.4325 2.536 2.5402 1.5694 4.2054-1.0138 1.7467-1.7172 2.6862-4.1518 2.1978s-3.7736-2.0451-3.4692-3.4798c0.30432-1.4346 1.0151-1.6261 2.252-1.6483-0.77167-1.64-3.3696-0.96213-5.2213 1.1904-0.8501 0.98825-1.2892 0.87745-2.7215 0.0611-1.9043-1.0853 1.4251-4.119 2.5606-2.3504 0.0871-2.0728-3.1084-1.0684-3.5649-3.3577-0.45648-2.2893 1.9768-2.9716 1.9768-2.9716-2.8843 0.75731-4.3126 1.7746-7.2633 0.89302-1.0476-0.31299 0.16646-3.1704-3.2021-2.1872 0.56897 10.303 9.025 18.429 19.444 18.429 10.79 0 19.476-8.7129 19.476-19.536 0-7.8589-4.5913-14.587-11.231-17.693z" fill="url(#a)" fill-rule="evenodd"/>
 </g>
</svg>
