<?xml version="1.0" encoding="UTF-8" standalone="no"?>
<svg
   width="64"
   height="64"
   version="1.1"
   viewBox="0 0 64 64"
   id="svg19"
   sodipodi:docname="airwave-manager.svg"
   inkscape:version="1.2.1 (9c6d41e410, 2022-07-14)"
   xmlns:inkscape="http://www.inkscape.org/namespaces/inkscape"
   xmlns:sodipodi="http://sodipodi.sourceforge.net/DTD/sodipodi-0.dtd"
   xmlns="http://www.w3.org/2000/svg"
   xmlns:svg="http://www.w3.org/2000/svg"
   xmlns:rdf="http://www.w3.org/1999/02/22-rdf-syntax-ns#"
   xmlns:cc="http://creativecommons.org/ns#"
   xmlns:dc="http://purl.org/dc/elements/1.1/">
  <sodipodi:namedview
     id="namedview21"
     pagecolor="#ffffff"
     bordercolor="#999999"
     borderopacity="1"
     inkscape:showpageshadow="0"
     inkscape:pageopacity="0"
     inkscape:pagecheckerboard="0"
     inkscape:deskcolor="#d1d1d1"
     showgrid="false"
     inkscape:zoom="3.421875"
     inkscape:cx="12.56621"
     inkscape:cy="8.6210046"
     inkscape:window-width="1920"
     inkscape:window-height="1005"
     inkscape:window-x="0"
     inkscape:window-y="0"
     inkscape:window-maximized="1"
     inkscape:current-layer="svg19" />
  <metadata
     id="metadata2">
    <rdf:RDF>
      <cc:Work
         rdf:about="">
        <dc:format>image/svg+xml</dc:format>
        <dc:type
           rdf:resource="http://purl.org/dc/dcmitype/StillImage" />
        <dc:title />
      </cc:Work>
    </rdf:RDF>
  </metadata>
  <defs
     id="defs9">
    <linearGradient
       id="linearGradient862"
       x1="7.9373"
       x2="7.9373"
       y1="15.081"
       y2="1.852"
       gradientTransform="matrix(3.7796,0,0,3.7796,121.27777,-1.0005)"
       gradientUnits="userSpaceOnUse">
      <stop
         stop-color="#ff540d"
         offset="0"
         id="stop4" />
      <stop
         stop-color="#ff9f00"
         offset="1"
         id="stop6" />
    </linearGradient>
    <filter
       id="filter1057"
       x="-0.026999999"
       y="-0.026999999"
       width="1.054"
       height="1.054"
       color-interpolation-filters="sRGB">
      <feGaussianBlur
         stdDeviation="0.61875"
         id="feGaussianBlur851" />
    </filter>
    <linearGradient
       id="linearGradient1053"
       x1="-127"
       x2="-80.658997"
       y1="60"
       y2="13.659"
       gradientTransform="matrix(1.0000071,0,0,1.0000071,131.50071,-0.510231)"
       gradientUnits="userSpaceOnUse">
      <stop
         stop-color="#ff7d1e"
         offset="0"
         id="stop854" />
      <stop
         stop-color="#ffa53c"
         offset="1"
         id="stop856" />
    </linearGradient>
  </defs>
  <g
     stroke-width="1.3333"
     id="g11" />
  <rect
     x="4.5"
     y="4.5"
     width="55"
     height="55"
     ry="15"
     fill="#141414"
     filter="url(#filter1057)"
     opacity="0.3"
     stroke-linecap="round"
     stroke-width="2.7444"
     id="rect875"
     transform="matrix(1.0000071,0,0,1.0000071,-2.28e-4,-2.28e-4)" />
  <rect
     x="4.499804"
     y="4.4998045"
     width="55.000389"
     height="55.000389"
     ry="15.000106"
     fill="url(#linearGradient1053)"
     stroke-linecap="round"
     stroke-width="2.74442"
     id="rect877"
     style="fill:url(#linearGradient1053)" />
  <path
     d="m 28.000148,14.5 c -0.73866,0 -1.3106,0.52134 -1.3337,1.1672 l -0.14314,4.0126 a 13.5,13.5 0 0 0 -2.4555,1.4163 l -3.546,-1.8818 c -0.57091,-0.30298 -1.3076,-0.06829 -1.677,0.5714 l -3.9998,6.9278 c -0.36932,0.63969 -0.21642,1.4155 0.34331,1.7387 l 3.3912,2.1227 a 13.5,13.5 0 0 0 -0.0791,1.4256 13.5,13.5 0 0 0 0.0896,1.4175 l -3.4017,2.1297 c -0.55973,0.32316 -0.71263,1.0978 -0.34331,1.7375 l 3.9998,6.929 c 0.36933,0.63969 1.1061,0.87438 1.677,0.5714 l 3.5436,-1.8806 a 13.5,13.5 0 0 0 2.4579,1.4233 l 0.14314,4.0045 c 0,0.64632 0.59501,1.1672 1.3337,1.1672 h 7.9997 c 0.73865,0 1.3106,-0.52134 1.3337,-1.1672 l 0.14314,-4.0126 a 13.5,13.5 0 0 0 2.4555,-1.4163 l 3.546,1.8818 c 0.57091,0.30298 1.3077,0.06829 1.677,-0.5714 l 3.9998,-6.929 c 0.36933,-0.63969 0.21642,-1.4143 -0.34331,-1.7375 l -3.3912,-2.1227 a 13.5,13.5 0 0 0 0.0791,-1.4244 13.5,13.5 0 0 0 -0.0896,-1.4186 l 3.4017,-2.1297 c 0.55973,-0.32316 0.71264,-1.099 0.34331,-1.7387 l -3.9998,-6.9278 c -0.36932,-0.63969 -1.1061,-0.87438 -1.677,-0.5714 l -3.5436,1.8806 a 13.5,13.5 0 0 0 -2.4579,-1.4233 l -0.14314,-4.0045 c 0,-0.64632 -0.59502,-1.1672 -1.3337,-1.1672 z m 3.9998,12.666 a 4.8332,4.8332 0 0 1 4.8331,4.8342 4.8332,4.8332 0 0 1 -4.8331,4.8331 4.8332,4.8332 0 0 1 -4.8331,-4.8331 4.8332,4.8332 0 0 1 4.8331,-4.8342 z"
     fill="#ffffff"
     id="path548" />
</svg>
