<?xml version="1.0" encoding="UTF-8"?>
<svg id="Iterm" width="64" height="64" enable-background="new 0 0 1024 1024" image-rendering="optimizeSpeed" version="1.1" viewBox="0 0 64 64" xmlns="http://www.w3.org/2000/svg" xmlns:cc="http://creativecommons.org/ns#" xmlns:dc="http://purl.org/dc/elements/1.1/" xmlns:rdf="http://www.w3.org/1999/02/22-rdf-syntax-ns#" xmlns:xlink="http://www.w3.org/1999/xlink">
 <metadata>
  <rdf:RDF>
   <cc:Work rdf:about="">
    <dc:format>image/svg+xml</dc:format>
    <dc:type rdf:resource="http://purl.org/dc/dcmitype/StillImage"/>
    <dc:title/>
   </cc:Work>
  </rdf:RDF>
 </metadata>
 <defs>
  <linearGradient id="linearGradient848" x1="-184.75" x2="-170.2" y1="-1.2649" y2="-15.817" gradientTransform="matrix(3.3081 0 0 3.831 689.84 67.975)" gradientUnits="userSpaceOnUse">
   <stop stop-color="#9d6856" offset="0"/>
   <stop stop-color="#c37d64" offset="1"/>
  </linearGradient>
  <filter id="filter892" x="-.32659" y="-.033035" width="1.6532" height="1.0661" color-interpolation-filters="sRGB">
   <feGaussianBlur stdDeviation="0.19085032"/>
  </filter>
 </defs>
 <mask>
  <g id="g">
   <path d="m969.75 392.05c-1.1-4.35-2.35-9-3.65-13.6-1-3.4-2-6.85-3.15-10.5-1.6-5.15-3.4-10.5-5.3-15.85-6.45-18.25-14.15-36.05-23.15-53.65-3.8-7.4-7.95-14.95-12.3-22.4-20.3-34.5-45.8-67.2-76.35-97.75-72.6-72.6-157.15-116.65-253.65-132.05-16.25-2.6-32.8-4.4-50.05-5.35-9.7-0.55-19.85-0.85-30.1-0.85-9.35 0-18.6 0.25-27.9 0.75-118.35 6.1-220.3 51.95-305.85 137.5q-138.25 138.25-138.25 333.75c0 130.35 46.1 241.65 138.25 333.8 56.7 56.65 120.55 95.9 191.1 117.55 36.75 11.25 74.8 17.85 114.75 19.95h0.4c8.5 0.45 16.6 0.7 24.5 0.7h3c10.3 0 20.5-0.3 30.1-0.8 2.5-0.15 4.75-0.3 6.95-0.45 20.2-1.45 39.9-4.05 58.7-7.7 7.95-1.55 15.8-3.3 23.4-5.15 80.8-20.3 152.15-61.6 214.65-124.1 48.6-48.6 84.4-102.5 107.35-161.8 18.45-47.65 28.65-98.8 30.55-153.5 0.2-6.05 0.3-12.25 0.3-18.5v-3c-0.2-40.65-4.95-79.5-14.3-117z" fill="#fff"/>
  </g>
 </mask>
 <g transform="matrix(3.7796 0 0 3.7796 -82.522 3.3901)" fill="#5e4aa6" stroke-width=".26458">
  <circle cx="-330.35" cy="-328.38" r="0"/>
  <circle cx="-312.11" cy="-326.25" r="0"/>
  <circle cx="-306.02" cy="-333.07" r="0"/>
  <circle cx="-308.84" cy="-326.01" r="0"/>
 </g>
 <g transform="translate(-68.607 -3.1884)">
  <rect transform="rotate(-7.3375)" x="68.053" y="19.467" width="48.137" height="55.749" ry="4.6497" fill="#754635" stroke-width="3.5597"/>
  <g stroke-width="3.5346">
   <rect x="124.84" y="10.75" width="5.8328" height="11.729" ry=".91599" fill="#f0f0f0"/>
   <rect x="124.84" y="23.177" width="5.8328" height="11.729" ry=".91599" fill="#00bee6"/>
   <rect x="124.84" y="35.604" width="5.8328" height="11.729" ry=".91599" fill="#3cc346"/>
   <rect x="124.84" y="48.032" width="5.8328" height="11.729" ry=".91599" fill="#ff9600"/>
  </g>
  <rect transform="matrix(3.5346 0 0 3.5346 33.8 5.0437)" x="25.223" y="1.6144" width="1.4025" height="13.866" ry=".276" filter="url(#filter892)" opacity=".5"/>
  <rect x="78.678" y="7.3804" width="48.137" height="55.749" ry="4.6497" fill="url(#linearGradient848)" stroke-width="3.5597"/>
  <circle cx="102.87" cy="35.062" r="14.103" fill="#fff" fill-opacity=".35714" stroke-width=".70513"/>
  <path d="m109.19 46.528c-6.837 3.9478-15.581 1.6048-19.528-5.2322-3.9478-6.8378-1.6052-15.581 5.2322-19.528 8.0566-0.03683 13.172 17.372 14.295 24.761z" fill="#f3e2cf" stroke-width=".60381"/>
  <path d="m117.75 34.581c0 8.2672-6.7025 14.97-14.97 14.97-8.2672 0-14.97-6.7025-14.97-14.97 4.1847-7.3256 22.651-2.8496 29.939 0z" fill="#fff" stroke-width=".60381"/>
 </g>
</svg>
