<?xml version="1.0" encoding="UTF-8"?>
<svg width="64" height="64" version="1.1" xmlns="http://www.w3.org/2000/svg" xmlns:cc="http://creativecommons.org/ns#" xmlns:dc="http://purl.org/dc/elements/1.1/" xmlns:rdf="http://www.w3.org/1999/02/22-rdf-syntax-ns#">
 <metadata>
  <rdf:RDF>
   <cc:Work rdf:about="">
    <dc:format>image/svg+xml</dc:format>
    <dc:type rdf:resource="http://purl.org/dc/dcmitype/StillImage"/>
    <dc:title/>
   </cc:Work>
  </rdf:RDF>
 </metadata>
 <defs>
  <linearGradient id="b" x1="24" x2="24" y1="26" y2="44" gradientTransform="matrix(1.5 0 0 1.5 -4 -2.8546)" gradientUnits="userSpaceOnUse">
   <stop stop-color="#009632" offset="0"/>
   <stop stop-color="#00783c" offset="1"/>
  </linearGradient>
  <filter id="c" x="-.054049" y="-.067423" width="1.1081" height="1.1348" color-interpolation-filters="sRGB">
   <feGaussianBlur stdDeviation="1.0109576"/>
  </filter>
  <linearGradient id="linearGradient1005-6" x1=".73911" x2="16.388" y1="16.296" y2=".64687" gradientTransform="matrix(3.5332 0 0 3.5332 1.9627 2.6533)" gradientUnits="userSpaceOnUse">
   <stop stop-color="#cfdef0" offset="0"/>
   <stop stop-color="#f5faff" offset=".49575"/>
   <stop stop-color="#f5faff" offset="1"/>
  </linearGradient>
 </defs>
 <g transform="matrix(3.7796 0 0 3.7796 -82.522 3.3896)" fill="#5e4aa6" image-rendering="optimizeSpeed" stroke-width=".26458">
  <circle cx="-330.35" cy="-328.38" r="0"/>
  <circle cx="-312.11" cy="-326.25" r="0"/>
  <circle cx="-306.02" cy="-333.07" r="0"/>
  <circle cx="-308.84" cy="-326.01" r="0"/>
 </g>
 <g transform="matrix(1.0697 0 0 1.0697 -2.2319 -2.8145)">
  <path d="m60.044 32.544c0 3.362-0.59177 6.5852-1.677 9.5728-0.75435 2.0764-1.7467 4.0394-2.9464 5.8553-0.5025 0.76345-1.0427 1.5007-1.6163 2.2093-1.836 2.2675-4.0179 4.2421-6.4673 5.8449-0.90201 0.59066-1.8395 1.131-2.8101 1.615-3.7692 1.8863-8.0242 2.9474-12.527 2.9474-4.503 0-8.758-1.0611-12.527-2.9475-0.9707-0.48423-1.9094-1.0245-2.8114-1.615-2.4806-1.6243-4.6885-3.63-6.5394-5.935-0.57457-0.71426-1.1138-1.4583-1.6163-2.2287-1.1676-1.7857-2.1347-3.7123-2.8742-5.7485-1.0851-2.9865-1.6758-6.2087-1.6758-9.5693 0-15.489 12.556-28.044 28.044-28.044 7.7747 0 14.809 3.1638 19.89 8.2735 1.464 1.472 2.7656 3.1067 3.8733 4.8739 1.0474 1.6644 1.923 3.4477 2.604 5.3237 1.0854 2.9876 1.6771 6.211 1.6771 9.5728z" fill="url(#linearGradient1005-6)" image-rendering="optimizeSpeed" stroke-width=".10955"/>
  <g transform="matrix(.91384 0 0 .89988 2.7177 3.7015)">
   <path d="m45.436 24.81c-0.47961 0.03323-0.93367 0.29824-1.1934 0.74805l-5.2422 9.082c-2.0641-0.5337-4.3642-0.84766-6.959-0.84766s-4.893 0.31396-6.957 0.84766l-5.2422-9.082c-0.31162-0.53985-0.90426-0.81103-1.4844-0.73828-0.19338 0.024-0.38649 0.0861-0.56641 0.18945-0.71966 0.4155-0.96237 1.3291-0.54688 2.0488l4.9297 8.5391c-7.3847 3.0509-10.893 9.4478-12.576 15.045a30 30 0 0 0 22.443 10.15 30 30 0 0 0 22.447-10.139c-1.6818-5.5998-5.1896-12.003-12.578-15.057l4.9316-8.5391c0.4155-0.7197 0.16889-1.6333-0.55078-2.0488-0.26987-0.15581-0.5677-0.21915-0.85547-0.19922z" filter="url(#c)" opacity=".1" stroke-opacity=".55" stroke-width="2.8"/>
   <path d="m45.395 27.163c-0.47961 0.03323-0.93367 0.29824-1.1934 0.74805l-5.2422 9.082c-2.0641-0.5337-4.3642-0.84766-6.959-0.84766s-4.893 0.31396-6.957 0.84766l-5.2422-9.082c-0.31162-0.53985-0.90426-0.81103-1.4844-0.73828-0.19338 0.024-0.38649 0.0861-0.56641 0.18945-0.71966 0.4155-0.96237 1.3291-0.54688 2.0488l4.9297 8.5391c-7.3847 3.0509-10.893 9.4478-12.576 15.045a30 30 0 0 0 22.443 10.15 30 30 0 0 0 22.447-10.139c-1.6818-5.5998-5.1896-12.003-12.578-15.057l4.9316-8.5391c0.4155-0.7197 0.16889-1.6333-0.55078-2.0488-0.26987-0.15581-0.5677-0.21915-0.85547-0.19922z" fill="url(#b)" stroke-opacity=".55" stroke-width="2.8"/>
   <circle cx="23" cy="51.145" r="3" fill="#fff"/>
   <circle cx="41" cy="51.145" r="3" fill="#fff"/>
  </g>
  <g transform="translate(-.3709)" fill="#232323" stroke-opacity=".55" stroke-width="2.8">
   <rect x="24.871" y="14" width="5" height="10" ry="1" opacity=".15"/>
   <rect x="34.871" y="14" width="5" height="10" ry="1" opacity=".15"/>
  </g>
 </g>
</svg>
