<?xml version="1.0" encoding="UTF-8"?>
<svg id="SimpleNote" width="64" height="64" enable-background="new 0 0 1024 1024" image-rendering="optimizeSpeed" version="1.1" viewBox="0 0 64 64" xmlns="http://www.w3.org/2000/svg" xmlns:cc="http://creativecommons.org/ns#" xmlns:dc="http://purl.org/dc/elements/1.1/" xmlns:rdf="http://www.w3.org/1999/02/22-rdf-syntax-ns#" xmlns:xlink="http://www.w3.org/1999/xlink">
 <metadata>
  <rdf:RDF>
   <cc:Work rdf:about="">
    <dc:format>image/svg+xml</dc:format>
    <dc:type rdf:resource="http://purl.org/dc/dcmitype/StillImage"/>
    <dc:title/>
   </cc:Work>
  </rdf:RDF>
 </metadata>
 <defs>
  <linearGradient id="c" x1="45.378" x2="978.36" y1="46.179" y2="979.16" gradientTransform="matrix(.063557 0 0 .063557 -.54555 -.54556)" gradientUnits="userSpaceOnUse">
   <stop stop-color="#eaeff2" offset="0"/>
   <stop stop-color="#fcfcfd" offset=".5"/>
   <stop stop-color="#cfdade" offset="1"/>
  </linearGradient>
  <linearGradient id="e" x1="56.407" x2="7.4576" y1="7.4068" y2="57" gradientUnits="userSpaceOnUse">
   <stop stop-color="#90acb5" offset="0"/>
   <stop stop-color="#fcfcfd" offset="1"/>
  </linearGradient>
 </defs>
 <path d="m61.091 24.373c-0.069916-0.27648-0.14936-0.57204-0.23199-0.86441-0.063558-0.2161-0.12712-0.43538-0.20021-0.6674-0.1017-0.32733-0.2161-0.66739-0.33687-1.0074-0.40996-1.1599-0.89934-2.2913-1.4714-3.4099-0.24153-0.47034-0.5053-0.95022-0.78178-1.4237-1.2903-2.1928-2.911-4.2712-4.8528-6.2129-4.6144-4.6144-9.9881-7.4145-16.122-8.3932-1.0328-0.16525-2.0848-0.27966-3.1812-0.34004-0.61653-0.034958-1.2617-0.054025-1.9131-0.054025-0.59428 0-1.1822 0.01589-1.7733 0.04767-7.5225 0.38771-14.002 3.3019-19.439 8.7394q-8.787 8.787-8.787 21.213c0 8.2853 2.9301 15.359 8.787 21.216 3.6038 3.6006 7.6622 6.0953 12.146 7.4717 2.3358 0.71503 4.7543 1.1345 7.2932 1.268h0.02542c0.54025 0.0286 1.0551 0.04449 1.5572 0.04449h0.19068c0.65469 0 1.303-0.01907 1.9131-0.05085 0.1589-0.0095 0.30191-0.01907 0.44174-0.0286 1.2839-0.09216 2.536-0.25742 3.7309-0.48941 0.5053-0.09851 1.0043-0.20974 1.4873-0.32733 5.1356-1.2903 9.6705-3.9153 13.643-7.8877 3.089-3.089 5.3644-6.5145 6.8232-10.284 1.1726-3.0286 1.821-6.2797 1.9417-9.7562 0.01271-0.38453 0.01907-0.77861 0.01907-1.1759v-0.19068c-0.01271-2.5837-0.31462-5.053-0.90887-7.4367z" fill="url(#c)" stroke-width=".99684"/>
 <path d="m32 7a25 25 0 0 0-25 25 25 25 0 0 0 25 25 25 25 0 0 0 25-25 25 25 0 0 0-25-25zm0 2a23 23 0 0 1 23 23 23 23 0 0 1-23 23 23 23 0 0 1-23-23 23 23 0 0 1 23-23z" fill="url(#e)" fill-rule="evenodd" style="paint-order:stroke fill markers"/>
 <path d="m41.869 38.989h-19.746c-0.85572 0-1.203-0.60162-0.77521-1.3426l9.8734-17.101c0.4278-0.74109 1.1225-0.74109 1.5504 0l9.8734 17.101c0.4278 0.74097 0.08053 1.3426-0.77522 1.3426z" fill="#5f7b89" stroke-width="1.3333" style="isolation:isolate"/>
</svg>
