<?xml version="1.0" encoding="UTF-8" standalone="no"?>
<svg
   xmlns:dc="http://purl.org/dc/elements/1.1/"
   xmlns:cc="http://creativecommons.org/ns#"
   xmlns:rdf="http://www.w3.org/1999/02/22-rdf-syntax-ns#"
   xmlns:svg="http://www.w3.org/2000/svg"
   xmlns="http://www.w3.org/2000/svg"
   xmlns:xlink="http://www.w3.org/1999/xlink"
   xmlns:sodipodi="http://sodipodi.sourceforge.net/DTD/sodipodi-0.dtd"
   xmlns:inkscape="http://www.inkscape.org/namespaces/inkscape"
   inkscape:version="1.0 (4035a4fb49, 2020-05-01)"
   sodipodi:docname="applications-utilities.svg"
   id="svg319"
   viewBox="0 0 16.933 16.933"
   version="1.1"
   height="64"
   width="64">
  <sodipodi:namedview
     inkscape:current-layer="svg319"
     inkscape:window-maximized="1"
     inkscape:window-y="0"
     inkscape:window-x="0"
     inkscape:cy="48.023338"
     inkscape:cx="0.60387024"
     inkscape:zoom="4.5078057"
     showgrid="false"
     id="namedview321"
     inkscape:window-height="985"
     inkscape:window-width="1920"
     inkscape:pageshadow="2"
     inkscape:pageopacity="0"
     guidetolerance="10"
     gridtolerance="10"
     objecttolerance="10"
     borderopacity="1"
     bordercolor="#666666"
     pagecolor="#ffffff" />
  <metadata
     id="metadata2">
    <rdf:RDF>
      <cc:Work
         rdf:about="">
        <dc:format>image/svg+xml</dc:format>
        <dc:type
           rdf:resource="http://purl.org/dc/dcmitype/StillImage" />
        <dc:title></dc:title>
      </cc:Work>
    </rdf:RDF>
  </metadata>
  <defs
     id="defs125">
    <style
       id="style4"
       type="text/css" />
    <style
       id="style6"
       type="text/css" />
    <style
       id="style8"
       type="text/css" />
    <style
       id="style10"
       type="text/css" />
    <style
       id="style12"
       type="text/css" />
    <style
       id="style14"
       type="text/css" />
    <style
       id="style16"
       type="text/css" />
    <linearGradient
       id="b-3">
      <stop
         id="stop18"
         offset="0"
         stop-color="#fff" />
      <stop
         id="stop20"
         offset="1"
         stop-opacity="0"
         stop-color="#fff" />
    </linearGradient>
    <filter
       color-interpolation-filters="sRGB"
       height="1.113"
       width="1.1279"
       y="-.0565"
       x="-.063962"
       id="h">
      <feGaussianBlur
         id="feGaussianBlur23"
         stdDeviation="2.1746765" />
    </filter>
    <filter
       color-interpolation-filters="sRGB"
       height="1.2729"
       width="1.0399"
       y="-.13645"
       x="-.019943"
       id="p">
      <feGaussianBlur
         id="feGaussianBlur26"
         stdDeviation=".19828681" />
    </filter>
    <linearGradient
       gradientUnits="userSpaceOnUse"
       gradientTransform="matrix(0.91667,0,0,0.91667,-21.099018,0.70544)"
       y2="2.6458"
       y1="16.404"
       x2="3.9687"
       x1="3.9687"
       id="linearGradient1448-2">
      <stop
         id="stop29"
         offset="0"
         stop-color="#00a0ff" />
      <stop
         id="stop31"
         offset="1"
         stop-color="#37beff" />
    </linearGradient>
    <filter
       color-interpolation-filters="sRGB"
       height="1.054"
       width="1.054"
       y="-.027"
       x="-.027"
       id="filter861-9">
      <feGaussianBlur
         id="feGaussianBlur34"
         stdDeviation="0.16371" />
    </filter>
    <linearGradient
       xlink:href="#b-3"
       gradientUnits="userSpaceOnUse"
       gradientTransform="matrix(2.779,0,0,2.779,-3.0686,0.45374)"
       y2="18.666"
       y1="18.306"
       x2="23.066"
       x1="23.426"
       id="linearGradient1664" />
    <linearGradient
       xlink:href="#b-3"
       gradientUnits="userSpaceOnUse"
       gradientTransform="matrix(2.779,0,0,2.779,-3.0686,0.45374)"
       y2="26.833"
       y1="20.094"
       x2="15.488"
       x1="21.826"
       id="linearGradient1666" />
    <linearGradient
       xlink:href="#b-3"
       gradientUnits="userSpaceOnUse"
       gradientTransform="matrix(2.779,0,0,2.779,-3.0686,0.45374)"
       y2="27.243"
       y1="20.504"
       x2="16.038"
       x1="22.376"
       id="linearGradient1668" />
    <linearGradient
       xlink:href="#b-3"
       gradientUnits="userSpaceOnUse"
       gradientTransform="matrix(2.779,0,0,2.779,-3.0686,0.45374)"
       y2="28.072"
       y1="28.261"
       x2="14.757"
       x1="15.464"
       id="linearGradient1670" />
    <linearGradient
       xlink:href="#b-3"
       gradientUnits="userSpaceOnUse"
       gradientTransform="matrix(0.45512,-0.90179,0.90179,0.45512,-843.61,-347.53)"
       y2="1010.3"
       y1="1001.4"
       x2="30.933"
       x1="40.75"
       id="linearGradient1672" />
    <linearGradient
       gradientUnits="userSpaceOnUse"
       y2="947"
       y1="947"
       x2="387.12"
       x1="372.07"
       id="linearGradient1674">
      <stop
         id="stop42"
         offset="0"
         stop-color="#828398" />
      <stop
         id="stop44"
         offset=".050132"
         stop-color="#4f4e50" />
      <stop
         id="stop46"
         offset=".14024"
         stop-color="#e8e5eb" />
      <stop
         id="stop48"
         offset=".23171"
         stop-opacity=".94118"
         stop-color="#e9d3d9" />
      <stop
         id="stop50"
         offset=".7622"
         stop-color="#c4c2c7" />
      <stop
         id="stop52"
         offset=".86999"
         stop-color="#f4f1fa" />
      <stop
         id="stop54"
         offset=".9341"
         stop-color="#b8b8bf" />
      <stop
         id="stop56"
         offset="1"
         stop-color="#c1bfcc" />
    </linearGradient>
    <linearGradient
       gradientUnits="userSpaceOnUse"
       y2="1018.6"
       y1="1019"
       x2="394.83"
       x1="368.21"
       id="linearGradient1676">
      <stop
         id="stop59"
         offset="0"
         stop-color="#130804" />
      <stop
         id="stop61"
         offset=".16971"
         stop-color="#0f0704" />
      <stop
         id="stop63"
         offset=".23766"
         stop-color="#323033" />
      <stop
         id="stop65"
         offset=".71843"
         stop-color="#323033" />
      <stop
         id="stop67"
         offset=".84822"
         stop-color="#141215" />
      <stop
         id="stop69"
         offset="1"
         stop-color="#00010e" />
    </linearGradient>
    <linearGradient
       gradientUnits="userSpaceOnUse"
       y2="918"
       y1="904.78"
       x2="372.25"
       x1="367.85"
       id="linearGradient1678">
      <stop
         id="stop72"
         offset="0"
         stop-color="#2d2d39" />
      <stop
         id="stop74"
         offset="1"
         stop-color="#acabb0" />
    </linearGradient>
    <linearGradient
       gradientUnits="userSpaceOnUse"
       y2="908.79"
       y1="902.21"
       x2="414.06"
       x1="389.51"
       id="linearGradient1680">
      <stop
         id="stop77"
         offset="0"
         stop-color="#59585d" />
      <stop
         id="stop79"
         offset=".19258"
         stop-color="#010103" />
      <stop
         id="stop81"
         offset=".54332"
         stop-color="#5b5b5d" />
      <stop
         id="stop83"
         offset="1"
         stop-color="#171719" />
    </linearGradient>
    <linearGradient
       gradientUnits="userSpaceOnUse"
       y2="883.11"
       y1="903.4"
       x2="-353.82"
       x1="-353.82"
       id="linearGradient1682">
      <stop
         id="stop86"
         offset="0"
         stop-color="#202024" />
      <stop
         id="stop88"
         offset=".33685"
         stop-color="#919095" />
      <stop
         id="stop90"
         offset=".53882"
         stop-color="#4e4d51" />
      <stop
         id="stop92"
         offset=".69465"
         stop-color="#cfcfd1" />
      <stop
         id="stop94"
         offset="1"
         stop-color="#69696b" />
    </linearGradient>
    <linearGradient
       gradientUnits="userSpaceOnUse"
       y2="883.86"
       y1="903.66"
       x2="338.85"
       x1="338.85"
       id="linearGradient1684">
      <stop
         id="stop97"
         offset="0"
         stop-color="#181820" />
      <stop
         id="stop99"
         offset=".035115"
         stop-color="#86858a" />
      <stop
         id="stop101"
         offset=".14091"
         stop-color="#7a797e" />
      <stop
         id="stop103"
         offset=".19626"
         stop-color="#2f2e33" />
      <stop
         id="stop105"
         offset=".33305"
         stop-color="#414045" />
      <stop
         id="stop107"
         offset=".43142"
         stop-color="#545358" />
      <stop
         id="stop109"
         offset=".56075"
         stop-color="#ebeaf0" />
      <stop
         id="stop111"
         offset=".69159"
         stop-color="#abaaaf" />
      <stop
         id="stop113"
         offset=".85981"
         stop-color="#d7d6dc" />
      <stop
         id="stop115"
         offset="1"
         stop-color="#66656a" />
    </linearGradient>
    <linearGradient
       gradientUnits="userSpaceOnUse"
       y2="-50.845"
       y1="-67.365"
       x2="415.57"
       x1="367.85"
       id="linearGradient1686">
      <stop
         id="stop118"
         offset="0"
         stop-color="#c7c6cb" />
      <stop
         id="stop120"
         offset=".54332"
         stop-color="#fcfcfd" />
      <stop
         id="stop122"
         offset="1"
         stop-color="#d8d8da" />
    </linearGradient>
    <linearGradient
       id="linearGradient862"
       x1="7.9373"
       x2="7.9373"
       y1="15.081"
       y2="1.852"
       gradientUnits="userSpaceOnUse">
      <stop
         stop-color="#1e1f1f"
         offset="0"
         id="stop1146" />
      <stop
         stop-color="#505353"
         offset="1"
         id="stop1148" />
    </linearGradient>
    <linearGradient
       id="linearGradient1018"
       x1="25.163"
       x2="35.091"
       y1="12.334"
       y2="1.7072"
       gradientTransform="translate(-21.564,1.5296)"
       gradientUnits="userSpaceOnUse">
      <stop
         stop-color="#807c76"
         offset=".057692"
         id="stop1151" />
      <stop
         stop-color="#fff"
         offset=".38462"
         id="stop1153" />
      <stop
         stop-color="#bdbfba"
         offset=".55769"
         id="stop1155" />
      <stop
         stop-color="#acb3ac"
         offset=".63462"
         id="stop1157" />
      <stop
         stop-color="#f7f8f7"
         offset=".75"
         id="stop1159" />
      <stop
         stop-color="#c2c7c1"
         offset=".86274"
         id="stop1161" />
      <stop
         stop-color="#7f7a75"
         offset=".94118"
         id="stop1163" />
    </linearGradient>
  </defs>
  <g
     id="g135"
     stroke-width=".26458"
     fill="#5e4aa6"
     transform="translate(-.0272 .0065001)">
    <circle
       id="circle127"
       r="0"
       cy="-328.38"
       cx="-330.35" />
    <circle
       id="circle129"
       r="0"
       cy="-326.25"
       cx="-312.11" />
    <circle
       id="circle131"
       r="0"
       cy="-333.07"
       cx="-306.02" />
    <circle
       id="circle133"
       r="0"
       cy="-326.01"
       cx="-308.84" />
  </g>
  <style
     id="style137"
     type="text/css">.st0{opacity:0.15;fill:#45413C;}
	.st1{fill:#FFE500;}
	.st2{fill:#EBCB00;}
	.st3{fill:none;stroke:#45413C;stroke-linecap:round;stroke-linejoin:round;stroke-miterlimit:10;}
	.st4{fill:#FFAA54;}
	.st5{fill:#FF8A14;}
	.st6{fill:#FFB0CA;stroke:#45413C;stroke-linecap:round;stroke-linejoin:round;stroke-miterlimit:10;}
	.st7{fill:#FF87AF;stroke:#45413C;stroke-linecap:round;stroke-linejoin:round;stroke-miterlimit:10;}
	.st8{fill:#FFCC99;}
	.st9{fill:#FFFFFF;}
	.st10{fill:#F0F0F0;}
	.st11{fill:#BF8256;}
	.st12{fill:#915E3A;}
	.st13{fill:#DEA47A;}
	.st14{fill:#F0D5A8;}
	.st15{fill:#DEBB7E;}
	.st16{fill:#F7E5C6;}
	.st17{fill:#FF8A14;stroke:#45413C;stroke-linecap:round;stroke-linejoin:round;stroke-miterlimit:10;}
	.st18{fill:#FFF5E3;}
	.st19{fill:#FFF48C;}
	.st20{fill:#FFFACF;}
	.st21{fill:#FFFCE5;}
	.st22{fill:#FF87AF;}
	.st23{fill:#FFB0CA;}
	.st24{fill:#FFE500;stroke:#45413C;stroke-linecap:round;stroke-linejoin:round;stroke-miterlimit:10;}
	.st25{fill:#9CEB60;stroke:#45413C;stroke-linecap:round;stroke-linejoin:round;stroke-miterlimit:10;}
	.st26{fill:#FFFACF;stroke:#45413C;stroke-linecap:round;stroke-linejoin:round;stroke-miterlimit:10;}
	.st27{fill:#00F5BC;stroke:#45413C;stroke-linecap:round;stroke-linejoin:round;stroke-miterlimit:10;}
	.st28{fill:#BF8256;stroke:#45413C;stroke-linecap:round;stroke-linejoin:round;stroke-miterlimit:10;}
	.st29{fill:#FFE3CF;stroke:#45413C;stroke-linecap:round;stroke-linejoin:round;stroke-miterlimit:10;}
	.st30{fill:#FF6242;}
	.st31{fill:#FF866E;}
	.st32{fill:none;stroke:#E04122;stroke-linecap:round;stroke-linejoin:round;stroke-miterlimit:10;}
	.st33{fill:#FFFEF2;stroke:#45413C;stroke-linecap:round;stroke-linejoin:round;stroke-miterlimit:10;}
	.st34{fill:#FF6242;stroke:#45413C;stroke-linecap:round;stroke-linejoin:round;stroke-miterlimit:10;}
	.st35{fill:#FFA694;}
	.st36{fill:#FFFFFF;stroke:#45413C;stroke-linecap:round;stroke-linejoin:round;stroke-miterlimit:10;}
	.st37{fill:#FFFEF2;}
	.st38{fill:#FF6196;}
	.st39{fill:#B89558;}
	.st40{fill:none;stroke:#915E3A;stroke-linecap:round;stroke-linejoin:round;stroke-miterlimit:10;}
	.st41{fill:#DEBB7E;stroke:#45413C;stroke-linecap:round;stroke-linejoin:round;stroke-miterlimit:10;}
	.st42{fill:#6DD627;stroke:#45413C;stroke-linecap:round;stroke-linejoin:round;stroke-miterlimit:10;}
	.st43{fill:#E5F8FF;}
	.st44{fill:#E8F4FA;}
	.st45{fill:#E8F4FA;stroke:#45413C;stroke-linecap:round;stroke-linejoin:round;stroke-miterlimit:10;}
	.st46{fill:#FFCCDD;}
	.st47{fill:#E5F8FF;stroke:#45413C;stroke-linecap:round;stroke-linejoin:round;stroke-miterlimit:10;}
	.st48{fill:#00B8F0;stroke:#45413C;stroke-linecap:round;stroke-linejoin:round;stroke-miterlimit:10;}
	.st49{fill:#00B8F0;}
	.st50{fill:#4ACFFF;}
	.st51{fill:#E04122;}
	.st52{fill:#E04122;stroke:#45413C;stroke-linecap:round;stroke-linejoin:round;stroke-miterlimit:10;}
	.st53{fill:#87898C;}
	.st54{fill:#BDBEC0;}
	.st55{fill:#656769;}
	.st56{fill:#525252;}
	.st57{fill:#FFF48C;stroke:#45413C;stroke-linecap:round;stroke-linejoin:round;stroke-miterlimit:10;}
	.st58{fill:#6DD627;}
	.st59{fill:#EB6D00;}
	.st60{fill:#46B000;}
	.st61{fill:#80DDFF;}
	.st62{fill:#DAEDF7;}
	.st63{fill:#BF8DF2;stroke:#45413C;stroke-linecap:round;stroke-linejoin:round;stroke-miterlimit:10;}
	.st64{fill:#9F5AE5;stroke:#45413C;stroke-linecap:round;stroke-linejoin:round;stroke-miterlimit:10;}
	.st65{fill:#C8FFA1;}
	.st66{fill:#E4FFD1;}
	.st67{fill:#9CEB60;}
	.st68{fill:#E5FEFF;}
	.st69{fill:#B8ECFF;}
	.st70{fill:#E0E0E0;stroke:#45413C;stroke-linecap:round;stroke-linejoin:round;stroke-miterlimit:10;}
	.st71{fill:#E0E0E0;}
	.st72{fill:none;stroke:#4F4B45;stroke-linejoin:round;stroke-miterlimit:10;}
	.st73{fill:none;stroke:#4F4B45;stroke-linecap:round;stroke-linejoin:round;stroke-miterlimit:10;}
	.st74{fill:#E0366F;stroke:#45413C;stroke-linecap:round;stroke-linejoin:round;stroke-miterlimit:10;}
	.st75{fill:none;stroke:#45413C;stroke-miterlimit:10;}
	.st76{fill:#FF866E;stroke:#45413C;stroke-linecap:round;stroke-linejoin:round;stroke-miterlimit:10;}
	.st77{fill:#45413C;stroke:#45413C;stroke-linecap:round;stroke-linejoin:round;stroke-miterlimit:10;}
	.st78{fill:#9F5AE5;}
	.st79{fill:#803EC2;}
	.st80{fill:#803EC2;stroke:#45413C;stroke-linecap:round;stroke-linejoin:round;stroke-miterlimit:10;}
	.st81{fill:#BF8DF2;}
	.st82{fill:#FFAA54;stroke:#45413C;stroke-linecap:round;stroke-linejoin:round;stroke-miterlimit:10;}
	.st83{fill:none;stroke:#45413C;stroke-linejoin:round;stroke-miterlimit:10;}
	.st84{fill:#FFCCDD;stroke:#45413C;stroke-linecap:round;stroke-linejoin:round;stroke-miterlimit:10;}
	.st85{fill:#FF6196;stroke:#45413C;stroke-linecap:round;stroke-linejoin:round;stroke-miterlimit:10;}
	.st86{fill:#FFE5EE;}
	.st87{fill:#F7E5C6;stroke:#45413C;stroke-linecap:round;stroke-linejoin:round;stroke-miterlimit:10;}
	.st88{fill:#E5FFF9;}
	.st89{fill:none;stroke:#45413C;stroke-width:1.0064;stroke-linecap:round;stroke-linejoin:round;stroke-miterlimit:10;}
	.st90{fill:#4AEFF7;}
	.st91{fill:#A6FBFF;}
	.st92{fill:#E5FEFF;stroke:#45413C;stroke-linecap:round;stroke-linejoin:round;stroke-miterlimit:10;}
	.st93{fill:#46B000;stroke:#45413C;stroke-linecap:round;stroke-linejoin:round;stroke-miterlimit:10;}
	.st94{fill:#FFFFFF;stroke:#45413C;stroke-linejoin:round;stroke-miterlimit:10;}
	.st95{fill:#FFFFFF;stroke:#45413C;stroke-miterlimit:10;}
	.st96{fill:#009FD9;}
	.st97{fill:#00DFEB;}
	.st98{fill:#C0DCEB;stroke:#45413C;stroke-linecap:round;stroke-linejoin:round;stroke-miterlimit:10;}
	.st99{fill:#00DFEB;stroke:#45413C;stroke-linecap:round;stroke-linejoin:round;stroke-miterlimit:10;}
	.st100{fill:#FFE5EE;stroke:#45413C;stroke-linecap:round;stroke-linejoin:round;stroke-miterlimit:10;}
	.st101{fill:#8CA4B8;}
	.st102{fill:#ADC4D9;}
	.st103{fill:#656769;stroke:#45413C;stroke-linecap:round;stroke-linejoin:round;stroke-miterlimit:10;}
	.st104{fill:#F0F0F0;stroke:#45413C;stroke-linecap:round;stroke-linejoin:round;stroke-miterlimit:10;}
	.st105{fill:#C0DCEB;}
	.st106{fill:#45413C;}
	.st107{fill:#FFCABF;}
	.st108{fill:#87898C;stroke:#45413C;stroke-linecap:round;stroke-linejoin:round;stroke-miterlimit:10;}
	.st109{fill:#EBCB00;stroke:#45413C;stroke-linecap:round;stroke-linejoin:round;stroke-miterlimit:10;}</style>
  <circle
     id="circle139"
     stroke-width=".26458"
     fill="#5e4aa6"
     r="0"
     cy="-328.74"
     cx="-330.49" />
  <style
     id="style141"
     type="text/css">.st0{opacity:0.15;fill:#45413C;}
	.st1{fill:#FFE500;}
	.st2{fill:#EBCB00;}
	.st3{fill:none;stroke:#45413C;stroke-linecap:round;stroke-linejoin:round;stroke-miterlimit:10;}
	.st4{fill:#FFAA54;}
	.st5{fill:#FF8A14;}
	.st6{fill:#FFB0CA;stroke:#45413C;stroke-linecap:round;stroke-linejoin:round;stroke-miterlimit:10;}
	.st7{fill:#FF87AF;stroke:#45413C;stroke-linecap:round;stroke-linejoin:round;stroke-miterlimit:10;}
	.st8{fill:#FFCC99;}
	.st9{fill:#FFFFFF;}
	.st10{fill:#F0F0F0;}
	.st11{fill:#BF8256;}
	.st12{fill:#915E3A;}
	.st13{fill:#DEA47A;}
	.st14{fill:#F0D5A8;}
	.st15{fill:#DEBB7E;}
	.st16{fill:#F7E5C6;}
	.st17{fill:#FF8A14;stroke:#45413C;stroke-linecap:round;stroke-linejoin:round;stroke-miterlimit:10;}
	.st18{fill:#FFF5E3;}
	.st19{fill:#FFF48C;}
	.st20{fill:#FFFACF;}
	.st21{fill:#FFFCE5;}
	.st22{fill:#FF87AF;}
	.st23{fill:#FFB0CA;}
	.st24{fill:#FFE500;stroke:#45413C;stroke-linecap:round;stroke-linejoin:round;stroke-miterlimit:10;}
	.st25{fill:#9CEB60;stroke:#45413C;stroke-linecap:round;stroke-linejoin:round;stroke-miterlimit:10;}
	.st26{fill:#FFFACF;stroke:#45413C;stroke-linecap:round;stroke-linejoin:round;stroke-miterlimit:10;}
	.st27{fill:#00F5BC;stroke:#45413C;stroke-linecap:round;stroke-linejoin:round;stroke-miterlimit:10;}
	.st28{fill:#BF8256;stroke:#45413C;stroke-linecap:round;stroke-linejoin:round;stroke-miterlimit:10;}
	.st29{fill:#FFE3CF;stroke:#45413C;stroke-linecap:round;stroke-linejoin:round;stroke-miterlimit:10;}
	.st30{fill:#FF6242;}
	.st31{fill:#FF866E;}
	.st32{fill:none;stroke:#E04122;stroke-linecap:round;stroke-linejoin:round;stroke-miterlimit:10;}
	.st33{fill:#FFFEF2;stroke:#45413C;stroke-linecap:round;stroke-linejoin:round;stroke-miterlimit:10;}
	.st34{fill:#FF6242;stroke:#45413C;stroke-linecap:round;stroke-linejoin:round;stroke-miterlimit:10;}
	.st35{fill:#FFA694;}
	.st36{fill:#FFFFFF;stroke:#45413C;stroke-linecap:round;stroke-linejoin:round;stroke-miterlimit:10;}
	.st37{fill:#FFFEF2;}
	.st38{fill:#FF6196;}
	.st39{fill:#B89558;}
	.st40{fill:none;stroke:#915E3A;stroke-linecap:round;stroke-linejoin:round;stroke-miterlimit:10;}
	.st41{fill:#DEBB7E;stroke:#45413C;stroke-linecap:round;stroke-linejoin:round;stroke-miterlimit:10;}
	.st42{fill:#6DD627;stroke:#45413C;stroke-linecap:round;stroke-linejoin:round;stroke-miterlimit:10;}
	.st43{fill:#E5F8FF;}
	.st44{fill:#E8F4FA;}
	.st45{fill:#E8F4FA;stroke:#45413C;stroke-linecap:round;stroke-linejoin:round;stroke-miterlimit:10;}
	.st46{fill:#FFCCDD;}
	.st47{fill:#E5F8FF;stroke:#45413C;stroke-linecap:round;stroke-linejoin:round;stroke-miterlimit:10;}
	.st48{fill:#00B8F0;stroke:#45413C;stroke-linecap:round;stroke-linejoin:round;stroke-miterlimit:10;}
	.st49{fill:#00B8F0;}
	.st50{fill:#4ACFFF;}
	.st51{fill:#E04122;}
	.st52{fill:#E04122;stroke:#45413C;stroke-linecap:round;stroke-linejoin:round;stroke-miterlimit:10;}
	.st53{fill:#87898C;}
	.st54{fill:#BDBEC0;}
	.st55{fill:#656769;}
	.st56{fill:#525252;}
	.st57{fill:#FFF48C;stroke:#45413C;stroke-linecap:round;stroke-linejoin:round;stroke-miterlimit:10;}
	.st58{fill:#6DD627;}
	.st59{fill:#EB6D00;}
	.st60{fill:#46B000;}
	.st61{fill:#80DDFF;}
	.st62{fill:#DAEDF7;}
	.st63{fill:#BF8DF2;stroke:#45413C;stroke-linecap:round;stroke-linejoin:round;stroke-miterlimit:10;}
	.st64{fill:#9F5AE5;stroke:#45413C;stroke-linecap:round;stroke-linejoin:round;stroke-miterlimit:10;}
	.st65{fill:#C8FFA1;}
	.st66{fill:#E4FFD1;}
	.st67{fill:#9CEB60;}
	.st68{fill:#E5FEFF;}
	.st69{fill:#B8ECFF;}
	.st70{fill:#E0E0E0;stroke:#45413C;stroke-linecap:round;stroke-linejoin:round;stroke-miterlimit:10;}
	.st71{fill:#E0E0E0;}
	.st72{fill:none;stroke:#4F4B45;stroke-linejoin:round;stroke-miterlimit:10;}
	.st73{fill:none;stroke:#4F4B45;stroke-linecap:round;stroke-linejoin:round;stroke-miterlimit:10;}
	.st74{fill:#E0366F;stroke:#45413C;stroke-linecap:round;stroke-linejoin:round;stroke-miterlimit:10;}
	.st75{fill:none;stroke:#45413C;stroke-miterlimit:10;}
	.st76{fill:#FF866E;stroke:#45413C;stroke-linecap:round;stroke-linejoin:round;stroke-miterlimit:10;}
	.st77{fill:#45413C;stroke:#45413C;stroke-linecap:round;stroke-linejoin:round;stroke-miterlimit:10;}
	.st78{fill:#9F5AE5;}
	.st79{fill:#803EC2;}
	.st80{fill:#803EC2;stroke:#45413C;stroke-linecap:round;stroke-linejoin:round;stroke-miterlimit:10;}
	.st81{fill:#BF8DF2;}
	.st82{fill:#FFAA54;stroke:#45413C;stroke-linecap:round;stroke-linejoin:round;stroke-miterlimit:10;}
	.st83{fill:none;stroke:#45413C;stroke-linejoin:round;stroke-miterlimit:10;}
	.st84{fill:#FFCCDD;stroke:#45413C;stroke-linecap:round;stroke-linejoin:round;stroke-miterlimit:10;}
	.st85{fill:#FF6196;stroke:#45413C;stroke-linecap:round;stroke-linejoin:round;stroke-miterlimit:10;}
	.st86{fill:#FFE5EE;}
	.st87{fill:#F7E5C6;stroke:#45413C;stroke-linecap:round;stroke-linejoin:round;stroke-miterlimit:10;}
	.st88{fill:#E5FFF9;}
	.st89{fill:none;stroke:#45413C;stroke-width:1.0064;stroke-linecap:round;stroke-linejoin:round;stroke-miterlimit:10;}
	.st90{fill:#4AEFF7;}
	.st91{fill:#A6FBFF;}
	.st92{fill:#E5FEFF;stroke:#45413C;stroke-linecap:round;stroke-linejoin:round;stroke-miterlimit:10;}
	.st93{fill:#46B000;stroke:#45413C;stroke-linecap:round;stroke-linejoin:round;stroke-miterlimit:10;}
	.st94{fill:#FFFFFF;stroke:#45413C;stroke-linejoin:round;stroke-miterlimit:10;}
	.st95{fill:#FFFFFF;stroke:#45413C;stroke-miterlimit:10;}
	.st96{fill:#009FD9;}
	.st97{fill:#00DFEB;}
	.st98{fill:#C0DCEB;stroke:#45413C;stroke-linecap:round;stroke-linejoin:round;stroke-miterlimit:10;}
	.st99{fill:#00DFEB;stroke:#45413C;stroke-linecap:round;stroke-linejoin:round;stroke-miterlimit:10;}
	.st100{fill:#FFE5EE;stroke:#45413C;stroke-linecap:round;stroke-linejoin:round;stroke-miterlimit:10;}
	.st101{fill:#8CA4B8;}
	.st102{fill:#ADC4D9;}
	.st103{fill:#656769;stroke:#45413C;stroke-linecap:round;stroke-linejoin:round;stroke-miterlimit:10;}
	.st104{fill:#F0F0F0;stroke:#45413C;stroke-linecap:round;stroke-linejoin:round;stroke-miterlimit:10;}
	.st105{fill:#C0DCEB;}
	.st106{fill:#45413C;}
	.st107{fill:#FFCABF;}
	.st108{fill:#87898C;stroke:#45413C;stroke-linecap:round;stroke-linejoin:round;stroke-miterlimit:10;}
	.st109{fill:#EBCB00;stroke:#45413C;stroke-linecap:round;stroke-linejoin:round;stroke-miterlimit:10;}</style>
  <style
     id="style143"
     type="text/css">.st0{opacity:0.15;fill:#45413C;}
	.st1{fill:#FFE500;}
	.st2{fill:#EBCB00;}
	.st3{fill:none;stroke:#45413C;stroke-linecap:round;stroke-linejoin:round;stroke-miterlimit:10;}
	.st4{fill:#FFAA54;}
	.st5{fill:#FF8A14;}
	.st6{fill:#FFB0CA;stroke:#45413C;stroke-linecap:round;stroke-linejoin:round;stroke-miterlimit:10;}
	.st7{fill:#FF87AF;stroke:#45413C;stroke-linecap:round;stroke-linejoin:round;stroke-miterlimit:10;}
	.st8{fill:#FFCC99;}
	.st9{fill:#FFFFFF;}
	.st10{fill:#F0F0F0;}
	.st11{fill:#BF8256;}
	.st12{fill:#915E3A;}
	.st13{fill:#DEA47A;}
	.st14{fill:#F0D5A8;}
	.st15{fill:#DEBB7E;}
	.st16{fill:#F7E5C6;}
	.st17{fill:#FF8A14;stroke:#45413C;stroke-linecap:round;stroke-linejoin:round;stroke-miterlimit:10;}
	.st18{fill:#FFF5E3;}
	.st19{fill:#FFF48C;}
	.st20{fill:#FFFACF;}
	.st21{fill:#FFFCE5;}
	.st22{fill:#FF87AF;}
	.st23{fill:#FFB0CA;}
	.st24{fill:#FFE500;stroke:#45413C;stroke-linecap:round;stroke-linejoin:round;stroke-miterlimit:10;}
	.st25{fill:#9CEB60;stroke:#45413C;stroke-linecap:round;stroke-linejoin:round;stroke-miterlimit:10;}
	.st26{fill:#FFFACF;stroke:#45413C;stroke-linecap:round;stroke-linejoin:round;stroke-miterlimit:10;}
	.st27{fill:#00F5BC;stroke:#45413C;stroke-linecap:round;stroke-linejoin:round;stroke-miterlimit:10;}
	.st28{fill:#BF8256;stroke:#45413C;stroke-linecap:round;stroke-linejoin:round;stroke-miterlimit:10;}
	.st29{fill:#FFE3CF;stroke:#45413C;stroke-linecap:round;stroke-linejoin:round;stroke-miterlimit:10;}
	.st30{fill:#FF6242;}
	.st31{fill:#FF866E;}
	.st32{fill:none;stroke:#E04122;stroke-linecap:round;stroke-linejoin:round;stroke-miterlimit:10;}
	.st33{fill:#FFFEF2;stroke:#45413C;stroke-linecap:round;stroke-linejoin:round;stroke-miterlimit:10;}
	.st34{fill:#FF6242;stroke:#45413C;stroke-linecap:round;stroke-linejoin:round;stroke-miterlimit:10;}
	.st35{fill:#FFA694;}
	.st36{fill:#FFFFFF;stroke:#45413C;stroke-linecap:round;stroke-linejoin:round;stroke-miterlimit:10;}
	.st37{fill:#FFFEF2;}
	.st38{fill:#FF6196;}
	.st39{fill:#B89558;}
	.st40{fill:none;stroke:#915E3A;stroke-linecap:round;stroke-linejoin:round;stroke-miterlimit:10;}
	.st41{fill:#DEBB7E;stroke:#45413C;stroke-linecap:round;stroke-linejoin:round;stroke-miterlimit:10;}
	.st42{fill:#6DD627;stroke:#45413C;stroke-linecap:round;stroke-linejoin:round;stroke-miterlimit:10;}
	.st43{fill:#E5F8FF;}
	.st44{fill:#E8F4FA;}
	.st45{fill:#E8F4FA;stroke:#45413C;stroke-linecap:round;stroke-linejoin:round;stroke-miterlimit:10;}
	.st46{fill:#FFCCDD;}
	.st47{fill:#E5F8FF;stroke:#45413C;stroke-linecap:round;stroke-linejoin:round;stroke-miterlimit:10;}
	.st48{fill:#00B8F0;stroke:#45413C;stroke-linecap:round;stroke-linejoin:round;stroke-miterlimit:10;}
	.st49{fill:#00B8F0;}
	.st50{fill:#4ACFFF;}
	.st51{fill:#E04122;}
	.st52{fill:#E04122;stroke:#45413C;stroke-linecap:round;stroke-linejoin:round;stroke-miterlimit:10;}
	.st53{fill:#87898C;}
	.st54{fill:#BDBEC0;}
	.st55{fill:#656769;}
	.st56{fill:#525252;}
	.st57{fill:#FFF48C;stroke:#45413C;stroke-linecap:round;stroke-linejoin:round;stroke-miterlimit:10;}
	.st58{fill:#6DD627;}
	.st59{fill:#EB6D00;}
	.st60{fill:#46B000;}
	.st61{fill:#80DDFF;}
	.st62{fill:#DAEDF7;}
	.st63{fill:#BF8DF2;stroke:#45413C;stroke-linecap:round;stroke-linejoin:round;stroke-miterlimit:10;}
	.st64{fill:#9F5AE5;stroke:#45413C;stroke-linecap:round;stroke-linejoin:round;stroke-miterlimit:10;}
	.st65{fill:#C8FFA1;}
	.st66{fill:#E4FFD1;}
	.st67{fill:#9CEB60;}
	.st68{fill:#E5FEFF;}
	.st69{fill:#B8ECFF;}
	.st70{fill:#E0E0E0;stroke:#45413C;stroke-linecap:round;stroke-linejoin:round;stroke-miterlimit:10;}
	.st71{fill:#E0E0E0;}
	.st72{fill:none;stroke:#4F4B45;stroke-linejoin:round;stroke-miterlimit:10;}
	.st73{fill:none;stroke:#4F4B45;stroke-linecap:round;stroke-linejoin:round;stroke-miterlimit:10;}
	.st74{fill:#E0366F;stroke:#45413C;stroke-linecap:round;stroke-linejoin:round;stroke-miterlimit:10;}
	.st75{fill:none;stroke:#45413C;stroke-miterlimit:10;}
	.st76{fill:#FF866E;stroke:#45413C;stroke-linecap:round;stroke-linejoin:round;stroke-miterlimit:10;}
	.st77{fill:#45413C;stroke:#45413C;stroke-linecap:round;stroke-linejoin:round;stroke-miterlimit:10;}
	.st78{fill:#9F5AE5;}
	.st79{fill:#803EC2;}
	.st80{fill:#803EC2;stroke:#45413C;stroke-linecap:round;stroke-linejoin:round;stroke-miterlimit:10;}
	.st81{fill:#BF8DF2;}
	.st82{fill:#FFAA54;stroke:#45413C;stroke-linecap:round;stroke-linejoin:round;stroke-miterlimit:10;}
	.st83{fill:none;stroke:#45413C;stroke-linejoin:round;stroke-miterlimit:10;}
	.st84{fill:#FFCCDD;stroke:#45413C;stroke-linecap:round;stroke-linejoin:round;stroke-miterlimit:10;}
	.st85{fill:#FF6196;stroke:#45413C;stroke-linecap:round;stroke-linejoin:round;stroke-miterlimit:10;}
	.st86{fill:#FFE5EE;}
	.st87{fill:#F7E5C6;stroke:#45413C;stroke-linecap:round;stroke-linejoin:round;stroke-miterlimit:10;}
	.st88{fill:#E5FFF9;}
	.st89{fill:none;stroke:#45413C;stroke-width:1.0064;stroke-linecap:round;stroke-linejoin:round;stroke-miterlimit:10;}
	.st90{fill:#4AEFF7;}
	.st91{fill:#A6FBFF;}
	.st92{fill:#E5FEFF;stroke:#45413C;stroke-linecap:round;stroke-linejoin:round;stroke-miterlimit:10;}
	.st93{fill:#46B000;stroke:#45413C;stroke-linecap:round;stroke-linejoin:round;stroke-miterlimit:10;}
	.st94{fill:#FFFFFF;stroke:#45413C;stroke-linejoin:round;stroke-miterlimit:10;}
	.st95{fill:#FFFFFF;stroke:#45413C;stroke-miterlimit:10;}
	.st96{fill:#009FD9;}
	.st97{fill:#00DFEB;}
	.st98{fill:#C0DCEB;stroke:#45413C;stroke-linecap:round;stroke-linejoin:round;stroke-miterlimit:10;}
	.st99{fill:#00DFEB;stroke:#45413C;stroke-linecap:round;stroke-linejoin:round;stroke-miterlimit:10;}
	.st100{fill:#FFE5EE;stroke:#45413C;stroke-linecap:round;stroke-linejoin:round;stroke-miterlimit:10;}
	.st101{fill:#8CA4B8;}
	.st102{fill:#ADC4D9;}
	.st103{fill:#656769;stroke:#45413C;stroke-linecap:round;stroke-linejoin:round;stroke-miterlimit:10;}
	.st104{fill:#F0F0F0;stroke:#45413C;stroke-linecap:round;stroke-linejoin:round;stroke-miterlimit:10;}
	.st105{fill:#C0DCEB;}
	.st106{fill:#45413C;}
	.st107{fill:#FFCABF;}
	.st108{fill:#87898C;stroke:#45413C;stroke-linecap:round;stroke-linejoin:round;stroke-miterlimit:10;}
	.st109{fill:#EBCB00;stroke:#45413C;stroke-linecap:round;stroke-linejoin:round;stroke-miterlimit:10;}</style>
  <style
     id="style145"
     type="text/css">.st0{opacity:0.15;fill:#45413C;}
	.st1{fill:#FFE500;}
	.st2{fill:#EBCB00;}
	.st3{fill:none;stroke:#45413C;stroke-linecap:round;stroke-linejoin:round;stroke-miterlimit:10;}
	.st4{fill:#FFAA54;}
	.st5{fill:#FF8A14;}
	.st6{fill:#FFB0CA;stroke:#45413C;stroke-linecap:round;stroke-linejoin:round;stroke-miterlimit:10;}
	.st7{fill:#FF87AF;stroke:#45413C;stroke-linecap:round;stroke-linejoin:round;stroke-miterlimit:10;}
	.st8{fill:#FFCC99;}
	.st9{fill:#FFFFFF;}
	.st10{fill:#F0F0F0;}
	.st11{fill:#BF8256;}
	.st12{fill:#915E3A;}
	.st13{fill:#DEA47A;}
	.st14{fill:#F0D5A8;}
	.st15{fill:#DEBB7E;}
	.st16{fill:#F7E5C6;}
	.st17{fill:#FF8A14;stroke:#45413C;stroke-linecap:round;stroke-linejoin:round;stroke-miterlimit:10;}
	.st18{fill:#FFF5E3;}
	.st19{fill:#FFF48C;}
	.st20{fill:#FFFACF;}
	.st21{fill:#FFFCE5;}
	.st22{fill:#FF87AF;}
	.st23{fill:#FFB0CA;}
	.st24{fill:#FFE500;stroke:#45413C;stroke-linecap:round;stroke-linejoin:round;stroke-miterlimit:10;}
	.st25{fill:#9CEB60;stroke:#45413C;stroke-linecap:round;stroke-linejoin:round;stroke-miterlimit:10;}
	.st26{fill:#FFFACF;stroke:#45413C;stroke-linecap:round;stroke-linejoin:round;stroke-miterlimit:10;}
	.st27{fill:#00F5BC;stroke:#45413C;stroke-linecap:round;stroke-linejoin:round;stroke-miterlimit:10;}
	.st28{fill:#BF8256;stroke:#45413C;stroke-linecap:round;stroke-linejoin:round;stroke-miterlimit:10;}
	.st29{fill:#FFE3CF;stroke:#45413C;stroke-linecap:round;stroke-linejoin:round;stroke-miterlimit:10;}
	.st30{fill:#FF6242;}
	.st31{fill:#FF866E;}
	.st32{fill:none;stroke:#E04122;stroke-linecap:round;stroke-linejoin:round;stroke-miterlimit:10;}
	.st33{fill:#FFFEF2;stroke:#45413C;stroke-linecap:round;stroke-linejoin:round;stroke-miterlimit:10;}
	.st34{fill:#FF6242;stroke:#45413C;stroke-linecap:round;stroke-linejoin:round;stroke-miterlimit:10;}
	.st35{fill:#FFA694;}
	.st36{fill:#FFFFFF;stroke:#45413C;stroke-linecap:round;stroke-linejoin:round;stroke-miterlimit:10;}
	.st37{fill:#FFFEF2;}
	.st38{fill:#FF6196;}
	.st39{fill:#B89558;}
	.st40{fill:none;stroke:#915E3A;stroke-linecap:round;stroke-linejoin:round;stroke-miterlimit:10;}
	.st41{fill:#DEBB7E;stroke:#45413C;stroke-linecap:round;stroke-linejoin:round;stroke-miterlimit:10;}
	.st42{fill:#6DD627;stroke:#45413C;stroke-linecap:round;stroke-linejoin:round;stroke-miterlimit:10;}
	.st43{fill:#E5F8FF;}
	.st44{fill:#E8F4FA;}
	.st45{fill:#E8F4FA;stroke:#45413C;stroke-linecap:round;stroke-linejoin:round;stroke-miterlimit:10;}
	.st46{fill:#FFCCDD;}
	.st47{fill:#E5F8FF;stroke:#45413C;stroke-linecap:round;stroke-linejoin:round;stroke-miterlimit:10;}
	.st48{fill:#00B8F0;stroke:#45413C;stroke-linecap:round;stroke-linejoin:round;stroke-miterlimit:10;}
	.st49{fill:#00B8F0;}
	.st50{fill:#4ACFFF;}
	.st51{fill:#E04122;}
	.st52{fill:#E04122;stroke:#45413C;stroke-linecap:round;stroke-linejoin:round;stroke-miterlimit:10;}
	.st53{fill:#87898C;}
	.st54{fill:#BDBEC0;}
	.st55{fill:#656769;}
	.st56{fill:#525252;}
	.st57{fill:#FFF48C;stroke:#45413C;stroke-linecap:round;stroke-linejoin:round;stroke-miterlimit:10;}
	.st58{fill:#6DD627;}
	.st59{fill:#EB6D00;}
	.st60{fill:#46B000;}
	.st61{fill:#80DDFF;}
	.st62{fill:#DAEDF7;}
	.st63{fill:#BF8DF2;stroke:#45413C;stroke-linecap:round;stroke-linejoin:round;stroke-miterlimit:10;}
	.st64{fill:#9F5AE5;stroke:#45413C;stroke-linecap:round;stroke-linejoin:round;stroke-miterlimit:10;}
	.st65{fill:#C8FFA1;}
	.st66{fill:#E4FFD1;}
	.st67{fill:#9CEB60;}
	.st68{fill:#E5FEFF;}
	.st69{fill:#B8ECFF;}
	.st70{fill:#E0E0E0;stroke:#45413C;stroke-linecap:round;stroke-linejoin:round;stroke-miterlimit:10;}
	.st71{fill:#E0E0E0;}
	.st72{fill:none;stroke:#4F4B45;stroke-linejoin:round;stroke-miterlimit:10;}
	.st73{fill:none;stroke:#4F4B45;stroke-linecap:round;stroke-linejoin:round;stroke-miterlimit:10;}
	.st74{fill:#E0366F;stroke:#45413C;stroke-linecap:round;stroke-linejoin:round;stroke-miterlimit:10;}
	.st75{fill:none;stroke:#45413C;stroke-miterlimit:10;}
	.st76{fill:#FF866E;stroke:#45413C;stroke-linecap:round;stroke-linejoin:round;stroke-miterlimit:10;}
	.st77{fill:#45413C;stroke:#45413C;stroke-linecap:round;stroke-linejoin:round;stroke-miterlimit:10;}
	.st78{fill:#9F5AE5;}
	.st79{fill:#803EC2;}
	.st80{fill:#803EC2;stroke:#45413C;stroke-linecap:round;stroke-linejoin:round;stroke-miterlimit:10;}
	.st81{fill:#BF8DF2;}
	.st82{fill:#FFAA54;stroke:#45413C;stroke-linecap:round;stroke-linejoin:round;stroke-miterlimit:10;}
	.st83{fill:none;stroke:#45413C;stroke-linejoin:round;stroke-miterlimit:10;}
	.st84{fill:#FFCCDD;stroke:#45413C;stroke-linecap:round;stroke-linejoin:round;stroke-miterlimit:10;}
	.st85{fill:#FF6196;stroke:#45413C;stroke-linecap:round;stroke-linejoin:round;stroke-miterlimit:10;}
	.st86{fill:#FFE5EE;}
	.st87{fill:#F7E5C6;stroke:#45413C;stroke-linecap:round;stroke-linejoin:round;stroke-miterlimit:10;}
	.st88{fill:#E5FFF9;}
	.st89{fill:none;stroke:#45413C;stroke-width:1.0064;stroke-linecap:round;stroke-linejoin:round;stroke-miterlimit:10;}
	.st90{fill:#4AEFF7;}
	.st91{fill:#A6FBFF;}
	.st92{fill:#E5FEFF;stroke:#45413C;stroke-linecap:round;stroke-linejoin:round;stroke-miterlimit:10;}
	.st93{fill:#46B000;stroke:#45413C;stroke-linecap:round;stroke-linejoin:round;stroke-miterlimit:10;}
	.st94{fill:#FFFFFF;stroke:#45413C;stroke-linejoin:round;stroke-miterlimit:10;}
	.st95{fill:#FFFFFF;stroke:#45413C;stroke-miterlimit:10;}
	.st96{fill:#009FD9;}
	.st97{fill:#00DFEB;}
	.st98{fill:#C0DCEB;stroke:#45413C;stroke-linecap:round;stroke-linejoin:round;stroke-miterlimit:10;}
	.st99{fill:#00DFEB;stroke:#45413C;stroke-linecap:round;stroke-linejoin:round;stroke-miterlimit:10;}
	.st100{fill:#FFE5EE;stroke:#45413C;stroke-linecap:round;stroke-linejoin:round;stroke-miterlimit:10;}
	.st101{fill:#8CA4B8;}
	.st102{fill:#ADC4D9;}
	.st103{fill:#656769;stroke:#45413C;stroke-linecap:round;stroke-linejoin:round;stroke-miterlimit:10;}
	.st104{fill:#F0F0F0;stroke:#45413C;stroke-linecap:round;stroke-linejoin:round;stroke-miterlimit:10;}
	.st105{fill:#C0DCEB;}
	.st106{fill:#45413C;}
	.st107{fill:#FFCABF;}
	.st108{fill:#87898C;stroke:#45413C;stroke-linecap:round;stroke-linejoin:round;stroke-miterlimit:10;}
	.st109{fill:#EBCB00;stroke:#45413C;stroke-linecap:round;stroke-linejoin:round;stroke-miterlimit:10;}</style>
  <g
     id="g155"
     stroke-width=".26458"
     fill="#5e4aa6"
     transform="translate(-21.833 .89722)">
    <circle
       id="circle147"
       r="0"
       cy="-328.38"
       cx="-330.35" />
    <circle
       id="circle149"
       r="0"
       cy="-326.25"
       cx="-312.11" />
    <circle
       id="circle151"
       r="0"
       cy="-333.07"
       cx="-306.02" />
    <circle
       id="circle153"
       r="0"
       cy="-326.01"
       cx="-308.84" />
  </g>
  <g
     transform="translate(0,-0.23398623)"
     id="g1236">
    <g
       shape-rendering="auto"
       id="g1178">
      <path
         d="m 4.3693,0.52916 c -2.1142,0 -3.8402,1.7835 -3.8402,3.9682 v 8.4675 c 0,2.1846 1.726,3.9682 3.8402,3.9682 h 8.1944 c 2.1142,0 3.8402,-1.7835 3.8402,-3.9682 v -8.4675 c 0,-2.1846 -1.726,-3.9682 -3.8402,-3.9682 z m 0.25704,0.52089 h 7.6808 c 1.8443,0 3.3291,1.5342 3.3291,3.44 v 7.9368 c 0,1.9058 -1.4847,3.44 -3.3291,3.44 h -7.6808 c -1.8443,0 -3.3291,-1.5342 -3.3291,-3.44 v -7.9368 c 0,-1.9058 1.4847,-3.44 3.3291,-3.44 z"
         color="#000000"
         color-rendering="auto"
         dominant-baseline="auto"
         image-rendering="auto"
         opacity="0.01"
         solid-color="#000000"
         stop-color="#000000"
         style="font-variant-ligatures:normal;font-variant-position:normal;font-variant-caps:normal;font-variant-numeric:normal;font-variant-alternates:normal;font-variant-east-asian:normal;font-feature-settings:normal;font-variation-settings:normal;text-indent:0;text-decoration:none;text-decoration-line:none;text-decoration-style:solid;text-decoration-color:#000000;text-transform:none;text-orientation:mixed;white-space:normal;shape-padding:0;shape-margin:0;inline-size:0;isolation:auto;mix-blend-mode:normal"
         id="path1168" />
      <path
         d="m 4.3587,0.79373 c -1.9668,0 -3.5639,1.6528 -3.5639,3.6876 v 8.4996 c 0,2.0348 1.5971,3.6876 3.5639,3.6876 h 8.2162 c 1.9668,0 3.5644,-1.6528 3.5644,-3.6876 v -8.4996 c 0,-2.0348 -1.5976,-3.6876 -3.5644,-3.6876 z m 0.27222,0.25631 h 7.6718 c 1.8422,0 3.3251,1.5342 3.3251,3.44 v 7.9368 c 0,1.9058 -1.483,3.44 -3.3251,3.44 h -7.6718 c -1.8422,0 -3.3251,-1.5342 -3.3251,-3.44 v -7.9368 c 0,-1.9058 1.483,-3.44 3.3251,-3.44 z"
         color="#000000"
         color-rendering="auto"
         dominant-baseline="auto"
         image-rendering="auto"
         opacity="0.01"
         solid-color="#000000"
         stop-color="#000000"
         style="font-variant-ligatures:normal;font-variant-position:normal;font-variant-caps:normal;font-variant-numeric:normal;font-variant-alternates:normal;font-variant-east-asian:normal;font-feature-settings:normal;font-variation-settings:normal;text-indent:0;text-decoration:none;text-decoration-line:none;text-decoration-style:solid;text-decoration-color:#000000;text-transform:none;text-orientation:mixed;white-space:normal;shape-padding:0;shape-margin:0;inline-size:0;isolation:auto;mix-blend-mode:normal"
         id="path1170" />
      <path
         d="m 4.3097,1.0583 c -1.8657,0 -3.3751,1.5383 -3.3751,3.439 v 8.4675 c 0,1.9007 1.57,3.439 3.4357,3.439 h 8.1996 c 1.8657,0 3.4274,-1.5383 3.4274,-3.439 V 4.4973 c 0,-1.9007 -1.51,-3.439 -3.3756,-3.439 h -0.09688 c 1.794,0.086515 3.2138,1.5819 3.2138,3.4318 v 7.9368 c 0,1.9058 -1.5059,3.44 -3.3766,3.44 h -7.7905 c -1.8707,0 -3.3766,-1.5342 -3.3766,-3.44 V 4.4901 c 0,-1.8498 1.4199,-3.3451 3.2138,-3.4318 z"
         color="#000000"
         color-rendering="auto"
         dominant-baseline="auto"
         image-rendering="auto"
         opacity="0.03"
         solid-color="#000000"
         stop-color="#000000"
         style="font-variant-ligatures:normal;font-variant-position:normal;font-variant-caps:normal;font-variant-numeric:normal;font-variant-alternates:normal;font-variant-east-asian:normal;font-feature-settings:normal;font-variation-settings:normal;text-indent:0;text-decoration:none;text-decoration-line:none;text-decoration-style:solid;text-decoration-color:#000000;text-transform:none;text-orientation:mixed;white-space:normal;shape-padding:0;shape-margin:0;inline-size:0;isolation:auto;mix-blend-mode:normal"
         id="path1172" />
      <path
         transform="scale(0.26458)"
         d="m 4,46.969 v 2.0312 c 0,6.6479 5.8957,12 12.544,12 h 30.961 c 6.6479,0 12.495,-5.3521 12.495,-12 V 47.008 C 59.97883,54.1929 54.19,59.971 47,59.971 H 17.002 C 9.7988,59.971 4,54.1723 4,46.969 Z"
         color="#000000"
         color-rendering="auto"
         dominant-baseline="auto"
         image-rendering="auto"
         opacity="0.03"
         solid-color="#000000"
         stop-color="#000000"
         style="font-variant-ligatures:normal;font-variant-position:normal;font-variant-caps:normal;font-variant-numeric:normal;font-variant-alternates:normal;font-variant-east-asian:normal;font-feature-settings:normal;font-variation-settings:normal;text-indent:0;text-decoration:none;text-decoration-line:none;text-decoration-style:solid;text-decoration-color:#000000;text-transform:none;text-orientation:mixed;white-space:normal;shape-padding:0;shape-margin:0;inline-size:0;isolation:auto;mix-blend-mode:normal"
         id="path1174" />
      <path
         d="m 1.0583,11.906 v 0.59234 c 0,1.9386 1.5729,3.4993 3.3318,3.4993 h 8.1603 c 1.7589,0 3.3243,-1.5608 3.3243,-3.4993 v -0.58095 c -0.0056,2.0952 -1.5372,3.7801 -3.4395,3.7801 H 4.4984 c -1.9058,0 -3.44,-1.691 -3.44,-3.7915 z"
         color="#000000"
         color-rendering="auto"
         dominant-baseline="auto"
         image-rendering="auto"
         opacity="0.05"
         solid-color="#000000"
         stop-color="#000000"
         style="font-variant-ligatures:normal;font-variant-position:normal;font-variant-caps:normal;font-variant-numeric:normal;font-variant-alternates:normal;font-variant-east-asian:normal;font-feature-settings:normal;font-variation-settings:normal;text-indent:0;text-decoration:none;text-decoration-line:none;text-decoration-style:solid;text-decoration-color:#000000;text-transform:none;text-orientation:mixed;white-space:normal;shape-padding:0;shape-margin:0;inline-size:0;isolation:auto;mix-blend-mode:normal"
         id="path1176" />
    </g>
    <rect
       style="fill:url(#linearGradient862)"
       x="1.0583"
       y="1.05"
       width="14.817"
       height="14.817"
       rx="3.4401"
       ry="3.4401"
       fill="url(#linearGradient862)"
       id="rect1180" />
    <path
       transform="scale(0.26458)"
       d="m 27.318,3.9688 c 0.70402,1.6837 0.91086,3.3062 0.99024,4.5566 0.51868,8.6394 -6.0637,16.064 -14.703,16.582 -2.5292,0.14508 -6.7938,-0.19203 -9.6055,-2.3848 v 5.209 c 0.14935,-0.07729 0.30852,-0.18718 0.49219,-0.37109 0.29284,-0.3664 0.63505,-0.85114 1.0781,-1.4863 0.70908,0.30664 1.068,0.3759 1.8105,0.58984 -0.015496,2.1016 -0.17016,2.9301 0.79492,3.1895 0.83556,0.22458 1.1069,-0.5218 1.8242,-2.6191 0.68499,0.08946 1.3737,0.13943 2.0645,0.15039 0.52624,2.2924 0.69964,3.0799 1.5762,2.9395 0.98413,-0.15761 0.92067,-0.99468 1.1211,-3.0742 0.68997,-0.09237 1.374,-0.2237 2.0488,-0.39453 0.97669,2.0246 1.3311,2.7391 2.1387,2.4141 0.92744,-0.37324 0.67323,-1.1774 0.40625,-3.2637 0.6271,-0.25766 1.2397,-0.54894 1.834,-0.875 1.5222,1.7041 2.0585,2.2989 2.75,1.7598 0.78492,-0.61203 0.32751,-1.3144 -0.49805,-3.2266 0.5574,-0.42801 1.09,-0.88931 1.5938,-1.3789 1.8301,1.2239 2.4969,1.6501 3.0234,0.9668 0.59966,-0.77832 -0.0013,-1.3464 -1.2441,-2.9434 0.40516,-0.52326 0.77967,-1.0685 1.125,-1.6328 2.1823,0.62654 2.9531,0.84381 3.25,0.02149 0.33147,-0.91833 -0.40613,-1.2818 -2.0547,-2.4062 0.2758,-0.65663 0.51266,-1.3293 0.70898,-2.0137 2.2603,0.07346 3.0599,0.09308 3.1465,-0.77539 0.09699,-0.97311 -0.71168,-1.1439 -2.5918,-1.834 0.09007,-0.7121 0.13793,-1.4288 0.14258,-2.1465 2.1422,-0.41274 2.9142,-0.58086 2.8086,-1.4336 -0.12095,-0.97587 -0.95076,-0.95635 -2.9609,-1.2188 -0.09483,-0.67165 -0.22664,-1.3374 -0.39648,-1.9941 0.38045,-0.1961 0.671,-0.35183 0.95898,-0.50781 0.16045,-0.16459 0.18706,-0.29385 0.13086,-0.39844 h -3.7637 z m 3.7227,17.451 -1.2227,0.16016 c -0.05643,0.0074 -0.10279,0.03841 -0.13476,0.08008 -0.03213,0.04166 -0.042,0.09347 -0.04102,0.15039 l 0.02539,1.5254 c -0.89038,0.22281 -1.7422,0.57812 -2.5254,1.0566 l -1.041,-1.0938 c -0.03553,-0.04455 -0.08463,-0.0732 -0.13672,-0.08008 -0.05208,-0.0069 -0.10519,0.0063 -0.15039,0.04102 l -0.98047,0.75 c -0.0452,0.03466 -0.07125,0.08464 -0.07813,0.13672 -0.0068,0.05208 0.01263,0.10293 0.04102,0.15234 l 0.75586,1.3203 c -0.65447,0.63656 -1.2087,1.3677 -1.6445,2.1699 l -1.4375,-0.42187 c -0.05295,-0.02079 -0.10772,-0.01985 -0.15625,0 -0.04853,0.02003 -0.08952,0.05872 -0.11133,0.11133 l -0.47266,1.1387 c -0.02192,0.05257 -0.01986,0.10967 0,0.1582 0.02003,0.04853 0.06212,0.08264 0.11133,0.11133 l 1.3145,0.76562 c -0.22977,0.80188 -0.34679,1.6307 -0.34961,2.4648 0.0018,0.07753 0.004,0.15497 0.0078,0.23242 l -1.4648,0.35547 c -0.05628,0.0087 -0.10474,0.03628 -0.13672,0.07813 -0.03213,0.04165 -0.04846,0.09396 -0.04102,0.15039 l 0.16016,1.2227 c 0.0076,0.05643 0.03628,0.10474 0.07813,0.13672 0.04165,0.03213 0.09542,0.04079 0.15234,0.04102 l 1.5293,0.0059 c 0.22376,0.88355 0.57892,1.7284 1.0547,2.5059 l -1.0918,1.0371 c -0.04449,0.03553 -0.07125,0.08464 -0.07813,0.13672 -0.0068,0.05208 0.0062,0.10718 0.04102,0.15234 l 0.75,0.97852 c 0.03477,0.0452 0.08464,0.07316 0.13672,0.08008 0.05208,0.0068 0.10095,-0.01263 0.15039,-0.04102 l 1.3184,-0.75391 c 0.63731,0.655 1.3686,1.2106 2.1719,1.6465 l -0.41992,1.4316 c -0.02079,0.05295 -0.02003,0.10964 0,0.1582 0.02003,0.04853 0.0568,0.08952 0.10938,0.11133 l 1.1387,0.47266 c 0.05257,0.02192 0.10967,0.02003 0.1582,0 0.04857,-0.02003 0.08264,-0.06407 0.11133,-0.11328 l 0.76562,-1.3125 c 0.80044,0.22904 1.6284,0.34666 2.4609,0.34961 0.07935,-0.0017 0.159,-0.004 0.23828,-0.0078 l 0.35352,1.4648 c 0.0083,0.05628 0.03666,0.10474 0.07812,0.13672 0.04165,0.03213 0.09591,0.04842 0.15234,0.04102 l 1.2227,-0.16016 c 0.05643,-0.0076 0.10474,-0.03628 0.13672,-0.07813 0.03213,-0.04165 0.04079,-0.09738 0.04102,-0.1543 l 0.0059,-1.5293 c 0.86031,-0.21903 1.6831,-0.56305 2.4434,-1.0215 l 1.1094,1.0527 c 0.28812,0.0381 0.08467,0.0732 0.13672,0.08008 0.05208,0.0068 0.10714,-0.0062 0.15234,-0.04102 l 0.97852,-0.75 c 0.0452,-0.03477 0.07121,-0.08464 0.07813,-0.13672 0.0068,-0.05208 -0.01187,-0.10355 -0.04102,-0.15234 l -0.7793,-1.2988 c 0.643,-0.62398 1.1901,-1.3406 1.623,-2.125 l 1.4883,0.35742 c 0.26858,-0.11108 0.10967,0.02003 0.1582,0 0.04857,-0.02003 0.08757,-0.05872 0.10938,-0.11133 l 0.47266,-1.1387 c 0.02192,-0.05257 0.02181,-0.10967 0.002,-0.1582 -0.02003,-0.04853 -0.06347,-0.08374 -0.11328,-0.11133 l -1.3379,-0.74219 c 0.23214,-0.8058 0.35068,-1.6399 0.35352,-2.4785 -0.0016,-0.05663 -0.0032,-0.11334 -0.0059,-0.16992 l 1.4629,-0.43359 c 0.17704,-0.23048 0.10474,-0.03628 0.13672,-0.07813 0.03213,-0.04165 0.04647,-0.09396 0.03906,-0.15039 l -0.16016,-1.2246 c -0.0076,-0.05643 -0.03628,-0.10279 -0.07813,-0.13477 -0.04165,-0.03213 -0.09542,-0.042 -0.15234,-0.04101 l -1.5234,0.02734 c -0.21808,-0.86707 -0.56432,-1.6969 -1.0254,-2.4629 l 1.0566,-1.1133 c 0.0381,-0.28812 0.07121,-0.08464 0.07813,-0.13672 0.0068,-0.05208 -0.0062,-0.10718 -0.04102,-0.15234 l -0.75,-0.97852 c -0.03477,-0.0452 -0.08268,-0.0732 -0.13477,-0.08008 -0.05208,-0.0068 -0.10355,0.01187 -0.15234,0.04102 l -1.3047,0.7832 c -0.6232,-0.64255 -1.3377,-1.1881 -2.1211,-1.6211 l 0.35742,-1.4922 c -0.11108,-0.26856 0.02003,-0.10966 0,-0.1582 -0.02003,-0.04854 -0.0568,-0.08952 -0.10938,-0.11133 l -1.1406,-0.47266 c -0.05257,-0.02181 -0.10772,-0.02011 -0.15625,0 -0.04853,0.02011 -0.0837,0.06155 -0.11133,0.11133 l -0.74414,1.3418 c -0.8072,-0.23288 -1.6423,-0.35276 -2.4824,-0.35547 -0.05451,0.0013 -0.10959,0.0036 -0.16406,0.0059 l -0.43359,-1.4629 C 31.04097,21.42038 31.2349,21.4927 31.19332,21.4607 31.15167,21.42872 31.09741,21.41226 31.04098,21.41968 Z m 0.82812,3.5469 c 3.9494,2.8e-4 7.1501,3.201 7.1504,7.1504 -2.76e-4,3.9494 -3.201,7.1521 -7.1504,7.1523 -3.9494,-2.76e-4 -7.1521,-3.203 -7.1523,-7.1523 2.76e-4,-3.9494 3.203,-7.1501 7.1523,-7.1504 z m 23.207,8.3848 c -0.99222,-0.0049 -1.0713,0.82692 -1.6016,2.8262 -0.6896,-0.02457 -1.3784,-0.009 -2.0664,0.04492 -0.67364,-2.2028 -0.90903,-2.972 -1.7656,-2.7715 -0.97269,0.22768 -0.84543,1.0611 -0.89844,3.1602 -0.6583,0.15205 -1.3081,0.34015 -1.9453,0.56445 -1.1824,-1.98 -1.5947,-2.6693 -2.3789,-2.2695 -0.90164,0.45973 -0.56148,1.2412 -0.10156,3.3535 -0.59497,0.31083 -1.1717,0.65459 -1.7285,1.0293 -1.734,-1.5632 -2.3297,-2.1063 -2.9648,-1.4902 -0.71652,0.69518 -0.18151,1.3434 0.85156,3.168 -0.50048,0.46274 -0.97292,0.95468 -1.418,1.4707 -2.0576,-1.1002 -2.768,-1.485 -3.2363,-0.73438 -0.5315,0.85179 0.15311,1.351 1.6113,2.8945 -0.35653,0.56084 -0.68203,1.1398 -0.97461,1.7363 -2.0518,-0.43825 -2.831,-0.7556 -3.2793,0.13672 -0.39648,0.78915 0.29842,1.1953 2.3008,2.375 -0.20349,0.64612 -0.37039,1.304 -0.5,1.9688 -2.0755,0.10613 -2.9084,0.0086 -3.1094,0.98242 -0.17681,0.8569 0.59324,1.0742 2.7852,1.6816 -0.02608,0.66709 -0.0148,1.3362 0.0332,2.002 -1.961,0.68662 -2.7886,0.82753 -2.707,1.8184 0.07094,0.86058 0.86416,0.86379 3.0703,0.83008 0.11543,0.50815 0.25918,1.0078 0.41797,1.5039 0.03664,0.1316 0.09659,0.23509 0.15625,0.33789 h 2.9492 c -0.78578,-3.1853 -1.7323,-7.3779 -0.04102,-11.752 0.31696,-0.81961 0.69338,-1.5252 1.1211,-2.0781 1.8446,-2.986 4.6367,-5.2673 7.9316,-6.4766 0.43411,-0.22043 1.0321,-0.38975 1.6953,-0.52148 0.47646,-0.12129 0.95957,-0.22087 1.4453,-0.29688 0.51699,-0.07563 1.0366,-0.12482 1.5586,-0.14844 2.0699,-0.09214 5.156,0.35093 7.7148,1.5312 v -5.2676 c -0.13583,-0.15306 -0.29815,-0.18372 -0.49414,-0.02734 -0.37324,0.36813 -0.75409,1.0474 -1.3906,2.0469 -0.64547,-0.19987 -1.3009,-0.36347 -1.9648,-0.49024 -0.14423,-2.3293 -0.19143,-3.1342 -1.0762,-3.1387 z"
       fill="#ffffff"
       opacity="0.1"
       id="path1182" />
    <g
       transform="translate(-18.663,0.010184)"
       id="g1198">
      <g
         stroke="#010101"
         stroke-linecap="round"
         stroke-linejoin="round"
         id="g1194">
        <path
           d="m 27.14,3.0729 c -0.26337,0.022284 -0.26214,0.24521 -0.35656,0.7927 a 4.7962,4.7831 0 0 0 -0.53071,0.072862 c -0.23357,-0.56371 -0.31524,-0.7598 -0.53587,-0.68522 -0.25367,0.085752 -0.19438,0.30324 -0.15503,0.87383 a 4.7962,4.7831 0 0 0 -0.49246,0.20308 c -0.39394,-0.47576 -0.5289,-0.64078 -0.71881,-0.50384 -0.21424,0.15449 -0.09914,0.34516 0.10128,0.86246 a 4.7962,4.7831 0 0 0 -0.42787,0.33021 c -0.49643,-0.36697 -0.66714,-0.49477 -0.81854,-0.31625 -0.17182,0.20258 -0.01195,0.35904 0.31057,0.81906 a 4.7962,4.7831 0 0 0 -0.32194,0.41754 c -0.5203,-0.19345 -0.7119,-0.3063 -0.8635,-0.089915 -0.13408,0.19137 0.03216,0.32436 0.51107,0.71002 a 4.7962,4.7831 0 0 0 -0.2067,0.49608 c -0.5474,-0.051863 -0.76164,-0.10976 -0.85161,0.13746 -0.07916,0.21754 0.11406,0.30465 0.66455,0.54776 a 4.7962,4.7831 0 0 0 -0.06821,0.52502 c -0.53968,0.1045 -0.7616,0.10954 -0.77823,0.37206 -0.01445,0.22801 0.1932,0.25902 0.77203,0.33486 a 4.7962,4.7831 0 0 0 0.077,0.55809 c -0.49589,0.21729 -0.70911,0.27327 -0.66765,0.53122 0.03692,0.22973 0.24838,0.20974 0.85471,0.15348 a 4.7962,4.7831 0 0 0 0.21445,0.51624 c -0.42279,0.3277 -0.6143,0.43465 -0.51159,0.67333 0.09234,0.21456 0.29296,0.14265 0.87228,-0.06201 a 4.7962,4.7831 0 0 0 0.31315,0.40462 c -0.31887,0.46822 -0.47791,0.62677 -0.30282,0.82784 0.15273,0.17538 0.32185,0.04697 0.80614,-0.3209 a 4.7962,4.7831 0 0 0 0.42891,0.33072 c -0.19409,0.54031 -0.31095,0.73378 -0.08991,0.88572 0.19358,0.13308 0.32492,-0.0357 0.71105,-0.52399 l -0.09457,-0.05633 a 4.7962,4.7831 0 0 0 0.56326,0.24081 c -0.03741,0.55479 -0.09109,0.77141 0.15968,0.85523 0.21711,0.07257 0.30025,-0.12048 0.52296,-0.663 a 4.7962,4.7831 0 0 0 0.54311,0.07235 c 0.10262,0.61379 0.13575,0.82517 0.36948,0.802 0.26242,-0.02601 0.25875,-0.24874 0.34467,-0.79477 a 4.7962,4.7831 0 0 0 0.54724,-0.07183 c 0.22583,0.55021 0.30814,0.7448 0.52657,0.67178 0.25086,-0.08385 0.19709,-0.30002 0.15968,-0.85523 a 4.7962,4.7831 0 0 0 0.49814,-0.20257 c 0.37499,0.4742 0.50698,0.63988 0.69813,0.50849 0.21701,-0.14918 0.10708,-0.34178 -0.08061,-0.85988 a 4.7962,4.7831 0 0 0 0.44286,-0.33847 c 0.46391,0.35227 0.6335,0.47546 0.7834,0.30334 0.17072,-0.19603 0.02077,-0.35586 -0.28215,-0.79735 a 4.7962,4.7831 0 0 0 0.32348,-0.4134 c 0.56642,0.20009 0.76637,0.26932 0.85781,0.05684 0.10212,-0.23727 -0.08733,-0.34502 -0.50487,-0.66816 a 4.7962,4.7831 0 0 0 0.2191,-0.52037 c 0.59578,0.05526 0.8067,0.07348 0.84334,-0.15451 0.04106,-0.25546 -0.16965,-0.31346 -0.65524,-0.52554 a 4.7962,4.7831 0 0 0 0.07183,-0.56481 c 0.5723,-0.075019 0.77865,-0.10694 0.76428,-0.33382 -0.01646,-0.25964 -0.23547,-0.26776 -0.76221,-0.36896 a 4.7962,4.7831 0 0 0 -0.07338,-0.53329 c 0.54101,-0.23896 0.73279,-0.32668 0.65421,-0.54259 -0.08924,-0.2452 -0.30278,-0.19 -0.84024,-0.13849 A 4.7962,4.7831 0 0 0 31.4714,6.550667 c 0.46944,-0.37804 0.63366,-0.51151 0.50074,-0.70124 -0.15096,-0.21547 -0.34301,-0.10409 -0.85833,0.087848 a 4.7962,4.7831 0 0 0 -0.33072,-0.42736 c 0.34811,-0.49194 0.4691,-0.66567 0.28938,-0.81182 -0.20193,-0.16418 -0.3564,-0.00887 -0.78857,0.30954 a 4.7962,4.7831 0 0 0 -0.43769,-0.33486 c 0.23038,-0.56236 0.31056,-0.75913 0.1018,-0.86143 -0.24029,-0.11775 -0.35211,0.078454 -0.72552,0.51055 a 4.7962,4.7831 0 0 0 -0.49557,-0.20412 c 0.05162,-0.61529 0.07073,-0.82735 -0.16071,-0.86246 -0.25955,-0.03937 -0.31207,0.17547 -0.52761,0.6785 A 4.7962,4.7831 0 0 0 27.49549,3.86612 C 27.403663,3.26362 27.3719,3.05328 27.13996,3.0729 Z m -0.19172,1.4696 c 0.53092,-0.00889 1.1615,0.086172 1.3663,0.17518 0.89142,0.27173 1.7159,0.77129 2.4179,1.9337 0.13073,0.21648 0.22435,0.42673 0.26665,0.61855 0.04199,0.20171 0.02643,0.4361 -0.10387,0.62114 C 30.78361,8.03821 30.64535,8.17671 30.4524,8.1944 29.85193,8.250658 29.0378,8.218918 28.3952,8.211971 28.28708,8.210811 28.18393,8.167038 28.15284,8.132907 27.96248,8.012937 27.83442,7.752247 27.62213,7.678677 27.28321,7.521657 27.14565,7.653362 26.95449,7.418237 c -0.35214,-0.56491 -0.69287,-1.1454 -1.0056,-1.7218 -0.22659,-0.39444 -0.07693,-0.78922 0.26458,-1.002 0.13362,-0.10365 0.41627,-0.1466 0.73483,-0.15193 z m -2.3662,1.2164 c 0.02765,-8.731e-4 0.05557,2.615e-4 0.08372,0.0031 0.18299,0.025071 0.3715,0.077238 0.48161,0.23667 0.34371,0.49558 0.71548,1.2206 1.0247,1.7838 0.05204,0.094778 0.06461,0.20627 0.05013,0.25011 -0.01111,0.22474 -0.17547,0.46465 -0.13539,0.68573 0.02952,0.37236 0.21182,0.42704 0.10077,0.70899 -0.3194,0.58405 -0.65842,1.166 -1.0072,1.7213 -0.23248,0.39101 -0.64952,0.45462 -1.0025,0.26148 -0.41571,-0.17482 -0.97404,-1.4868 -1.0108,-1.8422 C 22.96641,8.65784 22.997,7.69438 23.66527,6.51228 23.78973,6.29213 23.92713,6.10688 24.07351,5.97589 24.20926,5.85726 24.38845,5.76492 24.582,5.75885 Z m 2.5667,2.5068 a 0.36973,0.36973 0 0 1 0.0021,0 0.36973,0.36973 0 0 1 0.37,0.37 0.36973,0.36973 0 0 1 -0.37,0.36948 0.36973,0.36973 0 0 1 -0.36948,-0.36948 0.36973,0.36973 0 0 1 0.36741,-0.37 z m 2.1838,0.80459 c 0.33337,0.00172 0.66552,0.00851 0.9932,0.020671 0.45486,0.00582 0.71836,0.33514 0.72759,0.73741 0.05645,0.44743 -0.80043,1.5872 -1.0898,1.7968 -0.68776,0.62884 -1.5375,1.0837 -2.8954,1.096 -0.25288,0.0023 -0.48153,-0.02399 -0.66816,-0.08526 -0.19499,-0.06657 -0.3887,-0.1993 -0.48161,-0.40565 -0.06979,-0.17101 -0.11919,-0.3608 -0.03617,-0.53588 0.25733,-0.54545 0.69987,-1.2298 1.033,-1.7792 0.05606,-0.092458 0.146,-0.1591 0.1912,-0.16846 0.20018,-0.10275 0.49002,-0.080062 0.66145,-0.2253 0.30771,-0.21174 0.2646,-0.39703 0.5643,-0.44182 0.33274,-0.00771 0.66706,-0.011028 1.0004,-0.0093 z"
           opacity="0.03"
           stroke-width="1.3229"
           id="path1184" />
        <path
           d="m 27.14,3.0729 c -0.26337,0.022284 -0.26214,0.24521 -0.35656,0.7927 a 4.7962,4.7831 0 0 0 -0.53071,0.072862 c -0.23357,-0.56371 -0.31524,-0.7598 -0.53587,-0.68522 -0.25367,0.085752 -0.19438,0.30324 -0.15503,0.87383 a 4.7962,4.7831 0 0 0 -0.49246,0.20308 c -0.39394,-0.47576 -0.5289,-0.64078 -0.71881,-0.50384 -0.21424,0.15449 -0.09914,0.34516 0.10128,0.86246 a 4.7962,4.7831 0 0 0 -0.42787,0.33021 c -0.49643,-0.36697 -0.66714,-0.49477 -0.81854,-0.31625 -0.17182,0.20258 -0.01195,0.35904 0.31057,0.81906 a 4.7962,4.7831 0 0 0 -0.32194,0.41754 c -0.5203,-0.19345 -0.7119,-0.3063 -0.8635,-0.089915 -0.13408,0.19137 0.03216,0.32436 0.51107,0.71002 a 4.7962,4.7831 0 0 0 -0.2067,0.49608 c -0.5474,-0.051863 -0.76164,-0.10976 -0.85161,0.13746 -0.07916,0.21754 0.11406,0.30465 0.66455,0.54776 a 4.7962,4.7831 0 0 0 -0.06821,0.52502 c -0.53968,0.1045 -0.7616,0.10954 -0.77823,0.37206 -0.01445,0.22801 0.1932,0.25902 0.77203,0.33486 a 4.7962,4.7831 0 0 0 0.077,0.55809 c -0.49589,0.21729 -0.70911,0.27327 -0.66765,0.53122 0.03692,0.22973 0.24838,0.20974 0.85471,0.15348 a 4.7962,4.7831 0 0 0 0.21445,0.51624 c -0.42279,0.3277 -0.6143,0.43465 -0.51159,0.67333 0.09234,0.21456 0.29296,0.14265 0.87228,-0.06201 a 4.7962,4.7831 0 0 0 0.31315,0.40462 c -0.31887,0.46822 -0.47791,0.62677 -0.30282,0.82784 0.15273,0.17538 0.32185,0.04697 0.80614,-0.3209 a 4.7962,4.7831 0 0 0 0.42891,0.33072 c -0.19409,0.54031 -0.31095,0.73378 -0.08991,0.88572 0.19358,0.13308 0.32492,-0.0357 0.71105,-0.52399 l -0.09457,-0.05633 a 4.7962,4.7831 0 0 0 0.56326,0.24081 c -0.03741,0.55479 -0.09109,0.77141 0.15968,0.85523 0.21711,0.07257 0.30025,-0.12048 0.52296,-0.663 a 4.7962,4.7831 0 0 0 0.54311,0.07235 c 0.10262,0.61379 0.13575,0.82517 0.36948,0.802 0.26242,-0.02601 0.25875,-0.24874 0.34467,-0.79477 a 4.7962,4.7831 0 0 0 0.54724,-0.07183 c 0.22583,0.55021 0.30814,0.7448 0.52657,0.67178 0.25086,-0.08385 0.19709,-0.30002 0.15968,-0.85523 a 4.7962,4.7831 0 0 0 0.49814,-0.20257 c 0.37499,0.4742 0.50698,0.63988 0.69813,0.50849 0.21701,-0.14918 0.10708,-0.34178 -0.08061,-0.85988 a 4.7962,4.7831 0 0 0 0.44286,-0.33847 c 0.46391,0.35227 0.6335,0.47546 0.7834,0.30334 0.17072,-0.19603 0.02077,-0.35586 -0.28215,-0.79735 a 4.7962,4.7831 0 0 0 0.32348,-0.4134 c 0.56642,0.20009 0.76637,0.26932 0.85781,0.05684 0.10212,-0.23727 -0.08733,-0.34502 -0.50487,-0.66816 a 4.7962,4.7831 0 0 0 0.2191,-0.52037 c 0.59578,0.05526 0.8067,0.07348 0.84334,-0.15451 0.04106,-0.25546 -0.16965,-0.31346 -0.65524,-0.52554 a 4.7962,4.7831 0 0 0 0.07183,-0.56481 c 0.5723,-0.075019 0.77865,-0.10694 0.76428,-0.33382 -0.01646,-0.25964 -0.23547,-0.26776 -0.76221,-0.36896 a 4.7962,4.7831 0 0 0 -0.07338,-0.53329 c 0.54101,-0.23896 0.73279,-0.32668 0.65421,-0.54259 -0.08924,-0.2452 -0.30278,-0.19 -0.84024,-0.13849 A 4.7962,4.7831 0 0 0 31.4714,6.550667 c 0.46944,-0.37804 0.63366,-0.51151 0.50074,-0.70124 -0.15096,-0.21547 -0.34301,-0.10409 -0.85833,0.087848 a 4.7962,4.7831 0 0 0 -0.33072,-0.42736 c 0.34811,-0.49194 0.4691,-0.66567 0.28938,-0.81182 -0.20193,-0.16418 -0.3564,-0.00887 -0.78857,0.30954 a 4.7962,4.7831 0 0 0 -0.43769,-0.33486 c 0.23038,-0.56236 0.31056,-0.75913 0.1018,-0.86143 -0.24029,-0.11775 -0.35211,0.078454 -0.72552,0.51055 a 4.7962,4.7831 0 0 0 -0.49557,-0.20412 c 0.05162,-0.61529 0.07073,-0.82735 -0.16071,-0.86246 -0.25955,-0.03937 -0.31207,0.17547 -0.52761,0.6785 A 4.7962,4.7831 0 0 0 27.49549,3.86612 C 27.403663,3.26362 27.3719,3.05328 27.13996,3.0729 Z m -0.19172,1.4696 c 0.53092,-0.00889 1.1615,0.086172 1.3663,0.17518 0.89142,0.27173 1.7159,0.77129 2.4179,1.9337 0.13073,0.21648 0.22435,0.42673 0.26665,0.61855 0.04199,0.20171 0.02643,0.4361 -0.10387,0.62114 C 30.78361,8.03821 30.64535,8.17671 30.4524,8.1944 29.85193,8.250658 29.0378,8.218918 28.3952,8.211971 28.28708,8.210811 28.18393,8.167038 28.15284,8.132907 27.96248,8.012937 27.83442,7.752247 27.62213,7.678677 27.28321,7.521657 27.14565,7.653362 26.95449,7.418237 c -0.35214,-0.56491 -0.69287,-1.1454 -1.0056,-1.7218 -0.22659,-0.39444 -0.07693,-0.78922 0.26458,-1.002 0.13362,-0.10365 0.41627,-0.1466 0.73483,-0.15193 z m -2.3662,1.2164 c 0.02765,-8.731e-4 0.05557,2.615e-4 0.08372,0.0031 0.18299,0.025071 0.3715,0.077238 0.48161,0.23667 0.34371,0.49558 0.71548,1.2206 1.0247,1.7838 0.05204,0.094778 0.06461,0.20627 0.05013,0.25011 -0.01111,0.22474 -0.17547,0.46465 -0.13539,0.68573 0.02952,0.37236 0.21182,0.42704 0.10077,0.70899 -0.3194,0.58405 -0.65842,1.166 -1.0072,1.7213 -0.23248,0.39101 -0.64952,0.45462 -1.0025,0.26148 -0.41571,-0.17482 -0.97404,-1.4868 -1.0108,-1.8422 C 22.96641,8.65784 22.997,7.69438 23.66527,6.51228 23.78973,6.29213 23.92713,6.10688 24.07351,5.97589 24.20926,5.85726 24.38845,5.76492 24.582,5.75885 Z m 2.5667,2.5068 a 0.36973,0.36973 0 0 1 0.0021,0 0.36973,0.36973 0 0 1 0.37,0.37 0.36973,0.36973 0 0 1 -0.37,0.36948 0.36973,0.36973 0 0 1 -0.36948,-0.36948 0.36973,0.36973 0 0 1 0.36741,-0.37 z m 2.1838,0.80459 c 0.33337,0.00172 0.66552,0.00851 0.9932,0.020671 0.45486,0.00582 0.71836,0.33514 0.72759,0.73741 0.05645,0.44743 -0.80043,1.5872 -1.0898,1.7968 -0.68776,0.62884 -1.5375,1.0837 -2.8954,1.096 -0.25288,0.0023 -0.48153,-0.02399 -0.66816,-0.08526 -0.19499,-0.06657 -0.3887,-0.1993 -0.48161,-0.40565 -0.06979,-0.17101 -0.11919,-0.3608 -0.03617,-0.53588 0.25733,-0.54545 0.69987,-1.2298 1.033,-1.7792 0.05606,-0.092458 0.146,-0.1591 0.1912,-0.16846 0.20018,-0.10275 0.49002,-0.080062 0.66145,-0.2253 0.30771,-0.21174 0.2646,-0.39703 0.5643,-0.44182 0.33274,-0.00771 0.66706,-0.011028 1.0004,-0.0093 z"
           opacity="0.04"
           stroke-width="1.0583"
           id="path1186" />
        <path
           d="m 27.14,3.0729 c -0.26337,0.022284 -0.26214,0.24521 -0.35656,0.7927 a 4.7962,4.7831 0 0 0 -0.53071,0.072862 c -0.23357,-0.56371 -0.31524,-0.7598 -0.53587,-0.68522 -0.25367,0.085752 -0.19438,0.30324 -0.15503,0.87383 a 4.7962,4.7831 0 0 0 -0.49246,0.20308 c -0.39394,-0.47576 -0.5289,-0.64078 -0.71881,-0.50384 -0.21424,0.15449 -0.09914,0.34516 0.10128,0.86246 a 4.7962,4.7831 0 0 0 -0.42787,0.33021 c -0.49643,-0.36697 -0.66714,-0.49477 -0.81854,-0.31625 -0.17182,0.20258 -0.01195,0.35904 0.31057,0.81906 a 4.7962,4.7831 0 0 0 -0.32194,0.41754 c -0.5203,-0.19345 -0.7119,-0.3063 -0.8635,-0.089915 -0.13408,0.19137 0.03216,0.32436 0.51107,0.71002 a 4.7962,4.7831 0 0 0 -0.2067,0.49608 c -0.5474,-0.051863 -0.76164,-0.10976 -0.85161,0.13746 -0.07916,0.21754 0.11406,0.30465 0.66455,0.54776 a 4.7962,4.7831 0 0 0 -0.06821,0.52502 c -0.53968,0.1045 -0.7616,0.10954 -0.77823,0.37206 -0.01445,0.22801 0.1932,0.25902 0.77203,0.33486 a 4.7962,4.7831 0 0 0 0.077,0.55809 c -0.49589,0.21729 -0.70911,0.27327 -0.66765,0.53122 0.03692,0.22973 0.24838,0.20974 0.85471,0.15348 a 4.7962,4.7831 0 0 0 0.21445,0.51624 c -0.42279,0.3277 -0.6143,0.43465 -0.51159,0.67333 0.09234,0.21456 0.29296,0.14265 0.87228,-0.06201 a 4.7962,4.7831 0 0 0 0.31315,0.40462 c -0.31887,0.46822 -0.47791,0.62677 -0.30282,0.82784 0.15273,0.17538 0.32185,0.04697 0.80614,-0.3209 a 4.7962,4.7831 0 0 0 0.42891,0.33072 c -0.19409,0.54031 -0.31095,0.73378 -0.08991,0.88572 0.19358,0.13308 0.32492,-0.0357 0.71105,-0.52399 l -0.09457,-0.05633 a 4.7962,4.7831 0 0 0 0.56326,0.24081 c -0.03741,0.55479 -0.09109,0.77141 0.15968,0.85523 0.21711,0.07257 0.30025,-0.12048 0.52296,-0.663 a 4.7962,4.7831 0 0 0 0.54311,0.07235 c 0.10262,0.61379 0.13575,0.82517 0.36948,0.802 0.26242,-0.02601 0.25875,-0.24874 0.34467,-0.79477 a 4.7962,4.7831 0 0 0 0.54724,-0.07183 c 0.22583,0.55021 0.30814,0.7448 0.52657,0.67178 0.25086,-0.08385 0.19709,-0.30002 0.15968,-0.85523 a 4.7962,4.7831 0 0 0 0.49814,-0.20257 c 0.37499,0.4742 0.50698,0.63988 0.69813,0.50849 0.21701,-0.14918 0.10708,-0.34178 -0.08061,-0.85988 a 4.7962,4.7831 0 0 0 0.44286,-0.33847 c 0.46391,0.35227 0.6335,0.47546 0.7834,0.30334 0.17072,-0.19603 0.02077,-0.35586 -0.28215,-0.79735 a 4.7962,4.7831 0 0 0 0.32348,-0.4134 c 0.56642,0.20009 0.76637,0.26932 0.85781,0.05684 0.10212,-0.23727 -0.08733,-0.34502 -0.50487,-0.66816 a 4.7962,4.7831 0 0 0 0.2191,-0.52037 c 0.59578,0.05526 0.8067,0.07348 0.84334,-0.15451 0.04106,-0.25546 -0.16965,-0.31346 -0.65524,-0.52554 a 4.7962,4.7831 0 0 0 0.07183,-0.56481 c 0.5723,-0.075019 0.77865,-0.10694 0.76428,-0.33382 -0.01646,-0.25964 -0.23547,-0.26776 -0.76221,-0.36896 a 4.7962,4.7831 0 0 0 -0.07338,-0.53329 c 0.54101,-0.23896 0.73279,-0.32668 0.65421,-0.54259 -0.08924,-0.2452 -0.30278,-0.19 -0.84024,-0.13849 A 4.7962,4.7831 0 0 0 31.4714,6.550667 c 0.46944,-0.37804 0.63366,-0.51151 0.50074,-0.70124 -0.15096,-0.21547 -0.34301,-0.10409 -0.85833,0.087848 a 4.7962,4.7831 0 0 0 -0.33072,-0.42736 c 0.34811,-0.49194 0.4691,-0.66567 0.28938,-0.81182 -0.20193,-0.16418 -0.3564,-0.00887 -0.78857,0.30954 a 4.7962,4.7831 0 0 0 -0.43769,-0.33486 c 0.23038,-0.56236 0.31056,-0.75913 0.1018,-0.86143 -0.24029,-0.11775 -0.35211,0.078454 -0.72552,0.51055 a 4.7962,4.7831 0 0 0 -0.49557,-0.20412 c 0.05162,-0.61529 0.07073,-0.82735 -0.16071,-0.86246 -0.25955,-0.03937 -0.31207,0.17547 -0.52761,0.6785 A 4.7962,4.7831 0 0 0 27.49549,3.86612 C 27.403663,3.26362 27.3719,3.05328 27.13996,3.0729 Z m -0.19172,1.4696 c 0.53092,-0.00889 1.1615,0.086172 1.3663,0.17518 0.89142,0.27173 1.7159,0.77129 2.4179,1.9337 0.13073,0.21648 0.22435,0.42673 0.26665,0.61855 0.04199,0.20171 0.02643,0.4361 -0.10387,0.62114 C 30.78361,8.03821 30.64535,8.17671 30.4524,8.1944 29.85193,8.250658 29.0378,8.218918 28.3952,8.211971 28.28708,8.210811 28.18393,8.167038 28.15284,8.132907 27.96248,8.012937 27.83442,7.752247 27.62213,7.678677 27.28321,7.521657 27.14565,7.653362 26.95449,7.418237 c -0.35214,-0.56491 -0.69287,-1.1454 -1.0056,-1.7218 -0.22659,-0.39444 -0.07693,-0.78922 0.26458,-1.002 0.13362,-0.10365 0.41627,-0.1466 0.73483,-0.15193 z m -2.3662,1.2164 c 0.02765,-8.731e-4 0.05557,2.615e-4 0.08372,0.0031 0.18299,0.025071 0.3715,0.077238 0.48161,0.23667 0.34371,0.49558 0.71548,1.2206 1.0247,1.7838 0.05204,0.094778 0.06461,0.20627 0.05013,0.25011 -0.01111,0.22474 -0.17547,0.46465 -0.13539,0.68573 0.02952,0.37236 0.21182,0.42704 0.10077,0.70899 -0.3194,0.58405 -0.65842,1.166 -1.0072,1.7213 -0.23248,0.39101 -0.64952,0.45462 -1.0025,0.26148 -0.41571,-0.17482 -0.97404,-1.4868 -1.0108,-1.8422 C 22.96641,8.65784 22.997,7.69438 23.66527,6.51228 23.78973,6.29213 23.92713,6.10688 24.07351,5.97589 24.20926,5.85726 24.38845,5.76492 24.582,5.75885 Z m 2.5667,2.5068 a 0.36973,0.36973 0 0 1 0.0021,0 0.36973,0.36973 0 0 1 0.37,0.37 0.36973,0.36973 0 0 1 -0.37,0.36948 0.36973,0.36973 0 0 1 -0.36948,-0.36948 0.36973,0.36973 0 0 1 0.36741,-0.37 z m 2.1838,0.80459 c 0.33337,0.00172 0.66552,0.00851 0.9932,0.020671 0.45486,0.00582 0.71836,0.33514 0.72759,0.73741 0.05645,0.44743 -0.80043,1.5872 -1.0898,1.7968 -0.68776,0.62884 -1.5375,1.0837 -2.8954,1.096 -0.25288,0.0023 -0.48153,-0.02399 -0.66816,-0.08526 -0.19499,-0.06657 -0.3887,-0.1993 -0.48161,-0.40565 -0.06979,-0.17101 -0.11919,-0.3608 -0.03617,-0.53588 0.25733,-0.54545 0.69987,-1.2298 1.033,-1.7792 0.05606,-0.092458 0.146,-0.1591 0.1912,-0.16846 0.20018,-0.10275 0.49002,-0.080062 0.66145,-0.2253 0.30771,-0.21174 0.2646,-0.39703 0.5643,-0.44182 0.33274,-0.00771 0.66706,-0.011028 1.0004,-0.0093 z"
           opacity="0.05"
           stroke-width="0.79373"
           id="path1188" />
        <path
           d="m 27.14,3.0729 c -0.26337,0.022284 -0.26214,0.24521 -0.35656,0.7927 a 4.7962,4.7831 0 0 0 -0.53071,0.072862 c -0.23357,-0.56371 -0.31524,-0.7598 -0.53587,-0.68522 -0.25367,0.085752 -0.19438,0.30324 -0.15503,0.87383 a 4.7962,4.7831 0 0 0 -0.49246,0.20308 c -0.39394,-0.47576 -0.5289,-0.64078 -0.71881,-0.50384 -0.21424,0.15449 -0.09914,0.34516 0.10128,0.86246 a 4.7962,4.7831 0 0 0 -0.42787,0.33021 c -0.49643,-0.36697 -0.66714,-0.49477 -0.81854,-0.31625 -0.17182,0.20258 -0.01195,0.35904 0.31057,0.81906 a 4.7962,4.7831 0 0 0 -0.32194,0.41754 c -0.5203,-0.19345 -0.7119,-0.3063 -0.8635,-0.089915 -0.13408,0.19137 0.03216,0.32436 0.51107,0.71002 a 4.7962,4.7831 0 0 0 -0.2067,0.49608 c -0.5474,-0.051863 -0.76164,-0.10976 -0.85161,0.13746 -0.07916,0.21754 0.11406,0.30465 0.66455,0.54776 a 4.7962,4.7831 0 0 0 -0.06821,0.52502 c -0.53968,0.1045 -0.7616,0.10954 -0.77823,0.37206 -0.01445,0.22801 0.1932,0.25902 0.77203,0.33486 a 4.7962,4.7831 0 0 0 0.077,0.55809 c -0.49589,0.21729 -0.70911,0.27327 -0.66765,0.53122 0.03692,0.22973 0.24838,0.20974 0.85471,0.15348 a 4.7962,4.7831 0 0 0 0.21445,0.51624 c -0.42279,0.3277 -0.6143,0.43465 -0.51159,0.67333 0.09234,0.21456 0.29296,0.14265 0.87228,-0.06201 a 4.7962,4.7831 0 0 0 0.31315,0.40462 c -0.31887,0.46822 -0.47791,0.62677 -0.30282,0.82784 0.15273,0.17538 0.32185,0.04697 0.80614,-0.3209 a 4.7962,4.7831 0 0 0 0.42891,0.33072 c -0.19409,0.54031 -0.31095,0.73378 -0.08991,0.88572 0.19358,0.13308 0.32492,-0.0357 0.71105,-0.52399 l -0.09457,-0.05633 a 4.7962,4.7831 0 0 0 0.56326,0.24081 c -0.03741,0.55479 -0.09109,0.77141 0.15968,0.85523 0.21711,0.07257 0.30025,-0.12048 0.52296,-0.663 a 4.7962,4.7831 0 0 0 0.54311,0.07235 c 0.10262,0.61379 0.13575,0.82517 0.36948,0.802 0.26242,-0.02601 0.25875,-0.24874 0.34467,-0.79477 a 4.7962,4.7831 0 0 0 0.54724,-0.07183 c 0.22583,0.55021 0.30814,0.7448 0.52657,0.67178 0.25086,-0.08385 0.19709,-0.30002 0.15968,-0.85523 a 4.7962,4.7831 0 0 0 0.49814,-0.20257 c 0.37499,0.4742 0.50698,0.63988 0.69813,0.50849 0.21701,-0.14918 0.10708,-0.34178 -0.08061,-0.85988 a 4.7962,4.7831 0 0 0 0.44286,-0.33847 c 0.46391,0.35227 0.6335,0.47546 0.7834,0.30334 0.17072,-0.19603 0.02077,-0.35586 -0.28215,-0.79735 a 4.7962,4.7831 0 0 0 0.32348,-0.4134 c 0.56642,0.20009 0.76637,0.26932 0.85781,0.05684 0.10212,-0.23727 -0.08733,-0.34502 -0.50487,-0.66816 a 4.7962,4.7831 0 0 0 0.2191,-0.52037 c 0.59578,0.05526 0.8067,0.07348 0.84334,-0.15451 0.04106,-0.25546 -0.16965,-0.31346 -0.65524,-0.52554 a 4.7962,4.7831 0 0 0 0.07183,-0.56481 c 0.5723,-0.075019 0.77865,-0.10694 0.76428,-0.33382 -0.01646,-0.25964 -0.23547,-0.26776 -0.76221,-0.36896 a 4.7962,4.7831 0 0 0 -0.07338,-0.53329 c 0.54101,-0.23896 0.73279,-0.32668 0.65421,-0.54259 -0.08924,-0.2452 -0.30278,-0.19 -0.84024,-0.13849 A 4.7962,4.7831 0 0 0 31.4714,6.550667 c 0.46944,-0.37804 0.63366,-0.51151 0.50074,-0.70124 -0.15096,-0.21547 -0.34301,-0.10409 -0.85833,0.087848 a 4.7962,4.7831 0 0 0 -0.33072,-0.42736 c 0.34811,-0.49194 0.4691,-0.66567 0.28938,-0.81182 -0.20193,-0.16418 -0.3564,-0.00887 -0.78857,0.30954 a 4.7962,4.7831 0 0 0 -0.43769,-0.33486 c 0.23038,-0.56236 0.31056,-0.75913 0.1018,-0.86143 -0.24029,-0.11775 -0.35211,0.078454 -0.72552,0.51055 a 4.7962,4.7831 0 0 0 -0.49557,-0.20412 c 0.05162,-0.61529 0.07073,-0.82735 -0.16071,-0.86246 -0.25955,-0.03937 -0.31207,0.17547 -0.52761,0.6785 A 4.7962,4.7831 0 0 0 27.49549,3.86612 C 27.403663,3.26362 27.3719,3.05328 27.13996,3.0729 Z m -0.19172,1.4696 c 0.53092,-0.00889 1.1615,0.086172 1.3663,0.17518 0.89142,0.27173 1.7159,0.77129 2.4179,1.9337 0.13073,0.21648 0.22435,0.42673 0.26665,0.61855 0.04199,0.20171 0.02643,0.4361 -0.10387,0.62114 C 30.78361,8.03821 30.64535,8.17671 30.4524,8.1944 29.85193,8.250658 29.0378,8.218918 28.3952,8.211971 28.28708,8.210811 28.18393,8.167038 28.15284,8.132907 27.96248,8.012937 27.83442,7.752247 27.62213,7.678677 27.28321,7.521657 27.14565,7.653362 26.95449,7.418237 c -0.35214,-0.56491 -0.69287,-1.1454 -1.0056,-1.7218 -0.22659,-0.39444 -0.07693,-0.78922 0.26458,-1.002 0.13362,-0.10365 0.41627,-0.1466 0.73483,-0.15193 z m -2.3662,1.2164 c 0.02765,-8.731e-4 0.05557,2.615e-4 0.08372,0.0031 0.18299,0.025071 0.3715,0.077238 0.48161,0.23667 0.34371,0.49558 0.71548,1.2206 1.0247,1.7838 0.05204,0.094778 0.06461,0.20627 0.05013,0.25011 -0.01111,0.22474 -0.17547,0.46465 -0.13539,0.68573 0.02952,0.37236 0.21182,0.42704 0.10077,0.70899 -0.3194,0.58405 -0.65842,1.166 -1.0072,1.7213 -0.23248,0.39101 -0.64952,0.45462 -1.0025,0.26148 -0.41571,-0.17482 -0.97404,-1.4868 -1.0108,-1.8422 C 22.96641,8.65784 22.997,7.69438 23.66527,6.51228 23.78973,6.29213 23.92713,6.10688 24.07351,5.97589 24.20926,5.85726 24.38845,5.76492 24.582,5.75885 Z m 2.5667,2.5068 a 0.36973,0.36973 0 0 1 0.0021,0 0.36973,0.36973 0 0 1 0.37,0.37 0.36973,0.36973 0 0 1 -0.37,0.36948 0.36973,0.36973 0 0 1 -0.36948,-0.36948 0.36973,0.36973 0 0 1 0.36741,-0.37 z m 2.1838,0.80459 c 0.33337,0.00172 0.66552,0.00851 0.9932,0.020671 0.45486,0.00582 0.71836,0.33514 0.72759,0.73741 0.05645,0.44743 -0.80043,1.5872 -1.0898,1.7968 -0.68776,0.62884 -1.5375,1.0837 -2.8954,1.096 -0.25288,0.0023 -0.48153,-0.02399 -0.66816,-0.08526 -0.19499,-0.06657 -0.3887,-0.1993 -0.48161,-0.40565 -0.06979,-0.17101 -0.11919,-0.3608 -0.03617,-0.53588 0.25733,-0.54545 0.69987,-1.2298 1.033,-1.7792 0.05606,-0.092458 0.146,-0.1591 0.1912,-0.16846 0.20018,-0.10275 0.49002,-0.080062 0.66145,-0.2253 0.30771,-0.21174 0.2646,-0.39703 0.5643,-0.44182 0.33274,-0.00771 0.66706,-0.011028 1.0004,-0.0093 z"
           opacity="0.06"
           stroke-width="0.52916"
           id="path1190" />
        <path
           d="m 27.14,3.0729 c -0.26337,0.022284 -0.26214,0.24521 -0.35656,0.7927 a 4.7962,4.7831 0 0 0 -0.53071,0.072862 c -0.23357,-0.56371 -0.31524,-0.7598 -0.53587,-0.68522 -0.25367,0.085752 -0.19438,0.30324 -0.15503,0.87383 a 4.7962,4.7831 0 0 0 -0.49246,0.20308 c -0.39394,-0.47576 -0.5289,-0.64078 -0.71881,-0.50384 -0.21424,0.15449 -0.09914,0.34516 0.10128,0.86246 a 4.7962,4.7831 0 0 0 -0.42787,0.33021 c -0.49643,-0.36697 -0.66714,-0.49477 -0.81854,-0.31625 -0.17182,0.20258 -0.01195,0.35904 0.31057,0.81906 a 4.7962,4.7831 0 0 0 -0.32194,0.41754 c -0.5203,-0.19345 -0.7119,-0.3063 -0.8635,-0.089915 -0.13408,0.19137 0.03216,0.32436 0.51107,0.71002 a 4.7962,4.7831 0 0 0 -0.2067,0.49608 c -0.5474,-0.051863 -0.76164,-0.10976 -0.85161,0.13746 -0.07916,0.21754 0.11406,0.30465 0.66455,0.54776 a 4.7962,4.7831 0 0 0 -0.06821,0.52502 c -0.53968,0.1045 -0.7616,0.10954 -0.77823,0.37206 -0.01445,0.22801 0.1932,0.25902 0.77203,0.33486 a 4.7962,4.7831 0 0 0 0.077,0.55809 c -0.49589,0.21729 -0.70911,0.27327 -0.66765,0.53122 0.03692,0.22973 0.24838,0.20974 0.85471,0.15348 a 4.7962,4.7831 0 0 0 0.21445,0.51624 c -0.42279,0.3277 -0.6143,0.43465 -0.51159,0.67333 0.09234,0.21456 0.29296,0.14265 0.87228,-0.06201 a 4.7962,4.7831 0 0 0 0.31315,0.40462 c -0.31887,0.46822 -0.47791,0.62677 -0.30282,0.82784 0.15273,0.17538 0.32185,0.04697 0.80614,-0.3209 a 4.7962,4.7831 0 0 0 0.42891,0.33072 c -0.19409,0.54031 -0.31095,0.73378 -0.08991,0.88572 0.19358,0.13308 0.32492,-0.0357 0.71105,-0.52399 l -0.09457,-0.05633 a 4.7962,4.7831 0 0 0 0.56326,0.24081 c -0.03741,0.55479 -0.09109,0.77141 0.15968,0.85523 0.21711,0.07257 0.30025,-0.12048 0.52296,-0.663 a 4.7962,4.7831 0 0 0 0.54311,0.07235 c 0.10262,0.61379 0.13575,0.82517 0.36948,0.802 0.26242,-0.02601 0.25875,-0.24874 0.34467,-0.79477 a 4.7962,4.7831 0 0 0 0.54724,-0.07183 c 0.22583,0.55021 0.30814,0.7448 0.52657,0.67178 0.25086,-0.08385 0.19709,-0.30002 0.15968,-0.85523 a 4.7962,4.7831 0 0 0 0.49814,-0.20257 c 0.37499,0.4742 0.50698,0.63988 0.69813,0.50849 0.21701,-0.14918 0.10708,-0.34178 -0.08061,-0.85988 a 4.7962,4.7831 0 0 0 0.44286,-0.33847 c 0.46391,0.35227 0.6335,0.47546 0.7834,0.30334 0.17072,-0.19603 0.02077,-0.35586 -0.28215,-0.79735 a 4.7962,4.7831 0 0 0 0.32348,-0.4134 c 0.56642,0.20009 0.76637,0.26932 0.85781,0.05684 0.10212,-0.23727 -0.08733,-0.34502 -0.50487,-0.66816 a 4.7962,4.7831 0 0 0 0.2191,-0.52037 c 0.59578,0.05526 0.8067,0.07348 0.84334,-0.15451 0.04106,-0.25546 -0.16965,-0.31346 -0.65524,-0.52554 a 4.7962,4.7831 0 0 0 0.07183,-0.56481 c 0.5723,-0.075019 0.77865,-0.10694 0.76428,-0.33382 -0.01646,-0.25964 -0.23547,-0.26776 -0.76221,-0.36896 a 4.7962,4.7831 0 0 0 -0.07338,-0.53329 c 0.54101,-0.23896 0.73279,-0.32668 0.65421,-0.54259 -0.08924,-0.2452 -0.30278,-0.19 -0.84024,-0.13849 A 4.7962,4.7831 0 0 0 31.4714,6.550667 c 0.46944,-0.37804 0.63366,-0.51151 0.50074,-0.70124 -0.15096,-0.21547 -0.34301,-0.10409 -0.85833,0.087848 a 4.7962,4.7831 0 0 0 -0.33072,-0.42736 c 0.34811,-0.49194 0.4691,-0.66567 0.28938,-0.81182 -0.20193,-0.16418 -0.3564,-0.00887 -0.78857,0.30954 a 4.7962,4.7831 0 0 0 -0.43769,-0.33486 c 0.23038,-0.56236 0.31056,-0.75913 0.1018,-0.86143 -0.24029,-0.11775 -0.35211,0.078454 -0.72552,0.51055 a 4.7962,4.7831 0 0 0 -0.49557,-0.20412 c 0.05162,-0.61529 0.07073,-0.82735 -0.16071,-0.86246 -0.25955,-0.03937 -0.31207,0.17547 -0.52761,0.6785 A 4.7962,4.7831 0 0 0 27.49549,3.86612 C 27.403663,3.26362 27.3719,3.05328 27.13996,3.0729 Z m -0.19172,1.4696 c 0.53092,-0.00889 1.1615,0.086172 1.3663,0.17518 0.89142,0.27173 1.7159,0.77129 2.4179,1.9337 0.13073,0.21648 0.22435,0.42673 0.26665,0.61855 0.04199,0.20171 0.02643,0.4361 -0.10387,0.62114 C 30.78361,8.03821 30.64535,8.17671 30.4524,8.1944 29.85193,8.250658 29.0378,8.218918 28.3952,8.211971 28.28708,8.210811 28.18393,8.167038 28.15284,8.132907 27.96248,8.012937 27.83442,7.752247 27.62213,7.678677 27.28321,7.521657 27.14565,7.653362 26.95449,7.418237 c -0.35214,-0.56491 -0.69287,-1.1454 -1.0056,-1.7218 -0.22659,-0.39444 -0.07693,-0.78922 0.26458,-1.002 0.13362,-0.10365 0.41627,-0.1466 0.73483,-0.15193 z m -2.3662,1.2164 c 0.02765,-8.731e-4 0.05557,2.615e-4 0.08372,0.0031 0.18299,0.025071 0.3715,0.077238 0.48161,0.23667 0.34371,0.49558 0.71548,1.2206 1.0247,1.7838 0.05204,0.094778 0.06461,0.20627 0.05013,0.25011 -0.01111,0.22474 -0.17547,0.46465 -0.13539,0.68573 0.02952,0.37236 0.21182,0.42704 0.10077,0.70899 -0.3194,0.58405 -0.65842,1.166 -1.0072,1.7213 -0.23248,0.39101 -0.64952,0.45462 -1.0025,0.26148 -0.41571,-0.17482 -0.97404,-1.4868 -1.0108,-1.8422 C 22.96641,8.65784 22.997,7.69438 23.66527,6.51228 23.78973,6.29213 23.92713,6.10688 24.07351,5.97589 24.20926,5.85726 24.38845,5.76492 24.582,5.75885 Z m 2.5667,2.5068 a 0.36973,0.36973 0 0 1 0.0021,0 0.36973,0.36973 0 0 1 0.37,0.37 0.36973,0.36973 0 0 1 -0.37,0.36948 0.36973,0.36973 0 0 1 -0.36948,-0.36948 0.36973,0.36973 0 0 1 0.36741,-0.37 z m 2.1838,0.80459 c 0.33337,0.00172 0.66552,0.00851 0.9932,0.020671 0.45486,0.00582 0.71836,0.33514 0.72759,0.73741 0.05645,0.44743 -0.80043,1.5872 -1.0898,1.7968 -0.68776,0.62884 -1.5375,1.0837 -2.8954,1.096 -0.25288,0.0023 -0.48153,-0.02399 -0.66816,-0.08526 -0.19499,-0.06657 -0.3887,-0.1993 -0.48161,-0.40565 -0.06979,-0.17101 -0.11919,-0.3608 -0.03617,-0.53588 0.25733,-0.54545 0.69987,-1.2298 1.033,-1.7792 0.05606,-0.092458 0.146,-0.1591 0.1912,-0.16846 0.20018,-0.10275 0.49002,-0.080062 0.66145,-0.2253 0.30771,-0.21174 0.2646,-0.39703 0.5643,-0.44182 0.33274,-0.00771 0.66706,-0.011028 1.0004,-0.0093 z"
           opacity="0.07"
           stroke-width="0.26458"
           id="path1192" />
      </g>
      <path
         d="m 27.14,3.0729 c -0.26337,0.022284 -0.26214,0.24521 -0.35656,0.7927 a 4.7962,4.7831 0 0 0 -0.53071,0.072862 c -0.23357,-0.56371 -0.31524,-0.7598 -0.53587,-0.68522 -0.25367,0.085752 -0.19438,0.30324 -0.15503,0.87383 a 4.7962,4.7831 0 0 0 -0.49246,0.20308 c -0.39394,-0.47576 -0.5289,-0.64078 -0.71881,-0.50384 -0.21424,0.15449 -0.09914,0.34516 0.10128,0.86246 a 4.7962,4.7831 0 0 0 -0.42787,0.33021 c -0.49643,-0.36697 -0.66714,-0.49477 -0.81854,-0.31625 -0.17182,0.20258 -0.01195,0.35904 0.31057,0.81906 a 4.7962,4.7831 0 0 0 -0.32194,0.41754 c -0.5203,-0.19345 -0.7119,-0.3063 -0.8635,-0.089915 -0.13408,0.19137 0.03216,0.32436 0.51107,0.71002 a 4.7962,4.7831 0 0 0 -0.2067,0.49608 c -0.5474,-0.051863 -0.76164,-0.10976 -0.85161,0.13746 -0.07916,0.21754 0.11406,0.30465 0.66455,0.54776 a 4.7962,4.7831 0 0 0 -0.06821,0.52502 c -0.53968,0.1045 -0.7616,0.10954 -0.77823,0.37206 -0.01445,0.22801 0.1932,0.25902 0.77203,0.33486 a 4.7962,4.7831 0 0 0 0.077,0.55809 c -0.49589,0.21729 -0.70911,0.27327 -0.66765,0.53122 0.03692,0.22973 0.24838,0.20974 0.85471,0.15348 a 4.7962,4.7831 0 0 0 0.21445,0.51624 c -0.42279,0.3277 -0.6143,0.43465 -0.51159,0.67333 0.09234,0.21456 0.29296,0.14265 0.87228,-0.06201 a 4.7962,4.7831 0 0 0 0.31315,0.40462 c -0.31887,0.46822 -0.47791,0.62677 -0.30282,0.82784 0.15273,0.17538 0.32185,0.04697 0.80614,-0.3209 a 4.7962,4.7831 0 0 0 0.42891,0.33072 c -0.19409,0.54031 -0.31095,0.73378 -0.08991,0.88572 0.19358,0.13308 0.32492,-0.0357 0.71105,-0.52399 l -0.09457,-0.05633 a 4.7962,4.7831 0 0 0 0.56326,0.24081 c -0.03741,0.55479 -0.09109,0.77141 0.15968,0.85523 0.21711,0.07257 0.30025,-0.12048 0.52296,-0.663 a 4.7962,4.7831 0 0 0 0.54311,0.07235 c 0.10262,0.61379 0.13575,0.82517 0.36948,0.802 0.26242,-0.02601 0.25875,-0.24874 0.34467,-0.79477 a 4.7962,4.7831 0 0 0 0.54724,-0.07183 c 0.22583,0.55021 0.30814,0.7448 0.52657,0.67178 0.25086,-0.08385 0.19709,-0.30002 0.15968,-0.85523 a 4.7962,4.7831 0 0 0 0.49814,-0.20257 c 0.37499,0.4742 0.50698,0.63988 0.69813,0.50849 0.21701,-0.14918 0.10708,-0.34178 -0.08061,-0.85988 a 4.7962,4.7831 0 0 0 0.44286,-0.33847 c 0.46391,0.35227 0.6335,0.47546 0.7834,0.30334 0.17072,-0.19603 0.02077,-0.35586 -0.28215,-0.79735 a 4.7962,4.7831 0 0 0 0.32348,-0.4134 c 0.56642,0.20009 0.76637,0.26932 0.85781,0.05684 0.10212,-0.23727 -0.08733,-0.34502 -0.50487,-0.66816 a 4.7962,4.7831 0 0 0 0.2191,-0.52037 c 0.59578,0.05526 0.8067,0.07348 0.84334,-0.15451 0.04106,-0.25546 -0.16965,-0.31346 -0.65524,-0.52554 a 4.7962,4.7831 0 0 0 0.07183,-0.56481 c 0.5723,-0.075019 0.77865,-0.10694 0.76428,-0.33382 -0.01646,-0.25964 -0.23547,-0.26776 -0.76221,-0.36896 a 4.7962,4.7831 0 0 0 -0.07338,-0.53329 c 0.54101,-0.23896 0.73279,-0.32668 0.65421,-0.54259 -0.08924,-0.2452 -0.30278,-0.19 -0.84024,-0.13849 A 4.7962,4.7831 0 0 0 31.4714,6.550667 c 0.46944,-0.37804 0.63366,-0.51151 0.50074,-0.70124 -0.15096,-0.21547 -0.34301,-0.10409 -0.85833,0.087848 a 4.7962,4.7831 0 0 0 -0.33072,-0.42736 c 0.34811,-0.49194 0.4691,-0.66567 0.28938,-0.81182 -0.20193,-0.16418 -0.3564,-0.00887 -0.78857,0.30954 a 4.7962,4.7831 0 0 0 -0.43769,-0.33486 c 0.23038,-0.56236 0.31056,-0.75913 0.1018,-0.86143 -0.24029,-0.11775 -0.35211,0.078454 -0.72552,0.51055 a 4.7962,4.7831 0 0 0 -0.49557,-0.20412 c 0.05162,-0.61529 0.07073,-0.82735 -0.16071,-0.86246 -0.25955,-0.03937 -0.31207,0.17547 -0.52761,0.6785 A 4.7962,4.7831 0 0 0 27.49549,3.86612 C 27.403663,3.26362 27.3719,3.05328 27.13996,3.0729 Z m -0.19172,1.4696 c 0.53092,-0.00889 1.1615,0.086172 1.3663,0.17518 0.89142,0.27173 1.7159,0.77129 2.4179,1.9337 0.13073,0.21648 0.22435,0.42673 0.26665,0.61855 0.04199,0.20171 0.02643,0.4361 -0.10387,0.62114 C 30.78361,8.03821 30.64535,8.17671 30.4524,8.1944 29.85193,8.250658 29.0378,8.218918 28.3952,8.211971 28.28708,8.210811 28.18393,8.167038 28.15284,8.132907 27.96248,8.012937 27.83442,7.752247 27.62213,7.678677 27.28321,7.521657 27.14565,7.653362 26.95449,7.418237 c -0.35214,-0.56491 -0.69287,-1.1454 -1.0056,-1.7218 -0.22659,-0.39444 -0.07693,-0.78922 0.26458,-1.002 0.13362,-0.10365 0.41627,-0.1466 0.73483,-0.15193 z m -2.3662,1.2164 c 0.02765,-8.731e-4 0.05557,2.615e-4 0.08372,0.0031 0.18299,0.025071 0.3715,0.077238 0.48161,0.23667 0.34371,0.49558 0.71548,1.2206 1.0247,1.7838 0.05204,0.094778 0.06461,0.20627 0.05013,0.25011 -0.01111,0.22474 -0.17547,0.46465 -0.13539,0.68573 0.02952,0.37236 0.21182,0.42704 0.10077,0.70899 -0.3194,0.58405 -0.65842,1.166 -1.0072,1.7213 -0.23248,0.39101 -0.64952,0.45462 -1.0025,0.26148 -0.41571,-0.17482 -0.97404,-1.4868 -1.0108,-1.8422 C 22.96641,8.65784 22.997,7.69438 23.66527,6.51228 23.78973,6.29213 23.92713,6.10688 24.07351,5.97589 24.20926,5.85726 24.38845,5.76492 24.582,5.75885 Z m 2.5667,2.5068 a 0.36973,0.36973 0 0 1 0.0021,0 0.36973,0.36973 0 0 1 0.37,0.37 0.36973,0.36973 0 0 1 -0.37,0.36948 0.36973,0.36973 0 0 1 -0.36948,-0.36948 0.36973,0.36973 0 0 1 0.36741,-0.37 z m 2.1838,0.80459 c 0.33337,0.00172 0.66552,0.00851 0.9932,0.020671 0.45486,0.00582 0.71836,0.33514 0.72759,0.73741 0.05645,0.44743 -0.80043,1.5872 -1.0898,1.7968 -0.68776,0.62884 -1.5375,1.0837 -2.8954,1.096 -0.25288,0.0023 -0.48153,-0.02399 -0.66816,-0.08526 -0.19499,-0.06657 -0.3887,-0.1993 -0.48161,-0.40565 -0.06979,-0.17101 -0.11919,-0.3608 -0.03617,-0.53588 0.25733,-0.54545 0.69987,-1.2298 1.033,-1.7792 0.05606,-0.092458 0.146,-0.1591 0.1912,-0.16846 0.20018,-0.10275 0.49002,-0.080062 0.66145,-0.2253 0.30771,-0.21174 0.2646,-0.39703 0.5643,-0.44182 0.33274,-0.00771 0.66706,-0.011028 1.0004,-0.0093 z"
         opacity="0.25"
         stroke-width="0.25432"
         id="path1196" />
    </g>
    <path
       style="fill:url(#linearGradient1018)"
       d="M 8.4554,2.9037 C 8.19203,2.925984 8.19326,3.14891 8.09884,3.6964 A 4.7962,4.7831 0 0 0 7.56813,3.769262 C 7.33456,3.205552 7.25289,3.009462 7.03226,3.084042 6.77859,3.169794 6.83788,3.387282 6.87723,3.957872 A 4.7962,4.7831 0 0 0 6.38477,4.160952 C 5.99083,3.685192 5.85587,3.520172 5.66596,3.657112 5.45172,3.811602 5.56682,4.002272 5.76724,4.519572 A 4.7962,4.7831 0 0 0 5.33937,4.849782 C 4.84294,4.482812 4.67223,4.355012 4.52083,4.533532 4.34901,4.736112 4.50888,4.892572 4.8314,5.352592 a 4.7962,4.7831 0 0 0 -0.32194,0.41754 c -0.5203,-0.19345 -0.7119,-0.3063 -0.8635,-0.089915 -0.13408,0.19137 0.03216,0.32436 0.51107,0.71002 a 4.7962,4.7831 0 0 0 -0.2067,0.49608 c -0.5474,-0.051863 -0.76164,-0.10976 -0.85161,0.13746 -0.07916,0.21754 0.11406,0.30465 0.66455,0.54776 a 4.7962,4.7831 0 0 0 -0.06821,0.52502 c -0.53968,0.1045 -0.7616,0.10954 -0.77823,0.37206 -0.01445,0.22801 0.1932,0.25902 0.77203,0.33486 a 4.7962,4.7831 0 0 0 0.077,0.55809 c -0.49589,0.21729 -0.70911,0.27327 -0.66765,0.53122 0.03692,0.22973 0.24838,0.20974 0.85471,0.15348 a 4.7962,4.7831 0 0 0 0.21445,0.51624 c -0.42279,0.3277 -0.6143,0.43465 -0.51159,0.67333 0.09234,0.21456 0.29296,0.14265 0.87228,-0.06201 a 4.7962,4.7831 0 0 0 0.31315,0.40462 c -0.31887,0.46822 -0.47791,0.62677 -0.30282,0.82784 0.15273,0.17538 0.32185,0.04697 0.80614,-0.3209 a 4.7962,4.7831 0 0 0 0.42891,0.33072 c -0.19409,0.54031 -0.31095,0.73378 -0.08991,0.88572 0.19358,0.13308 0.32492,-0.0357 0.71105,-0.52399 l -0.09457,-0.05633 a 4.7962,4.7831 0 0 0 0.56326,0.24081 c -0.03741,0.55479 -0.09109,0.77141 0.15968,0.85523 0.21711,0.07257 0.30025,-0.12048 0.52296,-0.663 a 4.7962,4.7831 0 0 0 0.54311,0.07235 c 0.10262,0.61379 0.13575,0.82517 0.36948,0.802 0.26242,-0.02601 0.25875,-0.24874 0.34467,-0.79477 a 4.7962,4.7831 0 0 0 0.54724,-0.07183 c 0.22583,0.55021 0.30814,0.7448 0.52657,0.67178 0.25086,-0.08385 0.19709,-0.30002 0.15968,-0.85523 a 4.7962,4.7831 0 0 0 0.49814,-0.20257 c 0.37499,0.4742 0.50698,0.63988 0.69813,0.50849 0.21701,-0.14918 0.10708,-0.34178 -0.08061,-0.85988 a 4.7962,4.7831 0 0 0 0.44286,-0.33847 c 0.46391,0.35227 0.6335,0.47546 0.7834,0.30334 0.17072,-0.19603 0.02077,-0.35586 -0.28215,-0.79735 a 4.7962,4.7831 0 0 0 0.32348,-0.4134 c 0.56642,0.20009 0.76637,0.26932 0.85781,0.05684 0.10212,-0.23727 -0.08733,-0.34502 -0.50487,-0.66816 a 4.7962,4.7831 0 0 0 0.2191,-0.52037 c 0.59578,0.05526 0.8067,0.07348 0.84334,-0.15451 0.04106,-0.25546 -0.16965,-0.31346 -0.65524,-0.52554 a 4.7962,4.7831 0 0 0 0.07183,-0.56481 c 0.5723,-0.075019 0.77865,-0.10694 0.76428,-0.33382 -0.01646,-0.25964 -0.23547,-0.26776 -0.76221,-0.36896 a 4.7962,4.7831 0 0 0 -0.07338,-0.53329 c 0.54101,-0.23896 0.73279,-0.32668 0.65421,-0.54259 -0.08924,-0.2452 -0.30278,-0.19 -0.84024,-0.13849 A 4.7962,4.7831 0 0 0 12.7868,6.381467 c 0.46944,-0.37804 0.63366,-0.51151 0.50074,-0.70124 -0.15096,-0.21547 -0.34301,-0.10409 -0.85833,0.087848 a 4.7962,4.7831 0 0 0 -0.33072,-0.42736 c 0.34811,-0.49194 0.4691,-0.66567 0.28938,-0.81182 -0.20193,-0.16418 -0.3564,-0.00887 -0.78857,0.30954 a 4.7962,4.7831 0 0 0 -0.43769,-0.33486 c 0.23038,-0.56236 0.31056,-0.75913 0.1018,-0.86143 -0.24029,-0.11775 -0.35211,0.078454 -0.72552,0.51055 A 4.7962,4.7831 0 0 0 10.04232,3.948575 C 10.09394,3.333285 10.11305,3.121225 9.88161,3.086115 9.62206,3.046745 9.56954,3.261585 9.354,3.764615 A 4.7962,4.7831 0 0 0 8.81089,3.69692 C 8.719063,3.09442 8.6873,2.88408 8.45536,2.9037 Z M 8.26368,4.3733 c 0.53092,-0.00889 1.1615,0.086172 1.3663,0.17518 0.89142,0.27173 1.7159,0.77129 2.4179,1.9337 0.13073,0.21648 0.22435,0.42673 0.26665,0.61855 0.04199,0.20171 0.02643,0.4361 -0.10387,0.62114 C 12.09901,7.86901 11.96075,8.00751 11.7678,8.0252 11.16733,8.081458 10.3532,8.049718 9.7106,8.042771 9.60248,8.041611 9.49933,7.997838 9.46824,7.963707 9.27788,7.843737 9.14982,7.583047 8.93753,7.509477 8.59861,7.352457 8.46105,7.484162 8.26989,7.249037 7.91775,6.684127 7.57702,6.103637 7.26429,5.527237 7.0377,5.132797 7.187356,4.738017 7.52887,4.525237 7.66249,4.421587 7.94514,4.378637 8.2637,4.373307 Z m -2.3662,1.2164 c 0.02765,-8.731e-4 0.05557,2.615e-4 0.08372,0.0031 0.18299,0.025071 0.3715,0.077238 0.48161,0.23667 0.34371,0.49558 0.71548,1.2206 1.0247,1.7838 C 7.53955,7.708048 7.55212,7.81954 7.53764,7.86338 7.52653,8.08812 7.36217,8.32803 7.40225,8.54911 7.43177,8.92147 7.61407,8.97615 7.50302,9.2581 7.18362,9.84215 6.8446,10.4241 6.49582,10.9794 6.26334,11.37041 5.8463,11.43402 5.49332,11.24088 5.07761,11.06606 4.51928,9.75408 4.48252,9.39868 4.28181,8.48864 4.3124,7.52518 4.98067,6.34308 5.10513,6.12293 5.24253,5.93768 5.38891,5.80669 5.52466,5.68806 5.70385,5.59572 5.8974,5.58965 Z m 2.5667,2.5068 a 0.36973,0.36973 0 0 1 0.0021,0 0.36973,0.36973 0 0 1 0.37,0.37 0.36973,0.36973 0 0 1 -0.37,0.36948 A 0.36973,0.36973 0 0 1 8.0968,8.4665 0.36973,0.36973 0 0 1 8.46421,8.0965 Z m 2.1838,0.80459 c 0.33337,0.00172 0.66552,0.00851 0.9932,0.020671 0.45486,0.00582 0.71836,0.33514 0.72759,0.73741 0.05645,0.44743 -0.80043,1.5872 -1.0898,1.7968 -0.68776,0.62884 -1.5375,1.0837 -2.8954,1.096 -0.25288,0.0023 -0.48153,-0.02399 -0.66816,-0.08526 -0.19499,-0.06657 -0.3887,-0.1993 -0.48161,-0.40565 -0.06979,-0.17101 -0.11919,-0.3608 -0.03617,-0.53588 0.25733,-0.54545 0.69987,-1.2298 1.033,-1.7792 0.05606,-0.092458 0.146,-0.1591 0.1912,-0.16846 0.20018,-0.10275 0.49002,-0.080062 0.66145,-0.2253 0.30771,-0.21174 0.2646,-0.39703 0.5643,-0.44182 0.33274,-0.00771 0.66706,-0.011028 1.0004,-0.0093 z"
       fill="url(#linearGradient1018)"
       stroke-width="0.25432"
       id="path1200" />
  </g>
</svg>
