<?xml version="1.0" encoding="UTF-8"?>
<svg width="64" height="64" version="1.1" viewBox="0 0 16.933 16.933" xmlns="http://www.w3.org/2000/svg" xmlns:cc="http://creativecommons.org/ns#" xmlns:dc="http://purl.org/dc/elements/1.1/" xmlns:rdf="http://www.w3.org/1999/02/22-rdf-syntax-ns#" xmlns:xlink="http://www.w3.org/1999/xlink">
 <metadata>
  <rdf:RDF>
   <cc:Work rdf:about="">
    <dc:format>image/svg+xml</dc:format>
    <dc:type rdf:resource="http://purl.org/dc/dcmitype/StillImage"/>
    <dc:title/>
   </cc:Work>
  </rdf:RDF>
 </metadata>
 <defs>
  <linearGradient id="linearGradient1011">
   <stop stop-color="#4bebfb" offset="0"/>
   <stop stop-color="#2fcaf5" offset=".49979"/>
   <stop stop-color="#40bce8" offset="1"/>
  </linearGradient>
  <style type="text/css"/>
  <linearGradient id="linearGradient995" x1="32.342" x2="32.342" y1="2.1827" y2="62.01" gradientTransform="scale(.26458)" gradientUnits="userSpaceOnUse">
   <stop stop-color="#99b4c0" offset="0"/>
   <stop stop-color="#537080" offset="1"/>
  </linearGradient>
  <linearGradient id="linearGradient1013" x1="6.0853" x2="10.848" y1="-8.4665" y2="-8.4665" gradientTransform="matrix(.94444 0 0 .94444 .47036 -.47036)" gradientUnits="userSpaceOnUse" xlink:href="#linearGradient1011"/>
  <linearGradient id="linearGradient1025" x1="3.5957" x2="7.5688" y1="-8.4665" y2="-8.4665" gradientUnits="userSpaceOnUse">
   <stop stop-color="#58edfd" offset="0"/>
   <stop stop-color="#24ccf5" offset="1"/>
  </linearGradient>
  <linearGradient id="linearGradient1029" x1="13.313" x2="7.3018" y1="-8.4665" y2="-8.4665" gradientUnits="userSpaceOnUse">
   <stop stop-color="#7dafc6" offset="0"/>
   <stop stop-color="#cee1ea" offset="1"/>
  </linearGradient>
  <linearGradient id="linearGradient1137" x1="6.0853" x2="10.848" y1="-8.4665" y2="-8.4665" gradientTransform="matrix(.94444 0 0 .94444 .47036 -.47036)" gradientUnits="userSpaceOnUse" xlink:href="#linearGradient1011"/>
  <filter id="filter1139" x="-.432" y="-.432" width="1.864" height="1.864" color-interpolation-filters="sRGB">
   <feGaussianBlur stdDeviation="0.80960904"/>
  </filter>
  <filter id="filter904" x="-.108" y="-.108" width="1.216" height="1.216" color-interpolation-filters="sRGB">
   <feGaussianBlur stdDeviation="0.20240099"/>
  </filter>
 </defs>
 <g transform="translate(.00030032 -9.9674e-5)" fill="#5e4aa6" stroke-width=".26458">
  <circle cx="-347.64" cy="-328.38" r="0"/>
  <circle cx="-56.726" cy="6.44" r="0" fill-rule="evenodd"/>
  <g transform="translate(-.0272 .0065001)">
   <circle cx="-330.35" cy="-328.38" r="0"/>
   <circle cx="-312.11" cy="-326.25" r="0"/>
   <circle cx="-306.02" cy="-333.07" r="0"/>
   <circle cx="-308.84" cy="-326.01" r="0"/>
  </g>
 </g>
 <path d="m7.2244 0.52916c-0.24391 0-0.40274 0.19927-0.44029 0.44029l-0.2222 1.4283a6.3557 6.3557 0 0 0-2.4107 1.388l-1.326-0.51315c-0.22748-0.087994-0.47955-0.050011-0.6015 0.16123l-1.2526 2.1704c-0.12195 0.21123-0.032554 0.45219 0.16071 0.60099l1.1193 0.86195a6.3557 6.3557 0 0 0-0.15606 1.3994 6.3557 6.3557 0 0 0 0.15606 1.3984l-1.1239 0.90484c-0.18995 0.15301-0.28318 0.39028-0.16123 0.6015l1.2526 2.1704c0.12196 0.21123 0.37602 0.25366 0.6015 0.16071l1.3368-0.55086a6.3557 6.3557 0 0 0 2.405 1.3834l0.2222 1.4288c0.037531 0.241 0.19636 0.44029 0.44029 0.44029h2.5058c0.2439 0 0.40804-0.19851 0.44029-0.44029l0.19172-1.4361a6.3557 6.3557 0 0 0 2.3931-1.3849l1.358 0.55964c0.22551 0.09297 0.47955 0.05051 0.6015-0.16071l1.2526-2.1704c0.12196-0.21124 0.02873-0.44849-0.16123-0.6015l-1.1503-0.92656a6.3557 6.3557 0 0 0 0.15089-1.3766 6.3557 6.3557 0 0 0-0.15141-1.3787l1.1462-0.88261c0.19327-0.14881 0.28265-0.38975 0.16071-0.60099l-1.2526-2.1704c-0.12196-0.21124-0.37401-0.24923-0.6015-0.16123l-1.3482 0.52194a6.3557 6.3557 0 0 0-2.3978-1.3896l-0.19172-1.4356c-0.03225-0.24176-0.19637-0.44029-0.44029-0.44029h-2.5058z" fill="url(#linearGradient995)" image-rendering="optimizeSpeed" stroke-width="1.0396"/>
 <circle transform="matrix(0 2.285 -2.285 0 -12.4 -10.879)" cx="8.4665" cy="-9.132" r="2.2489" filter="url(#filter904)" image-rendering="optimizeSpeed" opacity=".3" stroke="#4f6c7a" stroke-width="1.1518"/>
 <circle transform="rotate(90)" cx="8.4665" cy="-8.4665" r="2.2489" fill="url(#linearGradient1013)" filter="url(#filter1139)" image-rendering="optimizeSpeed" stroke="#4f6c7a" stroke-width="1.1518"/>
 <circle transform="rotate(90)" cx="8.4665" cy="-8.4665" r="4.1697" fill="none" image-rendering="optimizeSpeed" stroke="#e0f0f5" stroke-dashoffset=".42096" stroke-width="1.4022"/>
 <circle transform="rotate(90)" cx="8.4665" cy="-8.4665" r="2.2489" fill="url(#linearGradient1137)" image-rendering="optimizeSpeed" stroke="#4f6c7a" stroke-width="1.1518"/>
 <path transform="rotate(90)" d="m7.3873-4.4389a4.1697 4.1697 0 0 1-3.0905-4.0276 4.1697 4.1697 0 0 1 3.0905-4.0276" fill="none" image-rendering="optimizeSpeed" stroke="url(#linearGradient1025)" stroke-dashoffset=".42096" stroke-width="1.4022"/>
 <path transform="rotate(90)" d="m12.636-8.4665a4.1697 4.1697 0 0 1-1.6313 3.308 4.1697 4.1697 0 0 1-3.6175 0.71957" fill="none" image-rendering="optimizeSpeed" stroke="url(#linearGradient1029)" stroke-dashoffset=".42096" stroke-width="1.4022"/>
</svg>
