<?xml version="1.0" encoding="UTF-8"?>
<svg width="64" height="64" version="1.1" xmlns="http://www.w3.org/2000/svg" xmlns:cc="http://creativecommons.org/ns#" xmlns:dc="http://purl.org/dc/elements/1.1/" xmlns:rdf="http://www.w3.org/1999/02/22-rdf-syntax-ns#" xmlns:xlink="http://www.w3.org/1999/xlink">
 <metadata>
  <rdf:RDF>
   <cc:Work rdf:about="">
    <dc:format>image/svg+xml</dc:format>
    <dc:type rdf:resource="http://purl.org/dc/dcmitype/StillImage"/>
    <dc:title/>
   </cc:Work>
  </rdf:RDF>
 </metadata>
 <defs>
  <style type="text/css"/>
  <linearGradient id="linearGradient1670" x1="-409.54" x2="-369.54" y1="60.157" y2="60.157" gradientTransform="rotate(7.0662 93.375 48.682)" gradientUnits="userSpaceOnUse">
   <stop stop-color="#e3e9f2" offset="0"/>
   <stop stop-color="#dee6f0" offset="1"/>
  </linearGradient>
  <linearGradient id="linearGradient1678" x1="-408.97" x2="-369.54" y1="13.673" y2="51.727" gradientTransform="rotate(7.0662 93.375 48.682)" gradientUnits="userSpaceOnUse">
   <stop stop-color="#63b3f3" offset="0"/>
   <stop stop-color="#4097de" offset="1"/>
  </linearGradient>
  <linearGradient id="linearGradient1722" x1="32.835" x2="36.251" y1="39.943" y2="12.307" gradientUnits="userSpaceOnUse">
   <stop stop-color="#a3ceed" offset="0"/>
   <stop stop-color="#fdfefe" offset="1"/>
  </linearGradient>
 </defs>
 <circle cx="-1248.7" cy="-1241.6" r="0" fill="#5e4aa6"/>
 <circle cx="-1140.3" cy="-1301.8" r="0" fill="#5e4aa6"/>
 <g transform="translate(417.85 50.041)">
  <rect x="-409.54" y="-45.531" width="40" height="55" ry="3.4926" fill="#2378b9"/>
  <g transform="translate(-.050847 .22034)">
   <path d="m-366.4-5.2429-39.696-4.9207-1.6446 13.268c-0.23803 1.9202 1.1158 3.6572 3.0361 3.8953l32.765 4.0615c1.9202 0.23803 3.6572-1.1158 3.8952-3.0361z" fill="url(#linearGradient1670)"/>
   <path d="m-397.94-47.583c-1.9202-0.23803-3.6572 1.1158-3.8953 3.0361l-4.2621 34.383 39.696 4.9207 4.2621-34.383c0.23803-1.9202-1.1158-3.6572-3.036-3.8953z" fill="url(#linearGradient1678)"/>
  </g>
 </g>
 <g fill="url(#linearGradient1722)" stroke-width=".029366">
  <path d="m36.251 12.307s-12.592 8.434-13.614 14.432a10.988 10.988 0 0 0 8.9898 12.686 10.988 10.988 0 0 0 12.686-8.9898c1.0229-5.998-8.0617-18.129-8.0617-18.129zm-4.4074 25.845c-5.3032-0.90439-8.8298-5.9385-7.9293-11.219 0.90044-5.2801 12.013-12.727 12.013-12.727s7.9891 10.728 7.1158 15.989c-0.90834 5.3264-5.8961 8.8608-11.199 7.9564z" p-id="11536"/>
  <path d="m34.648 21.709s-5.8931 3.952-6.371 6.7542c-0.22906 1.3432 0.08242 2.7309 0.86998 3.8423 0.78757 1.1114 1.9936 1.8652 3.3368 2.0943 1.3432 0.22906 2.7309-0.08242 3.8423-0.86999 1.1114-0.78757 1.8652-1.9936 2.0943-3.3368 0.48182-2.8253-3.7723-8.484-3.7723-8.484zm-1.9589 11.486c-2.1074-0.35939-3.5018-2.3846-3.1345-4.5383 0.36728-2.1537 4.7932-5.1882 4.7932-5.1882s3.17 4.3298 2.8027 6.4836c-0.36728 2.1537-2.354 3.6023-4.4614 3.2429z" p-id="11537"/>
 </g>
 <rect transform="rotate(7.1318)" x="20.926" y="44.87" width="32.136" height="2.9831" ry="1.4915" fill="#6e788c"/>
</svg>
