<?xml version="1.0" encoding="UTF-8"?>
<svg width="64" height="64" version="1.1" xmlns="http://www.w3.org/2000/svg" xmlns:cc="http://creativecommons.org/ns#" xmlns:dc="http://purl.org/dc/elements/1.1/" xmlns:rdf="http://www.w3.org/1999/02/22-rdf-syntax-ns#">
 <metadata>
  <rdf:RDF>
   <cc:Work rdf:about="">
    <dc:format>image/svg+xml</dc:format>
    <dc:type rdf:resource="http://purl.org/dc/dcmitype/StillImage"/>
    <dc:title/>
   </cc:Work>
  </rdf:RDF>
 </metadata>
 <defs>
  <clipPath>
   <rect width="384" height="384"/>
  </clipPath>
  <clipPath>
   <rect width="384" height="384"/>
  </clipPath>
  <clipPath>
   <rect width="384" height="384"/>
  </clipPath>
  <linearGradient id="linearGradient1634" x1="-59.235" x2="-59.235" y1=".7041" y2="-11.929" gradientTransform="matrix(4.1232 0 0 4.1232 275.52 59.011)" gradientUnits="userSpaceOnUse">
   <stop stop-color="#d73782" offset="0"/>
   <stop stop-color="#eb554b" offset="1"/>
  </linearGradient>
  <linearGradient id="i" x1="400.4" x2="400.4" y1="545.62" y2="517.62" gradientTransform="matrix(1.5862 0 0 1.5862 -760.12 -698.05)" gradientUnits="userSpaceOnUse">
   <stop stop-color="#d3d3d3" offset="0"/>
   <stop stop-color="#fcf9f9" offset="1"/>
  </linearGradient>
  <linearGradient id="f" x1="400.4" x2="400.4" y1="545.62" y2="517.62" gradientTransform="matrix(1.6382 0 0 1.6382 -834.76 -703.57)" gradientUnits="userSpaceOnUse">
   <stop stop-color="#8d3aff" offset="0"/>
   <stop stop-color="#ff3680" offset="1"/>
  </linearGradient>
 </defs>
 <circle cx="-1158.1" cy="-1246" r="0" fill="#5e4aa6"/>
 <g transform="matrix(3.7796 0 0 3.7796 -.00020821 1.4196)" opacity=".15" aria-label="T">
  <path d="m5.2032 4.6089h6.5266v0.87848h-2.7388v6.8367h-1.049v-6.8367h-2.7388z" stroke-width=".26458"/>
 </g>
 <path d="m62 32c0 3.5964-0.63305 7.0444-1.7939 10.24-0.80694 2.2212-1.8685 4.3212-3.1519 6.2636-0.53754 0.8167-1.1155 1.6054-1.729 2.3634-1.9641 2.4256-4.2982 4.5382-6.9186 6.2526-0.9649 0.63184-1.9678 1.2098-3.0061 1.7277-4.0321 2.0179-8.5839 3.153-13.401 3.153-4.8171 0-9.3689-1.1351-13.401-3.1531-1.0384-0.51799-2.0425-1.0959-3.0074-1.7277-2.6535-1.7376-5.0155-3.8832-6.9957-6.349-0.61464-0.76408-1.1915-1.56-1.729-2.3841-1.249-1.9102-2.2836-3.9712-3.0746-6.1494-1.1607-3.1947-1.7927-6.6415-1.7927-10.237 0-16.569 13.431-30 30-30 8.317 0 15.842 3.3845 21.277 8.8503 1.5661 1.5746 2.9585 3.3234 4.1436 5.214 1.1205 1.7805 2.0571 3.6882 2.7857 5.6951 1.1611 3.1959 1.794 6.6442 1.794 10.24z" fill="url(#linearGradient1634)" image-rendering="optimizeSpeed" stroke-width=".11719"/>
 <g transform="matrix(1 0 0 1 -104.95 -24.407)" fill="#5e4aa6" image-rendering="optimizeSpeed">
  <circle cx="-1331.1" cy="-1237.8" r="0"/>
  <circle cx="-1262.2" cy="-1229.7" r="0"/>
  <circle cx="-1239.2" cy="-1255.5" r="0"/>
  <circle cx="-1249.8" cy="-1228.8" r="0"/>
 </g>
 <circle cx="-124.73" cy="145.5" r="0" fill="url(#i)" image-rendering="optimizeSpeed"/>
 <circle cx="-178.52" cy="167.66" r="0" fill="none" image-rendering="optimizeSpeed" stroke="url(#f)" stroke-width="2.1297"/>
 <path d="m24 16v4h4v-4zm12 0v4h4v-4zm-18 2v4h4v-4zm24 0v4h4v-4zm-30 2v4h4v-4zm18 0v4h4v-4zm18 0v4h4v-4zm-24 2v4h4v-4zm12 0v4h4v-4zm-18 2v4h4v-4zm24 0v4h4v-4zm-30 2v4h4v-4zm18 0v4h4v-4zm18 0v4h4v-4zm-24 2v4h4v-4zm12 0v4h4v-4zm-18 2v4h4v-4zm24 0v4h4v-4zm-30 2v4h4v-4zm18 0v4h4v-4zm18 0v4h4v-4zm-24 2v4h4v-4zm12 0v4h4v-4zm-18 2v4h4v-4zm24 0v4h4v-4zm-12 2v4h4v-4zm-6 2v4h4v-4zm12 0v4h4v-4zm-6 4v4h4v-4z" fill="#fff"/>
</svg>
