<?xml version="1.0" encoding="UTF-8"?>
<svg width="64" height="64" version="1.1" viewBox="0 0 16.933 16.933" xmlns="http://www.w3.org/2000/svg" xmlns:cc="http://creativecommons.org/ns#" xmlns:dc="http://purl.org/dc/elements/1.1/" xmlns:rdf="http://www.w3.org/1999/02/22-rdf-syntax-ns#" xmlns:xlink="http://www.w3.org/1999/xlink">
 <metadata>
  <rdf:RDF>
   <cc:Work rdf:about="">
    <dc:format>image/svg+xml</dc:format>
    <dc:type rdf:resource="http://purl.org/dc/dcmitype/StillImage"/>
    <dc:title/>
   </cc:Work>
  </rdf:RDF>
 </metadata>
 <defs>
  <filter id="filter861" x="-.027" y="-.027" width="1.054" height="1.054" color-interpolation-filters="sRGB">
   <feGaussianBlur stdDeviation="0.16371"/>
  </filter>
  <style type="text/css"/>
  <style type="text/css"/>
  <linearGradient id="linearGradient6592" x1="7.8156" x2="7.8156" y1="2.9011" y2="14.105" gradientUnits="userSpaceOnUse">
   <stop stop-color="#f9f8f9" offset="0"/>
   <stop stop-color="#eae8e9" offset="1"/>
  </linearGradient>
 </defs>
 <rect x="1.1905" y="1.1905" width="14.552" height="14.552" ry="3.4395" filter="url(#filter861)" opacity=".3" stroke-opacity=".95294" stroke-width=".083153"/>
 <rect x="1.1905" y="1.1905" width="14.552" height="14.552" ry="3.4395" fill="url(#linearGradient6592)" stroke-opacity=".95294" stroke-width=".083153"/>
 <g transform="translate(-.26458 .13229)">
  <g fill="#b4b4b4" stroke-width=".75956">
   <rect x="6.6145" y="4.3655" width="7.9373" height=".26458" ry="0"/>
   <rect x="6.6145" y="8.2019" width="7.9373" height=".26458" ry="0"/>
   <rect x="6.6145" y="12.038" width="7.9373" height=".26458" ry="0"/>
  </g>
  <g transform="translate(-.055386 .014345)">
   <circle cx="4.3058" cy="4.4663" r=".79373" fill="#006eeb"/>
   <circle cx="4.2886" cy="4.4835" r="1.1906" fill="none" stroke="#006eeb" stroke-linecap="round" stroke-width=".26455"/>
  </g>
  <g transform="translate(-.055386 3.8507)">
   <circle cx="4.3058" cy="4.4663" r=".79373" fill="#ff2832"/>
   <circle cx="4.2886" cy="4.4835" r="1.1906" fill="none" stroke="#ff2832" stroke-linecap="round" stroke-width=".26455"/>
  </g>
  <g transform="translate(-.055386 7.6871)">
   <circle cx="4.3058" cy="4.4663" r=".79373" fill="#ff8200"/>
   <circle cx="4.2886" cy="4.4835" r="1.1906" fill="none" stroke="#ff8200" stroke-linecap="round" stroke-width=".26455"/>
  </g>
 </g>
</svg>
