<?xml version="1.0" encoding="UTF-8"?>
<svg width="64" height="64" version="1" xmlns="http://www.w3.org/2000/svg" xmlns:cc="http://creativecommons.org/ns#" xmlns:dc="http://purl.org/dc/elements/1.1/" xmlns:rdf="http://www.w3.org/1999/02/22-rdf-syntax-ns#">
 <metadata>
  <rdf:RDF>
   <cc:Work rdf:about="">
    <dc:format>image/svg+xml</dc:format>
    <dc:type rdf:resource="http://purl.org/dc/dcmitype/StillImage"/>
    <dc:title/>
   </cc:Work>
  </rdf:RDF>
 </metadata>
 <defs>
  <style type="text/css"/>
  <linearGradient id="linearGradient1005" x1=".73911" x2="16.388" y1="16.296" y2=".64687" gradientTransform="matrix(.99999 0 0 .99999 -.034621 .0068526)" gradientUnits="userSpaceOnUse">
   <stop stop-color="#00a0ff" offset="0"/>
   <stop stop-color="#37beff" offset="1"/>
  </linearGradient>
  <linearGradient id="w" x1="123.64" x2="146.53" y1="131.03" y2="174.71" gradientTransform="matrix(4.2812,0,0,3.5908,41,42)" gradientUnits="userSpaceOnUse">
   <stop stop-color="#fafafa" offset="0"/>
   <stop stop-color="#fff" offset="1"/>
  </linearGradient>
  <filter id="filter1152" x="-.055255" y="-.065641" width="1.1105" height="1.1313" color-interpolation-filters="sRGB">
   <feGaussianBlur stdDeviation="2.9934784"/>
  </filter>
 </defs>
 <circle cx="-1248.7" cy="-1241.6" r="0" fill="#5e4aa6"/>
 <g transform="matrix(3.7796 0 0 3.7796 -.0024004 -.001172)">
  <path d="m16.404 8.4667c0 0.95153-0.16749 1.8638-0.47464 2.7094-0.2135 0.58768-0.49438 1.1433-0.83392 1.6572-0.14222 0.21608-0.29514 0.42475-0.45745 0.62528-0.51965 0.64178-1.1372 1.2007-1.8304 1.6543-0.2553 0.16717-0.52064 0.3201-0.79535 0.45712-1.0668 0.53388-2.2711 0.8342-3.5456 0.8342-1.2745 0-2.4788-0.30032-3.5456-0.83422-0.27474-0.13705-0.5404-0.28996-0.79569-0.45712-0.70206-0.45972-1.327-1.0274-1.8508-1.6798-0.16262-0.20216-0.31523-0.41275-0.45745-0.63077-0.33046-0.50539-0.6042-1.0507-0.81348-1.627-0.3071-0.84527-0.4743-1.7572-0.4743-2.7084 0-4.3837 3.5537-7.9374 7.9374-7.9374 2.2005 0 4.1916 0.89547 5.6294 2.3416 0.41435 0.41661 0.78273 0.87928 1.0963 1.3795 0.29645 0.47107 0.54427 0.9758 0.73703 1.5068 0.30718 0.84558 0.47466 1.7579 0.47466 2.7094z" fill="url(#linearGradient1005)" stroke-width=".031006"/>
  <g transform="translate(-21.833 .89722)" fill="#5e4aa6" stroke-width=".26458">
   <circle cx="-330.35" cy="-328.38" r="0"/>
   <circle cx="-312.11" cy="-326.25" r="0"/>
   <circle cx="-306.02" cy="-333.07" r="0"/>
   <circle cx="-308.84" cy="-326.01" r="0"/>
  </g>
  <g transform="matrix(.058131 0 0 .058088 1.6143 1.7407)" fill="#000096" filter="url(#filter1152)" image-rendering="optimizeSpeed" opacity=".3" stroke-width="15.683">
   <path d="m98 175c-3.8876 0-3.227-1.4679-4.5678-5.1695l-11.432-37.625 88-52.206"/>
   <path d="m98 175c3 0 4.3255-1.372 6-3l16-15.558-19.958-12.035"/>
   <path d="m100.04 144.41 48.36 35.729c5.5185 3.0449 9.5014 1.4684 10.876-5.1235l19.685-92.763c2.0154-8.0802-3.0801-11.745-8.3594-9.3482l-115.59 44.571c-7.8901 3.1647-6.9241 9.4078-0.51824 11.369l29.663 9.2583 67.753-45.166c3.2419-1.9659 6.2173-0.90899 3.7752 1.2584"/>
  </g>
  <g transform="matrix(.014453 0 0 .014453 1.1972 1.2476)" image-rendering="optimizeSpeed" stroke-width="61.492">
   <path d="m425.24 728.15c-15.243 0-12.653-5.7554-17.91-20.269l-44.824-147.52 345.03-204.69" fill="#cdf2fd"/>
   <path d="m425.24 728.15c11.762 0 16.96-5.3794 23.525-11.762l62.733-61-78.252-47.187" fill="#ace6fb"/>
   <path d="m433.24 608.21 189.61 140.09c21.637 11.939 37.253 5.7574 42.643-20.088l77.182-363.71c7.902-31.681-12.077-46.05-32.776-36.653l-453.21 174.76c-30.936 12.408-30.755 29.667-5.6389 37.358l116.3 36.3 269.26-169.87c12.711-7.708 24.377-3.564 14.802 4.934" fill="url(#w)"/>
  </g>
 </g>
</svg>
