<?xml version="1.0" encoding="UTF-8"?>
<svg width="64" height="64" version="1.1" xmlns="http://www.w3.org/2000/svg" xmlns:cc="http://creativecommons.org/ns#" xmlns:dc="http://purl.org/dc/elements/1.1/" xmlns:rdf="http://www.w3.org/1999/02/22-rdf-syntax-ns#" xmlns:xlink="http://www.w3.org/1999/xlink">
 <metadata>
  <rdf:RDF>
   <cc:Work rdf:about="">
    <dc:format>image/svg+xml</dc:format>
    <dc:type rdf:resource="http://purl.org/dc/dcmitype/StillImage"/>
    <dc:title/>
   </cc:Work>
  </rdf:RDF>
 </metadata>
 <defs>
  <linearGradient id="i" x1="400.4" x2="400.4" y1="545.62" y2="517.62" gradientTransform="matrix(1.5862 0 0 1.5862 -655.16 -673.64)" gradientUnits="userSpaceOnUse">
   <stop stop-color="#d3d3d3" offset="0"/>
   <stop stop-color="#fcf9f9" offset="1"/>
  </linearGradient>
  <linearGradient id="f" x1="400.4" x2="400.4" y1="545.62" y2="517.62" gradientTransform="matrix(1.6382 0 0 1.6382 -729.8 -679.16)" gradientUnits="userSpaceOnUse">
   <stop stop-color="#8d3aff" offset="0"/>
   <stop stop-color="#ff3680" offset="1"/>
  </linearGradient>
  <linearGradient id="k" x1="430.56" x2="433.31" y1="536.57" y2="524.17" gradientTransform="matrix(1.9931 0 0 1.9931 -828.25 -1025.7)" gradientUnits="userSpaceOnUse">
   <stop stop-color="#bcffef" offset="0"/>
   <stop stop-color="#edfafd" offset="1"/>
  </linearGradient>
  <filter id="filter1877" x="-.027479" y="-.021303" width="1.055" height="1.0426" color-interpolation-filters="sRGB">
   <feGaussianBlur stdDeviation="0.072702461"/>
  </filter>
  <linearGradient id="linearGradient1988" x1="-59.235" x2="-59.235" y1=".7041" y2="-11.929" gradientTransform="matrix(3.4523 0 0 3.4523 235.87 54.616)" gradientUnits="userSpaceOnUse">
   <stop stop-color="#12883d" offset="0"/>
   <stop stop-color="#2dc452" offset="1"/>
  </linearGradient>
  <linearGradient id="c-3" x1="24.535" x2="24.535" y1="7.0931" y2="44.483" gradientTransform="matrix(1.4364 0 0 1.4364 -2.593 -4.7139)" gradientUnits="userSpaceOnUse">
   <stop stop-color="#76dd38" offset="0"/>
   <stop stop-color="#42c440" offset=".48433"/>
   <stop stop-color="#14ab4b" offset="1"/>
  </linearGradient>
 </defs>
 <circle cx="32" cy="32" r="30" color="#000000" fill="url(#c-3)" overflow="visible" style="isolation:auto;mix-blend-mode:normal"/>
 <g fill="#5e4aa6">
  <circle cx="-1331.1" cy="-1237.8" r="0"/>
  <circle cx="-1262.2" cy="-1229.7" r="0"/>
  <circle cx="-1239.2" cy="-1255.5" r="0"/>
  <circle cx="-1249.8" cy="-1228.8" r="0"/>
 </g>
 <circle cx="-19.784" cy="169.92" r="0" fill="url(#i)" image-rendering="optimizeSpeed"/>
 <circle cx="-73.573" cy="192.07" r="0" fill="none" image-rendering="optimizeSpeed" stroke="url(#f)" stroke-width="2.1297"/>
 <path d="m57.089 32c0 3.0112-0.53003 5.8982-1.502 8.5741-0.67566 1.8598-1.5645 3.618-2.639 5.2443-0.45008 0.68379-0.93398 1.3442-1.4476 1.9788-1.6444 2.031-3.5987 3.7996-5.7926 5.2352-0.80789 0.52904-1.6476 1.013-2.5169 1.4466-3.3759 1.6895-7.1871 2.6399-11.22 2.6399-4.0333 0-7.8443-0.95039-11.22-2.6399-0.86941-0.43372-1.7101-0.91761-2.518-1.4466-2.2217-1.4548-4.1994-3.2512-5.857-5.316-0.51461-0.63975-0.99756-1.3062-1.4476-1.9961-1.0458-1.5993-1.912-3.325-2.5743-5.1486-0.97183-2.6749-1.501-5.5609-1.501-8.5708 0-13.873 11.246-25.118 25.118-25.118 6.9636 0 13.265 2.8338 17.815 7.4102 1.3112 1.3184 2.477 2.7825 3.4692 4.3656 0.93814 1.4907 1.7224 3.088 2.3324 4.7684 0.97208 2.6759 1.5021 5.563 1.5021 8.5741z" fill="url(#linearGradient1988)" stroke-width=".098119"/>
 <g transform="matrix(4.1232 0 0 4.1232 390.22 56.357)" fill="#fff">
  <path d="m-92.641-7.8381c-0.07807 0.23225-0.16818 0.45898-0.21807 0.70279-8e-3 0.039228-0.0051 0.081938-0.0124 0.12144h11.969c-0.05203-0.28317-0.13089-0.55618-0.22065-0.82422z" opacity=".25"/>
  <path d="m-92.953-6.17c-0.0039 0.088964-0.02635 0.1726-0.02635 0.26251 0 0.19177 0.03228 0.375 0.04961 0.56223h12.085c0.01735-0.1873 0.04909-0.3704 0.04909-0.56223h5.18e-4c0-0.089572-0.01942-0.17388-0.02325-0.26251z" opacity=".25"/>
  <path d="m-92.795-4.502c0.05397 0.22716 0.10219 0.45679 0.18087 0.67333 0.01946 0.053588 0.05454 0.098531 0.07544 0.15141h11.304c0.02088-0.052803 0.05653-0.097384 0.07596-0.15089 0.0787-0.21667 0.12685-0.44655 0.18087-0.67385z" opacity=".25"/>
 </g>
 <path transform="matrix(4.2172 0 0 4.2089 280.58 58.217)" d="m-60.157-9.1368c-0.27072 0.07597-0.48865 0.37808-0.48865 0.67158v4.6529c-0.27453-0.1505-0.62705-0.21136-0.99256-0.1119-0.65954 0.17943-1.0729 0.75934-0.93147 1.2951 0.14138 0.53575 0.79112 0.83498 1.4507 0.65552 0.52617-0.14314 0.8889-0.54821 0.94674-0.97531l0.01541-4.397 3.4205-0.95936v3.4697c-0.2745-0.15051-0.62705-0.21137-0.99256-0.11194-0.65954 0.17944-1.0728 0.75936-0.93147 1.2951 0.14139 0.53577 0.79112 0.83498 1.4507 0.65554 0.52619-0.14314 0.8889-0.54818 0.94674-0.97531l0.01548-5.7241c0-0.22008-0.12991-0.38472-0.3054-0.4157l-3.6038 0.97531z" filter="url(#filter1877)" image-rendering="optimizeSpeed" opacity=".35" stroke-width=".26458"/>
 <path d="m26.645 19.664c-1.1162 0.31324-2.0148 1.5589-2.0148 2.769v19.185c-1.1319-0.62054-2.5854-0.87147-4.0925-0.46138-2.7194 0.73982-4.4237 3.1309-3.8406 5.3399 0.58293 2.2089 3.2619 3.4428 5.9815 2.7028 2.1695-0.59019 3.6651-2.2604 3.9036-4.0214l0.06354-18.13 14.103-3.9556v14.306c-1.1318-0.62058-2.5854-0.87151-4.0925-0.46155-2.7194 0.73986-4.4233 3.131-3.8406 5.3399 0.58298 2.2091 3.2619 3.4428 5.9815 2.7029 2.1696-0.59019 3.6651-2.2602 3.9036-4.0214l0.06383-23.601c0-0.90743-0.53564-1.5863-1.2592-1.714l-14.859 4.0214z" fill="url(#k)" image-rendering="optimizeSpeed" stroke-width="1.0909"/>
 <path d="m26.645 19.664c-1.1162 0.31324-2.0148 1.5589-2.0148 2.769v19.185c-1.1319-0.62054-2.5854-0.87147-4.0925-0.46138-2.7194 0.73982-4.4237 3.1309-3.8406 5.3399 0.58293 2.2089 3.2619 3.4428 5.9815 2.7028 2.1695-0.59019 3.6651-2.2604 3.9036-4.0214l0.06354-18.13 14.103-3.9556v14.306c-1.1318-0.62058-2.5854-0.87151-4.0925-0.46155-2.7194 0.73986-4.4233 3.131-3.8406 5.3399 0.58298 2.2091 3.2619 3.4428 5.9815 2.7029 2.1696-0.59019 3.6651-2.2602 3.9036-4.0214l0.06383-23.601c0-0.90743-0.53564-1.5863-1.2592-1.714l-14.859 4.0214z" fill="none" image-rendering="optimizeSpeed" stroke="#138b3e" stroke-width=".32727"/>
</svg>
