<?xml version="1.0" encoding="UTF-8" standalone="no"?>
<svg
   xmlns:dc="http://purl.org/dc/elements/1.1/"
   xmlns:cc="http://creativecommons.org/ns#"
   xmlns:rdf="http://www.w3.org/1999/02/22-rdf-syntax-ns#"
   xmlns:svg="http://www.w3.org/2000/svg"
   xmlns="http://www.w3.org/2000/svg"
   xmlns:xlink="http://www.w3.org/1999/xlink"
   xmlns:sodipodi="http://sodipodi.sourceforge.net/DTD/sodipodi-0.dtd"
   xmlns:inkscape="http://www.inkscape.org/namespaces/inkscape"
   inkscape:version="1.0 (4035a4fb49, 2020-05-01)"
   sodipodi:docname="cherrytree.svg"
   id="svg18"
   viewBox="0 0 16.933 16.933"
   version="1.1"
   height="64"
   width="64">
  <metadata
     id="metadata24">
    <rdf:RDF>
      <cc:Work
         rdf:about="">
        <dc:format>image/svg+xml</dc:format>
        <dc:type
           rdf:resource="http://purl.org/dc/dcmitype/StillImage" />
        <dc:title></dc:title>
      </cc:Work>
    </rdf:RDF>
  </metadata>
  <defs
     id="defs22">
    <linearGradient
       inkscape:collect="always"
       id="linearGradient1006">
      <stop
         style="stop-color:#d3d3d3;stop-opacity:1"
         offset="0"
         id="stop1002" />
      <stop
         style="stop-color:#858585;stop-opacity:1"
         offset="1"
         id="stop1004" />
    </linearGradient>
    <linearGradient
       inkscape:collect="always"
       id="linearGradient999">
      <stop
         style="stop-color:#d3d3d3;stop-opacity:1"
         offset="0"
         id="stop995" />
      <stop
         style="stop-color:#858585;stop-opacity:1"
         offset="1"
         id="stop997" />
    </linearGradient>
    <linearGradient
       id="c"
       x1="200"
       x2="200"
       y1="268"
       y2="44"
       gradientTransform="matrix(0.086563,0,0,0.086563,-19.285,288.52)"
       gradientUnits="userSpaceOnUse">
      <stop
         stop-color="#e6e6e6"
         offset="0"
         id="stop834" />
      <stop
         stop-color="#d3d3d3"
         offset="1"
         id="stop836" />
    </linearGradient>
    <linearGradient
       id="d"
       x1="152"
       x2="152"
       y1="100"
       y2="212"
       gradientTransform="translate(-64,-68)"
       gradientUnits="userSpaceOnUse">
      <stop
         stop-opacity="0"
         offset="0"
         id="stop839" />
      <stop
         offset=".5"
         id="stop841" />
      <stop
         stop-opacity="0"
         offset="1"
         id="stop843" />
    </linearGradient>
    <filter
       id="a"
       x="-.024"
       y="-.024"
       width="1.048"
       height="1.048"
       color-interpolation-filters="sRGB">
      <feGaussianBlur
         stdDeviation="1.5000091"
         id="feGaussianBlur846" />
    </filter>
    <linearGradient
       id="b"
       x1="152"
       x2="152"
       y1="124"
       y2="236"
       gradientUnits="userSpaceOnUse">
      <stop
         offset="0"
         id="stop849" />
      <stop
         stop-opacity="0"
         offset="1"
         id="stop851" />
    </linearGradient>
    <clipPath
       id="f">
      <path
         d="m152 68c-48.601 0-88 39.399-88 88s39.399 88 88 88 88-39.399 88-88-39.399-88-88-88z"
         color="#000000"
         fill="#5d5d5d"
         id="path854" />
    </clipPath>
    <filter
       id="e"
       x="-.06"
       y="-.06"
       width="1.12"
       height="1.12"
       color-interpolation-filters="sRGB">
      <feGaussianBlur
         stdDeviation="4.4"
         id="feGaussianBlur857" />
    </filter>
    <style
       type="text/css"
       id="style857" />
    <filter
       height="1.1138922"
       y="-0.056946117"
       width="1.0829662"
       x="-0.041483092"
       id="filter1024"
       style="color-interpolation-filters:sRGB"
       inkscape:collect="always">
      <feGaussianBlur
         id="feGaussianBlur1026"
         stdDeviation="0.22461558"
         inkscape:collect="always" />
    </filter>
    <linearGradient
       gradientUnits="userSpaceOnUse"
       gradientTransform="matrix(3.7795,0,0,3.7795,1.4309e-4,0.031541)"
       y2="1.852"
       y1="15.081"
       x2="7.9373"
       x1="7.9373"
       id="linearGradient862-3">
      <stop
         id="stop860"
         offset="0"
         stop-color="#1a1a1a" />
      <stop
         id="stop862"
         offset="1"
         stop-color="#4d4d4d" />
    </linearGradient>
    <linearGradient
       gradientUnits="userSpaceOnUse"
       y2="37.223"
       y1="26.164"
       x2="44.623"
       x1="21.016"
       id="linearGradient884">
      <stop
         id="stop865"
         offset="0"
         stop-color="#d1d1d1" />
      <stop
         id="stop867"
         offset=".4419"
         stop-color="#fff" />
      <stop
         id="stop869"
         offset="1"
         stop-color="#d1d1d1" />
    </linearGradient>
    <filter
       color-interpolation-filters="sRGB"
       height="1.225"
       width="1.2077"
       y="-.11251"
       x="-.10384"
       id="filter1012">
      <feGaussianBlur
         id="feGaussianBlur872"
         stdDeviation="1.5000926" />
    </filter>
    <linearGradient
       gradientUnits="userSpaceOnUse"
       gradientTransform="matrix(.91667 0 0 .91667 .70544 .70544)"
       y2="2.6458"
       y1="16.404"
       x2="3.9687"
       x1="3.9687"
       id="linearGradient1448">
      <stop
         id="stop929"
         offset="0"
         stop-color="#a0a0a0" />
      <stop
         id="stop931"
         offset="1"
         stop-color="#f0f0f0" />
    </linearGradient>
    <filter
       color-interpolation-filters="sRGB"
       height="1.054"
       width="1.054"
       y="-.027"
       x="-.027"
       id="filter861">
      <feGaussianBlur
         id="feGaussianBlur934"
         stdDeviation="0.16371" />
    </filter>
    <radialGradient
       id="e-3"
       cx="23.335"
       cy="41.636"
       r="22.627"
       gradientTransform="matrix(0.95165,0,0,0.36555,1.7936,24.507)"
       gradientUnits="userSpaceOnUse">
      <stop
         offset="0"
         id="stop886" />
      <stop
         stop-opacity="0"
         offset="1"
         id="stop888" />
    </radialGradient>
    <linearGradient
       id="n"
       x1="103.95"
       x2="89.424"
       y1="-7.6657"
       y2="-7.6657"
       gradientTransform="matrix(0.73652,0,0,0.72048,-52.561,46.853)"
       gradientUnits="userSpaceOnUse"
       spreadMethod="reflect"
       xlink:href="#b-6" />
    <linearGradient
       id="b-6">
      <stop
         stop-color="#868688"
         offset="0"
         id="stop892" />
      <stop
         stop-color="#d9d9da"
         offset="1"
         id="stop894" />
    </linearGradient>
    <linearGradient
       id="m"
       x1="89.018"
       x2="89.018"
       y1="22.537"
       y2="27.546"
       gradientTransform="matrix(1.6087,0,0,1.6667,-127.47,-0.57685)"
       gradientUnits="userSpaceOnUse"
       xlink:href="#a-7" />
    <linearGradient
       id="a-7">
      <stop
         stop-color="#a0a0a0"
         offset="0"
         id="stop898" />
      <stop
         stop-color="#4a4a4a"
         offset="1"
         id="stop900" />
    </linearGradient>
    <linearGradient
       id="h"
       x1="103.95"
       x2="89.424"
       y1="-7.6657"
       y2="-7.6657"
       gradientTransform="matrix(0.73652,0,0,0.72048,-52.561,37.853)"
       gradientUnits="userSpaceOnUse"
       spreadMethod="reflect"
       xlink:href="#b-6" />
    <linearGradient
       id="g"
       x1="89.018"
       x2="89.018"
       y1="22.537"
       y2="27.546"
       gradientTransform="matrix(1.6087,0,0,1.6667,-127.47,-9.5769)"
       gradientUnits="userSpaceOnUse"
       xlink:href="#a-7" />
    <linearGradient
       id="j"
       x1="103.95"
       x2="89.424"
       y1="-7.6657"
       y2="-7.6657"
       gradientTransform="matrix(0.73652,0,0,0.72048,-52.561,28.853)"
       gradientUnits="userSpaceOnUse"
       spreadMethod="reflect"
       xlink:href="#b-6" />
    <linearGradient
       id="i"
       x1="89.018"
       x2="89.018"
       y1="22.537"
       y2="27.546"
       gradientTransform="matrix(1.6087,0,0,1.6667,-127.47,-18.577)"
       gradientUnits="userSpaceOnUse"
       xlink:href="#a-7" />
    <linearGradient
       id="l"
       x1="102.31"
       x2="102.31"
       y1="-2.3925"
       y2="-24.582"
       gradientTransform="matrix(0.73698,0,0,0.73149,-52.606,21.888)"
       gradientUnits="userSpaceOnUse"
       spreadMethod="reflect">
      <stop
         stop-color="#a5a6a8"
         offset="0"
         id="stop907" />
      <stop
         stop-color="#e8e8e8"
         offset="1"
         id="stop909" />
    </linearGradient>
    <linearGradient
       id="k"
       x1="109.96"
       x2="109.96"
       y1="-24.911"
       y2="-2.3758"
       gradientTransform="matrix(0.73698,0,0,0.73149,-52.606,21.888)"
       gradientUnits="userSpaceOnUse">
      <stop
         stop-color="#b3b3b3"
         offset="0"
         id="stop912" />
      <stop
         stop-color="#dadada"
         offset="1"
         id="stop914" />
    </linearGradient>
    <linearGradient
       id="f-5"
       x1="21.381"
       x2="21.381"
       y1="5.0525"
       y2="44.137"
       gradientUnits="userSpaceOnUse">
      <stop
         stop-color="#fff"
         offset="0"
         id="stop917" />
      <stop
         stop-color="#fff"
         stop-opacity=".23529"
         offset=".081258"
         id="stop919" />
      <stop
         stop-color="#fff"
         stop-opacity=".15686"
         offset=".87819"
         id="stop921" />
      <stop
         stop-color="#fff"
         stop-opacity=".39216"
         offset="1"
         id="stop923" />
    </linearGradient>
    <linearGradient
       gradientTransform="matrix(0.26457812,0,0,0.26457812,-21.623943,-0.26471018)"
       id="o"
       x1="45"
       x2="45"
       y1="31"
       y2="53"
       gradientUnits="userSpaceOnUse">
      <stop
         stop-color="#333"
         offset="0"
         id="stop926" />
      <stop
         stop-color="#717171"
         offset="1"
         id="stop928" />
    </linearGradient>
    <filter
       id="q"
       x="-.06"
       y="-.06"
       width="1.12"
       height="1.12"
       color-interpolation-filters="sRGB">
      <feGaussianBlur
         stdDeviation="0.55000135"
         id="feGaussianBlur931" />
    </filter>
    <linearGradient
       id="linearGradient862-3-3"
       x1="7.9373"
       x2="7.9373"
       y1="15.081"
       y2="1.852"
       gradientTransform="matrix(0.98210785,0,0,0.98210785,0.15122457,0.15938367)"
       gradientUnits="userSpaceOnUse">
      <stop
         stop-color="#f1efeb"
         offset="0"
         id="stop934" />
      <stop
         stop-color="#fdfcfc"
         offset="1"
         id="stop936" />
    </linearGradient>
    <linearGradient
       y2="951.04694"
       x2="500.11551"
       y1="371.07248"
       x1="500.11551"
       gradientTransform="matrix(0.06445408,0,0,0.06445408,-1.6792525,-0.87806223)"
       gradientUnits="userSpaceOnUse"
       id="linearGradient1045"
       xlink:href="#linearGradient1006"
       inkscape:collect="always" />
    <linearGradient
       y2="563.1684"
       x2="625.39099"
       y1="70.322533"
       x1="625.39099"
       gradientTransform="matrix(0.06445408,0,0,0.06445408,-1.6792525,-0.87806225)"
       gradientUnits="userSpaceOnUse"
       id="linearGradient1047"
       xlink:href="#linearGradient999"
       inkscape:collect="always" />
  </defs>
  <sodipodi:namedview
     inkscape:document-rotation="0"
     inkscape:current-layer="svg18"
     inkscape:window-maximized="1"
     inkscape:window-y="0"
     inkscape:window-x="0"
     inkscape:cy="18.954119"
     inkscape:cx="56.139695"
     inkscape:zoom="3.6875"
     showgrid="false"
     id="namedview20"
     inkscape:window-height="1000"
     inkscape:window-width="1920"
     inkscape:pageshadow="2"
     inkscape:pageopacity="0"
     guidetolerance="10"
     gridtolerance="10"
     objecttolerance="10"
     borderopacity="1"
     bordercolor="#666666"
     pagecolor="#ffffff" />
  <g
     transform="translate(-21.833,0.89722)"
     fill="#5e4aa6"
     stroke-width="0.26458"
     id="g949">
    <circle
       cx="-330.35001"
       cy="-328.38"
       r="0"
       id="circle941" />
    <circle
       cx="-312.10999"
       cy="-326.25"
       r="0"
       id="circle943" />
    <circle
       cx="-306.01999"
       cy="-333.07001"
       r="0"
       id="circle945" />
    <circle
       cx="-308.84"
       cy="-326.01001"
       r="0"
       id="circle947" />
  </g>
  <rect
     id="rect951"
     opacity="0.3"
     filter="url(#filter861)"
     ry="3.4395001"
     height="14.552"
     width="14.552"
     y="1.1904998"
     x="1.1905003"
     style="stroke-width:0.083153;stroke-opacity:0.95294" />
  <rect
     style="fill:url(#linearGradient862-3-3)"
     id="rect943"
     stroke-width="0.982107"
     fill="url(#linearGradient862-3)"
     ry="3.3784947"
     rx="3.3784947"
     height="14.551797"
     width="14.551797"
     y="1.1906016"
     x="1.1906016" />
  <g
     transform="matrix(0.67752986,0,0,0.67752986,2.9129128,2.3682749)"
     id="g1043">
    <path
       id="path1035"
       style="opacity:0.5;fill:#000000;fill-opacity:1;stroke-width:0.0170531;filter:url(#filter1024)"
       d="M 3.8518854,6.805652 C 2.66439,6.8286385 1.6629554,7.7912417 1.4381268,9.8100606 1.1823751,11.519558 2.0424862,13.665216 3.6544853,13.62629 c 0.3943595,-0.0095 0.8024308,0.161951 0.9177553,0.21652 0.5331657,0.252358 1.0564335,0.238216 1.5430278,0.07028 C 5.8871225,13.247812 5.7881713,12.519242 5.8439727,11.827986 5.9007099,10.561253 6.2430829,9.6015085 6.7942836,8.9594832 7.163736,8.5291535 7.6289662,8.2530028 8.1383611,8.1249253 7.6940706,7.6789825 7.0757235,7.4141261 6.3720952,7.4092208 5.8725976,7.4073952 5.4784186,7.2802295 5.0796933,7.091417 4.6643241,6.894692 4.2477171,6.7979895 3.8518854,6.805652 Z m 5.0585061,1.5016877 c -1.478471,-0.061644 -2.6952803,1.0811408 -2.8028744,3.5392493 -0.156798,1.926685 0.9630792,4.256096 2.7584338,4.091659 0.4391068,-0.04002 0.9074386,0.121089 1.0402259,0.173113 2.1820742,0.858569 3.9983422,-1.948872 4.2962942,-3.26692 C 14.932981,10.41862 13.411646,8.6796572 11.431118,8.7982559 10.873775,8.8339084 10.424356,8.7217212 9.9656037,8.5409124 9.6070101,8.3997124 9.2515772,8.3215647 8.9103915,8.3073397 Z" />
    <path
       d="m 14.558594,23.722656 c -4.48826,0.08688 -8.2732844,3.725137 -9.1230471,11.355469 -0.9666397,6.46122 2.284238,14.570953 8.3769531,14.423828 1.490522,-0.03575 3.032869,0.612109 3.46875,0.818359 2.015154,0.953814 3.992898,0.900363 5.832031,0.265626 -0.862301,-2.514482 -1.236297,-5.268185 -1.02539,-7.88086 0.214444,-4.787746 1.508478,-8.415197 3.591797,-10.841797 1.396383,-1.626475 3.154768,-2.670215 5.080078,-3.154297 -1.679241,-1.685486 -4.016347,-2.686538 -6.675782,-2.705078 -1.887902,-0.0069 -3.377742,-0.487536 -4.884765,-1.201172 -1.56993,-0.743542 -3.144539,-1.109039 -4.640625,-1.080078 z m 19.11914,5.675782 c -5.588032,-0.23299 -10.187087,4.086282 -10.59375,13.376953 -0.592634,7.282105 3.640056,16.08635 10.425782,15.464843 1.659649,-0.151252 3.429757,0.457667 3.93164,0.654297 C 45.688779,62.13958 52.553548,51.528572 53.679688,46.546875 56.440727,37.378239 50.690686,30.80565 43.205078,31.253906 41.098543,31.388658 39.399916,30.964635 37.666016,30.28125 36.310675,29.74757 34.96728,29.452203 33.677734,29.398438 Z"
       style="fill:url(#linearGradient1045);fill-opacity:1;stroke-width:0.0644539"
       id="path1037"
       transform="scale(0.26457812)" />
    <path
       transform="scale(0.26457812)"
       d="m 18.419922,25.375 c -0.226556,0.0365 -0.388217,0.166934 -0.476563,0.425781 -0.352005,1.03539 1.13403,2.47877 3.320313,3.222657 2.186282,0.743886 4.242323,0.508046 4.595703,-0.527344 0.353381,-1.03539 -1.667233,-1.20338 -3.853516,-1.947266 C 20.366148,25.989878 19.09959,25.265491 18.419922,25.375 Z m 17.9375,6.505859 c -0.491342,-0.0066 -0.799421,0.137432 -0.871094,0.556641 -0.191128,1.116517 1.716558,2.374087 4.261719,2.808594 2.545165,0.434507 4.763951,-0.118437 4.955078,-1.236328 0.191127,-1.11652 -2.06421,-0.983463 -4.609375,-1.417969 -1.589867,-0.271565 -2.917426,-0.69994 -3.736328,-0.710938 z"
       style="fill:#505050;fill-opacity:1;stroke-width:0.0644539"
       id="path1039" />
    <path
       transform="scale(0.26457812)"
       d="M 37.042969,4.5 C 34.882895,4.50476 32.071125,5.1477865 28.898438,7.4199219 27.002284,8.778442 23.891822,7.7156472 21.144531,6.203125 20.855777,6.0436224 20.561607,6.4019498 20.787109,6.6425781 c 2.042883,2.1764896 6.515789,6.3435209 12.033203,8.0195309 -4.466544,3.596235 -7.880859,7.330078 -7.880859,7.330079 -3.306924,3.939421 -5.472656,3.929687 -5.472656,3.929687 -1.505648,0.248878 0.237701,1.801362 0.236328,1.802734 0.479882,0.470257 1.718908,0.995311 2.486328,1.132813 1.817777,0.324505 3.071325,0.138711 2.242188,-1.445313 -0.706761,-1.350269 1.792968,-3.833984 1.792968,-3.833984 2.951604,-3.301632 6.37167,-6.077013 9.492188,-8.302734 0.619034,0.07369 1.245076,0.124398 1.880859,0.11914 2.862421,-0.02339 5.149266,-0.726016 6.978516,-1.701172 -3.054928,5.449912 -4.269531,12.771485 -4.269531,12.771485 -0.80851,5.057324 -2.589844,5.388672 -2.589844,5.388672 -1.713275,0.664135 0.611328,1.979888 0.611328,1.978515 0.706759,0.376755 1.364535,0.555294 2.310547,0.654297 2.250908,0.235128 3.854051,-0.330871 2.457031,-1.666016 -1.529023,-1.46027 -0.578125,-4.917968 -0.578125,-4.917968 2.036921,-9.943976 4.795334,-15.221415 6.269531,-17.248047 -0.492801,2.585101 -0.210002,6.32647 3.587891,10.076172 0,0 2.906703,2.945733 4.027344,5.134765 0.127864,0.250255 0.496874,0.182851 0.53125,-0.09766 0.189736,-1.560649 0.608831,-4.264696 1.355468,-5.730469 0,0 2.133153,-4.996061 -2.966796,-7.230468 0,0.0013 -3.71959,-2.109062 -4.986328,-4.8417972 0.241763,-0.4548003 0.396484,-0.7929688 0.396484,-0.7929688 0,0 -4.752325,0.8282549 -9.212891,-1.6289062 0,0 -1.699325,-1.049087 -4.476562,-1.0429688 z"
       style="fill:url(#linearGradient1047);fill-opacity:1;stroke-width:0.0644539"
       id="path1041" />
  </g>
</svg>
