<?xml version="1.0" encoding="UTF-8"?>
<svg width="64" height="64" version="1.1" xmlns="http://www.w3.org/2000/svg" xmlns:cc="http://creativecommons.org/ns#" xmlns:dc="http://purl.org/dc/elements/1.1/" xmlns:rdf="http://www.w3.org/1999/02/22-rdf-syntax-ns#">
 <metadata>
  <rdf:RDF>
   <cc:Work rdf:about="">
    <dc:format>image/svg+xml</dc:format>
    <dc:type rdf:resource="http://purl.org/dc/dcmitype/StillImage"/>
    <dc:title/>
   </cc:Work>
  </rdf:RDF>
 </metadata>
 <defs>
  <linearGradient id="linearGradient862-3" x1="7.9373" x2="7.9373" y1="15.081" y2="1.852" gradientTransform="matrix(3.7795 0 0 3.7795 .00014309 .031541)" gradientUnits="userSpaceOnUse">
   <stop stop-color="#090909" offset="0"/>
   <stop stop-color="#292929" offset="1"/>
  </linearGradient>
 </defs>
 <g transform="scale(3.7796)" shape-rendering="auto">
  <path d="m4.3693 0.52916c-2.1142 0-3.8402 1.7835-3.8402 3.9682v8.4675c0 2.1846 1.726 3.9682 3.8402 3.9682h8.1944c2.1142 0 3.8402-1.7835 3.8402-3.9682v-8.4675c0-2.1846-1.726-3.9682-3.8402-3.9682zm0.25704 0.52089h7.6808c1.8443 0 3.3291 1.5342 3.3291 3.44v7.9368c0 1.9058-1.4847 3.44-3.3291 3.44h-7.6808c-1.8443 0-3.3291-1.5342-3.3291-3.44v-7.9368c0-1.9058 1.4847-3.44 3.3291-3.44z" color="#000000" color-rendering="auto" dominant-baseline="auto" image-rendering="auto" opacity=".01" solid-color="#000000" stop-color="#000000" style="font-feature-settings:normal;font-variant-alternates:normal;font-variant-caps:normal;font-variant-east-asian:normal;font-variant-ligatures:normal;font-variant-numeric:normal;font-variant-position:normal;font-variation-settings:normal;inline-size:0;isolation:auto;mix-blend-mode:normal;shape-margin:0;shape-padding:0;text-decoration-color:#000000;text-decoration-line:none;text-decoration-style:solid;text-indent:0;text-orientation:mixed;text-transform:none;white-space:normal"/>
  <path d="m4.3587 0.79373c-1.9668 0-3.5639 1.6528-3.5639 3.6876v8.4996c0 2.0348 1.5971 3.6876 3.5639 3.6876h8.2162c1.9668 0 3.5644-1.6528 3.5644-3.6876v-8.4996c0-2.0348-1.5976-3.6876-3.5644-3.6876zm0.27222 0.25631h7.6718c1.8422 0 3.3251 1.5342 3.3251 3.44v7.9368c0 1.9058-1.483 3.44-3.3251 3.44h-7.6718c-1.8422 0-3.3251-1.5342-3.3251-3.44v-7.9368c0-1.9058 1.483-3.44 3.3251-3.44z" color="#000000" color-rendering="auto" dominant-baseline="auto" image-rendering="auto" opacity=".01" solid-color="#000000" stop-color="#000000" style="font-feature-settings:normal;font-variant-alternates:normal;font-variant-caps:normal;font-variant-east-asian:normal;font-variant-ligatures:normal;font-variant-numeric:normal;font-variant-position:normal;font-variation-settings:normal;inline-size:0;isolation:auto;mix-blend-mode:normal;shape-margin:0;shape-padding:0;text-decoration-color:#000000;text-decoration-line:none;text-decoration-style:solid;text-indent:0;text-orientation:mixed;text-transform:none;white-space:normal"/>
  <path d="m4.3097 1.0583c-1.8657 0-3.3751 1.5383-3.3751 3.439v8.4675c0 1.9007 1.57 3.439 3.4357 3.439h8.1996c1.8657 0 3.4274-1.5383 3.4274-3.439v-8.4675c0-1.9007-1.51-3.439-3.3756-3.439h-0.09688c1.794 0.086515 3.2138 1.5819 3.2138 3.4318v7.9368c0 1.9058-1.5059 3.44-3.3766 3.44h-7.7905c-1.8707 0-3.3766-1.5342-3.3766-3.44v-7.9368c0-1.8498 1.4199-3.3451 3.2138-3.4318z" color="#000000" color-rendering="auto" dominant-baseline="auto" image-rendering="auto" opacity=".03" solid-color="#000000" stop-color="#000000" style="font-feature-settings:normal;font-variant-alternates:normal;font-variant-caps:normal;font-variant-east-asian:normal;font-variant-ligatures:normal;font-variant-numeric:normal;font-variant-position:normal;font-variation-settings:normal;inline-size:0;isolation:auto;mix-blend-mode:normal;shape-margin:0;shape-padding:0;text-decoration-color:#000000;text-decoration-line:none;text-decoration-style:solid;text-indent:0;text-orientation:mixed;text-transform:none;white-space:normal"/>
  <path transform="scale(.26458)" d="m4 46.969v2.0312c0 6.6479 5.8957 12 12.544 12h30.961c6.6479 0 12.495-5.3521 12.495-12v-1.9922c-0.021173 7.1849-5.81 12.963-13 12.963h-29.998c-7.2032 0-13.002-5.7987-13.002-13.002z" color="#000000" color-rendering="auto" dominant-baseline="auto" image-rendering="auto" opacity=".03" solid-color="#000000" stop-color="#000000" style="font-feature-settings:normal;font-variant-alternates:normal;font-variant-caps:normal;font-variant-east-asian:normal;font-variant-ligatures:normal;font-variant-numeric:normal;font-variant-position:normal;font-variation-settings:normal;inline-size:0;isolation:auto;mix-blend-mode:normal;shape-margin:0;shape-padding:0;text-decoration-color:#000000;text-decoration-line:none;text-decoration-style:solid;text-indent:0;text-orientation:mixed;text-transform:none;white-space:normal"/>
  <path d="m1.0583 11.906v0.59234c0 1.9386 1.5729 3.4993 3.3318 3.4993h8.1603c1.7589 0 3.3243-1.5608 3.3243-3.4993v-0.58095c-0.0056 2.0952-1.5372 3.7801-3.4395 3.7801h-7.9368c-1.9058 0-3.44-1.691-3.44-3.7915z" color="#000000" color-rendering="auto" dominant-baseline="auto" image-rendering="auto" opacity=".05" solid-color="#000000" stop-color="#000000" style="font-feature-settings:normal;font-variant-alternates:normal;font-variant-caps:normal;font-variant-east-asian:normal;font-variant-ligatures:normal;font-variant-numeric:normal;font-variant-position:normal;font-variation-settings:normal;inline-size:0;isolation:auto;mix-blend-mode:normal;shape-margin:0;shape-padding:0;text-decoration-color:#000000;text-decoration-line:none;text-decoration-style:solid;text-indent:0;text-orientation:mixed;text-transform:none;white-space:normal"/>
 </g>
 <rect x="4" y="4" width="56" height="56" rx="13.002" ry="13.002" fill="url(#linearGradient862-3)" stroke-width="3.7795"/>
 <g transform="matrix(1.1257 0 0 1.1257 -73.301 -57.439)">
  <rect x="73.694" y="59.782" width="39.697" height="39.339" rx="2.5264" ry="2.5264" fill="#0b0b0b"/>
  <path d="m75.987 59.793c-1.2891 0.11735-2.2928 1.1941-2.2928 2.5148v2.4549h4.881v4.8874h-4.881v4.9697h4.881v4.8877h-4.881v4.9697h4.9701v4.8874h-4.9701v4.9697h4.881v4.7859h5.1735v-4.7859h-4.881v-4.9335h4.9701v4.9335h4.881v-4.9236h4.9701v4.9236h-4.9701v4.7859h4.881v-4.7398h4.9701v4.7398h4.881v-4.7148h4.9701v4.7148h2.4437c1.1712 0 2.1485-0.79016 2.4373-1.8678v-2.9181h-4.881v-4.9697h-4.881v-4.8624h4.9701v4.8986h4.881v-4.9697h-4.9701v-4.8775h4.881v-4.9697h-4.881v-4.8877h4.881v-4.9697h-4.881v-4.9335h-24.583v4.9697h4.881v4.8874h-4.881v4.9697h4.881v4.8877h-4.881v4.9236h-4.9701v-4.8775h4.881v-4.9697h-4.881v-4.8877h4.881v-4.9697h-4.881v-4.9335zm12.732 0.04612h4.9701v4.8874h-4.9701zm9.8511 0.02499h4.9701v4.8624h-4.9701zm-4.9701 4.9086h4.9701v4.8775h-4.9701zm9.8511 0.02498h4.9701v4.8525h-4.9701zm-14.732 4.8986h4.9701v4.8877h-4.9701zm9.8511 0.02499h4.9701v4.8628h-4.9701zm-4.9701 4.9089h4.9701v4.8775h-4.9701zm9.8511 0.02499h4.9701v4.8525h-4.9701zm-14.732 4.8986h4.9701v4.8775h-4.881v4.9335h-4.9701v-4.8874h4.881zm9.8511 0.02499h4.9701v4.8525h-4.9701zm-4.881 4.8986h4.9701v4.8874h-4.9701zm4.881 4.9585h4.9701v4.8986h-4.9701z" fill="#e7e7e8"/>
 </g>
 <g transform="matrix(3.991 0 0 3.991 .11985 -.47081)" fill="#646464" stroke-linecap="round" stroke-width=".13229">
  <rect x="3.49" y="1.786" width=".26458" height=".52917" ry=".13229"/>
  <rect x="4.4602" y="1.786" width=".26458" height=".52917" ry=".13229"/>
  <rect x="12.221" y="1.786" width=".26458" height=".52917" ry=".13229"/>
  <rect x="5.4303" y="1.786" width=".26458" height=".52917" ry=".13229"/>
  <rect x="6.4004" y="1.786" width=".26458" height=".52917" ry=".13229"/>
  <rect x="7.3706" y="1.786" width=".26458" height=".52917" ry=".13229"/>
  <rect x="8.3407" y="1.786" width=".26458" height=".52917" ry=".13229"/>
  <rect x="9.3109" y="1.786" width=".26458" height=".52917" ry=".13229"/>
  <rect x="10.281" y="1.786" width=".26458" height=".52917" ry=".13229"/>
  <rect x="11.251" y="1.786" width=".26458" height=".52917" ry=".13229"/>
  <rect transform="rotate(-90)" x="-12.634" y="1.638" width=".26458" height=".52917" ry=".13229"/>
  <rect transform="rotate(-90)" x="-11.664" y="1.638" width=".26458" height=".52917" ry=".13229"/>
  <rect transform="rotate(-90)" x="-3.9026" y="1.638" width=".26458" height=".52917" ry=".13229"/>
  <rect transform="rotate(-90)" x="-10.694" y="1.638" width=".26458" height=".52917" ry=".13229"/>
  <rect transform="rotate(-90)" x="-9.7234" y="1.638" width=".26458" height=".52917" ry=".13229"/>
  <rect transform="rotate(-90)" x="-8.7533" y="1.638" width=".26458" height=".52917" ry=".13229"/>
  <rect transform="rotate(-90)" x="-7.7831" y="1.638" width=".26458" height=".52917" ry=".13229"/>
  <rect transform="rotate(-90)" x="-6.813" y="1.638" width=".26458" height=".52917" ry=".13229"/>
  <rect transform="rotate(-90)" x="-5.8429" y="1.638" width=".26458" height=".52917" ry=".13229"/>
  <rect transform="rotate(-90)" x="-4.8727" y="1.638" width=".26458" height=".52917" ry=".13229"/>
  <rect transform="rotate(-90)" x="-12.634" y="13.809" width=".26458" height=".52917" ry=".13229"/>
  <rect transform="rotate(-90)" x="-11.664" y="13.809" width=".26458" height=".52917" ry=".13229"/>
  <rect transform="rotate(-90)" x="-3.9026" y="13.809" width=".26458" height=".52917" ry=".13229"/>
  <rect transform="rotate(-90)" x="-10.694" y="13.809" width=".26458" height=".52917" ry=".13229"/>
  <rect transform="rotate(-90)" x="-9.7234" y="13.809" width=".26458" height=".52917" ry=".13229"/>
  <rect transform="rotate(-90)" x="-8.7533" y="13.809" width=".26458" height=".52917" ry=".13229"/>
  <rect transform="rotate(-90)" x="-7.7831" y="13.809" width=".26458" height=".52917" ry=".13229"/>
  <rect transform="rotate(-90)" x="-6.813" y="13.809" width=".26458" height=".52917" ry=".13229"/>
  <rect transform="rotate(-90)" x="-5.8429" y="13.809" width=".26458" height=".52917" ry=".13229"/>
  <rect transform="rotate(-90)" x="-4.8727" y="13.809" width=".26458" height=".52917" ry=".13229"/>
  <rect x="3.49" y="13.957" width=".26458" height=".52917" ry=".13229"/>
  <rect x="4.4602" y="13.957" width=".26458" height=".52917" ry=".13229"/>
  <rect x="12.221" y="13.957" width=".26458" height=".52917" ry=".13229"/>
  <rect x="5.4303" y="13.957" width=".26458" height=".52917" ry=".13229"/>
  <rect x="6.4004" y="13.957" width=".26458" height=".52917" ry=".13229"/>
  <rect x="7.3706" y="13.957" width=".26458" height=".52917" ry=".13229"/>
  <rect x="8.3407" y="13.957" width=".26458" height=".52917" ry=".13229"/>
  <rect x="9.3109" y="13.957" width=".26458" height=".52917" ry=".13229"/>
  <rect x="10.281" y="13.957" width=".26458" height=".52917" ry=".13229"/>
  <rect x="11.251" y="13.957" width=".26458" height=".52917" ry=".13229"/>
 </g>
</svg>
