<?xml version="1.0" encoding="UTF-8"?>
<svg width="64" height="64" version="1.1" viewBox="0 0 16.933 16.933" xmlns="http://www.w3.org/2000/svg" xmlns:cc="http://creativecommons.org/ns#" xmlns:dc="http://purl.org/dc/elements/1.1/" xmlns:rdf="http://www.w3.org/1999/02/22-rdf-syntax-ns#" xmlns:xlink="http://www.w3.org/1999/xlink">
 <metadata>
  <rdf:RDF>
   <cc:Work rdf:about="">
    <dc:format>image/svg+xml</dc:format>
    <dc:type rdf:resource="http://purl.org/dc/dcmitype/StillImage"/>
    <dc:title/>
   </cc:Work>
  </rdf:RDF>
 </metadata>
 <defs>
  <linearGradient id="i" x1="400.4" x2="400.4" y1="545.62" y2="517.62" gradientTransform="matrix(.41967 0 0 .41967 -236.66 -184.77)" gradientUnits="userSpaceOnUse">
   <stop stop-color="#d3d3d3" offset="0"/>
   <stop stop-color="#fcf9f9" offset="1"/>
  </linearGradient>
  <linearGradient id="f" x1="400.4" x2="400.4" y1="545.62" y2="517.62" gradientTransform="matrix(.43343 0 0 .43343 -256.41 -186.23)" gradientUnits="userSpaceOnUse">
   <stop stop-color="#8d3aff" offset="0"/>
   <stop stop-color="#ff3680" offset="1"/>
  </linearGradient>
  <linearGradient id="i-1" x1="400.4" x2="400.4" y1="545.62" y2="517.62" gradientTransform="matrix(.41967 0 0 .41967 -225.62 -213.15)" gradientUnits="userSpaceOnUse">
   <stop stop-color="#d3d3d3" offset="0"/>
   <stop stop-color="#fcf9f9" offset="1"/>
  </linearGradient>
  <linearGradient id="f-2" x1="400.4" x2="400.4" y1="545.62" y2="517.62" gradientTransform="matrix(.43343 0 0 .43343 -245.36 -214.6)" gradientUnits="userSpaceOnUse">
   <stop stop-color="#8d3aff" offset="0"/>
   <stop stop-color="#ff3680" offset="1"/>
  </linearGradient>
  <linearGradient id="i-3" x1="400.4" x2="400.4" y1="545.62" y2="517.62" gradientTransform="matrix(.41967 0 0 .41967 -243.98 -178.57)" gradientUnits="userSpaceOnUse">
   <stop stop-color="#d3d3d3" offset="0"/>
   <stop stop-color="#fcf9f9" offset="1"/>
  </linearGradient>
  <linearGradient id="f-6" x1="400.4" x2="400.4" y1="545.62" y2="517.62" gradientTransform="matrix(.43343 0 0 .43343 -263.73 -180.03)" gradientUnits="userSpaceOnUse">
   <stop stop-color="#8d3aff" offset="0"/>
   <stop stop-color="#ff3680" offset="1"/>
  </linearGradient>
  <linearGradient id="linearGradient1634" x1="-59.235" x2="-59.235" y1=".7041" y2="-11.929" gradientTransform="translate(.20294 .40588)" gradientUnits="userSpaceOnUse">
   <stop stop-color="#d73782" offset="0"/>
   <stop stop-color="#eb554b" offset="1"/>
  </linearGradient>
  <linearGradient id="i-36" x1="400.4" x2="400.4" y1="545.62" y2="517.62" gradientTransform="matrix(.41967 0 0 .41967 -173.34 -178.23)" gradientUnits="userSpaceOnUse">
   <stop stop-color="#d3d3d3" offset="0"/>
   <stop stop-color="#fcf9f9" offset="1"/>
  </linearGradient>
  <linearGradient id="f-7" x1="400.4" x2="400.4" y1="545.62" y2="517.62" gradientTransform="matrix(.43343 0 0 .43343 -193.09 -179.69)" gradientUnits="userSpaceOnUse">
   <stop stop-color="#8d3aff" offset="0"/>
   <stop stop-color="#ff3680" offset="1"/>
  </linearGradient>
  <linearGradient id="k" x1="430.56" x2="433.31" y1="536.57" y2="524.17" gradientTransform="matrix(.48338 0 0 .48338 -267.5 -262.66)" gradientUnits="userSpaceOnUse">
   <stop stop-color="#fafafa" offset="0"/>
   <stop stop-color="#fdeef8" offset="1"/>
  </linearGradient>
  <filter id="filter1877" x="-.027479" y="-.021303" width="1.055" height="1.0426" color-interpolation-filters="sRGB">
   <feGaussianBlur stdDeviation="0.072702461"/>
  </filter>
 </defs>
 <g transform="translate(-85.155 -5.646)" fill="#5e4aa6" stroke-width=".26458">
  <circle cx="-330.35" cy="-328.38" r="0"/>
  <circle cx="-312.11" cy="-326.25" r="0"/>
  <circle cx="-306.02" cy="-333.07" r="0"/>
  <circle cx="-308.84" cy="-326.01" r="0"/>
 </g>
 <circle cx="-68.555" cy="38.412" r="0" fill="url(#i)" image-rendering="optimizeSpeed" stroke-width=".26458"/>
 <circle cx="-82.787" cy="44.275" r="0" fill="none" image-rendering="optimizeSpeed" stroke="url(#f)" stroke-width=".56347"/>
 <circle cx="-57.506" cy="10.037" r="0" fill="url(#i-1)" image-rendering="optimizeSpeed" stroke-width=".26458"/>
 <circle cx="-71.738" cy="15.899" r="0" fill="none" image-rendering="optimizeSpeed" stroke="url(#f-2)" stroke-width=".56347"/>
 <g transform="matrix(.26458 0 0 .26458 -39.356 -5.8966)" fill="#5e4aa6">
  <circle cx="-1449.4" cy="-1216.7" r="0" image-rendering="optimizeSpeed"/>
  <circle cx="-1380.4" cy="-1208.7" r="0" image-rendering="optimizeSpeed"/>
  <circle cx="-1357.4" cy="-1234.5" r="0" image-rendering="optimizeSpeed"/>
  <circle cx="-1368.1" cy="-1207.8" r="0" image-rendering="optimizeSpeed"/>
 </g>
 <circle cx="-75.873" cy="44.619" r="0" fill="url(#i-3)" image-rendering="optimizeSpeed" stroke-width=".26458"/>
 <circle cx="-90.105" cy="50.482" r="0" fill="none" image-rendering="optimizeSpeed" stroke="url(#f-6)" stroke-width=".56347"/>
 <g transform="translate(-.0013642 .00017868)">
  <g transform="matrix(1.0909,0,0,1.0909,72.677,15.17)">
   <path d="m-51.583-6.1452c0 0.87223-0.15353 1.7085-0.43508 2.4836-0.19571 0.5387-0.45318 1.048-0.76442 1.5191-0.13037 0.19807-0.27054 0.38935-0.41933 0.57317-0.47634 0.5883-1.0424 1.1006-1.6779 1.5164-0.23402 0.15324-0.47725 0.29342-0.72907 0.41902-0.97788 0.48939-2.0818 0.76468-3.2501 0.76468s-2.2722-0.27529-3.2501-0.7647c-0.25184-0.12563-0.49536-0.2658-0.72938-0.41902-0.64355-0.42141-1.2164-0.94176-1.6966-1.5398-0.14907-0.18531-0.28896-0.37835-0.41933-0.5782-0.30292-0.46327-0.55385-0.96312-0.74569-1.4914-0.28151-0.77483-0.43477-1.6108-0.43477-2.4827 0-4.0184 3.2575-7.2759 7.2759-7.2759 2.0171 0 3.8423 0.82084 5.1603 2.1465 0.37982 0.38189 0.7175 0.806 1.0049 1.2645 0.27174 0.43181 0.49891 0.89448 0.67561 1.3812 0.28158 0.77511 0.4351 1.6114 0.4351 2.4836z" fill="url(#linearGradient1634)" stroke-width=".028422"/>
   <g transform="translate(9.5328 -.26105)">
    <circle cx="-71.609" cy="-9.1548" r=".65955" fill="#ff7d91"/>
    <circle cx="-71.609" cy="-6.9743" r=".65955" fill="#fa768a"/>
    <circle cx="-71.609" cy="-4.7938" r=".65955" fill="#f56984"/>
    <circle cx="-71.609" cy="-2.6133" r=".65955" fill="#eb5683"/>
    <circle cx="-71.609" cy="-.43282" r=".65955" fill="#e04683"/>
    <g fill="#960000">
     <circle cx="-71.609" cy="-11.335" r=".65955" opacity=".1"/>
     <circle cx="-73.755" cy="-9.1548" r=".65955" opacity=".1"/>
     <circle cx="-73.755" cy="-6.9743" r=".65955" opacity=".1"/>
     <circle cx="-73.755" cy="-4.7938" r=".65955" opacity=".1"/>
    </g>
    <circle cx="-73.755" cy="-2.6133" r=".65955" fill="#eb5683"/>
    <g fill="#960000">
     <circle cx="-69.464" cy="-11.335" r=".65955" opacity=".1"/>
     <circle cx="-69.464" cy="-9.1548" r=".65955" opacity=".1"/>
     <circle cx="-67.319" cy="-9.1548" r=".65955" opacity=".1"/>
     <circle cx="-65.174" cy="-9.1548" r=".65955" opacity=".1"/>
     <circle cx="-63.028" cy="-9.1548" r=".65955" opacity=".1"/>
     <circle cx="-69.464" cy="-6.9743" r=".65955" opacity=".1"/>
    </g>
    <circle cx="-69.464" cy="-4.7938" r=".65955" fill="#f56984"/>
    <circle cx="-69.464" cy="-2.6133" r=".65955" fill="#eb5683"/>
    <circle cx="-69.464" cy="-.43282" r=".65955" fill="#e04683"/>
    <g fill="#960000">
     <circle cx="-67.319" cy="-11.335" r=".65955" opacity=".1"/>
     <circle cx="-65.174" cy="-11.335" r=".65955" opacity=".1"/>
     <circle cx="-67.319" cy="-6.9743" r=".65955" opacity=".1"/>
    </g>
    <circle cx="-65.174" cy="-6.9743" r=".65955" fill="#fa768a"/>
    <circle cx="-67.319" cy="-4.7938" r=".65955" fill="#960000" opacity=".1"/>
    <circle cx="-67.319" cy="-2.6133" r=".65955" fill="#eb5683"/>
    <circle cx="-67.319" cy="-.43282" r=".65955" fill="#e04683"/>
    <circle cx="-65.174" cy="-4.7938" r=".65955" fill="#f56984"/>
    <circle cx="-65.174" cy="-2.6133" r=".65955" fill="#eb5683"/>
    <circle cx="-65.174" cy="-.43282" r=".65955" fill="#e04683"/>
    <circle cx="-63.028" cy="-6.9743" r=".65955" fill="#960000" opacity=".1"/>
    <circle cx="-63.028" cy="-4.7938" r=".65955" fill="#960000" opacity=".1"/>
    <circle cx="-63.028" cy="-2.6133" r=".65955" fill="#eb5683"/>
   </g>
   <path transform="matrix(1.0228 0 0 1.0208 1.4299 .21365)" d="m-60.157-9.1368c-0.27072 0.07597-0.48865 0.37808-0.48865 0.67158v4.6529c-0.27453-0.1505-0.62705-0.21136-0.99256-0.1119-0.65954 0.17943-1.0729 0.75934-0.93147 1.2951 0.14138 0.53575 0.79112 0.83498 1.4507 0.65552 0.52617-0.14314 0.8889-0.54821 0.94674-0.97531l0.01541-4.397 3.4205-0.95936v3.4697c-0.2745-0.15051-0.62705-0.21137-0.99256-0.11194-0.65954 0.17944-1.0728 0.75936-0.93147 1.2951 0.14139 0.53577 0.79112 0.83498 1.4507 0.65554 0.52619-0.14314 0.8889-0.54818 0.94674-0.97531l0.01548-5.7241c0-0.22008-0.12991-0.38472-0.3054-0.4157l-3.6038 0.97531z" filter="url(#filter1877)" image-rendering="optimizeSpeed" opacity=".35" stroke-width=".26458"/>
   <path d="m-60.157-9.1368c-0.27072 0.07597-0.48865 0.37808-0.48865 0.67158v4.6529c-0.27453-0.1505-0.62705-0.21136-0.99256-0.1119-0.65954 0.17943-1.0729 0.75934-0.93147 1.2951 0.14138 0.53575 0.79112 0.83498 1.4507 0.65552 0.52617-0.14314 0.8889-0.54821 0.94674-0.97531l0.01541-4.397 3.4205-0.95936v3.4697c-0.2745-0.15051-0.62705-0.21137-0.99256-0.11194-0.65954 0.17944-1.0728 0.75936-0.93147 1.2951 0.14139 0.53577 0.79112 0.83498 1.4507 0.65554 0.52619-0.14314 0.8889-0.54818 0.94674-0.97531l0.01548-5.7241c0-0.22008-0.12991-0.38472-0.3054-0.4157l-3.6038 0.97531z" fill="url(#k)" image-rendering="optimizeSpeed" stroke-width=".26458"/>
   <path d="m-60.157-9.1368c-0.27072 0.07597-0.48865 0.37808-0.48865 0.67158v4.6529c-0.27453-0.1505-0.62705-0.21136-0.99256-0.1119-0.65954 0.17943-1.0729 0.75934-0.93147 1.2951 0.14138 0.53575 0.79112 0.83498 1.4507 0.65552 0.52617-0.14314 0.8889-0.54821 0.94674-0.97531l0.01541-4.397 3.4205-0.95936v3.4697c-0.2745-0.15051-0.62705-0.21137-0.99256-0.11194-0.65954 0.17944-1.0728 0.75936-0.93147 1.2951 0.14139 0.53577 0.79112 0.83498 1.4507 0.65554 0.52619-0.14314 0.8889-0.54818 0.94674-0.97531l0.01548-5.7241c0-0.22008-0.12991-0.38472-0.3054-0.4157l-3.6038 0.97531z" fill="none" image-rendering="optimizeSpeed" stroke="#f56e82" stroke-width=".079373"/>
  </g>
  <g transform="translate(-21.834 .89695)" fill="#5e4aa6" stroke-width=".26458">
   <circle cx="-330.35" cy="-328.38" r="0"/>
   <circle cx="-312.11" cy="-326.25" r="0"/>
   <circle cx="-306.02" cy="-333.07" r="0"/>
   <circle cx="-308.84" cy="-326.01" r="0"/>
  </g>
  <circle cx="-5.2346" cy="44.956" r="0" fill="url(#i-36)" image-rendering="optimizeSpeed" stroke-width=".26458"/>
  <circle cx="-19.466" cy="50.818" r="0" fill="none" image-rendering="optimizeSpeed" stroke="url(#f-7)" stroke-width=".56347"/>
 </g>
</svg>
