<?xml version="1.0" encoding="UTF-8" standalone="no"?>
<svg
   xmlns:dc="http://purl.org/dc/elements/1.1/"
   xmlns:cc="http://creativecommons.org/ns#"
   xmlns:rdf="http://www.w3.org/1999/02/22-rdf-syntax-ns#"
   xmlns:svg="http://www.w3.org/2000/svg"
   xmlns="http://www.w3.org/2000/svg"
   xmlns:xlink="http://www.w3.org/1999/xlink"
   xmlns:sodipodi="http://sodipodi.sourceforge.net/DTD/sodipodi-0.dtd"
   xmlns:inkscape="http://www.inkscape.org/namespaces/inkscape"
   width="64"
   height="64"
   viewBox="0 0 16.933333 16.933334"
   version="1.1"
   id="svg8"
   inkscape:version="1.0.2 (e86c870879, 2021-01-15)"
   sodipodi:docname="colorgrab.svg">
  <defs
     id="defs2">
    <linearGradient
       inkscape:collect="always"
       xlink:href="#linearGradient1475"
       id="linearGradient1469"
       x1="-16.972294"
       y1="1.18721"
       x2="-2.604176"
       y2="15.647448"
       gradientUnits="userSpaceOnUse"
       gradientTransform="matrix(1.018202,0,0,1.018202,18.436435,-0.15393948)" />
    <linearGradient
       inkscape:collect="always"
       id="linearGradient1475">
      <stop
         style="stop-color:#fc372a;stop-opacity:1"
         offset="0"
         id="stop1471" />
      <stop
         style="stop-color:#fd4a2b;stop-opacity:1"
         offset="1"
         id="stop1473" />
    </linearGradient>
    <linearGradient
       inkscape:collect="always"
       xlink:href="#linearGradient1627"
       id="linearGradient1629-3"
       x1="187.65697"
       y1="-13.000042"
       x2="187.27672"
       y2="10.005526"
       gradientUnits="userSpaceOnUse"
       gradientTransform="matrix(0.18857593,0,0,0.18857593,-26.185891,5.2503234)" />
    <linearGradient
       inkscape:collect="always"
       id="linearGradient1627">
      <stop
         style="stop-color:#b3c7c5;stop-opacity:1;"
         offset="0"
         id="stop1623" />
      <stop
         style="stop-color:#bdbacb;stop-opacity:1"
         offset="1"
         id="stop1625-6" />
    </linearGradient>
    <linearGradient
       inkscape:collect="always"
       xlink:href="#linearGradient1639"
       id="linearGradient1633"
       gradientUnits="userSpaceOnUse"
       x1="187.08658"
       y1="3.541151"
       x2="187.08659"
       y2="28.448006"
       gradientTransform="matrix(0.18857593,0,0,0.18857593,-26.185891,5.2503234)" />
    <linearGradient
       id="linearGradient1639"
       inkscape:collect="always">
      <stop
         id="stop1635"
         offset="0"
         style="stop-color:#b3c7c5;stop-opacity:0.11956522" />
      <stop
         id="stop1637"
         offset="1"
         style="stop-color:#974e6f;stop-opacity:1" />
    </linearGradient>
    <linearGradient
       inkscape:collect="always"
       xlink:href="#linearGradient1649"
       id="linearGradient1643"
       gradientUnits="userSpaceOnUse"
       x1="174.15782"
       y1="13.427842"
       x2="235.94965"
       y2="22.36389"
       gradientTransform="matrix(0.18857593,0,0,0.18857593,-26.185891,5.2503234)" />
    <linearGradient
       inkscape:collect="always"
       id="linearGradient1649">
      <stop
         style="stop-color:#b3c7c5;stop-opacity:0.11956522"
         offset="0"
         id="stop1645" />
      <stop
         style="stop-color:#6bcb7e;stop-opacity:1"
         offset="1"
         id="stop1647" />
    </linearGradient>
    <radialGradient
       inkscape:collect="always"
       xlink:href="#linearGradient1657"
       id="radialGradient1659"
       cx="169.30956"
       cy="44.513878"
       fx="169.30956"
       fy="44.513878"
       r="32.036678"
       gradientUnits="userSpaceOnUse"
       gradientTransform="matrix(0.18857593,0,0,0.18857593,-26.185891,5.2503234)" />
    <linearGradient
       inkscape:collect="always"
       id="linearGradient1657">
      <stop
         style="stop-color:#fe2e25;stop-opacity:1;"
         offset="0"
         id="stop1653" />
      <stop
         style="stop-color:#fe2e25;stop-opacity:0;"
         offset="1"
         id="stop1655" />
    </linearGradient>
    <radialGradient
       inkscape:collect="always"
       xlink:href="#linearGradient1667"
       id="radialGradient1669"
       cx="151.81772"
       cy="22.554016"
       fx="151.81772"
       fy="22.554016"
       r="32.036678"
       gradientUnits="userSpaceOnUse"
       gradientTransform="matrix(0.18857593,0,0,0.12926125,-26.185891,6.5881076)" />
    <linearGradient
       inkscape:collect="always"
       id="linearGradient1667">
      <stop
         style="stop-color:#fc5b9f;stop-opacity:1;"
         offset="0"
         id="stop1663" />
      <stop
         style="stop-color:#fc5b9f;stop-opacity:0;"
         offset="1"
         id="stop1665" />
    </linearGradient>
    <radialGradient
       inkscape:collect="always"
       xlink:href="#linearGradient1677"
       id="radialGradient1679"
       cx="188.70268"
       cy="47.651001"
       fx="188.70268"
       fy="47.651001"
       r="32.036678"
       gradientUnits="userSpaceOnUse"
       gradientTransform="matrix(0.134857,0.00335744,-0.00469338,0.18851752,-15.825339,4.6195499)" />
    <linearGradient
       inkscape:collect="always"
       id="linearGradient1677">
      <stop
         style="stop-color:#fb7940;stop-opacity:1;"
         offset="0"
         id="stop1673" />
      <stop
         style="stop-color:#fb7940;stop-opacity:0;"
         offset="1"
         id="stop1675" />
    </linearGradient>
    <linearGradient
       inkscape:collect="always"
       xlink:href="#linearGradient1704"
       id="linearGradient1706"
       x1="229.11075"
       y1="-87.500366"
       x2="229.11075"
       y2="-27.539564"
       gradientUnits="userSpaceOnUse"
       gradientTransform="matrix(0.18857593,0,0,0.18857593,-34.600704,19.405104)" />
    <linearGradient
       inkscape:collect="always"
       id="linearGradient1704">
      <stop
         style="stop-color:#585755;stop-opacity:1"
         offset="0"
         id="stop1700" />
      <stop
         style="stop-color:#000000;stop-opacity:1"
         offset="1"
         id="stop1702" />
    </linearGradient>
    <linearGradient
       inkscape:collect="always"
       xlink:href="#linearGradient1714"
       id="linearGradient1716"
       x1="234.06223"
       y1="-69.182564"
       x2="234.46556"
       y2="-29.925714"
       gradientUnits="userSpaceOnUse"
       gradientTransform="matrix(0.18857593,0,0,0.18857593,-35.785892,18.308578)" />
    <linearGradient
       inkscape:collect="always"
       id="linearGradient1714">
      <stop
         style="stop-color:#4c4c4d;stop-opacity:1"
         offset="0"
         id="stop1710" />
      <stop
         style="stop-color:#080a09;stop-opacity:1"
         offset="1"
         id="stop1712" />
    </linearGradient>
    <linearGradient
       inkscape:collect="always"
       xlink:href="#linearGradient1761-5"
       id="linearGradient1763-7"
       x1="191.65932"
       y1="-7.2191339"
       x2="187.57224"
       y2="54.835995"
       gradientUnits="userSpaceOnUse"
       gradientTransform="matrix(0.18857593,0,0,0.18857593,-26.266666,4.3641324)" />
    <linearGradient
       inkscape:collect="always"
       id="linearGradient1761-5">
      <stop
         style="stop-color:#4f4e4c;stop-opacity:1"
         offset="0"
         id="stop1757" />
      <stop
         style="stop-color:#040404;stop-opacity:1"
         offset="1"
         id="stop1759" />
    </linearGradient>
    <linearGradient
       inkscape:collect="always"
       xlink:href="#linearGradient1776"
       id="linearGradient1778"
       x1="775.23987"
       y1="12.870169"
       x2="775.23987"
       y2="254.36813"
       gradientUnits="userSpaceOnUse"
       gradientTransform="matrix(0.04989405,0,0,0.04989405,-30.851403,2.2257629)" />
    <linearGradient
       inkscape:collect="always"
       id="linearGradient1776">
      <stop
         style="stop-color:#fefdfe;stop-opacity:1;"
         offset="0"
         id="stop1772" />
      <stop
         style="stop-color:#cac8ca;stop-opacity:1"
         offset="1"
         id="stop1774" />
    </linearGradient>
    <linearGradient
       inkscape:collect="always"
       xlink:href="#linearGradient3206"
       id="linearGradient3208"
       x1="105.37055"
       y1="46.235207"
       x2="115.14718"
       y2="51.178555"
       gradientUnits="userSpaceOnUse"
       gradientTransform="matrix(0.18857593,0,0,0.18857593,-12.167588,-1.0413236)" />
    <linearGradient
       inkscape:collect="always"
       id="linearGradient3206">
      <stop
         style="stop-color:#949494;stop-opacity:1"
         offset="0"
         id="stop3201" />
      <stop
         id="stop3210"
         offset="0.18564586"
         style="stop-color:#d3d6d0;stop-opacity:1" />
      <stop
         style="stop-color:#f1f1f0;stop-opacity:1"
         offset="0.30063844"
         id="stop3212" />
      <stop
         id="stop3214"
         offset="0.43893421"
         style="stop-color:#8d8789;stop-opacity:1" />
      <stop
         style="stop-color:#515351;stop-opacity:1"
         offset="0.57131511"
         id="stop3216" />
      <stop
         id="stop3218"
         offset="0.7386508"
         style="stop-color:#777976;stop-opacity:1" />
      <stop
         style="stop-color:#7f7f7f;stop-opacity:1"
         offset="1"
         id="stop3204" />
    </linearGradient>
    <linearGradient
       inkscape:collect="always"
       xlink:href="#linearGradient3278"
       id="linearGradient3262"
       gradientUnits="userSpaceOnUse"
       x1="95.48378"
       y1="64.344528"
       x2="105.10617"
       y2="68.147102"
       gradientTransform="matrix(0.18857593,0,0,0.18857593,-12.167588,-1.0413236)" />
    <linearGradient
       id="linearGradient3278"
       inkscape:collect="always">
      <stop
         id="stop3264"
         offset="0"
         style="stop-color:#e97b79;stop-opacity:1" />
      <stop
         style="stop-color:#e56d67;stop-opacity:1"
         offset="0.13358633"
         id="stop3266" />
      <stop
         id="stop3268"
         offset="0.16765675"
         style="stop-color:#e96a64;stop-opacity:1" />
      <stop
         id="stop3270"
         offset="0.25417659"
         style="stop-color:#ebb7b0;stop-opacity:1" />
      <stop
         id="stop3272"
         offset="0.40596327"
         style="stop-color:#f06b61;stop-opacity:1" />
      <stop
         id="stop3274"
         offset="0.46568662"
         style="stop-color:#e9342a;stop-opacity:1" />
      <stop
         id="stop3276"
         offset="1"
         style="stop-color:#ee584f;stop-opacity:1" />
    </linearGradient>
    <linearGradient
       inkscape:collect="always"
       xlink:href="#linearGradient3233"
       id="linearGradient3235"
       x1="76.172195"
       y1="81.47226"
       x2="84.38752"
       y2="89.817459"
       gradientUnits="userSpaceOnUse"
       gradientTransform="matrix(0.19024892,0,0,0.18875978,-11.594354,-4.2652206)" />
    <linearGradient
       inkscape:collect="always"
       id="linearGradient3233">
      <stop
         style="stop-color:#e5999a;stop-opacity:1"
         offset="0"
         id="stop3229" />
      <stop
         id="stop3237"
         offset="0.13358633"
         style="stop-color:#e39e9e;stop-opacity:1" />
      <stop
         style="stop-color:#e39d9d;stop-opacity:1"
         offset="0.16765675"
         id="stop3246" />
      <stop
         style="stop-color:#ebb7b0;stop-opacity:1"
         offset="0.25417659"
         id="stop3244" />
      <stop
         style="stop-color:#f0b2ac;stop-opacity:1"
         offset="0.40596327"
         id="stop3241" />
      <stop
         style="stop-color:#ed948d;stop-opacity:1"
         offset="0.46568662"
         id="stop3239" />
      <stop
         style="stop-color:#ec746c;stop-opacity:1"
         offset="1"
         id="stop3231" />
    </linearGradient>
    <linearGradient
       inkscape:collect="always"
       xlink:href="#linearGradient3290"
       id="linearGradient3292"
       x1="118.6922"
       y1="-99.924553"
       x2="113.54983"
       y2="-99.924553"
       gradientUnits="userSpaceOnUse"
       gradientTransform="matrix(0.16860569,0.08445711,-0.08445711,0.16860569,-18.335414,14.401557)" />
    <linearGradient
       inkscape:collect="always"
       id="linearGradient3290">
      <stop
         style="stop-color:#021321;stop-opacity:1;"
         offset="0"
         id="stop3286" />
      <stop
         style="stop-color:#021321;stop-opacity:0;"
         offset="1"
         id="stop3288" />
    </linearGradient>
    <linearGradient
       inkscape:collect="always"
       xlink:href="#linearGradient3290"
       id="linearGradient3315"
       gradientUnits="userSpaceOnUse"
       x1="114.49091"
       y1="-94.883003"
       x2="113.54983"
       y2="-99.924553"
       gradientTransform="matrix(0.16860569,0.08445711,-0.08445711,0.16860569,-18.335414,14.401557)" />
    <radialGradient
       inkscape:collect="always"
       xlink:href="#linearGradient3337"
       id="radialGradient3341"
       gradientUnits="userSpaceOnUse"
       gradientTransform="matrix(0.17942296,0.08987559,-0.03269498,0.06527057,-14.173747,3.0499472)"
       cx="112.69923"
       cy="-105.70264"
       fx="112.69923"
       fy="-105.70264"
       r="7.797595" />
    <linearGradient
       inkscape:collect="always"
       id="linearGradient3337">
      <stop
         style="stop-color:#001627;stop-opacity:1"
         offset="0"
         id="stop3333" />
      <stop
         id="stop3347"
         offset="0.67430347"
         style="stop-color:#031f2d;stop-opacity:1;" />
      <stop
         id="stop3367"
         offset="0.72244352"
         style="stop-color:#425761;stop-opacity:0.91764706;" />
      <stop
         id="stop3359"
         offset="0.80559456"
         style="stop-color:#a1acb1;stop-opacity:0.74509804;" />
      <stop
         style="stop-color:#b4bcc1;stop-opacity:0.65882353;"
         offset="0.83185279"
         id="stop3365" />
      <stop
         id="stop3355"
         offset="0.86905193"
         style="stop-color:#d0d5d8;stop-opacity:0.54509804;" />
      <stop
         id="stop3353"
         offset="0.97408479"
         style="stop-color:#ffffff;stop-opacity:0.12941176;" />
      <stop
         style="stop-color:#ffffff;stop-opacity:0"
         offset="1"
         id="stop3335" />
    </linearGradient>
    <radialGradient
       inkscape:collect="always"
       xlink:href="#linearGradient3378"
       id="radialGradient3382"
       gradientUnits="userSpaceOnUse"
       gradientTransform="matrix(0.26942668,0.14057149,-0.2675483,0.51279709,-60.62618,35.110672)"
       cx="158.31892"
       cy="-101.71404"
       fx="158.31892"
       fy="-101.71404"
       r="6.9220586" />
    <linearGradient
       inkscape:collect="always"
       id="linearGradient3378">
      <stop
         style="stop-color:#040921;stop-opacity:0"
         offset="0"
         id="stop3374" />
      <stop
         id="stop3392"
         offset="0.49486905"
         style="stop-color:#040921;stop-opacity:0;" />
      <stop
         style="stop-color:#040921;stop-opacity:0.31764706;"
         offset="0.65877223"
         id="stop3390" />
      <stop
         style="stop-color:#040921;stop-opacity:0.76470588;"
         offset="0.76591176"
         id="stop3388" />
      <stop
         style="stop-color:#040921;stop-opacity:1"
         offset="1"
         id="stop3376" />
    </linearGradient>
    <linearGradient
       inkscape:collect="always"
       xlink:href="#linearGradient1591"
       id="linearGradient1593"
       x1="393.69342"
       y1="-409.88098"
       x2="392.84286"
       y2="-427.84592"
       gradientUnits="userSpaceOnUse"
       gradientTransform="matrix(0.04461026,0.02234594,-0.02234594,0.04461026,-17.352206,16.658475)" />
    <linearGradient
       inkscape:collect="always"
       id="linearGradient1591">
      <stop
         style="stop-color:#041117;stop-opacity:1;"
         offset="0"
         id="stop1587" />
      <stop
         style="stop-color:#041117;stop-opacity:0;"
         offset="1"
         id="stop1589" />
    </linearGradient>
  </defs>
  <sodipodi:namedview
     id="base"
     pagecolor="#ffffff"
     bordercolor="#666666"
     borderopacity="1.0"
     inkscape:pageopacity="0.0"
     inkscape:pageshadow="2"
     inkscape:zoom="7.9195959"
     inkscape:cx="27.781891"
     inkscape:cy="44.219135"
     inkscape:document-units="mm"
     inkscape:current-layer="layer1"
     inkscape:document-rotation="0"
     showgrid="false"
     units="px"
     inkscape:window-width="1920"
     inkscape:window-height="992"
     inkscape:window-x="0"
     inkscape:window-y="0"
     inkscape:window-maximized="1" />
  <metadata
     id="metadata5">
    <rdf:RDF>
      <cc:Work
         rdf:about="">
        <dc:format>image/svg+xml</dc:format>
        <dc:type
           rdf:resource="http://purl.org/dc/dcmitype/StillImage" />
        <dc:title></dc:title>
      </cc:Work>
    </rdf:RDF>
  </metadata>
  <g
     inkscape:label="图层 1"
     inkscape:groupmode="layer"
     id="layer1">
    <g
       transform="matrix(1.0000192,0,0,1.0000192,4.1098667e-6,-5.1781419e-5)"
       shape-rendering="auto"
       id="g54">
      <path
         d="m 4.3693,0.52916 c -2.1142,0 -3.8402,1.7835 -3.8402,3.9682 v 8.4675 c 0,2.1846 1.726,3.9682 3.8402,3.9682 h 8.1944 c 2.1142,0 3.8402,-1.7835 3.8402,-3.9682 v -8.4675 c 0,-2.1846 -1.726,-3.9682 -3.8402,-3.9682 z m 0.25704,0.52089 h 7.6808 c 1.8443,0 3.3291,1.5342 3.3291,3.44 v 7.9368 c 0,1.9058 -1.4847,3.44 -3.3291,3.44 h -7.6808 c -1.8443,0 -3.3291,-1.5342 -3.3291,-3.44 v -7.9368 c 0,-1.9058 1.4847,-3.44 3.3291,-3.44 z"
         color="#000000"
         color-rendering="auto"
         dominant-baseline="auto"
         image-rendering="auto"
         opacity="0.01"
         solid-color="#000000"
         stop-color="#000000"
         style="font-variant-ligatures:normal;font-variant-position:normal;font-variant-caps:normal;font-variant-numeric:normal;font-variant-alternates:normal;font-variant-east-asian:normal;font-feature-settings:normal;font-variation-settings:normal;text-indent:0;text-decoration:none;text-decoration-line:none;text-decoration-style:solid;text-decoration-color:#000000;text-transform:none;text-orientation:mixed;white-space:normal;shape-padding:0;shape-margin:0;inline-size:0;isolation:auto;mix-blend-mode:normal"
         id="path42" />
      <path
         d="m 4.3587,0.79373 c -1.9668,0 -3.5639,1.6528 -3.5639,3.6876 v 8.4996 c 0,2.0348 1.5971,3.6876 3.5639,3.6876 h 8.2162 c 1.9668,0 3.5644,-1.6528 3.5644,-3.6876 v -8.4996 c 0,-2.0348 -1.5976,-3.6876 -3.5644,-3.6876 z m 0.27222,0.25631 h 7.6718 c 1.8422,0 3.3251,1.5342 3.3251,3.44 v 7.9368 c 0,1.9058 -1.483,3.44 -3.3251,3.44 h -7.6718 c -1.8422,0 -3.3251,-1.5342 -3.3251,-3.44 v -7.9368 c 0,-1.9058 1.483,-3.44 3.3251,-3.44 z"
         color="#000000"
         color-rendering="auto"
         dominant-baseline="auto"
         image-rendering="auto"
         opacity="0.01"
         solid-color="#000000"
         stop-color="#000000"
         style="font-variant-ligatures:normal;font-variant-position:normal;font-variant-caps:normal;font-variant-numeric:normal;font-variant-alternates:normal;font-variant-east-asian:normal;font-feature-settings:normal;font-variation-settings:normal;text-indent:0;text-decoration:none;text-decoration-line:none;text-decoration-style:solid;text-decoration-color:#000000;text-transform:none;text-orientation:mixed;white-space:normal;shape-padding:0;shape-margin:0;inline-size:0;isolation:auto;mix-blend-mode:normal"
         id="path44" />
      <g
         id="g52">
        <path
           d="m 4.3097,1.0583 c -1.8657,0 -3.3751,1.5383 -3.3751,3.439 v 8.4675 c 0,1.9007 1.57,3.439 3.4357,3.439 h 8.1996 c 1.8657,0 3.4274,-1.5383 3.4274,-3.439 V 4.4973 c 0,-1.9007 -1.51,-3.439 -3.3756,-3.439 h -0.09688 c 1.794,0.086515 3.2138,1.5819 3.2138,3.4318 v 7.9368 c 0,1.9058 -1.5059,3.44 -3.3766,3.44 h -7.7905 c -1.8707,0 -3.3766,-1.5342 -3.3766,-3.44 V 4.4901 c 0,-1.8498 1.4199,-3.3451 3.2138,-3.4318 z"
           color="#000000"
           color-rendering="auto"
           dominant-baseline="auto"
           image-rendering="auto"
           opacity="0.03"
           solid-color="#000000"
           stop-color="#000000"
           style="font-variant-ligatures:normal;font-variant-position:normal;font-variant-caps:normal;font-variant-numeric:normal;font-variant-alternates:normal;font-variant-east-asian:normal;font-feature-settings:normal;font-variation-settings:normal;text-indent:0;text-decoration:none;text-decoration-line:none;text-decoration-style:solid;text-decoration-color:#000000;text-transform:none;text-orientation:mixed;white-space:normal;shape-padding:0;shape-margin:0;inline-size:0;isolation:auto;mix-blend-mode:normal"
           id="path46" />
        <path
           transform="scale(0.26458)"
           d="m 4,46.969 v 2.0312 c 0,6.6479 5.8957,12 12.544,12 h 30.961 c 6.6479,0 12.495,-5.3521 12.495,-12 V 47.008 C 59.97883,54.1929 54.19,59.971 47,59.971 H 17.002 C 9.7988,59.971 4,54.1723 4,46.969 Z"
           color="#000000"
           color-rendering="auto"
           dominant-baseline="auto"
           image-rendering="auto"
           opacity="0.03"
           solid-color="#000000"
           stop-color="#000000"
           style="font-variant-ligatures:normal;font-variant-position:normal;font-variant-caps:normal;font-variant-numeric:normal;font-variant-alternates:normal;font-variant-east-asian:normal;font-feature-settings:normal;font-variation-settings:normal;text-indent:0;text-decoration:none;text-decoration-line:none;text-decoration-style:solid;text-decoration-color:#000000;text-transform:none;text-orientation:mixed;white-space:normal;shape-padding:0;shape-margin:0;inline-size:0;isolation:auto;mix-blend-mode:normal"
           id="path48" />
        <path
           d="m 1.0583,11.906 v 0.59234 c 0,1.9386 1.5729,3.4993 3.3318,3.4993 h 8.1603 c 1.7589,0 3.3243,-1.5608 3.3243,-3.4993 v -0.58095 c -0.0056,2.0952 -1.5372,3.7801 -3.4395,3.7801 H 4.4984 c -1.9058,0 -3.44,-1.691 -3.44,-3.7915 z"
           color="#000000"
           color-rendering="auto"
           dominant-baseline="auto"
           image-rendering="auto"
           opacity="0.05"
           solid-color="#000000"
           stop-color="#000000"
           style="font-variant-ligatures:normal;font-variant-position:normal;font-variant-caps:normal;font-variant-numeric:normal;font-variant-alternates:normal;font-variant-east-asian:normal;font-feature-settings:normal;font-variation-settings:normal;text-indent:0;text-decoration:none;text-decoration-line:none;text-decoration-style:solid;text-decoration-color:#000000;text-transform:none;text-orientation:mixed;white-space:normal;shape-padding:0;shape-margin:0;inline-size:0;isolation:auto;mix-blend-mode:normal"
           id="path50" />
      </g>
    </g>
    <path
       id="rect1458"
       style="fill:url(#linearGradient1469);fill-opacity:1;stroke-width:0.134697;stroke-linecap:round"
       d="m 4.5604541,1.0583336 c -1.9401665,0 -3.5021208,1.561955 -3.5021208,3.5021212 v 7.8124242 c 0,1.940166 1.5619543,3.502121 3.5021208,3.502121 h 7.8124249 c 1.940166,0 3.502121,-1.561955 3.502121,-3.502121 V 4.5604548 c 0,-1.9401662 -1.561955,-3.5021213 -3.502121,-3.5021213 z" />
    <g
       id="g1395"
       transform="translate(-3.2333333e-6,-0.28371763)">
      <circle
         style="fill:url(#linearGradient1629-3);fill-opacity:1;stroke:none;stroke-width:0.275383;stroke-miterlimit:4;stroke-dasharray:none;stroke-opacity:1"
         id="path1621"
         cx="8.4666986"
         cy="8.7863951"
         r="6.0413465" />
      <circle
         r="6.0413465"
         cy="8.7863951"
         cx="8.4666986"
         id="circle1631"
         style="fill:url(#linearGradient1633);fill-opacity:1;stroke:none;stroke-width:0.275383;stroke-miterlimit:4;stroke-dasharray:none;stroke-opacity:1" />
      <circle
         style="fill:url(#linearGradient1643);fill-opacity:1;stroke:none;stroke-width:0.275383;stroke-miterlimit:4;stroke-dasharray:none;stroke-opacity:1"
         id="circle1641"
         cx="8.4666986"
         cy="8.7863951"
         r="6.0413465" />
      <circle
         r="6.0413465"
         cy="8.7863951"
         cx="8.4666986"
         id="circle1651"
         style="fill:url(#radialGradient1659);fill-opacity:1;stroke:none;stroke-width:0.275383;stroke-miterlimit:4;stroke-dasharray:none;stroke-opacity:1" />
      <circle
         style="fill:url(#radialGradient1669);fill-opacity:1;stroke:none;stroke-width:0.275383;stroke-miterlimit:4;stroke-dasharray:none;stroke-opacity:1"
         id="circle1661"
         cx="8.4666986"
         cy="8.7863951"
         r="6.0413465" />
      <circle
         r="6.0413465"
         cy="8.7863951"
         cx="8.4666986"
         id="circle1671"
         style="fill:url(#radialGradient1679);fill-opacity:1;stroke:none;stroke-width:0.275383;stroke-miterlimit:4;stroke-dasharray:none;stroke-opacity:1" />
      <path
         inkscape:connector-curvature="0"
         id="rect1689"
         d="M 7.8284542,2.8679078 7.5683622,2.9018204 8.2520652,8.1531683 5.6012493,3.5686659 5.3741925,3.6999302 8.0213062,8.2780013 3.8309852,5.0519421 3.6710709,5.2598013 7.8602232,8.4849833 2.7597249,7.0933106 l -0.06909,0.252881 5.1018593,1.3920627 -5.2476436,0.65447 0.03245,0.260189 5.2552456,-0.655346 -4.598924,2.6261607 0.1298986,0.227739 4.5923974,-2.6224577 -3.2485713,4.1728757 0.2067886,0.161084 3.2591917,-4.1864217 -1.3689669,5.1258337 0.2532707,0.06773 1.3645822,-5.1092677 0.68273,5.2440407 0.259994,-0.03382 L 8.6813302,9.4194233 11.332145,14.004121 11.559202,13.872955 8.9120902,9.2947863 13.10241,12.520845 13.262326,12.313181 9.0730762,9.0877063 14.173574,10.479478 14.242664,10.226499 9.1409012,8.8344363 14.388546,8.1800643 14.355996,7.9197773 9.1010452,8.5752213 13.699774,5.9490606 13.569778,5.7213216 8.9774792,8.3437793 12.226048,4.1709026 12.019067,4.0098191 8.7601682,8.1959483 10.129036,3.0705051 9.8756702,3.0027774 8.5110852,8.1119473 Z"
         style="fill:url(#linearGradient1706);fill-opacity:1;stroke:none;stroke-width:0.245149;stroke-miterlimit:4;stroke-dasharray:none;stroke-opacity:1" />
      <circle
         r="4.0944104"
         cy="8.7863951"
         cx="8.4666996"
         id="path1708"
         style="fill:url(#linearGradient1716);fill-opacity:1;stroke:none;stroke-width:0.245149;stroke-miterlimit:4;stroke-dasharray:none;stroke-opacity:1" />
      <path
         inkscape:connector-curvature="0"
         id="path1718"
         d="M 8.4666982,2.7898998 A 5.9965297,5.9965297 0 0 0 2.4701552,8.7863453 5.9965297,5.9965297 0 0 0 8.4666982,14.782889 5.9965297,5.9965297 0 0 0 14.463241,8.7863453 5.9965297,5.9965297 0 0 0 8.4666982,2.7898998 Z m 0,0.4123079 A 5.5842122,5.5842122 0 0 1 14.050933,8.7863453 5.5842122,5.5842122 0 0 1 8.4666982,14.37058 5.5842122,5.5842122 0 0 1 2.8824633,8.7863453 5.5842122,5.5842122 0 0 1 8.4666982,3.2022077 Z"
         style="fill:url(#linearGradient1763-7);fill-opacity:1;stroke:none;stroke-width:0.309442;stroke-miterlimit:4;stroke-dasharray:none;stroke-opacity:1" />
      <path
         style="color:#000000;font-style:normal;font-variant:normal;font-weight:normal;font-stretch:normal;font-size:medium;line-height:normal;font-family:sans-serif;font-variant-ligatures:normal;font-variant-position:normal;font-variant-caps:normal;font-variant-numeric:normal;font-variant-alternates:normal;font-feature-settings:normal;text-indent:0;text-align:start;text-decoration:none;text-decoration-line:none;text-decoration-style:solid;text-decoration-color:#000000;letter-spacing:normal;word-spacing:normal;text-transform:none;writing-mode:lr-tb;direction:ltr;text-orientation:mixed;dominant-baseline:auto;baseline-shift:baseline;text-anchor:start;white-space:normal;shape-padding:0;clip-rule:nonzero;display:inline;overflow:visible;visibility:visible;isolation:auto;mix-blend-mode:normal;color-interpolation:sRGB;color-interpolation-filters:linearRGB;solid-color:#000000;solid-opacity:1;vector-effect:none;fill:url(#linearGradient1778);fill-opacity:1;fill-rule:nonzero;stroke:none;stroke-width:1.32004;stroke-linecap:butt;stroke-linejoin:miter;stroke-miterlimit:4;stroke-dasharray:none;stroke-dashoffset:0;stroke-opacity:1;color-rendering:auto;image-rendering:auto;shape-rendering:auto;text-rendering:auto;enable-background:accumulate"
         d="m 8.4666702,2.2282966 c -3.5942351,0 -6.5220884,2.927853 -6.5220884,6.5220877 0,3.5942347 2.9278533,6.5220877 6.5220884,6.5220877 3.5942338,0 6.5220878,-2.927853 6.5220878,-6.5220877 0,-3.5942347 -2.927854,-6.5220877 -6.5220878,-6.5220877 z m 0,0.5616005 c 3.3117648,-7.7e-6 5.9964968,2.6846815 5.9965428,5.9964462 8e-6,3.3118027 -2.68474,5.9965517 -5.9965428,5.9965447 -3.3118033,7e-6 -5.9965519,-2.684742 -5.9965444,-5.9965447 4.64e-5,-3.3117647 2.6847795,-5.9964539 5.9965444,-5.9964462 z"
         id="path1765"
         inkscape:connector-curvature="0"
         sodipodi:nodetypes="sssssccccc" />
    </g>
    <g
       id="g3277"
       transform="translate(1.1418808,-1.7316181)">
      <path
         sodipodi:nodetypes="scccccccccccccs"
         inkscape:connector-curvature="0"
         id="rect3180"
         d="M 9.0858516,5.9240223 C 8.695171,5.9049482 8.3043531,6.1251596 8.1075571,6.5148575 l -0.564602,1.118025 -1.925715,3.8132995 C 5.5391579,11.600801 5.5007,11.764146 5.498161,11.92388 c -4.903e-4,1.040448 -0.057352,1.508547 -0.5809968,2.545472 -0.046888,0.09285 -0.00982,0.205311 0.083027,0.252199 l 0.2838695,0.143348 c 0.092848,0.04689 0.2053115,0.0099 0.2521991,-0.08293 C 5.9645029,13.665139 6.4873287,13.261627 7.20409,12.741996 7.3167938,12.648724 7.4133127,12.53 7.4844661,12.3891 L 9.9747831,7.4578748 C 10.237179,6.9382775 10.052245,6.319927 9.5602349,6.0714633 L 9.4693131,6.0254674 C 9.3463107,5.9633511 9.2160781,5.9303805 9.0858516,5.9240223 Z"
         style="fill:url(#linearGradient3208);fill-opacity:1;stroke:#000000;stroke-width:1.20688;stroke-miterlimit:4;stroke-dasharray:none;stroke-opacity:0.00784314" />
      <path
         inkscape:connector-curvature="0"
         id="path3226"
         d="M 8.8350981,9.7146369 C 8.0310914,9.9125283 6.6859676,10.240669 6.1718093,10.347863 L 5.617225,11.446214 c -0.078082,0.154619 -0.1165439,0.317962 -0.1190831,0.477696 -4.903e-4,1.040448 -0.057348,1.508549 -0.5809928,2.545474 -0.046888,0.09285 -0.00982,0.205311 0.083028,0.252199 l 0.2838696,0.143347 c 0.092848,0.04689 0.2053115,0.0099 0.2521991,-0.08293 0.428243,-1.11683 0.9510832,-1.520374 1.6678447,-2.040005 0.1127042,-0.09327 0.209208,-0.211963 0.2803614,-0.352864 z"
         style="fill:url(#linearGradient3262);fill-opacity:1;stroke:#000000;stroke-width:1.20688;stroke-miterlimit:4;stroke-dasharray:none;stroke-opacity:0.00784314" />
      <ellipse
         transform="matrix(0.96015535,-0.27946683,0.32016062,0.94736328,0,0)"
         ry="0.39271119"
         rx="1.3773433"
         cy="11.728344"
         cx="3.9096856"
         id="path3224"
         style="fill:url(#linearGradient3235);fill-opacity:1;stroke:none;stroke-width:0.281822;stroke-miterlimit:4;stroke-dasharray:none;stroke-opacity:1" />
      <path
         inkscape:connector-curvature="0"
         id="path3194"
         d="M 9.0126321,5.923282 C 8.6470642,5.933182 8.2920191,6.1495549 8.1075229,6.5148967 L 5.6172055,11.446222 c -0.078083,0.154619 -0.1165441,0.317962 -0.1190832,0.477697 -4.989e-4,1.040447 -0.057348,1.508548 -0.5809928,2.545473 -0.046888,0.09285 -0.00982,0.205311 0.083027,0.252199 l 0.2838702,0.143348 c 0.092848,0.04689 0.205311,0.0099 0.2521985,-0.08293 0.4282436,-1.11683 0.9510839,-1.520374 1.6678454,-2.040005 0.1127042,-0.09326 0.2092082,-0.211963 0.2803616,-0.352863 L 9.9747491,7.4579137 C 10.237145,6.9383166 10.052211,6.3199661 9.5601999,6.0715022 L 9.4692781,6.0255063 C 9.3462757,5.96339 9.2160411,5.9304194 9.0858146,5.9240617 c -0.024421,-0.00119 -0.048811,-0.00144 -0.073182,-7.783e-4 z m 0.0034,0.1224938 c 0.0213,-5.787e-4 0.042631,-3.492e-4 0.063921,6.836e-4 0.1135872,0.00555 0.2265514,0.034096 0.3340565,0.088387 l 0.091022,0.046094 c 0.4299985,0.2171474 0.5944824,0.7576427 0.3601731,1.221625 L 7.3750955,12.333987 c -0.063453,0.125657 -0.1489343,0.230838 -0.2485932,0.313398 -1.496e-4,9.9e-5 -1.995e-4,2.99e-4 -3.991e-4,3.99e-4 -0.7128574,0.517011 -1.2655014,0.952715 -1.7001982,2.080348 -0.017497,0.03308 -0.05284,0.04449 -0.086536,0.02748 L 5.0554029,14.612361 c -0.034166,-0.01725 -0.045965,-0.05361 -0.028748,-0.0877 0.5283541,-1.046251 0.5935656,-1.555374 0.5941489,-2.59878 0.00225,-0.141395 0.035911,-0.286226 0.1056347,-0.424294 L 8.2170483,6.5702591 C 8.381801,6.2440129 8.6965172,6.0544868 9.0160362,6.0457868 Z"
         style="color:#000000;font-style:normal;font-variant:normal;font-weight:normal;font-stretch:normal;font-size:medium;line-height:normal;font-family:sans-serif;font-variant-ligatures:normal;font-variant-position:normal;font-variant-caps:normal;font-variant-numeric:normal;font-variant-alternates:normal;font-feature-settings:normal;text-indent:0;text-align:start;text-decoration:none;text-decoration-line:none;text-decoration-style:solid;text-decoration-color:#000000;letter-spacing:normal;word-spacing:normal;text-transform:none;writing-mode:lr-tb;direction:ltr;text-orientation:mixed;dominant-baseline:auto;baseline-shift:baseline;text-anchor:start;white-space:normal;shape-padding:0;clip-rule:nonzero;display:inline;overflow:visible;visibility:visible;isolation:auto;mix-blend-mode:normal;color-interpolation:sRGB;color-interpolation-filters:linearRGB;solid-color:#000000;solid-opacity:1;vector-effect:none;fill:#ffffff;fill-opacity:0.771739;fill-rule:nonzero;stroke:none;stroke-width:0.245149;stroke-linecap:butt;stroke-linejoin:miter;stroke-miterlimit:4;stroke-dasharray:none;stroke-dashoffset:0;stroke-opacity:1;color-rendering:auto;image-rendering:auto;shape-rendering:auto;text-rendering:auto;enable-background:accumulate" />
      <path
         style="fill:#0b2536;fill-opacity:1;stroke:none;stroke-width:0.245149;stroke-miterlimit:4;stroke-dasharray:none;stroke-opacity:1"
         d="m 8.3508636,5.7460921 c 0.8914131,0.1312388 1.6254555,0.5766439 2.2874514,1.1658765 0.06894,0.061358 0.109627,0.1831224 0.06829,0.2656381 l -0.452573,0.9034927 c -0.04133,0.082515 -0.13261,0.09004 -0.223554,0.074335 C 9.0127581,7.9796972 8.3586787,7.4875975 7.698934,6.9875275 7.6253852,6.9317797 7.5832649,6.8464897 7.6245979,6.7639746 l 0.452573,-0.9034927 c 0.041333,-0.082516 0.1823834,-0.127827 0.2736902,-0.1143848 z"
         id="rect3280"
         inkscape:connector-curvature="0"
         sodipodi:nodetypes="sssssssss" />
      <path
         sodipodi:nodetypes="sssssssss"
         inkscape:connector-curvature="0"
         id="path3284"
         d="m 8.3508636,5.7460921 c 0.8914131,0.1312388 1.6254555,0.5766439 2.2874514,1.1658765 0.06894,0.061358 0.109627,0.1831224 0.06829,0.2656381 l -0.452573,0.9034927 c -0.04133,0.082515 -0.13261,0.09004 -0.223554,0.074335 C 9.0127581,7.9796972 8.3586787,7.4875975 7.698934,6.9875275 7.6253852,6.9317797 7.5832649,6.8464897 7.6245979,6.7639746 l 0.452573,-0.9034927 c 0.041333,-0.082516 0.1823834,-0.127827 0.2736902,-0.1143848 z"
         style="fill:url(#linearGradient3292);fill-opacity:1;stroke:none;stroke-width:0.245149;stroke-miterlimit:4;stroke-dasharray:none;stroke-opacity:1" />
      <path
         style="fill:url(#linearGradient3315);fill-opacity:1;stroke:none;stroke-width:0.245149;stroke-miterlimit:4;stroke-dasharray:none;stroke-opacity:1"
         d="m 8.3508636,5.7460921 c 0.8914131,0.1312388 1.6254555,0.5766439 2.2874514,1.1658765 0.06894,0.061358 0.109627,0.1831224 0.06829,0.2656381 l -0.452573,0.9034927 c -0.04133,0.082515 -0.13261,0.09004 -0.223554,0.074335 C 9.0127581,7.9796972 8.3586787,7.4875975 7.698934,6.9875275 7.6253852,6.9317797 7.5832649,6.8464897 7.6245979,6.7639746 l 0.452573,-0.9034927 c 0.041333,-0.082516 0.1823834,-0.127827 0.2736902,-0.1143848 z"
         id="path3313"
         inkscape:connector-curvature="0"
         sodipodi:nodetypes="sssssssss" />
      <path
         sodipodi:nodetypes="sssssssss"
         inkscape:connector-curvature="0"
         id="path3317"
         d="m 8.3508636,5.7460921 c 0.8914131,0.1312388 1.6254555,0.5766439 2.2874514,1.1658765 0.06894,0.061358 0.109627,0.1831224 0.06829,0.2656381 l -0.452573,0.9034927 c -0.04133,0.082515 -0.13261,0.09004 -0.223554,0.074335 C 9.0127581,7.9796972 8.3586787,7.4875975 7.698934,6.9875275 7.6253852,6.9317797 7.5832649,6.8464897 7.6245979,6.7639746 l 0.452573,-0.9034927 c 0.041333,-0.082516 0.1823834,-0.127827 0.2736902,-0.1143848 z"
         style="opacity:0.154;fill:url(#radialGradient3341);fill-opacity:1;stroke:none;stroke-width:0.245149;stroke-miterlimit:4;stroke-dasharray:none;stroke-opacity:1" />
      <path
         inkscape:connector-curvature="0"
         style="fill:#183446;fill-opacity:1;stroke:none;stroke-width:0.245149;stroke-miterlimit:4;stroke-dasharray:none;stroke-opacity:1"
         d="M 11.394667,2.5173566 C 10.750886,2.1948774 9.9164489,2.4281849 9.6505367,3.097316 L 9.0295455,4.6601436 c -0.1849636,0.4654348 -0.4006393,0.9177322 -0.578891,1.3823912 0.4964883,0.5028557 1.140199,0.7451123 1.8132165,0.895515 0.256713,-0.421196 0.512634,-0.9098888 0.820281,-1.3192407 l 0.890561,-1.3572783 c 0.394981,-0.6020263 0.06373,-1.421696 -0.580046,-1.7441742 z"
         id="rect3369" />
      <path
         inkscape:connector-curvature="0"
         style="fill:url(#radialGradient3382);fill-opacity:1;stroke:none;stroke-width:0.245149;stroke-miterlimit:4;stroke-dasharray:none;stroke-opacity:1"
         d="M 11.394667,2.5173566 C 10.750886,2.1948774 9.9164489,2.4281849 9.6505367,3.097316 L 9.0295455,4.6601436 c -0.1849636,0.4654348 -0.4006393,0.9177322 -0.578891,1.3823912 0.087486,0.088608 0.1797055,0.1687265 0.2756883,0.2420748 0.00867,0.00662 0.017273,0.013385 0.026003,0.019891 0.026923,0.020065 0.054294,0.039428 0.081802,0.058414 0.00924,0.00637 0.018446,0.012767 0.027748,0.019021 0.028441,0.019133 0.057101,0.037839 0.086122,0.05589 0.0075,0.00467 0.01511,0.00915 0.02265,0.013745 0.031221,0.019039 0.062601,0.037729 0.094442,0.055591 0.1081641,0.060673 0.2198773,0.1145984 0.3342316,0.1630631 0.0035,0.00146 0.0069,0.00306 0.01037,0.00454 0.033361,0.01402 0.067011,0.027372 0.1008159,0.040473 0.0087,0.00338 0.01743,0.00685 0.026181,0.010175 0.033201,0.012603 0.066581,0.024763 0.1001659,0.03655 0.0071,0.00249 0.01422,0.00497 0.02135,0.00742 0.035761,0.012344 0.071651,0.024413 0.1077931,0.035902 1.43e-4,4.87e-5 2.68e-4,2.25e-5 4.01e-4,8.95e-5 5.67e-4,1.722e-4 0.0011,3.467e-4 0.0017,5.189e-4 0.1622092,0.051482 0.3280927,0.09468 0.4957637,0.1321506 0.256714,-0.4211959 0.512635,-0.9098887 0.820282,-1.3192406 l 0.890561,-1.3572784 c 0.394981,-0.6020262 0.06373,-1.4216959 -0.580046,-1.7441742 z"
         id="path3372" />
      <path
         sodipodi:nodetypes="scccs"
         inkscape:connector-curvature="0"
         id="path3394"
         d="M 10.426614,3.5411229 C 10.247998,3.9095762 10.067976,4.0349137 9.0160422,6.0457756 10.161189,3.6988073 9.8850803,3.6032863 10.007264,3.3310637 10.20323,2.9398479 10.604095,2.7013949 10.741805,2.7703735 c 0.137709,0.068978 -0.13217,0.3932309 -0.315191,0.7707494 z"
         style="fill:#ffffff;fill-opacity:0.0869565;stroke:none;stroke-width:0.245149;stroke-miterlimit:4;stroke-dasharray:none;stroke-opacity:1" />
      <path
         inkscape:connector-curvature="0"
         id="path1585"
         d="M 11.394667,2.5173566 C 10.750886,2.1948774 9.9164489,2.4281849 9.6505367,3.097316 L 9.0295455,4.6601436 c -0.1849636,0.4654348 -0.4006393,0.9177322 -0.578891,1.3823912 0.087486,0.088608 0.1797055,0.1687265 0.2756883,0.2420748 0.00867,0.00662 0.017273,0.013385 0.026003,0.019891 0.026923,0.020065 0.054294,0.039428 0.081802,0.058414 0.00924,0.00637 0.018446,0.012767 0.027748,0.019021 0.028441,0.019133 0.057101,0.037839 0.086122,0.05589 0.0075,0.00467 0.01511,0.00915 0.02265,0.013745 0.031221,0.019039 0.062601,0.037729 0.094442,0.055591 0.1081641,0.060673 0.2198773,0.1145984 0.3342316,0.1630631 0.0035,0.00146 0.0069,0.00306 0.01037,0.00454 0.033361,0.01402 0.067011,0.027372 0.1008159,0.040473 0.0087,0.00338 0.01743,0.00685 0.026181,0.010175 0.033201,0.012603 0.066581,0.024763 0.1001659,0.03655 0.0071,0.00249 0.01422,0.00497 0.02135,0.00742 0.035761,0.012344 0.071651,0.024413 0.1077931,0.035902 1.43e-4,4.87e-5 2.68e-4,2.25e-5 4.01e-4,8.95e-5 5.67e-4,1.722e-4 0.0011,3.467e-4 0.0017,5.189e-4 0.1622092,0.051482 0.3280927,0.09468 0.4957637,0.1321506 0.256714,-0.4211959 0.512635,-0.9098887 0.820282,-1.3192406 l 0.890561,-1.3572784 c 0.394981,-0.6020262 0.06373,-1.4216959 -0.580046,-1.7441742 z"
         style="fill:url(#linearGradient1593);fill-opacity:1;stroke:none;stroke-width:0.245149;stroke-miterlimit:4;stroke-dasharray:none;stroke-opacity:1" />
    </g>
  </g>
</svg>
