<?xml version="1.0" encoding="UTF-8" standalone="no"?>
<svg
   xmlns:dc="http://purl.org/dc/elements/1.1/"
   xmlns:cc="http://creativecommons.org/ns#"
   xmlns:rdf="http://www.w3.org/1999/02/22-rdf-syntax-ns#"
   xmlns:svg="http://www.w3.org/2000/svg"
   xmlns="http://www.w3.org/2000/svg"
   xmlns:xlink="http://www.w3.org/1999/xlink"
   xmlns:sodipodi="http://sodipodi.sourceforge.net/DTD/sodipodi-0.dtd"
   xmlns:inkscape="http://www.inkscape.org/namespaces/inkscape"
   width="64"
   height="64"
   version="1.1"
   viewBox="0 0 16.933 16.933"
   id="svg570"
   sodipodi:docname="colorgrab.svg"
   inkscape:version="1.0 (4035a4fb49, 2020-05-01)">
  <sodipodi:namedview
     inkscape:document-rotation="0"
     pagecolor="#ffffff"
     bordercolor="#666666"
     borderopacity="1"
     objecttolerance="10"
     gridtolerance="10"
     guidetolerance="10"
     inkscape:pageopacity="0"
     inkscape:pageshadow="2"
     inkscape:window-width="1920"
     inkscape:window-height="932"
     id="namedview572"
     showgrid="true"
     inkscape:snap-bbox="true"
     inkscape:bbox-nodes="true"
     inkscape:snap-nodes="false"
     inkscape:zoom="8.8498833"
     inkscape:cx="34.92506"
     inkscape:cy="35.332194"
     inkscape:window-x="0"
     inkscape:window-y="36"
     inkscape:window-maximized="1"
     inkscape:current-layer="svg570">
    <inkscape:grid
       type="xygrid"
       id="grid1477" />
  </sodipodi:namedview>
  <metadata
     id="metadata2">
    <rdf:RDF>
      <cc:Work
         rdf:about="">
        <dc:format>image/svg+xml</dc:format>
        <dc:type
           rdf:resource="http://purl.org/dc/dcmitype/StillImage" />
        <dc:title></dc:title>
      </cc:Work>
    </rdf:RDF>
  </metadata>
  <defs
     id="defs158">
    <linearGradient
       inkscape:collect="always"
       id="linearGradient1475">
      <stop
         style="stop-color:#fc372a;stop-opacity:1"
         offset="0"
         id="stop1471" />
      <stop
         style="stop-color:#fd4a2b;stop-opacity:1"
         offset="1"
         id="stop1473" />
    </linearGradient>
    <clipPath
       id="clipPath13429">
      <path
         d="m481 318h22v22h-22z"
         id="path4" />
    </clipPath>
    <clipPath
       id="clipPath13465">
      <path
         d="m507 318h22v22h-22z"
         id="path7" />
    </clipPath>
    <clipPath
       id="clipPath13501">
      <path
         d="m530 318h22v22h-22z"
         id="path10" />
    </clipPath>
    <clipPath
       id="clipPath13753">
      <path
         d="m672 1064c0-1.105 4.925-2 11-2s11 0.895 11 2-4.925 2-11 2-11-0.895-11-2"
         id="path13" />
    </clipPath>
    <clipPath
       id="clipPath13771">
      <path
         d="m660 1057h51v65.001h-51z"
         id="path16" />
    </clipPath>
    <clipPath
       id="clipPath14035">
      <path
         d="m659 517h53v18h-53z"
         id="path19" />
    </clipPath>
    <clipPath
       id="clipPath14127">
      <path
         d="m659 500h53v18h-53z"
         id="path22" />
    </clipPath>
    <clipPath
       id="clipPath14445">
      <path
         d="m648 112h73v60h-73z"
         id="path25" />
    </clipPath>
    <clipPath
       id="clipPath14609">
      <path
         d="m826 1056h59v60h-59z"
         id="path28" />
    </clipPath>
    <clipPath
       id="clipPath15305">
      <path
         d="m805 276h100v100h-100z"
         id="path31" />
    </clipPath>
    <clipPath
       id="clipPath15341">
      <path
         d="m145 1063.8h74.152v45.21h-74.152z"
         id="path34" />
    </clipPath>
    <clipPath
       id="clipPath15715">
      <path
         d="m151 667h57v57h-57z"
         id="path37" />
    </clipPath>
    <clipPath
       id="clipPath15807">
      <path
         d="m154 697h51v51h-51z"
         id="path40" />
    </clipPath>
    <clipPath
       id="clipPath16001">
      <path
         d="m500.04 864.45h36.012v67.52h-36.012z"
         id="path43" />
    </clipPath>
    <clipPath
       id="clipPath16093">
      <path
         d="m836 870.54h47v55.539h-47z"
         id="path46" />
    </clipPath>
    <clipPath
       id="clipPath16477">
      <path
         d="m318.03 702.35h62.848v37.991h-62.848z"
         id="path49" />
    </clipPath>
    <clipPath
       id="clipPath16579">
      <path
         d="m485.03 133.35h62.847v37.991h-62.847z"
         id="path52" />
    </clipPath>
    <clipPath
       id="clipPath16709">
      <path
         d="m493.37 677.93h45.643v68.067h-45.643z"
         id="path55" />
    </clipPath>
    <clipPath
       id="clipPath24218">
      <path
         d="m144.34 1018.2h71.467v78h-71.467z"
         id="path58" />
    </clipPath>
    <clipPath
       id="clipPath24382">
      <path
         d="m293.21 1068.6 66.323-38.292 36.047 62.435-66.323 38.292z"
         id="path61" />
    </clipPath>
    <clipPath
       id="clipPath24650">
      <path
         d="m488.86 1054.5h10v10.706h-10z"
         id="path64" />
    </clipPath>
    <clipPath
       id="clipPath24700">
      <path
         d="m508 1066.8h10.001v10.705h-10.001z"
         id="path67" />
    </clipPath>
    <clipPath
       id="clipPath24750">
      <path
         d="m525 1045.8h10v10.706h-10z"
         id="path70" />
    </clipPath>
    <clipPath
       id="clipPath24864">
      <path
         d="m836 1043.7h25.5v31.5h-25.5z"
         id="path73" />
    </clipPath>
    <clipPath
       id="clipPath24896">
      <path
         d="m838 1062.2h24v24h-24z"
         id="path76" />
    </clipPath>
    <clipPath
       id="clipPath25070">
      <path
         d="m134 489.24h7v6h-7z"
         id="path79" />
    </clipPath>
    <clipPath
       id="clipPath25100">
      <path
         d="m216 489.24h7v6h-7z"
         id="path82" />
    </clipPath>
    <clipPath
       id="clipPath25502">
      <path
         d="m838 477.24h22v22h-22z"
         id="path85" />
    </clipPath>
    <clipPath
       id="clipPath25686">
      <path
         d="m704 1061.2h25v25h-25z"
         id="path88" />
    </clipPath>
    <clipPath
       id="clipPath25788">
      <path
         d="m663.04 1078.6-1.808-3.514-21.07-47.453c13.336-18.439 48.336-26.938 73.836-3.439 0.842 0 6.476 6.246 6 7l-18.386 25.895c-0.483 0.765-1.453 0.946-2.177 0.431l-15.505-11.011c-0.359-0.255-0.847-0.153-1.07 0.238l-18.272 31.869c-0.218 0.384-0.502 0.578-0.782 0.578-0.282 0-0.561-0.197-0.766-0.594"
         id="path91" />
    </clipPath>
    <clipPath
       id="clipPath26420">
      <path
         d="m127 820.24h100v100h-100z"
         id="path94" />
    </clipPath>
    <clipPath
       id="clipPath26860">
      <path
         d="m809 680.24c0-22.092 17.908-40 40-40s40 17.908 40 40c0 22.091-17.908 40-40 40s-40-17.909-40-40"
         id="path97" />
    </clipPath>
    <clipPath
       id="clipPath27506">
      <path
         d="m658 469.24h44v45h-44z"
         id="path100" />
    </clipPath>
    <clipPath
       id="clipPath27772">
      <path
         d="m651 271.24h58v58h-58z"
         id="path103" />
    </clipPath>
    <clipPath
       id="clipPath27864">
      <path
         d="m662 307.24h38v8h-38z"
         id="path106" />
    </clipPath>
    <clipPath
       id="clipPath28028">
      <path
         d="m858.98 137.24c0.013-0.101 0.021-0.203 0.021-0.307v-6.693h15.75c1.237 0 2.25-1.013 2.25-2.25v-11.25l-27-4.5-27 4.5v-2.25l27-4.5 27 4.5v-27c0-1.237-1.013-2.25-2.25-2.25h-49.5c-1.237 0-2.25 1.013-2.25 2.25v-4.25h54v54zm-35.979 0v-9.25c0 1.237 1.013 2.25 2.25 2.25h15.75v6.693c0 0.104 7e-3 0.207 0.02 0.307zm22.5-7h9v4.5h-9zm1.125-9c-0.62 0-1.125-0.506-1.125-1.125v-2.25c0-0.619 0.505-1.125 1.125-1.125h6.75c0.619 0 1.125 0.506 1.125 1.125v2.25c0 0.619-0.506 1.125-1.125 1.125z"
         id="path109" />
    </clipPath>
    <clipPath
       id="clipPath28200">
      <path
         d="m531.27 136.24c6.325-2.29 10.727-8.277 10.727-15.484 0-11.316-10.2-20.563-25.65-34.575l-4.35-3.941-4.35 3.941c-15.45 14.012-25.65 23.259-25.65 34.575v-39.516h60v55zm-26.983 0c2.995-1.052 5.686-2.883 7.71-5.25 2.024 2.367 4.715 4.198 7.71 5.25zm-22.29 0v-15.484c0 7.207 4.402 13.194 10.727 15.484z"
         id="path112" />
    </clipPath>
    <clipPath
       id="clipPath28364">
      <path
         d="m648 79.241h64v64h-64z"
         id="path115" />
    </clipPath>
    <clipPath
       id="clipPath28984">
      <path
         d="m500 691.74c0-3.037 2.463-5.5 5.5-5.5s5.5 2.463 5.5 5.5-2.463 5.5-5.5 5.5-5.5-2.463-5.5-5.5"
         id="path118" />
    </clipPath>
    <clipPath
       id="clipPath29012">
      <path
         d="m500 669.74c0-3.037 2.463-5.5 5.5-5.5s5.5 2.463 5.5 5.5c0 3.038-2.463 5.5-5.5 5.5s-5.5-2.462-5.5-5.5"
         id="path121" />
    </clipPath>
    <clipPath
       id="clipPath29040">
      <path
         d="m494 680.74c0-3.037 2.462-5.5 5.5-5.5s5.5 2.463 5.5 5.5c0 3.038-2.462 5.5-5.5 5.5s-5.5-2.462-5.5-5.5"
         id="path124" />
    </clipPath>
    <clipPath
       id="clipPath29068">
      <path
         d="m513 691.74c0-3.037 2.463-5.5 5.5-5.5s5.5 2.463 5.5 5.5-2.463 5.5-5.5 5.5-5.5-2.463-5.5-5.5"
         id="path127" />
    </clipPath>
    <clipPath
       id="clipPath29096">
      <path
         d="m513 669.74c0-3.037 2.463-5.5 5.5-5.5s5.5 2.463 5.5 5.5c0 3.038-2.463 5.5-5.5 5.5s-5.5-2.462-5.5-5.5"
         id="path130" />
    </clipPath>
    <clipPath
       id="clipPath29124">
      <path
         d="m507 680.74c0-3.037 2.463-5.5 5.5-5.5s5.5 2.463 5.5 5.5c0 3.038-2.463 5.5-5.5 5.5s-5.5-2.462-5.5-5.5"
         id="path133" />
    </clipPath>
    <clipPath
       id="clipPath29152">
      <path
         d="m520 680.74c0-3.037 2.463-5.5 5.5-5.5s5.5 2.463 5.5 5.5c0 3.038-2.463 5.5-5.5 5.5s-5.5-2.462-5.5-5.5"
         id="path136" />
    </clipPath>
    <clipPath
       id="clipPath29252">
      <path
         d="m321 322.24c-4.97 0-9-4.029-9-9 0-4.97 4.03-9 9-9h45c4.971 0 9 4.03 9 9 0 4.971-4.029 9-9 9z"
         id="path139" />
    </clipPath>
    <clipPath
       id="clipPath29280">
      <path
         d="m322 297.24c-4.971 0-9-4.029-9-9 0-4.97 4.029-9 9-9h45c4.971 0 9 4.03 9 9 0 4.971-4.029 9-9 9z"
         id="path142" />
    </clipPath>
    <clipPath
       id="clipPath29400">
      <path
         d="m155 83.24h44v53h-44z"
         id="path145" />
    </clipPath>
    <linearGradient
       id="linearGradient1991"
       x1="4.157"
       x2="12.85"
       y1="4.154"
       y2="12.83"
       gradientUnits="userSpaceOnUse"
       gradientTransform="translate(0,-23.773191)">
      <stop
         stop-color="#f5faff"
         offset="0"
         id="stop148" />
      <stop
         stop-color="#cfdef0"
         offset="1"
         id="stop150" />
    </linearGradient>
    <linearGradient
       id="linearGradient2162"
       x1="10.647"
       x2="6.1985"
       y1="10.727"
       y2="6.3145"
       gradientUnits="userSpaceOnUse"
       gradientTransform="translate(0,-23.773191)">
      <stop
         stop-color="#4b8cf5"
         offset="0"
         id="stop153" />
      <stop
         stop-color="#5faaff"
         offset="1"
         id="stop155" />
    </linearGradient>
    <linearGradient
       gradientUnits="userSpaceOnUse"
       gradientTransform="matrix(0.91667,0,0,0.91667,0.70544,0.70544)"
       y2="2.6458"
       y1="16.404"
       x2="3.9687"
       x1="3.9687"
       id="linearGradient1448">
      <stop
         id="stop1413"
         offset="0"
         stop-color="#dc3282" />
      <stop
         id="stop1415"
         offset="1"
         stop-color="#f05a50" />
    </linearGradient>
    <filter
       color-interpolation-filters="sRGB"
       height="1.054"
       width="1.054"
       y="-.027"
       x="-.027"
       id="filter861">
      <feGaussianBlur
         id="feGaussianBlur1418"
         stdDeviation="0.16371" />
    </filter>
    <linearGradient
       inkscape:collect="always"
       xlink:href="#linearGradient1475"
       id="linearGradient1469"
       x1="-16.972294"
       y1="1.18721"
       x2="-2.604176"
       y2="15.647448"
       gradientUnits="userSpaceOnUse"
       gradientTransform="translate(18.258043)" />
    <linearGradient
       inkscape:collect="always"
       xlink:href="#linearGradient1627"
       id="linearGradient1629-3"
       x1="187.65697"
       y1="-13.000042"
       x2="187.27672"
       y2="10.005526"
       gradientUnits="userSpaceOnUse" />
    <linearGradient
       inkscape:collect="always"
       id="linearGradient1627">
      <stop
         style="stop-color:#b3c7c5;stop-opacity:1;"
         offset="0"
         id="stop1623" />
      <stop
         style="stop-color:#bdbacb;stop-opacity:1"
         offset="1"
         id="stop1625-6" />
    </linearGradient>
    <linearGradient
       inkscape:collect="always"
       xlink:href="#linearGradient1639"
       id="linearGradient1633"
       gradientUnits="userSpaceOnUse"
       x1="187.08658"
       y1="3.541151"
       x2="187.08659"
       y2="28.448006" />
    <linearGradient
       id="linearGradient1639"
       inkscape:collect="always">
      <stop
         id="stop1635"
         offset="0"
         style="stop-color:#b3c7c5;stop-opacity:0.11956522" />
      <stop
         id="stop1637"
         offset="1"
         style="stop-color:#974e6f;stop-opacity:1" />
    </linearGradient>
    <linearGradient
       inkscape:collect="always"
       xlink:href="#linearGradient1649"
       id="linearGradient1643"
       gradientUnits="userSpaceOnUse"
       x1="174.15782"
       y1="13.427842"
       x2="235.94965"
       y2="22.36389" />
    <linearGradient
       inkscape:collect="always"
       id="linearGradient1649">
      <stop
         style="stop-color:#b3c7c5;stop-opacity:0.11956522"
         offset="0"
         id="stop1645" />
      <stop
         style="stop-color:#6bcb7e;stop-opacity:1"
         offset="1"
         id="stop1647" />
    </linearGradient>
    <radialGradient
       inkscape:collect="always"
       xlink:href="#linearGradient1657"
       id="radialGradient1659"
       cx="169.30956"
       cy="44.513878"
       fx="169.30956"
       fy="44.513878"
       r="32.036678"
       gradientUnits="userSpaceOnUse" />
    <linearGradient
       inkscape:collect="always"
       id="linearGradient1657">
      <stop
         style="stop-color:#fe2e25;stop-opacity:1;"
         offset="0"
         id="stop1653" />
      <stop
         style="stop-color:#fe2e25;stop-opacity:0;"
         offset="1"
         id="stop1655" />
    </linearGradient>
    <radialGradient
       inkscape:collect="always"
       xlink:href="#linearGradient1667"
       id="radialGradient1669"
       cx="151.81772"
       cy="22.554016"
       fx="151.81772"
       fy="22.554016"
       r="32.036678"
       gradientUnits="userSpaceOnUse"
       gradientTransform="matrix(1,0,0,0.68545994,0,7.0941416)" />
    <linearGradient
       inkscape:collect="always"
       id="linearGradient1667">
      <stop
         style="stop-color:#fc5b9f;stop-opacity:1;"
         offset="0"
         id="stop1663" />
      <stop
         style="stop-color:#fc5b9f;stop-opacity:0;"
         offset="1"
         id="stop1665" />
    </linearGradient>
    <radialGradient
       inkscape:collect="always"
       xlink:href="#linearGradient1677"
       id="radialGradient1679"
       cx="188.70268"
       cy="47.651001"
       fx="188.70268"
       fy="47.651001"
       r="32.036678"
       gradientUnits="userSpaceOnUse"
       gradientTransform="matrix(0.71513365,0.01780415,-0.02488855,0.99969023,54.941009,-3.344931)" />
    <linearGradient
       inkscape:collect="always"
       id="linearGradient1677">
      <stop
         style="stop-color:#fb7940;stop-opacity:1;"
         offset="0"
         id="stop1673" />
      <stop
         style="stop-color:#fb7940;stop-opacity:0;"
         offset="1"
         id="stop1675" />
    </linearGradient>
    <linearGradient
       inkscape:collect="always"
       xlink:href="#linearGradient1704"
       id="linearGradient1706"
       x1="229.11075"
       y1="-87.500366"
       x2="229.11075"
       y2="-27.539564"
       gradientUnits="userSpaceOnUse"
       gradientTransform="translate(-44.194601,79.760821)" />
    <linearGradient
       inkscape:collect="always"
       id="linearGradient1704">
      <stop
         style="stop-color:#585755;stop-opacity:1"
         offset="0"
         id="stop1700" />
      <stop
         style="stop-color:#000000;stop-opacity:1"
         offset="1"
         id="stop1702" />
    </linearGradient>
    <linearGradient
       inkscape:collect="always"
       xlink:href="#linearGradient1714"
       id="linearGradient1716"
       x1="234.06223"
       y1="-69.182564"
       x2="234.46556"
       y2="-29.925714"
       gradientUnits="userSpaceOnUse"
       gradientTransform="translate(-50.47954,73.946055)" />
    <linearGradient
       inkscape:collect="always"
       id="linearGradient1714">
      <stop
         style="stop-color:#4c4c4d;stop-opacity:1"
         offset="0"
         id="stop1710" />
      <stop
         style="stop-color:#080a09;stop-opacity:1"
         offset="1"
         id="stop1712" />
    </linearGradient>
    <linearGradient
       inkscape:collect="always"
       xlink:href="#linearGradient1761-5"
       id="linearGradient1763-7"
       x1="191.65932"
       y1="-7.2191339"
       x2="187.57224"
       y2="54.835995"
       gradientUnits="userSpaceOnUse" />
    <linearGradient
       inkscape:collect="always"
       id="linearGradient1761-5">
      <stop
         style="stop-color:#4f4e4c;stop-opacity:1"
         offset="0"
         id="stop1757" />
      <stop
         style="stop-color:#040404;stop-opacity:1"
         offset="1"
         id="stop1759" />
    </linearGradient>
    <linearGradient
       inkscape:collect="always"
       xlink:href="#linearGradient1776"
       id="linearGradient1778"
       x1="775.23987"
       y1="12.870169"
       x2="775.23987"
       y2="254.36813"
       gradientUnits="userSpaceOnUse" />
    <linearGradient
       inkscape:collect="always"
       id="linearGradient1776">
      <stop
         style="stop-color:#fefdfe;stop-opacity:1;"
         offset="0"
         id="stop1772" />
      <stop
         style="stop-color:#cac8ca;stop-opacity:1"
         offset="1"
         id="stop1774" />
    </linearGradient>
    <radialGradient
       inkscape:collect="always"
       xlink:href="#linearGradient1839"
       id="radialGradient1845"
       gradientUnits="userSpaceOnUse"
       gradientTransform="matrix(0.37063067,0.03415301,-0.07735298,0.83943948,152.28357,-136.60609)"
       cx="170.87483"
       cy="60.217152"
       fx="170.87483"
       fy="60.217152"
       r="11.965272" />
    <linearGradient
       inkscape:collect="always"
       id="linearGradient1839">
      <stop
         style="stop-color:#070707;stop-opacity:1;"
         offset="0"
         id="stop1835" />
      <stop
         style="stop-color:#070707;stop-opacity:0;"
         offset="1"
         id="stop1837" />
    </linearGradient>
    <radialGradient
       inkscape:collect="always"
       xlink:href="#linearGradient1839"
       id="radialGradient1841"
       cx="170.87483"
       cy="60.217152"
       fx="170.87483"
       fy="60.217152"
       r="11.965272"
       gradientTransform="matrix(0.37063067,0.03415301,-0.07735298,0.83943948,145.38767,-90.956697)"
       gradientUnits="userSpaceOnUse" />
    <linearGradient
       inkscape:collect="always"
       xlink:href="#linearGradient3206"
       id="linearGradient3208"
       x1="105.37055"
       y1="46.235207"
       x2="115.14718"
       y2="51.178555"
       gradientUnits="userSpaceOnUse" />
    <linearGradient
       inkscape:collect="always"
       id="linearGradient3206">
      <stop
         style="stop-color:#949494;stop-opacity:1"
         offset="0"
         id="stop3201" />
      <stop
         id="stop3210"
         offset="0.18564586"
         style="stop-color:#d3d6d0;stop-opacity:1" />
      <stop
         style="stop-color:#f1f1f0;stop-opacity:1"
         offset="0.30063844"
         id="stop3212" />
      <stop
         id="stop3214"
         offset="0.43893421"
         style="stop-color:#8d8789;stop-opacity:1" />
      <stop
         style="stop-color:#515351;stop-opacity:1"
         offset="0.57131511"
         id="stop3216" />
      <stop
         id="stop3218"
         offset="0.7386508"
         style="stop-color:#777976;stop-opacity:1" />
      <stop
         style="stop-color:#7f7f7f;stop-opacity:1"
         offset="1"
         id="stop3204" />
    </linearGradient>
    <linearGradient
       inkscape:collect="always"
       xlink:href="#linearGradient3278"
       id="linearGradient3262"
       gradientUnits="userSpaceOnUse"
       x1="95.48378"
       y1="64.344528"
       x2="105.10617"
       y2="68.147102" />
    <linearGradient
       id="linearGradient3278"
       inkscape:collect="always">
      <stop
         id="stop3264"
         offset="0"
         style="stop-color:#e97b79;stop-opacity:1" />
      <stop
         style="stop-color:#e56d67;stop-opacity:1"
         offset="0.13358633"
         id="stop3266" />
      <stop
         id="stop3268"
         offset="0.16765675"
         style="stop-color:#e96a64;stop-opacity:1" />
      <stop
         id="stop3270"
         offset="0.25417659"
         style="stop-color:#ebb7b0;stop-opacity:1" />
      <stop
         id="stop3272"
         offset="0.40596327"
         style="stop-color:#f06b61;stop-opacity:1" />
      <stop
         id="stop3274"
         offset="0.46568662"
         style="stop-color:#e9342a;stop-opacity:1" />
      <stop
         id="stop3276"
         offset="1"
         style="stop-color:#ee584f;stop-opacity:1" />
    </linearGradient>
    <linearGradient
       inkscape:collect="always"
       xlink:href="#linearGradient3233"
       id="linearGradient3235"
       x1="76.172195"
       y1="81.47226"
       x2="84.38752"
       y2="89.817459"
       gradientUnits="userSpaceOnUse"
       gradientTransform="matrix(1.0088717,0,0,1.0009749,-2.0703853,0.73740235)" />
    <linearGradient
       inkscape:collect="always"
       id="linearGradient3233">
      <stop
         style="stop-color:#e5999a;stop-opacity:1"
         offset="0"
         id="stop3229" />
      <stop
         id="stop3237"
         offset="0.13358633"
         style="stop-color:#e39e9e;stop-opacity:1" />
      <stop
         style="stop-color:#e39d9d;stop-opacity:1"
         offset="0.16765675"
         id="stop3246" />
      <stop
         style="stop-color:#ebb7b0;stop-opacity:1"
         offset="0.25417659"
         id="stop3244" />
      <stop
         style="stop-color:#f0b2ac;stop-opacity:1"
         offset="0.40596327"
         id="stop3241" />
      <stop
         style="stop-color:#ed948d;stop-opacity:1"
         offset="0.46568662"
         id="stop3239" />
      <stop
         style="stop-color:#ec746c;stop-opacity:1"
         offset="1"
         id="stop3231" />
    </linearGradient>
    <linearGradient
       inkscape:collect="always"
       xlink:href="#linearGradient3290"
       id="linearGradient3292"
       x1="118.6922"
       y1="-99.924553"
       x2="113.54983"
       y2="-99.924553"
       gradientUnits="userSpaceOnUse" />
    <linearGradient
       inkscape:collect="always"
       id="linearGradient3290">
      <stop
         style="stop-color:#021321;stop-opacity:1;"
         offset="0"
         id="stop3286" />
      <stop
         style="stop-color:#021321;stop-opacity:0;"
         offset="1"
         id="stop3288" />
    </linearGradient>
    <linearGradient
       inkscape:collect="always"
       xlink:href="#linearGradient3290"
       id="linearGradient3315"
       gradientUnits="userSpaceOnUse"
       x1="114.49091"
       y1="-94.883003"
       x2="113.54983"
       y2="-99.924553" />
    <radialGradient
       inkscape:collect="always"
       xlink:href="#linearGradient3337"
       id="radialGradient3341"
       gradientUnits="userSpaceOnUse"
       gradientTransform="matrix(1.0641571,-2.7133484e-7,8.8392048e-8,0.38711955,-7.2282638,-63.705629)"
       cx="112.69923"
       cy="-105.70264"
       fx="112.69923"
       fy="-105.70264"
       r="7.797595" />
    <linearGradient
       inkscape:collect="always"
       id="linearGradient3337">
      <stop
         style="stop-color:#001627;stop-opacity:1"
         offset="0"
         id="stop3333" />
      <stop
         id="stop3347"
         offset="0.67430347"
         style="stop-color:#031f2d;stop-opacity:1;" />
      <stop
         id="stop3367"
         offset="0.72244352"
         style="stop-color:#425761;stop-opacity:0.91764706;" />
      <stop
         id="stop3359"
         offset="0.80559456"
         style="stop-color:#a1acb1;stop-opacity:0.74509804;" />
      <stop
         style="stop-color:#b4bcc1;stop-opacity:0.65882353;"
         offset="0.83185279"
         id="stop3365" />
      <stop
         id="stop3355"
         offset="0.86905193"
         style="stop-color:#d0d5d8;stop-opacity:0.54509804;" />
      <stop
         id="stop3353"
         offset="0.97408479"
         style="stop-color:#ffffff;stop-opacity:0.12941176;" />
      <stop
         style="stop-color:#ffffff;stop-opacity:0"
         offset="1"
         id="stop3335" />
    </linearGradient>
    <radialGradient
       inkscape:collect="always"
       xlink:href="#linearGradient3378"
       id="radialGradient3382"
       gradientUnits="userSpaceOnUse"
       gradientTransform="matrix(6.0899402,0.10056087,-0.19139649,11.590922,-609.83432,719.10631)"
       cx="158.31892"
       cy="-101.71404"
       fx="158.31892"
       fy="-101.71404"
       r="6.9220586" />
    <linearGradient
       inkscape:collect="always"
       id="linearGradient3378">
      <stop
         style="stop-color:#040921;stop-opacity:0"
         offset="0"
         id="stop3374" />
      <stop
         id="stop3392"
         offset="0.49486905"
         style="stop-color:#040921;stop-opacity:0;" />
      <stop
         style="stop-color:#040921;stop-opacity:0.31764706;"
         offset="0.65877223"
         id="stop3390" />
      <stop
         style="stop-color:#040921;stop-opacity:0.76470588;"
         offset="0.76591176"
         id="stop3388" />
      <stop
         style="stop-color:#040921;stop-opacity:1"
         offset="1"
         id="stop3376" />
    </linearGradient>
    <linearGradient
       inkscape:collect="always"
       xlink:href="#linearGradient1591"
       id="linearGradient1593"
       x1="393.69342"
       y1="-409.88098"
       x2="392.84286"
       y2="-427.84592"
       gradientUnits="userSpaceOnUse" />
    <linearGradient
       inkscape:collect="always"
       id="linearGradient1591">
      <stop
         style="stop-color:#041117;stop-opacity:1;"
         offset="0"
         id="stop1587" />
      <stop
         style="stop-color:#041117;stop-opacity:0;"
         offset="1"
         id="stop1589" />
    </linearGradient>
  </defs>
  <g
     transform="matrix(1.0909 0 0 1.0909 -24.59 .20849)"
     fill="#5e4aa6"
     stroke-width=".26458"
     id="g168">
    <circle
       cx="-330.35"
       cy="-328.38"
       r="0"
       id="circle160" />
    <circle
       cx="-312.11"
       cy="-326.25"
       r="0"
       id="circle162" />
    <circle
       cx="-306.02"
       cy="-333.07"
       r="0"
       id="circle164" />
    <circle
       cx="-308.84"
       cy="-326.01"
       r="0"
       id="circle166" />
  </g>
  <g
     transform="matrix(1.0909 0 0 1.0909 58.057 9.4863)"
     fill="#5e4aa6"
     stroke-width=".26458"
     id="g202">
    <g
       transform="translate(-21.833 .89722)"
       id="g196">
      <circle
         cx="-330.35"
         cy="-328.38"
         r="0"
         id="circle188" />
      <circle
         cx="-312.11"
         cy="-326.25"
         r="0"
         id="circle190" />
      <circle
         cx="-306.02"
         cy="-333.07"
         r="0"
         id="circle192" />
      <circle
         cx="-308.84"
         cy="-326.01"
         r="0"
         id="circle194" />
    </g>
    <circle
       cx="-284.23"
       cy="-330.42"
       r="0"
       id="circle198" />
    <circle
       cx="6.6786"
       cy="4.3998"
       r="0"
       fill-rule="evenodd"
       id="circle200" />
  </g>
  <g
     transform="matrix(.38484 0 0 -.38484 274.87 274.47)"
     id="g210">
    <g
       clip-path="url(#clipPath13429)"
       id="g208">
      <g
         transform="translate(448,326)"
         id="g206">
        <path
           d="m0 0c3.866 0 7 3.134 7 7s-3.134 7-7 7-7-3.134-7-7 3.134-7 7-7"
           fill="#fff"
           fill-rule="evenodd"
           id="path204" />
      </g>
    </g>
  </g>
  <g
     transform="matrix(.38484 0 0 -.38484 274.87 274.47)"
     id="g218">
    <g
       clip-path="url(#clipPath13465)"
       id="g216">
      <g
         transform="translate(474,326)"
         id="g214">
        <path
           d="m0 0c3.866 0 7 3.134 7 7s-3.134 7-7 7-7-3.134-7-7 3.134-7 7-7"
           fill="#fff"
           fill-rule="evenodd"
           id="path212" />
      </g>
    </g>
  </g>
  <g
     transform="matrix(.38484 0 0 -.38484 274.87 274.47)"
     id="g226">
    <g
       clip-path="url(#clipPath13501)"
       id="g224">
      <g
         transform="translate(497,326)"
         id="g222">
        <path
           d="m0 0c3.866 0 7 3.134 7 7s-3.134 7-7 7-7-3.134-7-7 3.134-7 7-7"
           fill="#fff"
           fill-rule="evenodd"
           id="path220" />
      </g>
    </g>
  </g>
  <g
     transform="matrix(.38484 0 0 -.38484 274.87 274.47)"
     id="g232">
    <g
       clip-path="url(#clipPath13753)"
       id="g230">
      <path
         d="m593 1073h36v-18h-36zm18-11c6.075 0 11 0.895 11 2s-4.925 2-11 2-11-0.895-11-2 4.925-2 11-2"
         fill="#fff"
         fill-rule="evenodd"
         id="path228" />
    </g>
  </g>
  <g
     transform="matrix(.38484 0 0 -.38484 274.87 274.47)"
     id="g240">
    <g
       clip-path="url(#clipPath13771)"
       id="g238">
      <g
         transform="translate(583.42,1063)"
         id="g236">
        <path
           d="m0 0s21.582 23.182 21.582 35.147c0 12.048-9.684 21.853-21.582 21.853-11.816 0-21.418-9.805-21.418-21.853 0-8.06 9.766-21.188 16.002-28.832zm0 42.542c3.938 0 7.14-3.323 7.14-7.395 0-3.822-3.202-7.146-7.14-7.146-3.856 0-7.222 3.324-7.222 7.146 0 4.072 3.366 7.395 7.222 7.395"
           fill="#fff"
           id="path234" />
      </g>
    </g>
  </g>
  <g
     transform="matrix(.38484 0 0 -.38484 274.87 274.47)"
     id="g248">
    <g
       clip-path="url(#clipPath14035)"
       id="g246">
      <g
         transform="translate(562,535)"
         id="g244">
        <path
           d="m0 0h35c2.762 0 5-2.238 5-5s-2.238-5-5-5h-35c-2.762 0-5 2.238-5 5s2.238 5 5 5"
           fill="#fff"
           fill-rule="evenodd"
           id="path242" />
      </g>
    </g>
  </g>
  <g
     transform="matrix(.38484 0 0 -.38484 274.87 274.47)"
     id="g256">
    <g
       clip-path="url(#clipPath14127)"
       id="g254">
      <g
         transform="translate(562,518)"
         id="g252">
        <path
           d="m0 0h35c2.762 0 5-2.238 5-5s-2.238-5-5-5h-35c-2.762 0-5 2.238-5 5s2.238 5 5 5"
           fill="#fff"
           fill-rule="evenodd"
           id="path250" />
      </g>
    </g>
  </g>
  <g
     transform="matrix(.38484 0 0 -.38484 274.87 274.47)"
     id="g264">
    <g
       clip-path="url(#clipPath14445)"
       id="g262">
      <g
         transform="translate(536.43,133.83)"
         id="g260">
        <path
           d="m0 0c-10.01-12.916-22.288-9.047-24.23-8.072-4.847 1.293-6.464 10.015-0.326 12.918 10.018 3.226 19.06-0.325 25.524-3.553-0.644-0.967-0.968-1.293-0.968-1.293m10.667 3.553c4.521 8.072 6.139 15.826 6.139 15.826h-15.189v5.812h17.767v2.26h-17.767v8.723h-8.074v-8.723h-16.156v-2.584h16.156v-5.812h-13.57v-2.585h27.783c0-0.325 0-0.325-0.324-0.968 0-2.909-1.936-6.779-3.554-10.014-20.677 8.079-26.491 3.235-28.108 2.584-13.564-9.689-0.968-21.963 1.293-21.638 14.538-3.227 23.905 2.91 30.369 10.657 0.324-0.325 0.967-0.325 1.292-0.325 4.528-2.578 25.848-12.592 25.848-12.592v12.274c-3.878 0.325-15.506 4.195-23.905 7.105"
           fill="#fff"
           id="path258" />
      </g>
    </g>
  </g>
  <g
     transform="matrix(.38484 0 0 -.38484 274.87 274.47)"
     id="g272">
    <g
       clip-path="url(#clipPath14609)"
       id="g270">
      <g
         transform="translate(720.03,1091.5)"
         id="g268">
        <path
           d="m0 0c-0.149 0.354-0.224 0.837-0.224 1.451 0 0.372 0.103 0.828 0.306 1.368 0.205 0.539 0.428 0.958 0.671 1.256-0.019 0.409 0.051 0.902 0.209 1.478 0.159 0.576 0.368 0.976 0.629 1.2 0 2.586 0.86 5.269 2.581 8.05 1.722 2.782 3.744 4.73 6.07 5.846 2.585 1.228 5.6 1.842 9.041 1.842 2.475 0 4.949-0.511 7.423-1.534 0.912-0.391 1.749-0.837 2.512-1.34 0.762-0.502 1.423-1.022 1.981-1.562 0.559-0.54 1.07-1.172 1.534-1.897 0.465-0.725 0.856-1.413 1.172-2.064 0.318-0.651 0.619-1.437 0.908-2.358 0.287-0.921 0.524-1.753 0.71-2.497s0.391-1.655 0.614-2.734l0.028-0.14c1.023-1.543 1.535-2.939 1.535-4.186 0-0.26-0.084-0.632-0.252-1.115-0.168-0.484-0.252-0.837-0.252-1.061 0-0.019 0.015-0.052 0.043-0.099s0.061-0.093 0.098-0.139c0.038-0.046 0.057-0.077 0.057-0.098 1.432-2.121 2.553-4.116 3.363-5.985 0.809-1.869 1.214-3.808 1.214-5.817 0-0.8-0.182-1.73-0.544-2.791-0.363-1.06-0.879-1.59-1.549-1.59-0.167 0-0.349 0.069-0.544 0.209-0.194 0.14-0.371 0.303-0.529 0.489-0.159 0.186-0.335 0.428-0.53 0.725s-0.344 0.543-0.447 0.739-0.228 0.438-0.377 0.725c-0.147 0.288-0.231 0.451-0.251 0.489-0.019 0.019-0.047 0.028-0.085 0.028l-0.138-0.111c-1.099-2.864-2.327-4.938-3.684-6.222 0.372-0.372 0.944-0.73 1.716-1.075s1.414-0.73 1.925-1.158c0.511-0.426 0.841-1.031 0.991-1.814-0.037-0.074-0.074-0.223-0.112-0.447-0.036-0.224-0.101-0.391-0.195-0.501-1.19-1.804-4-2.706-8.427-2.706-0.986 0-2.013 0.084-3.084 0.251-1.069 0.168-1.981 0.354-2.734 0.558s-1.726 0.483-2.916 0.837c-0.279 0.093-0.493 0.158-0.643 0.196-0.259 0.075-0.687 0.115-1.282 0.125-0.595 9e-3 -0.967 0.023-1.116 0.042-0.763-0.838-1.949-1.442-3.559-1.814-1.609-0.372-3.176-0.558-4.702-0.558-0.65 0-1.293 0.014-1.925 0.042s-1.498 0.113-2.595 0.252c-1.098 0.139-2.038 0.33-2.82 0.572-0.781 0.241-1.473 0.613-2.078 1.115-0.604 0.502-0.906 1.098-0.906 1.786 0 0.744 0.093 1.298 0.279 1.661 0.187 0.364 0.569 0.815 1.144 1.353 0.205 0.038 0.581 0.159 1.131 0.363 0.549 0.204 1.009 0.316 1.381 0.334 0.074 0 0.204 0.019 0.39 0.057 0.038 0.037 0.057 0.074 0.057 0.111l-0.057 0.084c-0.892 0.204-1.897 1.185-3.014 2.944-1.117 1.758-1.796 3.214-2.038 4.367l-0.139 0.084c-0.074 0-0.186-0.185-0.334-0.557-0.335-0.763-0.842-1.455-1.521-2.079-0.679-0.622-1.4-0.971-2.163-1.046h-0.028c-0.073 0-0.129 0.041-0.167 0.125-0.037 0.083-0.084 0.134-0.139 0.153-0.428 1.004-0.642 1.934-0.642 2.79 0 5.116 2.343 9.45 7.032 13.002z"
           fill="#fff"
           id="path266" />
      </g>
    </g>
  </g>
  <g
     transform="matrix(.38484 0 0 -.38484 274.87 274.47)"
     id="g280">
    <g
       clip-path="url(#clipPath15305)"
       id="g278">
      <g
         transform="translate(655,300)"
         id="g276">
        <path
           d="m0 0c16.568 0 30 13.432 30 30s-13.432 30-30 30-30-13.432-30-30 13.432-30 30-30z"
           fill="none"
           stroke="#fff"
           stroke-miterlimit="10"
           stroke-width="8"
           id="path274" />
      </g>
    </g>
  </g>
  <g
     transform="matrix(.38484 0 0 -.38484 274.87 274.47)"
     id="g288">
    <g
       clip-path="url(#clipPath15341)"
       id="g286">
      <g
         transform="translate(66.849,1083.1)"
         id="g284">
        <path
           d="m0 0c0 5.302-3.661 9.749-8.591 10.948-0.209 8.314-7.006 14.991-15.366 14.991-4.897 0-9.254-2.293-12.07-5.861-1.579 2.041-4.05 3.358-6.828 3.358-4.769 0-8.633-3.868-8.633-8.639 0-0.416 0.031-0.825 0.089-1.224-0.726 0.13-1.47 0.203-2.232 0.203-6.913 0-12.515-5.607-12.515-12.524 0-6.916 5.602-12.523 12.515-12.523h42.394c6.21 0.013 11.241 5.053 11.241 11.269z"
           fill="#fff"
           id="path282" />
      </g>
    </g>
  </g>
  <g
     transform="matrix(.38484 0 0 -.38484 274.87 274.47)"
     id="g296">
    <g
       clip-path="url(#clipPath15715)"
       id="g294">
      <g
         transform="translate(65.5,681)"
         id="g292">
        <path
           d="m0 0c9.113 0 16.5 7.387 16.5 16.5s-7.387 16.5-16.5 16.5-16.5-7.387-16.5-16.5 7.387-16.5 16.5-16.5z"
           fill="none"
           stroke="#fff"
           stroke-miterlimit="10"
           stroke-width="4"
           id="path290" />
      </g>
    </g>
  </g>
  <g
     transform="matrix(.38484 0 0 -.38484 274.87 274.47)"
     id="g304">
    <g
       clip-path="url(#clipPath15807)"
       id="g302">
      <g
         transform="translate(77.5,711)"
         id="g300">
        <path
           d="m0 0c7.456 0 13.5 6.044 13.5 13.5s-6.044 13.5-13.5 13.5-13.5-6.044-13.5-13.5 6.044-13.5 13.5-13.5z"
           fill="none"
           stroke="#fff"
           stroke-miterlimit="10"
           stroke-width="4"
           id="path298" />
      </g>
    </g>
  </g>
  <g
     transform="matrix(.38484 0 0 -.38484 274.87 274.47)"
     id="g312">
    <g
       clip-path="url(#clipPath16001)"
       id="g310">
      <g
         transform="translate(455.91,931.53)"
         id="g308">
        <path
           d="m0 0c-0.742-1.039-4.75-2.821-8.165-3.563-4.305-0.891-6.531-1.633-8.758-2.82-2.969-1.782-4.601-4.009-4.305-6.087 0.149-0.445 3.711-5.64 7.868-11.578 4.304-5.938 7.868-10.985 8.016-11.134 0.149-0.297-0.445-0.297-2.524-0.148-6.531 0.445-12.469-2.969-15.142-8.314-0.742-1.632-0.89-2.523-0.89-4.453 0-4.453 2.376-8.016 6.829-10.094 1.781-0.742 2.375-0.891 6.086-0.891 4.007 0 4.156 0 6.829 1.336 7.125 3.414 10.093 10.095 7.125 16.181-0.594 1.336-4.305 7.719-8.313 14.251l-7.274 12.024h1.187c4.75 0.297 8.017 1.781 10.244 4.305 1.929 2.227 2.523 4.453 2.374 8.016-0.148 3.266-0.445 4.008-1.187 2.969"
           fill="#fff"
           id="path306" />
      </g>
    </g>
  </g>
  <g
     transform="matrix(.38484 0 0 -.38484 274.87 274.47)"
     id="g320">
    <g
       clip-path="url(#clipPath16093)"
       id="g318">
      <g
         transform="translate(784,902.31)"
         id="g316">
        <path
           d="m0 0c0-1.565-0.904-2.931-2.251-3.674l-27.781-18.472c-0.012-8e-3 -0.026-0.014-0.037-0.02l-0.017-0.011c-0.684-0.376-1.48-0.592-2.331-0.592-2.53 0-4.583 1.913-4.583 4.269v37c0 2.356 2.053 4.27 4.583 4.27 0.851 0 1.647-0.217 2.331-0.596l0.017-8e-3c0.011-9e-3 0.022-0.014 0.037-0.02l27.781-18.471c1.347-0.743 2.251-2.11 2.251-3.675"
           fill="#fff"
           id="path314" />
      </g>
    </g>
  </g>
  <g
     transform="matrix(.38484 0 0 -.38484 274.87 274.47)"
     id="g328">
    <g
       clip-path="url(#clipPath16477)"
       id="g326">
      <g
         transform="translate(223.75,708.35)"
         id="g324">
        <path
           d="m0 0c-15.123 0-27.418 12.329-27.418 27.486 0 1.382 1.111 2.505 2.487 2.505 1.379 0 2.499-1.123 2.499-2.505 0-12.4 10.06-22.487 22.432-22.487 12.375 0 22.443 10.087 22.443 22.487 0 1.382 1.112 2.505 2.488 2.505 1.378 0 2.499-1.123 2.499-2.505 0-15.157-12.304-27.486-27.43-27.486"
           fill="#fff"
           fill-rule="evenodd"
           id="path322" />
      </g>
    </g>
  </g>
  <g
     transform="matrix(.38484 0 0 -.38484 274.87 274.47)"
     id="g336">
    <g
       clip-path="url(#clipPath16579)"
       id="g334">
      <g
         transform="translate(390.75,139.35)"
         id="g332">
        <path
           d="m0 0c-15.123 0-27.418 12.329-27.418 27.485 0 1.383 1.111 2.506 2.487 2.506 1.379 0 2.499-1.123 2.499-2.506 0-12.398 10.06-22.486 22.432-22.486 12.375 0 22.443 10.088 22.443 22.486 0 1.383 1.112 2.506 2.488 2.506 1.378 0 2.499-1.123 2.499-2.506 0-15.156-12.304-27.485-27.43-27.485"
           fill="#fff"
           fill-rule="evenodd"
           id="path330" />
      </g>
    </g>
  </g>
  <g
     transform="matrix(.38484 0 0 -.38484 274.87 274.47)"
     id="g344">
    <g
       clip-path="url(#clipPath16709)"
       id="g342">
      <g
         transform="translate(423.93,686.39)"
         id="g340">
        <path
           d="m0 0c0.245-0.286 0.605-0.456 0.986-0.456 0.382 0 0.743 0.17 0.988 0.456l17.516 20.497c0.333 0.388 0.408 0.933 0.191 1.388-0.211 0.463-0.674 0.756-1.184 0.756h-9.93c-2.118 4.172-3.109 8.382-2.973 12.63 0.135 4.248 1.954 12.361 5.455 24.34-10.956-6.59-17.656-18.44-17.656-31.225v-5.745h-9.93c-0.51 0-0.966-0.293-1.184-0.756-0.211-0.462-0.135-1 0.191-1.388z"
           fill="#fff"
           id="path338" />
      </g>
    </g>
  </g>
  <g
     transform="matrix(.38484 0 0 -.38484 236.5 319.41)"
     id="g352">
    <g
       clip-path="url(#clipPath24218)"
       id="g350">
      <g
         transform="translate(9.1685,1040.9)"
         id="g348">
        <path
           d="m0 0 25.314 21.067-26.077 18.651c5.846 7.671 15.079 12.622 25.468 12.622 17.673 0 32-14.327 32-32s-14.327-32-32-32c-9.948 0-18.836 4.539-24.705 11.66m27.349 31.812c2.835 0 5.132 2.297 5.132 5.132 0 2.834-2.297 5.132-5.132 5.132-2.834 0-5.132-2.298-5.132-5.132 0-2.835 2.298-5.132 5.132-5.132"
           fill="#fff"
           fill-rule="evenodd"
           id="path346" />
      </g>
    </g>
  </g>
  <g
     transform="matrix(.38484 0 0 -.38484 236.5 319.41)"
     id="g360">
    <g
       clip-path="url(#clipPath24382)"
       id="g358">
      <g
         transform="translate(194.25,1130.3)"
         id="g356">
        <path
           d="m0 0c20.173-11.579 43.841 2 51.309 14.862 7.467 12.861 5.032 31.138-10.468 37.638s-45.487 6.611-54.5-9-6.515-31.922 13.659-43.5"
           fill="#fff"
           fill-rule="evenodd"
           id="path354" />
      </g>
    </g>
  </g>
  <g
     transform="matrix(.38484 0 0 -.38484 236.5 319.41)"
     id="g368">
    <g
       clip-path="url(#clipPath24650)"
       id="g366">
      <g
         transform="translate(473.86,1057.5)"
         id="g364">
        <path
           d="m0 0c1.657 0 3 1.501 3 3.353s-1.343 3.353-3 3.353c-1.656 0-3-1.501-3-3.353s1.344-3.353 3-3.353"
           fill="#fff"
           fill-rule="evenodd"
           id="path362" />
      </g>
    </g>
  </g>
  <g
     transform="matrix(.38484 0 0 -.38484 236.5 319.41)"
     id="g376">
    <g
       clip-path="url(#clipPath24700)"
       id="g374">
      <g
         transform="translate(493,1069.8)"
         id="g372">
        <path
           d="m0 0c1.657 0 3 1.501 3 3.353s-1.343 3.353-3 3.353-3-1.501-3-3.353 1.343-3.353 3-3.353"
           fill="#fff"
           fill-rule="evenodd"
           id="path370" />
      </g>
    </g>
  </g>
  <g
     transform="matrix(.38484 0 0 -.38484 236.5 319.41)"
     id="g384">
    <g
       clip-path="url(#clipPath24750)"
       id="g382">
      <g
         transform="translate(510,1048.8)"
         id="g380">
        <path
           d="m0 0c1.657 0 3 1.501 3 3.353s-1.343 3.353-3 3.353-3-1.501-3-3.353 1.343-3.353 3-3.353"
           fill="#fff"
           fill-rule="evenodd"
           id="path378" />
      </g>
    </g>
  </g>
  <g
     transform="matrix(.38484 0 0 -.38484 236.5 319.41)"
     id="g392">
    <g
       clip-path="url(#clipPath24864)"
       id="g390">
      <g
         transform="translate(806.5,1072.2)"
         id="g388">
        <path
           d="m0 0c-3.667-14-9.5-21.833-17.5-23.5"
           fill="none"
           stroke="#fff"
           stroke-linecap="round"
           stroke-miterlimit="10"
           id="path386" />
      </g>
    </g>
  </g>
  <g
     transform="matrix(.38484 0 0 -.38484 236.5 319.41)"
     id="g400">
    <g
       clip-path="url(#clipPath24896)"
       id="g398">
      <g
         transform="translate(802,1066.2)"
         id="g396">
        <path
           d="m0 0c-4.971 0-9 4.029-9 9s4.029 9 9 9 9-4.029 9-9-4.029-9-9-9m0 6c1.657 0 3 1.343 3 3s-1.343 3-3 3-3-1.343-3-3 1.343-3 3-3"
           fill="#fff"
           fill-rule="evenodd"
           id="path394" />
      </g>
    </g>
  </g>
  <g
     transform="matrix(.38484 0 0 -.38484 236.5 319.41)"
     id="g408">
    <g
       clip-path="url(#clipPath25070)"
       id="g406">
      <g
         transform="translate(122,495.24)"
         id="g404">
        <path
           d="m0 0h3c0.553 0 1-0.447 1-1v-2c0-0.553-0.447-1-1-1h-3c-0.553 0-1 0.447-1 1v2c0 0.553 0.447 1 1 1"
           fill="#fff"
           fill-rule="evenodd"
           id="path402" />
      </g>
    </g>
  </g>
  <g
     transform="matrix(.38484 0 0 -.38484 236.5 319.41)"
     id="g416">
    <g
       clip-path="url(#clipPath25100)"
       id="g414">
      <g
         transform="translate(204,495.24)"
         id="g412">
        <path
           d="m0 0h3c0.553 0 1-0.447 1-1v-2c0-0.553-0.447-1-1-1h-3c-0.553 0-1 0.447-1 1v2c0 0.553 0.447 1 1 1"
           fill="#fff"
           fill-rule="evenodd"
           id="path410" />
      </g>
    </g>
  </g>
  <g
     transform="matrix(.38484 0 0 -.38484 236.5 319.41)"
     id="g424">
    <g
       clip-path="url(#clipPath25502)"
       id="g422">
      <g
         transform="translate(805,482.24)"
         id="g420">
        <path
           d="m0 0c4.418 0 8 3.582 8 8s-3.582 8-8 8-8-3.582-8-8 3.582-8 8-8"
           fill="#fff"
           fill-rule="evenodd"
           id="path418" />
      </g>
    </g>
  </g>
  <g
     transform="matrix(.38484 0 0 -.38484 236.5 319.41)"
     id="g432">
    <g
       clip-path="url(#clipPath25686)"
       id="g430">
      <g
         transform="translate(658,1075.7)"
         id="g428">
        <path
           d="m0 0c0-4.694 3.806-8.5 8.5-8.5s8.5 3.806 8.5 8.5-3.806 8.5-8.5 8.5-8.5-3.806-8.5-8.5"
           fill="#fff"
           id="path426" />
      </g>
    </g>
  </g>
  <g
     transform="matrix(.38484 0 0 -.38484 236.5 319.41)"
     id="g438">
    <g
       clip-path="url(#clipPath25788)"
       id="g436">
      <path
         d="m465.44 1082.2h85.864v-75.319h-85.864zm64.45-25.106c-0.483 0.765-1.453 0.947-2.178 0.431l-15.504-11.01c-0.359-0.255-0.847-0.153-1.071 0.238l-18.271 31.869c-0.438 0.771-1.139 0.776-1.549-0.016l-1.807-3.514-21.07-47.452c13.336-18.44 48.336-26.94 73.836-3.44 0.841 0 6.477 6.246 6 7z"
         fill="#fff"
         fill-rule="evenodd"
         id="path434" />
    </g>
  </g>
  <g
     transform="matrix(.38484 0 0 -.38484 236.5 319.41)"
     id="g446">
    <g
       clip-path="url(#clipPath26420)"
       id="g444">
      <g
         transform="translate(-23,837.24)"
         id="g442">
        <path
           d="m0 0c18.778 0 34 15.222 34 34s-15.222 34-34 34-34-15.222-34-34 15.222-34 34-34z"
           fill="none"
           stroke="#fff"
           stroke-miterlimit="10"
           stroke-width="8"
           id="path440" />
      </g>
    </g>
  </g>
  <g
     transform="matrix(.38484 0 0 -.38484 236.5 319.41)"
     id="g452">
    <g
       clip-path="url(#clipPath26860)"
       id="g450">
      <path
         d="m644 721.24h82v-82h-82zm41-81c22.092 0 40 17.908 40 40s-17.908 40-40 40-40-17.908-40-40 17.908-40 40-40"
         fill="#fff"
         fill-rule="evenodd"
         id="path448" />
    </g>
  </g>
  <g
     transform="matrix(.38484 0 0 -.38484 236.5 319.41)"
     id="g460">
    <g
       clip-path="url(#clipPath27506)"
       id="g458">
      <g
         transform="translate(613.88,476.03)"
         id="g456">
        <path
           d="m0 0c0.187-0.771 0.148-1.502-0.116-2.193-0.266-0.692-0.678-1.303-1.239-1.833-0.561-0.531-1.247-0.949-2.057-1.255-0.81-0.305-1.683-0.457-2.617-0.457-5.889-0.033-11.156-0.049-15.798-0.049h-15.891c-1.122 0-2.111 0.209-2.968 0.627s-1.543 0.932-2.056 1.543c-0.515 0.611-0.858 1.279-1.029 2.002s-0.148 1.375 0.071 1.953c0.186 0.451 0.373 0.917 0.56 1.398 0.157 0.418 0.343 0.893 0.561 1.424 0.219 0.53 0.452 1.069 0.701 1.615l1.776 4.438h5.329l-2.01-6.077h30.099l-2.009 6.077h5.094c0.655-1.64 1.246-3.119 1.777-4.438 0.218-0.578 0.435-1.14 0.654-1.687 0.218-0.547 0.412-1.037 0.584-1.472 0.171-0.433 0.312-0.804 0.421-1.109 0.108-0.306 0.163-0.474 0.163-0.507m-22.922 9.236c-0.601 0.698-1.289 1.571-2.064 2.618-0.776 1.046-1.575 2.125-2.398 3.235-0.822 1.11-1.637 2.204-2.443 3.283-0.808 1.079-1.527 2.015-2.16 2.808-0.728 0.856-1.013 1.562-0.855 2.117s0.696 0.832 1.614 0.832c0.506-0.031 1.187-0.024 2.041 0.024 0.855 0.048 1.567 0.072 2.136 0.072 0.633 0 1.029 0.19 1.187 0.57 0.158 0.381 0.237 0.889 0.237 1.523 0 0.698-8e-3 1.467-0.024 2.308s-0.024 1.705-0.024 2.593-8e-3 1.76-0.023 2.617c-0.016 0.856-0.024 1.65-0.024 2.379 0 0.318 0.024 0.65 0.071 1 0.047 0.348 0.158 0.666 0.333 0.951 0.173 0.285 0.426 0.523 0.758 0.714 0.332 0.19 0.784 0.285 1.353 0.285 0.665 0 1.274 9e-3 1.827 0.024 0.555 0.016 1.195 0.024 1.923 0.024 1.044 0 1.748-0.246 2.112-0.737 0.364-0.492 0.562-1.277 0.593-2.356v-1.855c0-0.73 8e-3 -1.507 0.023-2.331 0.017-0.826 0.025-1.651 0.025-2.475v-2.236c0-0.92 0.095-1.659 0.284-2.213 0.191-0.555 0.617-0.817 1.282-0.785 0.475 0 1.052-0.016 1.732-0.047 0.68-0.032 1.274-0.049 1.78-0.049 0.855 0 1.4-0.23 1.638-0.69 0.237-0.46 0.071-1.054-0.498-1.784-0.602-0.76-1.298-1.68-2.089-2.759-0.791-1.08-1.606-2.197-2.445-3.355-0.838-1.158-1.661-2.284-2.467-3.379-0.807-1.094-1.528-2.037-2.16-2.83-0.57-0.73-1.116-1.103-1.637-1.119-0.523-0.016-1.069 0.326-1.638 1.023"
           fill="#fff"
           id="path454" />
      </g>
    </g>
  </g>
  <g
     transform="matrix(.38484 0 0 -.38484 236.5 319.41)"
     id="g468">
    <g
       clip-path="url(#clipPath27772)"
       id="g466">
      <g
         transform="translate(588.67,331.24)"
         id="g464">
        <path
           d="m0 0h-49.301c-2.41 0-4.367-1.941-4.367-4.299v-49.402c0-2.393 1.957-4.299 4.367-4.299h49.301c2.41 0 4.332 1.941 4.332 4.299v49.367c0 2.393-1.957 4.334-4.332 4.334m-33.403-53.008h-8.839v6.795h8.839zm-8.91 24.58h8.84v-6.795h-8.84zm8.945-15.566h-8.84v6.795h8.84zm12.998-9.014h-8.84v6.795h8.84zm-8.91 24.58h8.84v-6.795h-8.84zm8.944-15.566h-8.839v6.795h8.839zm13.277-9.014h-8.84v6.795h8.84zm-8.909 24.58h8.84v-6.795h-8.84zm8.945-15.566h-8.84v6.795h8.84zm5.276 24.441c0-2.392-1.957-4.299-4.368-4.299h-37.77c-2.411-0.035-4.367 1.907-4.367 4.299v10.054c0 2.392 1.956 4.333 4.332 4.333h37.805c2.411 0 4.368-1.941 4.368-4.333z"
           fill="#fff"
           id="path462" />
      </g>
    </g>
  </g>
  <g
     transform="matrix(.38484 0 0 -.38484 236.5 319.41)"
     id="g476">
    <g
       clip-path="url(#clipPath27864)"
       id="g474">
      <g
         transform="translate(609.3,312.46)"
         id="g472">
        <path
           d="m0 0h-0.72c-0.206 0-0.377 0-0.514-0.212-0.103-0.142-0.103-0.283-0.103-0.46v-0.566c0-0.178 0-0.319 0.103-0.461 0.137-0.212 0.308-0.212 0.514-0.212h0.72c0.205 0 0.376 0 0.514 0.212 0.102 0.142 0.102 0.283 0.102 0.461v0.566c0 0.213 0 0.318-0.102 0.46-0.138 0.212-0.275 0.212-0.514 0.212m-5.003 4.779h-2.947c-0.548 0-0.993-0.46-0.993-1.026v-2.407h0.993v2.407h2.947v-2.407h0.993v2.407c0 0.566-0.445 1.026-0.993 1.026m0-6.973h-2.947v2.407h-0.993v-2.407c0-0.567 0.411-1.027 0.993-1.027h2.947c0.582 0 0.993 0.46 0.993 1.027v2.407h-0.993zm-14.357 0h-2.947v2.584h-0.994v-2.584c0-0.567 0.411-1.027 0.994-1.027h2.947c0.583 0 0.994 0.46 0.994 1.027v2.584h-0.994zm0 6.973h-2.947c-0.548 0-0.994-0.46-0.994-1.026v-2.231h0.994v2.231h2.947v-2.231h0.994v2.231c0 0.566-0.446 1.026-0.994 1.026m7.195 0h-2.946c-0.549 0-0.994-0.46-0.994-1.026v-2.231h0.994v2.231h2.946v-2.231h0.994v2.231c0 0.566-0.445 1.026-0.994 1.026m0-6.973h-2.946v2.584h-0.994v-2.584c0-0.567 0.445-1.027 0.994-1.027h2.946c0.583 0 0.994 0.46 0.994 1.027v2.584h-0.994zm18.675 6.973h-2.947c-0.548 0-0.994-0.46-0.994-1.026v-2.584h0.994v2.584h2.947v-2.584h0.994v2.584c0 0.566-0.445 1.026-0.994 1.026m0-6.973h-2.947v2.23h-0.994v-2.23c0-0.567 0.446-1.027 0.994-1.027h2.947c0.583 0 0.994 0.46 0.994 1.027v2.23h-0.994zm7.195 0h-2.946v2.053h-0.994v-2.053c0-0.567 0.411-1.027 0.994-1.027h2.946c0.583 0 0.994 0.46 0.994 1.027v2.053h-0.994zm0 6.973h-2.946c-0.548 0-0.994-0.46-0.994-1.026v-2.761h0.994v2.761h2.946v-2.761h0.994v2.761c0 0.566-0.479 1.026-0.994 1.026"
           fill="#fff"
           id="path470" />
      </g>
    </g>
  </g>
  <g
     transform="matrix(.38484 0 0 -.38484 236.5 319.41)"
     id="g484">
    <g
       clip-path="url(#clipPath28028)"
       id="g482">
      <g
         transform="translate(766.75,130.24)"
         id="g480">
        <path
           d="m0 0h-15.75v6.693c0 1.239-1.013 2.307-2.307 2.307h-13.386c-1.239 0-2.307-1.013-2.307-2.307v-6.693h-15.75c-1.237 0-2.25-1.013-2.25-2.25v-11.25l27-4.5 27 4.5v11.25c0 1.237-1.013 2.25-2.25 2.25m-29.25 4.5h9v-4.5h-9zm9-16.875c0-0.619-0.506-1.125-1.125-1.125h-6.75c-0.619 0-1.125 0.506-1.125 1.125v2.25c0 0.619 0.506 1.125 1.125 1.125h6.75c0.619 0 1.125-0.506 1.125-1.125zm-4.5-7.875 27 4.5v-27c0-1.237-1.013-2.25-2.25-2.25h-49.5c-1.237 0-2.25 1.013-2.25 2.25v27z"
           fill="#fff"
           id="path478" />
      </g>
    </g>
  </g>
  <g
     transform="matrix(.38484 0 0 -.38484 236.5 319.41)"
     id="g492">
    <g
       clip-path="url(#clipPath28200)"
       id="g490">
      <g
         transform="translate(392,82.24)"
         id="g488">
        <path
           d="M 0,0 -4.35,3.941 C -19.8,17.953 -30,27.2 -30,38.516 -30,47.762 -22.755,55 -13.5,55 -8.28,55 -3.27,52.572 0,48.75 3.27,52.572 8.28,55 13.5,55 22.755,55 30,47.762 30,38.516 30,27.2 19.8,17.953 4.35,3.941 Z"
           fill="#fff"
           id="path486" />
      </g>
    </g>
  </g>
  <g
     transform="matrix(.38484 0 0 -.38484 236.5 319.41)"
     id="g500">
    <g
       clip-path="url(#clipPath28364)"
       id="g498">
      <g
         transform="translate(542.77,113.24)"
         id="g496">
        <path
           d="m0 0c0 2.621 0.885 4.8 2.689 6.604s3.983 2.689 6.604 2.689c2.622 0 4.801-0.885 6.604-2.689 1.805-1.804 2.69-3.983 2.69-6.604s-0.885-4.834-2.69-6.639c-1.803-1.803-3.982-2.689-6.604-2.689-2.621 0-4.809 0.877-6.604 2.689-1.813 1.83-2.689 4.051-2.689 6.639m-13.141-6.06c0.545-1.94 1.363-3.846 2.35-5.617l-6.128-7.523 6.944-6.945 7.524 6.127c1.769-0.986 3.71-1.803 5.65-2.382l1.022-9.6h10.008l1.022 9.6c1.94 0.579 3.778 1.396 5.651 2.382l7.49-6.127 7.012 6.945-6.162 7.523c0.953 1.771 1.805 3.677 2.383 5.617l9.601 1.056v10.008l-9.601 1.021c-0.578 1.941-1.43 3.745-2.383 5.618l6.162 7.523-7.012 7.013-7.49-6.161c-1.907 0.953-3.711 1.803-5.651 2.382l-1.022 9.6h-10.008l-1.022-9.6c-2.008-0.579-3.88-1.429-5.65-2.382l-7.524 6.161-6.944-7.013 6.128-7.523c-0.953-1.873-1.771-3.677-2.35-5.618l-9.633-1.021v-10.008z"
           fill="#fff"
           id="path494" />
      </g>
    </g>
  </g>
  <g
     transform="matrix(.38484 0 0 -.38484 236.5 319.41)"
     id="g506">
    <g
       clip-path="url(#clipPath28984)"
       id="g504">
      <path
         d="m473 698.24h13v-13h-13zm6.5-12c3.037 0 5.5 2.463 5.5 5.5 0 3.038-2.463 5.5-5.5 5.5s-5.5-2.462-5.5-5.5c0-3.037 2.463-5.5 5.5-5.5"
         fill="#fff"
         fill-rule="evenodd"
         id="path502" />
    </g>
  </g>
  <g
     transform="matrix(.38484 0 0 -.38484 236.5 319.41)"
     id="g512">
    <g
       clip-path="url(#clipPath29012)"
       id="g510">
      <path
         d="m473 676.24h13v-13h-13zm6.5-12c3.037 0 5.5 2.463 5.5 5.5 0 3.038-2.463 5.5-5.5 5.5s-5.5-2.462-5.5-5.5c0-3.037 2.463-5.5 5.5-5.5"
         fill="#fff"
         fill-rule="evenodd"
         id="path508" />
    </g>
  </g>
  <g
     transform="matrix(.38484 0 0 -.38484 236.5 319.41)"
     id="g518">
    <g
       clip-path="url(#clipPath29040)"
       id="g516">
      <path
         d="m467 687.24h13v-13h-13zm6.5-12c3.037 0 5.5 2.463 5.5 5.5 0 3.038-2.463 5.5-5.5 5.5s-5.5-2.462-5.5-5.5c0-3.037 2.463-5.5 5.5-5.5"
         fill="#fff"
         fill-rule="evenodd"
         id="path514" />
    </g>
  </g>
  <g
     transform="matrix(.38484 0 0 -.38484 236.5 319.41)"
     id="g524">
    <g
       clip-path="url(#clipPath29068)"
       id="g522">
      <path
         d="m486 698.24h13v-13h-13zm6.5-12c3.037 0 5.5 2.463 5.5 5.5 0 3.038-2.463 5.5-5.5 5.5s-5.5-2.462-5.5-5.5c0-3.037 2.463-5.5 5.5-5.5"
         fill="#fff"
         fill-rule="evenodd"
         id="path520" />
    </g>
  </g>
  <g
     transform="matrix(.38484 0 0 -.38484 236.5 319.41)"
     id="g530">
    <g
       clip-path="url(#clipPath29096)"
       id="g528">
      <path
         d="m486 676.24h13v-13h-13zm6.5-12c3.037 0 5.5 2.463 5.5 5.5 0 3.038-2.463 5.5-5.5 5.5s-5.5-2.462-5.5-5.5c0-3.037 2.463-5.5 5.5-5.5"
         fill="#fff"
         fill-rule="evenodd"
         id="path526" />
    </g>
  </g>
  <g
     transform="matrix(.38484 0 0 -.38484 236.5 319.41)"
     id="g536">
    <g
       clip-path="url(#clipPath29124)"
       id="g534">
      <path
         d="m480 687.24h13v-13h-13zm6.5-12c3.037 0 5.5 2.463 5.5 5.5 0 3.038-2.463 5.5-5.5 5.5s-5.5-2.462-5.5-5.5c0-3.037 2.463-5.5 5.5-5.5"
         fill="#fff"
         fill-rule="evenodd"
         id="path532" />
    </g>
  </g>
  <g
     transform="matrix(.38484 0 0 -.38484 236.5 319.41)"
     id="g542">
    <g
       clip-path="url(#clipPath29152)"
       id="g540">
      <path
         d="m493 687.24h13v-13h-13zm6.5-12c3.037 0 5.5 2.463 5.5 5.5 0 3.038-2.463 5.5-5.5 5.5s-5.5-2.462-5.5-5.5c0-3.037 2.463-5.5 5.5-5.5"
         fill="#fff"
         fill-rule="evenodd"
         id="path538" />
    </g>
  </g>
  <g
     transform="matrix(.38484 0 0 -.38484 236.5 319.41)"
     id="g548">
    <g
       clip-path="url(#clipPath29252)"
       id="g546">
      <path
         d="m161 327.24h73v-28h-73zm14-5h45c4.971 0 9-4.029 9-9 0-4.97-4.029-9-9-9h-45c-4.971 0-9 4.03-9 9 0 4.971 4.029 9 9 9"
         fill="#fff"
         fill-rule="evenodd"
         id="path544" />
    </g>
  </g>
  <g
     transform="matrix(.38484 0 0 -.38484 236.5 319.41)"
     id="g554">
    <g
       clip-path="url(#clipPath29280)"
       id="g552">
      <path
         d="m162 302.24h73v-28h-73zm14-5h45c4.971 0 9-4.029 9-9 0-4.97-4.029-9-9-9h-45c-4.971 0-9 4.03-9 9 0 4.971 4.029 9 9 9"
         fill="#fff"
         fill-rule="evenodd"
         id="path550" />
    </g>
  </g>
  <g
     transform="matrix(.38484 0 0 -.38484 236.5 319.41)"
     id="g562">
    <g
       clip-path="url(#clipPath29400)"
       id="g560">
      <g
         transform="translate(104.49,129.57)"
         id="g558">
        <path
           d="m0 0c-4.298-0.338-8.165-0.637-11.604-0.898-1.458-0.113-2.906-0.225-4.344-0.336-1.44-0.114-2.747-0.207-3.924-0.282-1.178-0.074-2.168-0.149-2.972-0.224-0.803-0.074-1.28-0.113-1.428-0.113-0.188-0.037-0.403-0.065-0.645-0.084-0.244-0.018-0.459-0.065-0.645-0.139l-0.673-0.225-2.467 1.121c0.187 0.263 0.412 0.506 0.674 0.731 0.185 0.186 0.42 0.364 0.7 0.533 0.28 0.168 0.569 0.27 0.868 0.309 0.225 0.037 0.822 0.093 1.795 0.168 0.971 0.074 2.167 0.168 3.588 0.28 0 0.486 0.047 1.15 0.14 1.992 0.092 0.841 0.317 1.674 0.672 2.497 0.356 0.822 0.869 1.553 1.541 2.188 0.673 0.636 1.589 1.009 2.747 1.123 1.346 0.111 2.439-0.094 3.281-0.618 0.84-0.523 1.494-1.169 1.961-1.935 0.467-0.768 0.795-1.553 0.981-2.358 0.187-0.804 0.299-1.43 0.337-1.878 1.606 0.111 2.942 0.205 4.008 0.279 1.064 0.076 1.653 0.131 1.765 0.169 0.412 0.038 0.87-0.038 1.373-0.225 0.505-0.186 0.907-0.43 1.206-0.729 0.075-0.075 0.177-0.188 0.308-0.336 0.131-0.151 0.252-0.3 0.365-0.449 0.149-0.151 0.28-0.337 0.392-0.561m-15.528 6.676c-0.709-0.074-1.28-0.326-1.709-0.757-0.43-0.431-0.758-0.944-0.982-1.543-0.223-0.599-0.374-1.206-0.448-1.823-0.075-0.617-0.112-1.114-0.112-1.488 1.159 0.076 2.344 0.169 3.559 0.281s2.402 0.206 3.56 0.281c-0.037 0.336-0.121 0.804-0.252 1.402-0.131 0.599-0.346 1.178-0.645 1.74-0.299 0.561-0.691 1.028-1.176 1.403-0.487 0.373-1.084 0.542-1.795 0.504m21.919-41.24c0.186-1.047 0.159-1.917-0.084-2.61-0.244-0.691-0.925-1.168-2.046-1.43-0.374-0.113-1.187-0.299-2.439-0.562-1.252-0.262-2.747-0.579-4.485-0.953-1.737-0.374-3.597-0.777-5.577-1.207-1.982-0.43-3.878-0.832-5.691-1.205-1.812-0.375-3.437-0.711-4.877-1.011-1.438-0.3-2.457-0.505-3.054-0.617-1.383-0.3-2.402-0.206-3.055 0.28-0.654 0.486-0.982 1.217-0.982 2.189v34.452c0 0.934 0.197 1.691 0.589 2.271 0.393 0.58 0.962 0.889 1.709 0.926 0.299 0 0.664 0.02 1.094 0.057s0.85 0.074 1.261 0.112c0.485 0.037 0.991 0.075 1.514 0.112l0.504-8.023c-0.037-0.038-0.112-0.057-0.224-0.057-0.074 0-0.187-0.01-0.336-0.027-0.15-0.02-0.318-0.029-0.505-0.029-0.784-0.075-1.159-0.542-1.121-1.403 0.038-0.336 0.075-0.805 0.112-1.402 0.037-0.599 0.066-1.225 0.084-1.88 0.019-0.655 0.047-1.29 0.084-1.907s0.074-1.114 0.113-1.488c0.037-0.711 0.149-1.112 0.336-1.206 0.186-0.093 0.598-0.14 1.233-0.14h0.785c0.225 0 0.439 0.01 0.645 0.027 0.205 0.02 0.439 0.038 0.701 0.057 0.261 0.018 0.597 0.047 1.008 0.084 0.785 0.075 1.29 0.243 1.513 0.506 0.225 0.261 0.319 0.654 0.281 1.177 0 0.262-0.028 0.721-0.084 1.375-0.056 0.655-0.113 1.337-0.168 2.048-0.056 0.71-0.103 1.384-0.14 2.02-0.037 0.635-0.074 1.085-0.112 1.346-0.076 0.45-0.168 0.768-0.281 0.954-0.112 0.187-0.318 0.262-0.617 0.224-0.148 0-0.299-9e-3 -0.447-0.027-0.151-0.019-0.3-0.028-0.449-0.028h-0.449l-0.505 7.967c2.542 0.225 4.877 0.412 7.008 0.561 0.897 0.076 1.803 0.15 2.719 0.224 0.916 0.076 1.766 0.141 2.551 0.198 0.785 0.055 1.476 0.111 2.074 0.168 0.598 0.056 1.046 0.103 1.346 0.14 1.083 0.074 1.942-0.113 2.578-0.561 0.635-0.449 1.027-1.122 1.178-2.021 0.037-0.299 0.168-1.196 0.391-2.693 0.224-1.496 0.505-3.291 0.841-5.386s0.691-4.349 1.065-6.761c0.374-2.413 0.729-4.667 1.066-6.761 0.336-2.095 0.625-3.891 0.869-5.387 0.242-1.496 0.4-2.395 0.476-2.693m-35.261-4.881c0-0.525 0.028-0.983 0.084-1.375 0.057-0.393 0.122-0.701 0.197-0.926 0.074-0.299 0.168-0.524 0.279-0.674-0.933 0.486-1.831 0.973-2.69 1.459-0.747 0.412-1.495 0.832-2.242 1.263-0.747 0.43-1.383 0.795-1.906 1.094-0.972 0.561-1.635 1.235-1.99 2.02s-0.439 1.608-0.253 2.469c0.076 0.224 0.244 1.047 0.505 2.469 0.262 1.421 0.588 3.142 0.981 5.162 0.392 2.019 0.803 4.189 1.233 6.508 0.43 2.32 0.831 4.49 1.205 6.509 0.374 2.02 0.701 3.76 0.982 5.218 0.28 1.459 0.439 2.319 0.476 2.581 0.15 0.823 0.42 1.459 0.813 1.908 0.392 0.449 0.849 0.561 1.373 0.336 0.299-0.149 0.543-0.317 0.728-0.504 0.114-0.113 0.188-0.207 0.225-0.281z"
           fill="#fff"
           id="path556" />
      </g>
    </g>
  </g>
  <circle
     cx="-330.35001"
     cy="-322.60001"
     r="0"
     fill="#5e4aa6"
     stroke-width="0.26236"
     id="circle1423" />
  <circle
     cx="-39.433998"
     cy="6.6138"
     r="0"
     fill="#5e4aa6"
     fill-rule="evenodd"
     stroke-width="0.26236"
     id="circle1425" />
  <rect
     x="1.1905"
     y="1.1905"
     width="14.552"
     height="14.552"
     ry="3.4395001"
     filter="url(#filter861)"
     opacity="0.3"
     stroke-opacity="0.95294"
     stroke-width="0.083153"
     id="rect1427" />
  <path
     id="rect1458"
     style="fill:url(#linearGradient1469);fill-opacity:1;stroke-width:0.132289;stroke-linecap:round"
     d="m 4.6301169,1.1906018 c -1.905483,0 -3.439515,1.5340327 -3.439515,3.4395155 v 7.6727657 c 0,1.905482 1.534032,3.439515 3.439515,3.439515 h 7.6727661 c 1.905483,0 3.439515,-1.534033 3.439515,-3.439515 V 4.6301173 c 0,-1.9054828 -1.534032,-3.4395156 -3.439515,-3.4395156 z" />
  <g
     id="g1880"
     transform="matrix(0.18857222,0,0,0.18857222,-30.850795,2.0934302)">
    <g
       id="g1792">
      <g
         id="g1753"
         transform="translate(24.312421,11.339567)">
        <g
           transform="translate(0.42834165,4.6993858)"
           id="g1687">
          <circle
             style="opacity:1;fill:url(#linearGradient1629-3);fill-opacity:1;stroke:none;stroke-width:1.46033;stroke-miterlimit:4;stroke-dasharray:none;stroke-opacity:1"
             id="path1621"
             cx="183.75934"
             cy="18.751444"
             r="32.036678" />
          <circle
             r="32.036678"
             cy="18.751444"
             cx="183.75934"
             id="circle1631"
             style="opacity:1;fill:url(#linearGradient1633);fill-opacity:1;stroke:none;stroke-width:1.46033;stroke-miterlimit:4;stroke-dasharray:none;stroke-opacity:1" />
          <circle
             style="opacity:1;fill:url(#linearGradient1643);fill-opacity:1;stroke:none;stroke-width:1.46033;stroke-miterlimit:4;stroke-dasharray:none;stroke-opacity:1"
             id="circle1641"
             cx="183.75934"
             cy="18.751444"
             r="32.036678" />
          <circle
             r="32.036678"
             cy="18.751444"
             cx="183.75934"
             id="circle1651"
             style="opacity:1;fill:url(#radialGradient1659);fill-opacity:1;stroke:none;stroke-width:1.46033;stroke-miterlimit:4;stroke-dasharray:none;stroke-opacity:1" />
          <circle
             style="opacity:1;fill:url(#radialGradient1669);fill-opacity:1;stroke:none;stroke-width:1.46033;stroke-miterlimit:4;stroke-dasharray:none;stroke-opacity:1"
             id="circle1661"
             cx="183.75934"
             cy="18.751444"
             r="32.036678" />
          <circle
             r="32.036678"
             cy="18.751444"
             cx="183.75934"
             id="circle1671"
             style="opacity:1;fill:url(#radialGradient1679);fill-opacity:1;stroke:none;stroke-width:1.46033;stroke-miterlimit:4;stroke-dasharray:none;stroke-opacity:1" />
        </g>
        <path
           inkscape:connector-curvature="0"
           id="rect1689"
           d="m 180.80313,-7.9343348 -1.37924,0.179835 3.62561,27.8473948 -14.05702,-24.311177 -1.20406,0.696082 14.03739,24.27707 -22.22087,-17.107481 -0.84801,1.1022569 22.21467,17.1028321 -27.04745,-7.379911 -0.36638,1.341003 27.05467,7.381978 -27.82775,3.47059 0.17208,1.379759 27.86806,-3.475238 -24.38765,13.92628 0.68884,1.207677 24.35304,-13.906642 -17.22686,22.128363 1.09658,0.854212 17.28318,-22.200195 -7.2595,27.181802 1.34307,0.359153 7.23625,-27.093954 3.62045,27.808639 1.37872,-0.179319 -3.6251,-27.848946 14.05702,24.312213 1.20406,-0.695565 -14.03738,-24.277587 22.22086,17.107481 0.84802,-1.101224 -22.21519,-17.104381 27.04745,7.380427 0.36638,-1.341519 -27.05416,-7.381981 27.82776,-3.470071 -0.1726,-1.380279 -27.86651,3.475758 24.38662,-13.92628 -0.68936,-1.20768 -24.35252,13.906645 17.22685,-22.128365 -1.0976,-0.85421 -17.28163,22.198643 7.25898,-27.1797348 -1.34358,-0.359153 -7.23626,27.0934388 z"
           style="opacity:1;fill:url(#linearGradient1706);fill-opacity:1;stroke:none;stroke-width:1.3;stroke-miterlimit:4;stroke-dasharray:none;stroke-opacity:1" />
        <circle
           r="21.712265"
           cy="23.45083"
           cx="184.18768"
           id="path1708"
           style="opacity:1;fill:url(#linearGradient1716);fill-opacity:1;stroke:none;stroke-width:1.3;stroke-miterlimit:4;stroke-dasharray:none;stroke-opacity:1" />
        <path
           inkscape:connector-curvature="0"
           id="path1718"
           d="M 184.18768,-8.3480036 A 31.799019,31.799019 0 0 0 152.38859,23.45057 31.799019,31.799019 0 0 0 184.18768,55.249663 31.799019,31.799019 0 0 0 215.98677,23.45057 31.799019,31.799019 0 0 0 184.18768,-8.3480036 Z m 0,2.186429 A 29.612539,29.612539 0 0 1 213.80034,23.45057 29.612539,29.612539 0 0 1 184.18768,53.063234 29.612539,29.612539 0 0 1 154.57502,23.45057 29.612539,29.612539 0 0 1 184.18768,-6.1615746 Z"
           style="opacity:1;fill:url(#linearGradient1763-7);fill-opacity:1;stroke:none;stroke-width:1.64094;stroke-miterlimit:4;stroke-dasharray:none;stroke-opacity:1" />
      </g>
      <path
         style="color:#000000;font-style:normal;font-variant:normal;font-weight:normal;font-stretch:normal;font-size:medium;line-height:normal;font-family:sans-serif;font-variant-ligatures:normal;font-variant-position:normal;font-variant-caps:normal;font-variant-numeric:normal;font-variant-alternates:normal;font-feature-settings:normal;text-indent:0;text-align:start;text-decoration:none;text-decoration-line:none;text-decoration-style:solid;text-decoration-color:#000000;letter-spacing:normal;word-spacing:normal;text-transform:none;writing-mode:lr-tb;direction:ltr;text-orientation:mixed;dominant-baseline:auto;baseline-shift:baseline;text-anchor:start;white-space:normal;shape-padding:0;clip-rule:nonzero;display:inline;overflow:visible;visibility:visible;opacity:1;isolation:auto;mix-blend-mode:normal;color-interpolation:sRGB;color-interpolation-filters:linearRGB;solid-color:#000000;solid-opacity:1;vector-effect:none;fill:url(#linearGradient1778);fill-opacity:1;fill-rule:nonzero;stroke:none;stroke-width:26.4567;stroke-linecap:butt;stroke-linejoin:miter;stroke-miterlimit:4;stroke-dasharray:none;stroke-dashoffset:0;stroke-opacity:1;color-rendering:auto;image-rendering:auto;shape-rendering:auto;text-rendering:auto;enable-background:accumulate"
         d="m 788.03125,0.05078125 c -72.03734,0 -130.71875,58.68140075 -130.71875,130.71874875 0,72.03735 58.68141,130.71875 130.71875,130.71875 72.03734,0 130.71875,-58.6814 130.71875,-130.71875 C 918.75,58.732182 860.06859,0.05078125 788.03125,0.05078125 Z m 0,11.25585975 c 66.37594,-1.55e-4 120.18462,53.807644 120.18555,120.183589 1.5e-4,66.37671 -53.80884,120.1857 -120.18555,120.18555 -66.37671,1.5e-4 -120.1857,-53.80884 -120.18555,-120.18555 9.3e-4,-66.375945 53.80961,-120.183744 120.18555,-120.183589 z"
         transform="scale(0.26458333)"
         id="path1765"
         inkscape:connector-curvature="0"
         sodipodi:nodetypes="sssssccccc" />
    </g>
    <ellipse
       style="opacity:0.444;fill:url(#radialGradient1845);fill-opacity:1;stroke:none;stroke-width:7;stroke-miterlimit:4;stroke-dasharray:none;stroke-opacity:1"
       id="ellipse1843"
       cx="210.95705"
       cy="-80.221558"
       rx="11.965272"
       ry="21.241718"
       transform="rotate(24.903455)" />
    <ellipse
       transform="rotate(24.903455)"
       ry="21.241718"
       rx="11.965272"
       cy="-34.572155"
       cx="204.06116"
       id="path1823"
       style="opacity:0.444;fill:url(#radialGradient1841);fill-opacity:1;stroke:none;stroke-width:7;stroke-miterlimit:4;stroke-dasharray:none;stroke-opacity:1" />
    <g
       transform="translate(105.13377,-25.003172)"
       id="g1811">
      <g
         id="g1619">
        <path
           sodipodi:nodetypes="scccccccccccccs"
           inkscape:connector-curvature="0"
           id="rect3180"
           d="m 112.70494,36.936558 c -2.07174,-0.101148 -4.14421,1.066612 -5.1878,3.133142 l -2.99403,5.928779 -10.211881,20.221562 c -0.414062,0.819928 -0.618001,1.686129 -0.631465,2.533187 -0.0026,5.517391 -0.304133,7.999677 -3.08097,13.498393 -0.248642,0.492361 -0.05208,1.088745 0.440283,1.337387 l 1.505333,0.760159 c 0.492361,0.248642 1.088747,0.05259 1.337387,-0.439767 2.270932,-5.922441 5.043427,-8.062227 8.844343,-10.817775 0.59766,-0.494588 1.10949,-1.124191 1.48681,-1.871372 L 117.41886,45.07043 c 1.39146,-2.755375 0.41077,-6.034428 -2.19831,-7.352007 L 114.7384,37.47451 c -0.65227,-0.329395 -1.34288,-0.504236 -2.03346,-0.537952 z"
           style="opacity:1;fill:url(#linearGradient3208);fill-opacity:1;stroke:#000000;stroke-width:6.4;stroke-miterlimit:4;stroke-dasharray:none;stroke-opacity:0.00784314" />
        <path
           inkscape:connector-curvature="0"
           id="path3226"
           d="m 111.37522,57.037822 c -4.26357,1.049399 -11.396632,2.789495 -14.123164,3.357936 l -2.940907,5.82445 c -0.414059,0.819928 -0.618021,1.686121 -0.631486,2.533179 -0.0026,5.517391 -0.30411,7.999685 -3.080949,13.498401 -0.248642,0.492361 -0.05208,1.088745 0.440286,1.337387 l 1.505333,0.760158 c 0.492361,0.248643 1.088747,0.05259 1.337387,-0.439766 2.270932,-5.922441 5.043503,-8.062397 8.84442,-10.817942 0.59766,-0.494588 1.10941,-1.124024 1.48673,-1.871205 z"
           style="opacity:1;fill:url(#linearGradient3262);fill-opacity:1;stroke:#000000;stroke-width:6.4;stroke-miterlimit:4;stroke-dasharray:none;stroke-opacity:0.00784314" />
        <ellipse
           transform="matrix(0.96015534,-0.27946685,0.32016062,0.94736328,0,0)"
           ry="2.0825095"
           rx="7.3039188"
           cy="85.549728"
           cx="80.146042"
           id="path3224"
           style="opacity:1;fill:url(#linearGradient3235);fill-opacity:1;stroke:none;stroke-width:1.49447;stroke-miterlimit:4;stroke-dasharray:none;stroke-opacity:1" />
        <path
           inkscape:connector-curvature="0"
           transform="scale(0.26458333)"
           id="path3194"
           d="m 424.50391,139.58789 c -7.32689,0.1985 -14.44287,4.53507 -18.14063,11.85742 l -49.91211,98.83594 c -1.56496,3.09894 -2.33583,6.37274 -2.38672,9.57422 -0.01,20.85313 -1.1494,30.23503 -11.64453,51.01758 -0.93975,1.86089 -0.19684,4.11494 1.66406,5.05468 l 5.68946,2.87305 c 1.86089,0.93975 4.11494,0.19877 5.05468,-1.66211 8.58306,-22.38403 19.06207,-30.47205 33.42774,-40.88672 2.25887,-1.86931 4.19305,-4.24827 5.61914,-7.07226 l 49.91211,-98.83399 c 5.25906,-10.41401 1.5525,-22.80728 -8.30859,-27.78711 l -1.82227,-0.92187 c -2.46527,-1.24496 -5.07548,-1.90577 -7.68555,-2.0332 -0.48938,-0.0239 -0.97833,-0.0289 -1.46679,-0.0156 z m 0.0684,2.45508 c 0.42692,-0.0116 0.85433,-0.007 1.28125,0.0137 2.27656,0.11116 4.54064,0.68337 6.69531,1.77148 l 1.82422,0.92383 c 8.61823,4.35217 11.91489,15.18503 7.21875,24.48438 l -49.90821,98.83789 c -1.27177,2.51846 -2.98501,4.62656 -4.98242,6.28125 -0.003,0.002 -0.004,0.006 -0.008,0.008 -14.28742,10.36219 -25.36377,19.09478 -34.07617,41.69531 -0.35068,0.6631 -1.05905,0.89182 -1.73438,0.55079 l -5.6914,-2.8711 c -0.68476,-0.34579 -0.92124,-1.07451 -0.57618,-1.75781 10.58952,-20.96945 11.89652,-31.17352 11.90821,-52.08594 0.0451,-2.83392 0.71975,-5.73669 2.11718,-8.50391 l 49.91797,-98.83593 c 3.30205,-6.53878 9.60974,-10.33735 16.01368,-10.51172 z"
           style="color:#000000;font-style:normal;font-variant:normal;font-weight:normal;font-stretch:normal;font-size:medium;line-height:normal;font-family:sans-serif;font-variant-ligatures:normal;font-variant-position:normal;font-variant-caps:normal;font-variant-numeric:normal;font-variant-alternates:normal;font-feature-settings:normal;text-indent:0;text-align:start;text-decoration:none;text-decoration-line:none;text-decoration-style:solid;text-decoration-color:#000000;letter-spacing:normal;word-spacing:normal;text-transform:none;writing-mode:lr-tb;direction:ltr;text-orientation:mixed;dominant-baseline:auto;baseline-shift:baseline;text-anchor:start;white-space:normal;shape-padding:0;clip-rule:nonzero;display:inline;overflow:visible;visibility:visible;opacity:1;isolation:auto;mix-blend-mode:normal;color-interpolation:sRGB;color-interpolation-filters:linearRGB;solid-color:#000000;solid-opacity:1;vector-effect:none;fill:#ffffff;fill-opacity:0.771739;fill-rule:nonzero;stroke:none;stroke-width:4.91339;stroke-linecap:butt;stroke-linejoin:miter;stroke-miterlimit:4;stroke-dasharray:none;stroke-dashoffset:0;stroke-opacity:1;color-rendering:auto;image-rendering:auto;shape-rendering:auto;text-rendering:auto;enable-background:accumulate" />
      </g>
      <g
         id="g1613"
         transform="rotate(26.606974,-212.48649,-10.085683)">
        <g
           transform="translate(-10.55214,-8.3656609)"
           id="g3406">
          <path
             style="opacity:1;fill:#0b2536;fill-opacity:1;stroke:none;stroke-width:1.3;stroke-miterlimit:4;stroke-dasharray:none;stroke-opacity:1"
             d="m 105.97157,-104.41829 c 4.53817,-1.49486 9.07634,-1.1264 13.61451,0.0951 0.47258,0.12719 0.95469,0.60788 0.95469,1.09728 v 5.358613 c 0,0.489397 -0.4149,0.741856 -0.88339,0.883389 -5.24274,1.583865 -9.51268,0.8041 -13.82841,0 -0.48112,-0.08964 -0.88339,-0.393992 -0.88339,-0.883389 v -5.358613 c 0,-0.4894 0.56115,-1.03923 1.02599,-1.19235 z"
             id="rect3280"
             inkscape:connector-curvature="0"
             sodipodi:nodetypes="sssssssss" />
          <path
             sodipodi:nodetypes="sssssssss"
             inkscape:connector-curvature="0"
             id="path3284"
             d="m 105.97157,-104.41829 c 4.53817,-1.49486 9.07634,-1.1264 13.61451,0.0951 0.47258,0.12719 0.95469,0.60788 0.95469,1.09728 v 5.358613 c 0,0.489397 -0.4149,0.741856 -0.88339,0.883389 -5.24274,1.583865 -9.51268,0.8041 -13.82841,0 -0.48112,-0.08964 -0.88339,-0.393992 -0.88339,-0.883389 v -5.358613 c 0,-0.4894 0.56115,-1.03923 1.02599,-1.19235 z"
             style="opacity:1;fill:url(#linearGradient3292);fill-opacity:1;stroke:none;stroke-width:1.3;stroke-miterlimit:4;stroke-dasharray:none;stroke-opacity:1" />
          <path
             style="opacity:1;fill:url(#linearGradient3315);fill-opacity:1;stroke:none;stroke-width:1.3;stroke-miterlimit:4;stroke-dasharray:none;stroke-opacity:1"
             d="m 105.97157,-104.41829 c 4.53817,-1.49486 9.07634,-1.1264 13.61451,0.0951 0.47258,0.12719 0.95469,0.60788 0.95469,1.09728 v 5.358613 c 0,0.489397 -0.4149,0.741856 -0.88339,0.883389 -5.24274,1.583865 -9.51268,0.8041 -13.82841,0 -0.48112,-0.08964 -0.88339,-0.393992 -0.88339,-0.883389 v -5.358613 c 0,-0.4894 0.56115,-1.03923 1.02599,-1.19235 z"
             id="path3313"
             inkscape:connector-curvature="0"
             sodipodi:nodetypes="sssssssss" />
          <path
             sodipodi:nodetypes="sssssssss"
             inkscape:connector-curvature="0"
             id="path3317"
             d="m 105.97157,-104.41829 c 4.53817,-1.49486 9.07634,-1.1264 13.61451,0.0951 0.47258,0.12719 0.95469,0.60788 0.95469,1.09728 v 5.358613 c 0,0.489397 -0.4149,0.741856 -0.88339,0.883389 -5.24274,1.583865 -9.51268,0.8041 -13.82841,0 -0.48112,-0.08964 -0.88339,-0.393992 -0.88339,-0.883389 v -5.358613 c 0,-0.4894 0.56115,-1.03923 1.02599,-1.19235 z"
             style="opacity:0.154;fill:url(#radialGradient3341);fill-opacity:1;stroke:none;stroke-width:1.3;stroke-miterlimit:4;stroke-dasharray:none;stroke-opacity:1" />
        </g>
        <g
           transform="translate(-0.53025451)"
           id="g1600">
          <g
             id="g3400"
             transform="translate(-59.228751,-17.275363)">
            <path
               inkscape:connector-curvature="0"
               style="opacity:1;fill:#183446;fill-opacity:1;stroke:none;stroke-width:4.91339;stroke-miterlimit:4;stroke-dasharray:none;stroke-opacity:1"
               d="m 388.20703,-511.45117 c -14.43122,0 -27.29006,11.67109 -26.04883,26.04883 l 2.90039,33.58007 c 0.86338,10.00088 1.05847,20.04202 2.03516,29.96875 13.41088,4.55449 27.12074,3.11753 40.53125,-0.22851 0.81949,-9.85218 1.01889,-20.90678 2.85742,-31.00391 l 3.77539,-32.3164 c 1.67403,-14.33379 -11.6196,-26.04883 -26.05078,-26.04883 z"
               transform="matrix(0.26458333,0,0,0.26458333,59.228751,17.275363)"
               id="rect3369" />
            <path
               inkscape:connector-curvature="0"
               style="opacity:1;fill:url(#radialGradient3382);fill-opacity:1;stroke:none;stroke-width:4.91339;stroke-miterlimit:4;stroke-dasharray:none;stroke-opacity:1"
               d="m 388.20703,-511.45117 c -14.43122,0 -27.29006,11.67109 -26.04883,26.04883 l 2.90039,33.58007 c 0.86338,10.00088 1.05847,20.04202 2.03516,29.96875 2.36312,0.80255 4.73487,1.41047 7.11328,1.86329 0.21475,0.0408 0.42969,0.0848 0.64453,0.12304 0.66256,0.1179 1.32687,0.21919 1.99024,0.3125 0.22272,0.0313 0.44516,0.0632 0.66797,0.0918 0.68134,0.0876 1.36291,0.16551 2.04492,0.22851 0.17632,0.0163 0.35293,0.0283 0.52929,0.043 0.73045,0.0609 1.46044,0.11419 2.19141,0.14844 2.48292,0.11635 4.96887,0.0799 7.45313,-0.0781 0.0755,-0.005 0.15108,-0.007 0.22656,-0.0117 0.72364,-0.0482 1.44658,-0.11105 2.16992,-0.17969 0.18679,-0.0178 0.37378,-0.0337 0.56055,-0.0527 0.70814,-0.0722 1.41541,-0.1539 2.12304,-0.24415 0.14975,-0.0191 0.29951,-0.0387 0.44922,-0.0586 0.75165,-0.0998 1.50308,-0.20567 2.25391,-0.32422 0.003,-4.1e-4 0.005,-0.002 0.008,-0.002 0.0117,-0.002 0.0235,-0.004 0.0352,-0.006 3.36892,-0.5335 6.7293,-1.24842 10.07031,-2.08203 0.81949,-9.85218 1.01889,-20.90678 2.85742,-31.00391 l 3.77539,-32.3164 c 1.67403,-14.33379 -11.6196,-26.04883 -26.05078,-26.04883 z"
               transform="matrix(0.26458333,0,0,0.26458333,59.228751,17.275363)"
               id="path3372" />
            <path
               sodipodi:nodetypes="scccs"
               inkscape:connector-curvature="0"
               id="path3394"
               d="m 159.78344,-110.89297 c 0.0282,2.17117 -0.52767,3.19299 -0.73943,15.225481 -0.14454,-13.847461 -1.68052,-13.644601 -1.74774,-15.225481 0,-2.3203 1.33431,-4.40294 2.15106,-4.40295 0.81675,-1e-5 0.30726,2.17834 0.33611,4.40295 z"
               style="opacity:1;fill:#ffffff;fill-opacity:0.0869565;stroke:none;stroke-width:1.3;stroke-miterlimit:4;stroke-dasharray:none;stroke-opacity:1" />
            <path
               inkscape:connector-curvature="0"
               id="path1585"
               transform="matrix(0.26458333,0,0,0.26458333,59.228751,17.275363)"
               d="m 388.20703,-511.45117 c -14.43122,0 -27.29006,11.67109 -26.04883,26.04883 l 2.90039,33.58007 c 0.86338,10.00088 1.05847,20.04202 2.03516,29.96875 2.36312,0.80255 4.73487,1.41047 7.11328,1.86329 0.21475,0.0408 0.42969,0.0848 0.64453,0.12304 0.66256,0.1179 1.32687,0.21919 1.99024,0.3125 0.22272,0.0313 0.44516,0.0632 0.66797,0.0918 0.68134,0.0876 1.36291,0.16551 2.04492,0.22851 0.17632,0.0163 0.35293,0.0283 0.52929,0.043 0.73045,0.0609 1.46044,0.11419 2.19141,0.14844 2.48292,0.11635 4.96887,0.0799 7.45313,-0.0781 0.0755,-0.005 0.15108,-0.007 0.22656,-0.0117 0.72364,-0.0482 1.44658,-0.11105 2.16992,-0.17969 0.18679,-0.0178 0.37378,-0.0337 0.56055,-0.0527 0.70814,-0.0722 1.41541,-0.1539 2.12304,-0.24415 0.14975,-0.0191 0.29951,-0.0387 0.44922,-0.0586 0.75165,-0.0998 1.50308,-0.20567 2.25391,-0.32422 0.003,-4.1e-4 0.005,-0.002 0.008,-0.002 0.0117,-0.002 0.0235,-0.004 0.0352,-0.006 3.36892,-0.5335 6.7293,-1.24842 10.07031,-2.08203 0.81949,-9.85218 1.01889,-20.90678 2.85742,-31.00391 l 3.77539,-32.3164 c 1.67403,-14.33379 -11.6196,-26.04883 -26.05078,-26.04883 z"
               style="opacity:1;fill:url(#linearGradient1593);fill-opacity:1;stroke:none;stroke-width:4.91339;stroke-miterlimit:4;stroke-dasharray:none;stroke-opacity:1" />
          </g>
        </g>
      </g>
    </g>
  </g>
</svg>
