<?xml version="1.0" encoding="UTF-8" standalone="no"?>
<svg
   xmlns:dc="http://purl.org/dc/elements/1.1/"
   xmlns:cc="http://creativecommons.org/ns#"
   xmlns:rdf="http://www.w3.org/1999/02/22-rdf-syntax-ns#"
   xmlns:svg="http://www.w3.org/2000/svg"
   xmlns="http://www.w3.org/2000/svg"
   xmlns:xlink="http://www.w3.org/1999/xlink"
   xmlns:sodipodi="http://sodipodi.sourceforge.net/DTD/sodipodi-0.dtd"
   xmlns:inkscape="http://www.inkscape.org/namespaces/inkscape"
   width="64"
   height="64"
   viewBox="0 0 16.933333 16.933334"
   version="1.1"
   id="svg8"
   inkscape:version="1.0.2 (e86c870879, 2021-01-15)"
   sodipodi:docname="com.github.djaler.formatter.svg">
  <defs
     id="defs2">
    <linearGradient
       id="linearGradient862"
       x1="7.9373002"
       x2="7.9373002"
       y1="15.081"
       y2="1.852"
       gradientTransform="matrix(1.0000197,0,0,1.0000197,-2.6388817e-4,0.00804349)"
       gradientUnits="userSpaceOnUse">
      <stop
         stop-color="#202020"
         offset="0"
         id="stop878" />
      <stop
         stop-color="#4d4d4d"
         offset="1"
         id="stop880" />
    </linearGradient>
    <linearGradient
       id="linearGradient8451"
       x1="282.23999"
       x2="261.03"
       y1="1013.7"
       y2="988.42999"
       gradientTransform="matrix(0.11472,0.096265,-0.096265,0.11472,91.739,-130.23)"
       gradientUnits="userSpaceOnUse">
      <stop
         stop-color="#fff"
         offset="0"
         id="stop2" />
      <stop
         stop-color="#fff"
         stop-opacity="0"
         offset="1"
         id="stop4" />
    </linearGradient>
    <linearGradient
       id="linearGradient8453"
       x1="129.42999"
       x2="193.44"
       y1="903.23999"
       y2="914.53003"
       gradientTransform="matrix(0.026006,0.14749,-0.14749,0.026006,156.38,-39.073)"
       gradientUnits="userSpaceOnUse">
      <stop
         stop-color="#64baff"
         offset="0"
         id="stop7" />
      <stop
         stop-color="#0d52bf"
         offset="1"
         id="stop9" />
    </linearGradient>
    <clipPath
       id="clipPath7904">
      <path
         d="m 66,33 c -2.216,0 -4,1.784 -4,4 l -3e-6,40 h -16 c -2.216,0 -4,1.784 -4,3.9999 l 3e-6,8 c -4e-6,2.216 1.784,4.0001 4,4 L 74,93 c 2.216,0 4,-1.784 4,-4.0001 l 1.8e-5,-52 c -3e-6,-2.216 -1.784,-4 -4,-4 z"
         fill="url(#linearGradient7908)"
         id="path12" />
    </clipPath>
    <linearGradient
       id="linearGradient862-3"
       x1="7.9373002"
       x2="7.9373002"
       y1="15.081"
       y2="1.852"
       gradientTransform="matrix(1.0000197,0,0,1.0000197,-2.9607593e-4,0.00795424)"
       gradientUnits="userSpaceOnUse">
      <stop
         stop-color="#eae8e9"
         offset="0"
         id="stop15" />
      <stop
         stop-color="#f9f8f9"
         offset="1"
         id="stop17" />
    </linearGradient>
    <linearGradient
       id="linearGradient1448"
       x1="3.9686999"
       x2="3.9686999"
       y1="16.403999"
       y2="2.6458001"
       gradientTransform="matrix(0.91668805,0,0,0.91668805,0.70545416,0.70545411)"
       gradientUnits="userSpaceOnUse">
      <stop
         stop-color="#737878"
         offset="0"
         id="stop918" />
      <stop
         stop-color="#d2e1e6"
         offset="1"
         id="stop920" />
    </linearGradient>
    <linearGradient
       gradientTransform="matrix(0.26458333,0,0,0.26458333,-38.364066,5e-7)"
       gradientUnits="userSpaceOnUse"
       y2="52.210312"
       x2="204.5739"
       y1="52.210312"
       x1="149.5919"
       id="linearGradient1617"
       xlink:href="#linearGradient1615"
       inkscape:collect="always" />
    <linearGradient
       id="linearGradient1615"
       inkscape:collect="always">
      <stop
         id="stop1611"
         offset="0"
         style="stop-color:#1e1e1e;stop-opacity:1" />
      <stop
         style="stop-color:#2c2c2e;stop-opacity:1"
         offset="0.12742133"
         id="stop1619" />
      <stop
         id="stop1621"
         offset="0.28099197"
         style="stop-color:#2b2b2d;stop-opacity:1" />
      <stop
         style="stop-color:#2b2b2d;stop-opacity:1"
         offset="0.7395497"
         id="stop1623" />
      <stop
         id="stop1625"
         offset="0.89140087"
         style="stop-color:#303030;stop-opacity:1" />
      <stop
         id="stop1613"
         offset="1"
         style="stop-color:#1b1b1b;stop-opacity:1" />
    </linearGradient>
    <linearGradient
       inkscape:collect="always"
       xlink:href="#b"
       id="linearGradient1158"
       gradientUnits="userSpaceOnUse"
       x1="27"
       y1="48"
       x2="27"
       y2="46"
       gradientTransform="matrix(0.26458333,0,0,0.26458333,-0.66145873,2.1238207)" />
    <linearGradient
       id="b"
       x1="399.57001"
       x2="399.57001"
       y1="545.79999"
       y2="517.79999"
       gradientTransform="matrix(2.1429,0,0,2.1429,-826.34,-1107.5)"
       gradientUnits="userSpaceOnUse">
      <stop
         stop-color="#3889e9"
         offset="0"
         id="stop2-9" />
      <stop
         stop-color="#5ea5fb"
         offset="1"
         id="stop4-1" />
    </linearGradient>
    <linearGradient
       y2="544.71997"
       x2="467.17001"
       y1="546.84998"
       x1="467.17001"
       gradientTransform="matrix(0.49858083,0,0,0.49858083,-221.12023,-257.62822)"
       gradientUnits="userSpaceOnUse"
       id="linearGradient1594"
       xlink:href="#b-7-9"
       inkscape:collect="always" />
    <linearGradient
       gradientUnits="userSpaceOnUse"
       gradientTransform="matrix(1.8844,0,0,1.8844,-841.23,-972.74)"
       y2="544.71997"
       y1="546.84998"
       x2="467.17001"
       x1="467.17001"
       id="b-7-9">
      <stop
         id="stop38"
         offset="0"
         stop-color="#040404" />
      <stop
         id="stop40-1"
         offset="1"
         stop-opacity=".90816"
         stop-color="#121212" />
    </linearGradient>
    <linearGradient
       inkscape:collect="always"
       xlink:href="#linearGradient2075"
       id="linearGradient2077"
       x1="12.786531"
       y1="7.6880145"
       x2="12.786531"
       y2="13.301931"
       gradientUnits="userSpaceOnUse"
       gradientTransform="translate(0.14387808,0.15168778)" />
    <linearGradient
       inkscape:collect="always"
       id="linearGradient2075">
      <stop
         style="stop-color:#fffffe;stop-opacity:1"
         offset="0"
         id="stop2071" />
      <stop
         style="stop-color:#d7d7d7;stop-opacity:1"
         offset="1"
         id="stop2073" />
    </linearGradient>
    <linearGradient
       id="linearGradient956"
       x1="46"
       x2="46"
       y1="55"
       y2="36"
       gradientUnits="userSpaceOnUse"
       xlink:href="#b"
       gradientTransform="matrix(0.19495642,0,0,0.19495642,3.9719513,1.7061693)" />
  </defs>
  <sodipodi:namedview
     id="base"
     pagecolor="#ffffff"
     bordercolor="#666666"
     borderopacity="1.0"
     inkscape:pageopacity="0.0"
     inkscape:pageshadow="2"
     inkscape:zoom="7.9195959"
     inkscape:cx="19.752078"
     inkscape:cy="39.7547"
     inkscape:document-units="mm"
     inkscape:current-layer="layer1"
     inkscape:document-rotation="0"
     showgrid="false"
     units="px"
     inkscape:window-width="1920"
     inkscape:window-height="992"
     inkscape:window-x="0"
     inkscape:window-y="0"
     inkscape:window-maximized="1" />
  <metadata
     id="metadata5">
    <rdf:RDF>
      <cc:Work
         rdf:about="">
        <dc:format>image/svg+xml</dc:format>
        <dc:type
           rdf:resource="http://purl.org/dc/dcmitype/StillImage" />
        <dc:title></dc:title>
      </cc:Work>
    </rdf:RDF>
  </metadata>
  <g
     inkscape:label="图层 1"
     inkscape:groupmode="layer"
     id="layer1">
    <g
       transform="matrix(1.0000192,0,0,1.0000192,4.1098667e-6,-5.1781419e-5)"
       shape-rendering="auto"
       id="g54">
      <path
         d="m 4.3693,0.52916 c -2.1142,0 -3.8402,1.7835 -3.8402,3.9682 v 8.4675 c 0,2.1846 1.726,3.9682 3.8402,3.9682 h 8.1944 c 2.1142,0 3.8402,-1.7835 3.8402,-3.9682 v -8.4675 c 0,-2.1846 -1.726,-3.9682 -3.8402,-3.9682 z m 0.25704,0.52089 h 7.6808 c 1.8443,0 3.3291,1.5342 3.3291,3.44 v 7.9368 c 0,1.9058 -1.4847,3.44 -3.3291,3.44 h -7.6808 c -1.8443,0 -3.3291,-1.5342 -3.3291,-3.44 v -7.9368 c 0,-1.9058 1.4847,-3.44 3.3291,-3.44 z"
         color="#000000"
         color-rendering="auto"
         dominant-baseline="auto"
         image-rendering="auto"
         opacity="0.01"
         solid-color="#000000"
         stop-color="#000000"
         style="font-variant-ligatures:normal;font-variant-position:normal;font-variant-caps:normal;font-variant-numeric:normal;font-variant-alternates:normal;font-variant-east-asian:normal;font-feature-settings:normal;font-variation-settings:normal;text-indent:0;text-decoration:none;text-decoration-line:none;text-decoration-style:solid;text-decoration-color:#000000;text-transform:none;text-orientation:mixed;white-space:normal;shape-padding:0;shape-margin:0;inline-size:0;isolation:auto;mix-blend-mode:normal"
         id="path42" />
      <path
         d="m 4.3587,0.79373 c -1.9668,0 -3.5639,1.6528 -3.5639,3.6876 v 8.4996 c 0,2.0348 1.5971,3.6876 3.5639,3.6876 h 8.2162 c 1.9668,0 3.5644,-1.6528 3.5644,-3.6876 v -8.4996 c 0,-2.0348 -1.5976,-3.6876 -3.5644,-3.6876 z m 0.27222,0.25631 h 7.6718 c 1.8422,0 3.3251,1.5342 3.3251,3.44 v 7.9368 c 0,1.9058 -1.483,3.44 -3.3251,3.44 h -7.6718 c -1.8422,0 -3.3251,-1.5342 -3.3251,-3.44 v -7.9368 c 0,-1.9058 1.483,-3.44 3.3251,-3.44 z"
         color="#000000"
         color-rendering="auto"
         dominant-baseline="auto"
         image-rendering="auto"
         opacity="0.01"
         solid-color="#000000"
         stop-color="#000000"
         style="font-variant-ligatures:normal;font-variant-position:normal;font-variant-caps:normal;font-variant-numeric:normal;font-variant-alternates:normal;font-variant-east-asian:normal;font-feature-settings:normal;font-variation-settings:normal;text-indent:0;text-decoration:none;text-decoration-line:none;text-decoration-style:solid;text-decoration-color:#000000;text-transform:none;text-orientation:mixed;white-space:normal;shape-padding:0;shape-margin:0;inline-size:0;isolation:auto;mix-blend-mode:normal"
         id="path44" />
      <g
         id="g52">
        <path
           d="m 4.3097,1.0583 c -1.8657,0 -3.3751,1.5383 -3.3751,3.439 v 8.4675 c 0,1.9007 1.57,3.439 3.4357,3.439 h 8.1996 c 1.8657,0 3.4274,-1.5383 3.4274,-3.439 V 4.4973 c 0,-1.9007 -1.51,-3.439 -3.3756,-3.439 h -0.09688 c 1.794,0.086515 3.2138,1.5819 3.2138,3.4318 v 7.9368 c 0,1.9058 -1.5059,3.44 -3.3766,3.44 h -7.7905 c -1.8707,0 -3.3766,-1.5342 -3.3766,-3.44 V 4.4901 c 0,-1.8498 1.4199,-3.3451 3.2138,-3.4318 z"
           color="#000000"
           color-rendering="auto"
           dominant-baseline="auto"
           image-rendering="auto"
           opacity="0.03"
           solid-color="#000000"
           stop-color="#000000"
           style="font-variant-ligatures:normal;font-variant-position:normal;font-variant-caps:normal;font-variant-numeric:normal;font-variant-alternates:normal;font-variant-east-asian:normal;font-feature-settings:normal;font-variation-settings:normal;text-indent:0;text-decoration:none;text-decoration-line:none;text-decoration-style:solid;text-decoration-color:#000000;text-transform:none;text-orientation:mixed;white-space:normal;shape-padding:0;shape-margin:0;inline-size:0;isolation:auto;mix-blend-mode:normal"
           id="path46" />
        <path
           transform="scale(0.26458)"
           d="m 4,46.969 v 2.0312 c 0,6.6479 5.8957,12 12.544,12 h 30.961 c 6.6479,0 12.495,-5.3521 12.495,-12 V 47.008 C 59.97883,54.1929 54.19,59.971 47,59.971 H 17.002 C 9.7988,59.971 4,54.1723 4,46.969 Z"
           color="#000000"
           color-rendering="auto"
           dominant-baseline="auto"
           image-rendering="auto"
           opacity="0.03"
           solid-color="#000000"
           stop-color="#000000"
           style="font-variant-ligatures:normal;font-variant-position:normal;font-variant-caps:normal;font-variant-numeric:normal;font-variant-alternates:normal;font-variant-east-asian:normal;font-feature-settings:normal;font-variation-settings:normal;text-indent:0;text-decoration:none;text-decoration-line:none;text-decoration-style:solid;text-decoration-color:#000000;text-transform:none;text-orientation:mixed;white-space:normal;shape-padding:0;shape-margin:0;inline-size:0;isolation:auto;mix-blend-mode:normal"
           id="path48" />
        <path
           d="m 1.0583,11.906 v 0.59234 c 0,1.9386 1.5729,3.4993 3.3318,3.4993 h 8.1603 c 1.7589,0 3.3243,-1.5608 3.3243,-3.4993 v -0.58095 c -0.0056,2.0952 -1.5372,3.7801 -3.4395,3.7801 H 4.4984 c -1.9058,0 -3.44,-1.691 -3.44,-3.7915 z"
           color="#000000"
           color-rendering="auto"
           dominant-baseline="auto"
           image-rendering="auto"
           opacity="0.05"
           solid-color="#000000"
           stop-color="#000000"
           style="font-variant-ligatures:normal;font-variant-position:normal;font-variant-caps:normal;font-variant-numeric:normal;font-variant-alternates:normal;font-variant-east-asian:normal;font-feature-settings:normal;font-variation-settings:normal;text-indent:0;text-decoration:none;text-decoration-line:none;text-decoration-style:solid;text-decoration-color:#000000;text-transform:none;text-orientation:mixed;white-space:normal;shape-padding:0;shape-margin:0;inline-size:0;isolation:auto;mix-blend-mode:normal"
           id="path50" />
      </g>
    </g>
    <g
       id="g1992"
       transform="matrix(1.0181676,0,0,1.0181676,-0.15381941,-0.15381905)">
      <rect
         id="rect1024"
         stroke-width="0.0831546"
         stroke-opacity="0.95294"
         fill="url(#linearGradient1448)"
         ry="3.4395678"
         height="14.552286"
         width="14.552286"
         y="1.1905236"
         x="1.190524"
         style="fill:url(#linearGradient1448)" />
      <path
         d="m 1.1906256,9.949264 v 2.353861 c 0,1.905538 1.5340462,3.439584 3.4395833,3.439584 h 7.6729161 c 1.905538,0 3.439584,-1.534046 3.439584,-3.439584 V 9.949264 c 0,1.905538 -1.534046,3.439583 -3.439584,3.439583 H 4.6302089 c -1.9055371,0 -3.4395833,-1.534045 -3.4395833,-3.439583 z"
         style="fill:url(#linearGradient1617);fill-opacity:1;stroke-width:0.514879;stroke-linecap:round"
         id="rect1607" />
    </g>
    <rect
       x="4.630208"
       y="14.294654"
       width="5.2916665"
       height="0.52916664"
       ry="0.26458332"
       fill="url(#linearGradient964)"
       stroke-width="0.53049"
       id="rect1156"
       style="fill:url(#linearGradient1158)" />
    <circle
       style="fill:url(#linearGradient1594)"
       id="circle1590"
       stroke-width="0.469265"
       opacity="0.452"
       fill="url(#b-7)"
       r="0.52916664"
       cy="14.559237"
       cx="11.77396" />
    <path
       id="path1592"
       fill="#ffffff"
       d="m 11.774753,14.314498 c -0.01064,0 -0.02013,0.0039 -0.02791,0.01188 -0.0078,0.0076 -0.01138,0.01659 -0.01138,0.02739 v 0.196887 c 0,0.01048 0.0036,0.01977 0.01138,0.02739 0.0078,0.0076 0.01725,0.01188 0.02791,0.01188 0.01064,0 0.01963,-0.0039 0.02739,-0.01188 0.0078,-0.0076 0.01188,-0.01691 0.01188,-0.02739 v -0.196887 c 0,-0.01079 -0.0041,-0.01945 -0.01188,-0.02739 -0.0078,-0.0076 -0.01675,-0.01188 -0.02739,-0.01188 z m -0.11317,0.05788 c -0.01074,0 -0.02013,1.32e-4 -0.02894,0.0078 -0.02989,0.02223 -0.05328,0.04973 -0.06976,0.08268 -0.01648,0.03295 -0.02479,0.06818 -0.02479,0.10542 0,0.03194 0.0066,0.06238 0.01913,0.09147 0.01249,0.02921 0.02904,0.05434 0.05012,0.07545 0.02109,0.02096 0.04638,0.03765 0.07545,0.05013 0.02907,0.01238 0.05953,0.0186 0.09147,0.0186 0.03193,0 0.0624,-0.0062 0.09147,-0.0186 0.02907,-0.01238 0.05385,-0.02901 0.07493,-0.05013 0.02109,-0.02095 0.03815,-0.04637 0.05064,-0.07545 0.01249,-0.02921 0.0186,-0.05953 0.0186,-0.09147 0,-0.03724 -0.0083,-0.07246 -0.02479,-0.10542 -0.01648,-0.03296 -0.03936,-0.0604 -0.06925,-0.08268 -0.0086,-0.0067 -0.0186,-0.0093 -0.02946,-0.0078 -0.01085,0 -0.0195,0.0064 -0.02585,0.01499 -0.0065,0.0086 -0.0088,0.01846 -0.0072,0.02894 0.0016,0.01079 0.0064,0.01969 0.01498,0.02635 0.02006,0.01524 0.03556,0.03339 0.04651,0.05529 0.01095,0.02191 0.01654,0.04552 0.01654,0.07028 0,0.02127 -0.0041,0.04161 -0.01241,0.06098 -0.0083,0.01937 -0.01947,0.036 -0.03359,0.05013 -0.01413,0.01397 -0.03078,0.02536 -0.05012,0.03359 -0.01934,0.0083 -0.03969,0.0124 -0.06098,0.0124 -0.0213,0 -0.04163,-0.0041 -0.06098,-0.0124 -0.01934,-0.0083 -0.036,-0.01933 -0.05013,-0.03359 -0.01413,-0.01397 -0.02582,-0.03073 -0.03411,-0.05013 -0.0083,-0.01937 -0.01241,-0.03968 -0.01241,-0.06098 0,-0.02477 0.0056,-0.04838 0.01654,-0.07028 0.01095,-0.02191 0.02643,-0.04012 0.04651,-0.05529 0.0086,-0.0067 0.01397,-0.01556 0.0155,-0.02635 0.0016,-0.01079 -0.0013,-0.02036 -0.0078,-0.02894 -0.0063,-0.0089 -0.01508,-0.01372 -0.02585,-0.01499 z"
       style="stroke-width:0.264583" />
    <path
       d="m 10.194152,5.1006379 -0.7415481,-0.00114 c -0.028255,1.7e-5 -0.055311,0.00894 -0.075287,0.024993 -0.019989,0.016055 -0.031237,0.037772 -0.031345,0.060547 l -0.00111,0.5977202 c -2.395e-4,0.047342 0.047334,0.085812 0.1060926,0.085794 l 0.1033727,9.37e-5 -0.00106,0.4554273 -0.7861035,0.4246562 0.00363,-1.7401116 0.2733939,3.175e-4 c 0.029326,4.04e-5 0.0566,-0.012266 0.071795,-0.032398 0.015319,-0.020238 0.016473,-0.045334 0.00303,-0.066355 L 8.5798176,4.0681475 c -0.014433,-0.022389 -0.043207,-0.036528 -0.074568,-0.036616 -0.031396,5.59e-5 -0.060127,0.013999 -0.074631,0.036454 l -0.5428192,0.840449 c -0.013473,0.020934 -0.012533,0.046135 0.00265,0.066347 0.015232,0.020275 0.042476,0.032562 0.071787,0.032605 l 0.2736017,3.97e-4 -0.00516,2.4101424 L 7.3845359,6.9573393 7.3852768,6.5957068 C 7.5165736,6.5259282 7.6034469,6.4062995 7.6037485,6.270137 7.6043835,6.0540835 7.3874199,5.878686 7.119084,5.8783949 6.8512463,5.8778922 6.6338117,6.0528347 6.6332561,6.2688935 c -5.292e-4,0.1362577 0.086093,0.256106 0.2171038,0.3262577 l -0.00106,0.4761706 c -2.064e-4,0.071819 0.043918,0.1388983 0.117856,0.1790065 l 1.2624337,0.6870435 -0.00167,0.743294 C 8.0498863,8.7575748 7.9272784,8.9071703 7.926908,9.0814301 7.9265905,9.3340067 8.1799211,9.5391593 8.493328,9.5396885 8.8070973,9.5401118 9.0616,9.3357397 9.0621292,9.0830705 9.062579,8.9088477 8.9405823,8.7591147 8.762859,8.6816183 L 8.7658858,7.268267 9.9693431,6.6181593 c 0.014441,-0.00782 0.027818,-0.01669 0.039902,-0.02639 0.04971,-0.03992 0.07853,-0.094575 0.07863,-0.1523286 l 0.0012,-0.5700448 0.103452,1.45e-4 c 0.02825,-1.66e-5 0.05524,-0.009 0.07523,-0.025056 0.01998,-0.016047 0.03117,-0.037804 0.03127,-0.060587 l 0.0011,-0.597588 c 1.77e-4,-0.047392 -0.04728,-0.085767 -0.106069,-0.085799 z"
       opacity="0.15"
       stroke-width="0.459026"
       id="path1627" />
    <circle
       style="fill:url(#linearGradient2077);fill-opacity:1;stroke-width:0.648747;stroke-linecap:round;paint-order:stroke fill markers"
       id="path2069"
       cx="12.939986"
       cy="10.576693"
       r="2.9104166" />
    <path
       d="m 11.380295,10.869123 c 0,0.861395 0.698294,1.559653 1.559652,1.559653 0.852622,0 1.544132,-0.626046 1.558131,-1.475353 9.63e-4,-0.0086 0.0016,-0.01724 0.0016,-0.02588 0,-0.143561 -0.148911,-0.253365 -0.292472,-0.253365 -0.143564,0 -0.292436,0.109802 -0.292436,0.253365 0,0.574225 -0.400498,0.916373 -0.974763,0.916373 -0.574225,0 -0.974801,-0.400518 -0.974801,-0.974781 0,-0.574226 0.400537,-0.9747838 0.974801,-0.9747838 V 10.479222 L 14.109731,9.6019128 12.940167,8.7246094 v 0.5845969 c -0.861397,0 -1.559652,0.6982957 -1.559652,1.5596517 z"
       fill="url(#linearGradient956)"
       id="path81"
       style="fill:url(#linearGradient956);stroke-width:0.194956" />
  </g>
</svg>
