<?xml version="1.0" encoding="UTF-8"?>
<svg width="64" height="64" version="1.1" viewBox="0 0 16.933 16.933" xmlns="http://www.w3.org/2000/svg" xmlns:cc="http://creativecommons.org/ns#" xmlns:dc="http://purl.org/dc/elements/1.1/" xmlns:rdf="http://www.w3.org/1999/02/22-rdf-syntax-ns#" xmlns:xlink="http://www.w3.org/1999/xlink">
 <metadata>
  <rdf:RDF>
   <cc:Work rdf:about="">
    <dc:format>image/svg+xml</dc:format>
    <dc:type rdf:resource="http://purl.org/dc/dcmitype/StillImage"/>
    <dc:title/>
   </cc:Work>
  </rdf:RDF>
 </metadata>
 <defs>
  <linearGradient id="linearGradient4675">
   <stop stop-color="#70e4f6" offset="0"/>
   <stop stop-color="#15b5f4" stop-opacity="0" offset="1"/>
  </linearGradient>
  <linearGradient id="linearGradient4655">
   <stop stop-color="#60c6f7" offset="0"/>
   <stop stop-color="#0e90f8" stop-opacity="0" offset="1"/>
  </linearGradient>
  <linearGradient id="linearGradient4629" x1="-99.069" x2="-141.12" y1="30.13" y2="120.37" gradientTransform="translate(-85.111 .44894)" gradientUnits="userSpaceOnUse">
   <stop stop-color="#0e90f8" offset="0"/>
   <stop stop-color="#0e90f8" stop-opacity="0" offset="1"/>
  </linearGradient>
  <linearGradient id="linearGradient4637" x1="-126.9" x2="-106.55" y1="117.45" y2="54.149" gradientTransform="translate(-85.111 .44894)" gradientUnits="userSpaceOnUse">
   <stop stop-color="#3699f4" stop-opacity="0" offset="0"/>
   <stop stop-color="#369bf3" offset="1"/>
  </linearGradient>
  <linearGradient id="linearGradient4641" x1="-151.71" x2="-117.55" y1="33.273" y2="93.657" gradientTransform="matrix(.57145 0 0 .57145 -186.7 39.463)" gradientUnits="userSpaceOnUse" xlink:href="#linearGradient4655"/>
  <linearGradient id="linearGradient4649" x1="129.89" x2="147.11" y1="78.616" y2="106" gradientTransform="translate(-394.88 .89789)" gradientUnits="userSpaceOnUse">
   <stop stop-color="#8bd9f7" offset="0"/>
   <stop stop-color="#8bd9f7" stop-opacity="0" offset="1"/>
  </linearGradient>
  <linearGradient id="linearGradient4661" x1="-99.069" x2="-141.12" y1="30.13" y2="120.37" gradientTransform="matrix(.73783 0 0 .73783 -24.493 -332.07)" gradientUnits="userSpaceOnUse" xlink:href="#linearGradient4675"/>
  <linearGradient id="linearGradient4669" x1="-116.63" x2="-116.63" y1="99.89" y2="136.25" gradientTransform="translate(.44894 -385.45)" gradientUnits="userSpaceOnUse">
   <stop stop-color="#92dcf7" offset="0"/>
   <stop stop-color="#92dcf7" stop-opacity="0" offset="1"/>
  </linearGradient>
  <linearGradient id="linearGradient4681" x1="-99.069" x2="-141.12" y1="30.13" y2="120.37" gradientTransform="matrix(.70253 0 0 .70253 -31.28 107.23)" gradientUnits="userSpaceOnUse">
   <stop stop-color="#135ddf" offset="0"/>
   <stop stop-color="#318aea" stop-opacity="0" offset="1"/>
  </linearGradient>
  <linearGradient id="linearGradient4689" x1="-114.68" x2="-114.68" y1="-123.91" y2="-71.382" gradientTransform="translate(0 266.03)" gradientUnits="userSpaceOnUse">
   <stop stop-color="#377ff0" offset="0"/>
   <stop stop-color="#377ff0" stop-opacity="0" offset="1"/>
  </linearGradient>
  <radialGradient id="radialGradient4705" cx="82.614" cy="234.39" r="52.538" gradientTransform="matrix(.99998 .0064555 -.0042726 .66183 -301.95 -9.5202)" gradientUnits="userSpaceOnUse">
   <stop stop-color="#43c3fc" offset="0"/>
   <stop stop-color="#46c2fe" stop-opacity="0" offset="1"/>
  </radialGradient>
  <linearGradient id="linearGradient4641-2" x1="-151.71" x2="-117.55" y1="33.273" y2="93.657" gradientTransform="matrix(.57145 0 0 .57145 -186.82 38.875)" gradientUnits="userSpaceOnUse" xlink:href="#linearGradient4655"/>
  <linearGradient id="linearGradient4822" x1="-99.069" x2="-141.12" y1="30.13" y2="120.37" gradientTransform="matrix(0 -.73783 .73783 0 -332.07 24.493)" gradientUnits="userSpaceOnUse" xlink:href="#linearGradient4675"/>
  <linearGradient id="linearGradient4831" x1="-279.32" x2="-263.39" y1="88.274" y2="98.75" gradientUnits="userSpaceOnUse">
   <stop stop-color="#68c4f3" offset="0"/>
   <stop stop-color="#6fcaf3" stop-opacity="0" offset="1"/>
  </linearGradient>
  <linearGradient id="linearGradient4850" x1="-244.96" x2="-239.23" y1="74.693" y2="89.919" gradientUnits="userSpaceOnUse">
   <stop stop-color="#25b6f6" offset="0"/>
   <stop stop-color="#29b8f6" stop-opacity="0" offset="1"/>
  </linearGradient>
  <linearGradient id="a-3-3" x1="32" x2="32" y1="2" y2="62" gradientTransform="matrix(.26459 0 0 .26459 .066756 .21412)" gradientUnits="userSpaceOnUse">
   <stop stop-color="#f5faff" offset="0"/>
   <stop stop-color="#cfdef0" offset="1"/>
  </linearGradient>
 </defs>
 <circle cx="-330.35" cy="-328.38" r="0" fill="#5e4aa6" stroke-width=".26458"/>
 <circle cx="-39.434" cy="6.44" r="0" fill="#5e4aa6" fill-rule="evenodd" stroke-width=".26458"/>
 <circle cx="8.4665" cy="8.4665" r="7.9376" fill="url(#a-3-3)" stroke-width=".26459" style="paint-order:stroke markers fill"/>
 <circle cx="-308.75" cy="-331.04" r="0" fill="#5e4aa6" stroke-width=".26458"/>
 <g transform="matrix(.072989 0 0 .072989 24.444 1.4766)">
  <g stroke-linecap="round" stroke-linejoin="bevel">
   <path d="m-207.57 43.46a43.772 43.772 0 0 0-38.416 22.789 25.013 25.013 0 0 0-10.742-2.459 25.013 25.013 0 0 0-24.686 21.164 32.296 32.296 0 0 0-18.611 29.215 32.296 32.296 0 0 0 29.846 32.174c1.0248 0.62071 2.2251 0.98437 3.5156 0.98437h91.51c0.68487 0 1.3445-0.10392 1.9668-0.29101a30.751 30.751 0 0 0 4.4512 0.35351 30.751 30.751 0 0 0 30.752-30.752 30.751 30.751 0 0 0-25.848-30.342 43.772 43.772 0 0 0-43.738-42.836z" fill="#3ebbfe" stroke="url(#linearGradient4641-2)" stroke-width=".85717"/>
   <circle cx="-256.61" cy="89.391" r="25.013" fill="url(#linearGradient4649)" stroke="url(#linearGradient4641)" stroke-width=".85717"/>
   <circle cx="-207.45" cy="87.82" r="43.772" fill="url(#linearGradient4637)" stroke="url(#linearGradient4629)" stroke-width="1.5"/>
   <circle transform="rotate(-90)" cx="-114.76" cy="-267.61" r="32.296" fill="url(#linearGradient4669)" stroke="url(#linearGradient4661)" stroke-width="1.1067"/>
   <circle transform="matrix(0,-1,-1,0,0,0)" cx="-117.23" cy="168.61" r="30.751" fill="url(#linearGradient4689)" stroke="url(#linearGradient4681)" stroke-width="1.0538"/>
  </g>
  <rect x="-273.33" y="112.04" width="105.08" height="35.872" rx="6.7831" ry="6.7831" fill="url(#radialGradient4705)"/>
  <path d="m-267.61 82.461a32.296 32.296 0 0 0-13.686 3.082 25.013 25.013 0 0 0-0.32812 3.8477 25.013 25.013 0 0 0 25.012 25.014 25.013 25.013 0 0 0 19.678-9.6191 32.296 32.296 0 0 0-30.676-22.324z" fill="url(#linearGradient4831)" stroke="url(#linearGradient4822)" stroke-linecap="round" stroke-linejoin="bevel" stroke-width="1.1067"/>
  <path d="m-245.86 66.836a43.772 43.772 0 0 0-5.3555 20.984 43.772 43.772 0 0 0 6.7871 23.387 25.013 25.013 0 0 0 12.838-21.816 25.013 25.013 0 0 0-14.27-22.555z" fill="url(#linearGradient4850)"/>
 </g>
</svg>
