<?xml version="1.0" encoding="UTF-8"?>
<svg width="64" height="64" version="1.1" viewBox="0 0 16.933 16.933" xmlns="http://www.w3.org/2000/svg" xmlns:cc="http://creativecommons.org/ns#" xmlns:dc="http://purl.org/dc/elements/1.1/" xmlns:rdf="http://www.w3.org/1999/02/22-rdf-syntax-ns#" xmlns:xlink="http://www.w3.org/1999/xlink">
 <metadata>
  <rdf:RDF>
   <cc:Work rdf:about="">
    <dc:format>image/svg+xml</dc:format>
    <dc:type rdf:resource="http://purl.org/dc/dcmitype/StillImage"/>
    <dc:title/>
   </cc:Work>
  </rdf:RDF>
 </metadata>
 <defs>
  <style type="text/css"/>
  <linearGradient id="linearGradient1670" x1="-409.54" x2="-369.54" y1="60.157" y2="60.157" gradientTransform="rotate(7.0662,93.375,48.682)" gradientUnits="userSpaceOnUse">
   <stop stop-color="#e3e9f2" offset="0"/>
   <stop stop-color="#dee6f0" offset="1"/>
  </linearGradient>
  <linearGradient id="linearGradient1678" x1="-408.97" x2="-369.54" y1="13.673" y2="51.727" gradientTransform="rotate(7.0662,93.375,48.682)" gradientUnits="userSpaceOnUse">
   <stop stop-color="#63b3f3" offset="0"/>
   <stop stop-color="#4097de" offset="1"/>
  </linearGradient>
  <linearGradient id="linearGradient1083" x1="8.419" x2="9.6579" y1="13.974" y2="4.5463" gradientUnits="userSpaceOnUse">
   <stop stop-color="#a4cdef" offset="0"/>
   <stop stop-color="#fff" offset="1"/>
  </linearGradient>
  <linearGradient id="linearGradient1117" x1="-8.5078" x2="-7.7441" y1="13.298" y2="12.231" gradientTransform="translate(13.045 .37211)" gradientUnits="userSpaceOnUse">
   <stop stop-color="#20bb00" offset="0"/>
   <stop stop-color="#4dd308" offset="1"/>
  </linearGradient>
 </defs>
 <g fill="#5e4aa6">
  <circle cx="-330.35" cy="-328.38" r="0" stroke-width=".26458"/>
  <circle cx="-39.434" cy="6.44" r="0" fill-rule="evenodd" stroke-width=".26458"/>
  <circle cx="-330.38" cy="-328.5" r="0" stroke-width=".26458"/>
  <circle cx="-301.7" cy="-344.43" r="0" stroke-width=".26458"/>
 </g>
 <g transform="matrix(.26458 0 0 .26458 110.55 13.24)">
  <rect x="-409.54" y="-45.531" width="40" height="55" ry="3.4926" fill="#2378b9"/>
  <g transform="translate(-.050847 .22034)">
   <path d="m-366.4-5.2429-39.696-4.9207-1.6446 13.268c-0.23803 1.9202 1.1158 3.6572 3.0361 3.8953l32.765 4.0615c1.9202 0.23803 3.6572-1.1158 3.8952-3.0361z" fill="url(#linearGradient1670)"/>
   <path d="m-397.94-47.583c-1.9202-0.23803-3.6572 1.1158-3.8953 3.0361l-4.2621 34.383 39.696 4.9207 4.2621-34.383c0.23803-1.9202-1.1158-3.6572-3.036-3.8953z" fill="url(#linearGradient1678)"/>
  </g>
 </g>
 <circle cx="-337.3" cy="-348.73" r="0" fill="#5e4aa6" stroke-width=".26458"/>
 <g transform="translate(-29.861 -19.474)" fill="#5e4aa6" image-rendering="optimizeSpeed" stroke-width=".26458">
  <circle cx="-330.35" cy="-328.38" r="0"/>
  <circle cx="-312.11" cy="-326.25" r="0"/>
  <circle cx="-306.02" cy="-333.07" r="0"/>
  <circle cx="-308.84" cy="-326.01" r="0"/>
 </g>
 <g>
  <g transform="translate(-.026325 -.046808)" fill="url(#linearGradient1083)">
   <circle transform="rotate(7.632)" cx="9.9612" cy="5.328" r="1.7198"/>
   <path d="m10.821 11.609-0.35516-1.7612c-0.017663-0.1294-0.076786-0.24777-0.16738-0.35402-0.090591-0.10625-0.21275-0.20036-0.35697-0.28141-0.28844-0.16208-0.66481-0.27183-1.0519-0.32083-0.38709-0.048943-0.7851-0.037168-1.1163 0.043322-0.16561 0.040251-0.31453 0.097734-0.43721 0.17343-0.12268 0.075688-0.21883 0.16952-0.27928 0.2827l-0.85634 1.6444c0.79056 0.11324 1.6236 0.20483 2.3324 0.2885 0.74054 0.09509 1.6354 0.23673 2.2882 0.28509z"/>
  </g>
  <rect transform="rotate(7.248)" x="8.2775" y="11.307" width="5.7799" height=".58897" ry=".29449" fill="#6e788c" stroke-width=".1614"/>
  <rect transform="rotate(7.248)" x="8.2775" y="12.538" width="5.7799" height=".58897" ry=".29449" fill="#6e788c" stroke-width=".1614"/>
  <circle cx="4.8834" cy="13" r=".94273" fill="url(#linearGradient1117)" stroke-width=".13229"/>
 </g>
</svg>
