<?xml version="1.0" encoding="UTF-8" standalone="no"?>
<svg
   xmlns:dc="http://purl.org/dc/elements/1.1/"
   xmlns:cc="http://creativecommons.org/ns#"
   xmlns:rdf="http://www.w3.org/1999/02/22-rdf-syntax-ns#"
   xmlns:svg="http://www.w3.org/2000/svg"
   xmlns="http://www.w3.org/2000/svg"
   xmlns:xlink="http://www.w3.org/1999/xlink"
   xmlns:sodipodi="http://sodipodi.sourceforge.net/DTD/sodipodi-0.dtd"
   xmlns:inkscape="http://www.inkscape.org/namespaces/inkscape"
   inkscape:version="1.0 (4035a4fb49, 2020-05-01)"
   sodipodi:docname="eclipse.svg"
   id="svg40"
   version="1.1"
   height="64"
   width="64">
  <metadata
     id="metadata44">
    <rdf:RDF>
      <cc:Work
         rdf:about="">
        <dc:format>image/svg+xml</dc:format>
        <dc:type
           rdf:resource="http://purl.org/dc/dcmitype/StillImage" />
        <dc:title></dc:title>
      </cc:Work>
    </rdf:RDF>
  </metadata>
  <sodipodi:namedview
     inkscape:current-layer="svg40"
     inkscape:window-maximized="1"
     inkscape:window-y="36"
     inkscape:window-x="0"
     inkscape:cy="28.794531"
     inkscape:cx="43.577331"
     inkscape:zoom="4.2150193"
     showgrid="false"
     id="namedview42"
     inkscape:window-height="932"
     inkscape:window-width="1920"
     inkscape:pageshadow="2"
     inkscape:pageopacity="0"
     guidetolerance="10"
     gridtolerance="10"
     objecttolerance="10"
     borderopacity="1"
     bordercolor="#666666"
     pagecolor="#ffffff" />
  <defs
     id="defs26">
    <linearGradient
       gradientUnits="userSpaceOnUse"
       gradientTransform="matrix(1.3276,0,0,1.3276,-414.25394,-663.52)"
       y2="498.89"
       y1="547.6"
       x2="407.94"
       x1="408.25"
       id="b">
      <stop
         id="stop2"
         offset="0"
         stop-color="#fff" />
      <stop
         id="stop4"
         offset="1"
         stop-color="#e6e6e6" />
    </linearGradient>
    <filter
       color-interpolation-filters="sRGB"
       height="1.1223"
       width="1.1178"
       y="-.061161"
       x="-.058883"
       id="d">
      <feGaussianBlur
         id="feGaussianBlur7"
         stdDeviation="10.562379" />
    </filter>
    <filter
       color-interpolation-filters="sRGB"
       height="1.072"
       width="1.072"
       y="-.036"
       x="-.036"
       id="c">
      <feGaussianBlur
         id="feGaussianBlur10"
         stdDeviation="0.88972449" />
    </filter>
    <linearGradient
       gradientUnits="userSpaceOnUse"
       y2="48.696"
       y1="15.304"
       x2="34.781"
       x1="34.781"
       id="e">
      <stop
         id="stop13"
         offset="0"
         stop-color="#2c2054" />
      <stop
         id="stop15"
         offset="1"
         stop-color="#3f2e76" />
    </linearGradient>
    <linearGradient
       gradientUnits="userSpaceOnUse"
       y2="48.696"
       y1="15.297"
       x2="20.174"
       x1="20.174"
       id="a">
      <stop
         id="stop18"
         offset="0"
         stop-color="#f4941e" />
      <stop
         id="stop20"
         offset="1"
         stop-color="#f4a138" />
    </linearGradient>
    <filter
       color-interpolation-filters="sRGB"
       height="1.1324"
       width="1.1098"
       y="-.066175"
       x="-.054879"
       id="f">
      <feGaussianBlur
         id="feGaussianBlur23"
         stdDeviation="0.92089844" />
    </filter>
    <linearGradient
       gradientUnits="userSpaceOnUse"
       gradientTransform="matrix(1.3276,0,0,1.3276,-435.75462,-663.52)"
       y2="498.89"
       y1="547.6"
       x2="407.94"
       x1="408.25"
       id="b-35">
      <stop
         id="stop2-62"
         offset="0"
         stop-color="#fff" />
      <stop
         id="stop4-9"
         offset="1"
         stop-color="#e6e6e6" />
    </linearGradient>
    <filter
       color-interpolation-filters="sRGB"
       height="1.1223"
       width="1.1178"
       y="-.061161"
       x="-.058883"
       id="d-1">
      <feGaussianBlur
         id="feGaussianBlur7-2"
         stdDeviation="10.562379" />
    </filter>
    <filter
       color-interpolation-filters="sRGB"
       height="1.072"
       width="1.072"
       y="-.036"
       x="-.036"
       id="c-7">
      <feGaussianBlur
         id="feGaussianBlur10-0"
         stdDeviation="0.88972449" />
    </filter>
    <linearGradient
       gradientUnits="userSpaceOnUse"
       y2="47.653"
       y1="16.349"
       x2="35.294"
       x1="35.294"
       id="e-93">
      <stop
         id="stop13-6"
         offset="0"
         stop-color="#2c2053" />
      <stop
         id="stop15-0"
         offset="1"
         stop-color="#3d2d73" />
    </linearGradient>
    <linearGradient
       gradientUnits="userSpaceOnUse"
       y2="47.652"
       y1="16.341"
       x2="20.913"
       x1="20.913"
       id="a-6">
      <stop
         id="stop18-2"
         offset="0"
         stop-color="#f4941e" />
      <stop
         id="stop20-6"
         offset="1"
         stop-color="#f4a138" />
    </linearGradient>
    <filter
       color-interpolation-filters="sRGB"
       height="1.135"
       width="1.108"
       y="-.067491"
       x="-.054006"
       id="f-1">
      <feGaussianBlur
         id="feGaussianBlur23-8"
         stdDeviation="0.88049503" />
    </filter>
    <linearGradient
       gradientUnits="userSpaceOnUse"
       gradientTransform="matrix(2.1429,0,0,2.1429,-826.36,-1107.5)"
       y2="517.8"
       y1="545.8"
       x2="399.57"
       x1="399.57"
       id="b-3">
      <stop
         id="stop2-6"
         offset="0"
         stop-color="#3889e9" />
      <stop
         id="stop4-7"
         offset="1"
         stop-color="#5ea5fb" />
    </linearGradient>
    <filter
       color-interpolation-filters="sRGB"
       height="1.072"
       width="1.072"
       y="-.036"
       x="-.036"
       id="c-5">
      <feGaussianBlur
         id="feGaussianBlur7-3"
         stdDeviation="0.41999874" />
    </filter>
    <linearGradient
       gradientUnits="userSpaceOnUse"
       y2="62.045"
       y1="2.043"
       x2="32.02"
       x1="32.02"
       id="a-5">
      <stop
         id="stop10"
         offset="0"
         stop-color="#1064d3" />
      <stop
         id="stop12"
         offset="1"
         stop-color="#14c6fd" />
    </linearGradient>
    <filter
       color-interpolation-filters="sRGB"
       height="1.12"
       width="1.12"
       y="-.06"
       x="-.06"
       id="f-6">
      <feGaussianBlur
         id="feGaussianBlur15"
         stdDeviation="1.2" />
    </filter>
    <filter
       color-interpolation-filters="sRGB"
       height="1.1126"
       width="1.1279"
       y="-.056323"
       x="-.063947"
       id="d-2">
      <feGaussianBlur
         id="feGaussianBlur18"
         stdDeviation="0.44883971" />
    </filter>
    <linearGradient
       gradientUnits="userSpaceOnUse"
       y2="35"
       y1="22.584"
       x2="24"
       x1="23.874"
       id="h">
      <stop
         id="stop21"
         offset="0"
         stop-color="#e0e8f8" />
      <stop
         id="stop23"
         offset="1"
         stop-color="#7f91b0" />
    </linearGradient>
    <filter
       color-interpolation-filters="sRGB"
       height="1.1113"
       width="1.1294"
       y="-.055656"
       x="-.064689"
       id="i">
      <feGaussianBlur
         id="feGaussianBlur26"
         stdDeviation="0.34393314" />
    </filter>
    <linearGradient
       gradientUnits="userSpaceOnUse"
       y2="36.134"
       y1="22.477"
       x2="21.872"
       x1="22.446"
       id="g">
      <stop
         id="stop29"
         offset="0"
         stop-color="#bdceef" />
      <stop
         id="stop31"
         offset="1"
         stop-color="#eaf0fa" />
    </linearGradient>
    <linearGradient
       gradientUnits="userSpaceOnUse"
       y2="35"
       y1="24"
       x2="27"
       x1="27"
       id="e-9">
      <stop
         id="stop34"
         offset="0"
         stop-color="#dbe4f6" />
      <stop
         id="stop36"
         offset="1"
         stop-color="#eaf0fa" />
    </linearGradient>
    <linearGradient
       id="linearGradient870"
       x1="7.9509"
       x2="8.0212"
       y1="283.43"
       y2="293.65"
       gradientTransform="matrix(0.85713,0,0,0.85713,1.2093,-238.85)"
       gradientUnits="userSpaceOnUse">
      <stop
         stop-color="#fff"
         offset="0"
         id="stop914" />
      <stop
         stop-color="#e4f0e9"
         offset="1"
         id="stop916" />
    </linearGradient>
    <linearGradient
       id="linearGradient899"
       x1="7.9373"
       x2="7.9373"
       y1="15.081"
       y2="1.852"
       gradientTransform="scale(3.7796)"
       gradientUnits="userSpaceOnUse">
      <stop
         stop-color="#daf6ed"
         offset="0"
         id="stop919" />
      <stop
         stop-color="#fbfffd"
         offset="1"
         id="stop921" />
    </linearGradient>
    <linearGradient
       id="linearGradient928"
       x1="8.1541"
       x2="8.1541"
       y1="14.402"
       y2="2.9364"
       gradientUnits="userSpaceOnUse">
      <stop
         stop-color="#39d38a"
         offset="0"
         id="stop924" />
      <stop
         stop-color="#0cded4"
         stop-opacity=".95294"
         offset="1"
         id="stop926" />
    </linearGradient>
    <linearGradient
       id="linearGradient862"
       x1="7.9373"
       x2="7.9373"
       y1="15.081"
       y2="1.852"
       gradientUnits="userSpaceOnUse">
      <stop
         stop-color="#2858e4"
         offset="0"
         id="stop970" />
      <stop
         stop-color="#5ab9f4"
         offset="1"
         id="stop972" />
    </linearGradient>
    <linearGradient
       id="linearGradient938"
       x1="80.368"
       x2="82.141"
       y1="13.177"
       y2="14.704"
       gradientTransform="matrix(.96154 0 0 .96154 -65.275 -1.6916)"
       gradientUnits="userSpaceOnUse">
      <stop
         stop-color="#fafafa"
         offset="0"
         id="stop4-3" />
      <stop
         stop-color="#90a0b3"
         offset="1"
         id="stop6" />
    </linearGradient>
    <filter
       id="filter1066"
       x="-.063923"
       y="-.056531"
       width="1.1278"
       height="1.1131"
       color-interpolation-filters="sRGB">
      <feGaussianBlur
         stdDeviation="0.22705935"
         id="feGaussianBlur9" />
    </filter>
    <filter
       id="filter1100"
       x="-.12197"
       y="-.11848"
       width="1.2439"
       height="1.237"
       color-interpolation-filters="sRGB">
      <feGaussianBlur
         stdDeviation="0.47586465"
         id="feGaussianBlur12" />
    </filter>
    <filter
       color-interpolation-filters="sRGB"
       height="1.054"
       width="1.054"
       y="-.027"
       x="-.027"
       id="filter861">
      <feGaussianBlur
         id="feGaussianBlur866"
         stdDeviation="0.16371" />
    </filter>
    <linearGradient
       gradientUnits="userSpaceOnUse"
       gradientTransform="matrix(0.99367,0.11225,-0.11225,0.99367,-28.365566,-11.171754)"
       y2="11.072"
       y1="6.4548"
       x2="54.456"
       x1="54.456"
       id="linearGradient1261">
      <stop
         id="stop869"
         offset="0"
         stop-color="#ffd700" />
      <stop
         id="stop871"
         offset="1"
         stop-color="#ffb300" />
    </linearGradient>
    <linearGradient
       y2="48.696"
       x2="34.781"
       y1="15.304"
       x1="34.781"
       gradientUnits="userSpaceOnUse"
       id="linearGradient1029"
       xlink:href="#e"
       inkscape:collect="always" />
    <linearGradient
       y2="48.696"
       x2="20.174"
       y1="15.297"
       x1="20.174"
       gradientUnits="userSpaceOnUse"
       id="linearGradient1031"
       xlink:href="#a"
       inkscape:collect="always" />
  </defs>
  <rect
     transform="matrix(3.779602,0,0,3.779602,-1.011042e-6,-1.011042e-6)"
     id="rect878"
     ry="3.4395001"
     height="14.552"
     width="14.552"
     y="1.1905"
     x="1.1905"
     style="opacity:0.3;stroke-width:0.083153;stroke-opacity:0.95294;filter:url(#filter861)" />
  <rect
     id="rect880"
     ry="12.999942"
     height="55.000767"
     width="55.000767"
     y="4.4996152"
     x="4.4996152"
     style="fill:#fafafa;stroke-width:0.314285;stroke-opacity:0.95294" />
  <g
     fill-rule="evenodd"
     stroke-width="1.3913"
     id="g1027"
     transform="translate(0.73168959)">
    <path
       d="m 27.826,15.297 v 0.0078 c -9.2494,0 -16.695,7.4459 -16.695,16.695 0,9.2491 7.4459,16.695 16.695,16.695 0.47304,0 0.92315,-0.04894 1.3906,-0.08789 -8.5871,-0.71235 -15.305,-7.8372 -15.305,-16.609 0,-8.7777 6.7176,-15.903 15.305,-16.609 -0.46748,-0.04313 -0.91758,-0.0918 -1.3906,-0.0918 z m 6.9512,0.0078 c -6.7565,0 -12.538,3.9858 -15.168,9.7383 h 30.342 0.0059 c -2.6304,-5.7525 -8.414,-9.7383 -15.174,-9.7383 h -0.0039 z m -16.143,12.521 c -0.23144,0.90166 -0.40018,1.8278 -0.47852,2.7832 h 0.01172 33.217 0.01953 c -0.07823,-0.95456 -0.23969,-1.8819 -0.4707,-2.7832 h -32.299 z m -0.47852,5.5645 c 0.07804,0.95541 0.24717,1.8815 0.47852,2.7832 h 32.297 c 0.2311,-0.90152 0.3946,-1.8282 0.47266,-2.7832 h -0.01953 -33.217 -0.01172 z m 1.4492,5.5664 c 2.629,5.7522 8.4118,9.7383 15.17,9.7383 h 0.0059 c 6.7617,0 12.547,-3.9861 15.176,-9.7383 h -0.0078 -30.344 z"
       filter="url(#f)"
       opacity="0.15"
       id="path1021" />
    <path
       d="m 34.777,15.304 c -6.7565,0 -12.538,3.9866 -15.168,9.7391 H 49.957 C 47.3266,19.2906 41.5433,15.304 34.783,15.304 H 34.7776 Z M 18.635,27.826 c -0.23144,0.90166 -0.39993,1.8272 -0.47826,2.7826 h 33.247 c -0.07823,-0.95456 -0.2391,-1.8813 -0.47011,-2.7826 h -32.299 z m -0.47826,5.5652 c 0.07804,0.95541 0.24692,1.8809 0.47826,2.7826 h 32.296 c 0.2311,-0.90152 0.39477,-1.8276 0.47282,-2.7826 h -33.247 z m 1.4483,5.5652 c 2.629,5.7522 8.4127,9.7391 15.171,9.7391 h 0.0054 c 6.7617,0 12.547,-3.9869 15.176,-9.7391 h -30.354 z"
       fill="url(#e)"
       id="path1023"
       style="fill:url(#linearGradient1029)" />
    <path
       d="m 27.826,15.304 c -9.2494,0 -16.696,7.4463 -16.696,16.696 0,9.2497 7.4463,16.696 16.696,16.696 0.47304,0 0.92383,-0.0487 1.3913,-0.08765 -8.5871,-0.71235 -15.304,-7.8372 -15.304,-16.609 0,-8.7777 6.7172,-15.903 15.304,-16.609 -0.46748,-0.04313 -0.91826,-0.09183 -1.3913,-0.09183"
       fill="url(#a)"
       id="path1025"
       style="fill:url(#linearGradient1031)" />
  </g>
</svg>
