<?xml version="1.0" encoding="UTF-8" standalone="no"?>
<svg
   xmlns:dc="http://purl.org/dc/elements/1.1/"
   xmlns:cc="http://creativecommons.org/ns#"
   xmlns:rdf="http://www.w3.org/1999/02/22-rdf-syntax-ns#"
   xmlns:svg="http://www.w3.org/2000/svg"
   xmlns="http://www.w3.org/2000/svg"
   xmlns:xlink="http://www.w3.org/1999/xlink"
   xmlns:sodipodi="http://sodipodi.sourceforge.net/DTD/sodipodi-0.dtd"
   xmlns:inkscape="http://www.inkscape.org/namespaces/inkscape"
   inkscape:version="1.0 (4035a4fb49, 2020-05-01)"
   sodipodi:docname="eclipse-cdt.svg"
   id="svg40"
   version="1.1"
   height="64"
   width="64">
  <metadata
     id="metadata44">
    <rdf:RDF>
      <cc:Work
         rdf:about="">
        <dc:format>image/svg+xml</dc:format>
        <dc:type
           rdf:resource="http://purl.org/dc/dcmitype/StillImage" />
        <dc:title></dc:title>
      </cc:Work>
    </rdf:RDF>
  </metadata>
  <sodipodi:namedview
     inkscape:current-layer="svg40"
     inkscape:window-maximized="1"
     inkscape:window-y="36"
     inkscape:window-x="0"
     inkscape:cy="37.500022"
     inkscape:cx="28.243855"
     inkscape:zoom="4.2150193"
     showgrid="false"
     id="namedview42"
     inkscape:window-height="932"
     inkscape:window-width="1920"
     inkscape:pageshadow="2"
     inkscape:pageopacity="0"
     guidetolerance="10"
     gridtolerance="10"
     objecttolerance="10"
     borderopacity="1"
     bordercolor="#666666"
     pagecolor="#ffffff" />
  <defs
     id="defs26">
    <linearGradient
       gradientUnits="userSpaceOnUse"
       gradientTransform="matrix(1.3276,0,0,1.3276,-435.75462,-663.52)"
       y2="498.89"
       y1="547.6"
       x2="407.94"
       x1="408.25"
       id="b">
      <stop
         id="stop2"
         offset="0"
         stop-color="#fff" />
      <stop
         id="stop4"
         offset="1"
         stop-color="#e6e6e6" />
    </linearGradient>
    <filter
       color-interpolation-filters="sRGB"
       height="1.1223"
       width="1.1178"
       y="-.061161"
       x="-.058883"
       id="d">
      <feGaussianBlur
         id="feGaussianBlur7"
         stdDeviation="10.562379" />
    </filter>
    <filter
       color-interpolation-filters="sRGB"
       height="1.072"
       width="1.072"
       y="-.036"
       x="-.036"
       id="c">
      <feGaussianBlur
         id="feGaussianBlur10"
         stdDeviation="0.88972449" />
    </filter>
    <linearGradient
       gradientUnits="userSpaceOnUse"
       y2="47.653"
       y1="16.349"
       x2="35.294"
       x1="35.294"
       id="e">
      <stop
         id="stop13"
         offset="0"
         stop-color="#2c2053" />
      <stop
         id="stop15"
         offset="1"
         stop-color="#3d2d73" />
    </linearGradient>
    <linearGradient
       gradientUnits="userSpaceOnUse"
       y2="47.652"
       y1="16.341"
       x2="20.913"
       x1="20.913"
       id="a">
      <stop
         id="stop18"
         offset="0"
         stop-color="#f4941e" />
      <stop
         id="stop20"
         offset="1"
         stop-color="#f4a138" />
    </linearGradient>
    <filter
       color-interpolation-filters="sRGB"
       height="1.135"
       width="1.108"
       y="-.067491"
       x="-.054006"
       id="f">
      <feGaussianBlur
         id="feGaussianBlur23"
         stdDeviation="0.88049503" />
    </filter>
    <linearGradient
       gradientUnits="userSpaceOnUse"
       gradientTransform="matrix(2.1429,0,0,2.1429,-826.36,-1107.5)"
       y2="517.8"
       y1="545.8"
       x2="399.57"
       x1="399.57"
       id="b-3">
      <stop
         id="stop2-6"
         offset="0"
         stop-color="#3889e9" />
      <stop
         id="stop4-7"
         offset="1"
         stop-color="#5ea5fb" />
    </linearGradient>
    <filter
       color-interpolation-filters="sRGB"
       height="1.072"
       width="1.072"
       y="-.036"
       x="-.036"
       id="c-5">
      <feGaussianBlur
         id="feGaussianBlur7-3"
         stdDeviation="0.41999874" />
    </filter>
    <linearGradient
       gradientUnits="userSpaceOnUse"
       y2="62.045"
       y1="2.043"
       x2="32.02"
       x1="32.02"
       id="a-5">
      <stop
         id="stop10"
         offset="0"
         stop-color="#1064d3" />
      <stop
         id="stop12"
         offset="1"
         stop-color="#14c6fd" />
    </linearGradient>
    <filter
       color-interpolation-filters="sRGB"
       height="1.12"
       width="1.12"
       y="-.06"
       x="-.06"
       id="f-6">
      <feGaussianBlur
         id="feGaussianBlur15"
         stdDeviation="1.2" />
    </filter>
    <filter
       color-interpolation-filters="sRGB"
       height="1.1126"
       width="1.1279"
       y="-.056323"
       x="-.063947"
       id="d-2">
      <feGaussianBlur
         id="feGaussianBlur18"
         stdDeviation="0.44883971" />
    </filter>
    <linearGradient
       gradientUnits="userSpaceOnUse"
       y2="35"
       y1="22.584"
       x2="24"
       x1="23.874"
       id="h">
      <stop
         id="stop21"
         offset="0"
         stop-color="#e0e8f8" />
      <stop
         id="stop23"
         offset="1"
         stop-color="#7f91b0" />
    </linearGradient>
    <filter
       color-interpolation-filters="sRGB"
       height="1.1113"
       width="1.1294"
       y="-.055656"
       x="-.064689"
       id="i">
      <feGaussianBlur
         id="feGaussianBlur26"
         stdDeviation="0.34393314" />
    </filter>
    <linearGradient
       gradientUnits="userSpaceOnUse"
       y2="36.134"
       y1="22.477"
       x2="21.872"
       x1="22.446"
       id="g">
      <stop
         id="stop29"
         offset="0"
         stop-color="#bdceef" />
      <stop
         id="stop31"
         offset="1"
         stop-color="#eaf0fa" />
    </linearGradient>
    <linearGradient
       gradientUnits="userSpaceOnUse"
       y2="35"
       y1="24"
       x2="27"
       x1="27"
       id="e-9">
      <stop
         id="stop34"
         offset="0"
         stop-color="#dbe4f6" />
      <stop
         id="stop36"
         offset="1"
         stop-color="#eaf0fa" />
    </linearGradient>
    <linearGradient
       id="linearGradient870"
       x1="7.9509"
       x2="8.0212"
       y1="283.43"
       y2="293.65"
       gradientTransform="matrix(0.85713,0,0,0.85713,1.2093,-238.85)"
       gradientUnits="userSpaceOnUse">
      <stop
         stop-color="#fff"
         offset="0"
         id="stop914" />
      <stop
         stop-color="#e4f0e9"
         offset="1"
         id="stop916" />
    </linearGradient>
    <linearGradient
       id="linearGradient899"
       x1="7.9373"
       x2="7.9373"
       y1="15.081"
       y2="1.852"
       gradientTransform="scale(3.7796)"
       gradientUnits="userSpaceOnUse">
      <stop
         stop-color="#daf6ed"
         offset="0"
         id="stop919" />
      <stop
         stop-color="#fbfffd"
         offset="1"
         id="stop921" />
    </linearGradient>
    <linearGradient
       id="linearGradient928"
       x1="8.1541"
       x2="8.1541"
       y1="14.402"
       y2="2.9364"
       gradientUnits="userSpaceOnUse">
      <stop
         stop-color="#39d38a"
         offset="0"
         id="stop924" />
      <stop
         stop-color="#0cded4"
         stop-opacity=".95294"
         offset="1"
         id="stop926" />
    </linearGradient>
    <linearGradient
       id="linearGradient862"
       x1="7.9373"
       x2="7.9373"
       y1="15.081"
       y2="1.852"
       gradientUnits="userSpaceOnUse">
      <stop
         stop-color="#2858e4"
         offset="0"
         id="stop970" />
      <stop
         stop-color="#5ab9f4"
         offset="1"
         id="stop972" />
    </linearGradient>
    <linearGradient
       id="linearGradient938"
       x1="80.368"
       x2="82.141"
       y1="13.177"
       y2="14.704"
       gradientTransform="matrix(.96154 0 0 .96154 -65.275 -1.6916)"
       gradientUnits="userSpaceOnUse">
      <stop
         stop-color="#fafafa"
         offset="0"
         id="stop4-3" />
      <stop
         stop-color="#90a0b3"
         offset="1"
         id="stop6" />
    </linearGradient>
    <filter
       id="filter1066"
       x="-.063923"
       y="-.056531"
       width="1.1278"
       height="1.1131"
       color-interpolation-filters="sRGB">
      <feGaussianBlur
         stdDeviation="0.22705935"
         id="feGaussianBlur9" />
    </filter>
    <filter
       id="filter1100"
       x="-.12197"
       y="-.11848"
       width="1.2439"
       height="1.237"
       color-interpolation-filters="sRGB">
      <feGaussianBlur
         stdDeviation="0.47586465"
         id="feGaussianBlur12" />
    </filter>
    <filter
       color-interpolation-filters="sRGB"
       height="1.054"
       width="1.054"
       y="-.027"
       x="-.027"
       id="filter861">
      <feGaussianBlur
         id="feGaussianBlur866"
         stdDeviation="0.16371" />
    </filter>
    <linearGradient
       gradientUnits="userSpaceOnUse"
       gradientTransform="matrix(0.99367,0.11225,-0.11225,0.99367,-28.365566,-11.171754)"
       y2="11.072"
       y1="6.4548"
       x2="54.456"
       x1="54.456"
       id="linearGradient1261">
      <stop
         id="stop869"
         offset="0"
         stop-color="#ffd700" />
      <stop
         id="stop871"
         offset="1"
         stop-color="#ffb300" />
    </linearGradient>
    <linearGradient
       y2="47.652"
       x2="20.913"
       y1="16.341"
       x1="20.913"
       gradientUnits="userSpaceOnUse"
       id="linearGradient1031"
       xlink:href="#a"
       inkscape:collect="always" />
    <linearGradient
       y2="47.653"
       x2="35.294"
       y1="16.349"
       x1="35.294"
       gradientUnits="userSpaceOnUse"
       id="linearGradient1033"
       xlink:href="#e"
       inkscape:collect="always" />
  </defs>
  <rect
     style="opacity:0.3;stroke-width:0.083153;stroke-opacity:0.95294;filter:url(#filter861)"
     x="1.1905"
     y="1.1905"
     width="14.552"
     height="14.552"
     ry="3.4395001"
     id="rect878"
     transform="matrix(3.779602,0,0,3.779602,-1.011042e-6,-1.011042e-6)" />
  <rect
     style="fill:#fafafa;stroke-width:0.314285;stroke-opacity:0.95294"
     x="4.4996152"
     y="4.4996152"
     width="55.000767"
     height="55.000767"
     ry="12.999942"
     id="rect880" />
  <g
     stroke-width="1.3043"
     id="g1029"
     transform="translate(-9.6046184e-5)">
    <path
       d="m 28.088,16.342 v 0.0059 c -8.6713,0 -15.652,6.981 -15.652,15.652 0,8.671 6.981,15.652 15.652,15.652 0.44348,0 0.86447,-0.04551 1.3027,-0.08203 -8.0504,-0.66782 -14.348,-7.3484 -14.348,-15.572 0,-8.2291 6.2972,-14.908 14.348,-15.57 -0.43826,-0.04043 -0.85926,-0.08594 -1.3027,-0.08594 z m 6.2988,0.0078 c -1.5683,0.02203 -3.1235,0.28102 -4.6152,0.76562 -5.0875,1.6543 -8.9791,5.7928 -10.316,10.973 h 5.4883 c 1.5934,-3.9391 5.4168,-6.5202 9.666,-6.5234 3.3381,0.0046 6.4717,1.6066 8.4316,4.3086 l 4.2305,-3.0723 c -2.9913,-4.117 -7.7964,-6.5236 -12.885,-6.4512 z m 0.25976,7.8242 c -0.79889,0.01109 -1.5918,0.14062 -2.3516,0.38281 -1.8711,0.60008 -3.4488,1.858 -4.4316,3.5312 h 6.7461 c 1.2949,0 2.5049,0.64162 3.2324,1.7129 l 3.3711,-2.4023 c -1.524,-2.058 -3.9739,-3.2601 -6.5664,-3.2246 z m -15.463,5.2168 c -0.07003,0.43242 -0.12078,0.86793 -0.1543,1.3047 h 5.2363 c 0.05712,-0.43975 0.14332,-0.87576 0.25586,-1.3047 h -5.3379 z m 8.0605,0 c -0.15351,0.4242 -0.26867,0.86094 -0.3457,1.3047 h 4.0273 c 0.1706,-0.48113 0.43268,-0.92459 0.77344,-1.3047 H 27.244 Z m 13.887,0 v 1.3047 h -1.3047 v 2.6094 h 1.3047 v 1.3047 h 2.6074 v -1.3047 h 1.3047 v -2.6094 h -1.3047 v -1.3047 z m 6.5215,0 v 1.3047 h -1.3047 v 2.6094 h 1.3047 v 1.3047 h 2.6094 v -1.3047 h 1.3027 v -2.6094 h -1.3027 v -1.3047 z m -28.629,3.9141 c 0.0386,0.43698 0.09477,0.87249 0.16992,1.3047 h 5.3203 c -0.10912,-0.42916 -0.19233,-0.86516 -0.24609,-1.3047 h -5.2441 z m 7.8789,0 c 0.07704,0.44375 0.19221,0.88049 0.3457,1.3047 h 4.4512 c -0.34167,-0.37989 -0.60599,-0.82334 -0.77734,-1.3047 h -4.0195 z m 10.941,0.89648 c -0.72863,1.071 -1.939,1.7109 -3.2344,1.7109 h -6.752 c 0.98414,1.6741 2.5646,2.9323 4.4375,3.5312 3.286,1.0467 6.8871,-0.09971 8.918,-2.8418 l -3.3691,-2.4004 z m -18.369,1.7109 c 1.334,5.1757 5.2163,9.3133 10.297,10.973 6.4497,2.0963 13.516,-0.19869 17.502,-5.6855 l -4.2305,-3.0723 c -1.9604,2.7027 -5.0946,4.3049 -8.4336,4.3086 -4.2501,-0.0022 -8.0742,-2.5835 -9.668,-6.5234 h -5.4668 z"
       fill-rule="evenodd"
       filter="url(#f)"
       opacity="0.15"
       id="path1023" />
    <path
       d="m 28.087,16.348 c -8.6713,0 -15.652,6.9809 -15.652,15.652 0,8.6711 6.9809,15.652 15.652,15.652 0.44348,0 0.86609,-0.04565 1.3043,-0.08217 -8.0504,-0.66783 -14.348,-7.3474 -14.348,-15.571 0,-8.2291 6.2974,-14.909 14.348,-15.571 -0.43826,-0.04043 -0.86087,-0.08609 -1.3043,-0.08609"
       fill="url(#a)"
       fill-rule="evenodd"
       id="path1025"
       style="fill:url(#linearGradient1031)" />
    <path
       d="m 34.387,16.35 c -1.5683,0.02203 -3.1244,0.27966 -4.6162,0.76427 -5.0875,1.6543 -8.9777,5.7925 -10.315,10.972 h 5.4874 c 1.5934,-3.9391 5.4163,-6.5185 9.6655,-6.5217 3.3381,0.0046 6.4724,1.6059 8.4323,4.3079 l 4.2314,-3.0724 c -2.9913,-4.117 -7.7971,-6.5228 -12.886,-6.4504 z m 0.25985,7.8235 c -0.79889,0.01109 -1.5916,0.13994 -2.3513,0.38214 -1.8711,0.60008 -3.4499,1.8577 -4.4327,3.5309 h 6.746 c 1.2949,0 2.5053,0.64329 3.2328,1.7146 l 3.3704,-2.4023 c -1.524,-2.058 -3.9725,-3.2607 -6.565,-3.2253 z m -15.463,5.2174 c -0.07003,0.43242 -0.12188,0.86759 -0.1554,1.3043 h 5.2377 c 0.05712,-0.43975 0.14221,-0.87543 0.25475,-1.3043 z m 8.0605,0 c -0.15351,0.4242 -0.26943,0.8606 -0.34646,1.3043 h 4.0277 c 0.1706,-0.48114 0.4337,-0.92425 0.77446,-1.3043 z m 13.886,0 v 1.3043 h -1.3043 v 2.6087 h 1.3043 v 1.3043 h 2.6087 v -1.3043 h 1.3043 v -2.6087 h -1.3043 v -1.3043 z m 6.5217,0 v 1.3043 h -1.3043 v 2.6087 h 1.3043 v 1.3043 h 2.6087 v -1.3043 h 1.3043 v -2.6087 h -1.3043 v -1.3043 z m -28.629,3.913 c 0.0386,0.43698 0.09554,0.87215 0.17069,1.3043 h 5.3193 c -0.10912,-0.42916 -0.1908,-0.86482 -0.24457,-1.3043 z m 7.8796,0 c 0.07704,0.44375 0.19296,0.88015 0.34646,1.3043 h 4.4506 c -0.34167,-0.37989 -0.60565,-0.823 -0.777,-1.3043 z m 10.942,0.89674 c -0.72863,1.071 -1.9401,1.712 -3.2354,1.712 h -6.751 c 0.98414,1.6741 2.5649,2.9319 4.4378,3.5309 3.286,1.0467 6.8855,-0.101 8.9164,-2.8431 z m -18.37,1.712 c 1.334,5.1757 5.2166,9.3129 10.297,10.972 6.4497,2.0963 13.516,-0.19932 17.502,-5.6862 l -4.229,-3.0724 c -1.9604,2.7027 -5.096,4.3042 -8.435,4.3079 -4.2501,-0.0022 -8.0742,-2.5818 -9.668,-6.5217 z"
       fill="url(#e)"
       style="fill:url(#linearGradient1033);paint-order:normal"
       id="path1027" />
  </g>
</svg>
