<?xml version="1.0" encoding="UTF-8"?>
<svg width="64" height="64" version="1.1" viewBox="0 0 64 64" xmlns="http://www.w3.org/2000/svg" xmlns:cc="http://creativecommons.org/ns#" xmlns:dc="http://purl.org/dc/elements/1.1/" xmlns:rdf="http://www.w3.org/1999/02/22-rdf-syntax-ns#" xmlns:xlink="http://www.w3.org/1999/xlink">
 <metadata>
  <rdf:RDF>
   <cc:Work rdf:about="">
    <dc:format>image/svg+xml</dc:format>
    <dc:type rdf:resource="http://purl.org/dc/dcmitype/StillImage"/>
    <dc:title/>
   </cc:Work>
  </rdf:RDF>
 </metadata>
 <defs>
  <linearGradient id="i" x1="400.4" x2="400.4" y1="545.62" y2="517.62" gradientTransform="matrix(1.5862 0 0 1.5862 -663.97 -661.98)" gradientUnits="userSpaceOnUse">
   <stop stop-color="#d3d3d3" offset="0"/>
   <stop stop-color="#fcf9f9" offset="1"/>
  </linearGradient>
  <linearGradient id="f" x1="400.4" x2="400.4" y1="545.62" y2="517.62" gradientTransform="matrix(1.6382 0 0 1.6382 -738.62 -667.5)" gradientUnits="userSpaceOnUse">
   <stop stop-color="#8d3aff" offset="0"/>
   <stop stop-color="#ff3680" offset="1"/>
  </linearGradient>
  <linearGradient id="i-1" x1="400.4" x2="400.4" y1="545.62" y2="517.62" gradientTransform="matrix(1.5862 0 0 1.5862 -622.23 -769.22)" gradientUnits="userSpaceOnUse">
   <stop stop-color="#d3d3d3" offset="0"/>
   <stop stop-color="#fcf9f9" offset="1"/>
  </linearGradient>
  <linearGradient id="f-2" x1="400.4" x2="400.4" y1="545.62" y2="517.62" gradientTransform="matrix(1.6382 0 0 1.6382 -696.86 -774.73)" gradientUnits="userSpaceOnUse">
   <stop stop-color="#8d3aff" offset="0"/>
   <stop stop-color="#ff3680" offset="1"/>
  </linearGradient>
  <linearGradient id="i-3" x1="400.4" x2="400.4" y1="545.62" y2="517.62" gradientTransform="matrix(1.5862 0 0 1.5862 -691.63 -638.52)" gradientUnits="userSpaceOnUse">
   <stop stop-color="#d3d3d3" offset="0"/>
   <stop stop-color="#fcf9f9" offset="1"/>
  </linearGradient>
  <linearGradient id="f-6" x1="400.4" x2="400.4" y1="545.62" y2="517.62" gradientTransform="matrix(1.6382 0 0 1.6382 -766.28 -644.04)" gradientUnits="userSpaceOnUse">
   <stop stop-color="#8d3aff" offset="0"/>
   <stop stop-color="#ff3680" offset="1"/>
  </linearGradient>
  <radialGradient id="c" cx="190.1" cy="88.003" r="30" gradientTransform="matrix(.25557 -.06848 .095871 .3578 -45.652 280.8)" gradientUnits="userSpaceOnUse" xlink:href="#a"/>
  <linearGradient id="a">
   <stop stop-color="#646464" offset="0"/>
   <stop offset="1"/>
  </linearGradient>
  <radialGradient id="b" cx="190.1" cy="88.003" r="30" gradientTransform="matrix(.25557 -.06848 -.095871 -.3578 -34.53 322.31)" gradientUnits="userSpaceOnUse" xlink:href="#a"/>
 </defs>
 <g fill="#5e4aa6">
  <circle cx="-1339.9" cy="-1226.1" r="0"/>
  <circle cx="-1271" cy="-1218" r="0"/>
  <circle cx="-1248" cy="-1243.8" r="0"/>
  <circle cx="-1258.6" cy="-1217.1" r="0"/>
 </g>
 <circle cx="-28.602" cy="181.57" r="0" fill="url(#i)" image-rendering="optimizeSpeed"/>
 <circle cx="-82.392" cy="203.73" r="0" fill="none" image-rendering="optimizeSpeed" stroke="url(#f)" stroke-width="2.1297"/>
 <circle cx="13.16" cy="74.323" r="0" fill="url(#i-1)" image-rendering="optimizeSpeed"/>
 <circle cx="-40.632" cy="96.479" r="0" fill="none" image-rendering="optimizeSpeed" stroke="url(#f-2)" stroke-width="2.1297"/>
 <g fill="#5e4aa6">
  <circle cx="-1367.6" cy="-1202.6" r="0" image-rendering="optimizeSpeed"/>
  <circle cx="-1298.6" cy="-1194.6" r="0" image-rendering="optimizeSpeed"/>
  <circle cx="-1275.6" cy="-1220.4" r="0" image-rendering="optimizeSpeed"/>
  <circle cx="-1286.3" cy="-1193.7" r="0" image-rendering="optimizeSpeed"/>
 </g>
 <circle cx="-56.262" cy="205.03" r="0" fill="url(#i-3)" image-rendering="optimizeSpeed"/>
 <circle cx="-110.05" cy="227.19" r="0" fill="none" image-rendering="optimizeSpeed" stroke="url(#f-6)" stroke-width="2.1297"/>
 <circle cx="-1248.7" cy="-1241.7" r="0" fill="#5e4aa6"/>
 <circle cx="-149.15" cy="23.842" r="0" fill="#5e4aa6" fill-rule="evenodd"/>
 <path d="M 32,1.999 A 30.001,30.001 0 0 0 1.999,32 30.001,30.001 0 0 0 32,62.001 30.001,30.001 0 0 0 62.001,32 30.001,30.001 0 0 0 32,1.999 Z M 32,22 A 10,10 0 0 1 42,32 10,10 0 0 1 32,42 10,10 0 0 1 22,32 10,10 0 0 1 32,22 Z" stroke-width="1.8898"/>
 <g transform="matrix(3.6508 -.97823 .97823 3.6508 -281.26 -1013.1)" stroke-width=".5">
  <path d="m0.8257 290.59a7.9375 7.9375 0 0 0 9.7211 5.6117 7.9375 7.9375 0 0 0 5.6129-9.7204l-5.1114 1.3696a2.6458 2.6458 0 0 1-1.8712 3.2395 2.6458 2.6458 0 0 1-3.2402-1.8699z" fill="url(#c)"/>
  <path d="m0.82623 290.59a7.9375 7.9375 0 0 1 5.6129-9.7204 7.9375 7.9375 0 0 1 9.7211 5.6117l-5.1114 1.3696a2.6458 2.6458 0 0 0-3.2402-1.8699 2.6458 2.6458 0 0 0-1.8712 3.2395z" fill="url(#b)"/>
 </g>
 <path d="m32 7.827c-13.35 0-24.173 10.823-24.173 24.173s10.823 24.173 24.173 24.173 24.173-10.823 24.173-24.173-10.823-24.173-24.173-24.173zm0 1.7266c12.397 0 22.446 10.049 22.446 22.446s-10.049 22.446-22.446 22.446-22.446-10.049-22.446-22.446 10.049-22.446 22.446-22.446zm0 1.7266c-11.442 0-20.72 9.2772-20.72 20.72s9.2772 20.72 20.72 20.72 20.72-9.2772 20.72-20.72-9.2772-20.72-20.72-20.72zm0 1.7266c10.489 0 18.993 8.5037 18.993 18.993s-8.5037 18.993-18.993 18.993-18.993-8.5037-18.993-18.993 8.5037-18.993 18.993-18.993zm0 1.7266c-9.5362 0-17.266 7.7302-17.266 17.266s7.7302 17.266 17.266 17.266 17.266-7.7302 17.266-17.266-7.7302-17.266-17.266-17.266zm0 1.7266c8.5831 0 15.54 6.9584 15.54 15.54 0 8.5831-6.9584 15.54-15.54 15.54-8.5831 0-15.54-6.9584-15.54-15.54 0-8.5831 6.9584-15.54 15.54-15.54zm0 1.7266c-7.6283 0-13.813 6.1848-13.813 13.813s6.1848 13.813 13.813 13.813 13.813-6.1848 13.813-13.813-6.1848-13.813-13.813-13.813zm0 1.7266c6.6752 0 12.086 5.4113 12.086 12.086s-5.4113 12.086-12.086 12.086-12.086-5.4113-12.086-12.086 5.4113-12.086 12.086-12.086zm0 1.7266c-5.7221 0-10.36 4.6378-10.36 10.36s4.6378 10.36 10.36 10.36 10.36-4.6378 10.36-10.36-4.6378-10.36-10.36-10.36z" fill="#3d4147" opacity=".5"/>
 <g transform="matrix(3.7796 0 0 3.7796 -.10052 -1116.8)">
  <circle cx="8.4931" cy="303.94" r="2.6457" fill="#ff9b14" style="paint-order:normal"/>
  <circle cx="8.4931" cy="303.94" r=".52917" fill="#fff" fill-rule="evenodd" stroke-width=".26458"/>
 </g>
</svg>
