<?xml version="1.0" encoding="UTF-8"?>
<svg width="64" height="64" version="1.1" xmlns="http://www.w3.org/2000/svg" xmlns:cc="http://creativecommons.org/ns#" xmlns:dc="http://purl.org/dc/elements/1.1/" xmlns:rdf="http://www.w3.org/1999/02/22-rdf-syntax-ns#">
 <metadata>
  <rdf:RDF>
   <cc:Work rdf:about="">
    <dc:format>image/svg+xml</dc:format>
    <dc:type rdf:resource="http://purl.org/dc/dcmitype/StillImage"/>
    <dc:title/>
   </cc:Work>
  </rdf:RDF>
 </metadata>
 <defs>
  <linearGradient id="i" x1="400.4" x2="400.4" y1="545.62" y2="517.62" gradientTransform="matrix(1.5862 0 0 1.5862 -545.86 -680.96)" gradientUnits="userSpaceOnUse">
   <stop stop-color="#d3d3d3" offset="0"/>
   <stop stop-color="#fcf9f9" offset="1"/>
  </linearGradient>
  <linearGradient id="f" x1="400.4" x2="400.4" y1="545.62" y2="517.62" gradientTransform="matrix(1.6382 0 0 1.6382 -620.51 -686.48)" gradientUnits="userSpaceOnUse">
   <stop stop-color="#8d3aff" offset="0"/>
   <stop stop-color="#ff3680" offset="1"/>
  </linearGradient>
  <style type="text/css"/>
  <style type="text/css"/>
 </defs>
 <path d="m62 32c0 3.5964-0.63304 7.0445-1.7939 10.24-0.80696 2.2212-1.8685 4.3211-3.1519 6.2636-0.53755 0.81668-1.1155 1.6054-1.729 2.3634-1.9641 2.4256-4.2981 4.538-6.9184 6.2525-0.96492 0.63185-1.9678 1.2098-3.0061 1.7277-4.032 2.0179-8.5838 3.153-13.401 3.153-4.817 0-9.3688-1.1351-13.401-3.1531-1.0384-0.518-2.0425-1.0959-3.0074-1.7277-2.6535-1.7376-5.0155-3.8831-6.9955-6.3489-0.61465-0.76408-1.1915-1.56-1.729-2.3841-1.249-1.9102-2.2836-3.9711-3.0746-6.1494-1.1607-3.1947-1.7927-6.6417-1.7927-10.237 0-16.569 13.431-30 30-30 8.3169 0 15.842 3.3845 21.277 8.8505 1.5661 1.5746 2.9585 3.3234 4.1434 5.2138 1.1205 1.7805 2.0571 3.6882 2.7857 5.695 1.1611 3.1959 1.794 6.6442 1.794 10.24z" fill="#f75314" image-rendering="optimizeSpeed" stroke-width=".11719"/>
 <g transform="translate(109.29 -7.3225)" fill="#5e4aa6" image-rendering="optimizeSpeed">
  <circle cx="-1331.1" cy="-1237.8" r="0"/>
  <circle cx="-1262.2" cy="-1229.7" r="0"/>
  <circle cx="-1239.2" cy="-1255.5" r="0"/>
  <circle cx="-1249.8" cy="-1228.8" r="0"/>
 </g>
 <circle cx="89.505" cy="162.59" r="0" fill="url(#i)" image-rendering="optimizeSpeed"/>
 <circle cx="35.716" cy="184.75" r="0" fill="none" image-rendering="optimizeSpeed" stroke="url(#f)" stroke-width="2.1297"/>
 <path d="m42.899 16.425 1.9444 5.2401s-17.58-0.75351-18.927 4.3529c-1.5923 6.0393 14.682-1.2434 21.141 4.3506 6.4558 5.5945-0.88722 13.767-10.349 15.807-9.4636 2.0449-15.836 1.246-15.836 1.246l-1.9421-6.1301s6.1869 1.2437 13.353-0.44018c7.1642-1.6907 9.7305-5.6871 2.2123-5.2403-7.5171 0.44044-19.815 2.2151-19.993-5.3286-0.17379-7.5506 7.2581-13.946 28.396-13.858z" fill="#fff" stroke-width=".049552" p-id="29696"/>
</svg>
