<?xml version="1.0" encoding="UTF-8" standalone="no"?>
<svg
   xmlns:dc="http://purl.org/dc/elements/1.1/"
   xmlns:cc="http://creativecommons.org/ns#"
   xmlns:rdf="http://www.w3.org/1999/02/22-rdf-syntax-ns#"
   xmlns:svg="http://www.w3.org/2000/svg"
   xmlns="http://www.w3.org/2000/svg"
   xmlns:xlink="http://www.w3.org/1999/xlink"
   xmlns:sodipodi="http://sodipodi.sourceforge.net/DTD/sodipodi-0.dtd"
   xmlns:inkscape="http://www.inkscape.org/namespaces/inkscape"
   width="64"
   height="64"
   version="1.1"
   id="svg34"
   sodipodi:docname="fcitx.svg"
   inkscape:version="0.92.5 (6c0c36ef5a, 2020-05-15, custom)">
  <sodipodi:namedview
     pagecolor="#ffffff"
     bordercolor="#666666"
     borderopacity="1"
     objecttolerance="10"
     gridtolerance="10"
     guidetolerance="10"
     inkscape:pageopacity="0"
     inkscape:pageshadow="2"
     inkscape:window-width="1920"
     inkscape:window-height="954"
     id="namedview36"
     showgrid="true"
     inkscape:snap-bbox="true"
     inkscape:bbox-nodes="true"
     inkscape:snap-bbox-edge-midpoints="true"
     inkscape:zoom="3.6875"
     inkscape:cx="30.727743"
     inkscape:cy="46.863298"
     inkscape:window-x="0"
     inkscape:window-y="36"
     inkscape:window-maximized="1"
     inkscape:current-layer="svg34"
     inkscape:object-nodes="true"
     inkscape:snap-nodes="false">
    <inkscape:grid
       type="xygrid"
       id="grid862" />
  </sodipodi:namedview>
  <metadata
     id="metadata2">
    <rdf:RDF>
      <cc:Work
         rdf:about="">
        <dc:format>image/svg+xml</dc:format>
        <dc:type
           rdf:resource="http://purl.org/dc/dcmitype/StillImage" />
        <dc:title></dc:title>
      </cc:Work>
    </rdf:RDF>
  </metadata>
  <defs
     id="defs22">
    <linearGradient
       inkscape:collect="always"
       id="linearGradient900">
      <stop
         style="stop-color:#322319;stop-opacity:1"
         offset="0"
         id="stop896" />
      <stop
         id="stop904"
         offset="0.07673336"
         style="stop-color:#5a4b41;stop-opacity:1" />
      <stop
         style="stop-color:#b9b9aa;stop-opacity:1"
         offset="0.15604413"
         id="stop906" />
      <stop
         id="stop908"
         offset="0.92868453"
         style="stop-color:#beb9aa;stop-opacity:1" />
      <stop
         style="stop-color:#694b41;stop-opacity:1"
         offset="1"
         id="stop898" />
    </linearGradient>
    <linearGradient
       inkscape:collect="always"
       id="linearGradient878">
      <stop
         style="stop-color:#a04646;stop-opacity:1"
         offset="0"
         id="stop874" />
      <stop
         style="stop-color:#914141;stop-opacity:1"
         offset="1"
         id="stop876" />
    </linearGradient>
    <linearGradient
       gradientUnits="userSpaceOnUse"
       gradientTransform="matrix(3.4646 0 0 3.4646 2.6663 2.6663)"
       y2="2.6458"
       y1="16.404"
       x2="3.9687"
       x1="3.9687"
       id="linearGradient872">
      <stop
         id="stop868"
         offset="0"
         stop-color="#dcdcdc"
         style="stop-color:#71202a;stop-opacity:1" />
      <stop
         id="stop870"
         offset="1"
         stop-color="#f0f0f0"
         style="stop-color:#a14441;stop-opacity:1" />
    </linearGradient>
    <style
       type="text/css"
       id="style4" />
    <style
       type="text/css"
       id="style6" />
    <style
       type="text/css"
       id="style8" />
    <style
       type="text/css"
       id="style10" />
    <style
       type="text/css"
       id="style12" />
    <linearGradient
       id="linearGradient1448"
       x1="3.9687"
       x2="3.9687"
       y1="16.404"
       y2="2.6458"
       gradientTransform="matrix(3.4646,0,0,3.4646,2.6663,-93.358719)"
       gradientUnits="userSpaceOnUse">
      <stop
         stop-color="#dcdcdc"
         offset="0"
         id="stop14" />
      <stop
         stop-color="#f0f0f0"
         offset="1"
         id="stop16" />
    </linearGradient>
    <filter
       id="filter861"
       x="-.027"
       y="-.027"
       width="1.054"
       height="1.054"
       color-interpolation-filters="sRGB">
      <feGaussianBlur
         stdDeviation="0.16371"
         id="feGaussianBlur19" />
    </filter>
    <linearGradient
       inkscape:collect="always"
       xlink:href="#linearGradient878"
       id="linearGradient880"
       x1="150"
       y1="9"
       x2="150"
       y2="50.983051"
       gradientUnits="userSpaceOnUse"
       gradientTransform="translate(-130.50097,0.4990235)" />
    <linearGradient
       inkscape:collect="always"
       xlink:href="#linearGradient900"
       id="linearGradient902"
       x1="136.00101"
       y1="30.499996"
       x2="188.99999"
       y2="30.499996"
       gradientUnits="userSpaceOnUse"
       gradientTransform="translate(-130.50097,0.4990235)" />
  </defs>
  <style
     type="text/css"
     id="style24">.st0{opacity:0.15;fill:#45413C;}
	.st1{fill:#FFE500;}
	.st2{fill:#EBCB00;}
	.st3{fill:none;stroke:#45413C;stroke-linecap:round;stroke-linejoin:round;stroke-miterlimit:10;}
	.st4{fill:#FFAA54;}
	.st5{fill:#FF8A14;}
	.st6{fill:#FFB0CA;stroke:#45413C;stroke-linecap:round;stroke-linejoin:round;stroke-miterlimit:10;}
	.st7{fill:#FF87AF;stroke:#45413C;stroke-linecap:round;stroke-linejoin:round;stroke-miterlimit:10;}
	.st8{fill:#FFCC99;}
	.st9{fill:#FFFFFF;}
	.st10{fill:#F0F0F0;}
	.st11{fill:#BF8256;}
	.st12{fill:#915E3A;}
	.st13{fill:#DEA47A;}
	.st14{fill:#F0D5A8;}
	.st15{fill:#DEBB7E;}
	.st16{fill:#F7E5C6;}
	.st17{fill:#FF8A14;stroke:#45413C;stroke-linecap:round;stroke-linejoin:round;stroke-miterlimit:10;}
	.st18{fill:#FFF5E3;}
	.st19{fill:#FFF48C;}
	.st20{fill:#FFFACF;}
	.st21{fill:#FFFCE5;}
	.st22{fill:#FF87AF;}
	.st23{fill:#FFB0CA;}
	.st24{fill:#FFE500;stroke:#45413C;stroke-linecap:round;stroke-linejoin:round;stroke-miterlimit:10;}
	.st25{fill:#9CEB60;stroke:#45413C;stroke-linecap:round;stroke-linejoin:round;stroke-miterlimit:10;}
	.st26{fill:#FFFACF;stroke:#45413C;stroke-linecap:round;stroke-linejoin:round;stroke-miterlimit:10;}
	.st27{fill:#00F5BC;stroke:#45413C;stroke-linecap:round;stroke-linejoin:round;stroke-miterlimit:10;}
	.st28{fill:#BF8256;stroke:#45413C;stroke-linecap:round;stroke-linejoin:round;stroke-miterlimit:10;}
	.st29{fill:#FFE3CF;stroke:#45413C;stroke-linecap:round;stroke-linejoin:round;stroke-miterlimit:10;}
	.st30{fill:#FF6242;}
	.st31{fill:#FF866E;}
	.st32{fill:none;stroke:#E04122;stroke-linecap:round;stroke-linejoin:round;stroke-miterlimit:10;}
	.st33{fill:#FFFEF2;stroke:#45413C;stroke-linecap:round;stroke-linejoin:round;stroke-miterlimit:10;}
	.st34{fill:#FF6242;stroke:#45413C;stroke-linecap:round;stroke-linejoin:round;stroke-miterlimit:10;}
	.st35{fill:#FFA694;}
	.st36{fill:#FFFFFF;stroke:#45413C;stroke-linecap:round;stroke-linejoin:round;stroke-miterlimit:10;}
	.st37{fill:#FFFEF2;}
	.st38{fill:#FF6196;}
	.st39{fill:#B89558;}
	.st40{fill:none;stroke:#915E3A;stroke-linecap:round;stroke-linejoin:round;stroke-miterlimit:10;}
	.st41{fill:#DEBB7E;stroke:#45413C;stroke-linecap:round;stroke-linejoin:round;stroke-miterlimit:10;}
	.st42{fill:#6DD627;stroke:#45413C;stroke-linecap:round;stroke-linejoin:round;stroke-miterlimit:10;}
	.st43{fill:#E5F8FF;}
	.st44{fill:#E8F4FA;}
	.st45{fill:#E8F4FA;stroke:#45413C;stroke-linecap:round;stroke-linejoin:round;stroke-miterlimit:10;}
	.st46{fill:#FFCCDD;}
	.st47{fill:#E5F8FF;stroke:#45413C;stroke-linecap:round;stroke-linejoin:round;stroke-miterlimit:10;}
	.st48{fill:#00B8F0;stroke:#45413C;stroke-linecap:round;stroke-linejoin:round;stroke-miterlimit:10;}
	.st49{fill:#00B8F0;}
	.st50{fill:#4ACFFF;}
	.st51{fill:#E04122;}
	.st52{fill:#E04122;stroke:#45413C;stroke-linecap:round;stroke-linejoin:round;stroke-miterlimit:10;}
	.st53{fill:#87898C;}
	.st54{fill:#BDBEC0;}
	.st55{fill:#656769;}
	.st56{fill:#525252;}
	.st57{fill:#FFF48C;stroke:#45413C;stroke-linecap:round;stroke-linejoin:round;stroke-miterlimit:10;}
	.st58{fill:#6DD627;}
	.st59{fill:#EB6D00;}
	.st60{fill:#46B000;}
	.st61{fill:#80DDFF;}
	.st62{fill:#DAEDF7;}
	.st63{fill:#BF8DF2;stroke:#45413C;stroke-linecap:round;stroke-linejoin:round;stroke-miterlimit:10;}
	.st64{fill:#9F5AE5;stroke:#45413C;stroke-linecap:round;stroke-linejoin:round;stroke-miterlimit:10;}
	.st65{fill:#C8FFA1;}
	.st66{fill:#E4FFD1;}
	.st67{fill:#9CEB60;}
	.st68{fill:#E5FEFF;}
	.st69{fill:#B8ECFF;}
	.st70{fill:#E0E0E0;stroke:#45413C;stroke-linecap:round;stroke-linejoin:round;stroke-miterlimit:10;}
	.st71{fill:#E0E0E0;}
	.st72{fill:none;stroke:#4F4B45;stroke-linejoin:round;stroke-miterlimit:10;}
	.st73{fill:none;stroke:#4F4B45;stroke-linecap:round;stroke-linejoin:round;stroke-miterlimit:10;}
	.st74{fill:#E0366F;stroke:#45413C;stroke-linecap:round;stroke-linejoin:round;stroke-miterlimit:10;}
	.st75{fill:none;stroke:#45413C;stroke-miterlimit:10;}
	.st76{fill:#FF866E;stroke:#45413C;stroke-linecap:round;stroke-linejoin:round;stroke-miterlimit:10;}
	.st77{fill:#45413C;stroke:#45413C;stroke-linecap:round;stroke-linejoin:round;stroke-miterlimit:10;}
	.st78{fill:#9F5AE5;}
	.st79{fill:#803EC2;}
	.st80{fill:#803EC2;stroke:#45413C;stroke-linecap:round;stroke-linejoin:round;stroke-miterlimit:10;}
	.st81{fill:#BF8DF2;}
	.st82{fill:#FFAA54;stroke:#45413C;stroke-linecap:round;stroke-linejoin:round;stroke-miterlimit:10;}
	.st83{fill:none;stroke:#45413C;stroke-linejoin:round;stroke-miterlimit:10;}
	.st84{fill:#FFCCDD;stroke:#45413C;stroke-linecap:round;stroke-linejoin:round;stroke-miterlimit:10;}
	.st85{fill:#FF6196;stroke:#45413C;stroke-linecap:round;stroke-linejoin:round;stroke-miterlimit:10;}
	.st86{fill:#FFE5EE;}
	.st87{fill:#F7E5C6;stroke:#45413C;stroke-linecap:round;stroke-linejoin:round;stroke-miterlimit:10;}
	.st88{fill:#E5FFF9;}
	.st89{fill:none;stroke:#45413C;stroke-width:1.0064;stroke-linecap:round;stroke-linejoin:round;stroke-miterlimit:10;}
	.st90{fill:#4AEFF7;}
	.st91{fill:#A6FBFF;}
	.st92{fill:#E5FEFF;stroke:#45413C;stroke-linecap:round;stroke-linejoin:round;stroke-miterlimit:10;}
	.st93{fill:#46B000;stroke:#45413C;stroke-linecap:round;stroke-linejoin:round;stroke-miterlimit:10;}
	.st94{fill:#FFFFFF;stroke:#45413C;stroke-linejoin:round;stroke-miterlimit:10;}
	.st95{fill:#FFFFFF;stroke:#45413C;stroke-miterlimit:10;}
	.st96{fill:#009FD9;}
	.st97{fill:#00DFEB;}
	.st98{fill:#C0DCEB;stroke:#45413C;stroke-linecap:round;stroke-linejoin:round;stroke-miterlimit:10;}
	.st99{fill:#00DFEB;stroke:#45413C;stroke-linecap:round;stroke-linejoin:round;stroke-miterlimit:10;}
	.st100{fill:#FFE5EE;stroke:#45413C;stroke-linecap:round;stroke-linejoin:round;stroke-miterlimit:10;}
	.st101{fill:#8CA4B8;}
	.st102{fill:#ADC4D9;}
	.st103{fill:#656769;stroke:#45413C;stroke-linecap:round;stroke-linejoin:round;stroke-miterlimit:10;}
	.st104{fill:#F0F0F0;stroke:#45413C;stroke-linecap:round;stroke-linejoin:round;stroke-miterlimit:10;}
	.st105{fill:#C0DCEB;}
	.st106{fill:#45413C;}
	.st107{fill:#FFCABF;}
	.st108{fill:#87898C;stroke:#45413C;stroke-linecap:round;stroke-linejoin:round;stroke-miterlimit:10;}
	.st109{fill:#EBCB00;stroke:#45413C;stroke-linecap:round;stroke-linejoin:round;stroke-miterlimit:10;}</style>
  <rect
     transform="matrix(3.7796,0,0,3.7796,1.5921958e-5,1.5921958e-5)"
     x="1.1905"
     y="1.1905"
     width="14.552"
     height="14.552"
     ry="3.4395001"
     id="rect26"
     style="opacity:0.3;stroke-width:0.083153;stroke-opacity:0.95293998;filter:url(#filter861)" />
  <rect
     id="rect854"
     ry="13"
     height="55.000999"
     width="55.000999"
     y="4.4990234"
     x="4.4990301"
     style="fill:#95413f;fill-opacity:1;stroke-width:0.31428;stroke-opacity:0.95293998" />
  <rect
     style="fill:url(#linearGradient902);fill-opacity:1;stroke-width:0.29707426;stroke-opacity:0.95293998"
     x="5.5000372"
     y="5.4990234"
     width="52.998985"
     height="50.999992"
     ry="10"
     id="rect882" />
  <path
     inkscape:connector-curvature="0"
     style="fill:url(#linearGradient880);fill-opacity:1;stroke-width:0.31428;stroke-opacity:0.95293998"
     d="m 17.49903,4.4990235 c -7.202,0 -13,5.7980005 -13,12.9999995 v 26.001953 c 0,4.432001 3.568,8 8,8 h 39.00195 c 4.432,0 8,-3.567999 8,-8 V 17.499023 c 0,-7.201999 -5.798,-12.9999995 -13,-12.9999995 z"
     id="rect858" />
  <path
     inkscape:connector-curvature="0"
     style="opacity:0.5;fill:#6e1e28;fill-opacity:1;stroke-width:0.31428;stroke-opacity:0.95293998"
     d="m 9.49903,7.2529297 c -1.13,0.8821591 -2.10858,1.9472136 -2.89453,3.1503903 -0.0312,0.04798 -0.0592,0.09806 -0.0898,0.146485 -0.2161,0.340611 -0.41731,0.691453 -0.60156,1.052735 -0.045,0.08866 -0.0859,0.179704 -0.1289,0.269531 -0.15437,0.320825 -0.29573,0.649394 -0.42383,0.984375 -0.0488,0.12807 -0.0958,0.25672 -0.14063,0.386719 -0.10626,0.306992 -0.19783,0.620356 -0.28125,0.9375 -0.0394,0.150686 -0.0811,0.300322 -0.11523,0.453125 -0.0726,0.323193 -0.12579,0.654284 -0.17383,0.986328 -0.0206,0.142875 -0.0505,0.283366 -0.0664,0.427733 -0.05287,0.476881 -0.08404,0.959571 -0.08404,1.451172 v 26.001953 c 0,3.368885 2.06445,6.233148 5,7.416016 z"
     id="rect886" />
  <path
     inkscape:connector-curvature="0"
     style="fill:#6e2828;fill-opacity:1;stroke-width:0.31428;stroke-opacity:0.95293998"
     d="m 4.49903,42.499023 v 1.001953 c 0,4.432001 3.568,8 8,8 h 39.00195 c 4.432,0 8,-3.567999 8,-8 v -1.001953 c 0,4.432001 -3.568,8 -8,8 H 12.49903 c -4.432,0 -8,-3.567999 -8,-8 z"
     id="path923" />
  <path
     inkscape:connector-curvature="0"
     style="fill:#6e2828;fill-opacity:1;stroke-width:0.31428;stroke-opacity:0.95293998"
     d="m 4.49903,45.499023 v 1.001953 c 0,7.202 5.798,13 13,13 h 29.00195 c 7.202,0 13,-5.798 13,-13 v -1.001953 c 0,7.202 -5.798,13 -13,13 H 17.49903 c -7.202,0 -13,-5.798 -13,-13 z"
     id="rect934" />
  <g
     aria-label="Aa"
     style="font-style:normal;font-variant:normal;font-weight:normal;font-stretch:normal;font-size:31.08623505px;line-height:1.25;font-family:C059;-inkscape-font-specification:'C059, Normal';font-variant-ligatures:normal;font-variant-caps:normal;font-variant-numeric:normal;font-feature-settings:normal;text-align:start;letter-spacing:0px;word-spacing:0px;writing-mode:lr-tb;text-anchor:start;fill:#ffffff;fill-opacity:1;stroke:none;stroke-width:0.77715588"
     id="text941"
     transform="matrix(0.85668652,0,0,0.85668652,2.0726309,4.0127764)">
    <path
       d="m 26.867023,16.32712 h -1.305622 l -7.149834,18.123275 c -0.839328,2.424726 -1.64757,3.170796 -3.419485,3.295141 h -0.124345 v 1.461053 h 8.237852 v -1.461053 h -0.621725 c -1.678657,0 -2.517985,-0.590639 -2.517985,-1.771916 0,-0.404121 0.09326,-0.777156 0.279776,-1.305622 l 1.025846,-2.735588 h 8.237852 l 1.678657,4.165555 c 0.186517,0.49738 0.24869,0.683897 0.24869,0.839329 0,0.497379 -0.777156,0.808242 -1.927347,0.808242 h -1.305622 v 1.461053 h 9.636733 v -1.461053 h -0.435207 c -1.616484,-0.03109 -1.89626,-0.217604 -2.611244,-1.989519 z m -1.523225,5.098142 3.512744,8.828491 h -6.963316 z"
       style="fill:#ffffff;fill-opacity:1;stroke-width:0.77715588"
       id="path961"
       inkscape:connector-curvature="0" />
    <path
       d="m 52.171153,29.196821 c 0,-1.958433 -0.341949,-2.953192 -1.24345,-3.699262 -1.025846,-0.839328 -2.549071,-1.243449 -4.53859,-1.243449 -3.512745,0 -6.061816,1.64757 -6.061816,3.916865 0,1.150191 0.714984,1.896261 1.803002,1.896261 0.994759,0 1.678656,-0.652811 1.678656,-1.585398 0,-0.404121 -0.155431,-0.839329 -0.466293,-1.274536 -0.186518,-0.217604 -0.217604,-0.279776 -0.217604,-0.435207 0,-0.621725 1.24345,-1.181277 2.735589,-1.181277 0.994759,0 2.082778,0.310862 2.580157,0.777156 0.590639,0.497379 0.808243,1.243449 0.808243,2.64233 v 1.212363 c -3.232969,0.559552 -4.258815,0.808242 -5.78204,1.39888 -2.704503,0.99476 -3.979038,2.424727 -3.979038,4.414246 0,2.238209 1.740829,3.637089 4.507504,3.637089 2.14495,0 4.072297,-0.870414 5.409005,-2.455812 0.497379,1.585398 1.274535,2.207122 2.735588,2.207122 1.398881,0 2.859934,-0.9015 2.859934,-1.803001 0,-0.217604 -0.124345,-0.373035 -0.310862,-0.373035 -0.124345,0 -0.24869,0.03109 -0.466294,0.124345 -0.435207,0.186517 -0.621725,0.217604 -0.870414,0.217604 -0.870415,0 -1.181277,-0.559553 -1.181277,-2.144951 z m -2.922106,3.792521 c 0,1.865174 -0.09326,2.300381 -0.621725,3.108623 -0.777156,1.150191 -2.176037,1.927347 -3.543831,1.927347 -1.429967,0 -2.455813,-1.025846 -2.455813,-2.424727 0,-1.305621 0.652811,-2.238208 2.020606,-2.891019 0.963673,-0.435208 2.176036,-0.74607 4.600763,-1.150191 z"
       style="fill:#ffffff;fill-opacity:1;stroke-width:0.77715588"
       id="path963"
       inkscape:connector-curvature="0" />
  </g>
</svg>
