<?xml version="1.0" encoding="UTF-8"?>
<svg width="64" height="64" version="1.1" viewBox="0 0 16.933 16.933" xmlns="http://www.w3.org/2000/svg" xmlns:cc="http://creativecommons.org/ns#" xmlns:dc="http://purl.org/dc/elements/1.1/" xmlns:rdf="http://www.w3.org/1999/02/22-rdf-syntax-ns#" xmlns:xlink="http://www.w3.org/1999/xlink">
 <defs>
  <linearGradient id="linearGradient1448-3" x1="3.9687" x2="3.9687" y1="16.404" y2="2.6458" gradientTransform="matrix(.91667 0 0 .91667 .70544 .70544)" gradientUnits="userSpaceOnUse">
   <stop stop-color="#144bb4" offset="0"/>
   <stop stop-color="#00c8ff" offset="1"/>
  </linearGradient>
  <filter id="filter861" x="-.027" y="-.027" width="1.054" height="1.054" color-interpolation-filters="sRGB">
   <feGaussianBlur stdDeviation="0.16371"/>
  </filter>
  <linearGradient id="linearGradient931" x1="14.27" x2="14.27" y1="2.1167" y2="15.105" gradientTransform="matrix(.91667 0 0 .91667 .70544 .70544)" gradientUnits="userSpaceOnUse">
   <stop stop-color="#f5f5f5" offset="0"/>
   <stop stop-color="#dce6f5" offset="1"/>
  </linearGradient>
 </defs>
 <metadata>
  <rdf:RDF>
   <cc:Work rdf:about="">
    <dc:format>image/svg+xml</dc:format>
    <dc:type rdf:resource="http://purl.org/dc/dcmitype/StillImage"/>
    <dc:title/>
   </cc:Work>
  </rdf:RDF>
 </metadata>
 <g stroke-opacity=".95294">
  <rect x="1.1905" y="1.1905" width="14.552" height="14.552" ry="3.4395" filter="url(#filter861)" opacity=".3" stroke-width=".083153"/>
  <rect x="1.1905" y="1.1905" width="14.552" height="14.552" ry="3.4395" fill="url(#linearGradient1448-3)" stroke-width=".083153"/>
  <path d="m8.4945 1.1906c-0.30077 0.59483-0.53697 1.1977-0.7219 1.7983-0.18498 0.60073-0.31914 1.1993-0.4165 1.7859-0.09736 0.58656-0.15784 1.1611-0.19585 1.7136-0.03801 0.55248-0.05354 1.0828-0.06046 1.5813 0.0025 0.17627-0.0013 0.27834 0.03359 0.33744 0.03492 0.059096 0.10907 0.07539 0.26716 0.07958l1.8097 0.00775c0.13158 0.00158 0.19712 0.027654 0.2284 0.083714 0.03129 0.05606 0.02846 0.1422 0.02325 0.26406-0.05167 1.2161-0.01104 2.3829 0.08785 3.5248s0.25577 2.2589 0.43769 3.3749h2.3207c1.903-0.0028 3.4343-1.5353 3.4343-3.439v-7.6728c0-1.9055-1.534-3.4395-3.4395-3.4395z" fill="url(#linearGradient931)" stroke-width=".083153"/>
 </g>
 <path d="m5.406 4.9261c-0.18285 0-0.33008 0.14723-0.33008 0.33008v0.90272c0 0.18285 0.14723 0.33008 0.33008 0.33008s0.33008-0.14723 0.33008-0.33008v-0.90272c0-0.18285-0.14723-0.33008-0.33008-0.33008zm6.1157 0c-0.18285 0-0.33008 0.14723-0.33008 0.33008v0.90272c0 0.18285 0.14723 0.33008 0.33008 0.33008s0.33008-0.14723 0.33008-0.33008v-0.90272c0-0.18285-0.14723-0.33008-0.33008-0.33008zm-7.0595 4.9351a0.24841 0.24841 0 0 0-0.17426 0.41527c1.123 1.2719 2.7629 1.7826 4.3353 1.7263 1.5723-0.05635 3.0935-0.66966 4.019-1.7061a0.24842 0.24842 0 1 0-0.37064-0.33086c-0.80809 0.90496-2.213 1.4885-3.666 1.5406-1.453 0.05207-2.9376-0.41734-3.9452-1.5586a0.24841 0.24841 0 0 0-0.19812-0.086545z" fill="#1b1b1b" stroke="#fff" stroke-linecap="round" stroke-opacity=".50898" stroke-width=".0014903"/>
</svg>
