<?xml version="1.0" encoding="UTF-8"?>
<svg width="64" height="64" version="1.1" xmlns="http://www.w3.org/2000/svg" xmlns:cc="http://creativecommons.org/ns#" xmlns:dc="http://purl.org/dc/elements/1.1/" xmlns:rdf="http://www.w3.org/1999/02/22-rdf-syntax-ns#" xmlns:xlink="http://www.w3.org/1999/xlink">
 <metadata>
  <rdf:RDF>
   <cc:Work rdf:about="">
    <dc:format>image/svg+xml</dc:format>
    <dc:type rdf:resource="http://purl.org/dc/dcmitype/StillImage"/>
    <dc:title/>
   </cc:Work>
  </rdf:RDF>
 </metadata>
 <defs>
  <linearGradient id="linearGradient938" x1="99.523" x2="103.24" y1="38.494" y2="41.915" gradientTransform="matrix(1.3333 0 0 1.3333 -103.15 -21.795)" gradientUnits="userSpaceOnUse">
   <stop stop-color="#6eb92e" offset="0"/>
   <stop stop-color="#4592d6" offset="1"/>
  </linearGradient>
  <linearGradient id="linearGradient946" x1="101.35" x2="101.35" y1="30.289" y2="50.451" gradientTransform="matrix(1.3333 0 0 1.3333 -103.15 -21.795)" gradientUnits="userSpaceOnUse">
   <stop stop-color="#e7e7e7" offset="0"/>
   <stop stop-color="#c2c2c2" offset="1"/>
  </linearGradient>
  <filter id="filter959" x="-.108" y="-.108" width="1.216" height="1.216" color-interpolation-filters="sRGB">
   <feGaussianBlur stdDeviation="1.44"/>
  </filter>
  <linearGradient id="b-3" x1="399.57" x2="399.57" y1="545.8" y2="517.8" gradientTransform="matrix(2.1429 0 0 2.1429 -891.82 -1108)" gradientUnits="userSpaceOnUse">
   <stop stop-color="#3889e9" offset="0"/>
   <stop stop-color="#5ea5fb" offset="1"/>
  </linearGradient>
  <style id="current-color-scheme" type="text/css">.ColorScheme-Text { color:#363636; }</style>
  <style type="text/css">.ColorScheme-Text { color:#363636; }</style>
  <filter id="filter861-9" x="-.027" y="-.027" width="1.054" height="1.054" color-interpolation-filters="sRGB">
   <feGaussianBlur stdDeviation="0.16371"/>
  </filter>
  <linearGradient id="linearGradient1723" x1="35" x2="35" y1="9.1279" y2="55.038" gradientTransform="translate(-6.2134e-7 -.49967)" gradientUnits="userSpaceOnUse">
   <stop stop-color="#4f646f" offset="0"/>
   <stop stop-color="#242830" offset="1"/>
  </linearGradient>
 </defs>
 <rect transform="matrix(3.7796 0 0 3.7796 -1.011e-6 -.49967)" x="1.1905" y="1.1905" width="14.552" height="14.552" ry="3.4395" filter="url(#filter861-9)" opacity=".3" stroke-opacity=".95294" stroke-width=".083153"/>
 <rect x="4.5" y="4.0003" width="55" height="55" ry="13" fill="url(#linearGradient1723)" stroke-linecap="round" stroke-width="1.375"/>
 <path d="m24 16.845c-4.432 0-8 3.568-8 8v16c0 4.432 3.568 8 8 8h16c4.432 0 8-3.568 8-8v-16c0-4.432-3.568-8-8-8zm8 8a8 8 0 0 1 8 8 8 8 0 0 1-8 8 8 8 0 0 1-8-8 8 8 0 0 1 8-8zm2e-3 4c-2.2108 0-4.002 1.7908-4.002 4 0 1.1026 0.44587 2.1007 1.168 2.8242l-0.0039 0.0039c0.7244 0.72385 1.7266 1.1719 2.832 1.1719 2.2108 0 4.0039-1.7908 4.0039-4 0-1.102-0.4465-2.0988-1.168-2.8223 2.4e-4 -0.0019 0-4e-3 0-0.0059-0.72383-0.72381-1.7247-1.1719-2.8301-1.1719z" filter="url(#filter959)" opacity=".15" stroke-width="1.3333" style="paint-order:normal"/>
 <path d="m24 16c-4.432 0-8 3.568-8 8v16c0 4.432 3.568 8 8 8h16c4.432 0 8-3.568 8-8v-16c0-4.432-3.568-8-8-8zm8 8a8 8 0 0 1 8 8 8 8 0 0 1-8 8 8 8 0 0 1-8-8 8 8 0 0 1 8-8z" fill="url(#linearGradient946)" stroke-width="1.3333" style="paint-order:normal"/>
 <path d="m32.003 28c-2.2108 0-4.0029 1.7908-4.0029 4 0 1.1026 0.44673 2.1007 1.1688 2.8242l-0.0039 0.0039c0.7244 0.72385 1.7268 1.1719 2.8322 1.1719 2.2108 0 4.0029-1.7908 4.0029-4 0-1.102-0.44736-2.0988-1.1688-2.8223 2.4e-4 -0.0019 0.0013-4e-3 0.0013-0.0059-0.72383-0.72381-1.7242-1.1718-2.8296-1.1718z" fill="url(#linearGradient938)" stroke-width="1.3338" style="paint-order:normal"/>
 <circle cx="-33.441" cy="31.544" r="0" fill="url(#b-3)" stroke-width="1.5715"/>
</svg>
