<?xml version="1.0" encoding="UTF-8"?>
<svg width="64" height="64" version="1.1" viewBox="0 0 16.933 16.933" xmlns="http://www.w3.org/2000/svg" xmlns:cc="http://creativecommons.org/ns#" xmlns:dc="http://purl.org/dc/elements/1.1/" xmlns:rdf="http://www.w3.org/1999/02/22-rdf-syntax-ns#">
 <metadata>
  <rdf:RDF>
   <cc:Work rdf:about="">
    <dc:format>image/svg+xml</dc:format>
    <dc:type rdf:resource="http://purl.org/dc/dcmitype/StillImage"/>
    <dc:title/>
   </cc:Work>
  </rdf:RDF>
 </metadata>
 <defs>
  <linearGradient id="linearGradient1634" x1="-59.235" x2="-59.235" y1=".7041" y2="-11.929" gradientTransform="matrix(1.0909 0 0 1.0909 72.897 15.613)" gradientUnits="userSpaceOnUse">
   <stop stop-color="#d73782" offset="0"/>
   <stop stop-color="#eb554b" offset="1"/>
  </linearGradient>
  <linearGradient id="i" x1="400.4" x2="400.4" y1="545.62" y2="517.62" gradientTransform="matrix(.41967 0 0 .41967 -201.11 -184.69)" gradientUnits="userSpaceOnUse">
   <stop stop-color="#d3d3d3" offset="0"/>
   <stop stop-color="#fcf9f9" offset="1"/>
  </linearGradient>
  <linearGradient id="f" x1="400.4" x2="400.4" y1="545.62" y2="517.62" gradientTransform="matrix(.43343 0 0 .43343 -220.86 -186.15)" gradientUnits="userSpaceOnUse">
   <stop stop-color="#8d3aff" offset="0"/>
   <stop stop-color="#ff3680" offset="1"/>
  </linearGradient>
 </defs>
 <g transform="translate(0 .37567)" opacity=".15" aria-label="T">
  <path d="m5.2032 4.6089h6.5266v0.87848h-2.7388v6.8367h-1.049v-6.8367h-2.7388z" stroke-width=".26458"/>
 </g>
 <path d="m16.404 8.4665c0 0.95153-0.16749 1.8638-0.47463 2.7093-0.2135 0.58768-0.49436 1.1433-0.83392 1.6572-0.14222 0.21608-0.29514 0.42475-0.45746 0.6253-0.51966 0.64176-1.1372 1.2007-1.8305 1.6543-0.25529 0.16717-0.52064 0.32009-0.79535 0.45711-1.0668 0.53389-2.2711 0.83422-3.5456 0.83422-1.2745 0-2.4788-0.30032-3.5456-0.83424-0.27474-0.13705-0.5404-0.28995-0.79569-0.45711-0.70206-0.45973-1.327-1.0274-1.8509-1.6798-0.16262-0.20216-0.31524-0.41274-0.45746-0.63078-0.33046-0.5054-0.60419-1.0507-0.81347-1.627-0.3071-0.84525-0.47431-1.7572-0.47431-2.7085 0-4.3838 3.5535-7.9373 7.9373-7.9373 2.2005 0 4.1914 0.89546 5.6294 2.3416 0.41436 0.4166 0.78276 0.8793 1.0963 1.3795 0.29646 0.47108 0.54426 0.97582 0.73704 1.5068 0.3072 0.84557 0.47465 1.7579 0.47465 2.7093z" fill="url(#linearGradient1634)" image-rendering="optimizeSpeed" stroke-width=".031006"/>
 <g transform="translate(0 .15351)" fill="#fff" aria-label="T">
  <path d="m5.2032 4.6089h6.5266v0.87848h-2.7388v6.8367h-1.049v-6.8367h-2.7388z" fill="#fff" stroke-width=".26458"/>
 </g>
 <g transform="matrix(.26458 0 0 .26458 -27.767 -6.4575)" fill="#5e4aa6" image-rendering="optimizeSpeed">
  <circle cx="-1331.1" cy="-1237.8" r="0"/>
  <circle cx="-1262.2" cy="-1229.7" r="0"/>
  <circle cx="-1239.2" cy="-1255.5" r="0"/>
  <circle cx="-1249.8" cy="-1228.8" r="0"/>
 </g>
 <circle cx="-33.001" cy="38.497" r="0" fill="url(#i)" image-rendering="optimizeSpeed" stroke-width=".26458"/>
 <circle cx="-47.233" cy="44.36" r="0" fill="none" image-rendering="optimizeSpeed" stroke="url(#f)" stroke-width=".56347"/>
</svg>
