<?xml version="1.0" encoding="UTF-8" standalone="no"?>
<svg
   xmlns:dc="http://purl.org/dc/elements/1.1/"
   xmlns:cc="http://creativecommons.org/ns#"
   xmlns:rdf="http://www.w3.org/1999/02/22-rdf-syntax-ns#"
   xmlns:svg="http://www.w3.org/2000/svg"
   xmlns="http://www.w3.org/2000/svg"
   xmlns:sodipodi="http://sodipodi.sourceforge.net/DTD/sodipodi-0.dtd"
   xmlns:inkscape="http://www.inkscape.org/namespaces/inkscape"
   inkscape:version="1.0 (4035a4fb49, 2020-05-01)"
   sodipodi:docname="fritzing.svg"
   id="svg36"
   viewBox="0 0 64 64"
   version="1.1"
   height="64"
   width="64">
  <metadata
     id="metadata40">
    <rdf:RDF>
      <cc:Work
         rdf:about="">
        <dc:format>image/svg+xml</dc:format>
        <dc:type
           rdf:resource="http://purl.org/dc/dcmitype/StillImage" />
        <dc:title></dc:title>
      </cc:Work>
    </rdf:RDF>
  </metadata>
  <sodipodi:namedview
     inkscape:current-layer="svg36"
     inkscape:window-maximized="1"
     inkscape:window-y="36"
     inkscape:window-x="0"
     inkscape:cy="19.177165"
     inkscape:cx="11.121181"
     inkscape:zoom="5.9112731"
     showgrid="false"
     id="namedview38"
     inkscape:window-height="932"
     inkscape:window-width="1920"
     inkscape:pageshadow="2"
     inkscape:pageopacity="0"
     guidetolerance="10"
     gridtolerance="10"
     objecttolerance="10"
     borderopacity="1"
     bordercolor="#666666"
     pagecolor="#ffffff" />
  <defs
     id="defs10">
    <linearGradient
       gradientUnits="userSpaceOnUse"
       gradientTransform="matrix(3.7796,0,0,3.7796,70.45494,0)"
       y2="1.852"
       y1="15.081"
       x2="7.9373"
       x1="7.9373"
       id="linearGradient862">
      <stop
         id="stop2"
         offset="0"
         stop-color="#b62e20" />
      <stop
         id="stop4"
         offset="1"
         stop-color="#fb5541" />
    </linearGradient>
    <filter
       color-interpolation-filters="sRGB"
       height="1.0757"
       width="1.1312"
       y="-.037843"
       x="-.065609"
       id="filter964">
      <feGaussianBlur
         id="feGaussianBlur7"
         stdDeviation="0.11569" />
    </filter>
    <linearGradient
       id="linearGradient1448"
       x1="3.9687"
       x2="3.9687"
       y1="16.404"
       y2="2.6458"
       gradientTransform="matrix(3.4646,0,0,3.4646,2.6663169,2.6663169)"
       gradientUnits="userSpaceOnUse">
      <stop
         stop-color="#e12d2d"
         offset="0"
         id="stop867" />
      <stop
         stop-color="#f55050"
         offset="1"
         id="stop869" />
    </linearGradient>
    <filter
       id="filter861"
       x="-.027"
       y="-.027"
       width="1.054"
       height="1.054"
       color-interpolation-filters="sRGB">
      <feGaussianBlur
         stdDeviation="0.16371"
         id="feGaussianBlur872" />
    </filter>
    <linearGradient
       id="linearGradient957"
       x1="13.085"
       x2="28.809"
       y1="1024.7"
       y2="1024.7"
       gradientTransform="matrix(2.2259,0,0,2.2259,-14.624983,-2248.9)"
       gradientUnits="userSpaceOnUse">
      <stop
         stop-color="#f6fbff"
         offset="0"
         id="stop875" />
      <stop
         stop-color="#eaeff2"
         offset="1"
         id="stop877" />
    </linearGradient>
  </defs>
  <rect
     id="rect882"
     stroke-width="0.083153"
     stroke-opacity="0.95294"
     opacity="0.3"
     filter="url(#filter861)"
     ry="3.4395001"
     height="14.552"
     width="14.552"
     y="1.1905"
     x="1.1905"
     transform="matrix(3.7796,0,0,3.7796,1.5921958e-5,1.5921958e-5)"
     style="image-rendering:optimizeSpeed" />
  <rect
     id="rect884"
     stroke-width="0.31428"
     stroke-opacity="0.95294"
     fill="url(#linearGradient1448)"
     ry="13"
     height="55.000999"
     width="55.000999"
     y="4.4996171"
     x="4.4996171"
     style="fill:url(#linearGradient1448);image-rendering:optimizeSpeed" />
  <g
     transform="matrix(4.6217,0,0,4.6217,-1.2521631,0.47728)"
     id="g913">
    <path
       d="M 7.62,3.33 C 6.841,3.33 6.209,3.962 6.209,4.741 V 5.588 H 5.645 c -0.313,0 -0.564,0.252 -0.564,0.564 0,0.313 0.252,0.564 0.564,0.564 H 6.209 V 7.965 C 5.695,8.189 5.363,8.696 5.362,9.256 c 0,0.779 0.632,1.411 1.411,1.411 0.779,0 1.411,-0.632 1.411,-1.411 0,-0.561 -0.333,-1.068 -0.847,-1.293 V 6.716 h 0.565 c 0.313,0 0.564,-0.252 0.564,-0.564 0,-0.313 -0.252,-0.564 -0.564,-0.564 H 7.338 V 4.882 c 0,-0.234 0.19,-0.423 0.423,-0.423 h 0.988 c 0.313,0 0.564,-0.252 0.564,-0.564 0,-0.313 -0.252,-0.564 -0.564,-0.564 z"
       filter="url(#filter964)"
       opacity="0.1"
       id="path907" />
    <path
       d="M 7.338,3.048 C 6.559,3.048 5.927,3.68 5.927,4.459 V 5.306 H 5.363 c -0.313,0 -0.564,0.252 -0.564,0.564 0,0.313 0.252,0.564 0.564,0.564 H 5.927 V 7.683 C 5.413,7.907 5.081,8.414 5.08,8.974 c 0,0.779 0.632,1.411 1.411,1.411 0.779,0 1.411,-0.632 1.411,-1.411 0,-0.561 -0.333,-1.068 -0.847,-1.293 V 6.434 H 7.62 C 7.933,6.434 8.184,6.182 8.184,5.87 8.184,5.557 7.932,5.306 7.62,5.306 H 7.056 V 4.6 c 0,-0.234 0.19,-0.423 0.423,-0.423 H 8.467 C 8.78,4.177 9.031,3.925 9.031,3.613 9.031,3.3 8.779,3.049 8.467,3.049 Z"
       fill="#fbf7f7"
       id="path909" />
    <circle
       cx="6.4910002"
       cy="8.9750004"
       r="0.56400001"
       fill="#5c1b0c"
       stroke-width="2"
       id="circle911" />
  </g>
</svg>
