<?xml version="1.0" encoding="UTF-8"?>
<!-- Created with Inkscape (http://www.inkscape.org/) -->
<svg width="64" height="64" version="1.1" viewBox="0 0 16.933 16.933" xmlns="http://www.w3.org/2000/svg" xmlns:cc="http://creativecommons.org/ns#" xmlns:dc="http://purl.org/dc/elements/1.1/" xmlns:rdf="http://www.w3.org/1999/02/22-rdf-syntax-ns#">
 <defs>
  <linearGradient id="i" x1="400.4" x2="400.4" y1="545.62" y2="517.62" gradientTransform="matrix(.41967 0 0 .41967 -173.34 -178.23)" gradientUnits="userSpaceOnUse">
   <stop stop-color="#d3d3d3" offset="0"/>
   <stop stop-color="#fcf9f9" offset="1"/>
  </linearGradient>
  <linearGradient id="f" x1="400.4" x2="400.4" y1="545.62" y2="517.62" gradientTransform="matrix(.43343 0 0 .43343 -193.09 -179.69)" gradientUnits="userSpaceOnUse">
   <stop stop-color="#8d3aff" offset="0"/>
   <stop stop-color="#ff3680" offset="1"/>
  </linearGradient>
  <linearGradient id="linearGradient1005-8" x1=".73911" x2="16.388" y1="16.296" y2=".64687" gradientTransform="matrix(.91665 0 0 .91665 .67326 .71162)" gradientUnits="userSpaceOnUse">
   <stop stop-color="#a0afb9" offset="0"/>
   <stop stop-color="#aabec3" offset="1"/>
  </linearGradient>
  <radialGradient id="radialGradient2496" cx="8.4665" cy="8.4665" r="6.1996" gradientTransform="matrix(1 0 0 .99999 1.5e-7 5.2373e-5)" gradientUnits="userSpaceOnUse">
   <stop stop-color="#d4dde0" offset="0"/>
   <stop stop-color="#d5dde0" offset="1"/>
  </radialGradient>
  <linearGradient id="linearGradient2612" x1="8.578" x2="8.578" y1="11.815" y2="5.118" gradientTransform="matrix(.82142 0 0 .82142 1.512 1.512)" gradientUnits="userSpaceOnUse">
   <stop stop-color="#fe706e" offset="0"/>
   <stop stop-color="#ee3827" offset=".24336"/>
   <stop stop-color="#ff0a00" offset=".53124"/>
   <stop stop-color="#ff0a00" offset=".74336"/>
   <stop stop-color="#fd6030" offset="1"/>
  </linearGradient>
  <linearGradient id="linearGradient2632" x1="8.3388" x2="8.3388" y1="11.265" y2="5.6504" gradientUnits="userSpaceOnUse">
   <stop stop-color="#fafafa" offset="0"/>
   <stop stop-color="#870000" offset="1"/>
  </linearGradient>
  <filter id="filter991" x="-.036" y="-.036" width="1.072" height="1.072" color-interpolation-filters="sRGB">
   <feGaussianBlur stdDeviation="0.18598837"/>
  </filter>
 </defs>
 <metadata>
  <rdf:RDF>
   <cc:Work rdf:about="">
    <dc:format>image/svg+xml</dc:format>
    <dc:type rdf:resource="http://purl.org/dc/dcmitype/StillImage"/>
    <dc:title/>
   </cc:Work>
  </rdf:RDF>
 </metadata>
 <g transform="translate(-21.834 .89695)" fill="#5e4aa6" stroke-width=".26458">
  <circle cx="-330.35" cy="-328.38" r="0"/>
  <circle cx="-312.11" cy="-326.25" r="0"/>
  <circle cx="-306.02" cy="-333.07" r="0"/>
  <circle cx="-308.84" cy="-326.01" r="0"/>
 </g>
 <circle cx="-5.2346" cy="44.956" r="0" fill="url(#i)" image-rendering="optimizeSpeed" stroke-width=".26458"/>
 <circle cx="-19.466" cy="50.818" r="0" fill="none" image-rendering="optimizeSpeed" stroke="url(#f)" stroke-width=".56347"/>
 <g transform="translate(-21.834 .89695)" fill="#5e4aa6" stroke-width=".26458">
  <circle cx="-330.35" cy="-328.38" r="0"/>
  <circle cx="-312.11" cy="-326.25" r="0"/>
  <circle cx="-306.02" cy="-333.07" r="0"/>
  <circle cx="-308.84" cy="-326.01" r="0"/>
 </g>
 <g transform="matrix(1.0909 0 0 1.0909 -.76933 -.76974)">
  <path d="m15.742 8.4664c0 0.87223-0.15353 1.7085-0.43508 2.4836-0.19571 0.5387-0.45318 1.048-0.76442 1.5191-0.13037 0.19807-0.27054 0.38935-0.41933 0.57317-0.47634 0.5883-1.0424 1.1006-1.6779 1.5164-0.23402 0.15324-0.47725 0.29342-0.72907 0.41902-0.97788 0.48939-2.0818 0.76468-3.2501 0.76468s-2.2722-0.27529-3.2501-0.7647c-0.25184-0.12563-0.49536-0.2658-0.72938-0.41902-0.64355-0.42141-1.2164-0.94176-1.6966-1.5398-0.14907-0.18531-0.28896-0.37835-0.41933-0.5782-0.30292-0.46327-0.55385-0.96312-0.74569-1.4914-0.28151-0.77483-0.43477-1.6108-0.43477-2.4827 0-4.0184 3.2575-7.2759 7.2759-7.2759 2.0171 0 3.8423 0.82084 5.1603 2.1465 0.37982 0.38189 0.7175 0.806 1.0049 1.2645 0.27174 0.43181 0.49891 0.89448 0.67561 1.3812 0.28158 0.77511 0.4351 1.6114 0.4351 2.4836z" fill="url(#linearGradient1005-8)" stroke-width=".028422"/>
  <path transform="matrix(1.0067 0 0 1.0067 -.05679 -.05679)" d="m14.666 8.4664c0 0.74321-0.13082 1.4558-0.37072 2.1162-0.16676 0.45902-0.38615 0.89298-0.65135 1.2944-0.11109 0.16877-0.23052 0.33176-0.3573 0.48839-0.40588 0.50128-0.88821 0.9378-1.4297 1.2921-0.1994 0.13057-0.40666 0.25002-0.62123 0.35704-0.83323 0.417-1.7739 0.65157-2.7693 0.65157-0.99548 0-1.9361-0.23457-2.7693-0.65158-0.21459-0.10705-0.42209-0.22648-0.62149-0.35704-0.54836-0.35908-1.0365-0.80246-1.4456-1.312-0.12702-0.1579-0.24622-0.32238-0.3573-0.49267-0.25811-0.39474-0.47192-0.82066-0.63539-1.2708-0.23987-0.66022-0.37046-1.3725-0.37046-2.1155 0-3.424 2.7756-6.1996 6.1996-6.1996 1.7187 0 3.2739 0.69942 4.397 1.829 0.32364 0.3254 0.61137 0.68678 0.85625 1.0775 0.23154 0.36794 0.42511 0.76217 0.57567 1.1769 0.23993 0.66046 0.37074 1.373 0.37074 2.1162z" filter="url(#filter991)" opacity=".5" stroke-width=".024218"/>
  <path d="m14.666 8.4664c0 0.74321-0.13082 1.4558-0.37072 2.1162-0.16676 0.45902-0.38615 0.89298-0.65135 1.2944-0.11109 0.16877-0.23052 0.33176-0.3573 0.48839-0.40588 0.50128-0.88821 0.9378-1.4297 1.2921-0.1994 0.13057-0.40666 0.25002-0.62123 0.35704-0.83323 0.417-1.7739 0.65157-2.7693 0.65157-0.99548 0-1.9361-0.23457-2.7693-0.65158-0.21459-0.10705-0.42209-0.22648-0.62149-0.35704-0.54836-0.35908-1.0365-0.80246-1.4456-1.312-0.12702-0.1579-0.24622-0.32238-0.3573-0.49267-0.25811-0.39474-0.47192-0.82066-0.63539-1.2708-0.23987-0.66022-0.37046-1.3725-0.37046-2.1155 0-3.424 2.7756-6.1996 6.1996-6.1996 1.7187 0 3.2739 0.69942 4.397 1.829 0.32364 0.3254 0.61137 0.68678 0.85625 1.0775 0.23154 0.36794 0.42511 0.76217 0.57567 1.1769 0.23993 0.66046 0.37074 1.373 0.37074 2.1162z" fill="url(#radialGradient2496)" stroke-width=".024218"/>
  <g fill="none" stroke="#fafafa">
   <path d="m13.012 8.4665c0 0.54482-0.0959 1.0672-0.27176 1.5513-0.12224 0.33648-0.28307 0.6546-0.47747 0.94887-0.08143 0.12372-0.16898 0.24319-0.26192 0.35801-0.29754 0.36746-0.6511 0.68745-1.048 0.94721-0.14618 0.09572-0.2981 0.18327-0.45539 0.26173-0.6108 0.30568-1.3004 0.47763-2.03 0.47763-0.72974 0-1.4192-0.17195-2.03-0.47765-0.1573-0.078471-0.30941-0.16602-0.45558-0.26173-0.40197-0.26322-0.75979-0.58824-1.0597-0.9618-0.093113-0.11574-0.18049-0.23632-0.26192-0.36115-0.18921-0.28937-0.34595-0.60158-0.46577-0.93154-0.17584-0.48398-0.27156-1.0062-0.27156-1.5507 0-2.51 2.0347-4.5446 4.5446-4.5446 1.2599 0 2.3999 0.51272 3.2232 1.3407 0.23724 0.23854 0.44816 0.50344 0.62768 0.78983 0.16974 0.26971 0.31163 0.55871 0.422 0.86274 0.17588 0.48415 0.27177 1.0065 0.27177 1.5513z" stroke-width=".010967"/>
   <path d="m12.814 8.4665c0 0.52119-0.09174 1.0209-0.25998 1.484-0.11694 0.32189-0.27079 0.62621-0.45676 0.90772-0.0779 0.11835-0.16165 0.23265-0.25056 0.34249-0.28463 0.35153-0.62287 0.65764-1.0026 0.90614-0.13984 0.09157-0.28517 0.17533-0.43564 0.25038-0.58432 0.29243-1.244 0.45692-1.942 0.45692-0.6981 0-1.3577-0.16449-1.942-0.45694-0.15048-0.075068-0.296-0.15882-0.43583-0.25038-0.38454-0.25181-0.72684-0.56273-1.0138-0.92009-0.089075-0.11072-0.17266-0.22607-0.25056-0.34549-0.18101-0.27682-0.33095-0.5755-0.44557-0.89115-0.16821-0.46299-0.25979-0.96252-0.25979-1.4835 0-2.4011 1.9465-4.3476 4.3476-4.3476 1.2053 0 2.2959 0.49048 3.0834 1.2826 0.22695 0.22819 0.42873 0.48161 0.60046 0.75558 0.16238 0.25802 0.29812 0.53448 0.4037 0.82532 0.16825 0.46316 0.25998 0.96284 0.25998 1.484z" stroke-width=".010491"/>
   <path d="m14.516 8.4665c0 0.72523-0.12766 1.4206-0.36175 2.065-0.16272 0.4479-0.37681 0.87137-0.63558 1.2631-0.1084 0.16469-0.22494 0.32373-0.34866 0.47656-0.39606 0.48914-0.86671 0.9151-1.3951 1.2609-0.19458 0.12742-0.39681 0.24396-0.60619 0.3484-0.81307 0.40691-1.731 0.6358-2.7023 0.6358-0.97139 0-1.8892-0.22889-2.7023-0.63582-0.20939-0.10446-0.41188-0.221-0.60645-0.3484-0.53508-0.35039-1.0114-0.78303-1.4106-1.2803-0.12395-0.15407-0.24026-0.31458-0.34865-0.48074-0.25187-0.38519-0.46051-0.8008-0.62001-1.24-0.23407-0.64424-0.36149-1.3393-0.36149-2.0642 0-3.3411 2.7085-6.0496 6.0496-6.0496 1.6771 0 3.1947 0.6825 4.2906 1.7847 0.3158 0.31752 0.59657 0.67015 0.83554 1.0514 0.22594 0.35903 0.41482 0.74372 0.56174 1.1484 0.23412 0.64447 0.36176 1.3398 0.36176 2.065z" stroke-width=".014598"/>
   <path d="m11.955 8.4666c0 0.4181-0.0736 0.81896-0.20855 1.1905-0.09381 0.25822-0.21723 0.50235-0.36641 0.72817-0.06249 0.09494-0.12968 0.18663-0.201 0.27474-0.22833 0.28199-0.49966 0.52756-0.80426 0.7269-0.11218 0.07346-0.22876 0.14065-0.34947 0.20086-0.46874 0.23458-0.99791 0.36654-1.5579 0.36654-0.56001 0-1.0891-0.13196-1.5579-0.36656-0.12072-0.06022-0.23745-0.12741-0.34962-0.20086-0.30848-0.202-0.58307-0.45142-0.81323-0.7381-0.071456-0.088823-0.13851-0.18136-0.201-0.27715-0.1452-0.22206-0.26548-0.46166-0.35744-0.71488-0.13494-0.37141-0.2084-0.77213-0.2084-1.19 0-1.9262 1.5614-3.4876 3.4876-3.4876 0.96687 0 1.8417 0.39346 2.4735 1.0289 0.18206 0.18305 0.34392 0.38635 0.48169 0.60613 0.13026 0.20698 0.23915 0.42876 0.32385 0.66207 0.13497 0.37154 0.20856 0.77239 0.20856 1.1905z" stroke-width=".008416"/>
   <path d="m14.278 8.4665c0 0.69669-0.12263 1.3646-0.34752 1.9837-0.15632 0.43028-0.36198 0.83707-0.61057 1.2134-0.10413 0.15821-0.21609 0.31099-0.33493 0.45781-0.38048 0.46989-0.8326 0.87909-1.3402 1.2113-0.18692 0.1224-0.3812 0.23436-0.58234 0.33469-0.78107 0.3909-1.6628 0.61078-2.5959 0.61078-0.93316 0-1.8149-0.21988-2.5959-0.6108-0.20115-0.10035-0.39567-0.2123-0.58258-0.33469-0.51402-0.3366-0.97159-0.75221-1.3551-1.2299-0.11907-0.14801-0.2308-0.3022-0.33493-0.46183-0.24195-0.37003-0.44238-0.76928-0.59561-1.1912-0.22485-0.61889-0.34726-1.2866-0.34726-1.983 0-3.2096 2.6019-5.8115 5.8115-5.8115 1.6111 0 3.0689 0.65564 4.1217 1.7145 0.30337 0.30503 0.57309 0.64378 0.80265 1.01 0.21705 0.3449 0.3985 0.71445 0.53964 1.1032 0.22491 0.61911 0.34753 1.287 0.34753 1.9837z" stroke-width=".014024"/>
   <path d="m14.015 8.4665c0 0.66509-0.11707 1.3028-0.33176 1.8938-0.14923 0.41076-0.34556 0.79911-0.58288 1.1583-0.09941 0.15103-0.20629 0.29688-0.31974 0.43705-0.36322 0.44858-0.79484 0.83922-1.2794 1.1563-0.17845 0.11685-0.36391 0.22373-0.55593 0.31951-0.74565 0.37317-1.5874 0.58308-2.4782 0.58308-0.89084 0-1.7326-0.20991-2.4782-0.5831-0.19203-0.095794-0.37772-0.20268-0.55616-0.31951-0.49071-0.32133-0.92753-0.7181-1.2937-1.1741-0.11367-0.1413-0.22033-0.28849-0.31974-0.44088-0.23098-0.35325-0.42232-0.73439-0.5686-1.1372-0.21466-0.59082-0.33151-1.2283-0.33151-1.8931 0-3.0641 2.4839-5.5479 5.5479-5.5479 1.5381 0 2.9298 0.62591 3.9348 1.6367 0.28962 0.2912 0.5471 0.61458 0.76625 0.9642 0.20721 0.32926 0.38042 0.68205 0.51516 1.0532 0.21471 0.59103 0.33177 1.2287 0.33177 1.8938z" stroke-width=".013388"/>
   <path d="m12.313 8.4665c0 0.46105-0.08116 0.90309-0.22998 1.3128-0.10345 0.28475-0.23955 0.55396-0.40406 0.80298-0.06891 0.1047-0.143 0.2058-0.22165 0.30297-0.25179 0.31096-0.551 0.58176-0.88689 0.80158-0.1237 0.081-0.25227 0.1551-0.38538 0.22149-0.5169 0.25869-1.1004 0.4042-1.7179 0.4042-0.61755 0-1.201-0.14551-1.7179-0.40421-0.13312-0.066407-0.26184-0.1405-0.38554-0.22149-0.34017-0.22275-0.64298-0.4978-0.89678-0.81393-0.078797-0.097949-0.15274-0.19999-0.22165-0.30563-0.16012-0.24488-0.29276-0.50909-0.39416-0.78832-0.1488-0.40957-0.22981-0.85146-0.22981-1.3123 0-2.1241 1.7219-3.8459 3.8459-3.8459 1.0662 0 2.031 0.43389 2.7277 1.1346 0.20077 0.20186 0.37926 0.42604 0.53118 0.6684 0.14364 0.22825 0.26372 0.47281 0.35712 0.73009 0.14884 0.40971 0.22999 0.85174 0.22999 1.3128z" stroke-width=".0092807"/>
   <path d="m12.725 8.4665c0 0.51045-0.08985 0.99985-0.25462 1.4535-0.11453 0.31526-0.26521 0.61331-0.44735 0.88902-0.07629 0.11592-0.15832 0.22786-0.2454 0.33543-0.27877 0.34428-0.61003 0.64409-0.98191 0.88746-0.13696 0.08968-0.2793 0.17171-0.42667 0.24522-0.57228 0.2864-1.2183 0.44751-1.902 0.44751-0.68371 0-1.3297-0.1611-1.902-0.44752-0.14738-0.073521-0.2899-0.15555-0.42685-0.24522-0.37662-0.24662-0.71187-0.55114-0.99286-0.90114-0.08724-0.10844-0.1691-0.22142-0.2454-0.33837-0.17728-0.27112-0.32413-0.56364-0.43639-0.87278-0.16475-0.45345-0.25443-0.94269-0.25443-1.4529 0-2.3516 1.9063-4.258 4.258-4.258 1.1804 0 2.2486 0.48038 3.0199 1.2562 0.22228 0.22349 0.4199 0.47169 0.58809 0.74002 0.15903 0.2527 0.29197 0.52347 0.39538 0.80832 0.16479 0.45361 0.25463 0.943 0.25463 1.4535z" stroke-width=".010275"/>
   <path d="m13.227 8.4665c0 0.57059-0.10044 1.1177-0.28462 1.6247-0.12803 0.3524-0.29646 0.68557-0.50006 0.99376-0.08528 0.12957-0.17698 0.2547-0.27431 0.37495-0.31161 0.38484-0.6819 0.71997-1.0976 0.99202-0.15309 0.10025-0.3122 0.19194-0.47694 0.27411-0.6397 0.32014-1.3619 0.50023-2.1261 0.50023-0.76426 0-1.4864-0.18008-2.1261-0.50025-0.16474-0.082184-0.32405-0.17388-0.47714-0.27411-0.42099-0.27567-0.79573-0.61607-1.1098-1.0073-0.097518-0.12122-0.18903-0.2475-0.27431-0.37824-0.19816-0.30306-0.36231-0.63004-0.48781-0.97561-0.18416-0.50687-0.28441-1.0538-0.28441-1.6241 0-2.6287 2.1309-4.7596 4.7596-4.7596 1.3195 0 2.5135 0.53697 3.3757 1.4042 0.24846 0.24982 0.46936 0.52726 0.65738 0.8272 0.17777 0.28247 0.32637 0.58514 0.44196 0.90355 0.1842 0.50705 0.28463 1.0541 0.28463 1.6247z" stroke-width=".011486"/>
   <path d="m12.134 8.4666c0 0.43958-0.07737 0.86102-0.21927 1.2516-0.09863 0.27148-0.22839 0.52815-0.38524 0.76558-0.0657 0.09982-0.13634 0.19622-0.21133 0.28885-0.24006 0.29648-0.52533 0.55466-0.84557 0.76424-0.11794 0.07723-0.24052 0.14787-0.36742 0.21117-0.49282 0.24664-1.0492 0.38537-1.6379 0.38537-0.58878 0-1.1451-0.13874-1.6379-0.38538-0.12692-0.063313-0.24965-0.13395-0.36758-0.21117-0.32432-0.21238-0.61302-0.47461-0.85501-0.77601-0.075126-0.093386-0.14562-0.19067-0.21133-0.29139-0.15266-0.23347-0.27912-0.48538-0.3758-0.7516-0.14187-0.39049-0.21911-0.8118-0.21911-1.2512 0-2.0251 1.6417-3.6668 3.6668-3.6668 1.0165 0 1.9364 0.41368 2.6006 1.0817 0.19142 0.19246 0.36159 0.40619 0.50643 0.63726 0.13695 0.21761 0.25143 0.45079 0.34048 0.69608 0.14191 0.39063 0.21927 0.81206 0.21927 1.2516z" stroke-width=".0088484"/>
   <path d="m13.859 8.4665c0 0.64646-0.11379 1.2663-0.32246 1.8407-0.14505 0.39926-0.33588 0.77673-0.56655 1.1259-0.09662 0.1468-0.20051 0.28857-0.31079 0.42481-0.35304 0.43602-0.77258 0.81571-1.2436 1.1239-0.17344 0.11357-0.35372 0.21747-0.54035 0.31056-0.72476 0.36271-1.5429 0.56674-2.4088 0.56674s-1.6841-0.20403-2.4088-0.56676c-0.18665-0.09311-0.36714-0.197-0.54058-0.31056-0.47697-0.31233-0.90154-0.69799-1.2574-1.1412-0.11048-0.13734-0.21416-0.28042-0.31079-0.42854-0.22451-0.34335-0.41049-0.71382-0.55267-1.1054-0.20864-0.57427-0.32223-1.1939-0.32223-1.8401 0-2.9783 2.4143-5.3926 5.3926-5.3926 1.495 0 2.8477 0.60837 3.8246 1.5909 0.28151 0.28304 0.53178 0.59737 0.74479 0.93719 0.2014 0.32004 0.36977 0.66295 0.50073 1.0237 0.20869 0.57448 0.32248 1.1943 0.32248 1.8407z" stroke-width=".013013"/>
   <path d="m12.524 8.4665c0 0.48645-0.08563 0.95287-0.24265 1.3851-0.10915 0.30044-0.25274 0.58448-0.42632 0.8472-0.07271 0.11047-0.15088 0.21714-0.23386 0.31966-0.26566 0.3281-0.58136 0.61381-0.93576 0.84569-0.13052 0.08546-0.26617 0.16364-0.40661 0.23369-0.54537 0.27294-1.1611 0.42646-1.8126 0.42646-0.65157 0-1.2673-0.15353-1.8126-0.42648-0.14045-0.070064-0.27627-0.14824-0.40678-0.23369-0.35891-0.23502-0.67839-0.52523-0.94624-0.85873-0.083137-0.10335-0.16116-0.21101-0.23386-0.32246-0.16894-0.25837-0.30889-0.53714-0.41587-0.83175-0.157-0.43213-0.24248-0.89838-0.24248-1.3846 0-2.2411 1.8167-4.0578 4.0578-4.0578 1.125 0 2.1429 0.45779 2.8779 1.1971 0.21183 0.21298 0.40016 0.44951 0.56044 0.70522 0.15155 0.24083 0.27825 0.49886 0.37679 0.77032 0.15704 0.43228 0.24266 0.89868 0.24266 1.3851z" stroke-width=".0097717"/>
   <path d="m13.563 8.4665c0 0.61102-0.10755 1.1968-0.30478 1.7398-0.1371 0.37737-0.31746 0.73415-0.5355 1.0642-0.09133 0.13875-0.18952 0.27275-0.29375 0.40152-0.33369 0.41212-0.73023 0.771-1.1754 1.0623-0.16394 0.10735-0.33432 0.20555-0.51073 0.29353-0.68503 0.34283-1.4584 0.53568-2.2768 0.53568-0.81842 0-1.5917-0.19285-2.2768-0.53569-0.17642-0.088006-0.34701-0.1862-0.51095-0.29353-0.45082-0.29521-0.85212-0.65973-1.1885-1.0787-0.10443-0.12981-0.20242-0.26504-0.29375-0.40504-0.2122-0.32453-0.38799-0.67469-0.52237-1.0448-0.1972-0.54279-0.30457-1.1284-0.30457-1.7392 0-2.815 2.282-5.097 5.097-5.097 1.413 0 2.6916 0.57502 3.6149 1.5037 0.26607 0.26752 0.50263 0.56462 0.70396 0.88581 0.19036 0.30249 0.3495 0.62661 0.47328 0.96757 0.19725 0.54298 0.3048 1.1288 0.3048 1.7398z" stroke-width=".012299"/>
   <path d="m13.438 8.4665c0 0.59598-0.1049 1.1674-0.29728 1.697-0.13373 0.36809-0.30965 0.71609-0.52232 1.038-0.08908 0.13534-0.18486 0.26604-0.28652 0.39164-0.32548 0.40198-0.71226 0.75203-1.1465 1.0361-0.1599 0.10471-0.3261 0.20049-0.49816 0.28631-0.66817 0.33439-1.4225 0.5225-2.2208 0.5225-0.79829 0-1.5526-0.1881-2.2208-0.52251-0.17208-0.08584-0.33847-0.18162-0.49838-0.28631-0.43973-0.28795-0.83115-0.6435-1.1593-1.0521-0.10186-0.12662-0.19744-0.25852-0.28652-0.39508-0.20698-0.31655-0.37844-0.65809-0.50952-1.0191-0.19235-0.52943-0.29707-1.1006-0.29707-1.6964 0-2.7457 2.2258-4.9715 4.9715-4.9715 1.3783 0 2.6254 0.56087 3.526 1.4667 0.25953 0.26094 0.49026 0.55073 0.68664 0.86402 0.18568 0.29505 0.3409 0.61119 0.46164 0.94376 0.1924 0.52962 0.2973 1.1011 0.2973 1.697z" stroke-width=".011997"/>
   <path d="m13.483 8.4665c0 0.60135-0.10585 1.1779-0.29996 1.7123-0.13493 0.3714-0.31244 0.72254-0.52702 1.0473-0.08989 0.13656-0.18652 0.26844-0.2891 0.39517-0.32841 0.4056-0.71868 0.7588-1.1568 1.0455-0.16134 0.10565-0.32904 0.2023-0.50265 0.28889-0.67419 0.33741-1.4353 0.5272-2.2408 0.5272-0.80548 0-1.5666-0.1898-2.2408-0.52722-0.17363-0.086614-0.34152-0.18326-0.50287-0.28889-0.44369-0.29054-0.83864-0.64929-1.1697-1.0616-0.10278-0.12776-0.19922-0.26085-0.2891-0.39864-0.20885-0.3194-0.38185-0.66402-0.51411-1.0282-0.19409-0.5342-0.29975-1.1106-0.29975-1.7117 0-2.7705 2.2459-5.0163 5.0163-5.0163 1.3907 0 2.6491 0.56592 3.5577 1.4799 0.26187 0.26329 0.49468 0.55569 0.69282 0.8718 0.18735 0.29771 0.34397 0.61669 0.4658 0.95226 0.19413 0.5344 0.29998 1.111 0.29998 1.7123z" stroke-width=".012105"/>
  </g>
  <path d="m11.75 8.4665c0 0.39364-0.06929 0.77106-0.19635 1.1209-0.08832 0.24312-0.20452 0.47297-0.34499 0.68558-0.05884 0.08939-0.1221 0.17572-0.18925 0.25868-0.21498 0.2655-0.47044 0.49671-0.75725 0.68436-0.10562 0.06916-0.21538 0.13242-0.32903 0.18911-0.44132 0.22086-0.93953 0.3451-1.4668 0.3451s-1.0255-0.12424-1.4668-0.34511c-0.11366-0.056698-0.22356-0.11996-0.32917-0.18911-0.29044-0.19018-0.54897-0.42502-0.76569-0.69492-0.067276-0.083631-0.13041-0.17075-0.18925-0.26094-0.13671-0.20908-0.24996-0.43466-0.33654-0.67308-0.12705-0.34969-0.19621-0.72696-0.19621-1.1205 0-1.8135 1.4701-3.2837 3.2837-3.2837 0.91033 0 1.7341 0.37045 2.3289 0.96873 0.17142 0.17235 0.32381 0.36375 0.45352 0.57068 0.12264 0.19488 0.22516 0.40368 0.30491 0.62334 0.12708 0.34981 0.19636 0.72724 0.19636 1.1209z" fill="#870000" stroke-width=".012827"/>
  <path d="m11.267 8.4665c0 0.33571-0.05909 0.65758-0.16746 0.95591-0.07533 0.20734-0.17442 0.40336-0.29422 0.58468-0.05018 0.07624-0.10413 0.14986-0.1614 0.22061-0.18334 0.22643-0.40121 0.42361-0.6458 0.58364-0.090072 0.05898-0.18369 0.11293-0.28061 0.16128-0.37637 0.18836-0.80126 0.29432-1.2509 0.29432s-0.87454-0.10596-1.2509-0.29432c-0.09693-0.048354-0.19066-0.1023-0.28073-0.16128-0.24769-0.1622-0.46818-0.36247-0.653-0.59265-0.057375-0.071323-0.11122-0.14562-0.16139-0.22254-0.11659-0.17831-0.21317-0.37069-0.28701-0.57402-0.10835-0.29822-0.16734-0.61998-0.16734-0.95556 0-1.5466 1.2538-2.8004 2.8004-2.8004 0.77636 0 1.4789 0.31593 1.9861 0.82616 0.14619 0.14698 0.27616 0.31022 0.38677 0.48669 0.10459 0.1662 0.19202 0.34427 0.26003 0.53161 0.10838 0.29833 0.16746 0.62021 0.16746 0.95591z" fill="url(#linearGradient2612)" stroke="url(#linearGradient2632)" stroke-width=".026458"/>
 </g>
</svg>
