<?xml version="1.0" encoding="UTF-8"?>
<svg width="64" height="64" version="1.1" viewBox="0 0 16.933 16.933" xmlns="http://www.w3.org/2000/svg" xmlns:cc="http://creativecommons.org/ns#" xmlns:dc="http://purl.org/dc/elements/1.1/" xmlns:rdf="http://www.w3.org/1999/02/22-rdf-syntax-ns#" xmlns:xlink="http://www.w3.org/1999/xlink">
 <defs>
  <linearGradient id="i" x1="400.4" x2="400.4" y1="545.62" y2="517.62" gradientTransform="matrix(.41967 0 0 .41967 -173.34 -178.23)" gradientUnits="userSpaceOnUse">
   <stop stop-color="#d3d3d3" offset="0"/>
   <stop stop-color="#fcf9f9" offset="1"/>
  </linearGradient>
  <linearGradient id="f" x1="400.4" x2="400.4" y1="545.62" y2="517.62" gradientTransform="matrix(.43343 0 0 .43343 -193.09 -179.69)" gradientUnits="userSpaceOnUse">
   <stop stop-color="#8d3aff" offset="0"/>
   <stop stop-color="#ff3680" offset="1"/>
  </linearGradient>
  <linearGradient id="b" x1="350.07" x2="350.07" y1="547.07" y2="499.07" gradientTransform="matrix(.26458 0 0 .26458 -70.788 -134.48)" gradientUnits="userSpaceOnUse">
   <stop stop-color="#3889e9" offset="0"/>
   <stop stop-color="#5ea5fb" offset="1"/>
  </linearGradient>
  <linearGradient id="linearGradient1448" x1="3.9687" x2="3.9687" y1="16.404" y2="2.6458" gradientTransform="matrix(.91667 0 0 .91667 .70544 .70544)" gradientUnits="userSpaceOnUse">
   <stop stop-color="#96aab4" offset="0"/>
   <stop stop-color="#d2dce1" offset="1"/>
  </linearGradient>
  <filter id="filter861" x="-.027" y="-.027" width="1.054" height="1.054" color-interpolation-filters="sRGB">
   <feGaussianBlur stdDeviation="0.16371"/>
  </filter>
  <linearGradient id="linearGradient1107" x1="23.527" x2="24.064" y1="39.176" y2="8" gradientTransform="matrix(.2894 0 0 .28939 1.5209 1.5211)" gradientUnits="userSpaceOnUse">
   <stop stop-color="#1d1e1e" offset="0"/>
   <stop stop-color="#44484c" offset="1"/>
  </linearGradient>
 </defs>
 <metadata>
  <rdf:RDF>
   <cc:Work rdf:about="">
    <dc:format>image/svg+xml</dc:format>
    <dc:type rdf:resource="http://purl.org/dc/dcmitype/StillImage"/>
    <dc:title/>
   </cc:Work>
  </rdf:RDF>
 </metadata>
 <g transform="translate(-21.834 .89695)" fill="#5e4aa6" stroke-width=".26458">
  <circle cx="-330.35" cy="-328.38" r="0"/>
  <circle cx="-312.11" cy="-326.25" r="0"/>
  <circle cx="-306.02" cy="-333.07" r="0"/>
  <circle cx="-308.84" cy="-326.01" r="0"/>
 </g>
 <circle cx="-5.2346" cy="44.956" r="0" fill="url(#i)" image-rendering="optimizeSpeed" stroke-width=".26458"/>
 <circle cx="-19.466" cy="50.818" r="0" fill="none" image-rendering="optimizeSpeed" stroke="url(#f)" stroke-width=".56347"/>
 <g transform="translate(-21.834 .89695)" fill="#5e4aa6" stroke-width=".26458">
  <circle cx="-330.35" cy="-328.38" r="0"/>
  <circle cx="-312.11" cy="-326.25" r="0"/>
  <circle cx="-306.02" cy="-333.07" r="0"/>
  <circle cx="-308.84" cy="-326.01" r="0"/>
 </g>
 <circle cx="22.285" cy="3.9129" r="0" fill="url(#b)" stroke-width=".26458"/>
 <rect x="1.1905" y="1.1905" width="14.552" height="14.552" ry="3.4395" filter="url(#filter861)" opacity=".3" stroke-opacity=".95294" stroke-width=".083153"/>
 <rect x="1.1905" y="1.1905" width="14.552" height="14.552" ry="3.4395" fill="url(#linearGradient1448)" stroke-opacity=".95294" stroke-width=".083153"/>
 <path d="m8.4852 3.8363c-0.17383-3.076e-4 -0.34847 0.0086252-0.52193 0.027782-0.13425 0.014816-0.23319 0.13036-0.22867 0.26484 0.015075 0.42935-0.23962 0.82664-0.63433 0.98831-0.37851 0.15461-0.87046 0.041321-1.1459-0.26161-0.091039-0.09979-0.2434-0.11172-0.34946-0.02907-0.27752 0.21772-0.53013 0.4674-0.74931 0.74091-0.085489 0.10633-0.072801 0.25992 0.027775 0.3514 0.32228 0.29184 0.42645 0.75641 0.25903 1.1556-0.15984 0.3806-0.55523 0.62593-1.0077 0.62593-0.14682-0.00473-0.25136 0.09389-0.26743 0.22738-0.040726 0.34786-0.040913 0.70221-2e-3 1.0529 0.014513 0.13073 0.17091 0.22802 0.3036 0.22802 0.40322-0.01031 0.78974 0.23914 0.95214 0.63432 0.16188 0.39466 0.057713 0.8543-0.25903 1.1446-0.099064 0.09099-0.11063 0.243-0.027113 0.34881 0.21515 0.27402 0.46202 0.52322 0.73251 0.7409 0.10609 0.08549 0.26008 0.07419 0.35204-0.02711 0.27704-0.30642 0.77273-0.41982 1.1543-0.25967 0.39967 0.16717 0.65119 0.57123 0.62657 1.0051-8e-3 0.13627 0.092126 0.25444 0.22737 0.27001 0.17693 0.02064 0.35442 0.03099 0.53291 0.03099 0.16942 0 0.33958-0.0095 0.50901-0.02841 0.13428-0.01481 0.23318-0.13012 0.22867-0.26484-0.01555-0.42911 0.23948-0.82627 0.63368-0.98766 0.38106-0.15563 0.87108-0.04101 1.1466 0.26161 0.09155 0.09958 0.24282 0.11079 0.34946 0.02841 0.27701-0.21721 0.52908-0.466 0.7493-0.74026 0.08545-0.10609 0.07329-0.2606-0.02778-0.35204-0.32228-0.29185-0.4271-0.75604-0.25967-1.155 0.1574-0.37554 0.53829-0.62786 0.94761-0.62786l0.05749 2e-3c0.13276 0.01081 0.25456-0.09186 0.27065-0.22737 0.0408-0.34818 0.04133-0.70221 2e-3 -1.0529h6.62e-4c-0.01465-0.13017-0.16654-0.22738-0.29778-0.22738-0.42434 0-0.80132-0.24966-0.95924-0.63497-0.16133-0.39466-0.05723-0.85455 0.25902-1.1446 0.09955-0.091 0.11188-0.24365 0.02841-0.34946-0.21718-0.27581-0.46427-0.52503-0.7338-0.74093-0.10554-0.084693-0.26053-0.072257-0.35204 0.02907-0.276 0.30566-0.77187 0.41886-1.155 0.25903-0.3987-0.16771-0.64988-0.57148-0.62528-1.0051 0.008125-0.13621-0.091577-0.25484-0.22738-0.27065-0.17299-0.020009-0.34618-0.030526-0.52001-0.031022zm1.6052 2.1278c1.0148 0-0.06353 1.445-0.63433 1.445-0.57088 0-0.38047-1.445 0.63433-1.445zm-1.6188 0.18022c0.57129-0.074126 0.23743 1.1044-0.066538 1.0858-0.30408-0.018554-0.50455-1.0117 0.066538-1.0858zm-0.9573 0.3908c0.37566-0.039872 0.34849 0.89067 0.10723 0.93986-0.25714 0.05255-0.64699-0.72913-0.18797-0.91854 0.028675-0.011838 0.055701-0.018653 0.080739-0.021299zm-0.71313 0.61172c0.27937 0.0093877 0.40039 0.73257 0.21123 0.81584-0.21618 0.095118-0.70721-0.51867-0.33977-0.77256 0.045951-0.031717 0.088639-0.044618 0.12854-0.043276zm2.0987 0.46896c0.47265 8e-3 0.85441 0.16335 0.90562 0.46767 0.16454 0.97767-2.3313 1.3346-1.3914 2.0503 0.29526 0.2248 0.59665 0.05287 0.55099-0.29585v-6.61e-4c-0.038113-0.29091 1.0223-0.4668 0.93922-0.02712-0.10878 0.57657-0.68967 1.0316-1.1937 1.0316-1.0246 0-2.0071-1.1914-1.8151-2.0503 0.17721-0.79362 1.2166-1.189 2.0044-1.1756z" clip-rule="evenodd" fill="url(#linearGradient1107)" fill-rule="evenodd" stroke-width=".38126"/>
</svg>
