<?xml version="1.0" encoding="UTF-8" standalone="no"?>
<svg
   xmlns:dc="http://purl.org/dc/elements/1.1/"
   xmlns:cc="http://creativecommons.org/ns#"
   xmlns:rdf="http://www.w3.org/1999/02/22-rdf-syntax-ns#"
   xmlns:svg="http://www.w3.org/2000/svg"
   xmlns="http://www.w3.org/2000/svg"
   xmlns:xlink="http://www.w3.org/1999/xlink"
   xmlns:sodipodi="http://sodipodi.sourceforge.net/DTD/sodipodi-0.dtd"
   xmlns:inkscape="http://www.inkscape.org/namespaces/inkscape"
   width="64"
   height="64"
   version="1.1"
   id="svg78"
   sodipodi:docname="ipython-notebook.svg"
   inkscape:version="1.0.1 (3bc2e813f5, 2020-09-07)">
  <metadata
     id="metadata82">
    <rdf:RDF>
      <cc:Work
         rdf:about="">
        <dc:format>image/svg+xml</dc:format>
        <dc:type
           rdf:resource="http://purl.org/dc/dcmitype/StillImage" />
        <dc:title></dc:title>
      </cc:Work>
    </rdf:RDF>
  </metadata>
  <sodipodi:namedview
     pagecolor="#ffffff"
     bordercolor="#666666"
     borderopacity="1"
     objecttolerance="10"
     gridtolerance="10"
     guidetolerance="10"
     inkscape:pageopacity="0"
     inkscape:pageshadow="2"
     inkscape:window-width="1920"
     inkscape:window-height="998"
     id="namedview80"
     showgrid="false"
     inkscape:zoom="4.5906698"
     inkscape:cx="-4.4952929"
     inkscape:cy="28.999927"
     inkscape:window-x="0"
     inkscape:window-y="0"
     inkscape:window-maximized="1"
     inkscape:current-layer="svg78" />
  <defs
     id="defs38">
    <linearGradient
       id="b"
       x1="399.57"
       x2="399.57"
       y1="545.8"
       y2="517.8"
       gradientTransform="matrix(2.1429,0,0,2.1429,-826.36,-1107.5)"
       gradientUnits="userSpaceOnUse">
      <stop
         stop-color="#3889e9"
         offset="0"
         id="stop2" />
      <stop
         stop-color="#5ea5fb"
         offset="1"
         id="stop4" />
    </linearGradient>
    <filter
       id="c"
       x="-.036"
       y="-.036"
       width="1.072"
       height="1.072"
       color-interpolation-filters="sRGB">
      <feGaussianBlur
         stdDeviation="0.41999874"
         id="feGaussianBlur7" />
    </filter>
    <linearGradient
       id="e"
       x1=".187"
       x2=".19"
       y1=".005"
       y2=".999"
       gradientTransform="matrix(3.0429 0 0 3.0429 45.999 38.925)"
       gradientUnits="userSpaceOnUse">
      <stop
         stop-color="#07b3ff"
         offset="0"
         id="stop10" />
      <stop
         stop-color="#007de8"
         offset="1"
         id="stop12" />
    </linearGradient>
    <linearGradient
       id="f"
       x1=".187"
       x2=".19"
       y1=".005"
       y2=".999"
       gradientTransform="matrix(3.0429 0 0 3.0429 45.999 23.71)"
       gradientUnits="userSpaceOnUse">
      <stop
         stop-color="#07b3ff"
         offset="0"
         id="stop15" />
      <stop
         stop-color="#007de8"
         offset="1"
         id="stop17" />
    </linearGradient>
    <linearGradient
       id="g"
       x1=".187"
       x2=".19"
       y1=".005"
       y2=".999"
       gradientTransform="matrix(7.1001 0 0 26.372 37.885 19.653)"
       gradientUnits="userSpaceOnUse">
      <stop
         stop-color="#07b3ff"
         offset="0"
         id="stop20" />
      <stop
         stop-color="#007de8"
         offset="1"
         id="stop22" />
    </linearGradient>
    <linearGradient
       id="h"
       x1=".187"
       x2=".19"
       y1=".005"
       y2=".999"
       gradientTransform="matrix(7.1001 0 0 26.372 16.585 19.653)"
       gradientUnits="userSpaceOnUse">
      <stop
         stop-color="#07b3ff"
         offset="0"
         id="stop25" />
      <stop
         stop-color="#007de8"
         offset="1"
         id="stop27" />
    </linearGradient>
    <filter
       id="d"
       x="-.054375"
       y="-.066923"
       width="1.1088"
       height="1.1338"
       color-interpolation-filters="sRGB">
      <feGaussianBlur
         stdDeviation="0.73536812"
         id="feGaussianBlur30" />
    </filter>
    <linearGradient
       id="a"
       x1="32.02"
       x2="32.02"
       y1="2.043"
       y2="62.045"
       gradientTransform="matrix(244.65,0,0,228.34,152.66,-113.65)"
       gradientUnits="userSpaceOnUse">
      <stop
         stop-color="#eceef0"
         offset="0"
         id="stop33" />
      <stop
         stop-color="#f4f6f8"
         offset="1"
         id="stop35" />
    </linearGradient>
    <linearGradient
       id="linearGradient957">
      <stop
         stop-color="#88888b"
         offset="0"
         id="stop2-3" />
      <stop
         stop-color="#5b5b65"
         offset="1"
         id="stop4-6" />
    </linearGradient>
    <linearGradient
       id="linearGradient862"
       x1="7.9373"
       x2="7.9373"
       y1="15.081"
       y2="1.852"
       gradientTransform="matrix(3.7796,0,0,3.7796,1.1960834,-7.4658403)"
       gradientUnits="userSpaceOnUse">
      <stop
         stop-color="#f3f1ee"
         offset="0"
         id="stop7" />
      <stop
         stop-color="#fff"
         offset="1"
         id="stop9" />
    </linearGradient>
    <linearGradient
       id="linearGradient861"
       x1="10.054"
       x2="10.054"
       y1="4.7624"
       y2="5.027"
       gradientTransform="matrix(4.8595,0,0,7.5592,-18.143,-16)"
       gradientUnits="userSpaceOnUse"
       xlink:href="#linearGradient859" />
    <linearGradient
       id="linearGradient859">
      <stop
         stop-color="#88888b"
         offset="0"
         id="stop13" />
      <stop
         stop-color="#d4d4d8"
         offset="1"
         id="stop15-7" />
    </linearGradient>
    <linearGradient
       id="linearGradient1007"
       x1="46"
       x2="46"
       y1="60"
       y2="30"
       gradientTransform="translate(-81.536923,-8.7304348)"
       gradientUnits="userSpaceOnUse">
      <stop
         stop-color="#1e1e1e"
         offset="0"
         id="stop18" />
      <stop
         stop-color="#3c3c3c"
         offset="1"
         id="stop20-5" />
    </linearGradient>
    <linearGradient
       id="f-9"
       x1="2331.3"
       x2="2331.3"
       y1="435.51"
       y2="45.726"
       gradientTransform="matrix(0.077745,0,0,0.077745,-216.55539,17.555696)"
       gradientUnits="userSpaceOnUse">
      <stop
         stop-color="#807c76"
         offset=".057692"
         id="stop23" />
      <stop
         stop-color="#d4d7d0"
         offset=".38462"
         id="stop25-3" />
      <stop
         stop-color="#bdbfba"
         offset=".55769"
         id="stop27-5" />
      <stop
         stop-color="#acb3ac"
         offset=".63462"
         id="stop29" />
      <stop
         stop-color="#dadfda"
         offset=".75"
         id="stop31" />
      <stop
         stop-color="#c2c7c1"
         offset=".86274"
         id="stop33-6" />
      <stop
         stop-color="#7f7a75"
         offset=".94118"
         id="stop35-2" />
    </linearGradient>
    <radialGradient
       id="radialGradient1042"
       cx="12.171"
       cy="12.171"
       r="4.7624"
       gradientTransform="matrix(3.7796,0,0,3.7796,-81.53539,-8.7303036)"
       gradientUnits="userSpaceOnUse">
      <stop
         offset="0"
         id="stop38" />
      <stop
         offset=".47287"
         id="stop40" />
      <stop
         stop-opacity="0"
         offset="1"
         id="stop42" />
    </radialGradient>
    <linearGradient
       id="linearGradient918"
       x1="10.054"
       x2="10.054"
       y1="4.7624"
       y2="5.027"
       gradientTransform="matrix(4.8595,0,0,7.5592,-18.143,6.0003)"
       gradientUnits="userSpaceOnUse"
       xlink:href="#linearGradient859" />
    <filter
       id="filter924"
       x="-.108"
       y="-.108"
       width="1.216"
       height="1.216"
       color-interpolation-filters="sRGB">
      <feGaussianBlur
         stdDeviation="1.0799946"
         id="feGaussianBlur46" />
    </filter>
    <linearGradient
       id="linearGradient934"
       x1="10.054"
       x2="10.054"
       y1="4.7624"
       y2="5.027"
       gradientTransform="matrix(4.8595,0,0,7.5592,-18.143,-4.9997)"
       gradientUnits="userSpaceOnUse"
       xlink:href="#linearGradient859" />
    <linearGradient
       id="linearGradient967"
       x1="23"
       x2="23"
       y1="18"
       y2="24"
       gradientUnits="userSpaceOnUse"
       xlink:href="#linearGradient957"
       gradientTransform="translate(-81.53539,-8.7303036)" />
    <linearGradient
       id="linearGradient971"
       x1="23"
       x2="23"
       y1="18"
       y2="24"
       gradientTransform="translate(-63.53539,2.2696964)"
       gradientUnits="userSpaceOnUse"
       xlink:href="#linearGradient957" />
    <linearGradient
       id="linearGradient975"
       x1="23"
       x2="23"
       y1="18"
       y2="24"
       gradientTransform="translate(-79.53539,13.269696)"
       gradientUnits="userSpaceOnUse"
       xlink:href="#linearGradient957" />
    <filter
       id="filter883"
       x="-.05999"
       y="-.06001"
       width="1.12"
       height="1.12"
       color-interpolation-filters="sRGB">
      <feGaussianBlur
         stdDeviation="0.21163584"
         id="feGaussianBlur915" />
    </filter>
    <linearGradient
       id="linearGradient1448"
       x1="3.9687"
       x2="3.9687"
       y1="16.404"
       y2="2.6458"
       gradientTransform="matrix(3.4646,0,0,3.4646,2.6661949,2.666201)"
       gradientUnits="userSpaceOnUse">
      <stop
         stop-color="#dcdcdc"
         offset="0"
         id="stop918" />
      <stop
         stop-color="#f0f0f0"
         offset="1"
         id="stop920" />
    </linearGradient>
    <filter
       id="filter861"
       x="-.027"
       y="-.027"
       width="1.054"
       height="1.054"
       color-interpolation-filters="sRGB">
      <feGaussianBlur
         stdDeviation="0.16371"
         id="feGaussianBlur923" />
    </filter>
  </defs>
  <rect
     transform="matrix(3.7796,0,0,3.7796,1.5921958e-5,1.5921958e-5)"
     x="1.1905"
     y="1.1905"
     width="14.552"
     height="14.552"
     ry="3.4395001"
     filter="url(#filter861)"
     opacity="0.3"
     stroke-opacity="0.95294"
     stroke-width="0.083153"
     id="rect928" />
  <rect
     x="4.4995003"
     y="4.4995003"
     width="55.000999"
     height="55.000999"
     ry="13"
     fill="url(#linearGradient1448)"
     stroke-opacity="0.95294"
     stroke-width="0.31428"
     id="rect930"
     style="fill:url(#linearGradient1448)" />
  <g
     transform="matrix(1.0617 0 0 1.0617 -2.6087 -2.8664)"
     filter="url(#d)"
     opacity=".25"
     stroke-width=".94185"
     id="g62">
    <path
       d="m19.628 42.982v-20.286h4.0572v-3.0429h-7.1001v26.372h7.1001v-3.0429z"
       style="isolation:isolate"
       id="path50" />
    <path
       d="m41.942 42.982v-20.286h-4.0572v-3.0429h7.1001v26.372h-7.1001v-3.0429z"
       style="isolation:isolate"
       id="path52" />
    <path
       d="m23.741 25.087 2.7285-1.3389 7.1001 14.505-2.7285 1.3389z"
       style="isolation:isolate"
       id="path54" />
    <path
       d="m36.42 24.002 2.9313 0.84187c-0.30429 1.065-0.62887 2.1199-0.97373 3.1748-0.74044 2.3532-1.5519 4.6861-2.4445 6.9885-0.48686 1.278-1.0244 2.5256-1.5823 3.7732-0.51729 1.1462-1.0954 2.2619-1.7345 3.3472-0.53758 0.93316-1.1867 1.8055-1.9373 2.5763-0.34486 0.355-0.74044 0.65929-1.1766 0.90272-0.46658 0.26372-0.98387 0.40572-1.5215 0.41587h-1.2578v-3.0429h1.1969c0.03043 0 0.06085-0.01013 0.09128-0.03043 0.18258-0.10143 0.34486-0.22315 0.49701-0.37529 0.56801-0.5883 1.065-1.2476 1.4707-1.9677 0.58829-0.99401 1.1259-2.0286 1.5925-3.0835 0.54772-1.1867 1.0549-2.3938 1.5215-3.6109 0.8723-2.2416 1.6635-4.5136 2.3836-6.8161 0.33472-1.0244 0.64915-2.059 0.9433-3.0936z"
       style="isolation:isolate"
       id="path56" />
    <path
       d="m49.042 25.232c0 0.84027-0.68118 1.5215-1.5215 1.5215-0.84027 0-1.5214-0.68118-1.5214-1.5215s0.68118-1.5214 1.5214-1.5214c0.84027 0 1.5215 0.68118 1.5215 1.5214z"
       style="isolation:isolate"
       id="path58" />
    <path
       d="m49.042 40.446c0 0.84028-0.68118 1.5214-1.5215 1.5214-0.84027 0-1.5214-0.68118-1.5214-1.5214 0-0.84027 0.68118-1.5214 1.5214-1.5214 0.84027 0 1.5215 0.68118 1.5215 1.5214z"
       style="isolation:isolate"
       id="path60" />
  </g>
  <g
     transform="matrix(1.0617 0 0 1.0617 -2.6087 -2.8664)"
     stroke-width=".94185"
     id="g76">
    <path
       d="m19.628 42.982v-20.286h4.0572v-3.0429h-7.1001v26.372h7.1001v-3.0429z"
       fill="url(#h)"
       style="isolation:isolate"
       id="path64" />
    <path
       d="m41.942 42.982v-20.286h-4.0572v-3.0429h7.1001v26.372h-7.1001v-3.0429z"
       fill="url(#g)"
       style="isolation:isolate"
       id="path66" />
    <path
       d="m23.741 25.087 2.7285-1.3389 7.1001 14.505-2.7285 1.3389z"
       fill="#3e424d"
       style="isolation:isolate"
       id="path68" />
    <path
       d="m36.42 24.002 2.9313 0.84187c-0.30429 1.065-0.62887 2.1199-0.97373 3.1748-0.74044 2.3532-1.5519 4.6861-2.4445 6.9885-0.48686 1.278-1.0244 2.5256-1.5823 3.7732-0.51729 1.1462-1.0954 2.2619-1.7345 3.3472-0.53758 0.93316-1.1867 1.8055-1.9373 2.5763-0.34486 0.355-0.74044 0.65929-1.1766 0.90272-0.46658 0.26372-0.98387 0.40572-1.5215 0.41587h-1.2578v-3.0429h1.1969c0.03043 0 0.06085-0.01013 0.09128-0.03043 0.18258-0.10143 0.34486-0.22315 0.49701-0.37529 0.56801-0.5883 1.065-1.2476 1.4707-1.9677 0.58829-0.99401 1.1259-2.0286 1.5925-3.0835 0.54772-1.1867 1.0549-2.3938 1.5215-3.6109 0.8723-2.2416 1.6635-4.5136 2.3836-6.8161 0.33472-1.0244 0.64915-2.059 0.9433-3.0936z"
       fill="#3e424d"
       style="isolation:isolate"
       id="path70" />
    <path
       d="m49.042 25.232c0 0.84027-0.68118 1.5215-1.5215 1.5215-0.84027 0-1.5214-0.68118-1.5214-1.5215s0.68118-1.5214 1.5214-1.5214c0.84027 0 1.5215 0.68118 1.5215 1.5214z"
       fill="url(#f)"
       style="isolation:isolate"
       id="path72" />
    <path
       d="m49.042 40.446c0 0.84028-0.68118 1.5214-1.5215 1.5214-0.84027 0-1.5214-0.68118-1.5214-1.5214 0-0.84027 0.68118-1.5214 1.5214-1.5214 0.84027 0 1.5215 0.68118 1.5215 1.5214z"
       fill="url(#e)"
       style="isolation:isolate"
       id="path74" />
  </g>
</svg>
