<?xml version="1.0" encoding="UTF-8" standalone="no"?>
<svg
   xmlns:dc="http://purl.org/dc/elements/1.1/"
   xmlns:cc="http://creativecommons.org/ns#"
   xmlns:rdf="http://www.w3.org/1999/02/22-rdf-syntax-ns#"
   xmlns:svg="http://www.w3.org/2000/svg"
   xmlns="http://www.w3.org/2000/svg"
   xmlns:xlink="http://www.w3.org/1999/xlink"
   xmlns:sodipodi="http://sodipodi.sourceforge.net/DTD/sodipodi-0.dtd"
   xmlns:inkscape="http://www.inkscape.org/namespaces/inkscape"
   width="64"
   height="64"
   version="1.1"
   id="svg125"
   sodipodi:docname="java.svg"
   inkscape:version="1.0.1 (3bc2e813f5, 2020-09-07)">
  <metadata
     id="metadata129">
    <rdf:RDF>
      <cc:Work
         rdf:about="">
        <dc:format>image/svg+xml</dc:format>
        <dc:type
           rdf:resource="http://purl.org/dc/dcmitype/StillImage" />
        <dc:title></dc:title>
      </cc:Work>
    </rdf:RDF>
  </metadata>
  <sodipodi:namedview
     pagecolor="#ffffff"
     bordercolor="#666666"
     borderopacity="1"
     objecttolerance="10"
     gridtolerance="10"
     guidetolerance="10"
     inkscape:pageopacity="0"
     inkscape:pageshadow="2"
     inkscape:window-width="1920"
     inkscape:window-height="998"
     id="namedview127"
     showgrid="false"
     inkscape:zoom="4.5906698"
     inkscape:cx="58.641133"
     inkscape:cy="37.198949"
     inkscape:window-x="0"
     inkscape:window-y="0"
     inkscape:window-maximized="1"
     inkscape:current-layer="svg125" />
  <defs
     id="defs85">
    <linearGradient
       id="b"
       x1="408.25"
       x2="407.94"
       y1="547.6"
       y2="498.89"
       gradientTransform="matrix(1.3276,0,0,1.3276,-391.80347,-683.78657)"
       gradientUnits="userSpaceOnUse">
      <stop
         stop-color="#fff"
         offset="0"
         id="stop2" />
      <stop
         stop-color="#e6e6e6"
         offset="1"
         id="stop4" />
    </linearGradient>
    <filter
       id="d"
       x="-.058883"
       y="-.061161"
       width="1.1178"
       height="1.1223"
       color-interpolation-filters="sRGB">
      <feGaussianBlur
         stdDeviation="10.562379"
         id="feGaussianBlur7" />
    </filter>
    <filter
       id="c"
       x="-.036"
       y="-.036"
       width="1.072"
       height="1.072"
       color-interpolation-filters="sRGB">
      <feGaussianBlur
         stdDeviation="0.88972449"
         id="feGaussianBlur10" />
    </filter>
    <radialGradient
       id="l"
       cx="62.625"
       cy="4.625"
       r="10.625"
       gradientTransform="matrix(1.7391,0,0,0.57064,-87.52,34.352)"
       gradientUnits="userSpaceOnUse"
       xlink:href="#a" />
    <linearGradient
       id="a">
      <stop
         offset="0"
         id="stop14" />
      <stop
         stop-opacity="0"
         offset="1"
         id="stop16" />
    </linearGradient>
    <radialGradient
       id="k"
       cx="118.48"
       cy="58.119"
       r="13.983"
       gradientTransform="matrix(-0.40417,0.4026,-0.25545,-0.25644,101.46,-7.9535)"
       gradientUnits="userSpaceOnUse">
      <stop
         stop-color="#fefefe"
         offset="0"
         id="stop19" />
      <stop
         stop-color="#b4b4b3"
         offset="1"
         id="stop21" />
    </radialGradient>
    <linearGradient
       id="r"
       x1="34.463"
       x2="40.883"
       y1="24.868"
       y2="27.884"
       gradientTransform="matrix(1.731,0,0,1.7321,-21.483,-21.131)"
       gradientUnits="userSpaceOnUse"
       xlink:href="#e" />
    <linearGradient
       id="e">
      <stop
         stop-color="#5f5f5f"
         offset="0"
         id="stop25" />
      <stop
         stop-color="#c6c6c6"
         offset="1"
         id="stop27" />
    </linearGradient>
    <radialGradient
       id="i"
       cx="94.239"
       cy="62.312"
       r="13.983"
       gradientTransform="matrix(-0.45004,0.022889,-0.019946,-0.39217,88.662,39.173)"
       gradientUnits="userSpaceOnUse">
      <stop
         stop-color="#fff"
         offset="0"
         id="stop30" />
      <stop
         stop-color="#fff"
         stop-opacity="0"
         offset="1"
         id="stop32" />
    </radialGradient>
    <radialGradient
       id="j"
       cx="106.33"
       cy="65.468"
       r="13.983"
       gradientTransform="matrix(-0.32952,0.027304,-0.013263,-0.16006,75.27,27.026)"
       gradientUnits="userSpaceOnUse"
       xlink:href="#a" />
    <radialGradient
       id="g"
       cx="-6.4537"
       cy="29.206"
       r="32"
       gradientTransform="matrix(-1.2727e-8,0.81386,-0.85578,0,37.81,28.709)"
       gradientUnits="userSpaceOnUse">
      <stop
         stop-color="#eeeeec"
         offset="0"
         id="stop36" />
      <stop
         stop-color="#cacac9"
         offset=".5"
         id="stop38" />
      <stop
         stop-color="#6b6b6b"
         offset="1"
         id="stop40" />
    </radialGradient>
    <linearGradient
       id="n"
       x1="117.3"
       x2="53.303"
       y1="55.031"
       y2="2.3599"
       gradientTransform="matrix(0.57744,0,0,0.57744,-27.534,8.3902)"
       gradientUnits="userSpaceOnUse"
       xlink:href="#e" />
    <filter
       id="u"
       x="-.056301"
       y="-.1126"
       width="1.1126"
       height="1.2252"
       color-interpolation-filters="sRGB">
      <feGaussianBlur
         stdDeviation="1.3737999"
         id="feGaussianBlur44" />
    </filter>
    <linearGradient
       id="o"
       x1="5.6836"
       x2="35.033"
       y1="16.366"
       y2="16.366"
       gradientTransform="matrix(0.55458,0,0,0.40111,18.533,9.6941)"
       gradientUnits="userSpaceOnUse"
       spreadMethod="reflect">
      <stop
         stop-color="#d1d1d1"
         offset="0"
         id="stop47" />
      <stop
         stop-color="#959594"
         offset="1"
         id="stop49" />
    </linearGradient>
    <radialGradient
       id="h"
       cx="8.4375"
       cy="32.535"
       r="26.406"
       gradientTransform="matrix(0.68425,-1.8109e-8,0,0.2772,15.949,11.768)"
       gradientUnits="userSpaceOnUse">
      <stop
         stop-color="#8b6a35"
         offset="0"
         id="stop52" />
      <stop
         stop-color="#885f22"
         offset=".37136"
         id="stop54" />
      <stop
         stop-color="#754d0d"
         offset=".68556"
         id="stop56" />
      <stop
         stop-color="#483816"
         offset="1"
         id="stop58" />
    </radialGradient>
    <linearGradient
       id="p"
       x1="87.05"
       x2="87.05"
       y1="53.75"
       y2="41.73"
       gradientTransform="translate(-64.303,-0.03125)"
       gradientUnits="userSpaceOnUse">
      <stop
         stop-color="#fff"
         offset="0"
         id="stop61" />
      <stop
         stop-color="#fff"
         stop-opacity="0"
         offset="1"
         id="stop63" />
    </linearGradient>
    <filter
       id="t"
       color-interpolation-filters="sRGB">
      <feGaussianBlur
         stdDeviation="0.655"
         id="feGaussianBlur66" />
    </filter>
    <linearGradient
       id="q"
       x1="-1.9371"
       x2="-1.9371"
       y1=".98802"
       y2="31.827"
       gradientTransform="matrix(0.57166,0,0,0.41385,18.435,9.4856)"
       gradientUnits="userSpaceOnUse">
      <stop
         stop-color="#fff"
         offset="0"
         id="stop69" />
      <stop
         stop-color="#fff"
         stop-opacity="0"
         offset="1"
         id="stop71" />
    </linearGradient>
    <linearGradient
       id="s"
       x1="-37.637"
       x2="-36.793"
       y1="280.01"
       y2="273.36"
       gradientTransform="matrix(2.1097,0,0,2.1042,121.03,-537.93)"
       gradientUnits="userSpaceOnUse">
      <stop
         stop-color="#fefefe"
         offset="0"
         id="stop74" />
      <stop
         stop-color="#8c8c8c"
         offset="1"
         id="stop76" />
    </linearGradient>
    <radialGradient
       id="m"
       cx="-42.763"
       cy="277.02"
       r="7.1998"
       gradientTransform="matrix(2.1097,0,0,0.98808,121.03,-228.74)"
       gradientUnits="userSpaceOnUse">
      <stop
         stop-color="#fff"
         offset="0"
         id="stop79" />
      <stop
         stop-color="#ccc"
         offset="1"
         id="stop81" />
    </radialGradient>
    <radialGradient
       id="f"
       cx="62.625"
       cy="4.625"
       r="10.625"
       gradientTransform="matrix(2.3888,0,0,0.78383,-128.21,33.366)"
       gradientUnits="userSpaceOnUse"
       xlink:href="#a" />
    <filter
       id="filter861"
       x="-.027"
       y="-.027"
       width="1.054"
       height="1.054"
       color-interpolation-filters="sRGB">
      <feGaussianBlur
         stdDeviation="0.16371"
         id="feGaussianBlur954" />
    </filter>
    <linearGradient
       id="linearGradient873">
      <stop
         stop-color="#faffff"
         offset="0"
         id="stop957" />
      <stop
         stop-color="#d9d8dc"
         stop-opacity="0"
         offset="1"
         id="stop959" />
    </linearGradient>
    <linearGradient
       id="linearGradient868">
      <stop
         stop-color="#b4c156"
         stop-opacity="0"
         offset="0"
         id="stop962" />
      <stop
         stop-color="#f7ffff"
         offset="1"
         id="stop964" />
    </linearGradient>
    <linearGradient
       id="linearGradient1110">
      <stop
         stop-color="#b90fd2"
         offset="0"
         id="stop967" />
      <stop
         stop-color="#b90fd2"
         stop-opacity="0"
         offset="1"
         id="stop969" />
    </linearGradient>
    <linearGradient
       id="linearGradient1016"
       x1="-.33073"
       x2="2.5513"
       y1="265.37"
       y2="280.06"
       gradientUnits="userSpaceOnUse">
      <stop
         stop-color="#2aa3f9"
         offset="0"
         id="stop972" />
      <stop
         stop-color="#4ad0ee"
         offset="1"
         id="stop974" />
    </linearGradient>
    <linearGradient
       id="linearGradient1026"
       x1=".66146"
       x2=".61421"
       y1="263.82"
       y2="269.34"
       gradientTransform="matrix(1,0,0,0.81595,0,48.428)"
       gradientUnits="userSpaceOnUse">
      <stop
         stop-color="#fff"
         offset="0"
         id="stop977" />
      <stop
         stop-color="#fff"
         stop-opacity="0"
         offset="1"
         id="stop979" />
    </linearGradient>
    <linearGradient
       id="linearGradient1036"
       x1="-.94494"
       x2="-4.1485e-7"
       y1="263.57"
       y2="270.8"
       gradientUnits="userSpaceOnUse">
      <stop
         stop-color="#5e7bf1"
         offset="0"
         id="stop982" />
      <stop
         stop-color="#5e7bf1"
         stop-opacity="0"
         offset="1"
         id="stop984" />
    </linearGradient>
    <radialGradient
       id="radialGradient1050"
       cx="1.1103"
       cy="269.48"
       r="10.371"
       gradientUnits="userSpaceOnUse">
      <stop
         stop-color="#5e7bf1"
         stop-opacity=".88333"
         offset="0"
         id="stop987" />
      <stop
         stop-color="#5e7bf1"
         stop-opacity="0"
         offset="1"
         id="stop989" />
    </radialGradient>
    <linearGradient
       id="linearGradient1080"
       x1="1.1812"
       x2=".75595"
       y1="280.53"
       y2="266.83"
       gradientUnits="userSpaceOnUse">
      <stop
         stop-color="#02bafd"
         offset="0"
         id="stop992" />
      <stop
         stop-color="#02bafd"
         stop-opacity="0"
         offset="1"
         id="stop994" />
    </linearGradient>
    <linearGradient
       id="linearGradient1092"
       x1="-16.103"
       x2="-15.568"
       y1="300.61"
       y2="292.12"
       gradientUnits="userSpaceOnUse">
      <stop
         stop-color="#5812d2"
         offset="0"
         id="stop997" />
      <stop
         stop-color="#9239ee"
         offset="1"
         id="stop999" />
    </linearGradient>
    <radialGradient
       id="radialGradient1102"
       cx="-15.799"
       cy="297.12"
       r="3.2072"
       gradientTransform="matrix(3.7294,0.092769,-0.02746,1.1039,51.175,-30.932)"
       gradientUnits="userSpaceOnUse">
      <stop
         stop-color="#7eeeee"
         stop-opacity=".02809"
         offset="0"
         id="stop1002" />
      <stop
         stop-color="#7eeeee"
         stop-opacity=".92697"
         offset="1"
         id="stop1004" />
    </radialGradient>
    <linearGradient
       id="linearGradient1112"
       x1="-15.702"
       x2="-15.769"
       y1="296.8"
       y2="292.39"
       gradientUnits="userSpaceOnUse"
       xlink:href="#linearGradient1110" />
    <linearGradient
       id="linearGradient1126"
       x1="-16.638"
       x2="-16.37"
       y1="302.55"
       y2="299"
       gradientUnits="userSpaceOnUse">
      <stop
         stop-color="#8615d3"
         offset="0"
         id="stop1008" />
      <stop
         stop-color="#8615d3"
         stop-opacity="0"
         offset="1"
         id="stop1010" />
    </linearGradient>
    <radialGradient
       id="radialGradient870"
       cx="-31.188"
       cy="275.39"
       r="7.6186"
       gradientTransform="matrix(1.3842,-0.12829,-0.017808,0.49328,16.318,129.38)"
       gradientUnits="userSpaceOnUse"
       xlink:href="#linearGradient868" />
    <radialGradient
       id="radialGradient875"
       cx="-31.242"
       cy="264.82"
       r="2.3978"
       gradientTransform="matrix(1,0,0,0.53202,0,124.1)"
       gradientUnits="userSpaceOnUse"
       xlink:href="#linearGradient873" />
    <linearGradient
       id="linearGradient900"
       x1="-31.426"
       x2="-31.155"
       y1="264.03"
       y2="275.88"
       gradientUnits="userSpaceOnUse">
      <stop
         stop-color="#fe0079"
         offset="0"
         id="stop1015" />
      <stop
         stop-color="#fe574b"
         offset="1"
         id="stop1017" />
    </linearGradient>
    <linearGradient
       id="linearGradient928"
       x1="-31.123"
       x2="-30.98"
       y1="278.22"
       y2="274.45"
       gradientUnits="userSpaceOnUse">
      <stop
         stop-color="#ffbe59"
         offset="0"
         id="stop1020" />
      <stop
         stop-color="#ffbe59"
         stop-opacity="0"
         offset="1"
         id="stop1022" />
    </linearGradient>
    <linearGradient
       id="linearGradient1448-3"
       x1="3.9687"
       x2="3.9687"
       y1="16.404"
       y2="2.6458"
       gradientTransform="matrix(3.4646478,0,0,3.4646478,2.6662814,2.6662814)"
       gradientUnits="userSpaceOnUse">
      <stop
         stop-color="#dcdcdc"
         offset="0"
         id="stop1025" />
      <stop
         stop-color="#f0f0f0"
         offset="1"
         id="stop1027" />
    </linearGradient>
    <linearGradient
       inkscape:collect="always"
       id="linearGradient4989">
      <stop
         style="stop-color:#e3e3e3;stop-opacity:1"
         offset="0"
         id="stop4985" />
      <stop
         id="stop4995"
         offset="0.15983216"
         style="stop-color:#ebebeb;stop-opacity:1" />
      <stop
         style="stop-color:#c8c8c8;stop-opacity:1"
         offset="0.50867915"
         id="stop4997" />
      <stop
         style="stop-color:#9a9a9a;stop-opacity:1"
         offset="1"
         id="stop4987" />
    </linearGradient>
    <linearGradient
       inkscape:collect="always"
       xlink:href="#linearGradient4989"
       id="linearGradient4993"
       gradientUnits="userSpaceOnUse"
       x1="487.60098"
       y1="177.82596"
       x2="515.04352"
       y2="187.03033"
       gradientTransform="translate(654.53235,-41.725922)" />
    <filter
       y="-.15"
       x="-.1"
       height="1.3"
       width="1.2"
       id="filter4423">
      <feGaussianBlur
         id="feGaussianBlur4292"
         stdDeviation=".715" />
    </filter>
  </defs>
  <g
     transform="matrix(3.779602,0,0,3.779602,-82.523831,3.390113)"
     fill="#5e4aa6"
     stroke-width="0.26458"
     id="g1042">
    <circle
       cx="-330.35001"
       cy="-328.38"
       r="0"
       id="circle1034" />
    <circle
       cx="-312.10999"
       cy="-326.25"
       r="0"
       id="circle1036" />
    <circle
       cx="-306.01999"
       cy="-333.07001"
       r="0"
       id="circle1038" />
    <circle
       cx="-308.84"
       cy="-326.01001"
       r="0"
       id="circle1040" />
  </g>
  <rect
     x="1.1905"
     y="1.1905"
     width="14.552"
     height="14.552"
     ry="3.4395001"
     filter="url(#filter861)"
     opacity="0.3"
     stroke-opacity="0.95294"
     stroke-width="0.083153"
     id="rect1044"
     transform="matrix(3.779602,0,0,3.779602,-1.011042e-6,-1.011042e-6)" />
  <rect
     x="4.4996152"
     y="4.4996152"
     width="55.000767"
     height="55.000767"
     ry="12.999942"
     fill="url(#linearGradient1448-3)"
     stroke-opacity="0.95294"
     stroke-width="0.314285"
     id="rect1046"
     style="fill:url(#linearGradient1448-3)" />
  <g
     transform="matrix(0.87179,0,0,0.87102,4.9448688,4.0721)"
     stroke-width="1.1476"
     id="g97">
    <ellipse
       cx="31.034"
       cy="44.84"
       rx="19.931999"
       ry="9.9954996"
       fill="#808080"
       id="ellipse91" />
    <ellipse
       cx="31.034"
       cy="43.726002"
       rx="19.931999"
       ry="9.9954996"
       fill="url(#s)"
       stroke="#999999"
       stroke-linecap="round"
       stroke-width="0.43373"
       id="ellipse93"
       style="fill:url(#s)" />
    <ellipse
       cx="31.034"
       cy="44.977001"
       rx="15.189"
       ry="7.1139998"
       fill="url(#m)"
       stroke="#808080"
       stroke-linecap="round"
       stroke-width="0.21686"
       id="ellipse95"
       style="fill:url(#m)" />
  </g>
  <g
     transform="matrix(1,0,0,1.0078,10.470632,6.6298)"
     id="g123">
    <path
       d="m 39.87,36.991 c 0,3.3486 -8.2729,6.0631 -18.478,6.0631 -10.2051,0 -18.478,-2.7145 -18.478,-6.0631 0,-3.3486 8.2729,-6.0631 18.478,-6.0631 10.2051,0 18.478,2.7145 18.478,6.0631 z"
       fill="url(#l)"
       fill-rule="evenodd"
       opacity="0.3"
       id="path99"
       style="fill:url(#l)" />
    <path
       d="M 35.725,31.657 C 39.27,31.343 47.081,30.475 46.52,21.48 c -0.03,-0.478 -0.154,-0.968 -0.367,-1.347 -0.268,-0.452 -0.557,-0.752 -0.955,-1.048 -1.822,-1.306 -5.123,-1.103 -7.49,-1.103 -7.761,1.62 -9.403,14.688 -1.983,13.675 z m 1.2442,-10.554 h 6.561 c 0.24255,8.2688 -6.5422,6.5202 -6.5422,6.5202 l -0.01879,-6.098 1e-6,-0.42223 z"
       fill="url(#k)"
       stroke="url(#r)"
       id="path101"
       style="fill:url(#k);stroke:url(#r)" />
    <path
       d="m 37.754,18.272 c -3.7324,0.77886 -6.0068,4.339 -6.442,7.5789 -0.21762,1.62 0.02712,3.1421 0.73984,4.1684 0.71273,1.0263 1.871,1.5954 3.6451,1.3534 0.0061,-1.9e-4 0.01204,-1.9e-4 0.01805,0 1.6097,-0.1427 5.8294,-1.0146 8.0585,-3.1026 1.1146,-1.044 0.60635,-3.026 1.3249,-4.0793 0.71852,-1.0533 1.1368,-2.031 1.1368,-2.7067 0,-0.41158 -0.15079,-0.86719 -0.34285,-1.209 -0.25218,-0.42605 -0.49211,-0.67825 -0.86616,-0.95638 -1.664,-1.1928 -4.8927,-1.0487 -7.2721,-1.0466 z m -0.83007,2.9594 c 0.01802,-0.0017 0.03612,-0.0017 0.05414,0 0,0 4.1123,-0.1684 5.4834,-0.1684 0.0766,-1.12e-4 -0.05417,-0.05418 0,0 0.05416,0.05417 1e-4,-0.07661 0,0 2e-6,1.6107 0.25436,4.2614 -0.89302,5.002 -1.1474,0.74069 -2.2917,1.1007 -2.2917,1.1007 -0.08737,0.02895 -0.18333,0.01444 -0.25823,-0.03906 -0.07491,-0.05351 -0.11975,-0.13956 -0.12071,-0.2316 l -2.209,-5.375 c -0.0027,-0.14056 0.09645,-0.26255 0.23458,-0.28872 l 6e-6,-2.4e-5 z"
       fill="url(#i)"
       id="path103"
       style="fill:url(#i)" />
    <path
       d="m 46.773,36.991 c 0,4.5996 -11.364,8.3282 -25.381,8.3282 -14.018,0 -25.381,-3.7286 -25.381,-8.3282 0,-4.5996 11.364,-8.3282 25.381,-8.3282 14.018,0 25.381,3.7286 25.381,8.3282 z"
       fill="url(#f)"
       fill-rule="evenodd"
       opacity="0.3"
       id="path105"
       style="fill:url(#f)" />
    <path
       d="m 37.754,18.272 c -3.7324,0.77886 -6.0068,4.339 -6.442,7.5789 -0.21762,1.62 0.02712,3.1421 0.73984,4.1684 0.71273,1.0263 1.871,1.5954 3.6451,1.3534 0.0061,-1.9e-4 0.01204,-1.9e-4 0.01805,0 1.6097,-0.1427 6.5116,-0.83772 8.7407,-2.9257 1.1146,-1.044 -0.07584,-3.2029 0.64268,-4.2562 0.71852,-1.0533 1.1368,-2.031 1.1368,-2.7067 0,-0.41158 -0.15079,-0.86719 -0.34285,-1.209 -0.25218,-0.42605 -0.49211,-0.67825 -0.86616,-0.95638 -1.664,-1.1928 -4.8927,-1.0487 -7.2721,-1.0466 z m -0.83007,2.9594 c 0.01802,-0.0017 0.03612,-0.0017 0.05414,0 0,0 5.1356,0.13492 6.5066,0.13492 0.0766,-1.12e-4 0.15011,0.03026 0.20428,0.08444 0.05416,0.05417 0.08454,0.12767 0.08444,0.20428 2e-6,1.6107 -1.0576,3.6693 -2.205,4.41 -1.1474,0.74069 -2.2917,1.1007 -2.2917,1.1007 -0.08737,0.02895 -0.18333,0.01444 -0.25823,-0.03906 -0.07491,-0.05351 -0.11975,-0.13956 -0.12071,-0.2316 l -2.209,-5.375 c -0.0027,-0.14056 0.09645,-0.26255 0.23458,-0.28872 l 6e-6,-2.4e-5 z"
       fill="url(#j)"
       opacity="0.3"
       id="path107"
       style="fill:url(#j)" />
    <path
       d="m 21.723,9.1481 c -9.6601,0 -17.568,2.7784 -18.153,6.2796 H 3.533909 v 4.2225 c 0.1302,11.19 8.2295,20.228 18.189,20.228 9.9598,0 18.059,-9.0384 18.189,-20.228 9.44e-4,-0.09114 0,-0.17925 0,-0.27068 v -3.9518 h -0.0361 c -0.585,-3.5 -8.493,-6.2789 -18.153,-6.2789 z"
       fill="url(#g)"
       stroke="url(#n)"
       stroke-linecap="square"
       stroke-linejoin="round"
       id="path109"
       style="fill:url(#g);stroke:url(#n)" />
    <path
       transform="matrix(0.5984,0,0,0.48271,18.357,8.4342)"
       d="m 35.033,16.366 c 0.003,8.0869 -13.108,14.643 -29.281,14.643 -16.174,0 -29.284,-6.5565 -29.281,-14.643 -0.003,-8.0869 13.108,-14.643 29.281,-14.643 16.174,0 29.284,6.5565 29.281,14.643 z"
       fill="#ffffff"
       filter="url(#u)"
       opacity="0.6"
       id="path111" />
    <path
       d="m 37.962,16.259 c 0.0017,3.2437 -7.2692,5.8736 -16.239,5.8736 -8.9696,0 -16.24,-2.6299 -16.239,-5.8736 -0.00169,-3.2437 7.2692,-5.8736 16.239,-5.8736 8.9696,0 16.24,2.6299 16.239,5.8736 z"
       fill="url(#o)"
       id="path113"
       style="fill:url(#o)" />
    <path
       d="m 21.722,13.028 c -7.5222,0 -13.846,1.7208 -15.688,4.0504 1.8513,2.3251 8.1757,4.0337 15.688,4.0337 7.5112,0 13.836,-1.7093 15.688,-4.0337 C 35.5665,14.7493 29.2426,13.028 21.722,13.028 Z"
       fill="#36290f"
       id="path115" />
    <path
       d="m 21.722,13.605 c -7.5222,0 -13.846,1.8438 -15.688,4.3398 1.8513,2.4912 8.1757,4.3218 15.688,4.3218 7.5112,0 13.836,-1.8314 15.688,-4.3218 C 35.5665,15.4494 29.2426,13.605 21.722,13.605 Z"
       fill="url(#h)"
       id="path117"
       style="fill:url(#h)" />
    <path
       transform="matrix(0.57744,0,0,0.57744,9.5967,8.4082)"
       d="m 46.072,37.688 c -5.2176,7.1236 -14.348,11.844 -24.75,11.844 -10.381,1e-6 -19.496,-4.7124 -24.719,-11.812 4.0183,9.3841 13.572,16 24.719,16 11.161,0 20.741,-6.6275 24.75,-16.031 z"
       fill="url(#p)"
       filter="url(#t)"
       opacity="0.3"
       id="path119"
       style="fill:url(#p)" />
    <path
       d="m 38.462,16.259 c 0.0018,3.3467 -7.493,6.0601 -16.739,6.0601 -9.2458,0 -16.741,-2.7134 -16.739,-6.0601 -0.00173,-3.3467 7.493,-6.0601 16.739,-6.0601 9.2458,0 16.741,2.7134 16.739,6.0601 z"
       fill="none"
       opacity="0.4"
       stroke="url(#q)"
       stroke-linecap="square"
       stroke-linejoin="round"
       id="path121"
       style="stroke:url(#q)" />
  </g>
</svg>
