<?xml version="1.0" encoding="UTF-8" standalone="no"?>
<svg
   xmlns:dc="http://purl.org/dc/elements/1.1/"
   xmlns:cc="http://creativecommons.org/ns#"
   xmlns:rdf="http://www.w3.org/1999/02/22-rdf-syntax-ns#"
   xmlns:svg="http://www.w3.org/2000/svg"
   xmlns="http://www.w3.org/2000/svg"
   xmlns:xlink="http://www.w3.org/1999/xlink"
   xmlns:sodipodi="http://sodipodi.sourceforge.net/DTD/sodipodi-0.dtd"
   xmlns:inkscape="http://www.inkscape.org/namespaces/inkscape"
   width="64"
   height="64"
   version="1.1"
   viewBox="0 0 64 64"
   id="svg54"
   sodipodi:docname="juk.svg"
   inkscape:version="1.0.1 (3bc2e813f5, 2020-09-07)">
  <sodipodi:namedview
     pagecolor="#ffffff"
     bordercolor="#666666"
     borderopacity="1"
     objecttolerance="10"
     gridtolerance="10"
     guidetolerance="10"
     inkscape:pageopacity="0"
     inkscape:pageshadow="2"
     inkscape:window-width="1920"
     inkscape:window-height="998"
     id="namedview56"
     showgrid="false"
     inkscape:zoom="4.5906698"
     inkscape:cx="28.859423"
     inkscape:cy="22.007707"
     inkscape:window-x="0"
     inkscape:window-y="0"
     inkscape:window-maximized="1"
     inkscape:current-layer="svg54" />
  <metadata
     id="metadata2">
    <rdf:RDF>
      <cc:Work
         rdf:about="">
        <dc:format>image/svg+xml</dc:format>
        <dc:type
           rdf:resource="http://purl.org/dc/dcmitype/StillImage" />
        <dc:title></dc:title>
      </cc:Work>
    </rdf:RDF>
  </metadata>
  <defs
     id="defs22">
    <linearGradient
       id="a">
      <stop
         stop-color="#3889e9"
         offset="0"
         id="stop4" />
      <stop
         stop-color="#5ea5fb"
         offset="1"
         id="stop6" />
    </linearGradient>
    <linearGradient
       id="d"
       x1="399.57"
       x2="399.57"
       y1="545.8"
       y2="517.8"
       gradientUnits="userSpaceOnUse"
       xlink:href="#a" />
    <linearGradient
       id="c"
       x1="400.51"
       x2="400.7"
       y1="546.07"
       y2="517.77"
       gradientTransform="rotate(-90,64.136,-5.6949)"
       gradientUnits="userSpaceOnUse">
      <stop
         stop-color="#8ad86c"
         offset="0"
         id="stop10" />
      <stop
         stop-color="#69dd3c"
         offset="1"
         id="stop12" />
    </linearGradient>
    <linearGradient
       id="b"
       x1="-.5"
       x2="536"
       y1="267.75"
       y2="267.75"
       gradientUnits="userSpaceOnUse"
       xlink:href="#a" />
    <filter
       id="f"
       x="-.036"
       y="-.036"
       width="1.072"
       height="1.072"
       color-interpolation-filters="sRGB">
      <feGaussianBlur
         stdDeviation="0.41999874"
         id="feGaussianBlur16" />
    </filter>
    <filter
       id="filter904"
       x="-.059997"
       y="-.060003"
       width="1.12"
       height="1.12"
       color-interpolation-filters="sRGB">
      <feGaussianBlur
         stdDeviation="0.79996573"
         id="feGaussianBlur19" />
    </filter>
    <linearGradient
       id="b-3"
       gradientUnits="userSpaceOnUse"
       x1="409.64948"
       x2="409.64948"
       y1="542.81616"
       y2="504.69336"
       gradientTransform="matrix(1.5086447,0,0,1.5086447,-506.82944,-758.15982)">
      <stop
         offset="0"
         stop-color="#2a2c2f"
         id="stop7" />
      <stop
         offset="1"
         stop-color="#5e6468"
         id="stop9" />
    </linearGradient>
    <linearGradient
       id="d-5"
       gradientTransform="matrix(0.26735058,0.03755483,-0.03755483,0.26735058,105.72484,-1.0740704)"
       gradientUnits="userSpaceOnUse"
       x1="29.444031"
       x2="29.444031"
       xlink:href="#a-6"
       y1="201.7325"
       y2="18.617405" />
    <linearGradient
       id="a-6">
      <stop
         offset="0"
         stop-color="#ee643a"
         id="stop2" />
      <stop
         offset="1"
         stop-color="#fe9473"
         id="stop4-2" />
    </linearGradient>
    <linearGradient
       id="c-9"
       gradientUnits="userSpaceOnUse"
       x1="412.34048"
       x2="412.34048"
       xlink:href="#a-6"
       y1="542.81616"
       y2="504.69336"
       gradientTransform="matrix(1.5086447,0,0,1.5086447,-506.82944,-758.15982)" />
    <linearGradient
       id="linearGradient927"
       x1="8.4147"
       x2="8.4147"
       y1="14.91"
       y2="2.0739"
       gradientUnits="userSpaceOnUse"
       gradientTransform="matrix(3.779602,0,0,3.779602,-3.33e-7,-1.0001208)">
      <stop
         stop-color="#303030"
         offset="0"
         id="stop963" />
      <stop
         stop-color="#4f4f4f"
         stop-opacity=".99216"
         offset="1"
         id="stop965" />
    </linearGradient>
    <linearGradient
       id="linearGradient862-3"
       x1="7.9373"
       x2="7.9373"
       y1="15.081"
       y2="1.852"
       gradientTransform="matrix(3.7795,0,0,3.7795,1.5969e-4,-0.9685624)"
       gradientUnits="userSpaceOnUse">
      <stop
         stop-color="#1a1a1a"
         offset="0"
         id="stop1025" />
      <stop
         stop-color="#4d4d4d"
         offset="1"
         id="stop1027" />
    </linearGradient>
    <linearGradient
       id="linearGradient884"
       x1="21.016"
       x2="44.623"
       y1="26.164"
       y2="37.223"
       gradientUnits="userSpaceOnUse"
       gradientTransform="translate(1.66e-5,-1.0001034)">
      <stop
         stop-color="#d1d1d1"
         offset="0"
         id="stop1030" />
      <stop
         stop-color="#fff"
         offset=".4419"
         id="stop1032" />
      <stop
         stop-color="#d1d1d1"
         offset="1"
         id="stop1034" />
    </linearGradient>
    <filter
       id="filter1012"
       x="-.10384"
       y="-.11251"
       width="1.2077"
       height="1.225"
       color-interpolation-filters="sRGB">
      <feGaussianBlur
         stdDeviation="1.5000926"
         id="feGaussianBlur1037" />
    </filter>
  </defs>
  <g
     transform="matrix(3.7796,0,0,3.7796,1.66e-5,-1.0001034)"
     shape-rendering="auto"
     id="g1054"
     style="image-rendering:optimizeSpeed">
    <path
       d="m 4.3693,0.52916 c -2.1142,0 -3.8402,1.7835 -3.8402,3.9682 v 8.4675 c 0,2.1846 1.726,3.9682 3.8402,3.9682 h 8.1944 c 2.1142,0 3.8402,-1.7835 3.8402,-3.9682 v -8.4675 c 0,-2.1846 -1.726,-3.9682 -3.8402,-3.9682 z m 0.25704,0.52089 h 7.6808 c 1.8443,0 3.3291,1.5342 3.3291,3.44 v 7.9368 c 0,1.9058 -1.4847,3.44 -3.3291,3.44 h -7.6808 c -1.8443,0 -3.3291,-1.5342 -3.3291,-3.44 v -7.9368 c 0,-1.9058 1.4847,-3.44 3.3291,-3.44 z"
       color="#000000"
       color-rendering="auto"
       dominant-baseline="auto"
       enable-background="accumulate"
       image-rendering="auto"
       opacity="0.01"
       solid-color="#000000"
       stop-color="#000000"
       style="font-variant-ligatures:normal;font-variant-position:normal;font-variant-caps:normal;font-variant-numeric:normal;font-variant-alternates:normal;font-variant-east-asian:normal;font-feature-settings:normal;font-variation-settings:normal;text-indent:0;text-decoration:none;text-decoration-line:none;text-decoration-style:solid;text-decoration-color:#000000;text-transform:none;text-orientation:mixed;white-space:normal;shape-padding:0;shape-margin:0;inline-size:0;isolation:auto;mix-blend-mode:normal"
       id="path1042" />
    <path
       d="m 4.3587,0.79373 c -1.9668,0 -3.5639,1.6528 -3.5639,3.6876 v 8.4996 c 0,2.0348 1.5971,3.6876 3.5639,3.6876 h 8.2162 c 1.9668,0 3.5644,-1.6528 3.5644,-3.6876 v -8.4996 c 0,-2.0348 -1.5976,-3.6876 -3.5644,-3.6876 z m 0.27222,0.25631 h 7.6718 c 1.8422,0 3.3251,1.5342 3.3251,3.44 v 7.9368 c 0,1.9058 -1.483,3.44 -3.3251,3.44 h -7.6718 c -1.8422,0 -3.3251,-1.5342 -3.3251,-3.44 v -7.9368 c 0,-1.9058 1.483,-3.44 3.3251,-3.44 z"
       color="#000000"
       color-rendering="auto"
       dominant-baseline="auto"
       enable-background="accumulate"
       image-rendering="auto"
       opacity="0.01"
       solid-color="#000000"
       stop-color="#000000"
       style="font-variant-ligatures:normal;font-variant-position:normal;font-variant-caps:normal;font-variant-numeric:normal;font-variant-alternates:normal;font-variant-east-asian:normal;font-feature-settings:normal;font-variation-settings:normal;text-indent:0;text-decoration:none;text-decoration-line:none;text-decoration-style:solid;text-decoration-color:#000000;text-transform:none;text-orientation:mixed;white-space:normal;shape-padding:0;shape-margin:0;inline-size:0;isolation:auto;mix-blend-mode:normal"
       id="path1044" />
    <g
       id="g1052">
      <path
         d="m 4.3097,1.0583 c -1.8657,0 -3.3751,1.5383 -3.3751,3.439 v 8.4675 c 0,1.9007 1.57,3.439 3.4357,3.439 h 8.1996 c 1.8657,0 3.4274,-1.5383 3.4274,-3.439 V 4.4973 c 0,-1.9007 -1.51,-3.439 -3.3756,-3.439 h -0.09688 c 1.794,0.086515 3.2138,1.5819 3.2138,3.4318 v 7.9368 c 0,1.9058 -1.5059,3.44 -3.3766,3.44 h -7.7905 c -1.8707,0 -3.3766,-1.5342 -3.3766,-3.44 V 4.4901 c 0,-1.8498 1.4199,-3.3451 3.2138,-3.4318 z"
         color="#000000"
         color-rendering="auto"
         dominant-baseline="auto"
         enable-background="accumulate"
         image-rendering="auto"
         opacity="0.03"
         solid-color="#000000"
         stop-color="#000000"
         style="font-variant-ligatures:normal;font-variant-position:normal;font-variant-caps:normal;font-variant-numeric:normal;font-variant-alternates:normal;font-variant-east-asian:normal;font-feature-settings:normal;font-variation-settings:normal;text-indent:0;text-decoration:none;text-decoration-line:none;text-decoration-style:solid;text-decoration-color:#000000;text-transform:none;text-orientation:mixed;white-space:normal;shape-padding:0;shape-margin:0;inline-size:0;isolation:auto;mix-blend-mode:normal"
         id="path1046" />
      <path
         transform="scale(0.26458)"
         d="m 4,46.969 v 2.0312 c 0,6.6479 5.8957,12 12.544,12 h 30.961 c 6.6479,0 12.495,-5.3521 12.495,-12 V 47.008 C 59.97883,54.1929 54.19,59.971 47,59.971 H 17.002 C 9.7988,59.971 4,54.1723 4,46.969 Z"
         color="#000000"
         color-rendering="auto"
         dominant-baseline="auto"
         enable-background="accumulate"
         image-rendering="auto"
         opacity="0.03"
         solid-color="#000000"
         stop-color="#000000"
         style="font-variant-ligatures:normal;font-variant-position:normal;font-variant-caps:normal;font-variant-numeric:normal;font-variant-alternates:normal;font-variant-east-asian:normal;font-feature-settings:normal;font-variation-settings:normal;text-indent:0;text-decoration:none;text-decoration-line:none;text-decoration-style:solid;text-decoration-color:#000000;text-transform:none;text-orientation:mixed;white-space:normal;shape-padding:0;shape-margin:0;inline-size:0;isolation:auto;mix-blend-mode:normal"
         id="path1048" />
      <path
         d="m 1.0583,11.906 v 0.59234 c 0,1.9386 1.5729,3.4993 3.3318,3.4993 h 8.1603 c 1.7589,0 3.3243,-1.5608 3.3243,-3.4993 v -0.58095 c -0.0056,2.0952 -1.5372,3.7801 -3.4395,3.7801 H 4.4984 c -1.9058,0 -3.44,-1.691 -3.44,-3.7915 z"
         color="#000000"
         color-rendering="auto"
         dominant-baseline="auto"
         enable-background="accumulate"
         image-rendering="auto"
         opacity="0.05"
         solid-color="#000000"
         stop-color="#000000"
         style="font-variant-ligatures:normal;font-variant-position:normal;font-variant-caps:normal;font-variant-numeric:normal;font-variant-alternates:normal;font-variant-east-asian:normal;font-feature-settings:normal;font-variation-settings:normal;text-indent:0;text-decoration:none;text-decoration-line:none;text-decoration-style:solid;text-decoration-color:#000000;text-transform:none;text-orientation:mixed;white-space:normal;shape-padding:0;shape-margin:0;inline-size:0;isolation:auto;mix-blend-mode:normal"
         id="path1050" />
    </g>
  </g>
  <rect
     x="4.0000167"
     y="2.9998965"
     width="56"
     height="56"
     rx="13.002"
     ry="13.002"
     fill="url(#linearGradient862-3)"
     stroke-width="3.7795"
     id="rect1056"
     style="fill:url(#linearGradient862-3);image-rendering:optimizeSpeed" />
  <path
     id="rect1180"
     style="opacity:1;fill:#3296fa;fill-opacity:1;stroke-width:1.74294"
     d="m 36.521153,14.5 c -1.431483,0.195764 -3.771578,0.49063 -3.982883,1.994846 l -3.35141,23.854748 c -1.287708,-0.967962 -3.037862,-1.531937 -4.968392,-1.283373 -3.483722,0.448824 -6.002858,3.126396 -5.669651,5.974325 0.333299,2.847272 3.42171,4.845 6.905367,4.396491 2.779313,-0.358266 4.916321,-2.174707 5.518165,-4.323302 l 3.244179,-22.532226 9.044889,-1.237417 2.085057,-2.82206 c 0,0 0.244964,-0.815639 0.07319,-1.164228 -0.161265,-0.327066 -0.907213,-0.609347 -0.907213,-0.609347 z" />
</svg>
