<?xml version="1.0" encoding="UTF-8" standalone="no"?>
<svg
   version="1.1"
   viewBox="0 0 64 64"
   id="svg27"
   sodipodi:docname="kblackbox.svg"
   xml:space="preserve"
   width="64"
   height="64"
   inkscape:version="1.2.2 (b0a8486541, 2022-12-01)"
   xmlns:inkscape="http://www.inkscape.org/namespaces/inkscape"
   xmlns:sodipodi="http://sodipodi.sourceforge.net/DTD/sodipodi-0.dtd"
   xmlns:xlink="http://www.w3.org/1999/xlink"
   xmlns="http://www.w3.org/2000/svg"
   xmlns:svg="http://www.w3.org/2000/svg"><sodipodi:namedview
     id="namedview29"
     pagecolor="#ffffff"
     bordercolor="#999999"
     borderopacity="1"
     inkscape:showpageshadow="0"
     inkscape:pageopacity="0"
     inkscape:pagecheckerboard="0"
     inkscape:deskcolor="#d1d1d1"
     showgrid="false"
     inkscape:zoom="4.21875"
     inkscape:cx="-13.511111"
     inkscape:cy="13.866667"
     inkscape:window-width="1920"
     inkscape:window-height="989"
     inkscape:window-x="0"
     inkscape:window-y="0"
     inkscape:window-maximized="1"
     inkscape:current-layer="svg27" /><defs
     id="defs7"><linearGradient
       inkscape:collect="always"
       id="linearGradient3828"><stop
         style="stop-color:#ccd3d3;stop-opacity:1"
         offset="0"
         id="stop3824" /><stop
         style="stop-color:#677979;stop-opacity:1"
         offset="1"
         id="stop3826" /></linearGradient><linearGradient
       id="linearGradient3764"
       x1="1"
       x2="47"
       gradientTransform="rotate(-90,36.968232,-5.4372319)"
       gradientUnits="userSpaceOnUse"><stop
         style="stop-color:#60e6cb"
         offset="0"
         id="stop2" /><stop
         style="stop-color:#71e9d2"
         offset="1"
         id="stop4" /></linearGradient><linearGradient
       inkscape:collect="always"
       xlink:href="#linearGradient3828"
       id="linearGradient3830"
       x1="-60.49427"
       y1="19.689377"
       x2="-60.49427"
       y2="38.712891"
       gradientUnits="userSpaceOnUse"
       gradientTransform="matrix(1.4326673,0,0,1.4326673,13.075097,-2.29756)" /><filter
       id="filter1057"
       x="-0.026999999"
       y="-0.026999999"
       width="1.054"
       height="1.054"
       color-interpolation-filters="sRGB"><feGaussianBlur
         stdDeviation="0.61875"
         id="feGaussianBlur10891" /></filter><linearGradient
       id="linearGradient1053"
       x1="-127"
       x2="-72"
       y1="60"
       y2="5"
       gradientTransform="translate(203.93,-0.054156)"
       gradientUnits="userSpaceOnUse"><stop
         stop-color="#1d2123"
         offset="0"
         id="stop10894" /><stop
         stop-color="#33393e"
         stop-opacity=".99608"
         offset="1"
         id="stop10896" /></linearGradient><filter
       id="filter1057-3"
       x="-0.026999999"
       y="-0.026999999"
       width="1.054"
       height="1.054"
       color-interpolation-filters="sRGB"><feGaussianBlur
         stdDeviation="0.61875"
         id="feGaussianBlur11527" /></filter><linearGradient
       id="linearGradient1053-6"
       x1="-127"
       x2="-72"
       y1="60"
       y2="5"
       gradientTransform="translate(131.4999,-0.51045967)"
       gradientUnits="userSpaceOnUse"><stop
         stop-color="#dee0e2"
         offset="0"
         id="stop11530" /><stop
         stop-color="#f1f3f5"
         stop-opacity=".99608"
         offset="1"
         id="stop11532" /></linearGradient><linearGradient
       id="linearGradient862-3"
       x1="7.9373002"
       x2="7.9373002"
       y1="15.081"
       y2="1.852"
       gradientTransform="matrix(3.7795,0,0,3.7795,81.303863,-27.468959)"
       gradientUnits="userSpaceOnUse"><stop
         stop-color="#f1efeb"
         offset="0"
         id="stop276" /><stop
         stop-color="#fdfcfc"
         offset="1"
         id="stop278" /></linearGradient><filter
       id="filter883"
       x="-0.059998688"
       y="-0.060000001"
       width="1.1199974"
       height="1.12"
       color-interpolation-filters="sRGB"><feGaussianBlur
         stdDeviation="0.8"
         id="feGaussianBlur270" /></filter><linearGradient
       id="linearGradient863"
       x1="31.322001"
       x2="31.051001"
       y1="48.136002"
       y2="15.322"
       gradientUnits="userSpaceOnUse"><stop
         stop-color="#2e2e2e"
         offset="0"
         id="stop265" /><stop
         stop-color="#606060"
         offset="1"
         id="stop267" /></linearGradient><filter
       id="filter905"
       x="-0.059999813"
       y="-0.060000001"
       width="1.1199996"
       height="1.12"
       color-interpolation-filters="sRGB"><feGaussianBlur
         stdDeviation="0.8"
         id="feGaussianBlur273" /></filter><linearGradient
       id="linearGradient855"
       x1="30.643999"
       x2="30.372999"
       y1="48.678001"
       y2="15.051"
       gradientUnits="userSpaceOnUse"><stop
         stop-color="#2673cf"
         offset="0"
         id="stop260" /><stop
         stop-color="#26bbcf"
         offset="1"
         id="stop262" /></linearGradient></defs><g
     id="g709"
     transform="translate(-81.303703,27.500306)"><g
       transform="matrix(3.7796,0,0,3.7796,81.30372,-27.5005)"
       shape-rendering="auto"
       id="g295"><path
         d="m 4.3693,0.52916 c -2.1142,0 -3.8402,1.7835 -3.8402,3.9682 v 8.4675 c 0,2.1846 1.726,3.9682 3.8402,3.9682 h 8.1944 c 2.1142,0 3.8402,-1.7835 3.8402,-3.9682 v -8.4675 c 0,-2.1846 -1.726,-3.9682 -3.8402,-3.9682 z m 0.25704,0.52089 h 7.6808 c 1.8443,0 3.3291,1.5342 3.3291,3.44 v 7.9368 c 0,1.9058 -1.4847,3.44 -3.3291,3.44 h -7.6808 c -1.8443,0 -3.3291,-1.5342 -3.3291,-3.44 v -7.9368 c 0,-1.9058 1.4847,-3.44 3.3291,-3.44 z"
         color="#000000"
         color-rendering="auto"
         dominant-baseline="auto"
         image-rendering="auto"
         opacity="0.01"
         solid-color="#000000"
         stop-color="#000000"
         style="font-variant-ligatures:normal;font-variant-position:normal;font-variant-caps:normal;font-variant-numeric:normal;font-variant-alternates:normal;font-variant-east-asian:normal;font-feature-settings:normal;font-variation-settings:normal;text-indent:0;text-decoration-line:none;text-decoration-style:solid;text-decoration-color:#000000;text-transform:none;text-orientation:mixed;white-space:normal;shape-padding:0;shape-margin:0;inline-size:0;isolation:auto;mix-blend-mode:normal"
         id="path283" /><path
         d="m 4.3587,0.79373 c -1.9668,0 -3.5639,1.6528 -3.5639,3.6876 v 8.4996 c 0,2.0348 1.5971,3.6876 3.5639,3.6876 h 8.2162 c 1.9668,0 3.5644,-1.6528 3.5644,-3.6876 v -8.4996 c 0,-2.0348 -1.5976,-3.6876 -3.5644,-3.6876 z m 0.27222,0.25631 h 7.6718 c 1.8422,0 3.3251,1.5342 3.3251,3.44 v 7.9368 c 0,1.9058 -1.483,3.44 -3.3251,3.44 h -7.6718 c -1.8422,0 -3.3251,-1.5342 -3.3251,-3.44 v -7.9368 c 0,-1.9058 1.483,-3.44 3.3251,-3.44 z"
         color="#000000"
         color-rendering="auto"
         dominant-baseline="auto"
         image-rendering="auto"
         opacity="0.01"
         solid-color="#000000"
         stop-color="#000000"
         style="font-variant-ligatures:normal;font-variant-position:normal;font-variant-caps:normal;font-variant-numeric:normal;font-variant-alternates:normal;font-variant-east-asian:normal;font-feature-settings:normal;font-variation-settings:normal;text-indent:0;text-decoration-line:none;text-decoration-style:solid;text-decoration-color:#000000;text-transform:none;text-orientation:mixed;white-space:normal;shape-padding:0;shape-margin:0;inline-size:0;isolation:auto;mix-blend-mode:normal"
         id="path285" /><g
         id="g293"><path
           d="m 4.3097,1.0583 c -1.8657,0 -3.3751,1.5383 -3.3751,3.439 v 8.4675 c 0,1.9007 1.57,3.439 3.4357,3.439 h 8.1996 c 1.8657,0 3.4274,-1.5383 3.4274,-3.439 V 4.4973 c 0,-1.9007 -1.51,-3.439 -3.3756,-3.439 h -0.09688 c 1.794,0.086515 3.2138,1.5819 3.2138,3.4318 v 7.9368 c 0,1.9058 -1.5059,3.44 -3.3766,3.44 h -7.7905 c -1.8707,0 -3.3766,-1.5342 -3.3766,-3.44 V 4.4901 c 0,-1.8498 1.4199,-3.3451 3.2138,-3.4318 z"
           color="#000000"
           color-rendering="auto"
           dominant-baseline="auto"
           image-rendering="auto"
           opacity="0.03"
           solid-color="#000000"
           stop-color="#000000"
           style="font-variant-ligatures:normal;font-variant-position:normal;font-variant-caps:normal;font-variant-numeric:normal;font-variant-alternates:normal;font-variant-east-asian:normal;font-feature-settings:normal;font-variation-settings:normal;text-indent:0;text-decoration-line:none;text-decoration-style:solid;text-decoration-color:#000000;text-transform:none;text-orientation:mixed;white-space:normal;shape-padding:0;shape-margin:0;inline-size:0;isolation:auto;mix-blend-mode:normal"
           id="path287" /><path
           transform="scale(0.26458)"
           d="m 4,46.969 v 2.0312 c 0,6.6479 5.8957,12 12.544,12 h 30.961 c 6.6479,0 12.495,-5.3521 12.495,-12 V 47.008 C 59.97883,54.1929 54.19,59.971 47,59.971 H 17.002 C 9.7988,59.971 4,54.1723 4,46.969 Z"
           color="#000000"
           color-rendering="auto"
           dominant-baseline="auto"
           image-rendering="auto"
           opacity="0.03"
           solid-color="#000000"
           stop-color="#000000"
           style="font-variant-ligatures:normal;font-variant-position:normal;font-variant-caps:normal;font-variant-numeric:normal;font-variant-alternates:normal;font-variant-east-asian:normal;font-feature-settings:normal;font-variation-settings:normal;text-indent:0;text-decoration-line:none;text-decoration-style:solid;text-decoration-color:#000000;text-transform:none;text-orientation:mixed;white-space:normal;shape-padding:0;shape-margin:0;inline-size:0;isolation:auto;mix-blend-mode:normal"
           id="path289" /><path
           d="m 1.0583,11.906 v 0.59234 c 0,1.9386 1.5729,3.4993 3.3318,3.4993 h 8.1603 c 1.7589,0 3.3243,-1.5608 3.3243,-3.4993 v -0.58095 c -0.0056,2.0952 -1.5372,3.7801 -3.4395,3.7801 H 4.4984 c -1.9058,0 -3.44,-1.691 -3.44,-3.7915 z"
           color="#000000"
           color-rendering="auto"
           dominant-baseline="auto"
           image-rendering="auto"
           opacity="0.05"
           solid-color="#000000"
           stop-color="#000000"
           style="font-variant-ligatures:normal;font-variant-position:normal;font-variant-caps:normal;font-variant-numeric:normal;font-variant-alternates:normal;font-variant-east-asian:normal;font-feature-settings:normal;font-variation-settings:normal;text-indent:0;text-decoration-line:none;text-decoration-style:solid;text-decoration-color:#000000;text-transform:none;text-orientation:mixed;white-space:normal;shape-padding:0;shape-margin:0;inline-size:0;isolation:auto;mix-blend-mode:normal"
           id="path291" /></g></g><rect
       x="85.303726"
       y="-23.5005"
       width="56"
       height="56"
       rx="13.002"
       ry="13.002"
       fill="url(#linearGradient862-3)"
       stroke-width="3.7795"
       id="rect297"
       style="fill:url(#linearGradient862-3)" /></g><g
     id="g10510"
     transform="matrix(0.71428571,0,0,0.71428571,74.989838,9.1428573)"><path
       d="m -84.825773,17.44 h 49.2576 l -24.6176,42.56 -24.64,-13.44 z"
       style="fill:#394d4d;fill-opacity:1;stroke-width:2.24"
       id="path21" /><path
       d="m -35.545773,17.44 -24.64,13.44 V 60 l 24.64,-13.44 z"
       style="fill:#1a2828;fill-opacity:1;stroke-width:2.24"
       id="path23" /><path
       d="m -84.825773,17.44 24.64,-13.44 24.64,13.44 -24.64,13.44 z"
       style="fill:#2b3c3c;fill-opacity:1;stroke-width:2.24"
       id="path25" /><path
       id="path3663"
       style="fill:url(#linearGradient3830);fill-opacity:1;stroke:none;stroke-width:1.43267px;stroke-linecap:butt;stroke-linejoin:miter;stroke-opacity:1"
       d="m -79.460657,25.910874 c -3.699035,-0.02398 -3.520108,3.883872 -3.520108,3.883872 l 5.434063,3.648825 -0.148304,-1.866386 c 5.785546,0.810438 9.189218,4.32947 9.189218,7.258475 0,2.929006 -7.154942,1.953128 -7.154942,1.953128 v 2.467993 l 5.526402,3.192722 v -1.86079 c 0,2e-6 7.622237,1.440702 7.622237,-3.962219 0,-5.402922 -8.521303,-11.919528 -13.719468,-13.974103 -1.31667,-0.520413 -2.375473,-0.735983 -3.229098,-0.741517 z m 3.676806,20.118902 v 3.869881 l 5.652321,3.265474 v -3.833505 z" /></g></svg>
