<?xml version="1.0" encoding="UTF-8" standalone="no"?>
<svg
   xmlns:dc="http://purl.org/dc/elements/1.1/"
   xmlns:cc="http://creativecommons.org/ns#"
   xmlns:rdf="http://www.w3.org/1999/02/22-rdf-syntax-ns#"
   xmlns:svg="http://www.w3.org/2000/svg"
   xmlns="http://www.w3.org/2000/svg"
   xmlns:xlink="http://www.w3.org/1999/xlink"
   xmlns:sodipodi="http://sodipodi.sourceforge.net/DTD/sodipodi-0.dtd"
   xmlns:inkscape="http://www.inkscape.org/namespaces/inkscape"
   width="64"
   height="64"
   viewBox="0 0 16.933333 16.933334"
   version="1.1"
   id="svg8"
   inkscape:version="1.0.2 (e86c870879, 2021-01-15)"
   sodipodi:docname="libreoffice-draw.svg">
  <defs
     id="defs2">
    <linearGradient
       id="linearGradient3039"
       x1="18.875"
       x2="73.814003"
       y1="-2.0845001"
       y2="-57.191002"
       gradientTransform="matrix(0.24108833,0,0,0.24108833,-2.6238996,22.050107)"
       gradientUnits="userSpaceOnUse">
      <stop
         stop-color="#28a8ea"
         offset="0"
         id="stop583-6" />
      <stop
         stop-color="#28a8ea"
         offset="1"
         id="stop585-7" />
    </linearGradient>
    <filter
       id="filter3155"
       x="-0.035999998"
       y="-0.035999998"
       width="1.072"
       height="1.072"
       color-interpolation-filters="sRGB">
      <feGaussianBlur
         stdDeviation="0.39858175"
         id="feGaussianBlur608" />
    </filter>
    <linearGradient
       id="linearGradient3177"
       x1="58.133999"
       x2="84.706001"
       y1="-28.681"
       y2="-2.1085"
       gradientTransform="matrix(0.24108833,0,0,0.24108833,-5.2498337,21.819349)"
       gradientUnits="userSpaceOnUse">
      <stop
         stop-color="#0078d4"
         offset="0"
         id="stop614" />
      <stop
         stop-color="#0078d4"
         offset="1"
         id="stop616" />
    </linearGradient>
    <filter
       id="filter3161"
       x="-0.035999998"
       y="-0.035999998"
       width="1.072"
       height="1.072"
       color-interpolation-filters="sRGB">
      <feGaussianBlur
         stdDeviation="0.39858175"
         id="feGaussianBlur611" />
    </filter>
    <linearGradient
       id="linearGradient3059"
       x1="-73.527"
       x2="-46.955002"
       y1="-28.681"
       y2="-2.1085"
       gradientTransform="matrix(0.24108833,0,0,0.24108833,19.869545,15.176679)"
       gradientUnits="userSpaceOnUse">
      <stop
         stop-color="#50d9ff"
         offset="0"
         id="stop588-5" />
      <stop
         stop-color="#30b9da"
         offset="1"
         id="stop590-3" />
    </linearGradient>
    <linearGradient
       id="linearGradient3069"
       x1="9.7529001"
       x2="17.764"
       y1="-29.806"
       y2="-23.42"
       gradientTransform="translate(-15.656,11.859)"
       gradientUnits="userSpaceOnUse">
      <stop
         stop-color="#6e2313"
         offset="0"
         id="stop593-5" />
      <stop
         stop-color="#b74226"
         offset="1"
         id="stop595" />
    </linearGradient>
    <filter
       id="filter3056-6"
       x="-0.083999999"
       y="-0.083999999"
       width="1.168"
       height="1.168"
       color-interpolation-filters="sRGB">
      <feGaussianBlur
         stdDeviation="0.27780551"
         id="feGaussianBlur580" />
    </filter>
    <linearGradient
       id="linearGradient3071"
       x1="9.7894001"
       x2="17.726999"
       y1="-30.691"
       y2="-22.754"
       gradientTransform="matrix(0.91121745,0,0,0.91121745,-8.0389847,38.966792)"
       gradientUnits="userSpaceOnUse">
      <stop
         stop-color="#1683d9"
         offset="0"
         id="stop598-2" />
      <stop
         stop-color="#0a65ca"
         offset="1"
         id="stop600" />
    </linearGradient>
    <linearGradient
       id="linearGradient3073"
       x1="9.7529001"
       x2="17.764"
       y1="-29.806"
       y2="-23.42"
       gradientTransform="matrix(0.91121745,0,0,0.91121745,-8.0389847,38.966792)"
       gradientUnits="userSpaceOnUse">
      <stop
         stop-color="#1683d9"
         offset="0"
         id="stop603-9" />
      <stop
         stop-color="#106fc5"
         offset="1"
         id="stop605" />
    </linearGradient>
    <linearGradient
       id="linearGradient3031"
       x1="9.5909996"
       x2="16.867001"
       y1="-16.139"
       y2="-8.8634005"
       gradientTransform="matrix(0.91468751,0,0,0.91468751,0.25795418,24.636799)"
       gradientUnits="userSpaceOnUse"
       xlink:href="#linearGradient5523" />
    <linearGradient
       id="linearGradient5523">
      <stop
         stop-color="#ba3921"
         offset="0"
         id="stop581" />
      <stop
         stop-color="#ed5630"
         offset="1"
         id="stop583" />
    </linearGradient>
    <linearGradient
       id="linearGradient5525"
       x1="9.5909996"
       x2="16.867001"
       y1="-16.139"
       y2="-8.8634005"
       gradientUnits="userSpaceOnUse"
       xlink:href="#linearGradient5523"
       gradientTransform="matrix(0.91468751,0,0,0.91468751,0.25795418,24.637041)" />
    <linearGradient
       id="linearGradient5509"
       x1="10.004"
       x2="15.368"
       y1="-16.552"
       y2="-21.916"
       gradientUnits="userSpaceOnUse"
       gradientTransform="matrix(0.91468751,0,0,0.91468751,0.25795418,24.637041)">
      <stop
         stop-color="#ff9b73"
         offset="0"
         id="stop586" />
      <stop
         stop-color="#dc8c64"
         offset="1"
         id="stop588" />
    </linearGradient>
    <linearGradient
       id="linearGradient5517"
       x1="2.3151"
       x2="9.5248003"
       y1="-8.8634005"
       y2="-16.139"
       gradientUnits="userSpaceOnUse"
       gradientTransform="matrix(0.91468751,0,0,0.91468751,0.25795418,24.637041)">
      <stop
         stop-color="#dd4d2b"
         offset="0"
         id="stop591" />
      <stop
         stop-color="#bc3a22"
         offset="1"
         id="stop593" />
    </linearGradient>
    <linearGradient
       id="linearGradient5501"
       x1="2.3812001"
       x2="9.5248003"
       y1="-23.283001"
       y2="-16.139"
       gradientUnits="userSpaceOnUse"
       gradientTransform="matrix(0.91468751,0,0,0.91468751,0.25795418,24.637041)">
      <stop
         stop-color="#aa5a41"
         offset="0"
         id="stop596" />
      <stop
         stop-color="#e17855"
         offset="1"
         id="stop598" />
    </linearGradient>
    <linearGradient
       id="linearGradient7321"
       x1="3.8543"
       x2="15.186"
       y1="-11.827"
       y2="-11.827"
       gradientTransform="matrix(0.91469352,0,0,0.91469352,0.25742829,24.637196)"
       gradientUnits="userSpaceOnUse">
      <stop
         stop-color="#9b321e"
         offset="0"
         id="stop601" />
      <stop
         stop-color="#f55532"
         offset="1"
         id="stop603" />
    </linearGradient>
    <linearGradient
       id="linearGradient3060"
       x1="9.7529001"
       x2="17.764"
       y1="-29.806"
       y2="-23.42"
       gradientTransform="translate(-15.656,11.859)"
       gradientUnits="userSpaceOnUse"
       xlink:href="#linearGradient5463" />
    <linearGradient
       id="linearGradient5463"
       x1="9.7529001"
       x2="17.764"
       y1="-29.806"
       y2="-23.42"
       gradientTransform="translate(-16.185,11.33)"
       gradientUnits="userSpaceOnUse">
      <stop
         stop-color="#6e2313"
         offset="0"
         id="stop611" />
      <stop
         stop-color="#b74226"
         offset="1"
         id="stop613" />
    </linearGradient>
    <filter
       id="filter3056"
       x="-0.083999999"
       y="-0.083999999"
       width="1.168"
       height="1.168"
       color-interpolation-filters="sRGB">
      <feGaussianBlur
         stdDeviation="0.27780551"
         id="feGaussianBlur617" />
    </filter>
    <linearGradient
       id="linearGradient5461"
       x1="9.7894001"
       x2="17.726999"
       y1="-30.691"
       y2="-22.754"
       gradientTransform="matrix(0.91468751,0,0,0.91468751,-7.7894131,34.317299)"
       gradientUnits="userSpaceOnUse">
      <stop
         stop-color="#6d2618"
         offset="0"
         id="stop606" />
      <stop
         stop-color="#af3d20"
         offset="1"
         id="stop608" />
    </linearGradient>
    <linearGradient
       id="linearGradient4284"
       x1="9.7529001"
       x2="17.764"
       y1="-29.806"
       y2="-23.42"
       gradientTransform="matrix(0.91468751,0,0,0.91468751,-7.7894131,34.317299)"
       gradientUnits="userSpaceOnUse"
       xlink:href="#linearGradient5463" />
  </defs>
  <sodipodi:namedview
     id="base"
     pagecolor="#ffffff"
     bordercolor="#666666"
     borderopacity="1.0"
     inkscape:pageopacity="0.0"
     inkscape:pageshadow="2"
     inkscape:zoom="5.6"
     inkscape:cx="24.035474"
     inkscape:cy="47.50979"
     inkscape:document-units="mm"
     inkscape:current-layer="layer1"
     inkscape:document-rotation="0"
     showgrid="false"
     units="px"
     inkscape:window-width="1920"
     inkscape:window-height="992"
     inkscape:window-x="0"
     inkscape:window-y="0"
     inkscape:window-maximized="1" />
  <metadata
     id="metadata5">
    <rdf:RDF>
      <cc:Work
         rdf:about="">
        <dc:format>image/svg+xml</dc:format>
        <dc:type
           rdf:resource="http://purl.org/dc/dcmitype/StillImage" />
        <dc:title></dc:title>
      </cc:Work>
    </rdf:RDF>
  </metadata>
  <g
     inkscape:label="图层 1"
     inkscape:groupmode="layer"
     id="layer1">
    <g
       id="g1385"
       transform="translate(0.05669638,-1.4079615)">
      <path
         d="M 9.0307601,3.2191814 A 6.6551769,6.6551769 0 0 0 2.3755829,9.8743583 h -4.762e-4 a 6.6551769,6.6551769 0 0 0 0.525614,2.5916467 6.6551769,6.6551769 0 0 0 4.763e-4,4.76e-4 6.6551769,6.6551769 0 0 0 0.6362107,1.1656 6.6551769,6.6551769 0 0 0 4.762e-4,4.76e-4 6.6551769,6.6551769 0 0 0 1.3556232,1.45487 6.6551769,6.6551769 0 0 0 0.1545621,0.110605 6.6551769,6.6551769 0 0 0 0.3866539,0.276516 6.6551769,6.6551769 0 0 0 4.763e-4,0 6.6551769,6.6551769 0 0 0 1.1835566,0.602645 6.6551769,6.6551769 0 0 0 0.4220834,0.140383 6.6551769,6.6551769 0 0 0 0.2093937,0.06948 6.6551769,6.6551769 0 0 0 4.762e-4,0 6.6551769,6.6551769 0 0 0 0.1455814,0.03261 6.6551769,6.6551769 0 0 0 1.0833661,0.183397 6.6551769,6.6551769 0 0 0 0.079881,0.0099 6.6551769,6.6551769 0 0 0 4.763e-4,0 6.6551769,6.6551769 0 0 0 0.016544,4.77e-4 6.6551769,6.6551769 0 0 0 0.4542459,0.01654 6.6551769,6.6551769 0 0 0 0.6640899,-0.03356 6.6551769,6.6551769 0 0 0 0.6579671,-0.09926 6.6551769,6.6551769 0 0 0 1.269106,-0.392777 6.6551769,6.6551769 0 0 0 4.76e-4,0 6.6551769,6.6551769 0 0 0 1.1656,-0.637154 6.6551769,6.6551769 0 0 0 4.76e-4,0 6.6551769,6.6551769 0 0 0 1.016274,-0.855978 A 6.6551769,6.6551769 0 0 0 15.686031,9.8749272 6.6551769,6.6551769 0 0 0 9.030854,3.2197503 V 3.219274 Z"
         fill="url(#linearGradient3031)"
         stroke-width="0.914688"
         id="path2171"
         style="fill:url(#linearGradient3031)" />
      <path
         d="M 9.030722,9.8748997 V 16.530075 A 6.6551748,6.6551748 0 0 0 15.685897,9.8748997 Z"
         fill="url(#linearGradient5525)"
         id="path2173"
         style="fill:url(#linearGradient5525);stroke-width:0.914688" />
      <path
         d="m 9.030722,9.8748997 h 6.655175 A 6.6551748,6.6551748 0 0 0 9.030722,3.2197246 Z"
         fill="url(#linearGradient5509)"
         id="path2175"
         style="fill:url(#linearGradient5509);stroke-width:0.914688" />
      <path
         d="M 9.030722,9.8748997 H 2.3755472 A 6.6551748,6.6551748 0 0 0 9.030722,16.530075 Z"
         fill="url(#linearGradient5517)"
         id="path2177"
         style="fill:url(#linearGradient5517);stroke-width:0.914688" />
      <path
         d="M 9.030722,3.2196333 A 6.6551748,6.6551748 0 0 0 2.3755472,9.8748081 H 9.030722 Z"
         fill="url(#linearGradient5501)"
         id="path2179"
         style="fill:url(#linearGradient5501);stroke-width:0.914688" />
      <path
         d="M 2.3749985,9.8747071 A 6.6552206,6.6552206 0 0 0 9.030219,16.529928 6.6552206,6.6552206 0 0 0 15.68544,9.8747071 H 9.030219 Z"
         fill="url(#linearGradient7321)"
         id="path2181"
         style="fill:url(#linearGradient7321);stroke-width:0.242008" />
      <rect
         transform="matrix(0.87134416,0,0,0.87134416,6.8260814,23.203153)"
         x="-5.8659"
         y="-18.832001"
         width="7.9373002"
         height="7.9373002"
         ry="0.79373002"
         filter="url(#filter3056)"
         opacity="0.5"
         stroke="url(#linearGradient3060)"
         stroke-width="0.052916"
         id="rect2185"
         style="stroke:url(#linearGradient3060)" />
      <rect
         x="1.1652361"
         y="6.2443109"
         width="7.2601929"
         height="7.2601929"
         ry="0.72601932"
         fill="url(#linearGradient5461)"
         stroke="url(#linearGradient4284)"
         stroke-width="0.0484013"
         id="rect2187"
         style="fill:url(#linearGradient5461);stroke:url(#linearGradient4284)" />
      <path
         d="m 3.4471874,11.810458 h 1.3752018 c 0.3505462,0 0.6579428,-0.140216 0.8682463,-0.404465 0.2912065,-0.372109 0.4530119,-0.938356 0.4530119,-1.6124889 0,-1.175643 -0.4745746,-1.8551488 -1.2942988,-1.8551488 H 3.4471874 Z M 4.0943368,8.6016951 h 0.636356 c 0.5015341,0 0.7388214,0.3936717 0.7388214,1.2133961 0,0.8412868 -0.2696435,1.3320518 -0.7280521,1.3320518 H 4.0943127 Z"
         fill="#ffffff"
         stroke-width="0.134822"
         id="path2189"
         style="font-variant-ligatures:normal;font-variant-caps:normal;font-variant-numeric:normal;font-feature-settings:normal" />
    </g>
  </g>
</svg>
