<?xml version="1.0" encoding="UTF-8" standalone="no"?>
<svg
   xmlns:dc="http://purl.org/dc/elements/1.1/"
   xmlns:cc="http://creativecommons.org/ns#"
   xmlns:rdf="http://www.w3.org/1999/02/22-rdf-syntax-ns#"
   xmlns:svg="http://www.w3.org/2000/svg"
   xmlns="http://www.w3.org/2000/svg"
   xmlns:xlink="http://www.w3.org/1999/xlink"
   xmlns:sodipodi="http://sodipodi.sourceforge.net/DTD/sodipodi-0.dtd"
   xmlns:inkscape="http://www.inkscape.org/namespaces/inkscape"
   width="64"
   height="64"
   version="1.1"
   viewBox="0 0 16.933 16.933"
   id="svg74"
   sodipodi:docname="google-music.svg"
   inkscape:version="0.92.5 (6c0c36ef5a, 2020-05-15, custom)">
  <sodipodi:namedview
     pagecolor="#ffffff"
     bordercolor="#666666"
     borderopacity="1"
     objecttolerance="10"
     gridtolerance="10"
     guidetolerance="10"
     inkscape:pageopacity="0"
     inkscape:pageshadow="2"
     inkscape:window-width="1920"
     inkscape:window-height="932"
     id="namedview76"
     showgrid="false"
     inkscape:zoom="7.375"
     inkscape:cx="38.859989"
     inkscape:cy="33.011979"
     inkscape:window-x="0"
     inkscape:window-y="36"
     inkscape:window-maximized="1"
     inkscape:current-layer="svg74" />
  <defs
     id="defs30">
    <linearGradient
       id="i"
       x1="400.4"
       x2="400.4"
       y1="545.62"
       y2="517.62"
       gradientTransform="matrix(.41967 0 0 .41967 -173.34 -178.23)"
       gradientUnits="userSpaceOnUse">
      <stop
         stop-color="#d3d3d3"
         offset="0"
         id="stop2" />
      <stop
         stop-color="#fcf9f9"
         offset="1"
         id="stop4" />
    </linearGradient>
    <linearGradient
       id="f"
       x1="400.4"
       x2="400.4"
       y1="545.62"
       y2="517.62"
       gradientTransform="matrix(.43343 0 0 .43343 -193.09 -179.69)"
       gradientUnits="userSpaceOnUse">
      <stop
         stop-color="#8d3aff"
         offset="0"
         id="stop7" />
      <stop
         stop-color="#ff3680"
         offset="1"
         id="stop9" />
    </linearGradient>
    <linearGradient
       id="linearGradient1448"
       x1="3.9687"
       x2="3.9687"
       y1="16.404"
       y2="2.6458"
       gradientTransform="matrix(.91667 0 0 .91667 .70544 .70544)"
       gradientUnits="userSpaceOnUse">
      <stop
         stop-color="#ebf0f5"
         offset="0"
         id="stop12" />
      <stop
         stop-color="#fafafa"
         offset="1"
         id="stop14" />
    </linearGradient>
    <linearGradient
       id="k-7"
       x1="423.39"
       x2="433.31"
       y1="540.19"
       y2="524.17"
       gradientTransform="matrix(0.48338,0,0,0.48338,-200.71,-248.05)"
       gradientUnits="userSpaceOnUse">
      <stop
         stop-color="#ff4bfa"
         stop-opacity=".8"
         offset="0"
         id="stop17" />
      <stop
         stop-color="#ffaa4b"
         offset="1"
         id="stop19" />
    </linearGradient>
    <filter
       id="filter1877-5"
       x="-.027479"
       y="-.021303"
       width="1.055"
       height="1.0426"
       color-interpolation-filters="sRGB">
      <feGaussianBlur
         stdDeviation="0.072702461"
         id="feGaussianBlur22" />
    </filter>
    <filter
       id="filter861-3"
       x="-.027"
       y="-.027"
       width="1.054"
       height="1.054"
       color-interpolation-filters="sRGB">
      <feGaussianBlur
         stdDeviation="0.16371"
         id="feGaussianBlur25" />
    </filter>
    <linearGradient
       id="linearGradient1407"
       x1="400.4"
       x2="400.4"
       y1="545.62"
       y2="517.62"
       gradientTransform="matrix(.41967 0 0 .41967 -173.34 -178.23)"
       gradientUnits="userSpaceOnUse"
       xlink:href="#i" />
    <linearGradient
       id="linearGradient1409"
       x1="400.4"
       x2="400.4"
       y1="545.62"
       y2="517.62"
       gradientTransform="matrix(.43343 0 0 .43343 -193.09 -179.69)"
       gradientUnits="userSpaceOnUse"
       xlink:href="#f" />
    <linearGradient
       gradientTransform="matrix(0.24999116,0,0,0.24999116,-89.151347,-6.3444086)"
       y2="54.408154"
       x2="324.03204"
       y1="107.01833"
       x1="311.51086"
       gradientUnits="userSpaceOnUse"
       id="linearGradient949"
       xlink:href="#linearGradient945"
       inkscape:collect="always" />
    <linearGradient
       id="linearGradient945"
       inkscape:collect="always">
      <stop
         id="stop941"
         offset="0"
         style="stop-color:#8763fe;stop-opacity:1;" />
      <stop
         style="stop-color:#7e68fe;stop-opacity:1"
         offset="0.18737273"
         id="stop967" />
      <stop
         style="stop-color:#7d69fd;stop-opacity:1"
         offset="0.30629727"
         id="stop965" />
      <stop
         style="stop-color:#8b61f4;stop-opacity:1"
         offset="0.5528459"
         id="stop963" />
      <stop
         style="stop-color:#a359df;stop-opacity:1"
         offset="0.71020466"
         id="stop961" />
      <stop
         style="stop-color:#c754c0;stop-opacity:1"
         offset="0.87117851"
         id="stop951" />
      <stop
         id="stop943"
         offset="1"
         style="stop-color:#de549e;stop-opacity:0" />
    </linearGradient>
    <linearGradient
       gradientTransform="matrix(0.24999116,0,0,0.24999116,-89.151347,-6.3444086)"
       gradientUnits="userSpaceOnUse"
       y2="90.166039"
       x2="346.86948"
       y1="97.452835"
       x1="337.89465"
       id="linearGradient937"
       xlink:href="#linearGradient935"
       inkscape:collect="always" />
    <linearGradient
       id="linearGradient935"
       inkscape:collect="always">
      <stop
         id="stop931"
         offset="0"
         style="stop-color:#5793fa;stop-opacity:1;" />
      <stop
         id="stop933"
         offset="1"
         style="stop-color:#5793fa;stop-opacity:0;" />
    </linearGradient>
    <linearGradient
       gradientTransform="matrix(0.24999116,0,0,0.24999116,-89.151347,-6.3444086)"
       y2="47.787571"
       x2="349.17056"
       y1="92.65889"
       x1="353.23526"
       gradientUnits="userSpaceOnUse"
       id="linearGradient921"
       xlink:href="#linearGradient917"
       inkscape:collect="always" />
    <linearGradient
       id="linearGradient917"
       inkscape:collect="always">
      <stop
         id="stop913"
         offset="0"
         style="stop-color:#49abf5;stop-opacity:1;" />
      <stop
         style="stop-color:#4daaf6;stop-opacity:1"
         offset="0.30243069"
         id="stop927" />
      <stop
         style="stop-color:#7f85e1;stop-opacity:1"
         offset="0.5655883"
         id="stop925" />
      <stop
         style="stop-color:#ba6ab8;stop-opacity:1"
         offset="0.79700154"
         id="stop923" />
      <stop
         id="stop915"
         offset="1"
         style="stop-color:#d4629f;stop-opacity:0" />
    </linearGradient>
    <linearGradient
       gradientTransform="matrix(0.24999116,0,0,0.24999116,-89.151347,-6.3444086)"
       gradientUnits="userSpaceOnUse"
       y2="35.209618"
       x2="361.4238"
       y1="39.819786"
       x1="338.65604"
       id="linearGradient901"
       xlink:href="#linearGradient899"
       inkscape:collect="always" />
    <linearGradient
       id="linearGradient899"
       inkscape:collect="always">
      <stop
         id="stop895"
         offset="0"
         style="stop-color:#f05c7c;stop-opacity:1" />
      <stop
         id="stop897"
         offset="1"
         style="stop-color:#e4618a;stop-opacity:1" />
    </linearGradient>
    <linearGradient
       gradientTransform="matrix(0.24999116,0,0,0.24999116,-89.151347,-6.3444086)"
       gradientUnits="userSpaceOnUse"
       y2="38.408154"
       x2="338.9473"
       y1="43.831882"
       x1="318.56171"
       id="linearGradient909"
       xlink:href="#linearGradient907"
       inkscape:collect="always" />
    <linearGradient
       id="linearGradient907"
       inkscape:collect="always">
      <stop
         id="stop903"
         offset="0"
         style="stop-color:#f4587a;stop-opacity:1" />
      <stop
         id="stop905"
         offset="1"
         style="stop-color:#f15c7c;stop-opacity:1" />
    </linearGradient>
  </defs>
  <metadata
     id="metadata32">
    <rdf:RDF>
      <cc:Work
         rdf:about="">
        <dc:format>image/svg+xml</dc:format>
        <dc:type
           rdf:resource="http://purl.org/dc/dcmitype/StillImage" />
        <dc:title></dc:title>
      </cc:Work>
    </rdf:RDF>
  </metadata>
  <g
     transform="translate(-21.834 .89695)"
     fill="#5e4aa6"
     stroke-width=".26458"
     id="g42">
    <circle
       cx="-330.35"
       cy="-328.38"
       r="0"
       id="circle34" />
    <circle
       cx="-312.11"
       cy="-326.25"
       r="0"
       id="circle36" />
    <circle
       cx="-306.02"
       cy="-333.07"
       r="0"
       id="circle38" />
    <circle
       cx="-308.84"
       cy="-326.01"
       r="0"
       id="circle40" />
  </g>
  <circle
     cx="-5.2346"
     cy="44.956"
     r="0"
     fill="url(#i)"
     image-rendering="optimizeSpeed"
     stroke-width=".26458"
     id="circle44" />
  <circle
     cx="-19.466"
     cy="50.818"
     r="0"
     fill="none"
     image-rendering="optimizeSpeed"
     stroke="url(#f)"
     stroke-width=".56347"
     id="circle46" />
  <g
     transform="translate(-21.834 .89695)"
     fill="#5e4aa6"
     stroke-width=".26458"
     id="g56">
    <circle
       cx="-330.35"
       cy="-328.38"
       r="0"
       id="circle48" />
    <circle
       cx="-312.11"
       cy="-326.25"
       r="0"
       id="circle50" />
    <circle
       cx="-306.02"
       cy="-333.07"
       r="0"
       id="circle52" />
    <circle
       cx="-308.84"
       cy="-326.01"
       r="0"
       id="circle54" />
  </g>
  <circle
     cx="-5.2346"
     cy="44.956"
     r="0"
     fill="url(#linearGradient1407)"
     image-rendering="optimizeSpeed"
     stroke-width=".26458"
     id="circle58" />
  <circle
     cx="-19.466"
     cy="50.818"
     r="0"
     fill="none"
     image-rendering="optimizeSpeed"
     stroke="url(#linearGradient1409)"
     stroke-width=".56347"
     id="circle60" />
  <rect
     x="1.1905"
     y="1.1905"
     width="14.552"
     height="14.552"
     ry="3.4395"
     filter="url(#filter861-3)"
     opacity=".3"
     stroke-opacity=".95294"
     stroke-width=".083153"
     id="rect62" />
  <rect
     x="1.1905"
     y="1.1905"
     width="14.552"
     height="14.552"
     ry="3.4395"
     fill="url(#linearGradient1448)"
     stroke-opacity=".95294"
     stroke-width=".083153"
     id="rect64" />
  <g
     id="g1030"
     transform="matrix(0.46821881,0,0,0.46821881,11.792375,3.7296474)">
    <g
       style="opacity:0.53800001"
       transform="matrix(0.24999116,0,0,0.24999116,-94.303719,19.959747)"
       id="g1066">
      <path
         inkscape:connector-curvature="0"
         style="fill:none;stroke:#111214;stroke-width:0.1;stroke-linecap:round;stroke-linejoin:round;stroke-miterlimit:4;stroke-dasharray:none;stroke-opacity:0.01176471"
         d="m 377.5082,-79.329457 c -0.7,-0.01403 -1.57748,0.109171 -2.67578,0.357422 l -18.19922,3.69336 -17.34179,3.425781 c -3.0722,0.65674 -3.66824,2.371606 -3.59571,5.082031 l 0.0469,42.306641 c -0.13962,2.973501 -0.46207,4.605067 -3.88282,5.152343 -12.10602,1.801889 -14.4545,5.552265 -14.38085,10.882813 0.0733,5.308775 4.37571,9.562544 10.30664,8.964844 5.20132,-0.57853 9.07593,-2.093615 11.45703,-6.904297 0.92183,-1.811914 1.23577,-5.581152 1.00781,-9.396485 l -0.0488,-33.652343 c 0.01,-2.355753 -0.38947,-3.667024 2.73242,-4.314454 l 16.34961,-3.294921 2.44336,-0.492188 v -0.0039 l 11.15821,-2.25 c 1.81449,-0.365976 2.66769,0.253898 2.69531,2.300781 l 0.0488,25.144531 c -0.13962,2.973501 -0.42887,4.335537 -3.84961,4.882813 -12.10603,1.801889 -14.48967,5.821796 -14.41602,11.152344 0.0733,5.308775 4.44407,9.293012 10.375,8.695312 5.20132,-0.57853 8.94117,-1.9236929 11.32227,-6.734375 0.92183,-1.811914 0.9971,-5.411792 1.07422,-9.294922 l -0.0312,-51.482422 c -0.002,-2.895455 -0.4957,-4.178618 -2.59571,-4.220703 z"
         id="path863-2" />
      <path
         inkscape:connector-curvature="0"
         id="path976"
         d="m 377.5082,-79.329457 c -0.7,-0.01403 -1.57748,0.109171 -2.67578,0.357422 l -18.19922,3.69336 -17.34179,3.425781 c -3.0722,0.65674 -3.66824,2.371606 -3.59571,5.082031 l 0.0469,42.306641 c -0.13962,2.973501 -0.46207,4.605067 -3.88282,5.152343 -12.10602,1.801889 -14.4545,5.552265 -14.38085,10.882813 0.0733,5.308775 4.37571,9.562544 10.30664,8.964844 5.20132,-0.57853 9.07593,-2.093615 11.45703,-6.904297 0.92183,-1.811914 1.23577,-5.581152 1.00781,-9.396485 l -0.0488,-33.652343 c 0.01,-2.355753 -0.38947,-3.667024 2.73242,-4.314454 l 16.34961,-3.294921 2.44336,-0.492188 v -0.0039 l 11.15821,-2.25 c 1.81449,-0.365976 2.66769,0.253898 2.69531,2.300781 l 0.0488,25.144531 c -0.13962,2.973501 -0.42887,4.335537 -3.84961,4.882813 -12.10603,1.801889 -14.48967,5.821796 -14.41602,11.152344 0.0733,5.308775 4.44407,9.293012 10.375,8.695312 5.20132,-0.57853 8.94117,-1.9236929 11.32227,-6.734375 0.92183,-1.811914 0.9971,-5.411792 1.07422,-9.294922 l -0.0312,-51.482422 c -0.002,-2.895455 -0.4957,-4.178618 -2.59571,-4.220703 z"
         style="fill:none;stroke:#111214;stroke-width:0.2;stroke-linecap:round;stroke-linejoin:round;stroke-miterlimit:4;stroke-dasharray:none;stroke-opacity:0.01176471" />
      <path
         inkscape:connector-curvature="0"
         style="fill:none;stroke:#111214;stroke-width:0.30000001;stroke-linecap:round;stroke-linejoin:round;stroke-miterlimit:4;stroke-dasharray:none;stroke-opacity:0.01176471"
         d="m 377.5082,-79.329457 c -0.7,-0.01403 -1.57748,0.109171 -2.67578,0.357422 l -18.19922,3.69336 -17.34179,3.425781 c -3.0722,0.65674 -3.66824,2.371606 -3.59571,5.082031 l 0.0469,42.306641 c -0.13962,2.973501 -0.46207,4.605067 -3.88282,5.152343 -12.10602,1.801889 -14.4545,5.552265 -14.38085,10.882813 0.0733,5.308775 4.37571,9.562544 10.30664,8.964844 5.20132,-0.57853 9.07593,-2.093615 11.45703,-6.904297 0.92183,-1.811914 1.23577,-5.581152 1.00781,-9.396485 l -0.0488,-33.652343 c 0.01,-2.355753 -0.38947,-3.667024 2.73242,-4.314454 l 16.34961,-3.294921 2.44336,-0.492188 v -0.0039 l 11.15821,-2.25 c 1.81449,-0.365976 2.66769,0.253898 2.69531,2.300781 l 0.0488,25.144531 c -0.13962,2.973501 -0.42887,4.335537 -3.84961,4.882813 -12.10603,1.801889 -14.48967,5.821796 -14.41602,11.152344 0.0733,5.308775 4.44407,9.293012 10.375,8.695312 5.20132,-0.57853 8.94117,-1.9236929 11.32227,-6.734375 0.92183,-1.811914 0.9971,-5.411792 1.07422,-9.294922 l -0.0312,-51.482422 c -0.002,-2.895455 -0.4957,-4.178618 -2.59571,-4.220703 z"
         id="path978" />
      <path
         inkscape:connector-curvature="0"
         id="path980"
         d="m 377.5082,-79.329457 c -0.7,-0.01403 -1.57748,0.109171 -2.67578,0.357422 l -18.19922,3.69336 -17.34179,3.425781 c -3.0722,0.65674 -3.66824,2.371606 -3.59571,5.082031 l 0.0469,42.306641 c -0.13962,2.973501 -0.46207,4.605067 -3.88282,5.152343 -12.10602,1.801889 -14.4545,5.552265 -14.38085,10.882813 0.0733,5.308775 4.37571,9.562544 10.30664,8.964844 5.20132,-0.57853 9.07593,-2.093615 11.45703,-6.904297 0.92183,-1.811914 1.23577,-5.581152 1.00781,-9.396485 l -0.0488,-33.652343 c 0.01,-2.355753 -0.38947,-3.667024 2.73242,-4.314454 l 16.34961,-3.294921 2.44336,-0.492188 v -0.0039 l 11.15821,-2.25 c 1.81449,-0.365976 2.66769,0.253898 2.69531,2.300781 l 0.0488,25.144531 c -0.13962,2.973501 -0.42887,4.335537 -3.84961,4.882813 -12.10603,1.801889 -14.48967,5.821796 -14.41602,11.152344 0.0733,5.308775 4.44407,9.293012 10.375,8.695312 5.20132,-0.57853 8.94117,-1.9236929 11.32227,-6.734375 0.92183,-1.811914 0.9971,-5.411792 1.07422,-9.294922 l -0.0312,-51.482422 c -0.002,-2.895455 -0.4957,-4.178618 -2.59571,-4.220703 z"
         style="fill:none;stroke:#111214;stroke-width:0.5;stroke-linecap:round;stroke-linejoin:round;stroke-miterlimit:4;stroke-dasharray:none;stroke-opacity:0.01176471" />
      <path
         inkscape:connector-curvature="0"
         style="fill:none;stroke:#111214;stroke-width:0.69999999;stroke-linecap:round;stroke-linejoin:round;stroke-miterlimit:4;stroke-dasharray:none;stroke-opacity:0.01176471"
         d="m 377.5082,-79.329457 c -0.7,-0.01403 -1.57748,0.109171 -2.67578,0.357422 l -18.19922,3.69336 -17.34179,3.425781 c -3.0722,0.65674 -3.66824,2.371606 -3.59571,5.082031 l 0.0469,42.306641 c -0.13962,2.973501 -0.46207,4.605067 -3.88282,5.152343 -12.10602,1.801889 -14.4545,5.552265 -14.38085,10.882813 0.0733,5.308775 4.37571,9.562544 10.30664,8.964844 5.20132,-0.57853 9.07593,-2.093615 11.45703,-6.904297 0.92183,-1.811914 1.23577,-5.581152 1.00781,-9.396485 l -0.0488,-33.652343 c 0.01,-2.355753 -0.38947,-3.667024 2.73242,-4.314454 l 16.34961,-3.294921 2.44336,-0.492188 v -0.0039 l 11.15821,-2.25 c 1.81449,-0.365976 2.66769,0.253898 2.69531,2.300781 l 0.0488,25.144531 c -0.13962,2.973501 -0.42887,4.335537 -3.84961,4.882813 -12.10603,1.801889 -14.48967,5.821796 -14.41602,11.152344 0.0733,5.308775 4.44407,9.293012 10.375,8.695312 5.20132,-0.57853 8.94117,-1.9236929 11.32227,-6.734375 0.92183,-1.811914 0.9971,-5.411792 1.07422,-9.294922 l -0.0312,-51.482422 c -0.002,-2.895455 -0.4957,-4.178618 -2.59571,-4.220703 z"
         id="path982" />
      <path
         inkscape:connector-curvature="0"
         id="path984"
         d="m 377.5082,-79.329457 c -0.7,-0.01403 -1.57748,0.109171 -2.67578,0.357422 l -18.19922,3.69336 -17.34179,3.425781 c -3.0722,0.65674 -3.66824,2.371606 -3.59571,5.082031 l 0.0469,42.306641 c -0.13962,2.973501 -0.46207,4.605067 -3.88282,5.152343 -12.10602,1.801889 -14.4545,5.552265 -14.38085,10.882813 0.0733,5.308775 4.37571,9.562544 10.30664,8.964844 5.20132,-0.57853 9.07593,-2.093615 11.45703,-6.904297 0.92183,-1.811914 1.23577,-5.581152 1.00781,-9.396485 l -0.0488,-33.652343 c 0.01,-2.355753 -0.38947,-3.667024 2.73242,-4.314454 l 16.34961,-3.294921 2.44336,-0.492188 v -0.0039 l 11.15821,-2.25 c 1.81449,-0.365976 2.66769,0.253898 2.69531,2.300781 l 0.0488,25.144531 c -0.13962,2.973501 -0.42887,4.335537 -3.84961,4.882813 -12.10603,1.801889 -14.48967,5.821796 -14.41602,11.152344 0.0733,5.308775 4.44407,9.293012 10.375,8.695312 5.20132,-0.57853 8.94117,-1.9236929 11.32227,-6.734375 0.92183,-1.811914 0.9971,-5.411792 1.07422,-9.294922 l -0.0312,-51.482422 c -0.002,-2.895455 -0.4957,-4.178618 -2.59571,-4.220703 z"
         style="fill:none;stroke:#111214;stroke-width:0.89999998;stroke-linecap:round;stroke-linejoin:round;stroke-miterlimit:4;stroke-dasharray:none;stroke-opacity:0.01176471" />
      <path
         inkscape:connector-curvature="0"
         style="fill:none;stroke:#111214;stroke-width:1.10000002;stroke-linecap:round;stroke-linejoin:round;stroke-miterlimit:4;stroke-dasharray:none;stroke-opacity:0.01176471"
         d="m 377.5082,-79.329457 c -0.7,-0.01403 -1.57748,0.109171 -2.67578,0.357422 l -18.19922,3.69336 -17.34179,3.425781 c -3.0722,0.65674 -3.66824,2.371606 -3.59571,5.082031 l 0.0469,42.306641 c -0.13962,2.973501 -0.46207,4.605067 -3.88282,5.152343 -12.10602,1.801889 -14.4545,5.552265 -14.38085,10.882813 0.0733,5.308775 4.37571,9.562544 10.30664,8.964844 5.20132,-0.57853 9.07593,-2.093615 11.45703,-6.904297 0.92183,-1.811914 1.23577,-5.581152 1.00781,-9.396485 l -0.0488,-33.652343 c 0.01,-2.355753 -0.38947,-3.667024 2.73242,-4.314454 l 16.34961,-3.294921 2.44336,-0.492188 v -0.0039 l 11.15821,-2.25 c 1.81449,-0.365976 2.66769,0.253898 2.69531,2.300781 l 0.0488,25.144531 c -0.13962,2.973501 -0.42887,4.335537 -3.84961,4.882813 -12.10603,1.801889 -14.48967,5.821796 -14.41602,11.152344 0.0733,5.308775 4.44407,9.293012 10.375,8.695312 5.20132,-0.57853 8.94117,-1.9236929 11.32227,-6.734375 0.92183,-1.811914 0.9971,-5.411792 1.07422,-9.294922 l -0.0312,-51.482422 c -0.002,-2.895455 -0.4957,-4.178618 -2.59571,-4.220703 z"
         id="path986" />
      <path
         inkscape:connector-curvature="0"
         id="path988"
         d="m 377.5082,-79.329457 c -0.7,-0.01403 -1.57748,0.109171 -2.67578,0.357422 l -18.19922,3.69336 -17.34179,3.425781 c -3.0722,0.65674 -3.66824,2.371606 -3.59571,5.082031 l 0.0469,42.306641 c -0.13962,2.973501 -0.46207,4.605067 -3.88282,5.152343 -12.10602,1.801889 -14.4545,5.552265 -14.38085,10.882813 0.0733,5.308775 4.37571,9.562544 10.30664,8.964844 5.20132,-0.57853 9.07593,-2.093615 11.45703,-6.904297 0.92183,-1.811914 1.23577,-5.581152 1.00781,-9.396485 l -0.0488,-33.652343 c 0.01,-2.355753 -0.38947,-3.667024 2.73242,-4.314454 l 16.34961,-3.294921 2.44336,-0.492188 v -0.0039 l 11.15821,-2.25 c 1.81449,-0.365976 2.66769,0.253898 2.69531,2.300781 l 0.0488,25.144531 c -0.13962,2.973501 -0.42887,4.335537 -3.84961,4.882813 -12.10603,1.801889 -14.48967,5.821796 -14.41602,11.152344 0.0733,5.308775 4.44407,9.293012 10.375,8.695312 5.20132,-0.57853 8.94117,-1.9236929 11.32227,-6.734375 0.92183,-1.811914 0.9971,-5.411792 1.07422,-9.294922 l -0.0312,-51.482422 c -0.002,-2.895455 -0.4957,-4.178618 -2.59571,-4.220703 z"
         style="fill:none;stroke:#111214;stroke-width:1.60000002;stroke-linecap:round;stroke-linejoin:round;stroke-miterlimit:4;stroke-dasharray:none;stroke-opacity:0.01176471" />
      <path
         inkscape:connector-curvature="0"
         style="fill:none;stroke:#111214;stroke-width:2.0999999;stroke-linecap:round;stroke-linejoin:round;stroke-miterlimit:4;stroke-dasharray:none;stroke-opacity:0.01176471"
         d="m 377.5082,-79.329457 c -0.7,-0.01403 -1.57748,0.109171 -2.67578,0.357422 l -18.19922,3.69336 -17.34179,3.425781 c -3.0722,0.65674 -3.66824,2.371606 -3.59571,5.082031 l 0.0469,42.306641 c -0.13962,2.973501 -0.46207,4.605067 -3.88282,5.152343 -12.10602,1.801889 -14.4545,5.552265 -14.38085,10.882813 0.0733,5.308775 4.37571,9.562544 10.30664,8.964844 5.20132,-0.57853 9.07593,-2.093615 11.45703,-6.904297 0.92183,-1.811914 1.23577,-5.581152 1.00781,-9.396485 l -0.0488,-33.652343 c 0.01,-2.355753 -0.38947,-3.667024 2.73242,-4.314454 l 16.34961,-3.294921 2.44336,-0.492188 v -0.0039 l 11.15821,-2.25 c 1.81449,-0.365976 2.66769,0.253898 2.69531,2.300781 l 0.0488,25.144531 c -0.13962,2.973501 -0.42887,4.335537 -3.84961,4.882813 -12.10603,1.801889 -14.48967,5.821796 -14.41602,11.152344 0.0733,5.308775 4.44407,9.293012 10.375,8.695312 5.20132,-0.57853 8.94117,-1.9236929 11.32227,-6.734375 0.92183,-1.811914 0.9971,-5.411792 1.07422,-9.294922 l -0.0312,-51.482422 c -0.002,-2.895455 -0.4957,-4.178618 -2.59571,-4.220703 z"
         id="path990" />
      <path
         inkscape:connector-curvature="0"
         id="path992"
         d="m 377.5082,-79.329457 c -0.7,-0.01403 -1.57748,0.109171 -2.67578,0.357422 l -18.19922,3.69336 -17.34179,3.425781 c -3.0722,0.65674 -3.66824,2.371606 -3.59571,5.082031 l 0.0469,42.306641 c -0.13962,2.973501 -0.46207,4.605067 -3.88282,5.152343 -12.10602,1.801889 -14.4545,5.552265 -14.38085,10.882813 0.0733,5.308775 4.37571,9.562544 10.30664,8.964844 5.20132,-0.57853 9.07593,-2.093615 11.45703,-6.904297 0.92183,-1.811914 1.23577,-5.581152 1.00781,-9.396485 l -0.0488,-33.652343 c 0.01,-2.355753 -0.38947,-3.667024 2.73242,-4.314454 l 16.34961,-3.294921 2.44336,-0.492188 v -0.0039 l 11.15821,-2.25 c 1.81449,-0.365976 2.66769,0.253898 2.69531,2.300781 l 0.0488,25.144531 c -0.13962,2.973501 -0.42887,4.335537 -3.84961,4.882813 -12.10603,1.801889 -14.48967,5.821796 -14.41602,11.152344 0.0733,5.308775 4.44407,9.293012 10.375,8.695312 5.20132,-0.57853 8.94117,-1.9236929 11.32227,-6.734375 0.92183,-1.811914 0.9971,-5.411792 1.07422,-9.294922 l -0.0312,-51.482422 c -0.002,-2.895455 -0.4957,-4.178618 -2.59571,-4.220703 z"
         style="fill:none;stroke:#111214;stroke-width:2.5999999;stroke-linecap:round;stroke-linejoin:round;stroke-miterlimit:4;stroke-dasharray:none;stroke-opacity:0.01176471" />
      <path
         inkscape:connector-curvature="0"
         style="fill:none;stroke:#111214;stroke-width:3.0999999;stroke-linecap:round;stroke-linejoin:round;stroke-miterlimit:4;stroke-dasharray:none;stroke-opacity:0.01176471"
         d="m 377.5082,-79.329457 c -0.7,-0.01403 -1.57748,0.109171 -2.67578,0.357422 l -18.19922,3.69336 -17.34179,3.425781 c -3.0722,0.65674 -3.66824,2.371606 -3.59571,5.082031 l 0.0469,42.306641 c -0.13962,2.973501 -0.46207,4.605067 -3.88282,5.152343 -12.10602,1.801889 -14.4545,5.552265 -14.38085,10.882813 0.0733,5.308775 4.37571,9.562544 10.30664,8.964844 5.20132,-0.57853 9.07593,-2.093615 11.45703,-6.904297 0.92183,-1.811914 1.23577,-5.581152 1.00781,-9.396485 l -0.0488,-33.652343 c 0.01,-2.355753 -0.38947,-3.667024 2.73242,-4.314454 l 16.34961,-3.294921 2.44336,-0.492188 v -0.0039 l 11.15821,-2.25 c 1.81449,-0.365976 2.66769,0.253898 2.69531,2.300781 l 0.0488,25.144531 c -0.13962,2.973501 -0.42887,4.335537 -3.84961,4.882813 -12.10603,1.801889 -14.48967,5.821796 -14.41602,11.152344 0.0733,5.308775 4.44407,9.293012 10.375,8.695312 5.20132,-0.57853 8.94117,-1.9236929 11.32227,-6.734375 0.92183,-1.811914 0.9971,-5.411792 1.07422,-9.294922 l -0.0312,-51.482422 c -0.002,-2.895455 -0.4957,-4.178618 -2.59571,-4.220703 z"
         id="path994" />
      <path
         inkscape:connector-curvature="0"
         id="path996"
         d="m 377.5082,-79.329457 c -0.7,-0.01403 -1.57748,0.109171 -2.67578,0.357422 l -18.19922,3.69336 -17.34179,3.425781 c -3.0722,0.65674 -3.66824,2.371606 -3.59571,5.082031 l 0.0469,42.306641 c -0.13962,2.973501 -0.46207,4.605067 -3.88282,5.152343 -12.10602,1.801889 -14.4545,5.552265 -14.38085,10.882813 0.0733,5.308775 4.37571,9.562544 10.30664,8.964844 5.20132,-0.57853 9.07593,-2.093615 11.45703,-6.904297 0.92183,-1.811914 1.23577,-5.581152 1.00781,-9.396485 l -0.0488,-33.652343 c 0.01,-2.355753 -0.38947,-3.667024 2.73242,-4.314454 l 16.34961,-3.294921 2.44336,-0.492188 v -0.0039 l 11.15821,-2.25 c 1.81449,-0.365976 2.66769,0.253898 2.69531,2.300781 l 0.0488,25.144531 c -0.13962,2.973501 -0.42887,4.335537 -3.84961,4.882813 -12.10603,1.801889 -14.48967,5.821796 -14.41602,11.152344 0.0733,5.308775 4.44407,9.293012 10.375,8.695312 5.20132,-0.57853 8.94117,-1.9236929 11.32227,-6.734375 0.92183,-1.811914 0.9971,-5.411792 1.07422,-9.294922 l -0.0312,-51.482422 c -0.002,-2.895455 -0.4957,-4.178618 -2.59571,-4.220703 z"
         style="fill:none;stroke:#111214;stroke-width:3.9000001;stroke-linecap:round;stroke-linejoin:round;stroke-miterlimit:4;stroke-dasharray:none;stroke-opacity:0.01176471" />
      <path
         inkscape:connector-curvature="0"
         style="fill:none;stroke:#111214;stroke-width:4.69999981;stroke-linecap:round;stroke-linejoin:round;stroke-miterlimit:4;stroke-dasharray:none;stroke-opacity:0.01176471"
         d="m 377.5082,-79.329457 c -0.7,-0.01403 -1.57748,0.109171 -2.67578,0.357422 l -18.19922,3.69336 -17.34179,3.425781 c -3.0722,0.65674 -3.66824,2.371606 -3.59571,5.082031 l 0.0469,42.306641 c -0.13962,2.973501 -0.46207,4.605067 -3.88282,5.152343 -12.10602,1.801889 -14.4545,5.552265 -14.38085,10.882813 0.0733,5.308775 4.37571,9.562544 10.30664,8.964844 5.20132,-0.57853 9.07593,-2.093615 11.45703,-6.904297 0.92183,-1.811914 1.23577,-5.581152 1.00781,-9.396485 l -0.0488,-33.652343 c 0.01,-2.355753 -0.38947,-3.667024 2.73242,-4.314454 l 16.34961,-3.294921 2.44336,-0.492188 v -0.0039 l 11.15821,-2.25 c 1.81449,-0.365976 2.66769,0.253898 2.69531,2.300781 l 0.0488,25.144531 c -0.13962,2.973501 -0.42887,4.335537 -3.84961,4.882813 -12.10603,1.801889 -14.48967,5.821796 -14.41602,11.152344 0.0733,5.308775 4.44407,9.293012 10.375,8.695312 5.20132,-0.57853 8.94117,-1.9236929 11.32227,-6.734375 0.92183,-1.811914 0.9971,-5.411792 1.07422,-9.294922 l -0.0312,-51.482422 c -0.002,-2.895455 -0.4957,-4.178618 -2.59571,-4.220703 z"
         id="path998" />
      <path
         inkscape:connector-curvature="0"
         id="path1000"
         d="m 377.5082,-79.329457 c -0.7,-0.01403 -1.57748,0.109171 -2.67578,0.357422 l -18.19922,3.69336 -17.34179,3.425781 c -3.0722,0.65674 -3.66824,2.371606 -3.59571,5.082031 l 0.0469,42.306641 c -0.13962,2.973501 -0.46207,4.605067 -3.88282,5.152343 -12.10602,1.801889 -14.4545,5.552265 -14.38085,10.882813 0.0733,5.308775 4.37571,9.562544 10.30664,8.964844 5.20132,-0.57853 9.07593,-2.093615 11.45703,-6.904297 0.92183,-1.811914 1.23577,-5.581152 1.00781,-9.396485 l -0.0488,-33.652343 c 0.01,-2.355753 -0.38947,-3.667024 2.73242,-4.314454 l 16.34961,-3.294921 2.44336,-0.492188 v -0.0039 l 11.15821,-2.25 c 1.81449,-0.365976 2.66769,0.253898 2.69531,2.300781 l 0.0488,25.144531 c -0.13962,2.973501 -0.42887,4.335537 -3.84961,4.882813 -12.10603,1.801889 -14.48967,5.821796 -14.41602,11.152344 0.0733,5.308775 4.44407,9.293012 10.375,8.695312 5.20132,-0.57853 8.94117,-1.9236929 11.32227,-6.734375 0.92183,-1.811914 0.9971,-5.411792 1.07422,-9.294922 l -0.0312,-51.482422 c -0.002,-2.895455 -0.4957,-4.178618 -2.59571,-4.220703 z"
         style="fill:none;stroke:#111214;stroke-width:5.5;stroke-linecap:round;stroke-linejoin:round;stroke-miterlimit:4;stroke-dasharray:none;stroke-opacity:0.01176471" />
      <path
         inkscape:connector-curvature="0"
         style="fill:none;stroke:#111214;stroke-width:6.5;stroke-linecap:round;stroke-linejoin:round;stroke-miterlimit:4;stroke-dasharray:none;stroke-opacity:0.01176471"
         d="m 377.5082,-79.329457 c -0.7,-0.01403 -1.57748,0.109171 -2.67578,0.357422 l -18.19922,3.69336 -17.34179,3.425781 c -3.0722,0.65674 -3.66824,2.371606 -3.59571,5.082031 l 0.0469,42.306641 c -0.13962,2.973501 -0.46207,4.605067 -3.88282,5.152343 -12.10602,1.801889 -14.4545,5.552265 -14.38085,10.882813 0.0733,5.308775 4.37571,9.562544 10.30664,8.964844 5.20132,-0.57853 9.07593,-2.093615 11.45703,-6.904297 0.92183,-1.811914 1.23577,-5.581152 1.00781,-9.396485 l -0.0488,-33.652343 c 0.01,-2.355753 -0.38947,-3.667024 2.73242,-4.314454 l 16.34961,-3.294921 2.44336,-0.492188 v -0.0039 l 11.15821,-2.25 c 1.81449,-0.365976 2.66769,0.253898 2.69531,2.300781 l 0.0488,25.144531 c -0.13962,2.973501 -0.42887,4.335537 -3.84961,4.882813 -12.10603,1.801889 -14.48967,5.821796 -14.41602,11.152344 0.0733,5.308775 4.44407,9.293012 10.375,8.695312 5.20132,-0.57853 8.94117,-1.9236929 11.32227,-6.734375 0.92183,-1.811914 0.9971,-5.411792 1.07422,-9.294922 l -0.0312,-51.482422 c -0.002,-2.895455 -0.4957,-4.178618 -2.59571,-4.220703 z"
         id="path1002" />
      <path
         inkscape:connector-curvature="0"
         id="path1004"
         d="m 377.5082,-79.329457 c -0.7,-0.01403 -1.57748,0.109171 -2.67578,0.357422 l -18.19922,3.69336 -17.34179,3.425781 c -3.0722,0.65674 -3.66824,2.371606 -3.59571,5.082031 l 0.0469,42.306641 c -0.13962,2.973501 -0.46207,4.605067 -3.88282,5.152343 -12.10602,1.801889 -14.4545,5.552265 -14.38085,10.882813 0.0733,5.308775 4.37571,9.562544 10.30664,8.964844 5.20132,-0.57853 9.07593,-2.093615 11.45703,-6.904297 0.92183,-1.811914 1.23577,-5.581152 1.00781,-9.396485 l -0.0488,-33.652343 c 0.01,-2.355753 -0.38947,-3.667024 2.73242,-4.314454 l 16.34961,-3.294921 2.44336,-0.492188 v -0.0039 l 11.15821,-2.25 c 1.81449,-0.365976 2.66769,0.253898 2.69531,2.300781 l 0.0488,25.144531 c -0.13962,2.973501 -0.42887,4.335537 -3.84961,4.882813 -12.10603,1.801889 -14.48967,5.821796 -14.41602,11.152344 0.0733,5.308775 4.44407,9.293012 10.375,8.695312 5.20132,-0.57853 8.94117,-1.9236929 11.32227,-6.734375 0.92183,-1.811914 0.9971,-5.411792 1.07422,-9.294922 l -0.0312,-51.482422 c -0.002,-2.895455 -0.4957,-4.178618 -2.59571,-4.220703 z"
         style="fill:none;stroke:#111214;stroke-width:7.5;stroke-linecap:round;stroke-linejoin:round;stroke-miterlimit:4;stroke-dasharray:none;stroke-opacity:0.01176471" />
      <path
         inkscape:connector-curvature="0"
         style="fill:none;stroke:#111214;stroke-width:9;stroke-linecap:round;stroke-linejoin:round;stroke-miterlimit:4;stroke-dasharray:none;stroke-opacity:0.01176471"
         d="m 377.5082,-79.329457 c -0.7,-0.01403 -1.57748,0.109171 -2.67578,0.357422 l -18.19922,3.69336 -17.34179,3.425781 c -3.0722,0.65674 -3.66824,2.371606 -3.59571,5.082031 l 0.0469,42.306641 c -0.13962,2.973501 -0.46207,4.605067 -3.88282,5.152343 -12.10602,1.801889 -14.4545,5.552265 -14.38085,10.882813 0.0733,5.308775 4.37571,9.562544 10.30664,8.964844 5.20132,-0.57853 9.07593,-2.093615 11.45703,-6.904297 0.92183,-1.811914 1.23577,-5.581152 1.00781,-9.396485 l -0.0488,-33.652343 c 0.01,-2.355753 -0.38947,-3.667024 2.73242,-4.314454 l 16.34961,-3.294921 2.44336,-0.492188 v -0.0039 l 11.15821,-2.25 c 1.81449,-0.365976 2.66769,0.253898 2.69531,2.300781 l 0.0488,25.144531 c -0.13962,2.973501 -0.42887,4.335537 -3.84961,4.882813 -12.10603,1.801889 -14.48967,5.821796 -14.41602,11.152344 0.0733,5.308775 4.44407,9.293012 10.375,8.695312 5.20132,-0.57853 8.94117,-1.9236929 11.32227,-6.734375 0.92183,-1.811914 0.9971,-5.411792 1.07422,-9.294922 l -0.0312,-51.482422 c -0.002,-2.895455 -0.4957,-4.178618 -2.59571,-4.220703 z"
         id="path1006" />
      <path
         inkscape:connector-curvature="0"
         id="path1008"
         d="m 377.5082,-79.329457 c -0.7,-0.01403 -1.57748,0.109171 -2.67578,0.357422 l -18.19922,3.69336 -17.34179,3.425781 c -3.0722,0.65674 -3.66824,2.371606 -3.59571,5.082031 l 0.0469,42.306641 c -0.13962,2.973501 -0.46207,4.605067 -3.88282,5.152343 -12.10602,1.801889 -14.4545,5.552265 -14.38085,10.882813 0.0733,5.308775 4.37571,9.562544 10.30664,8.964844 5.20132,-0.57853 9.07593,-2.093615 11.45703,-6.904297 0.92183,-1.811914 1.23577,-5.581152 1.00781,-9.396485 l -0.0488,-33.652343 c 0.01,-2.355753 -0.38947,-3.667024 2.73242,-4.314454 l 16.34961,-3.294921 2.44336,-0.492188 v -0.0039 l 11.15821,-2.25 c 1.81449,-0.365976 2.66769,0.253898 2.69531,2.300781 l 0.0488,25.144531 c -0.13962,2.973501 -0.42887,4.335537 -3.84961,4.882813 -12.10603,1.801889 -14.48967,5.821796 -14.41602,11.152344 0.0733,5.308775 4.44407,9.293012 10.375,8.695312 5.20132,-0.57853 8.94117,-1.9236929 11.32227,-6.734375 0.92183,-1.811914 0.9971,-5.411792 1.07422,-9.294922 l -0.0312,-51.482422 c -0.002,-2.895455 -0.4957,-4.178618 -2.59571,-4.220703 z"
         style="fill:none;stroke:#111214;stroke-width:10.5;stroke-linecap:round;stroke-linejoin:round;stroke-miterlimit:4;stroke-dasharray:none;stroke-opacity:0.01176471" />
    </g>
    <path
       sodipodi:nodetypes="cccccscccccccc"
       inkscape:connector-curvature="0"
       id="path863"
       d="M -4.6901363,1.0504103 -9.4839094,1.9971805 C -10.251932,2.1613597 -10.400874,2.589949 -10.382743,3.2675312 l 0.012,10.5762658 c -0.03491,0.743349 -0.115586,1.151513 -0.970741,1.288326 -3.0264,0.450457 -3.613787,1.387879 -3.595375,2.720469 0.01832,1.327147 1.094019,2.390509 2.576698,2.24109 1.300285,-0.144629 2.269028,-0.523132 2.8642819,-1.72576 0.2304496,-0.452962 0.3086621,-1.39515 0.2516741,-2.34895 l -0.01197,-8.4130744 c 0.00249,-0.5889173 -0.097328,-0.9167479 0.6831127,-1.0785998 l 4.0870139,-0.8236577 0.610886,-0.1231127 z"
       style="fill:url(#linearGradient909);fill-opacity:1;stroke:none;stroke-width:0.02499911;stroke-linecap:butt;stroke-linejoin:miter;stroke-miterlimit:4;stroke-dasharray:none;stroke-opacity:1" />
    <path
       style="fill:url(#linearGradient901);fill-opacity:1;stroke:none;stroke-width:0.02499911;stroke-linecap:butt;stroke-linejoin:miter;stroke-miterlimit:4;stroke-dasharray:none;stroke-opacity:1"
       d="m -0.41169028,5.5925123 0.012,6.2858367 c -0.0349,0.743349 -0.107111,1.083719 -0.96226602,1.220533 -3.0264,0.450457 -3.622262,1.455672 -3.60385,2.788263 0.01833,1.327146 1.110969,2.322714 2.593649,2.173295 1.300283,-0.144627 2.23512802,-0.480761 2.83038202,-1.683389 0.23045,-0.452962 0.249344,-1.352779 0.268623,-2.323527 l -0.008,-12.8701838 c -5e-4,-0.9651178 -0.219629,-1.2140365 -1.317893,-0.9657936 l -4.70481602,0.9548142 0.838688,4.5263383 3.379376,-0.6816075 c 0.45360602,-0.091488 0.66719402,0.063719 0.67409802,0.5754207 z"
       id="path865"
       inkscape:connector-curvature="0"
       sodipodi:nodetypes="cccscccccccscc" />
    <path
       sodipodi:nodetypes="cccscccccccscc"
       inkscape:connector-curvature="0"
       id="path911"
       d="m -0.41169028,5.5925123 0.012,6.2858367 c -0.0349,0.743349 -0.107111,1.083719 -0.96226602,1.220533 -3.0264,0.450457 -3.622262,1.455672 -3.60385,2.788263 0.01833,1.327146 1.110969,2.322714 2.593649,2.173295 1.300283,-0.144627 2.23512802,-0.480761 2.83038202,-1.683389 0.23045,-0.452962 0.249344,-1.352779 0.268623,-2.323527 l -0.008,-12.8701838 c -5e-4,-0.9651178 -0.219629,-1.2140365 -1.317893,-0.9657936 l -4.70481602,0.9548142 0.838688,4.5263383 3.379376,-0.6816075 c 0.45360602,-0.091488 0.66719402,0.063719 0.67409802,0.5754207 z"
       style="fill:url(#linearGradient921);fill-opacity:1;stroke:none;stroke-width:0.02499911;stroke-linecap:butt;stroke-linejoin:miter;stroke-miterlimit:4;stroke-dasharray:none;stroke-opacity:1" />
    <path
       style="fill:url(#linearGradient937);fill-opacity:1;stroke:none;stroke-width:0.02499911;stroke-linecap:butt;stroke-linejoin:miter;stroke-miterlimit:4;stroke-dasharray:none;stroke-opacity:1"
       d="m -0.41169028,5.5925123 0.012,6.2858367 c -0.0349,0.743349 -0.107111,1.083719 -0.96226602,1.220533 -3.0264,0.450457 -3.622262,1.455672 -3.60385,2.788263 0.01833,1.327146 1.110969,2.322714 2.593649,2.173295 1.300283,-0.144627 2.23512802,-0.480761 2.83038202,-1.683389 0.23045,-0.452962 0.249344,-1.352779 0.268623,-2.323527 l -0.008,-12.8701838 c -5e-4,-0.9651178 -0.219629,-1.2140365 -1.317893,-0.9657936 l -4.70481602,0.9548142 0.838688,4.5263383 3.379376,-0.6816075 c 0.45360602,-0.091488 0.66719402,0.063719 0.67409802,0.5754207 z"
       id="path929"
       inkscape:connector-curvature="0"
       sodipodi:nodetypes="cccscccccccscc" />
    <path
       style="fill:url(#linearGradient949);fill-opacity:1;stroke:none;stroke-width:0.02499911;stroke-linecap:butt;stroke-linejoin:miter;stroke-miterlimit:4;stroke-dasharray:none;stroke-opacity:1"
       d="M -4.6901363,1.0504103 -9.4839094,1.9971805 C -10.251932,2.1613597 -10.400874,2.589949 -10.382743,3.2675312 l 0.012,10.5762658 c -0.03491,0.743349 -0.115586,1.151513 -0.970741,1.288326 -3.0264,0.450457 -3.613787,1.387879 -3.595375,2.720469 0.01832,1.327147 1.094019,2.390509 2.576698,2.24109 1.300285,-0.144629 2.269028,-0.523132 2.8642819,-1.72576 0.2304496,-0.452962 0.3086621,-1.39515 0.2516741,-2.34895 l -0.01197,-8.4130744 c 0.00249,-0.5889173 -0.097328,-0.9167479 0.6831127,-1.0785998 l 4.0870139,-0.8236577 0.610886,-0.1231127 z"
       id="path939"
       inkscape:connector-curvature="0"
       sodipodi:nodetypes="cccccscccccccc" />
    <path
       id="path949"
       style="fill:#000000;fill-opacity:0.15744731;stroke:none;stroke-width:0.02499911;stroke-linecap:butt;stroke-linejoin:miter;stroke-miterlimit:4;stroke-dasharray:none;stroke-opacity:1"
       d="m -0.92689328,4.8287438 c -0.04927,0.00351 -0.10245902,0.010784 -0.15916002,0.022219 l -2.788922,0.5627455 v 0.00103 l -0.61132,0.1229902 -4.087009,0.823706 c -0.6625568,0.1374066 -0.6888593,0.4054282 -0.6836656,0.8402443 0.010972,-0.3420548 0.104212,-0.5541941 0.6836656,-0.6743641 l 4.087009,-0.8237061 0.61132,-0.1229875 v -0.00103 l 2.788922,-0.5627452 c 0.45360602,-0.091488 0.66745902,0.063962 0.67436402,0.575664 l 0.01137,6.1245701 c 7.9e-5,-0.0017 4.5e-4,-0.003 5.29e-4,-0.0047 l -0.011885,-6.2857505 c -0.006043,-0.4477419 -0.170296,-0.6224251 -0.515204,-0.5978847 z m 1.653614,9.0628342 c -0.01925,0.969127 -0.0386,1.867406 -0.268713,2.319709 -0.595254,1.202628 -1.52997902,1.538441 -2.83026202,1.683069 -1.469781,0.148119 -2.554874,-0.829031 -2.591522,-2.138846 -8.2e-4,0.04387 -0.0027,0.08715 -0.0021,0.131772 0.01833,1.327147 1.110909,2.322371 2.593589,2.172952 1.300283,-0.144627 2.23500802,-0.48044 2.83026302,-1.683069 0.230449,-0.452962 0.249432,-1.353095 0.268712,-2.323843 z m -9.95578582,2.738797 c -0.013793,0.658974 -0.099905,1.243711 -0.2666453,1.571449 -0.5952546,1.202628 -1.5640836,1.58133 -2.8643686,1.72596 -1.469417,0.148084 -2.537616,-0.895501 -2.574469,-2.206024 -7.93e-4,0.04348 -0.0027,0.08638 -0.0021,0.130739 0.01832,1.327146 1.093857,2.390583 2.576537,2.241162 1.300284,-0.144629 2.269114,-0.52333 2.8643677,-1.725959 0.180555,-0.354891 0.2648039,-1.011596 0.2666453,-1.737327 z"
       inkscape:connector-curvature="0" />
    <path
       id="path963"
       style="fill:#000000;fill-opacity:0.12194046;stroke:none;stroke-width:0.02499911;stroke-linecap:butt;stroke-linejoin:miter;stroke-miterlimit:4;stroke-dasharray:none;stroke-opacity:1"
       d="m 0.06992572,0.1278313 c -0.174994,-0.00351 -0.394631,0.027855 -0.669197,0.089915 L -5.1699613,1.1453202 -9.483825,1.996931 c -0.768023,0.1641792 -0.917284,0.5931162 -0.899152,1.2706986 v 0.093532 c -0.01577,-0.6697757 0.136246,-1.094694 0.899152,-1.2577792 L -5.1699613,1.2517716 -0.59927128,0.324198 c 0.274566,-0.062061 0.494202,-0.093425 0.669197,-0.089915 0.524984,0.01052 0.648668,0.3318905 0.649043,1.0557286 V 1.18356 c -3.7e-4,-0.7238382 -0.124059,-1.0452077 -0.649043,-1.0557287 z m -9.32741232,7.184433 c -0.00355,0.1176976 0.0022,0.2499424 0.00156,0.3999678 V 7.6057806 c 4.762e-4,-0.109602 -0.00124,-0.201395 -0.00156,-0.2935163 z m 8.85768232,4.5691397 c -0.03496,0.741055 -0.108308,1.080861 -0.96219602,1.217473 -3.0264,0.450456 -3.622255,1.455815 -3.603843,2.788405 1.01e-4,0.0074 0.0014,0.01437 0.0016,0.0217 0.0087,-1.290001 0.641064,-2.262902 3.602293,-2.703658 0.85515502,-0.136814 0.92729702,-0.477225 0.96219602,-1.220573 z m -9.97077072,1.964699 c -0.03497,0.741967 -0.116664,1.149522 -0.970981,1.286202 -3.026401,0.450456 -3.613471,1.387604 -3.595059,2.720194 1.04e-4,0.0075 0.0014,0.01473 0.0016,0.02222 0.0083,-1.287274 0.632155,-2.195188 3.593509,-2.635963 0.855154,-0.136814 0.936071,-0.544919 0.970981,-1.288268 z m 1.1265239,2.172952 v 0.106451 c 0.013017,0.217851 0.016795,0.433985 0.015502,0.644909 0.00437,-0.243779 -2.91e-4,-0.496818 -0.015502,-0.75136 z"
       inkscape:connector-curvature="0" />
    <path
       id="path970"
       style="fill:#000000;fill-opacity:0.18674251;stroke:none;stroke-width:0.02499911;stroke-linecap:butt;stroke-linejoin:miter;stroke-miterlimit:4;stroke-dasharray:none;stroke-opacity:1"
       d="m 0.06992572,0.1278313 c -0.174994,-0.00351 -0.394631,0.027855 -0.669197,0.089915 L -5.1699613,1.1453202 -9.483825,1.996931 c -0.768023,0.1641792 -0.917284,0.5931162 -0.899152,1.2706986 v 0.2046345 c -0.01293,-0.660465 0.142387,-1.0805042 0.899152,-1.2422771 l 4.3138637,-0.8516107 4.57069002,-0.9275736 c 0.274566,-0.062061 0.494202,-0.093425 0.669197,-0.089915 0.524984,0.010522 0.648668,0.3318907 0.649043,1.0557289 V 1.18356 c -3.7e-4,-0.7238382 -0.124059,-1.0452077 -0.649043,-1.0557287 z M -9.2569699,7.4311178 c -0.0041,0.1197041 0.00169,0.254204 0.00103,0.4077189 l 0.011885,8.4132743 c 0.011557,0.193414 0.013657,0.384107 0.013951,0.572563 0.00632,-0.260501 0.00241,-0.531879 -0.013951,-0.805619 l -0.011883,-8.4132744 c 2.646e-4,-0.065221 -1.243e-4,-0.1157201 -0.00103,-0.1746628 z m 8.85664962,4.4539042 c -0.03503,0.738359 -0.109284,1.077482 -0.96168002,1.213855 -3.0264,0.450456 -3.622255,1.455815 -3.603843,2.788405 2.22e-4,0.0161 0.0026,0.03154 0.0031,0.04754 0.04161,-1.239705 0.717299,-2.173713 3.600743,-2.602891 0.85515502,-0.136814 0.92729602,-0.477225 0.96219602,-1.220573 z m -9.97077172,1.963149 c -0.03502,0.740563 -0.116997,1.14759 -0.970464,1.284134 -3.026401,0.450456 -3.613471,1.387604 -3.595059,2.720194 2.29e-4,0.01659 0.0025,0.03259 0.0031,0.04909 0.04048,-1.234463 0.707619,-2.106918 3.591958,-2.536229 0.855154,-0.136814 0.936072,-0.544919 0.970981,-1.288268 z"
       inkscape:connector-curvature="0" />
    <path
       id="path968"
       style="fill:#000000;fill-opacity:0.19948886;stroke:none;stroke-width:0.02499911;stroke-linecap:butt;stroke-linejoin:miter;stroke-miterlimit:4;stroke-dasharray:none;stroke-opacity:1"
       d="m 0.06992572,0.1278313 c -0.174994,-0.00351 -0.394631,0.027855 -0.669197,0.089915 L -5.1699613,1.1453202 -9.483825,1.996931 c -0.768023,0.1641792 -0.917284,0.5931162 -0.899152,1.2706986 l 5.29e-4,0.3699959 c -0.0088,-0.6472235 0.150673,-1.0601656 0.8986354,-1.2200565 l 4.3138643,-0.8516109 4.57069002,-0.9275735 c 0.274565,-0.062061 0.494202,-0.093425 0.669196,-0.089915 0.524984,0.01052 0.648669,0.3318905 0.649044,1.0557286 V 1.18356 c -3.71e-4,-0.7238382 -0.12406,-1.0452077 -0.649044,-1.0557287 z M -9.2559365,7.6068141 c -0.00498,0.1225965 6.615e-4,0.2609608 0,0.4196045 l 0.011885,8.4132744 c 0.0094,0.15728 0.0094,0.311102 0.011369,0.465595 0.00964,-0.284692 0.00669,-0.583966 -0.011369,-0.886233 z m 8.85561622,4.2838919 c -0.03516,0.734175 -0.111608,1.07217 -0.96168002,1.208171 -3.0264,0.450456 -3.622255,1.455815 -3.603843,2.788405 6.08e-4,0.04322 0.0054,0.08515 0.0083,0.127639 0.07747,-1.186322 0.79574,-2.078672 3.595575,-2.495406 0.85515502,-0.136814 0.92729702,-0.477225 0.96219602,-1.220573 z m -9.97077172,1.961082 c -0.03513,0.73815 -0.118461,1.144207 -0.970464,1.280517 -3.026401,0.450456 -3.613471,1.387604 -3.595059,2.720194 6.09e-4,0.04383 0.0054,0.08648 0.0083,0.129705 0.0761,-1.17796 0.786384,-2.012442 3.586791,-2.429262 0.855154,-0.136813 0.936071,-0.544918 0.970981,-1.288268 z"
       inkscape:connector-curvature="0" />
  </g>
</svg>
