<?xml version="1.0" encoding="UTF-8" standalone="no"?>
<svg
   xmlns:dc="http://purl.org/dc/elements/1.1/"
   xmlns:cc="http://creativecommons.org/ns#"
   xmlns:rdf="http://www.w3.org/1999/02/22-rdf-syntax-ns#"
   xmlns:svg="http://www.w3.org/2000/svg"
   xmlns="http://www.w3.org/2000/svg"
   xmlns:xlink="http://www.w3.org/1999/xlink"
   xmlns:sodipodi="http://sodipodi.sourceforge.net/DTD/sodipodi-0.dtd"
   xmlns:inkscape="http://www.inkscape.org/namespaces/inkscape"
   id="SimpleNote"
   width="64"
   height="64"
   enable-background="new 0 0 1024 1024"
   image-rendering="optimizeSpeed"
   version="1.1"
   viewBox="0 0 64 64"
   sodipodi:docname="multimedia-volume-control.svg"
   inkscape:version="0.92.5 (6c0c36ef5a, 2020-05-15, custom)">
  <metadata
     id="metadata67">
    <rdf:RDF>
      <cc:Work
         rdf:about="">
        <dc:format>image/svg+xml</dc:format>
        <dc:type
           rdf:resource="http://purl.org/dc/dcmitype/StillImage" />
        <dc:title></dc:title>
      </cc:Work>
    </rdf:RDF>
  </metadata>
  <sodipodi:namedview
     pagecolor="#ffffff"
     bordercolor="#666666"
     borderopacity="1"
     objecttolerance="10"
     gridtolerance="10"
     guidetolerance="10"
     inkscape:pageopacity="0"
     inkscape:pageshadow="2"
     inkscape:window-width="1920"
     inkscape:window-height="954"
     id="namedview65"
     showgrid="true"
     inkscape:zoom="3.6875"
     inkscape:cx="20.814879"
     inkscape:cy="38.950501"
     inkscape:window-x="0"
     inkscape:window-y="36"
     inkscape:window-maximized="1"
     inkscape:current-layer="SimpleNote">
    <inkscape:grid
       type="xygrid"
       id="grid953" />
  </sodipodi:namedview>
  <defs
     id="defs39">
    <linearGradient
       id="linearGradient959">
      <stop
         id="stop955"
         offset="0"
         stop-color="#8d3aff"
         style="stop-color:#781eff;stop-opacity:1" />
      <stop
         id="stop957"
         offset="1"
         stop-color="#ff3680"
         style="stop-color:#ff3250;stop-opacity:1" />
    </linearGradient>
    <linearGradient
       id="a"
       x1="748.23"
       x2="-290.32"
       y1="-271.72"
       y2="766.82"
       gradientTransform="translate(21.417,-7.0039)"
       gradientUnits="userSpaceOnUse">
      <stop
         stop-color="#e97cc8"
         offset="0"
         id="stop2" />
      <stop
         stop-color="#7839b7"
         offset="1"
         id="stop4" />
    </linearGradient>
    <filter
       id="d"
       x="-.036"
       y="-.036"
       width="1.072"
       height="1.072"
       color-interpolation-filters="sRGB">
      <feGaussianBlur
         stdDeviation="7.2782306"
         id="feGaussianBlur7" />
    </filter>
    <filter
       id="c"
       x="-.036"
       y="-.036"
       width="1.072"
       height="1.072"
       color-interpolation-filters="sRGB">
      <feGaussianBlur
         stdDeviation="14.170353"
         id="feGaussianBlur10" />
    </filter>
    <linearGradient
       id="j"
       x1="400.01"
       x2="399.93"
       y1="555.33"
       y2="518.93"
       gradientTransform="matrix(2.0715,0,0,2.0715,-908.13288,-1069.6)"
       gradientUnits="userSpaceOnUse">
      <stop
         stop-color="#d3d3d3"
         offset="0"
         id="stop13" />
      <stop
         stop-color="#fff"
         offset="1"
         id="stop15" />
    </linearGradient>
    <linearGradient
       id="i"
       x1="400.4"
       x2="400.4"
       y1="545.62"
       y2="517.62"
       gradientTransform="matrix(1.5862 0 0 1.5862 -585.75 -804.34)"
       gradientUnits="userSpaceOnUse">
      <stop
         stop-color="#d3d3d3"
         offset="0"
         id="stop18" />
      <stop
         stop-color="#fcf9f9"
         offset="1"
         id="stop20" />
    </linearGradient>
    <linearGradient
       id="h"
       x1="2.819"
       x2="11.758"
       y1="1044.3"
       y2="1044.3"
       gradientUnits="userSpaceOnUse">
      <stop
         stop-color="#333538"
         offset="0"
         id="stop23" />
      <stop
         stop-color="#566069"
         offset="1"
         id="stop25" />
    </linearGradient>
    <linearGradient
       id="f"
       x1="400.4"
       x2="400.4"
       y1="545.62"
       y2="517.62"
       gradientTransform="matrix(1.6382 0 0 1.6382 -660.38 -809.85)"
       gradientUnits="userSpaceOnUse"
       xlink:href="#b" />
    <linearGradient
       id="b">
      <stop
         stop-color="#8d3aff"
         offset="0"
         id="stop29" />
      <stop
         stop-color="#ff3680"
         offset="1"
         id="stop31" />
    </linearGradient>
    <linearGradient
       id="k"
       x1="428.93039"
       x2="428.93039"
       y1="539.8009"
       y2="524.47089"
       gradientTransform="matrix(2.4786955,0,0,2.4786955,-1034.9545,-1284.0021)"
       gradientUnits="userSpaceOnUse"
       xlink:href="#linearGradient959" />
    <linearGradient
       id="g"
       x1="400.4"
       x2="400.4"
       y1="545.62"
       y2="517.62"
       gradientTransform="matrix(2.0357,0,0,2.0357,-893.82288,-1050.6)"
       gradientUnits="userSpaceOnUse"
       xlink:href="#b" />
    <filter
       id="l"
       x="-.068696"
       y="-.053258"
       width="1.1374"
       height="1.1065"
       color-interpolation-filters="sRGB">
      <feGaussianBlur
         stdDeviation="0.68696465"
         id="feGaussianBlur36" />
    </filter>
    <linearGradient
       gradientUnits="userSpaceOnUse"
       gradientTransform="matrix(.96154 0 0 .96154 -65.275 -1.6916)"
       y2="14.704"
       y1="13.177"
       x2="82.141"
       x1="80.368"
       id="linearGradient938">
      <stop
         id="stop4-3"
         offset="0"
         stop-color="#fafafa" />
      <stop
         id="stop6"
         offset="1"
         stop-color="#90a0b3" />
    </linearGradient>
    <filter
       color-interpolation-filters="sRGB"
       height="1.1131"
       width="1.1278"
       y="-.056531"
       x="-.063923"
       id="filter1066">
      <feGaussianBlur
         id="feGaussianBlur9"
         stdDeviation="0.22705935" />
    </filter>
    <filter
       color-interpolation-filters="sRGB"
       height="1.237"
       width="1.2439"
       y="-.11848"
       x="-.12197"
       id="filter1100">
      <feGaussianBlur
         id="feGaussianBlur12"
         stdDeviation="0.47586465" />
    </filter>
    <filter
       id="filter861"
       x="-.027"
       y="-.027"
       width="1.054"
       height="1.054"
       color-interpolation-filters="sRGB">
      <feGaussianBlur
         stdDeviation="0.16371"
         id="feGaussianBlur866" />
    </filter>
    <linearGradient
       id="linearGradient1261"
       x1="54.456"
       x2="54.456"
       y1="6.4548"
       y2="11.072"
       gradientTransform="matrix(0.99367,0.11225,-0.11225,0.99367,-28.365566,-11.171754)"
       gradientUnits="userSpaceOnUse">
      <stop
         stop-color="#ffd700"
         offset="0"
         id="stop869" />
      <stop
         stop-color="#ffb300"
         offset="1"
         id="stop871" />
    </linearGradient>
  </defs>
  <circle
     cx="49.639"
     cy="39.205"
     r="0"
     fill="url(#i)"
     id="circle54" />
  <circle
     cx="-4.1496"
     cy="61.361"
     r="0"
     fill="none"
     stroke="url(#f)"
     stroke-width="2.1297"
     id="circle56" />
  <rect
     style="opacity:0.3;stroke-width:0.083153;stroke-opacity:0.95293998;filter:url(#filter861)"
     x="1.1905"
     y="1.1905"
     width="14.552"
     height="14.552"
     ry="3.4395001"
     id="rect878"
     transform="matrix(3.779602,0,0,3.779602,-1.011042e-6,-1.011042e-6)" />
  <rect
     style="fill:#fafafa;stroke-width:0.31428525;stroke-opacity:0.95293998"
     x="4.4996152"
     y="4.4996152"
     width="55.000767"
     height="55.000767"
     ry="12.999942"
     id="rect880" />
  <path
     d="m 29.223674,20.207771 c -1.0232,0.28715 -1.8469,1.429 -1.8469,2.5383 v 17.586 c -1.0376,-0.56884 -2.37,-0.79887 -3.7515,-0.42294 -2.4928,0.67816 -4.055,2.87 -3.5206,4.895 0.53438,2.0249 2.9901,3.1559 5.483,2.4776 1.9887,-0.54102 3.3597,-2.072 3.5783,-3.6863 l 0.05825,-16.619 12.928,-3.626 v 13.114 c -1.0375,-0.56888 -2.37,-0.79888 -3.7515,-0.42309 -2.4928,0.6782 -4.0549,2.8701 -3.5206,4.895 0.5344,2.025 2.9901,3.1559 5.4829,2.4777 1.9888,-0.54102 3.3597,-2.0719 3.5783,-3.6863 l 0.05852,-21.635 c 0,-0.8318 -0.491,-1.4541 -1.1543,-1.5712 l -13.621,3.6863 z"
     id="path58"
     inkscape:connector-curvature="0"
     style="opacity:0.25;filter:url(#l)"
     transform="matrix(1.3567025,0,0,1.3567025,-11.414482,-11.414482)" />
  <path
     d="m 28.233483,16.001118 c -1.388178,0.389577 -2.505694,1.938727 -2.505694,3.443718 v 23.85897 c -1.407714,-0.771746 -3.215385,-1.083829 -5.089669,-0.573803 -3.381989,0.920061 -5.501429,3.893736 -4.776407,6.641059 0.724994,2.747187 4.056676,4.281618 7.438799,3.361366 2.698075,-0.734003 4.558114,-2.811087 4.85469,-5.001213 l 0.07903,-22.547039 17.53945,-4.919404 V 38.05657 C 44.3661,37.284768 42.558294,36.972727 40.68401,37.482563 c -3.381989,0.920115 -5.501294,3.893871 -4.776407,6.641059 0.725021,2.747322 4.056676,4.281617 7.438663,3.361501 2.69821,-0.734003 4.558114,-2.810952 4.85469,-5.001212 l 0.07939,-29.35226 c 0,-1.128505 -0.66614,-1.972781 -1.566041,-2.131651 L 28.23466,16.001213 Z"
     id="path60"
     style="fill:url(#k);stroke-width:1.35670257"
     inkscape:connector-curvature="0" />
</svg>
