<?xml version="1.0" encoding="UTF-8" standalone="no"?>
<svg
   xmlns:dc="http://purl.org/dc/elements/1.1/"
   xmlns:cc="http://creativecommons.org/ns#"
   xmlns:rdf="http://www.w3.org/1999/02/22-rdf-syntax-ns#"
   xmlns:svg="http://www.w3.org/2000/svg"
   xmlns="http://www.w3.org/2000/svg"
   xmlns:xlink="http://www.w3.org/1999/xlink"
   xmlns:sodipodi="http://sodipodi.sourceforge.net/DTD/sodipodi-0.dtd"
   xmlns:inkscape="http://www.inkscape.org/namespaces/inkscape"
   width="64"
   height="64"
   version="1.1"
   id="svg59"
   sodipodi:docname="network-wireless.svg"
   inkscape:version="1.0 (4035a4fb49, 2020-05-01)">
  <metadata
     id="metadata63">
    <rdf:RDF>
      <cc:Work
         rdf:about="">
        <dc:format>image/svg+xml</dc:format>
        <dc:type
           rdf:resource="http://purl.org/dc/dcmitype/StillImage" />
        <dc:title></dc:title>
      </cc:Work>
    </rdf:RDF>
  </metadata>
  <sodipodi:namedview
     inkscape:snap-bbox-edge-midpoints="true"
     inkscape:bbox-nodes="true"
     inkscape:snap-bbox="true"
     inkscape:document-rotation="0"
     pagecolor="#ffffff"
     bordercolor="#666666"
     borderopacity="1"
     objecttolerance="10"
     gridtolerance="10"
     guidetolerance="10"
     inkscape:pageopacity="0"
     inkscape:pageshadow="2"
     inkscape:window-width="1920"
     inkscape:window-height="932"
     id="namedview61"
     showgrid="false"
     inkscape:zoom="2.1075097"
     inkscape:cx="-1.8529326"
     inkscape:cy="42.766679"
     inkscape:window-x="0"
     inkscape:window-y="36"
     inkscape:window-maximized="1"
     inkscape:current-layer="svg59">
    <inkscape:grid
       id="grid1046"
       type="xygrid" />
  </sodipodi:namedview>
  <defs
     id="defs21">
    <linearGradient
       id="linearGradient1111"
       x1="511.98"
       x2="511.98"
       y1="872.5"
       y2="154.58"
       gradientUnits="userSpaceOnUse">
      <stop
         stop-color="#0074ff"
         offset="0"
         id="stop1107" />
      <stop
         style="stop-color:#28c8ff;stop-opacity:1"
         stop-color="#2ab6ff"
         offset="1"
         id="stop1109" />
    </linearGradient>
    <linearGradient
       id="linearGradient1095"
       x1="511.98"
       x2="511.98"
       y1="872.5"
       y2="154.58"
       gradientUnits="userSpaceOnUse">
      <stop
         stop-color="#0074ff"
         offset="0"
         id="stop1091" />
      <stop
         style="stop-color:#28b6ff;stop-opacity:1"
         stop-color="#2ab6ff"
         offset="1"
         id="stop1093" />
    </linearGradient>
    <linearGradient
       id="linearGradient1085"
       inkscape:collect="always">
      <stop
         id="stop1081"
         offset="0"
         style="stop-color:#dcdcdc;stop-opacity:1" />
      <stop
         style="stop-color:#f5f5f5;stop-opacity:1"
         offset="0.1"
         id="stop1089" />
      <stop
         id="stop1083"
         offset="1"
         style="stop-color:#fafafa;stop-opacity:1" />
    </linearGradient>
    <linearGradient
       id="linearGradient1058"
       inkscape:collect="always">
      <stop
         id="stop1054"
         offset="0"
         style="stop-color:#28c8ff;stop-opacity:1" />
      <stop
         id="stop1056"
         offset="1"
         style="stop-color:#0073ff;stop-opacity:1" />
    </linearGradient>
    <linearGradient
       id="b"
       x1="408.25"
       x2="407.94"
       y1="547.6"
       y2="498.89"
       gradientTransform="matrix(1.3276,0,0,1.3276,-648.38267,-663.52)"
       gradientUnits="userSpaceOnUse">
      <stop
         stop-color="#fff"
         offset="0"
         id="stop2" />
      <stop
         stop-color="#e6e6e6"
         offset="1"
         id="stop4" />
    </linearGradient>
    <filter
       id="d"
       x="-.058883"
       y="-.061161"
       width="1.1178"
       height="1.1223"
       color-interpolation-filters="sRGB">
      <feGaussianBlur
         stdDeviation="10.562379"
         id="feGaussianBlur7" />
    </filter>
    <filter
       id="c"
       x="-.036"
       y="-.036"
       width="1.072"
       height="1.072"
       color-interpolation-filters="sRGB">
      <feGaussianBlur
         stdDeviation="0.88972449"
         id="feGaussianBlur10" />
    </filter>
    <linearGradient
       id="a"
       x1="506.61"
       x2="516.39"
       y1="-2.3094"
       y2="518.6"
       gradientUnits="userSpaceOnUse">
      <stop
         stop-color="#0012ff"
         offset="0"
         id="stop13" />
      <stop
         stop-color="#00bcff"
         offset="1"
         id="stop15" />
    </linearGradient>
    <filter
       id="e"
       x="-.051381"
       y="-.072094"
       width="1.1028"
       height="1.1442"
       color-interpolation-filters="sRGB">
      <feGaussianBlur
         stdDeviation="13.101814"
         id="feGaussianBlur18" />
    </filter>
    <filter
       color-interpolation-filters="sRGB"
       height="1.1442"
       width="1.1028"
       y="-.072094"
       x="-.051381"
       id="e-3">
      <feGaussianBlur
         id="feGaussianBlur890"
         stdDeviation="13.101814" />
    </filter>
    <linearGradient
       gradientUnits="userSpaceOnUse"
       y2="2.2585"
       y1="61.868"
       x2="31.955"
       x1="31.955"
       id="linearGradient5953"
       gradientTransform="translate(78.151108,-0.30568174)">
      <stop
         id="stop893"
         offset="0"
         stop-color="#0073ff" />
      <stop
         id="stop895"
         offset="1"
         stop-color="#2ab7ff" />
    </linearGradient>
    <linearGradient
       gradientUnits="userSpaceOnUse"
       gradientTransform="matrix(0.91667,0,0,0.91667,80.817808,2.3610183)"
       y2="2.2585"
       y1="61.868"
       x2="31.955"
       x1="31.955"
       id="linearGradient5957">
      <stop
         id="stop898"
         offset="0"
         stop-color="#e8e8e8" />
      <stop
         id="stop900"
         offset="1"
         stop-color="#fff" />
    </linearGradient>
    <style
       id="style903"
       type="text/css" />
    <style
       id="style905"
       type="text/css" />
    <linearGradient
       gradientUnits="userSpaceOnUse"
       y2="154.58"
       y1="872.5"
       x2="511.98"
       x1="511.98"
       id="linearGradient6094">
      <stop
         id="stop907"
         offset="0"
         stop-color="#0074ff" />
      <stop
         id="stop909"
         offset="1"
         stop-color="#2ab6ff" />
    </linearGradient>
    <filter
       color-interpolation-filters="sRGB"
       height="1.1159"
       width="1.0819"
       y="-.057942"
       x="-.04097"
       id="filter6116">
      <feGaussianBlur
         id="feGaussianBlur912"
         stdDeviation="17.479526" />
    </filter>
    <linearGradient
       inkscape:collect="always"
       xlink:href="#linearGradient6094"
       id="linearGradient1001"
       gradientUnits="userSpaceOnUse"
       x1="511.98"
       y1="872.5"
       x2="511.98"
       y2="154.58" />
    <linearGradient
       inkscape:collect="always"
       xlink:href="#linearGradient6094"
       id="linearGradient1003"
       gradientUnits="userSpaceOnUse"
       x1="511.98"
       y1="872.5"
       x2="511.98"
       y2="154.58" />
    <linearGradient
       inkscape:collect="always"
       xlink:href="#linearGradient6094"
       id="linearGradient1005"
       gradientUnits="userSpaceOnUse"
       x1="511.98"
       y1="872.5"
       x2="511.98"
       y2="154.58" />
    <linearGradient
       inkscape:collect="always"
       xlink:href="#linearGradient1095"
       id="linearGradient1007"
       gradientUnits="userSpaceOnUse"
       x1="511.98"
       y1="872.5"
       x2="511.98001"
       y2="355.66852" />
    <linearGradient
       inkscape:collect="always"
       xlink:href="#linearGradient1111"
       id="linearGradient1009"
       gradientUnits="userSpaceOnUse"
       x1="511.98"
       y1="872.5"
       x2="511.98001"
       y2="542.71954" />
    <linearGradient
       gradientUnits="userSpaceOnUse"
       gradientTransform="matrix(1.3393,0,0,1.3393,-0.20536,-0.075313)"
       y2="32.913"
       y1="15.18"
       x2="23.487"
       x1="23.487"
       id="a-6">
      <stop
         id="stop1011"
         offset="0"
         stop-color="#8c59d9" />
      <stop
         id="stop1013"
         offset="1"
         stop-color="#8f76e4" />
    </linearGradient>
    <linearGradient
       gradientUnits="userSpaceOnUse"
       gradientTransform="matrix(0.016536,0,0,0.016536,-25.037,-1.7805)"
       y2="792.36"
       y1="272.36"
       x2="520"
       x1="520"
       id="b-7">
      <stop
         id="stop1016"
         offset="0"
         stop-color="#7839b7" />
      <stop
         id="stop1018"
         offset="1"
         stop-color="#2f5fdd" />
    </linearGradient>
    <radialGradient
       gradientUnits="userSpaceOnUse"
       gradientTransform="matrix(2.1722,-3.9662e-7,3.0039e-7,1.6452,-20.233,-7.4007)"
       r="2.9867"
       cy="23.949"
       cx="24.047"
       id="c-5">
      <stop
         id="stop1021"
         offset="0"
         stop-color="#4d4d4d" />
      <stop
         id="stop1023"
         offset="1"
         stop-opacity="0" />
    </radialGradient>
    <linearGradient
       gradientUnits="userSpaceOnUse"
       gradientTransform="matrix(0.016601,0,0,0.016601,-25.07,-1.8155)"
       y2="545.43"
       y1="331.99"
       x2="596.38"
       x1="596.38"
       id="g">
      <stop
         id="stop1026"
         offset="0"
         stop-color="#fff" />
      <stop
         id="stop1028"
         offset="1"
         stop-opacity="0"
         stop-color="#fff" />
    </linearGradient>
    <linearGradient
       gradientUnits="userSpaceOnUse"
       gradientTransform="matrix(0.016601,0,0,0.016601,-25.07,-1.8155)"
       y2="722.79"
       y1="616.07"
       x2="361.36"
       x1="361.36"
       id="d-3">
      <stop
         id="stop1031"
         offset="0"
         stop-color="#fff" />
      <stop
         id="stop1033"
         offset="1"
         stop-opacity="0"
         stop-color="#fff" />
    </linearGradient>
    <filter
       color-interpolation-filters="sRGB"
       height="1.12"
       width="1.12"
       y="-.06"
       x="-.06"
       id="h">
      <feGaussianBlur
         id="feGaussianBlur1036"
         stdDeviation="0.9500268" />
    </filter>
    <linearGradient
       gradientUnits="userSpaceOnUse"
       gradientTransform="matrix(3.4646478,0,0,3.4646478,2.6662814,2.6662814)"
       y2="2.6458"
       y1="16.404"
       x2="3.9687"
       x1="3.9687"
       id="linearGradient1448">
      <stop
         id="stop1039"
         offset="0"
         stop-color="#dcdcdc" />
      <stop
         id="stop1041"
         offset="1"
         stop-color="#f0f0f0" />
    </linearGradient>
    <filter
       color-interpolation-filters="sRGB"
       height="1.054"
       width="1.054"
       y="-.027"
       x="-.027"
       id="filter861">
      <feGaussianBlur
         id="feGaussianBlur1044"
         stdDeviation="0.16371" />
    </filter>
    <clipPath
       id="clipPath1049">
      <rect
         id="rect1047"
         height="384"
         width="384" />
    </clipPath>
    <clipPath
       id="clipPath1053">
      <rect
         id="rect1051"
         height="384"
         width="384" />
    </clipPath>
    <filter
       id="e-36"
       x="-.051381"
       y="-.072094"
       width="1.1028"
       height="1.1442"
       color-interpolation-filters="sRGB">
      <feGaussianBlur
         stdDeviation="13.101814"
         id="feGaussianBlur907" />
    </filter>
    <linearGradient
       gradientTransform="translate(89.847959,7.9403835)"
       id="linearGradient5953-7"
       x1="31.955"
       x2="31.955"
       y1="61.868"
       y2="2.2585"
       gradientUnits="userSpaceOnUse">
      <stop
         stop-color="#0073ff"
         offset="0"
         id="stop910" />
      <stop
         stop-color="#2ab7ff"
         offset="1"
         id="stop912" />
    </linearGradient>
    <linearGradient
       id="linearGradient5957-5"
       x1="31.955"
       x2="31.955"
       y1="61.868"
       y2="2.2585"
       gradientTransform="matrix(0.91667,0,0,0.91667,92.514659,10.607084)"
       gradientUnits="userSpaceOnUse">
      <stop
         stop-color="#e8e8e8"
         offset="0"
         id="stop915" />
      <stop
         stop-color="#fff"
         offset="1"
         id="stop917" />
    </linearGradient>
    <style
       type="text/css"
       id="style920" />
    <style
       type="text/css"
       id="style922" />
    <filter
       id="filter6116-3"
       x="-.04097"
       y="-.057942"
       width="1.0819"
       height="1.1159"
       color-interpolation-filters="sRGB">
      <feGaussianBlur
         stdDeviation="17.479526"
         id="feGaussianBlur929" />
    </filter>
    <linearGradient
       gradientTransform="translate(64.5,-75.5)"
       gradientUnits="userSpaceOnUse"
       y2="135"
       x2="-30"
       y1="98.966034"
       x1="-30"
       id="linearGradient1060"
       xlink:href="#linearGradient1058"
       inkscape:collect="always" />
    <linearGradient
       gradientTransform="translate(-64.786782,-80.014978)"
       gradientUnits="userSpaceOnUse"
       y2="134.51498"
       x2="100.28678"
       y1="89.514977"
       x1="100.28678"
       id="linearGradient1087"
       xlink:href="#linearGradient1085"
       inkscape:collect="always" />
  </defs>
  <rect
     x="1.1905"
     y="1.1905"
     width="14.552"
     height="14.552"
     ry="3.4395001"
     filter="url(#filter861)"
     opacity="0.3"
     stroke-opacity="0.95294"
     stroke-width="0.083153"
     id="rect1059"
     transform="matrix(3.779602,0,0,3.779602,-1.011042e-6,-1.011042e-6)" />
  <rect
     ry="12.9999"
     y="4.5"
     x="4.5"
     height="55"
     width="55"
     id="rect1052"
     style="fill:url(#linearGradient1060);fill-opacity:1;stroke-width:3;stroke-linecap:round" />
  <circle
     r="22.5"
     cy="32"
     cx="32"
     id="path1079"
     style="fill:url(#linearGradient1087);fill-opacity:1;stroke-width:5.19231;stroke-linecap:round" />
  <g
     id="g945"
     opacity="0.3"
     filter="url(#filter6116)"
     transform="matrix(0.03610758,0,0,0.03610758,13.513984,13.567287)">
    <path
       id="path937"
       p-id="4137"
       d="m 183.99,544.56 -52.429,-52.398 c 49.372,-49.439 106.94,-88.212 171,-115.35 66.355,-28.052 136.81,-42.322 209.41,-42.322 72.658,0 143.1,14.264 209.46,42.322 64.056,27.141 121.58,65.915 170.97,115.35 l -52.444,52.398 c -87.603,-87.644 -204.06,-135.91 -327.99,-135.91 -123.91,0 -240.36,48.266 -327.99,135.91" />
    <path
       id="path939"
       p-id="4138"
       d="m 316.61,677.14 -52.47,-52.398 c 66.243,-66.222 154.24,-102.69 247.83,-102.69 93.619,0 181.64,36.47 247.81,102.69 l -52.444,52.398 c -52.163,-52.209 -121.53,-80.932 -195.36,-80.932 -73.805,0 -143.2,28.723 -195.36,80.932" />
    <path
       id="path941"
       p-id="4139"
       d="M 390.3,750.83 511.98,872.5 633.65,750.83 c -31.16,-31.109 -74.204,-50.381 -121.67,-50.381 -47.519,0.005 -90.542,19.272 -121.68,50.381" />
    <path
       id="path943"
       p-id="4140"
       d="M 52.424,412.97 0.021,360.5 c 66.452,-66.452 143.88,-118.67 230.12,-155.13 89.272,-37.745 184.14,-56.893 281.84,-56.893 97.7,0 192.54,19.149 281.84,56.888 86.236,36.47 163.69,88.678 230.14,155.13 l -52.403,52.475 c -59.73,-59.735 -129.23,-106.56 -206.6,-139.27 -80.123,-33.884 -165.23,-51.062 -252.98,-51.062 -87.75,0 -172.83,17.178 -252.95,51.067 -77.379,32.707 -146.86,79.585 -206.6,139.27" />
  </g>
  <g
     id="g955"
     fill="url(#linearGradient6094)"
     transform="matrix(0.03610758,0,0,0.03610758,13.513245,13.196664)"
     style="fill:url(#linearGradient1009)">
    <path
       id="path947"
       p-id="4137"
       d="m 183.99,544.56 -52.429,-52.398 c 49.372,-49.439 106.94,-88.212 171,-115.35 66.355,-28.052 136.81,-42.322 209.41,-42.322 72.658,0 143.1,14.264 209.46,42.322 64.056,27.141 121.58,65.915 170.97,115.35 l -52.444,52.398 c -87.603,-87.644 -204.06,-135.91 -327.99,-135.91 -123.91,0 -240.36,48.266 -327.99,135.91"
       style="fill:url(#linearGradient1001)" />
    <path
       id="path949"
       p-id="4138"
       d="m 316.61,677.14 -52.47,-52.398 c 66.243,-66.222 154.24,-102.69 247.83,-102.69 93.619,0 181.64,36.47 247.81,102.69 l -52.444,52.398 c -52.163,-52.209 -121.53,-80.932 -195.36,-80.932 -73.805,0 -143.2,28.723 -195.36,80.932"
       style="fill:url(#linearGradient1003)" />
    <path
       id="path951"
       p-id="4139"
       d="M 390.3,750.83 511.98,872.5 633.65,750.83 c -31.16,-31.109 -74.204,-50.381 -121.67,-50.381 -47.519,0.005 -90.542,19.272 -121.68,50.381"
       style="fill:url(#linearGradient1005)" />
    <path
       id="path953"
       p-id="4140"
       d="M 52.424,412.97 0.021,360.5 c 66.452,-66.452 143.88,-118.67 230.12,-155.13 89.272,-37.745 184.14,-56.893 281.84,-56.893 97.7,0 192.54,19.149 281.84,56.888 86.236,36.47 163.69,88.678 230.14,155.13 l -52.403,52.475 c -59.73,-59.735 -129.23,-106.56 -206.6,-139.27 -80.123,-33.884 -165.23,-51.062 -252.98,-51.062 -87.75,0 -172.83,17.178 -252.95,51.067 -77.379,32.707 -146.86,79.585 -206.6,139.27"
       style="fill:url(#linearGradient1007)" />
  </g>
</svg>
