<?xml version="1.0" encoding="UTF-8" standalone="no"?>
<svg
   xmlns:dc="http://purl.org/dc/elements/1.1/"
   xmlns:cc="http://creativecommons.org/ns#"
   xmlns:rdf="http://www.w3.org/1999/02/22-rdf-syntax-ns#"
   xmlns:svg="http://www.w3.org/2000/svg"
   xmlns="http://www.w3.org/2000/svg"
   xmlns:xlink="http://www.w3.org/1999/xlink"
   xmlns:sodipodi="http://sodipodi.sourceforge.net/DTD/sodipodi-0.dtd"
   xmlns:inkscape="http://www.inkscape.org/namespaces/inkscape"
   width="64"
   height="64"
   version="1.1"
   viewBox="0 0 16.933 16.933"
   id="svg31"
   sodipodi:docname="office-calendar.svg"
   inkscape:version="0.92.5 (6c0c36ef5a, 2020-05-15, custom)">
  <sodipodi:namedview
     pagecolor="#ffffff"
     bordercolor="#666666"
     borderopacity="1"
     objecttolerance="10"
     gridtolerance="10"
     guidetolerance="10"
     inkscape:pageopacity="0"
     inkscape:pageshadow="2"
     inkscape:window-width="1920"
     inkscape:window-height="954"
     id="namedview33"
     showgrid="true"
     inkscape:zoom="2.6074563"
     inkscape:cx="70.417434"
     inkscape:cy="22.634151"
     inkscape:window-x="0"
     inkscape:window-y="36"
     inkscape:window-maximized="1"
     inkscape:current-layer="svg31">
    <inkscape:grid
       type="xygrid"
       id="grid843" />
  </sodipodi:namedview>
  <defs
     id="defs5">
    <linearGradient
       inkscape:collect="always"
       id="linearGradient919">
      <stop
         style="stop-color:#ff4b46;stop-opacity:1"
         offset="0"
         id="stop915" />
      <stop
         style="stop-color:#f03732;stop-opacity:1"
         offset="1"
         id="stop917" />
    </linearGradient>
    <filter
       id="filter861"
       x="-.027"
       y="-.027"
       width="1.054"
       height="1.054"
       color-interpolation-filters="sRGB">
      <feGaussianBlur
         stdDeviation="0.16371"
         id="feGaussianBlur2" />
    </filter>
    <filter
       color-interpolation-filters="sRGB"
       height="1.054"
       width="1.054"
       y="-.027"
       x="-.027"
       id="filter861-6">
      <feGaussianBlur
         id="feGaussianBlur2-2"
         stdDeviation="0.16371" />
    </filter>
    <linearGradient
       inkscape:collect="always"
       xlink:href="#linearGradient919"
       id="linearGradient921"
       x1="4.5"
       y1="12.0912"
       x2="59.5"
       y2="12.0912"
       gradientUnits="userSpaceOnUse" />
  </defs>
  <metadata
     id="metadata7">
    <rdf:RDF>
      <cc:Work
         rdf:about="">
        <dc:format>image/svg+xml</dc:format>
        <dc:type
           rdf:resource="http://purl.org/dc/dcmitype/StillImage" />
        <dc:title></dc:title>
      </cc:Work>
    </rdf:RDF>
  </metadata>
  <rect
     id="rect874"
     ry="3.4395001"
     height="14.552"
     width="14.552"
     y="1.1905"
     x="1.1904998"
     style="opacity:0.3;stroke-width:0.083153;stroke-opacity:0.95293998;filter:url(#filter861)" />
  <g
     id="g894"
     transform="translate(-6e-5)">
    <path
       id="path876"
       d="M 4.5,19.682 V 46.5 c 0,7.202 5.798,13 13,13 h 29 c 7.202,0 13,-5.798 13,-13 V 19.682 Z"
       transform="scale(0.26458)"
       inkscape:connector-curvature="0"
       style="fill:#fafafa;stroke-width:0.31428;stroke-opacity:0.95293998" />
    <path
       style="fill:url(#linearGradient921);fill-opacity:1;stroke-width:0.31428;stroke-opacity:0.95293998"
       id="path878"
       d="m 4.5,19.682 h 55 v -2.1816 c 0,-7.202 -5.798,-13 -13,-13 h -29 c -7.202,0 -13,5.798 -13,13 z"
       transform="scale(0.26458)"
       inkscape:connector-curvature="0" />
    <g
       id="g886"
       aria-label="JUL"
       style="font-variant-ligatures:normal;font-variant-caps:normal;font-variant-numeric:normal;fill:#f6f6f6;stroke-width:0.085569">
      <path
         id="path880"
         style="font-variant-ligatures:normal;font-variant-caps:normal;font-variant-numeric:normal"
         d="m 6.2451,4.4976 c 0.40388,0 0.63321,-0.25671 0.63321,-0.71878 V 2.08802 H 6.59422 v 1.7216 c 0,0.28067 -0.12664,0.43811 -0.35597,0.43811 -0.10268,0 -0.23959,-0.030805 -0.33543,-0.078723 l -0.082146,0.21221 c 0.13691,0.082146 0.28067,0.11637 0.42442,0.11637 z"
         inkscape:connector-curvature="0" />
      <path
         id="path882"
         style="font-variant-ligatures:normal;font-variant-caps:normal;font-variant-numeric:normal"
         d="m 8.2817,4.4976 c 0.55106,0 0.92072,-0.34912 0.92072,-0.87622 V 2.08798 H 8.92518 v 1.5676 c 0,0.37308 -0.22248,0.59214 -0.60583,0.59214 -0.40388,0 -0.63663,-0.23959 -0.63663,-0.65032 V 2.088 H 7.39863 v 1.5437 c 0,0.52368 0.3457,0.86596 0.88307,0.86596 z"
         inkscape:connector-curvature="0" />
      <path
         id="path884"
         style="font-variant-ligatures:normal;font-variant-caps:normal;font-variant-numeric:normal"
         d="m 9.7637,4.4634 h 1.3486 V 4.21012 H 10.0478 V 2.08802 H 9.76371 Z"
         inkscape:connector-curvature="0" />
    </g>
    <g
       id="g892"
       aria-label="17"
       style="fill:#525252;stroke-width:0.20484">
      <path
         style="fill:#1e1e1e;fill-opacity:1"
         id="path888"
         d="M 6.6422,13.41 H 5.93808 V 9.7614 q 0,-0.76813 0.032005,-1.4402 l -1.0882,0.92816 -0.38407,-0.48008 1.5363,-1.2162 h 0.6081 z"
         inkscape:connector-curvature="0" />
      <path
         style="fill:#1e1e1e;fill-opacity:1"
         id="path890"
         d="M 9.4267,13.41 11.6991,8.2251 H 8.6586 V 7.55299 h 3.7766 v 0.5761 l -2.2404,5.2809 z"
         inkscape:connector-curvature="0" />
    </g>
  </g>
</svg>
