<?xml version="1.0" encoding="UTF-8"?>
<svg width="64" height="64" version="1.1" xmlns="http://www.w3.org/2000/svg" xmlns:cc="http://creativecommons.org/ns#" xmlns:dc="http://purl.org/dc/elements/1.1/" xmlns:rdf="http://www.w3.org/1999/02/22-rdf-syntax-ns#">
 <metadata>
  <rdf:RDF>
   <cc:Work rdf:about="">
    <dc:format>image/svg+xml</dc:format>
    <dc:type rdf:resource="http://purl.org/dc/dcmitype/StillImage"/>
    <dc:title/>
   </cc:Work>
  </rdf:RDF>
 </metadata>
 <defs>
  <filter id="e" x="-.036006" y="-.035994" width="1.072" height="1.072" color-interpolation-filters="sRGB">
   <feGaussianBlur stdDeviation="0.48008593"/>
  </filter>
  <linearGradient id="linearGradient962" x1="-80.001" x2="-48" y1="32" y2="32" gradientTransform="translate(96,4.4952e-4)" gradientUnits="userSpaceOnUse">
   <stop stop-color="#fafafa" offset="0"/>
   <stop stop-color="#fff" offset="1"/>
  </linearGradient>
  <linearGradient id="linearGradient1448" x1="3.9687" x2="3.9687" y1="16.404" y2="2.6458" gradientTransform="matrix(3.4646 0 0 3.4646 2.6663 2.6663)" gradientUnits="userSpaceOnUse">
   <stop stop-color="#00a0ff" offset="0"/>
   <stop stop-color="#37beff" offset="1"/>
  </linearGradient>
  <filter id="filter861" x="-.027" y="-.027" width="1.054" height="1.054" color-interpolation-filters="sRGB">
   <feGaussianBlur stdDeviation="0.16371"/>
  </filter>
 </defs>
 <g fill="#5e4aa6">
  <circle cx="-1331.1" cy="-1237.8" r="0"/>
  <circle cx="-1262.2" cy="-1229.7" r="0"/>
  <circle cx="-1239.2" cy="-1255.5" r="0"/>
  <circle cx="-1249.8" cy="-1228.8" r="0"/>
 </g>
 <g transform="matrix(3.7796 0 0 3.7796 -82.52 3.3911)" fill="#5e4aa6" stroke-width=".26458">
  <circle cx="-330.35" cy="-328.38" r="0"/>
  <circle cx="-312.11" cy="-326.25" r="0"/>
  <circle cx="-306.02" cy="-333.07" r="0"/>
  <circle cx="-308.84" cy="-326.01" r="0"/>
 </g>
 <rect transform="matrix(3.7796 0 0 3.7796 -1.011e-6 -1.011e-6)" x="1.1905" y="1.1905" width="14.552" height="14.552" ry="3.4395" filter="url(#filter861)" opacity=".3" stroke-opacity=".95294" stroke-width=".083153"/>
 <rect x="4.4996" y="4.4996" width="55.001" height="55.001" ry="13" fill="url(#linearGradient1448)" stroke-opacity=".95294" stroke-width=".31428"/>
 <g transform="matrix(1.0199 0 0 1.0199 -.63727 -.63654)">
  <path d="m34.002 15.994c-1.1039 0-1.9998 0.89593-1.9998 1.9998 0 1.1039 0.89593 1.9998 1.9998 1.9998 1.1039 0 1.9998-0.89593 1.9998-1.9998 0-1.1039-0.89593-1.9998-1.9998-1.9998m6.6662 0c-1.1039 0-1.9998 0.89593-1.9998 1.9998 0 1.1039 0.89593 1.9998 1.9998 1.9998 1.1039 0 1.9998-0.89593 1.9998-1.9998 0-1.1039-0.89593-1.9998-1.9998-1.9998m5.3329 2.6665c-1.1039 0-1.9998 0.89593-1.9998 1.9998 0 1.1039 0.89593 1.9998 1.9998 1.9998 1.1039 0 1.9998-0.89593 1.9998-1.9998 0-1.1039-0.89593-1.9998-1.9998-1.9998m-17.527 0.20532c-1.5265 0.08799-3.8597 1.0466-5.9369 2.7758-5.3276 4.4263-10.057 13.259-2.9064 20.842 6.8901 7.3061 16.947 5.8542 20.353 4.0877 4.5836-2.3692 4.5157-7.1528 4.1943-8.306-1.1586-4.169-4.3397-5.3329-6.3635-5.1009-2.4425 0.28264-7.1714 1.8305-9.9579-1.9145-2.3638-3.1771-0.23465-7.7581 2.1505-9.3726 0.97859-0.67195 0.95193-2.0998-0.29998-2.8065-0.29731-0.16799-0.72394-0.24398-1.2346-0.20532z" fill="#157ce0" filter="url(#e)"/>
  <path d="m34.001 15.994c-1.1039 0-1.9998 0.89593-1.9998 1.9998 0 1.1039 0.89593 1.9998 1.9998 1.9998 1.1039 0 1.9998-0.89593 1.9998-1.9998 0-1.1039-0.89593-1.9998-1.9998-1.9998m6.6662 0c-1.1039 0-1.9998 0.89593-1.9998 1.9998 0 1.1039 0.89593 1.9998 1.9998 1.9998 1.1039 0 1.9998-0.89593 1.9998-1.9998 0-1.1039-0.89593-1.9998-1.9998-1.9998m5.3329 2.6665c-1.1039 0-1.9998 0.89593-1.9998 1.9998 0 1.1039 0.89593 1.9998 1.9998 1.9998 1.1039 0 1.9998-0.89593 1.9998-1.9998 0-1.1039-0.89593-1.9998-1.9998-1.9998m-17.527 0.20532c-1.5265 0.08799-3.8597 1.0466-5.9369 2.7758-5.3276 4.4263-10.057 13.259-2.9064 20.842 6.8901 7.3061 16.947 5.8542 20.353 4.0877 4.5836-2.3692 4.5157-7.1528 4.1943-8.306-1.1586-4.169-4.3397-5.3329-6.3635-5.1009-2.4425 0.28264-7.1714 1.8305-9.9579-1.9145-2.3638-3.1771-0.23465-7.7581 2.1505-9.3726 0.97859-0.67195 0.95193-2.0998-0.29998-2.8065-0.29731-0.16799-0.72394-0.24398-1.2346-0.20532z" fill="url(#linearGradient962)"/>
 </g>
</svg>
