<?xml version="1.0" encoding="UTF-8" standalone="no"?>
<svg
   xmlns:dc="http://purl.org/dc/elements/1.1/"
   xmlns:cc="http://creativecommons.org/ns#"
   xmlns:rdf="http://www.w3.org/1999/02/22-rdf-syntax-ns#"
   xmlns:svg="http://www.w3.org/2000/svg"
   xmlns="http://www.w3.org/2000/svg"
   xmlns:sodipodi="http://sodipodi.sourceforge.net/DTD/sodipodi-0.dtd"
   xmlns:inkscape="http://www.inkscape.org/namespaces/inkscape"
   width="64"
   height="64"
   viewBox="0 0 16.933333 16.933334"
   version="1.1"
   id="svg8"
   inkscape:version="1.0.2 (e86c870879, 2021-01-15)"
   sodipodi:docname="preferences-desktop-display.svg">
  <defs
     id="defs2">
    <filter
       id="filter955"
       x="-0.071901999"
       y="-0.093048997"
       width="1.1438"
       height="1.1861"
       color-interpolation-filters="sRGB">
      <feGaussianBlur
         stdDeviation="1.3182"
         id="feGaussianBlur1161" />
    </filter>
    <linearGradient
       id="linearGradient929"
       x1="90"
       x2="90"
       y1="43"
       y2="13"
       gradientTransform="matrix(0.26458333,0,0,0.26458333,-13.172447,4.7341429)"
       gradientUnits="userSpaceOnUse">
      <stop
         stop-color="#3e9e9b"
         offset="0"
         id="stop1154" />
      <stop
         stop-color="#5e91a8"
         offset=".46385"
         id="stop1156" />
      <stop
         stop-color="#d9d1a1"
         offset="1"
         id="stop1158" />
    </linearGradient>
    <filter
       id="filter961"
       x="-0.071901999"
       y="-0.093048997"
       width="1.1438"
       height="1.1861"
       color-interpolation-filters="sRGB">
      <feGaussianBlur
         stdDeviation="1.3182"
         id="feGaussianBlur1164" />
    </filter>
    <linearGradient
       id="linearGradient914"
       x1="90"
       x2="90"
       y1="43"
       y2="13"
       gradientTransform="matrix(0.26458333,0,0,0.26458333,-13.966197,2.8820596)"
       gradientUnits="userSpaceOnUse">
      <stop
         stop-color="#3cd1fb"
         offset="0"
         id="stop1149" />
      <stop
         stop-color="#87e2fd"
         offset="1"
         id="stop1151" />
    </linearGradient>
  </defs>
  <sodipodi:namedview
     id="base"
     pagecolor="#ffffff"
     bordercolor="#666666"
     borderopacity="1.0"
     inkscape:pageopacity="0.0"
     inkscape:pageshadow="2"
     inkscape:zoom="5.6"
     inkscape:cx="23.804738"
     inkscape:cy="32.698689"
     inkscape:document-units="mm"
     inkscape:current-layer="layer1"
     inkscape:document-rotation="0"
     showgrid="false"
     units="px"
     inkscape:window-width="1920"
     inkscape:window-height="992"
     inkscape:window-x="0"
     inkscape:window-y="0"
     inkscape:window-maximized="1" />
  <metadata
     id="metadata5">
    <rdf:RDF>
      <cc:Work
         rdf:about="">
        <dc:format>image/svg+xml</dc:format>
        <dc:type
           rdf:resource="http://purl.org/dc/dcmitype/StillImage" />
        <dc:title></dc:title>
      </cc:Work>
    </rdf:RDF>
  </metadata>
  <g
     inkscape:label="图层 1"
     inkscape:groupmode="layer"
     id="layer1">
    <g
       id="g889"
       transform="matrix(1.1813859,0,0,1.1813859,-4.259602,-4.4231386)">
      <rect
         id="rect1185"
         opacity="0.35"
         filter="url(#filter955)"
         ry="4"
         rx="4"
         height="34"
         width="44"
         y="19.740822"
         x="11.500088"
         style="stroke-width:2;stroke-linecap:round;stroke-linejoin:round"
         transform="matrix(0.26458333,0,0,0.26458333,2.3056548,2.6860504)" />
      <rect
         id="rect1187"
         fill="url(#linearGradient929)"
         ry="1.0583333"
         rx="1.0583333"
         height="8.9958334"
         width="11.641666"
         y="7.6445594"
         x="5.3483863"
         style="fill:url(#linearGradient929);stroke-width:0.529167;stroke-linecap:round;stroke-linejoin:round" />
      <rect
         id="rect1189"
         opacity="0.35"
         filter="url(#filter961)"
         ry="4"
         rx="4"
         height="34"
         width="44"
         y="12.740822"
         x="8.5000877"
         style="stroke-width:2;stroke-linecap:round;stroke-linejoin:round"
         transform="matrix(0.26458333,0,0,0.26458333,2.3056548,2.6860504)" />
      <rect
         id="rect1191"
         fill="url(#linearGradient914)"
         ry="1.0583333"
         rx="1.0583333"
         height="8.9958334"
         width="11.641666"
         y="5.7924762"
         x="4.5546365"
         style="fill:url(#linearGradient914);stroke-width:0.529167;stroke-linecap:round;stroke-linejoin:round" />
      <path
         id="path1193"
         opacity="0.25"
         fill="#ffffff"
         d="m 5.6129697,5.7924762 c -0.5863167,0 -1.0583333,0.4720166 -1.0583333,1.0583333 v 0.79375 H 16.196303 v -0.79375 c 0,-0.5863167 -0.472017,-1.0583333 -1.058333,-1.0583333 z"
         style="stroke-width:0.529167;stroke-linecap:round;stroke-linejoin:round" />
      <path
         id="path1197"
         stroke-width="0.0496094"
         fill="#273a3f"
         d="m 5.9370843,6.7433887 c -0.00101,-0.099219 0.082005,-0.1488282 0.085675,-0.1488282 -0.046633,-0.069453 -0.1192609,-0.079375 -0.1451081,-0.079375 -0.061812,-0.00992 -0.12065,0.034727 -0.1520031,0.034727 -0.031253,0 -0.079671,-0.034727 -0.1309687,-0.034727 -0.067368,0 -0.1294818,0.039687 -0.1642057,0.099219 -0.0699,0.1240234 -0.017809,0.3026304 0.050353,0.4018492 0.033388,0.044648 0.073126,0.099219 0.125312,0.099219 0.050255,0 0.069255,-0.034727 0.1300268,-0.034727 0.060772,0 0.077888,0.034727 0.1310693,0.034727 0.054076,0 0.088355,-0.049609 0.1214437,-0.099219 0.038248,-0.05457 0.054025,-0.1091407 0.054967,-0.1141016 -0.00119,0 -0.1054682,-0.039687 -0.1065106,-0.15875 z M 5.8371221,6.4507066 c 0.027731,-0.034727 0.046434,-0.084336 0.041325,-0.1289844 -0.039886,0 -0.088305,0.024805 -0.1169299,0.059531 -0.025649,0.029766 -0.048122,0.079375 -0.042169,0.1240234 0.044598,0.00496 0.09004,-0.024805 0.1177713,-0.05457 z"
         class="ColorScheme-Text"
         style="color:#363636" />
      <path
         id="path1199"
         stroke-width="0.0564912"
         fill="#273a3f"
         d="m 14.697174,6.3216428 c -0.171598,0 -0.3107,0.1391047 -0.3107,0.3107002 0,0.1715956 0.139105,0.3107003 0.3107,0.3107003 0.06289,-1.9e-6 0.124285,-0.019084 0.176093,-0.054727 l 0.208198,0.208198 c 0.05415,0.05701 0.137589,-0.028406 0.07933,-0.081206 l -0.13273,-0.132625 -0.07514,-0.075142 c 0.03547,-0.05157 0.0548,-0.1125538 0.05495,-0.1752124 0,-0.1715981 -0.139102,-0.3107002 -0.3107,-0.3107002 z m 0,0.056491 c 0.140399,0 0.254209,0.1138132 0.254209,0.254209 0,0.1403959 -0.113813,0.2542091 -0.254209,0.2542091 -0.140396,0 -0.254209,-0.1138132 -0.254209,-0.2542091 0,-0.1403958 0.113813,-0.254209 0.254209,-0.254209 z"
         class="ColorScheme-Text"
         style="color:#363636" />
    </g>
  </g>
</svg>
