<?xml version="1.0" encoding="UTF-8" standalone="no"?>
<svg
   xmlns:dc="http://purl.org/dc/elements/1.1/"
   xmlns:cc="http://creativecommons.org/ns#"
   xmlns:rdf="http://www.w3.org/1999/02/22-rdf-syntax-ns#"
   xmlns:svg="http://www.w3.org/2000/svg"
   xmlns="http://www.w3.org/2000/svg"
   xmlns:xlink="http://www.w3.org/1999/xlink"
   xmlns:sodipodi="http://sodipodi.sourceforge.net/DTD/sodipodi-0.dtd"
   xmlns:inkscape="http://www.inkscape.org/namespaces/inkscape"
   width="64"
   height="64"
   version="1.1"
   id="svg39"
   sodipodi:docname="preferences-system-search.svg"
   inkscape:version="0.92.5 (6c0c36ef5a, 2020-05-15, custom)">
  <metadata
     id="metadata43">
    <rdf:RDF>
      <cc:Work
         rdf:about="">
        <dc:format>image/svg+xml</dc:format>
        <dc:type
           rdf:resource="http://purl.org/dc/dcmitype/StillImage" />
        <dc:title></dc:title>
      </cc:Work>
    </rdf:RDF>
  </metadata>
  <sodipodi:namedview
     pagecolor="#ffffff"
     bordercolor="#666666"
     borderopacity="1"
     objecttolerance="10"
     gridtolerance="10"
     guidetolerance="10"
     inkscape:pageopacity="0"
     inkscape:pageshadow="2"
     inkscape:window-width="1920"
     inkscape:window-height="954"
     id="namedview41"
     showgrid="false"
     inkscape:zoom="2.6074563"
     inkscape:cx="37.841113"
     inkscape:cy="18.183521"
     inkscape:window-x="0"
     inkscape:window-y="36"
     inkscape:window-maximized="1"
     inkscape:current-layer="svg39" />
  <defs
     id="defs23">
    <linearGradient
       id="b"
       x1="399.57"
       x2="399.57"
       y1="545.8"
       y2="517.8"
       gradientTransform="matrix(2.1429 0 0 2.1429 -826.36 -1107.5)"
       gradientUnits="userSpaceOnUse">
      <stop
         stop-color="#3889e9"
         offset="0"
         id="stop2" />
      <stop
         stop-color="#5ea5fb"
         offset="1"
         id="stop4" />
    </linearGradient>
    <linearGradient
       id="a"
       x1="399.99"
       x2="399.99"
       y1="545.14"
       y2="518.14"
       gradientTransform="matrix(2.1429 0 0 2.1429 -826.36 -1107.5)"
       gradientUnits="userSpaceOnUse">
      <stop
         stop-color="#197ff1"
         offset="0"
         id="stop7" />
      <stop
         stop-color="#21c6fb"
         offset="1"
         id="stop9" />
    </linearGradient>
    <filter
       id="c"
       x="-.036"
       y="-.036"
       width="1.072"
       height="1.072"
       color-interpolation-filters="sRGB">
      <feGaussianBlur
         stdDeviation="0.41999874"
         id="feGaussianBlur12" />
    </filter>
    <linearGradient
       id="d"
       x1="31.999"
       x2="32.098"
       y1="46.279"
       y2="17.899"
       gradientTransform="matrix(2.1429 0 0 2.1429 -826.36 -1107.5)"
       gradientUnits="userSpaceOnUse">
      <stop
         stop-color="#d5e8fc"
         offset="0"
         id="stop15" />
      <stop
         stop-color="#fff"
         offset="1"
         id="stop17" />
    </linearGradient>
    <filter
       id="e"
       x="-.060005"
       y="-.059995"
       width="1.12"
       height="1.12"
       color-interpolation-filters="sRGB">
      <feGaussianBlur
         stdDeviation="0.70005311"
         id="feGaussianBlur20" />
    </filter>
    <linearGradient
       id="linearGradient3015"
       inkscape:collect="always">
      <stop
         id="stop3011"
         offset="0"
         style="stop-color:#00e6b9;stop-opacity:1" />
      <stop
         id="stop3013"
         offset="1"
         style="stop-color:#0078eb;stop-opacity:1" />
    </linearGradient>
    <linearGradient
       id="linearGradient2987"
       inkscape:collect="always">
      <stop
         id="stop2983"
         offset="0"
         style="stop-color:#19e178;stop-opacity:1" />
      <stop
         id="stop2985"
         offset="1"
         style="stop-color:#0aaf3c;stop-opacity:1" />
    </linearGradient>
    <style
       id="style2"
       type="text/css" />
    <linearGradient
       gradientUnits="userSpaceOnUse"
       gradientTransform="matrix(0.91666,0,0,0.91666,2.1605281,-15.301425)"
       y2="2.6458"
       y1="16.404"
       x2="3.9687"
       x1="3.9687"
       id="linearGradient1448">
      <stop
         id="stop4-3"
         offset="0"
         stop-color="#00a0ff" />
      <stop
         id="stop6"
         offset="1"
         stop-color="#37beff" />
    </linearGradient>
    <filter
       color-interpolation-filters="sRGB"
       height="1.054"
       width="1.054"
       y="-.027"
       x="-.027"
       id="filter861">
      <feGaussianBlur
         id="feGaussianBlur9"
         stdDeviation="0.16371" />
    </filter>
    <clipPath
       id="clipPath13429">
      <path
         d="m481 318h22v22h-22z"
         id="path2" />
    </clipPath>
    <clipPath
       id="clipPath13465">
      <path
         d="m507 318h22v22h-22z"
         id="path5" />
    </clipPath>
    <clipPath
       id="clipPath13501">
      <path
         d="m530 318h22v22h-22z"
         id="path8" />
    </clipPath>
    <clipPath
       id="clipPath13753">
      <path
         d="m672 1064c0-1.105 4.925-2 11-2s11 0.895 11 2-4.925 2-11 2-11-0.895-11-2"
         id="path11" />
    </clipPath>
    <clipPath
       id="clipPath13771">
      <path
         d="m660 1057h51v65.001h-51z"
         id="path14" />
    </clipPath>
    <clipPath
       id="clipPath14035">
      <path
         d="m659 517h53v18h-53z"
         id="path17" />
    </clipPath>
    <clipPath
       id="clipPath14127">
      <path
         d="m659 500h53v18h-53z"
         id="path20" />
    </clipPath>
    <clipPath
       id="clipPath14445">
      <path
         d="m648 112h73v60h-73z"
         id="path23" />
    </clipPath>
    <clipPath
       id="clipPath14609">
      <path
         d="m826 1056h59v60h-59z"
         id="path26" />
    </clipPath>
    <clipPath
       id="clipPath15305">
      <path
         d="m805 276h100v100h-100z"
         id="path29" />
    </clipPath>
    <clipPath
       id="clipPath15341">
      <path
         d="m145 1063.8h74.152v45.21h-74.152z"
         id="path32" />
    </clipPath>
    <clipPath
       id="clipPath15715">
      <path
         d="m151 667h57v57h-57z"
         id="path35-6" />
    </clipPath>
    <clipPath
       id="clipPath15807">
      <path
         d="m154 697h51v51h-51z"
         id="path38" />
    </clipPath>
    <clipPath
       id="clipPath16001">
      <path
         d="m500.04 864.45h36.012v67.52h-36.012z"
         id="path41" />
    </clipPath>
    <clipPath
       id="clipPath16093">
      <path
         d="m836 870.54h47v55.539h-47z"
         id="path44" />
    </clipPath>
    <clipPath
       id="clipPath16477">
      <path
         d="m318.03 702.35h62.848v37.991h-62.848z"
         id="path47" />
    </clipPath>
    <clipPath
       id="clipPath16579">
      <path
         d="m485.03 133.35h62.847v37.991h-62.847z"
         id="path50" />
    </clipPath>
    <clipPath
       id="clipPath16709">
      <path
         d="m493.37 677.93h45.643v68.067h-45.643z"
         id="path53" />
    </clipPath>
    <clipPath
       id="clipPath24218">
      <path
         d="m144.34 1018.2h71.467v78h-71.467z"
         id="path56" />
    </clipPath>
    <clipPath
       id="clipPath24382">
      <path
         d="m293.21 1068.6 66.323-38.292 36.047 62.435-66.323 38.292z"
         id="path59" />
    </clipPath>
    <clipPath
       id="clipPath24650">
      <path
         d="m488.86 1054.5h10v10.706h-10z"
         id="path62-3" />
    </clipPath>
    <clipPath
       id="clipPath24700">
      <path
         d="m508 1066.8h10.001v10.705h-10.001z"
         id="path65" />
    </clipPath>
    <clipPath
       id="clipPath24750">
      <path
         d="m525 1045.8h10v10.706h-10z"
         id="path68" />
    </clipPath>
    <clipPath
       id="clipPath24864">
      <path
         d="m836 1043.7h25.5v31.5h-25.5z"
         id="path71" />
    </clipPath>
    <clipPath
       id="clipPath24896">
      <path
         d="m838 1062.2h24v24h-24z"
         id="path74" />
    </clipPath>
    <clipPath
       id="clipPath25070">
      <path
         d="m134 489.24h7v6h-7z"
         id="path77" />
    </clipPath>
    <clipPath
       id="clipPath25100">
      <path
         d="m216 489.24h7v6h-7z"
         id="path80" />
    </clipPath>
    <clipPath
       id="clipPath25502">
      <path
         d="m838 477.24h22v22h-22z"
         id="path83" />
    </clipPath>
    <clipPath
       id="clipPath25686">
      <path
         d="m704 1061.2h25v25h-25z"
         id="path86" />
    </clipPath>
    <clipPath
       id="clipPath25788">
      <path
         d="m663.04 1078.6-1.808-3.514-21.07-47.453c13.336-18.439 48.336-26.938 73.836-3.439 0.842 0 6.476 6.246 6 7l-18.386 25.895c-0.483 0.765-1.453 0.946-2.177 0.431l-15.505-11.011c-0.359-0.255-0.847-0.153-1.07 0.238l-18.272 31.869c-0.218 0.384-0.502 0.578-0.782 0.578-0.282 0-0.561-0.197-0.766-0.594"
         id="path89" />
    </clipPath>
    <clipPath
       id="clipPath26420">
      <path
         d="m127 820.24h100v100h-100z"
         id="path92" />
    </clipPath>
    <clipPath
       id="clipPath26860">
      <path
         d="m809 680.24c0-22.092 17.908-40 40-40s40 17.908 40 40c0 22.091-17.908 40-40 40s-40-17.909-40-40"
         id="path95" />
    </clipPath>
    <clipPath
       id="clipPath27506">
      <path
         d="m658 469.24h44v45h-44z"
         id="path98" />
    </clipPath>
    <clipPath
       id="clipPath27772">
      <path
         d="m651 271.24h58v58h-58z"
         id="path101" />
    </clipPath>
    <clipPath
       id="clipPath27864">
      <path
         d="m662 307.24h38v8h-38z"
         id="path104" />
    </clipPath>
    <clipPath
       id="clipPath28028">
      <path
         d="m858.98 137.24c0.013-0.101 0.021-0.203 0.021-0.307v-6.693h15.75c1.237 0 2.25-1.013 2.25-2.25v-11.25l-27-4.5-27 4.5v-2.25l27-4.5 27 4.5v-27c0-1.237-1.013-2.25-2.25-2.25h-49.5c-1.237 0-2.25 1.013-2.25 2.25v-4.25h54v54zm-35.979 0v-9.25c0 1.237 1.013 2.25 2.25 2.25h15.75v6.693c0 0.104 7e-3 0.207 0.02 0.307zm22.5-7h9v4.5h-9zm1.125-9c-0.62 0-1.125-0.506-1.125-1.125v-2.25c0-0.619 0.505-1.125 1.125-1.125h6.75c0.619 0 1.125 0.506 1.125 1.125v2.25c0 0.619-0.506 1.125-1.125 1.125z"
         id="path107" />
    </clipPath>
    <clipPath
       id="clipPath28200">
      <path
         d="m531.27 136.24c6.325-2.29 10.727-8.277 10.727-15.484 0-11.316-10.2-20.563-25.65-34.575l-4.35-3.941-4.35 3.941c-15.45 14.012-25.65 23.259-25.65 34.575v-39.516h60v55zm-26.983 0c2.995-1.052 5.686-2.883 7.71-5.25 2.024 2.367 4.715 4.198 7.71 5.25zm-22.29 0v-15.484c0 7.207 4.402 13.194 10.727 15.484z"
         id="path110" />
    </clipPath>
    <clipPath
       id="clipPath28364">
      <path
         d="m648 79.241h64v64h-64z"
         id="path113" />
    </clipPath>
    <clipPath
       id="clipPath28984">
      <path
         d="m500 691.74c0-3.037 2.463-5.5 5.5-5.5s5.5 2.463 5.5 5.5-2.463 5.5-5.5 5.5-5.5-2.463-5.5-5.5"
         id="path116" />
    </clipPath>
    <clipPath
       id="clipPath29012">
      <path
         d="m500 669.74c0-3.037 2.463-5.5 5.5-5.5s5.5 2.463 5.5 5.5c0 3.038-2.463 5.5-5.5 5.5s-5.5-2.462-5.5-5.5"
         id="path119" />
    </clipPath>
    <clipPath
       id="clipPath29040">
      <path
         d="m494 680.74c0-3.037 2.462-5.5 5.5-5.5s5.5 2.463 5.5 5.5c0 3.038-2.462 5.5-5.5 5.5s-5.5-2.462-5.5-5.5"
         id="path122" />
    </clipPath>
    <clipPath
       id="clipPath29068">
      <path
         d="m513 691.74c0-3.037 2.463-5.5 5.5-5.5s5.5 2.463 5.5 5.5-2.463 5.5-5.5 5.5-5.5-2.463-5.5-5.5"
         id="path125" />
    </clipPath>
    <clipPath
       id="clipPath29096">
      <path
         d="m513 669.74c0-3.037 2.463-5.5 5.5-5.5s5.5 2.463 5.5 5.5c0 3.038-2.463 5.5-5.5 5.5s-5.5-2.462-5.5-5.5"
         id="path128" />
    </clipPath>
    <clipPath
       id="clipPath29124">
      <path
         d="m507 680.74c0-3.037 2.463-5.5 5.5-5.5s5.5 2.463 5.5 5.5c0 3.038-2.463 5.5-5.5 5.5s-5.5-2.462-5.5-5.5"
         id="path131" />
    </clipPath>
    <clipPath
       id="clipPath29152">
      <path
         d="m520 680.74c0-3.037 2.463-5.5 5.5-5.5s5.5 2.463 5.5 5.5c0 3.038-2.463 5.5-5.5 5.5s-5.5-2.462-5.5-5.5"
         id="path134" />
    </clipPath>
    <clipPath
       id="clipPath29252">
      <path
         d="m321 322.24c-4.97 0-9-4.029-9-9 0-4.97 4.03-9 9-9h45c4.971 0 9 4.03 9 9 0 4.971-4.029 9-9 9z"
         id="path137" />
    </clipPath>
    <clipPath
       id="clipPath29280">
      <path
         d="m322 297.24c-4.971 0-9-4.029-9-9 0-4.97 4.029-9 9-9h45c4.971 0 9 4.03 9 9 0 4.971-4.029 9-9 9z"
         id="path140" />
    </clipPath>
    <clipPath
       id="clipPath29400">
      <path
         d="m155 83.24h44v53h-44z"
         id="path143" />
    </clipPath>
    <clipPath
       id="clipPath13429-6">
      <path
         d="m481 318h22v22h-22z"
         id="path146" />
    </clipPath>
    <clipPath
       id="clipPath13465-0">
      <path
         d="m507 318h22v22h-22z"
         id="path149" />
    </clipPath>
    <clipPath
       id="clipPath13501-6">
      <path
         d="m530 318h22v22h-22z"
         id="path152" />
    </clipPath>
    <clipPath
       id="clipPath13753-2">
      <path
         d="m672 1064c0-1.105 4.925-2 11-2s11 0.895 11 2-4.925 2-11 2-11-0.895-11-2"
         id="path155" />
    </clipPath>
    <clipPath
       id="clipPath13771-6">
      <path
         d="m660 1057h51v65.001h-51z"
         id="path158" />
    </clipPath>
    <clipPath
       id="clipPath14035-1">
      <path
         d="m659 517h53v18h-53z"
         id="path161" />
    </clipPath>
    <clipPath
       id="clipPath14127-8">
      <path
         d="m659 500h53v18h-53z"
         id="path164" />
    </clipPath>
    <clipPath
       id="clipPath14445-7">
      <path
         d="m648 112h73v60h-73z"
         id="path167" />
    </clipPath>
    <clipPath
       id="clipPath14609-9">
      <path
         d="m826 1056h59v60h-59z"
         id="path170" />
    </clipPath>
    <clipPath
       id="clipPath15305-2">
      <path
         d="m805 276h100v100h-100z"
         id="path173" />
    </clipPath>
    <clipPath
       id="clipPath15341-0">
      <path
         d="m145 1063.8h74.152v45.21h-74.152z"
         id="path176" />
    </clipPath>
    <clipPath
       id="clipPath15715-2">
      <path
         d="m151 667h57v57h-57z"
         id="path179" />
    </clipPath>
    <clipPath
       id="clipPath15807-3">
      <path
         d="m154 697h51v51h-51z"
         id="path182" />
    </clipPath>
    <clipPath
       id="clipPath16001-7">
      <path
         d="m500.04 864.45h36.012v67.52h-36.012z"
         id="path185" />
    </clipPath>
    <clipPath
       id="clipPath16093-5">
      <path
         d="m836 870.54h47v55.539h-47z"
         id="path188" />
    </clipPath>
    <clipPath
       id="clipPath16477-9">
      <path
         d="m318.03 702.35h62.848v37.991h-62.848z"
         id="path191" />
    </clipPath>
    <clipPath
       id="clipPath16579-2">
      <path
         d="m485.03 133.35h62.847v37.991h-62.847z"
         id="path194" />
    </clipPath>
    <clipPath
       id="clipPath16709-2">
      <path
         d="m493.37 677.93h45.643v68.067h-45.643z"
         id="path197" />
    </clipPath>
    <clipPath
       id="clipPath24218-8">
      <path
         d="m144.34 1018.2h71.467v78h-71.467z"
         id="path200" />
    </clipPath>
    <clipPath
       id="clipPath24382-9">
      <path
         d="m293.21 1068.6 66.323-38.292 36.047 62.435-66.323 38.292z"
         id="path203" />
    </clipPath>
    <clipPath
       id="clipPath24650-7">
      <path
         d="m488.86 1054.5h10v10.706h-10z"
         id="path206" />
    </clipPath>
    <clipPath
       id="clipPath24700-3">
      <path
         d="m508 1066.8h10.001v10.705h-10.001z"
         id="path209" />
    </clipPath>
    <clipPath
       id="clipPath24750-6">
      <path
         d="m525 1045.8h10v10.706h-10z"
         id="path212" />
    </clipPath>
    <clipPath
       id="clipPath24864-1">
      <path
         d="m836 1043.7h25.5v31.5h-25.5z"
         id="path215" />
    </clipPath>
    <clipPath
       id="clipPath24896-2">
      <path
         d="m838 1062.2h24v24h-24z"
         id="path218" />
    </clipPath>
    <clipPath
       id="clipPath25070-9">
      <path
         d="m134 489.24h7v6h-7z"
         id="path221" />
    </clipPath>
    <clipPath
       id="clipPath25100-3">
      <path
         d="m216 489.24h7v6h-7z"
         id="path224" />
    </clipPath>
    <clipPath
       id="clipPath25502-1">
      <path
         d="m838 477.24h22v22h-22z"
         id="path227" />
    </clipPath>
    <clipPath
       id="clipPath25686-9">
      <path
         d="m704 1061.2h25v25h-25z"
         id="path230" />
    </clipPath>
    <clipPath
       id="clipPath25788-4">
      <path
         d="m663.04 1078.6-1.808-3.514-21.07-47.453c13.336-18.439 48.336-26.938 73.836-3.439 0.842 0 6.476 6.246 6 7l-18.386 25.895c-0.483 0.765-1.453 0.946-2.177 0.431l-15.505-11.011c-0.359-0.255-0.847-0.153-1.07 0.238l-18.272 31.869c-0.218 0.384-0.502 0.578-0.782 0.578-0.282 0-0.561-0.197-0.766-0.594"
         id="path233" />
    </clipPath>
    <clipPath
       id="clipPath26420-7">
      <path
         d="m127 820.24h100v100h-100z"
         id="path236" />
    </clipPath>
    <clipPath
       id="clipPath26860-8">
      <path
         d="m809 680.24c0-22.092 17.908-40 40-40s40 17.908 40 40c0 22.091-17.908 40-40 40s-40-17.909-40-40"
         id="path239" />
    </clipPath>
    <clipPath
       id="clipPath27506-4">
      <path
         d="m658 469.24h44v45h-44z"
         id="path242" />
    </clipPath>
    <clipPath
       id="clipPath27772-5">
      <path
         d="m651 271.24h58v58h-58z"
         id="path245" />
    </clipPath>
    <clipPath
       id="clipPath27864-0">
      <path
         d="m662 307.24h38v8h-38z"
         id="path248" />
    </clipPath>
    <clipPath
       id="clipPath28028-3">
      <path
         d="m858.98 137.24c0.013-0.101 0.021-0.203 0.021-0.307v-6.693h15.75c1.237 0 2.25-1.013 2.25-2.25v-11.25l-27-4.5-27 4.5v-2.25l27-4.5 27 4.5v-27c0-1.237-1.013-2.25-2.25-2.25h-49.5c-1.237 0-2.25 1.013-2.25 2.25v-4.25h54v54zm-35.979 0v-9.25c0 1.237 1.013 2.25 2.25 2.25h15.75v6.693c0 0.104 7e-3 0.207 0.02 0.307zm22.5-7h9v4.5h-9zm1.125-9c-0.62 0-1.125-0.506-1.125-1.125v-2.25c0-0.619 0.505-1.125 1.125-1.125h6.75c0.619 0 1.125 0.506 1.125 1.125v2.25c0 0.619-0.506 1.125-1.125 1.125z"
         id="path251" />
    </clipPath>
    <clipPath
       id="clipPath28200-6">
      <path
         d="m531.27 136.24c6.325-2.29 10.727-8.277 10.727-15.484 0-11.316-10.2-20.563-25.65-34.575l-4.35-3.941-4.35 3.941c-15.45 14.012-25.65 23.259-25.65 34.575v-39.516h60v55zm-26.983 0c2.995-1.052 5.686-2.883 7.71-5.25 2.024 2.367 4.715 4.198 7.71 5.25zm-22.29 0v-15.484c0 7.207 4.402 13.194 10.727 15.484z"
         id="path254" />
    </clipPath>
    <clipPath
       id="clipPath28364-1">
      <path
         d="m648 79.241h64v64h-64z"
         id="path257" />
    </clipPath>
    <clipPath
       id="clipPath28984-0">
      <path
         d="m500 691.74c0-3.037 2.463-5.5 5.5-5.5s5.5 2.463 5.5 5.5-2.463 5.5-5.5 5.5-5.5-2.463-5.5-5.5"
         id="path260" />
    </clipPath>
    <clipPath
       id="clipPath29012-6">
      <path
         d="m500 669.74c0-3.037 2.463-5.5 5.5-5.5s5.5 2.463 5.5 5.5c0 3.038-2.463 5.5-5.5 5.5s-5.5-2.462-5.5-5.5"
         id="path263" />
    </clipPath>
    <clipPath
       id="clipPath29040-3">
      <path
         d="m494 680.74c0-3.037 2.462-5.5 5.5-5.5s5.5 2.463 5.5 5.5c0 3.038-2.462 5.5-5.5 5.5s-5.5-2.462-5.5-5.5"
         id="path266" />
    </clipPath>
    <clipPath
       id="clipPath29068-2">
      <path
         d="m513 691.74c0-3.037 2.463-5.5 5.5-5.5s5.5 2.463 5.5 5.5-2.463 5.5-5.5 5.5-5.5-2.463-5.5-5.5"
         id="path269" />
    </clipPath>
    <clipPath
       id="clipPath29096-0">
      <path
         d="m513 669.74c0-3.037 2.463-5.5 5.5-5.5s5.5 2.463 5.5 5.5c0 3.038-2.463 5.5-5.5 5.5s-5.5-2.462-5.5-5.5"
         id="path272" />
    </clipPath>
    <clipPath
       id="clipPath29124-6">
      <path
         d="m507 680.74c0-3.037 2.463-5.5 5.5-5.5s5.5 2.463 5.5 5.5c0 3.038-2.463 5.5-5.5 5.5s-5.5-2.462-5.5-5.5"
         id="path275" />
    </clipPath>
    <clipPath
       id="clipPath29152-1">
      <path
         d="m520 680.74c0-3.037 2.463-5.5 5.5-5.5s5.5 2.463 5.5 5.5c0 3.038-2.463 5.5-5.5 5.5s-5.5-2.462-5.5-5.5"
         id="path278" />
    </clipPath>
    <clipPath
       id="clipPath29252-5">
      <path
         d="m321 322.24c-4.97 0-9-4.029-9-9 0-4.97 4.03-9 9-9h45c4.971 0 9 4.03 9 9 0 4.971-4.029 9-9 9z"
         id="path281" />
    </clipPath>
    <clipPath
       id="clipPath29280-5">
      <path
         d="m322 297.24c-4.971 0-9-4.029-9-9 0-4.97 4.029-9 9-9h45c4.971 0 9 4.03 9 9 0 4.971-4.029 9-9 9z"
         id="path284" />
    </clipPath>
    <clipPath
       id="clipPath29400-4">
      <path
         d="m155 83.24h44v53h-44z"
         id="path287" />
    </clipPath>
    <clipPath
       id="clipPath13429-3">
      <path
         d="m481 318h22v22h-22z"
         id="path290" />
    </clipPath>
    <clipPath
       id="clipPath13465-6-6">
      <path
         d="m507 318h22v22h-22z"
         id="path293" />
    </clipPath>
    <clipPath
       id="clipPath13501-7">
      <path
         d="m530 318h22v22h-22z"
         id="path296" />
    </clipPath>
    <clipPath
       id="clipPath13753-5">
      <path
         d="m672 1064c0-1.105 4.925-2 11-2s11 0.895 11 2-4.925 2-11 2-11-0.895-11-2"
         id="path299" />
    </clipPath>
    <clipPath
       id="clipPath13771-3">
      <path
         d="m660 1057h51v65.001h-51z"
         id="path302" />
    </clipPath>
    <clipPath
       id="clipPath14035-5">
      <path
         d="m659 517h53v18h-53z"
         id="path305" />
    </clipPath>
    <clipPath
       id="clipPath14127-6">
      <path
         d="m659 500h53v18h-53z"
         id="path308" />
    </clipPath>
    <clipPath
       id="clipPath14445-2">
      <path
         d="m648 112h73v60h-73z"
         id="path311" />
    </clipPath>
    <clipPath
       id="clipPath14609-9-2">
      <path
         d="m826 1056h59v60h-59z"
         id="path314" />
    </clipPath>
    <clipPath
       id="clipPath15305-1">
      <path
         d="m805 276h100v100h-100z"
         id="path317" />
    </clipPath>
    <clipPath
       id="clipPath15341-2">
      <path
         d="m145 1063.8h74.152v45.21h-74.152z"
         id="path320" />
    </clipPath>
    <clipPath
       id="clipPath15715-7-9">
      <path
         d="m151 667h57v57h-57z"
         id="path323" />
    </clipPath>
    <clipPath
       id="clipPath15807-0">
      <path
         d="m154 697h51v51h-51z"
         id="path326" />
    </clipPath>
    <clipPath
       id="clipPath16001-9">
      <path
         d="m500.04 864.45h36.012v67.52h-36.012z"
         id="path329" />
    </clipPath>
    <clipPath
       id="clipPath16093-3-1">
      <path
         d="m836 870.54h47v55.539h-47z"
         id="path332" />
    </clipPath>
    <clipPath
       id="clipPath16477-6">
      <path
         d="m318.03 702.35h62.848v37.991h-62.848z"
         id="path335" />
    </clipPath>
    <clipPath
       id="clipPath16579-0">
      <path
         d="m485.03 133.35h62.847v37.991h-62.847z"
         id="path338" />
    </clipPath>
    <clipPath
       id="clipPath16709-6">
      <path
         d="m493.37 677.93h45.643v68.067h-45.643z"
         id="path341" />
    </clipPath>
    <clipPath
       id="clipPath24218-2">
      <path
         d="m144.34 1018.2h71.467v78h-71.467z"
         id="path344" />
    </clipPath>
    <clipPath
       id="clipPath24382-6">
      <path
         d="m293.21 1068.6 66.323-38.292 36.047 62.435-66.323 38.292z"
         id="path347" />
    </clipPath>
    <clipPath
       id="clipPath24650-1">
      <path
         d="m488.86 1054.5h10v10.706h-10z"
         id="path350" />
    </clipPath>
    <clipPath
       id="clipPath24700-8">
      <path
         d="m508 1066.8h10.001v10.705h-10.001z"
         id="path353" />
    </clipPath>
    <clipPath
       id="clipPath24750-7">
      <path
         d="m525 1045.8h10v10.706h-10z"
         id="path356" />
    </clipPath>
    <clipPath
       id="clipPath24864-9">
      <path
         d="m836 1043.7h25.5v31.5h-25.5z"
         id="path359" />
    </clipPath>
    <clipPath
       id="clipPath24896-2-2">
      <path
         d="m838 1062.2h24v24h-24z"
         id="path362" />
    </clipPath>
    <clipPath
       id="clipPath25070-0">
      <path
         d="m134 489.24h7v6h-7z"
         id="path365" />
    </clipPath>
    <clipPath
       id="clipPath25100-2">
      <path
         d="m216 489.24h7v6h-7z"
         id="path368" />
    </clipPath>
    <clipPath
       id="clipPath25502-3">
      <path
         d="m838 477.24h22v22h-22z"
         id="path371" />
    </clipPath>
    <clipPath
       id="clipPath25686-7">
      <path
         d="m704 1061.2h25v25h-25z"
         id="path374" />
    </clipPath>
    <clipPath
       id="clipPath25788-5">
      <path
         d="m663.04 1078.6-1.808-3.514-21.07-47.453c13.336-18.439 48.336-26.938 73.836-3.439 0.842 0 6.476 6.246 6 7l-18.386 25.895c-0.483 0.765-1.453 0.946-2.177 0.431l-15.505-11.011c-0.359-0.255-0.847-0.153-1.07 0.238l-18.272 31.869c-0.218 0.384-0.502 0.578-0.782 0.578-0.282 0-0.561-0.197-0.766-0.594"
         id="path377" />
    </clipPath>
    <clipPath
       id="clipPath26420-9">
      <path
         d="m127 820.24h100v100h-100z"
         id="path380" />
    </clipPath>
    <clipPath
       id="clipPath26860-2">
      <path
         d="m809 680.24c0-22.092 17.908-40 40-40s40 17.908 40 40c0 22.091-17.908 40-40 40s-40-17.909-40-40"
         id="path383" />
    </clipPath>
    <clipPath
       id="clipPath27506-2">
      <path
         d="m658 469.24h44v45h-44z"
         id="path386" />
    </clipPath>
    <clipPath
       id="clipPath27772-8">
      <path
         d="m651 271.24h58v58h-58z"
         id="path389" />
    </clipPath>
    <clipPath
       id="clipPath27864-9-7">
      <path
         d="m662 307.24h38v8h-38z"
         id="path392" />
    </clipPath>
    <clipPath
       id="clipPath28028-7">
      <path
         d="m858.98 137.24c0.013-0.101 0.021-0.203 0.021-0.307v-6.693h15.75c1.237 0 2.25-1.013 2.25-2.25v-11.25l-27-4.5-27 4.5v-2.25l27-4.5 27 4.5v-27c0-1.237-1.013-2.25-2.25-2.25h-49.5c-1.237 0-2.25 1.013-2.25 2.25v-4.25h54v54zm-35.979 0v-9.25c0 1.237 1.013 2.25 2.25 2.25h15.75v6.693c0 0.104 7e-3 0.207 0.02 0.307zm22.5-7h9v4.5h-9zm1.125-9c-0.62 0-1.125-0.506-1.125-1.125v-2.25c0-0.619 0.505-1.125 1.125-1.125h6.75c0.619 0 1.125 0.506 1.125 1.125v2.25c0 0.619-0.506 1.125-1.125 1.125z"
         id="path395" />
    </clipPath>
    <clipPath
       id="clipPath28200-3">
      <path
         d="m531.27 136.24c6.325-2.29 10.727-8.277 10.727-15.484 0-11.316-10.2-20.563-25.65-34.575l-4.35-3.941-4.35 3.941c-15.45 14.012-25.65 23.259-25.65 34.575v-39.516h60v55zm-26.983 0c2.995-1.052 5.686-2.883 7.71-5.25 2.024 2.367 4.715 4.198 7.71 5.25zm-22.29 0v-15.484c0 7.207 4.402 13.194 10.727 15.484z"
         id="path398" />
    </clipPath>
    <clipPath
       id="clipPath28364-6">
      <path
         d="m648 79.241h64v64h-64z"
         id="path401" />
    </clipPath>
    <clipPath
       id="clipPath28984-1">
      <path
         d="m500 691.74c0-3.037 2.463-5.5 5.5-5.5s5.5 2.463 5.5 5.5-2.463 5.5-5.5 5.5-5.5-2.463-5.5-5.5"
         id="path404" />
    </clipPath>
    <clipPath
       id="clipPath29012-2">
      <path
         d="m500 669.74c0-3.037 2.463-5.5 5.5-5.5s5.5 2.463 5.5 5.5c0 3.038-2.463 5.5-5.5 5.5s-5.5-2.462-5.5-5.5"
         id="path407" />
    </clipPath>
    <clipPath
       id="clipPath29040-9">
      <path
         d="m494 680.74c0-3.037 2.462-5.5 5.5-5.5s5.5 2.463 5.5 5.5c0 3.038-2.462 5.5-5.5 5.5s-5.5-2.462-5.5-5.5"
         id="path410" />
    </clipPath>
    <clipPath
       id="clipPath29068-3">
      <path
         d="m513 691.74c0-3.037 2.463-5.5 5.5-5.5s5.5 2.463 5.5 5.5-2.463 5.5-5.5 5.5-5.5-2.463-5.5-5.5"
         id="path413" />
    </clipPath>
    <clipPath
       id="clipPath29096-1">
      <path
         d="m513 669.74c0-3.037 2.463-5.5 5.5-5.5s5.5 2.463 5.5 5.5c0 3.038-2.463 5.5-5.5 5.5s-5.5-2.462-5.5-5.5"
         id="path416" />
    </clipPath>
    <clipPath
       id="clipPath29124-9">
      <path
         d="m507 680.74c0-3.037 2.463-5.5 5.5-5.5s5.5 2.463 5.5 5.5c0 3.038-2.463 5.5-5.5 5.5s-5.5-2.462-5.5-5.5"
         id="path419" />
    </clipPath>
    <clipPath
       id="clipPath29152-4">
      <path
         d="m520 680.74c0-3.037 2.463-5.5 5.5-5.5s5.5 2.463 5.5 5.5c0 3.038-2.463 5.5-5.5 5.5s-5.5-2.462-5.5-5.5"
         id="path422" />
    </clipPath>
    <clipPath
       id="clipPath29252-7">
      <path
         d="m321 322.24c-4.97 0-9-4.029-9-9 0-4.97 4.03-9 9-9h45c4.971 0 9 4.03 9 9 0 4.971-4.029 9-9 9z"
         id="path425" />
    </clipPath>
    <clipPath
       id="clipPath29280-8">
      <path
         d="m322 297.24c-4.971 0-9-4.029-9-9 0-4.97 4.029-9 9-9h45c4.971 0 9 4.03 9 9 0 4.971-4.029 9-9 9z"
         id="path428" />
    </clipPath>
    <clipPath
       id="clipPath29400-4-0">
      <path
         d="m155 83.24h44v53h-44z"
         id="path431" />
    </clipPath>
    <filter
       id="filter861-6"
       x="-.027"
       y="-.027"
       width="1.054"
       height="1.054"
       color-interpolation-filters="sRGB">
      <feGaussianBlur
         stdDeviation="0.16371"
         id="feGaussianBlur434" />
    </filter>
    <radialGradient
       id="radialGradient2771"
       cx="8.4665"
       cy="8.4665"
       r="7.276"
       gradientTransform="matrix(0.90908,0,0,0.90908,20.083946,0.76979)"
       gradientUnits="userSpaceOnUse">
      <stop
         stop-color="#00c8ff"
         offset="0"
         id="stop437" />
      <stop
         stop-color="#1482ff"
         offset="1"
         id="stop439" />
    </radialGradient>
    <linearGradient
       id="c-7"
       x1="8"
       x2="8"
       y1="284"
       y2="300"
       gradientUnits="userSpaceOnUse">
      <stop
         stop-color="#686868"
         offset="0"
         id="stop2877" />
      <stop
         stop-color="#1e1e1e"
         offset="1"
         id="stop2879" />
    </linearGradient>
    <filter
       id="e-53"
       x="-.040114"
       y="-.032652"
       width="1.0802"
       height="1.0653"
       color-interpolation-filters="sRGB">
      <feGaussianBlur
         stdDeviation="0.21767695"
         id="feGaussianBlur2882" />
    </filter>
    <linearGradient
       id="linearGradient1448-7"
       x1="3.9687"
       x2="3.9687"
       y1="16.404"
       y2="2.6458"
       gradientTransform="matrix(0.91665735,0,0,0.91665735,31.264326,-8.6872378)"
       gradientUnits="userSpaceOnUse">
      <stop
         style="stop-color:#c8c8c8;stop-opacity:1"
         stop-color="#dcdcdc"
         offset="0"
         id="stop2885" />
      <stop
         stop-color="#f0f0f0"
         offset="1"
         id="stop2887" />
    </linearGradient>
    <filter
       id="filter861-5"
       x="-.027"
       y="-.027"
       width="1.054"
       height="1.054"
       color-interpolation-filters="sRGB">
      <feGaussianBlur
         stdDeviation="0.16371"
         id="feGaussianBlur2890" />
    </filter>
    <filter
       id="e-5"
       x="-.040114"
       y="-.032652"
       width="1.0802"
       height="1.0653"
       color-interpolation-filters="sRGB">
      <feGaussianBlur
         stdDeviation="0.21767695"
         id="feGaussianBlur2933" />
    </filter>
    <filter
       id="filter861-2"
       x="-.027"
       y="-.027"
       width="1.054"
       height="1.054"
       color-interpolation-filters="sRGB">
      <feGaussianBlur
         stdDeviation="0.16371"
         id="feGaussianBlur2941" />
    </filter>
    <linearGradient
       gradientTransform="matrix(0.97538581,0,0,0.97538581,1.2821905,-0.25693393)"
       gradientUnits="userSpaceOnUse"
       y2="5.3812499"
       x2="35.718048"
       y1="-4.2332501"
       x1="35.718048"
       id="linearGradient2989"
       xlink:href="#linearGradient2987"
       inkscape:collect="always" />
    <linearGradient
       gradientUnits="userSpaceOnUse"
       y2="0.53515625"
       x2="148"
       y1="-26"
       x1="148"
       id="linearGradient3017"
       xlink:href="#linearGradient3015"
       inkscape:collect="always" />
    <filter
       height="1.2403137"
       y="-0.12015686"
       width="1.2396871"
       x="-0.11984354"
       id="filter3029"
       style="color-interpolation-filters:sRGB"
       inkscape:collect="always">
      <feGaussianBlur
         id="feGaussianBlur3031"
         stdDeviation="0.17175156"
         inkscape:collect="always" />
    </filter>
  </defs>
  <style
     type="text/css"
     id="style1218">.st0{opacity:0.15;fill:#45413C;}
	.st1{fill:#FFE500;}
	.st2{fill:#EBCB00;}
	.st3{fill:none;stroke:#45413C;stroke-linecap:round;stroke-linejoin:round;stroke-miterlimit:10;}
	.st4{fill:#FFAA54;}
	.st5{fill:#FF8A14;}
	.st6{fill:#FFB0CA;stroke:#45413C;stroke-linecap:round;stroke-linejoin:round;stroke-miterlimit:10;}
	.st7{fill:#FF87AF;stroke:#45413C;stroke-linecap:round;stroke-linejoin:round;stroke-miterlimit:10;}
	.st8{fill:#FFCC99;}
	.st9{fill:#FFFFFF;}
	.st10{fill:#F0F0F0;}
	.st11{fill:#BF8256;}
	.st12{fill:#915E3A;}
	.st13{fill:#DEA47A;}
	.st14{fill:#F0D5A8;}
	.st15{fill:#DEBB7E;}
	.st16{fill:#F7E5C6;}
	.st17{fill:#FF8A14;stroke:#45413C;stroke-linecap:round;stroke-linejoin:round;stroke-miterlimit:10;}
	.st18{fill:#FFF5E3;}
	.st19{fill:#FFF48C;}
	.st20{fill:#FFFACF;}
	.st21{fill:#FFFCE5;}
	.st22{fill:#FF87AF;}
	.st23{fill:#FFB0CA;}
	.st24{fill:#FFE500;stroke:#45413C;stroke-linecap:round;stroke-linejoin:round;stroke-miterlimit:10;}
	.st25{fill:#9CEB60;stroke:#45413C;stroke-linecap:round;stroke-linejoin:round;stroke-miterlimit:10;}
	.st26{fill:#FFFACF;stroke:#45413C;stroke-linecap:round;stroke-linejoin:round;stroke-miterlimit:10;}
	.st27{fill:#00F5BC;stroke:#45413C;stroke-linecap:round;stroke-linejoin:round;stroke-miterlimit:10;}
	.st28{fill:#BF8256;stroke:#45413C;stroke-linecap:round;stroke-linejoin:round;stroke-miterlimit:10;}
	.st29{fill:#FFE3CF;stroke:#45413C;stroke-linecap:round;stroke-linejoin:round;stroke-miterlimit:10;}
	.st30{fill:#FF6242;}
	.st31{fill:#FF866E;}
	.st32{fill:none;stroke:#E04122;stroke-linecap:round;stroke-linejoin:round;stroke-miterlimit:10;}
	.st33{fill:#FFFEF2;stroke:#45413C;stroke-linecap:round;stroke-linejoin:round;stroke-miterlimit:10;}
	.st34{fill:#FF6242;stroke:#45413C;stroke-linecap:round;stroke-linejoin:round;stroke-miterlimit:10;}
	.st35{fill:#FFA694;}
	.st36{fill:#FFFFFF;stroke:#45413C;stroke-linecap:round;stroke-linejoin:round;stroke-miterlimit:10;}
	.st37{fill:#FFFEF2;}
	.st38{fill:#FF6196;}
	.st39{fill:#B89558;}
	.st40{fill:none;stroke:#915E3A;stroke-linecap:round;stroke-linejoin:round;stroke-miterlimit:10;}
	.st41{fill:#DEBB7E;stroke:#45413C;stroke-linecap:round;stroke-linejoin:round;stroke-miterlimit:10;}
	.st42{fill:#6DD627;stroke:#45413C;stroke-linecap:round;stroke-linejoin:round;stroke-miterlimit:10;}
	.st43{fill:#E5F8FF;}
	.st44{fill:#E8F4FA;}
	.st45{fill:#E8F4FA;stroke:#45413C;stroke-linecap:round;stroke-linejoin:round;stroke-miterlimit:10;}
	.st46{fill:#FFCCDD;}
	.st47{fill:#E5F8FF;stroke:#45413C;stroke-linecap:round;stroke-linejoin:round;stroke-miterlimit:10;}
	.st48{fill:#00B8F0;stroke:#45413C;stroke-linecap:round;stroke-linejoin:round;stroke-miterlimit:10;}
	.st49{fill:#00B8F0;}
	.st50{fill:#4ACFFF;}
	.st51{fill:#E04122;}
	.st52{fill:#E04122;stroke:#45413C;stroke-linecap:round;stroke-linejoin:round;stroke-miterlimit:10;}
	.st53{fill:#87898C;}
	.st54{fill:#BDBEC0;}
	.st55{fill:#656769;}
	.st56{fill:#525252;}
	.st57{fill:#FFF48C;stroke:#45413C;stroke-linecap:round;stroke-linejoin:round;stroke-miterlimit:10;}
	.st58{fill:#6DD627;}
	.st59{fill:#EB6D00;}
	.st60{fill:#46B000;}
	.st61{fill:#80DDFF;}
	.st62{fill:#DAEDF7;}
	.st63{fill:#BF8DF2;stroke:#45413C;stroke-linecap:round;stroke-linejoin:round;stroke-miterlimit:10;}
	.st64{fill:#9F5AE5;stroke:#45413C;stroke-linecap:round;stroke-linejoin:round;stroke-miterlimit:10;}
	.st65{fill:#C8FFA1;}
	.st66{fill:#E4FFD1;}
	.st67{fill:#9CEB60;}
	.st68{fill:#E5FEFF;}
	.st69{fill:#B8ECFF;}
	.st70{fill:#E0E0E0;stroke:#45413C;stroke-linecap:round;stroke-linejoin:round;stroke-miterlimit:10;}
	.st71{fill:#E0E0E0;}
	.st72{fill:none;stroke:#4F4B45;stroke-linejoin:round;stroke-miterlimit:10;}
	.st73{fill:none;stroke:#4F4B45;stroke-linecap:round;stroke-linejoin:round;stroke-miterlimit:10;}
	.st74{fill:#E0366F;stroke:#45413C;stroke-linecap:round;stroke-linejoin:round;stroke-miterlimit:10;}
	.st75{fill:none;stroke:#45413C;stroke-miterlimit:10;}
	.st76{fill:#FF866E;stroke:#45413C;stroke-linecap:round;stroke-linejoin:round;stroke-miterlimit:10;}
	.st77{fill:#45413C;stroke:#45413C;stroke-linecap:round;stroke-linejoin:round;stroke-miterlimit:10;}
	.st78{fill:#9F5AE5;}
	.st79{fill:#803EC2;}
	.st80{fill:#803EC2;stroke:#45413C;stroke-linecap:round;stroke-linejoin:round;stroke-miterlimit:10;}
	.st81{fill:#BF8DF2;}
	.st82{fill:#FFAA54;stroke:#45413C;stroke-linecap:round;stroke-linejoin:round;stroke-miterlimit:10;}
	.st83{fill:none;stroke:#45413C;stroke-linejoin:round;stroke-miterlimit:10;}
	.st84{fill:#FFCCDD;stroke:#45413C;stroke-linecap:round;stroke-linejoin:round;stroke-miterlimit:10;}
	.st85{fill:#FF6196;stroke:#45413C;stroke-linecap:round;stroke-linejoin:round;stroke-miterlimit:10;}
	.st86{fill:#FFE5EE;}
	.st87{fill:#F7E5C6;stroke:#45413C;stroke-linecap:round;stroke-linejoin:round;stroke-miterlimit:10;}
	.st88{fill:#E5FFF9;}
	.st89{fill:none;stroke:#45413C;stroke-width:1.0064;stroke-linecap:round;stroke-linejoin:round;stroke-miterlimit:10;}
	.st90{fill:#4AEFF7;}
	.st91{fill:#A6FBFF;}
	.st92{fill:#E5FEFF;stroke:#45413C;stroke-linecap:round;stroke-linejoin:round;stroke-miterlimit:10;}
	.st93{fill:#46B000;stroke:#45413C;stroke-linecap:round;stroke-linejoin:round;stroke-miterlimit:10;}
	.st94{fill:#FFFFFF;stroke:#45413C;stroke-linejoin:round;stroke-miterlimit:10;}
	.st95{fill:#FFFFFF;stroke:#45413C;stroke-miterlimit:10;}
	.st96{fill:#009FD9;}
	.st97{fill:#00DFEB;}
	.st98{fill:#C0DCEB;stroke:#45413C;stroke-linecap:round;stroke-linejoin:round;stroke-miterlimit:10;}
	.st99{fill:#00DFEB;stroke:#45413C;stroke-linecap:round;stroke-linejoin:round;stroke-miterlimit:10;}
	.st100{fill:#FFE5EE;stroke:#45413C;stroke-linecap:round;stroke-linejoin:round;stroke-miterlimit:10;}
	.st101{fill:#8CA4B8;}
	.st102{fill:#ADC4D9;}
	.st103{fill:#656769;stroke:#45413C;stroke-linecap:round;stroke-linejoin:round;stroke-miterlimit:10;}
	.st104{fill:#F0F0F0;stroke:#45413C;stroke-linecap:round;stroke-linejoin:round;stroke-miterlimit:10;}
	.st105{fill:#C0DCEB;}
	.st106{fill:#45413C;}
	.st107{fill:#FFCABF;}
	.st108{fill:#87898C;stroke:#45413C;stroke-linecap:round;stroke-linejoin:round;stroke-miterlimit:10;}
	.st109{fill:#EBCB00;stroke:#45413C;stroke-linecap:round;stroke-linejoin:round;stroke-miterlimit:10;}</style>
  <g
     id="g1566"
     transform="matrix(3.779602,0,0,3.779602,-1.011042e-6,-1.011042e-6)">
    <g
       id="g56"
       style="fill:#5e4aa6">
      <g
         id="g24"
         style="stroke-width:0.26458001">
        <circle
           id="circle16"
           r="0"
           cy="-328.38"
           cx="-330.35001" />
        <circle
           id="circle18"
           r="0"
           cy="-328.37"
           cx="-330.35001" />
        <circle
           id="circle20"
           r="0"
           cy="-328.37"
           cx="-330.35001" />
        <circle
           id="circle22"
           r="0"
           cy="-336.82999"
           cx="-352.63" />
      </g>
      <g
         id="g34"
         transform="translate(32.665,-10.979)"
         style="stroke-width:0.26458001">
        <circle
           id="circle26"
           r="0"
           cy="-328.38"
           cx="-330.35001" />
        <circle
           id="circle28"
           r="0"
           cy="-326.25"
           cx="-312.10999" />
        <circle
           id="circle30"
           r="0"
           cy="-333.07001"
           cx="-306.01999" />
        <circle
           id="circle32"
           r="0"
           cy="-326.01001"
           cx="-308.84" />
      </g>
      <g
         id="g44"
         transform="matrix(0.26458,0,0,0.26458,4.6401e-6,4.6401e-6)">
        <circle
           id="circle36"
           r="0"
           cy="-1237.8"
           cx="-1331.1" />
        <circle
           id="circle38"
           r="0"
           cy="-1229.7"
           cx="-1262.2" />
        <circle
           id="circle40"
           r="0"
           cy="-1255.5"
           cx="-1239.2" />
        <circle
           id="circle42"
           r="0"
           cy="-1228.8"
           cx="-1249.8" />
      </g>
      <g
         id="g54"
         transform="translate(-21.833,0.89722)"
         style="stroke-width:0.26458001">
        <circle
           id="circle46"
           r="0"
           cy="-328.38"
           cx="-330.35001" />
        <circle
           id="circle48"
           r="0"
           cy="-326.25"
           cx="-312.10999" />
        <circle
           id="circle50"
           r="0"
           cy="-333.07001"
           cx="-306.01999" />
        <circle
           id="circle52"
           r="0"
           cy="-326.01001"
           cx="-308.84" />
      </g>
    </g>
    <rect
       id="rect58"
       ry="3.4395001"
       height="14.552"
       width="14.552"
       y="1.1905"
       x="1.1905"
       style="opacity:0.3;stroke-width:0.083153;stroke-opacity:0.95293998;filter:url(#filter861)" />
    <g
       transform="translate(-30.558905,9.3926551)"
       id="g3040">
      <rect
         x="31.749374"
         y="-8.2021856"
         width="14.552061"
         height="14.552061"
         ry="3.4395156"
         id="rect2948"
         style="fill:url(#linearGradient1448-7);stroke-width:0.08315161;stroke-opacity:0.95293998" />
      <circle
         style="opacity:1;fill:url(#linearGradient2989);fill-opacity:1;stroke:none;stroke-width:0.27045289;stroke-linecap:round;stroke-linejoin:round;stroke-miterlimit:4;stroke-dasharray:none;stroke-opacity:1"
         id="path2981"
         cx="39.025406"
         cy="-0.92615509"
         r="5.9530077" />
      <circle
         r="3.5716729"
         cy="-0.92615509"
         cx="39.025406"
         id="circle3019"
         style="opacity:0.3;fill:none;fill-opacity:1;stroke:#ffffff;stroke-width:0.16226575;stroke-linecap:round;stroke-linejoin:round;stroke-miterlimit:4;stroke-dasharray:none;stroke-opacity:1" />
      <path
         style="opacity:1;fill:url(#linearGradient3017);fill-opacity:1;stroke:none;stroke-width:1.02220428;stroke-linecap:round;stroke-linejoin:round;stroke-miterlimit:4;stroke-dasharray:none;stroke-opacity:1"
         d="m 147.5,-26 c -4.48825,0.0018 -8.87341,1.345819 -12.5918,3.859375 L 148,0.53515625 160.79297,-21.623047 C 156.93992,-24.458014 152.28361,-25.991189 147.5,-26 Z"
         transform="scale(0.26457812)"
         id="circle3003"
         inkscape:connector-curvature="0"
         sodipodi:nodetypes="ccccc" />
      <ellipse
         ry="1.7152734"
         rx="1.7197578"
         cy="-0.66592973"
         cx="39.025406"
         id="ellipse3023"
         style="opacity:0.3;fill:#000000;fill-opacity:1;stroke:none;stroke-width:0.27764007;stroke-linecap:round;stroke-linejoin:round;stroke-miterlimit:4;stroke-dasharray:none;stroke-opacity:1;filter:url(#filter3029)" />
      <ellipse
         style="opacity:1;fill:#ffffff;fill-opacity:1;stroke:none;stroke-width:0.27764007;stroke-linecap:round;stroke-linejoin:round;stroke-miterlimit:4;stroke-dasharray:none;stroke-opacity:1"
         id="path2991"
         cx="39.025406"
         cy="-0.92615509"
         rx="1.7197578"
         ry="1.7152734" />
      <ellipse
         ry="1.1873648"
         rx="1.1904691"
         cy="-0.92615509"
         cx="39.025406"
         id="ellipse2995"
         style="opacity:1;fill:#0078eb;fill-opacity:1;stroke:none;stroke-width:0.19219097;stroke-linecap:round;stroke-linejoin:round;stroke-miterlimit:4;stroke-dasharray:none;stroke-opacity:1" />
    </g>
  </g>
</svg>
