<?xml version="1.0" encoding="UTF-8"?>
<svg width="64" height="64" version="1.1" xmlns="http://www.w3.org/2000/svg" xmlns:cc="http://creativecommons.org/ns#" xmlns:dc="http://purl.org/dc/elements/1.1/" xmlns:rdf="http://www.w3.org/1999/02/22-rdf-syntax-ns#" xmlns:xlink="http://www.w3.org/1999/xlink">
 <metadata>
  <rdf:RDF>
   <cc:Work rdf:about="">
    <dc:format>image/svg+xml</dc:format>
    <dc:type rdf:resource="http://purl.org/dc/dcmitype/StillImage"/>
    <dc:title/>
   </cc:Work>
  </rdf:RDF>
 </metadata>
 <defs>
  <linearGradient id="b" x1="399.57" x2="399.57" y1="545.8" y2="517.8" gradientTransform="matrix(2.1429 0 0 2.1429 -826.36 -1107.5)" gradientUnits="userSpaceOnUse">
   <stop stop-color="#3889e9" offset="0"/>
   <stop stop-color="#5ea5fb" offset="1"/>
  </linearGradient>
  <linearGradient id="linearGradient901" x1="520.68" x2="515.31" y1="533.79" y2="41.047" gradientTransform="matrix(.14406 0 0 .14406 -28.073 -3.4131)" gradientUnits="userSpaceOnUse">
   <stop stop-color="#505f64" offset="0"/>
   <stop stop-color="#323232" offset=".31233"/>
   <stop stop-color="#647378" offset="1"/>
  </linearGradient>
  <linearGradient id="linearGradient935" x1="125" x2="125" y1="62" y2="24" gradientTransform="translate(-93 .0021625)" gradientUnits="userSpaceOnUse">
   <stop stop-color="#282828" offset="0"/>
   <stop stop-color="#141414" offset="1"/>
  </linearGradient>
  <linearGradient id="linearGradient963" x1="125" x2="125" y1="2" y2="62" gradientTransform="translate(-93 .0021625)" gradientUnits="userSpaceOnUse">
   <stop stop-color="#f5f5f5" offset="0"/>
   <stop stop-color="#d2d2d2" offset="1"/>
  </linearGradient>
  <linearGradient id="linearGradient982" x1="125" x2="125" y1="22" y2="2" gradientUnits="userSpaceOnUse">
   <stop stop-color="#f0faff" offset="0"/>
   <stop stop-color="#d0d0d0" offset="1"/>
  </linearGradient>
  <linearGradient id="linearGradient1034" x1="125" x2="125.5" y1="61.93" y2="14.334" gradientTransform="translate(-93 .0021625)" gradientUnits="userSpaceOnUse">
   <stop stop-color="#0096ff" offset="0"/>
   <stop stop-color="#00dcff" offset="1"/>
  </linearGradient>
 </defs>
 <circle cx="32.02" cy="32.044" r="0" fill="url(#b)" stroke-width="1.5715"/>
 <path class="shp36" d="m32 62.002c16.568 0 30-13.432 30-30s-13.432-30-30-30-30 13.432-30 30 13.432 30 30 30z" fill="url(#linearGradient901)" stroke-width="2.2593"/>
 <g>
  <path d="m2.916 24.633c-0.59559 2.3579-0.91602 4.8263-0.91602 7.3691 0 15.91 12.388 28.92 28.043 29.93zm58.168 0-27.127 37.299c15.655-1.0096 28.043-14.02 28.043-29.93 0-2.5429-0.32043-5.0112-0.91602-7.3691z" fill="url(#linearGradient935)" stroke-width="2.2593"/>
  <path d="m32 2.0022c-7.5009 0-14.353 2.7597-19.613 7.3105l17.281 52.59c0.77073 0.05935 1.5461 0.09961 2.332 0.09961s1.5613-0.04026 2.332-0.09961l17.281-52.59c-5.2599-4.5508-12.112-7.3105-19.613-7.3105z" fill="url(#linearGradient963)"/>
  <path d="m32 14.336-8 6.666 5.8457 40.914c0.71264 0.05065 1.4288 0.08594 2.1543 0.08594 0.73482 0 1.4601-0.03594 2.1816-0.08789l6.8184-41.099z" fill="url(#linearGradient1034)"/>
 </g>
 <g transform="translate(-93 .0021625)">
  <path d="m125 2c-6.0358 0-11.652 1.788-16.357 4.8555l7.0234 15.145 9.334-7.666 10.666 7.666 6.0527-14.912c-4.7774-3.2126-10.529-5.0879-16.719-5.0879z" fill="url(#linearGradient982)"/>
  <path d="m108.67 7 7 15 9.334-7.666 10.666 7.666 6.0527-14.912" fill="none" stroke="#9b9b9b" stroke-width=".2"/>
 </g>
 <g transform="matrix(.91835 0 0 1.1933 -82.8 -.38886)">
  <path d="m125 2c-3.8319 0-7.5139 0.16314-10.883 1.4727l10.883 8.5273 10.895-8.5674c-3.369-1.3096-7.0634-1.4326-10.895-1.4326z" fill="#555f64"/>
  <path d="m114.12 3.4727 10.883 8.5273 10.895-8.5674" fill="none" stroke="#969696" stroke-width=".1"/>
 </g>
</svg>
