<?xml version="1.0" encoding="UTF-8" standalone="no"?>
<svg
   xmlns:dc="http://purl.org/dc/elements/1.1/"
   xmlns:cc="http://creativecommons.org/ns#"
   xmlns:rdf="http://www.w3.org/1999/02/22-rdf-syntax-ns#"
   xmlns:svg="http://www.w3.org/2000/svg"
   xmlns="http://www.w3.org/2000/svg"
   xmlns:xlink="http://www.w3.org/1999/xlink"
   xmlns:sodipodi="http://sodipodi.sourceforge.net/DTD/sodipodi-0.dtd"
   xmlns:inkscape="http://www.inkscape.org/namespaces/inkscape"
   width="64"
   height="64"
   version="1.1"
   viewBox="0 0 16.933 16.933"
   id="svg47"
   sodipodi:docname="preferences-color.svg"
   inkscape:version="0.92.5 (6c0c36ef5a, 2020-05-15, custom)">
  <metadata
     id="metadata51">
    <rdf:RDF>
      <cc:Work
         rdf:about="">
        <dc:format>image/svg+xml</dc:format>
        <dc:type
           rdf:resource="http://purl.org/dc/dcmitype/StillImage" />
        <dc:title></dc:title>
      </cc:Work>
    </rdf:RDF>
  </metadata>
  <sodipodi:namedview
     pagecolor="#ffffff"
     bordercolor="#666666"
     borderopacity="1"
     objecttolerance="10"
     gridtolerance="10"
     guidetolerance="10"
     inkscape:pageopacity="0"
     inkscape:pageshadow="2"
     inkscape:window-width="1920"
     inkscape:window-height="954"
     id="namedview49"
     showgrid="false"
     inkscape:zoom="3.6875"
     inkscape:cx="32"
     inkscape:cy="32"
     inkscape:window-x="0"
     inkscape:window-y="36"
     inkscape:window-maximized="1"
     inkscape:current-layer="svg47" />
  <defs
     id="defs33">
    <linearGradient
       id="c"
       x1="400.32"
       x2="400.37"
       y1="545.86"
       y2="518.63"
       gradientTransform="matrix(0.51026,0,0,0.51026,-163.57075,-262.88)"
       gradientUnits="userSpaceOnUse">
      <stop
         stop-color="#e2e2e2"
         offset="0"
         id="stop2" />
      <stop
         stop-color="#fff"
         stop-opacity=".99608"
         offset="1"
         id="stop4" />
    </linearGradient>
    <linearGradient
       id="b"
       x1="384.66"
       x2="415.94"
       y1="531.64"
       y2="531.46"
       gradientTransform="matrix(0.48025,0,0,0.48025,-151.57075,-246.9)"
       gradientUnits="userSpaceOnUse">
      <stop
         stop-color="#ac92ec"
         offset="0"
         id="stop7" />
      <stop
         stop-color="#64a9ff"
         offset=".13668"
         id="stop9" />
      <stop
         stop-color="#4cdbb7"
         offset=".26768"
         id="stop11" />
      <stop
         stop-color="#aee672"
         offset=".49418"
         id="stop13" />
      <stop
         stop-color="#ffce53"
         offset=".74118"
         id="stop15" />
      <stop
         stop-color="#fb6e51"
         offset=".93032"
         id="stop17" />
      <stop
         stop-color="#ed5565"
         offset="1"
         id="stop19" />
    </linearGradient>
    <linearGradient
       id="a"
       x1="8.4244"
       x2="8.467"
       y1="11.853"
       y2="4.031"
       gradientUnits="userSpaceOnUse"
       gradientTransform="translate(21.0945,-0.861)">
      <stop
         stop-color="#1c262c"
         offset="0"
         id="stop22" />
      <stop
         stop-color="#617077"
         offset="1"
         id="stop24" />
    </linearGradient>
    <filter
       id="d"
       x="-.065951"
       y="-.055034"
       width="1.1319"
       height="1.1101"
       color-interpolation-filters="sRGB">
      <feGaussianBlur
         stdDeviation="0.17450161"
         id="feGaussianBlur27" />
    </filter>
    <filter
       id="e"
       x="-.036"
       y="-.036"
       width="1.072"
       height="1.072"
       color-interpolation-filters="sRGB">
      <feGaussianBlur
         stdDeviation="0.23812031"
         id="feGaussianBlur30" />
    </filter>
    <linearGradient
       id="linearGradient948"
       inkscape:collect="always">
      <stop
         id="stop944"
         offset="0"
         style="stop-color:#ac92ec;stop-opacity:1" />
      <stop
         style="stop-color:#64a9ff;stop-opacity:1"
         offset="0.1795114"
         id="stop952" />
      <stop
         id="stop954"
         offset="0.33975568"
         style="stop-color:#4cdbb7;stop-opacity:1" />
      <stop
         style="stop-color:#aee672;stop-opacity:1"
         offset="0.48274291"
         id="stop956" />
      <stop
         id="stop958"
         offset="0.73420322"
         style="stop-color:#ffce53;stop-opacity:1" />
      <stop
         style="stop-color:#fb6e51;stop-opacity:1"
         offset="0.8722598"
         id="stop960" />
      <stop
         id="stop946"
         offset="1"
         style="stop-color:#ed5565;stop-opacity:1" />
    </linearGradient>
    <linearGradient
       gradientUnits="userSpaceOnUse"
       gradientTransform="matrix(0.42521723,0,0,0.42521723,-161.86414,-217.65588)"
       y2="518.63"
       y1="545.86"
       x2="400.37"
       x1="400.32"
       id="c-6">
      <stop
         id="stop2-7"
         offset="0"
         stop-color="#e2e2e2" />
      <stop
         id="stop4-5"
         offset="1"
         stop-opacity=".99608"
         stop-color="#fff" />
    </linearGradient>
    <linearGradient
       gradientUnits="userSpaceOnUse"
       gradientTransform="matrix(0.48025,0,0,0.48025,-160.683,-246.9)"
       y2="531.46"
       y1="531.64"
       x2="415.94"
       x1="384.66"
       id="b-3">
      <stop
         id="stop7-5"
         offset="0"
         stop-color="#ac92ec" />
      <stop
         id="stop9-6"
         offset=".13668"
         stop-color="#64a9ff" />
      <stop
         id="stop11-2"
         offset=".26768"
         stop-color="#4cdbb7" />
      <stop
         id="stop13-9"
         offset=".49418"
         stop-color="#aee672" />
      <stop
         id="stop15-1"
         offset=".74118"
         stop-color="#ffce53" />
      <stop
         id="stop17-2"
         offset=".93032"
         stop-color="#fb6e51" />
      <stop
         id="stop19-7"
         offset="1"
         stop-color="#ed5565" />
    </linearGradient>
    <filter
       color-interpolation-filters="sRGB"
       height="1.072"
       width="1.072"
       y="-.036"
       x="-.036"
       id="e-0">
      <feGaussianBlur
         id="feGaussianBlur22"
         stdDeviation="0.23812031" />
    </filter>
    <linearGradient
       gradientUnits="userSpaceOnUse"
       y2="5.6736"
       y1="11.259"
       x2="8.4417"
       x1="8.5257"
       id="a-9">
      <stop
         id="stop25"
         offset="0"
         stop-color="#1a1a1a" />
      <stop
         id="stop27"
         offset="1"
         stop-color="#999" />
    </linearGradient>
    <filter
       color-interpolation-filters="sRGB"
       height="1.1454"
       width="1.1022"
       y="-.072702"
       x="-.051076"
       id="d-3">
      <feGaussianBlur
         id="feGaussianBlur30-6"
         stdDeviation="0.16920578" />
    </filter>
    <linearGradient
       id="linearGradient938"
       x1="80.368"
       x2="82.141"
       y1="13.177"
       y2="14.704"
       gradientTransform="matrix(.96154 0 0 .96154 -65.275 -1.6916)"
       gradientUnits="userSpaceOnUse">
      <stop
         stop-color="#fafafa"
         offset="0"
         id="stop4-3" />
      <stop
         stop-color="#90a0b3"
         offset="1"
         id="stop6" />
    </linearGradient>
    <filter
       id="filter1066"
       x="-.063923"
       y="-.056531"
       width="1.1278"
       height="1.1131"
       color-interpolation-filters="sRGB">
      <feGaussianBlur
         stdDeviation="0.22705935"
         id="feGaussianBlur9" />
    </filter>
    <filter
       id="filter1100"
       x="-.12197"
       y="-.11848"
       width="1.2439"
       height="1.237"
       color-interpolation-filters="sRGB">
      <feGaussianBlur
         stdDeviation="0.47586465"
         id="feGaussianBlur12" />
    </filter>
    <filter
       color-interpolation-filters="sRGB"
       height="1.054"
       width="1.054"
       y="-.027"
       x="-.027"
       id="filter861">
      <feGaussianBlur
         id="feGaussianBlur866"
         stdDeviation="0.16371" />
    </filter>
    <linearGradient
       gradientUnits="userSpaceOnUse"
       gradientTransform="matrix(0.99367,0.11225,-0.11225,0.99367,-28.365566,-11.171754)"
       y2="11.072"
       y1="6.4548"
       x2="54.456"
       x1="54.456"
       id="linearGradient1261">
      <stop
         id="stop869"
         offset="0"
         stop-color="#ffd700" />
      <stop
         id="stop871"
         offset="1"
         stop-color="#ffb300" />
    </linearGradient>
    <linearGradient
       gradientUnits="userSpaceOnUse"
       y2="8.4665"
       x2="15.7425"
       y1="8.4665003"
       x1="1.1905"
       id="linearGradient950"
       xlink:href="#linearGradient948"
       inkscape:collect="always" />
  </defs>
  <rect
     style="opacity:0.3;stroke-width:0.083153;stroke-opacity:0.95293998;filter:url(#filter861)"
     x="1.1905"
     y="1.1905"
     width="14.552"
     height="14.552"
     ry="3.4395001"
     id="rect878" />
  <rect
     style="fill:url(#linearGradient950);fill-opacity:1;stroke-width:0.083153;stroke-opacity:0.95293998"
     x="1.1905"
     y="1.1905"
     width="14.552"
     height="14.552"
     ry="3.4395001"
     id="rect880" />
  <circle
     cx="8.4665003"
     cy="8.4665003"
     r="5.9530077"
     id="circle37-0"
     style="fill:url(#c-6);stroke:none;stroke-width:1.32291842;stroke-linecap:round;stroke-linejoin:round" />
  <g
     id="g981"
     transform="translate(-21.094244,1.4914487)">
    <path
       inkscape:connector-curvature="0"
       id="path39"
       style="color:#000000;overflow:visible;opacity:0.25;isolation:auto;mix-blend-mode:normal;paint-order:fill markers stroke;filter:url(#d)"
       overflow="visible"
       d="m 29.5615,3.17 a 0.126,0.126 0 0 0 -0.088,0.038 l -2.102,2.102 a 3.175,3.175 0 0 0 -0.056,0.05 3.175,3.175 0 0 0 0,4.49 3.175,3.175 0 0 0 4.49,0 3.175,3.175 0 0 0 0.001,-4.49 3.175,3.175 0 0 0 -0.076,-0.07 c -0.004,-0.005 -0.005,-0.01 -0.01,-0.015 L 29.6535,3.208 A 0.126,0.126 0 0 0 29.5615,3.17 Z m 0.023,2.848 a 1.588,1.588 0 0 1 1.1,0.465 1.588,1.588 0 0 1 0,2.245 1.588,1.588 0 0 1 -2.246,0 1.588,1.588 0 0 1 0,-2.245 1.588,1.588 0 0 1 1.146,-0.465 z" />
    <path
       inkscape:connector-curvature="0"
       id="path41"
       style="color:#000000;overflow:visible;isolation:auto;mix-blend-mode:normal;fill:url(#a);paint-order:fill markers stroke"
       overflow="visible"
       d="m 29.5615,3.17 a 0.126,0.126 0 0 0 -0.088,0.038 l -2.102,2.102 a 3.175,3.175 0 0 0 -0.056,0.05 3.175,3.175 0 0 0 0,4.49 3.175,3.175 0 0 0 4.49,0 3.175,3.175 0 0 0 0.001,-4.49 3.175,3.175 0 0 0 -0.076,-0.07 c -0.004,-0.005 -0.005,-0.01 -0.01,-0.015 L 29.6535,3.208 A 0.126,0.126 0 0 0 29.5615,3.17 Z m 0.023,2.848 a 1.588,1.588 0 0 1 1.1,0.465 1.588,1.588 0 0 1 0,2.245 1.588,1.588 0 0 1 -2.246,0 1.588,1.588 0 0 1 0,-2.245 1.588,1.588 0 0 1 1.146,-0.465 z" />
    <path
       inkscape:connector-curvature="0"
       id="path43"
       style="color:#000000;overflow:visible;opacity:0.5;isolation:auto;mix-blend-mode:normal;fill:#ffffff;paint-order:fill markers stroke"
       overflow="visible"
       d="m 30.6845,8.728 a 1.588,1.588 0 0 1 -2.246,0 1.588,1.588 0 0 1 0,-2.245 1.588,1.588 0 0 1 2.245,0 1.588,1.588 0 0 1 0,2.245 z" />
    <path
       inkscape:connector-curvature="0"
       id="path45"
       style="color:#000000;overflow:visible;isolation:auto;mix-blend-mode:normal;fill:#3b474d;paint-order:fill markers stroke"
       overflow="visible"
       d="m 30.1165,6.857 -0.561,0.561 -0.561,-0.561 -0.188,0.187 0.562,0.561 -0.55,0.573 0.176,0.176 0.56,-0.562 0.562,0.562 0.199,-0.176 -0.573,-0.573 0.561,-0.56 z" />
  </g>
</svg>
