<?xml version="1.0" encoding="UTF-8" standalone="no"?>
<svg
   xmlns:dc="http://purl.org/dc/elements/1.1/"
   xmlns:cc="http://creativecommons.org/ns#"
   xmlns:rdf="http://www.w3.org/1999/02/22-rdf-syntax-ns#"
   xmlns:svg="http://www.w3.org/2000/svg"
   xmlns="http://www.w3.org/2000/svg"
   xmlns:xlink="http://www.w3.org/1999/xlink"
   xmlns:sodipodi="http://sodipodi.sourceforge.net/DTD/sodipodi-0.dtd"
   xmlns:inkscape="http://www.inkscape.org/namespaces/inkscape"
   inkscape:version="1.0 (4035a4fb49, 2020-05-01)"
   sodipodi:docname="scanner.svg"
   id="svg647"
   viewBox="0 0 16.933 16.933"
   version="1.1"
   height="64"
   width="64">
  <sodipodi:namedview
     inkscape:current-layer="svg647"
     inkscape:window-maximized="1"
     inkscape:window-y="0"
     inkscape:window-x="0"
     inkscape:cy="39.06763"
     inkscape:cx="20.932131"
     inkscape:zoom="6.375"
     showgrid="false"
     id="namedview649"
     inkscape:window-height="985"
     inkscape:window-width="1920"
     inkscape:pageshadow="2"
     inkscape:pageopacity="0"
     guidetolerance="10"
     gridtolerance="10"
     objecttolerance="10"
     borderopacity="1"
     bordercolor="#666666"
     pagecolor="#ffffff" />
  <metadata
     id="metadata2">
    <rdf:RDF>
      <cc:Work
         rdf:about="">
        <dc:format>image/svg+xml</dc:format>
        <dc:type
           rdf:resource="http://purl.org/dc/dcmitype/StillImage" />
        <dc:title></dc:title>
      </cc:Work>
    </rdf:RDF>
  </metadata>
  <defs
     id="defs217">
    <linearGradient
       id="linearGradient3008"
       inkscape:collect="always">
      <stop
         id="stop3004"
         offset="0"
         style="stop-color:#969696;stop-opacity:1;" />
      <stop
         style="stop-color:#bebebe;stop-opacity:1"
         offset="0.13041678"
         id="stop3012" />
      <stop
         id="stop3016"
         offset="0.25017571"
         style="stop-color:#ebebeb;stop-opacity:1" />
      <stop
         style="stop-color:#ebebeb;stop-opacity:1"
         offset="0.74216264"
         id="stop3018" />
      <stop
         id="stop3014"
         offset="0.87188905"
         style="stop-color:#bebebe;stop-opacity:1" />
      <stop
         id="stop3006"
         offset="1"
         style="stop-color:#969696;stop-opacity:1" />
    </linearGradient>
    <linearGradient
       id="linearGradient2264"
       inkscape:collect="always">
      <stop
         id="stop2260"
         offset="0"
         style="stop-color:#e1e1e1;stop-opacity:1" />
      <stop
         id="stop2262"
         offset="1"
         style="stop-color:#eeeeee;stop-opacity:1" />
    </linearGradient>
    <linearGradient
       gradientUnits="userSpaceOnUse"
       gradientTransform="matrix(.56696 0 0 .56696 -218.64 -293.02)"
       y2="517.8"
       y1="545.8"
       x2="399.57"
       x1="399.57"
       id="b-3">
      <stop
         id="stop4"
         offset="0"
         stop-color="#3889e9" />
      <stop
         id="stop6"
         offset="1"
         stop-color="#5ea5fb" />
    </linearGradient>
    <clipPath
       id="clipPath13429">
      <path
         id="path9"
         d="m481 318h22v22h-22z" />
    </clipPath>
    <clipPath
       id="clipPath13465">
      <path
         id="path12"
         d="m507 318h22v22h-22z" />
    </clipPath>
    <clipPath
       id="clipPath13501">
      <path
         id="path15"
         d="m530 318h22v22h-22z" />
    </clipPath>
    <clipPath
       id="clipPath13753">
      <path
         id="path18"
         d="m672 1064c0-1.105 4.925-2 11-2s11 0.895 11 2-4.925 2-11 2-11-0.895-11-2" />
    </clipPath>
    <clipPath
       id="clipPath13771">
      <path
         id="path21"
         d="m660 1057h51v65.001h-51z" />
    </clipPath>
    <clipPath
       id="clipPath14035">
      <path
         id="path24"
         d="m659 517h53v18h-53z" />
    </clipPath>
    <clipPath
       id="clipPath14127">
      <path
         id="path27"
         d="m659 500h53v18h-53z" />
    </clipPath>
    <clipPath
       id="clipPath14445">
      <path
         id="path30"
         d="m648 112h73v60h-73z" />
    </clipPath>
    <clipPath
       id="clipPath14609">
      <path
         id="path33"
         d="m826 1056h59v60h-59z" />
    </clipPath>
    <clipPath
       id="clipPath15305">
      <path
         id="path36"
         d="m805 276h100v100h-100z" />
    </clipPath>
    <clipPath
       id="clipPath15341">
      <path
         id="path39"
         d="m145 1063.8h74.152v45.21h-74.152z" />
    </clipPath>
    <clipPath
       id="clipPath15715">
      <path
         id="path42"
         d="m151 667h57v57h-57z" />
    </clipPath>
    <clipPath
       id="clipPath15807">
      <path
         id="path45"
         d="m154 697h51v51h-51z" />
    </clipPath>
    <clipPath
       id="clipPath16001">
      <path
         id="path48"
         d="m500.04 864.45h36.012v67.52h-36.012z" />
    </clipPath>
    <clipPath
       id="clipPath16093">
      <path
         id="path51"
         d="m836 870.54h47v55.539h-47z" />
    </clipPath>
    <clipPath
       id="clipPath16477">
      <path
         id="path54"
         d="m318.03 702.35h62.848v37.991h-62.848z" />
    </clipPath>
    <clipPath
       id="clipPath16579">
      <path
         id="path57"
         d="m485.03 133.35h62.847v37.991h-62.847z" />
    </clipPath>
    <clipPath
       id="clipPath16709">
      <path
         id="path60"
         d="m493.37 677.93h45.643v68.067h-45.643z" />
    </clipPath>
    <clipPath
       id="clipPath24218">
      <path
         id="path63"
         d="m144.34 1018.2h71.467v78h-71.467z" />
    </clipPath>
    <clipPath
       id="clipPath24382">
      <path
         id="path66"
         d="m293.21 1068.6 66.323-38.292 36.047 62.435-66.323 38.292z" />
    </clipPath>
    <clipPath
       id="clipPath24650">
      <path
         id="path69"
         d="m488.86 1054.5h10v10.706h-10z" />
    </clipPath>
    <clipPath
       id="clipPath24700">
      <path
         id="path72"
         d="m508 1066.8h10.001v10.705h-10.001z" />
    </clipPath>
    <clipPath
       id="clipPath24750">
      <path
         id="path75"
         d="m525 1045.8h10v10.706h-10z" />
    </clipPath>
    <clipPath
       id="clipPath24864">
      <path
         id="path78"
         d="m836 1043.7h25.5v31.5h-25.5z" />
    </clipPath>
    <clipPath
       id="clipPath24896">
      <path
         id="path81"
         d="m838 1062.2h24v24h-24z" />
    </clipPath>
    <clipPath
       id="clipPath25070">
      <path
         id="path84"
         d="m134 489.24h7v6h-7z" />
    </clipPath>
    <clipPath
       id="clipPath25100">
      <path
         id="path87"
         d="m216 489.24h7v6h-7z" />
    </clipPath>
    <clipPath
       id="clipPath25502">
      <path
         id="path90"
         d="m838 477.24h22v22h-22z" />
    </clipPath>
    <clipPath
       id="clipPath25686">
      <path
         id="path93"
         d="m704 1061.2h25v25h-25z" />
    </clipPath>
    <clipPath
       id="clipPath25788">
      <path
         id="path96"
         d="m663.04 1078.6-1.808-3.514-21.07-47.453c13.336-18.439 48.336-26.938 73.836-3.439 0.842 0 6.476 6.246 6 7l-18.386 25.895c-0.483 0.765-1.453 0.946-2.177 0.431l-15.505-11.011c-0.359-0.255-0.847-0.153-1.07 0.238l-18.272 31.869c-0.218 0.384-0.502 0.578-0.782 0.578-0.282 0-0.561-0.197-0.766-0.594" />
    </clipPath>
    <clipPath
       id="clipPath26420">
      <path
         id="path99"
         d="m127 820.24h100v100h-100z" />
    </clipPath>
    <clipPath
       id="clipPath26860">
      <path
         id="path102"
         d="m809 680.24c0-22.092 17.908-40 40-40s40 17.908 40 40c0 22.091-17.908 40-40 40s-40-17.909-40-40" />
    </clipPath>
    <clipPath
       id="clipPath27506">
      <path
         id="path105"
         d="m658 469.24h44v45h-44z" />
    </clipPath>
    <clipPath
       id="clipPath27772">
      <path
         id="path108"
         d="m651 271.24h58v58h-58z" />
    </clipPath>
    <clipPath
       id="clipPath27864">
      <path
         id="path111"
         d="m662 307.24h38v8h-38z" />
    </clipPath>
    <clipPath
       id="clipPath28028">
      <path
         id="path114"
         d="m858.98 137.24c0.013-0.101 0.021-0.203 0.021-0.307v-6.693h15.75c1.237 0 2.25-1.013 2.25-2.25v-11.25l-27-4.5-27 4.5v-2.25l27-4.5 27 4.5v-27c0-1.237-1.013-2.25-2.25-2.25h-49.5c-1.237 0-2.25 1.013-2.25 2.25v-4.25h54v54zm-35.979 0v-9.25c0 1.237 1.013 2.25 2.25 2.25h15.75v6.693c0 0.104 7e-3 0.207 0.02 0.307zm22.5-7h9v4.5h-9zm1.125-9c-0.62 0-1.125-0.506-1.125-1.125v-2.25c0-0.619 0.505-1.125 1.125-1.125h6.75c0.619 0 1.125 0.506 1.125 1.125v2.25c0 0.619-0.506 1.125-1.125 1.125z" />
    </clipPath>
    <clipPath
       id="clipPath28200">
      <path
         id="path117"
         d="m531.27 136.24c6.325-2.29 10.727-8.277 10.727-15.484 0-11.316-10.2-20.563-25.65-34.575l-4.35-3.941-4.35 3.941c-15.45 14.012-25.65 23.259-25.65 34.575v-39.516h60v55zm-26.983 0c2.995-1.052 5.686-2.883 7.71-5.25 2.024 2.367 4.715 4.198 7.71 5.25zm-22.29 0v-15.484c0 7.207 4.402 13.194 10.727 15.484z" />
    </clipPath>
    <clipPath
       id="clipPath28364">
      <path
         id="path120"
         d="m648 79.241h64v64h-64z" />
    </clipPath>
    <clipPath
       id="clipPath28984">
      <path
         id="path123"
         d="m500 691.74c0-3.037 2.463-5.5 5.5-5.5s5.5 2.463 5.5 5.5-2.463 5.5-5.5 5.5-5.5-2.463-5.5-5.5" />
    </clipPath>
    <clipPath
       id="clipPath29012">
      <path
         id="path126"
         d="m500 669.74c0-3.037 2.463-5.5 5.5-5.5s5.5 2.463 5.5 5.5c0 3.038-2.463 5.5-5.5 5.5s-5.5-2.462-5.5-5.5" />
    </clipPath>
    <clipPath
       id="clipPath29040">
      <path
         id="path129"
         d="m494 680.74c0-3.037 2.462-5.5 5.5-5.5s5.5 2.463 5.5 5.5c0 3.038-2.462 5.5-5.5 5.5s-5.5-2.462-5.5-5.5" />
    </clipPath>
    <clipPath
       id="clipPath29068">
      <path
         id="path132"
         d="m513 691.74c0-3.037 2.463-5.5 5.5-5.5s5.5 2.463 5.5 5.5-2.463 5.5-5.5 5.5-5.5-2.463-5.5-5.5" />
    </clipPath>
    <clipPath
       id="clipPath29096">
      <path
         id="path135"
         d="m513 669.74c0-3.037 2.463-5.5 5.5-5.5s5.5 2.463 5.5 5.5c0 3.038-2.463 5.5-5.5 5.5s-5.5-2.462-5.5-5.5" />
    </clipPath>
    <clipPath
       id="clipPath29124">
      <path
         id="path138"
         d="m507 680.74c0-3.037 2.463-5.5 5.5-5.5s5.5 2.463 5.5 5.5c0 3.038-2.463 5.5-5.5 5.5s-5.5-2.462-5.5-5.5" />
    </clipPath>
    <clipPath
       id="clipPath29152">
      <path
         id="path141"
         d="m520 680.74c0-3.037 2.463-5.5 5.5-5.5s5.5 2.463 5.5 5.5c0 3.038-2.463 5.5-5.5 5.5s-5.5-2.462-5.5-5.5" />
    </clipPath>
    <clipPath
       id="clipPath29252">
      <path
         id="path144"
         d="m321 322.24c-4.97 0-9-4.029-9-9 0-4.97 4.03-9 9-9h45c4.971 0 9 4.03 9 9 0 4.971-4.029 9-9 9z" />
    </clipPath>
    <clipPath
       id="clipPath29280">
      <path
         id="path147"
         d="m322 297.24c-4.971 0-9-4.029-9-9 0-4.97 4.029-9 9-9h45c4.971 0 9 4.03 9 9 0 4.971-4.029 9-9 9z" />
    </clipPath>
    <clipPath
       id="clipPath29400">
      <path
         id="path150"
         d="m155 83.24h44v53h-44z" />
    </clipPath>
    <filter
       color-interpolation-filters="sRGB"
       height="1.054"
       width="1.054"
       y="-.027"
       x="-.027"
       id="filter861">
      <feGaussianBlur
         id="feGaussianBlur153"
         stdDeviation="0.16371" />
    </filter>
    <linearGradient
       gradientUnits="userSpaceOnUse"
       gradientTransform="matrix(0.91667,0,0,0.91667,0.70544,0.70544)"
       y2="2.6458"
       y1="16.404"
       x2="3.9687"
       x1="3.9687"
       id="linearGradient1429">
      <stop
         id="stop156"
         offset="0"
         stop-color="#a0a0a0" />
      <stop
         id="stop158"
         offset="1"
         stop-color="#f0f0f0" />
    </linearGradient>
    <linearGradient
       gradientUnits="userSpaceOnUse"
       gradientTransform="matrix(0.91667,0,0,0.91667,0.70544,0.70544)"
       y2=".56226"
       y1="16.404"
       x2="3.9687"
       x1="3.9687"
       id="linearGradient1431">
      <stop
         id="stop161"
         offset="0"
         stop-color="#323232" />
      <stop
         id="stop163"
         offset=".48251"
         stop-color="#4b4b4b" />
      <stop
         id="stop165"
         offset="1"
         stop-color="#323232" />
    </linearGradient>
    <linearGradient
       id="a">
      <stop
         id="stop168"
         offset="0"
         stop-color="#bebebe" />
      <stop
         id="stop170"
         offset="1"
         stop-color="#464646" />
    </linearGradient>
    <radialGradient
       gradientUnits="userSpaceOnUse"
       gradientTransform="matrix(0.3738,1.4135e-7,-4.447e-8,0.1302,-3.4952,5.7248)"
       r="9.9092"
       cy="53.196"
       cx="32"
       id="g-5">
      <stop
         id="stop173"
         offset="0"
         stop-color="#fdfdfd" />
      <stop
         id="stop175"
         offset=".47277"
         stop-color="#f5f5f5" />
      <stop
         id="stop177"
         offset="1"
         stop-color="#cecece" />
    </radialGradient>
    <filter
       color-interpolation-filters="sRGB"
       height="1.1327"
       width="1.1095"
       y="-.06636"
       x="-.054752"
       id="l">
      <feGaussianBlur
         id="feGaussianBlur180"
         stdDeviation="0.30190621" />
    </filter>
    <clipPath
       id="o">
      <path
         id="path183"
         fill="#929292"
         d="m3.8141 1.3806c-0.14028-2.209e-4 -0.26185 0.020571-0.36044 0.064518-0.1604 0.053363-0.22836 0.15334-0.27462 0.31627l-1.6871 9.643c-0.00543 0.05166-0.00166 0.10148 0.00959 0.14934 0.0045 0.01915 0.010275 0.03801 0.017163 0.05639 0.00344 0.0092 0.0071 0.01811 0.011106 0.02707 0.012032 0.02688 0.026643 0.05287 0.043414 0.0776 0.027952 0.04121 0.061865 0.07932 0.10096 0.11325 0.00782 0.0067 0.016025 0.01344 0.024231 0.01985 0.04103 0.03229 0.086637 0.06037 0.13579 0.08347 0.00983 0.0045 0.019689 0.0088 0.029784 0.01308 0.090854 0.03794 0.19221 0.05911 0.29632 0.05911h3.7457a3.4959 5.0429 0 0 1 2.5604-1.6184 3.4959 5.0429 0 0 1 2.5619 1.6184h3.7442c0.24291 0 0.46967-0.11569 0.5871-0.28875 0.01678-0.02472 0.03138-0.05071 0.04341-0.0776 4e-3 -0.0089 0.0081-0.01791 0.01161-0.02707 0.0068-0.01837 0.01217-0.03727 0.01666-0.05639 0.01125-0.04786 0.01502-0.09813 0.0096-0.14979l-1.9456-9.6425c-0.046266-0.16293-0.11422-0.26291-0.27462-0.31627-0.098588-0.043939-0.22016-0.064739-0.36044-0.064518h-4.3939z" />
    </clipPath>
    <filter
       color-interpolation-filters="sRGB"
       height="1.8478"
       width="1.1735"
       y="-.42391"
       x="-.086731"
       id="j-3">
      <feGaussianBlur
         id="feGaussianBlur186"
         stdDeviation="0.70652346" />
    </filter>
    <radialGradient
       gradientUnits="userSpaceOnUse"
       gradientTransform="matrix(1.1114,4.7498e-8,-5.5414e-8,1.2966,-0.88353,-5.2248)"
       r="7.142"
       cy="13.903"
       cx="7.9373"
       id="d-5">
      <stop
         id="stop189"
         offset="0"
         stop-color="#fff" />
      <stop
         id="stop191"
         offset="1"
         stop-opacity="0"
         stop-color="#fff" />
    </radialGradient>
    <linearGradient
       gradientUnits="userSpaceOnUse"
       gradientTransform="matrix(0.99497,0,0,1,0.042596,0)"
       y2="15.356"
       y1="12.477"
       x2="8.4665"
       x1="8.4665"
       id="h-6">
      <stop
         id="stop194"
         offset="0"
         stop-color="#f3f3f3" />
      <stop
         id="stop196"
         offset="1"
         stop-color="#e4e4e4" />
    </linearGradient>
    <filter
       color-interpolation-filters="sRGB"
       height="1.4762"
       width="1.0397"
       y="-.23809"
       x="-.019841"
       id="n-2">
      <feGaussianBlur
         id="feGaussianBlur199"
         stdDeviation="0.1049892" />
    </filter>
    <filter
       color-interpolation-filters="sRGB"
       height="1.3524"
       width="1.0401"
       y="-.17621"
       x="-.020048"
       id="m-9">
      <feGaussianBlur
         id="feGaussianBlur202"
         stdDeviation="0.43981933" />
    </filter>
    <filter
       color-interpolation-filters="sRGB"
       height="1.2199"
       width="1.0825"
       y="-.10994"
       x="-.041258"
       id="k-1">
      <feGaussianBlur
         id="feGaussianBlur205"
         stdDeviation="0.34069824" />
    </filter>
    <radialGradient
       xlink:href="#a"
       gradientUnits="userSpaceOnUse"
       r=".39687"
       cy="14.42"
       cx="14.155"
       id="f-2" />
    <filter
       color-interpolation-filters="sRGB"
       height="1.36"
       width="1.36"
       y="-.18"
       x="-.18"
       id="i-7">
      <feGaussianBlur
         id="feGaussianBlur209"
         stdDeviation="0.040504485" />
    </filter>
    <radialGradient
       xlink:href="#a"
       gradientUnits="userSpaceOnUse"
       gradientTransform="matrix(0.66667,0,0,0.66667,3.5277,4.8065)"
       r=".39687"
       cy="14.42"
       cx="14.155"
       id="c" />
    <radialGradient
       xlink:href="#a"
       gradientUnits="userSpaceOnUse"
       gradientTransform="matrix(0.66667,0,0,0.66667,2.4694,4.8065)"
       r=".39687"
       cy="14.42"
       cx="14.155"
       id="b" />
    <filter
       color-interpolation-filters="sRGB"
       height="1.1211"
       width="1.1189"
       y="-.060537"
       x="-.059473"
       id="e-0">
      <feGaussianBlur
         id="feGaussianBlur214"
         stdDeviation="1.3378352" />
    </filter>
    <linearGradient
       id="linearGradient4261">
      <stop
         stop-color="#586c71"
         offset="0"
         id="stop1474" />
      <stop
         stop-color="#597075"
         offset="1"
         id="stop1476" />
    </linearGradient>
    <linearGradient
       id="linearGradient4251">
      <stop
         stop-color="#3b3f40"
         offset="0"
         id="stop1479" />
      <stop
         stop-color="#4d5253"
         offset="1"
         id="stop1481" />
    </linearGradient>
    <linearGradient
       id="linearGradient4178">
      <stop
         stop-color="#8ba4aa"
         offset="0"
         id="stop1484" />
      <stop
         stop-color="#6f8c92"
         offset="1"
         id="stop1486" />
    </linearGradient>
    <linearGradient
       id="linearGradient1448"
       x1="3.9687"
       x2="3.9687"
       y1="16.404"
       y2="2.6458"
       gradientTransform="matrix(0.91667,0,0,0.91667,0.70544,0.70544)"
       gradientUnits="userSpaceOnUse">
      <stop
         stop-color="#737878"
         offset="0"
         id="stop1489" />
      <stop
         stop-color="#d2e1e6"
         offset="1"
         id="stop1491" />
    </linearGradient>
    <filter
       id="filter861-3"
       x="-.027"
       y="-.027"
       width="1.054"
       height="1.054"
       color-interpolation-filters="sRGB">
      <feGaussianBlur
         stdDeviation="0.16371"
         id="feGaussianBlur1494" />
    </filter>
    <linearGradient
       id="linearGradient2226"
       x1="52.326"
       x2="31.113"
       y1="973.87"
       y2="967.86"
       gradientTransform="matrix(0.26708,0,0,0.254,-10.452,-246.31)"
       gradientUnits="userSpaceOnUse">
      <stop
         stop-color="#121212"
         offset="0"
         id="stop1497" />
      <stop
         stop-color="#3f3e3e"
         offset="1"
         id="stop1499" />
    </linearGradient>
    <linearGradient
       id="linearGradient2228"
       x1="57.188"
       x2="57.188"
       y1="977.17"
       y2="966.55"
       gradientTransform="matrix(0.27718,0,0,0.31268,-10.918,-303.33)"
       gradientUnits="userSpaceOnUse">
      <stop
         stop-color="#b6c4c8"
         offset="0"
         id="stop1502" />
      <stop
         stop-color="#ddecee"
         offset="1"
         id="stop1504" />
    </linearGradient>
    <linearGradient
       id="linearGradient2230"
       x1="69.75"
       x2="69.75"
       y1="1001.1"
       y2="972.11"
       gradientTransform="matrix(0.26458,0,0,0.26458,-10.439,-256.58)"
       gradientUnits="userSpaceOnUse">
      <stop
         stop-color="#a5b2b5"
         offset="0"
         id="stop1507" />
      <stop
         stop-color="#b9cacd"
         offset=".35345"
         id="stop1509" />
      <stop
         stop-color="#cad8db"
         offset="1"
         id="stop1511" />
    </linearGradient>
    <linearGradient
       id="linearGradient2232"
       x1="42.073"
       x2="42.073"
       y1="980.1"
       y2="964.86"
       gradientTransform="matrix(0.25355,0,0,0.23345,-10.02,-226.07)"
       gradientUnits="userSpaceOnUse">
      <stop
         stop-color="#88969a"
         offset="0"
         id="stop1514" />
      <stop
         stop-color="#c0cfd4"
         offset=".28696"
         id="stop1516" />
      <stop
         stop-color="#b9c9ce"
         offset=".6087"
         id="stop1518" />
      <stop
         stop-color="#d2e1e5"
         offset="1"
         id="stop1520" />
    </linearGradient>
    <linearGradient
       id="linearGradient2234"
       x1="53.033"
       x2="55.685"
       y1="1010.3"
       y2="998.62"
       gradientUnits="userSpaceOnUse">
      <stop
         stop-color="#797e81"
         offset="0"
         id="stop1523" />
      <stop
         stop-color="#b0b7bb"
         offset=".34201"
         id="stop1525" />
      <stop
         stop-color="#b8c5c8"
         offset="1"
         id="stop1527" />
    </linearGradient>
    <linearGradient
       id="linearGradient2236"
       x1="48.79"
       x2="48.79"
       y1="1009.7"
       y2="1001.2"
       gradientTransform="matrix(0.90295,0,0,0.80113,4.6586,197.89)"
       gradientUnits="userSpaceOnUse">
      <stop
         stop-color="#909b9f"
         offset="0"
         id="stop1530" />
      <stop
         stop-color="#bbc8cb"
         offset="1"
         id="stop1532" />
    </linearGradient>
    <radialGradient
       id="radialGradient2238"
       cx="-75.884"
       cy="44.052"
       r="29.714"
       gradientTransform="matrix(0.25548,8.737e-4,0,0.17338,21.709,2.53)"
       gradientUnits="userSpaceOnUse">
      <stop
         stop-opacity="0"
         offset="0"
         id="stop1535" />
      <stop
         stop-opacity="0"
         offset=".81612"
         id="stop1537" />
      <stop
         stop-opacity=".023529"
         offset=".90911"
         id="stop1539" />
      <stop
         stop-opacity=".2"
         offset="1"
         id="stop1541" />
    </radialGradient>
    <linearGradient
       id="linearGradient2240"
       x1="50.912"
       x2="50.912"
       y1="1025.5"
       y2="988.02"
       gradientTransform="matrix(0.25243,0,0,0.24421,-9.8559,-236.15)"
       gradientUnits="userSpaceOnUse">
      <stop
         stop-color="#7d8385"
         offset="0"
         id="stop1544" />
      <stop
         stop-color="#bccdd1"
         offset="1"
         id="stop1546" />
    </linearGradient>
    <linearGradient
       id="linearGradient2242"
       x1="69.75"
       x2="69.75"
       y1="1001.1"
       y2="972.11"
       gradientTransform="matrix(0.26458,0,0,0.26458,-9.9097,-255.94)"
       gradientUnits="userSpaceOnUse">
      <stop
         stop-color="#d2dde0"
         offset="0"
         id="stop1549" />
      <stop
         stop-color="#e0e8ea"
         offset=".35345"
         id="stop1551" />
      <stop
         stop-color="#dbe5e7"
         offset="1"
         id="stop1553" />
    </linearGradient>
    <linearGradient
       id="linearGradient2244"
       x1="53.49"
       x2="69.711"
       y1="1029.6"
       y2="983.83"
       gradientTransform="matrix(0.26458,0,0,0.26458,-10.439,-256.58)"
       gradientUnits="userSpaceOnUse">
      <stop
         stop-color="#83898b"
         offset="0"
         id="stop1556" />
      <stop
         stop-color="#6f7677"
         offset=".1904"
         id="stop1558" />
      <stop
         stop-color="#c2cfd3"
         offset=".39515"
         id="stop1560" />
      <stop
         stop-color="#e6eef0"
         offset="1"
         id="stop1562" />
    </linearGradient>
    <linearGradient
       gradientTransform="translate(18.865685)"
       id="linearGradient2363"
       x1="1.1906"
       x2="15.742"
       y1="12.846"
       y2="12.846"
       gradientUnits="userSpaceOnUse">
      <stop
         style="stop-color:#969696;stop-opacity:1"
         stop-color="#5f6469"
         offset="0"
         id="stop1565" />
      <stop
         style="stop-color:#bbbbbb;stop-opacity:1"
         stop-color="#737373"
         offset=".12512"
         id="stop1567" />
      <stop
         style="stop-color:#e9e9e9;stop-opacity:1"
         stop-color="#373737"
         offset=".27172"
         id="stop1569" />
      <stop
         style="stop-color:#e9e9e9;stop-opacity:1"
         stop-color="#646969"
         offset=".75536"
         id="stop1571" />
      <stop
         style="stop-color:#bbbbbb;stop-opacity:1"
         stop-color="#5f5f5f"
         offset=".87327"
         id="stop1573" />
      <stop
         style="stop-color:#969696;stop-opacity:1"
         stop-color="#6e7378"
         offset="1"
         id="stop1575" />
    </linearGradient>
    <linearGradient
       id="linearGradient2375"
       x1="69.191"
       x2="69.191"
       y1="87.105"
       y2="87.729"
       gradientTransform="matrix(0.19242,0,0,0.21324,-2.4228282,-4.7709147)"
       gradientUnits="userSpaceOnUse">
      <stop
         offset="0"
         id="stop1578" />
      <stop
         stop-color="#2f2f2f"
         offset="1"
         id="stop1580" />
    </linearGradient>
    <radialGradient
       id="radialGradient2379"
       cx="-18.219"
       cy="85.049"
       r="3.266"
       gradientTransform="matrix(0.088165,-0.088165,0.085923,0.085923,-3.2881,-5.6025)"
       gradientUnits="userSpaceOnUse"
       xlink:href="#linearGradient4178" />
    <radialGradient
       id="radialGradient2385"
       cx="-18.219"
       cy="85.049"
       r="3.266"
       gradientTransform="matrix(0.088165,-0.088165,0.085923,0.085923,8.8368,-5.6025)"
       gradientUnits="userSpaceOnUse"
       xlink:href="#linearGradient4178" />
    <radialGradient
       id="radialGradient2389"
       cx="-18.219"
       cy="85.049"
       r="3.266"
       gradientTransform="matrix(0.088165,-0.088165,0.085923,0.085923,-3.2881,-1.7161)"
       gradientUnits="userSpaceOnUse"
       xlink:href="#linearGradient4261" />
    <radialGradient
       id="radialGradient2393"
       cx="-18.219"
       cy="85.049"
       r="3.266"
       gradientTransform="matrix(0.088165,-0.088165,0.085923,0.085923,8.8368,-1.7161)"
       gradientUnits="userSpaceOnUse"
       xlink:href="#linearGradient4261" />
    <radialGradient
       id="radialGradient2397"
       cx="-18.219"
       cy="85.049"
       r="3.266"
       gradientTransform="matrix(0.088165,-0.088165,0.085923,0.085923,-3.2881,2.1703)"
       gradientUnits="userSpaceOnUse"
       xlink:href="#linearGradient4251" />
    <radialGradient
       id="radialGradient2401"
       cx="-18.219"
       cy="85.049"
       r="3.266"
       gradientTransform="matrix(0.088165,-0.088165,0.085923,0.085923,8.8368,2.1703)"
       gradientUnits="userSpaceOnUse"
       xlink:href="#linearGradient4251" />
    <radialGradient
       r="7.142"
       cy="13.903"
       cx="7.9373"
       gradientTransform="matrix(1.2280979,5.248533e-8,-6.1232516e-8,1.4327441,-1.8657519,-7.2864477)"
       gradientUnits="userSpaceOnUse"
       id="radialGradient2140"
       xlink:href="#d-5"
       inkscape:collect="always" />
    <radialGradient
       gradientTransform="matrix(0.76149,0,0,0.76149,1.9960038,7.9945254)"
       r=".39687"
       cy="14.42"
       cx="14.155"
       gradientUnits="userSpaceOnUse"
       id="radialGradient2142"
       xlink:href="#a"
       inkscape:collect="always" />
    <radialGradient
       r=".39687"
       cy="14.42"
       cx="14.155"
       gradientTransform="matrix(0.50766254,0,0,0.50766254,4.6823121,11.654627)"
       gradientUnits="userSpaceOnUse"
       id="radialGradient2144"
       xlink:href="#a"
       inkscape:collect="always" />
    <radialGradient
       r=".39687"
       cy="14.42"
       cx="14.155"
       gradientTransform="matrix(0.50766254,0,0,0.50766254,3.8764272,11.654627)"
       gradientUnits="userSpaceOnUse"
       id="radialGradient2146"
       xlink:href="#a"
       inkscape:collect="always" />
    <radialGradient
       r="9.9092"
       cy="53.196"
       cx="32"
       gradientTransform="matrix(0.41907748,1.5847138e-7,-4.9856542e-8,0.14597081,-4.9449775,4.6980137)"
       gradientUnits="userSpaceOnUse"
       id="radialGradient2258"
       xlink:href="#g-5"
       inkscape:collect="always" />
    <linearGradient
       gradientUnits="userSpaceOnUse"
       y2="43.090927"
       x2="32.160324"
       y1="59.338787"
       x1="32.160324"
       id="linearGradient2266"
       xlink:href="#linearGradient2264"
       inkscape:collect="always" />
    <linearGradient
       gradientTransform="translate(18.918407)"
       gradientUnits="userSpaceOnUse"
       y2="14.068051"
       x2="-3.1912627"
       y1="14.068051"
       x1="-17.668398"
       id="linearGradient3010"
       xlink:href="#linearGradient3008"
       inkscape:collect="always" />
  </defs>
  <circle
     id="circle219"
     stroke-width=".41578"
     fill="url(#b-3)"
     r="0"
     cy="8.4781"
     cx="8.4718" />
  <g
     id="g235"
     stroke-width=".26458"
     image-rendering="optimizeSpeed"
     fill="#5e4aa6">
    <g
       id="g229"
       transform="translate(-21.833 .89722)">
      <circle
         id="circle221"
         r="0"
         cy="-328.38"
         cx="-330.35" />
      <circle
         id="circle223"
         r="0"
         cy="-326.25"
         cx="-312.11" />
      <circle
         id="circle225"
         r="0"
         cy="-333.07"
         cx="-306.02" />
      <circle
         id="circle227"
         r="0"
         cy="-326.01"
         cx="-308.84" />
    </g>
    <circle
       id="circle231"
       r="0"
       cy="-330.42"
       cx="-284.23" />
    <circle
       id="circle233"
       fill-rule="evenodd"
       r="0"
       cy="4.3998"
       cx="6.6786" />
  </g>
  <g
     id="g243"
     image-rendering="optimizeSpeed"
     transform="matrix(.35276 0 0 -.35276 198.74 242.9)">
    <g
       id="g241"
       clip-path="url(#clipPath13429)">
      <g
         id="g239"
         transform="translate(448,326)">
        <path
           id="path237"
           fill-rule="evenodd"
           fill="#fff"
           d="m0 0c3.866 0 7 3.134 7 7s-3.134 7-7 7-7-3.134-7-7 3.134-7 7-7" />
      </g>
    </g>
  </g>
  <g
     id="g251"
     image-rendering="optimizeSpeed"
     transform="matrix(.35276 0 0 -.35276 198.74 242.9)">
    <g
       id="g249"
       clip-path="url(#clipPath13465)">
      <g
         id="g247"
         transform="translate(474,326)">
        <path
           id="path245"
           fill-rule="evenodd"
           fill="#fff"
           d="m0 0c3.866 0 7 3.134 7 7s-3.134 7-7 7-7-3.134-7-7 3.134-7 7-7" />
      </g>
    </g>
  </g>
  <g
     id="g259"
     image-rendering="optimizeSpeed"
     transform="matrix(.35276 0 0 -.35276 198.74 242.9)">
    <g
       id="g257"
       clip-path="url(#clipPath13501)">
      <g
         id="g255"
         transform="translate(497,326)">
        <path
           id="path253"
           fill-rule="evenodd"
           fill="#fff"
           d="m0 0c3.866 0 7 3.134 7 7s-3.134 7-7 7-7-3.134-7-7 3.134-7 7-7" />
      </g>
    </g>
  </g>
  <g
     id="g265"
     image-rendering="optimizeSpeed"
     transform="matrix(.35276 0 0 -.35276 198.74 242.9)">
    <g
       id="g263"
       clip-path="url(#clipPath13753)">
      <path
         id="path261"
         fill-rule="evenodd"
         fill="#fff"
         d="m593 1073h36v-18h-36zm18-11c6.075 0 11 0.895 11 2s-4.925 2-11 2-11-0.895-11-2 4.925-2 11-2" />
    </g>
  </g>
  <g
     id="g273"
     image-rendering="optimizeSpeed"
     transform="matrix(.35276 0 0 -.35276 198.74 242.9)">
    <g
       id="g271"
       clip-path="url(#clipPath13771)">
      <g
         id="g269"
         transform="translate(583.42,1063)">
        <path
           id="path267"
           fill="#fff"
           d="m0 0s21.582 23.182 21.582 35.147c0 12.048-9.684 21.853-21.582 21.853-11.816 0-21.418-9.805-21.418-21.853 0-8.06 9.766-21.188 16.002-28.832zm0 42.542c3.938 0 7.14-3.323 7.14-7.395 0-3.822-3.202-7.146-7.14-7.146-3.856 0-7.222 3.324-7.222 7.146 0 4.072 3.366 7.395 7.222 7.395" />
      </g>
    </g>
  </g>
  <g
     id="g281"
     image-rendering="optimizeSpeed"
     transform="matrix(.35276 0 0 -.35276 198.74 242.9)">
    <g
       id="g279"
       clip-path="url(#clipPath14035)">
      <g
         id="g277"
         transform="translate(562,535)">
        <path
           id="path275"
           fill-rule="evenodd"
           fill="#fff"
           d="m0 0h35c2.762 0 5-2.238 5-5s-2.238-5-5-5h-35c-2.762 0-5 2.238-5 5s2.238 5 5 5" />
      </g>
    </g>
  </g>
  <g
     id="g289"
     image-rendering="optimizeSpeed"
     transform="matrix(.35276 0 0 -.35276 198.74 242.9)">
    <g
       id="g287"
       clip-path="url(#clipPath14127)">
      <g
         id="g285"
         transform="translate(562,518)">
        <path
           id="path283"
           fill-rule="evenodd"
           fill="#fff"
           d="m0 0h35c2.762 0 5-2.238 5-5s-2.238-5-5-5h-35c-2.762 0-5 2.238-5 5s2.238 5 5 5" />
      </g>
    </g>
  </g>
  <g
     id="g297"
     image-rendering="optimizeSpeed"
     transform="matrix(.35276 0 0 -.35276 198.74 242.9)">
    <g
       id="g295"
       clip-path="url(#clipPath14445)">
      <g
         id="g293"
         transform="translate(536.43,133.83)">
        <path
           id="path291"
           fill="#fff"
           d="m0 0c-10.01-12.916-22.288-9.047-24.23-8.072-4.847 1.293-6.464 10.015-0.326 12.918 10.018 3.226 19.06-0.325 25.524-3.553-0.644-0.967-0.968-1.293-0.968-1.293m10.667 3.553c4.521 8.072 6.139 15.826 6.139 15.826h-15.189v5.812h17.767v2.26h-17.767v8.723h-8.074v-8.723h-16.156v-2.584h16.156v-5.812h-13.57v-2.585h27.783c0-0.325 0-0.325-0.324-0.968 0-2.909-1.936-6.779-3.554-10.014-20.677 8.079-26.491 3.235-28.108 2.584-13.564-9.689-0.968-21.963 1.293-21.638 14.538-3.227 23.905 2.91 30.369 10.657 0.324-0.325 0.967-0.325 1.292-0.325 4.528-2.578 25.848-12.592 25.848-12.592v12.274c-3.878 0.325-15.506 4.195-23.905 7.105" />
      </g>
    </g>
  </g>
  <g
     id="g305"
     image-rendering="optimizeSpeed"
     transform="matrix(.35276 0 0 -.35276 198.74 242.9)">
    <g
       id="g303"
       clip-path="url(#clipPath14609)">
      <g
         id="g301"
         transform="translate(720.03,1091.5)">
        <path
           id="path299"
           fill="#fff"
           d="m0 0c-0.149 0.354-0.224 0.837-0.224 1.451 0 0.372 0.103 0.828 0.306 1.368 0.205 0.539 0.428 0.958 0.671 1.256-0.019 0.409 0.051 0.902 0.209 1.478 0.159 0.576 0.368 0.976 0.629 1.2 0 2.586 0.86 5.269 2.581 8.05 1.722 2.782 3.744 4.73 6.07 5.846 2.585 1.228 5.6 1.842 9.041 1.842 2.475 0 4.949-0.511 7.423-1.534 0.912-0.391 1.749-0.837 2.512-1.34 0.762-0.502 1.423-1.022 1.981-1.562 0.559-0.54 1.07-1.172 1.534-1.897 0.465-0.725 0.856-1.413 1.172-2.064 0.318-0.651 0.619-1.437 0.908-2.358 0.287-0.921 0.524-1.753 0.71-2.497s0.391-1.655 0.614-2.734l0.028-0.14c1.023-1.543 1.535-2.939 1.535-4.186 0-0.26-0.084-0.632-0.252-1.115-0.168-0.484-0.252-0.837-0.252-1.061 0-0.019 0.015-0.052 0.043-0.099s0.061-0.093 0.098-0.139c0.038-0.046 0.057-0.077 0.057-0.098 1.432-2.121 2.553-4.116 3.363-5.985 0.809-1.869 1.214-3.808 1.214-5.817 0-0.8-0.182-1.73-0.544-2.791-0.363-1.06-0.879-1.59-1.549-1.59-0.167 0-0.349 0.069-0.544 0.209-0.194 0.14-0.371 0.303-0.529 0.489-0.159 0.186-0.335 0.428-0.53 0.725s-0.344 0.543-0.447 0.739-0.228 0.438-0.377 0.725c-0.147 0.288-0.231 0.451-0.251 0.489-0.019 0.019-0.047 0.028-0.085 0.028l-0.138-0.111c-1.099-2.864-2.327-4.938-3.684-6.222 0.372-0.372 0.944-0.73 1.716-1.075s1.414-0.73 1.925-1.158c0.511-0.426 0.841-1.031 0.991-1.814-0.037-0.074-0.074-0.223-0.112-0.447-0.036-0.224-0.101-0.391-0.195-0.501-1.19-1.804-4-2.706-8.427-2.706-0.986 0-2.013 0.084-3.084 0.251-1.069 0.168-1.981 0.354-2.734 0.558s-1.726 0.483-2.916 0.837c-0.279 0.093-0.493 0.158-0.643 0.196-0.259 0.075-0.687 0.115-1.282 0.125-0.595 9e-3 -0.967 0.023-1.116 0.042-0.763-0.838-1.949-1.442-3.559-1.814-1.609-0.372-3.176-0.558-4.702-0.558-0.65 0-1.293 0.014-1.925 0.042s-1.498 0.113-2.595 0.252c-1.098 0.139-2.038 0.33-2.82 0.572-0.781 0.241-1.473 0.613-2.078 1.115-0.604 0.502-0.906 1.098-0.906 1.786 0 0.744 0.093 1.298 0.279 1.661 0.187 0.364 0.569 0.815 1.144 1.353 0.205 0.038 0.581 0.159 1.131 0.363 0.549 0.204 1.009 0.316 1.381 0.334 0.074 0 0.204 0.019 0.39 0.057 0.038 0.037 0.057 0.074 0.057 0.111l-0.057 0.084c-0.892 0.204-1.897 1.185-3.014 2.944-1.117 1.758-1.796 3.214-2.038 4.367l-0.139 0.084c-0.074 0-0.186-0.185-0.334-0.557-0.335-0.763-0.842-1.455-1.521-2.079-0.679-0.622-1.4-0.971-2.163-1.046h-0.028c-0.073 0-0.129 0.041-0.167 0.125-0.037 0.083-0.084 0.134-0.139 0.153-0.428 1.004-0.642 1.934-0.642 2.79 0 5.116 2.343 9.45 7.032 13.002z" />
      </g>
    </g>
  </g>
  <g
     id="g313"
     image-rendering="optimizeSpeed"
     transform="matrix(.35276 0 0 -.35276 198.74 242.9)">
    <g
       id="g311"
       clip-path="url(#clipPath15305)">
      <g
         id="g309"
         transform="translate(655,300)">
        <path
           id="path307"
           stroke-width="8"
           stroke-miterlimit="10"
           stroke="#fff"
           fill="none"
           d="m0 0c16.568 0 30 13.432 30 30s-13.432 30-30 30-30-13.432-30-30 13.432-30 30-30z" />
      </g>
    </g>
  </g>
  <g
     id="g321"
     image-rendering="optimizeSpeed"
     transform="matrix(.35276 0 0 -.35276 198.74 242.9)">
    <g
       id="g319"
       clip-path="url(#clipPath15341)">
      <g
         id="g317"
         transform="translate(66.849,1083.1)">
        <path
           id="path315"
           fill="#fff"
           d="m0 0c0 5.302-3.661 9.749-8.591 10.948-0.209 8.314-7.006 14.991-15.366 14.991-4.897 0-9.254-2.293-12.07-5.861-1.579 2.041-4.05 3.358-6.828 3.358-4.769 0-8.633-3.868-8.633-8.639 0-0.416 0.031-0.825 0.089-1.224-0.726 0.13-1.47 0.203-2.232 0.203-6.913 0-12.515-5.607-12.515-12.524 0-6.916 5.602-12.523 12.515-12.523h42.394c6.21 0.013 11.241 5.053 11.241 11.269z" />
      </g>
    </g>
  </g>
  <g
     id="g329"
     image-rendering="optimizeSpeed"
     transform="matrix(.35276 0 0 -.35276 198.74 242.9)">
    <g
       id="g327"
       clip-path="url(#clipPath15715)">
      <g
         id="g325"
         transform="translate(65.5,681)">
        <path
           id="path323"
           stroke-width="4"
           stroke-miterlimit="10"
           stroke="#fff"
           fill="none"
           d="m0 0c9.113 0 16.5 7.387 16.5 16.5s-7.387 16.5-16.5 16.5-16.5-7.387-16.5-16.5 7.387-16.5 16.5-16.5z" />
      </g>
    </g>
  </g>
  <g
     id="g337"
     image-rendering="optimizeSpeed"
     transform="matrix(.35276 0 0 -.35276 198.74 242.9)">
    <g
       id="g335"
       clip-path="url(#clipPath15807)">
      <g
         id="g333"
         transform="translate(77.5,711)">
        <path
           id="path331"
           stroke-width="4"
           stroke-miterlimit="10"
           stroke="#fff"
           fill="none"
           d="m0 0c7.456 0 13.5 6.044 13.5 13.5s-6.044 13.5-13.5 13.5-13.5-6.044-13.5-13.5 6.044-13.5 13.5-13.5z" />
      </g>
    </g>
  </g>
  <g
     id="g345"
     image-rendering="optimizeSpeed"
     transform="matrix(.35276 0 0 -.35276 198.74 242.9)">
    <g
       id="g343"
       clip-path="url(#clipPath16001)">
      <g
         id="g341"
         transform="translate(455.91,931.53)">
        <path
           id="path339"
           fill="#fff"
           d="m0 0c-0.742-1.039-4.75-2.821-8.165-3.563-4.305-0.891-6.531-1.633-8.758-2.82-2.969-1.782-4.601-4.009-4.305-6.087 0.149-0.445 3.711-5.64 7.868-11.578 4.304-5.938 7.868-10.985 8.016-11.134 0.149-0.297-0.445-0.297-2.524-0.148-6.531 0.445-12.469-2.969-15.142-8.314-0.742-1.632-0.89-2.523-0.89-4.453 0-4.453 2.376-8.016 6.829-10.094 1.781-0.742 2.375-0.891 6.086-0.891 4.007 0 4.156 0 6.829 1.336 7.125 3.414 10.093 10.095 7.125 16.181-0.594 1.336-4.305 7.719-8.313 14.251l-7.274 12.024h1.187c4.75 0.297 8.017 1.781 10.244 4.305 1.929 2.227 2.523 4.453 2.374 8.016-0.148 3.266-0.445 4.008-1.187 2.969" />
      </g>
    </g>
  </g>
  <g
     id="g353"
     image-rendering="optimizeSpeed"
     transform="matrix(.35276 0 0 -.35276 198.74 242.9)">
    <g
       id="g351"
       clip-path="url(#clipPath16093)">
      <g
         id="g349"
         transform="translate(784,902.31)">
        <path
           id="path347"
           fill="#fff"
           d="m0 0c0-1.565-0.904-2.931-2.251-3.674l-27.781-18.472c-0.012-8e-3 -0.026-0.014-0.037-0.02l-0.017-0.011c-0.684-0.376-1.48-0.592-2.331-0.592-2.53 0-4.583 1.913-4.583 4.269v37c0 2.356 2.053 4.27 4.583 4.27 0.851 0 1.647-0.217 2.331-0.596l0.017-8e-3c0.011-9e-3 0.022-0.014 0.037-0.02l27.781-18.471c1.347-0.743 2.251-2.11 2.251-3.675" />
      </g>
    </g>
  </g>
  <g
     id="g361"
     image-rendering="optimizeSpeed"
     transform="matrix(.35276 0 0 -.35276 198.74 242.9)">
    <g
       id="g359"
       clip-path="url(#clipPath16477)">
      <g
         id="g357"
         transform="translate(223.75,708.35)">
        <path
           id="path355"
           fill-rule="evenodd"
           fill="#fff"
           d="m0 0c-15.123 0-27.418 12.329-27.418 27.486 0 1.382 1.111 2.505 2.487 2.505 1.379 0 2.499-1.123 2.499-2.505 0-12.4 10.06-22.487 22.432-22.487 12.375 0 22.443 10.087 22.443 22.487 0 1.382 1.112 2.505 2.488 2.505 1.378 0 2.499-1.123 2.499-2.505 0-15.157-12.304-27.486-27.43-27.486" />
      </g>
    </g>
  </g>
  <g
     id="g369"
     image-rendering="optimizeSpeed"
     transform="matrix(.35276 0 0 -.35276 198.74 242.9)">
    <g
       id="g367"
       clip-path="url(#clipPath16579)">
      <g
         id="g365"
         transform="translate(390.75,139.35)">
        <path
           id="path363"
           fill-rule="evenodd"
           fill="#fff"
           d="m0 0c-15.123 0-27.418 12.329-27.418 27.485 0 1.383 1.111 2.506 2.487 2.506 1.379 0 2.499-1.123 2.499-2.506 0-12.398 10.06-22.486 22.432-22.486 12.375 0 22.443 10.088 22.443 22.486 0 1.383 1.112 2.506 2.488 2.506 1.378 0 2.499-1.123 2.499-2.506 0-15.156-12.304-27.485-27.43-27.485" />
      </g>
    </g>
  </g>
  <g
     id="g377"
     image-rendering="optimizeSpeed"
     transform="matrix(.35276 0 0 -.35276 198.74 242.9)">
    <g
       id="g375"
       clip-path="url(#clipPath16709)">
      <g
         id="g373"
         transform="translate(423.93,686.39)">
        <path
           id="path371"
           fill="#fff"
           d="m0 0c0.245-0.286 0.605-0.456 0.986-0.456 0.382 0 0.743 0.17 0.988 0.456l17.516 20.497c0.333 0.388 0.408 0.933 0.191 1.388-0.211 0.463-0.674 0.756-1.184 0.756h-9.93c-2.118 4.172-3.109 8.382-2.973 12.63 0.135 4.248 1.954 12.361 5.455 24.34-10.956-6.59-17.656-18.44-17.656-31.225v-5.745h-9.93c-0.51 0-0.966-0.293-1.184-0.756-0.211-0.462-0.135-1 0.191-1.388z" />
      </g>
    </g>
  </g>
  <g
     id="g385"
     image-rendering="optimizeSpeed"
     transform="matrix(.35276 0 0 -.35276 163.57 284.1)">
    <g
       id="g383"
       clip-path="url(#clipPath24218)">
      <g
         id="g381"
         transform="translate(9.1685,1040.9)">
        <path
           id="path379"
           fill-rule="evenodd"
           fill="#fff"
           d="m0 0 25.314 21.067-26.077 18.651c5.846 7.671 15.079 12.622 25.468 12.622 17.673 0 32-14.327 32-32s-14.327-32-32-32c-9.948 0-18.836 4.539-24.705 11.66m27.349 31.812c2.835 0 5.132 2.297 5.132 5.132 0 2.834-2.297 5.132-5.132 5.132-2.834 0-5.132-2.298-5.132-5.132 0-2.835 2.298-5.132 5.132-5.132" />
      </g>
    </g>
  </g>
  <g
     id="g393"
     image-rendering="optimizeSpeed"
     transform="matrix(.35276 0 0 -.35276 163.57 284.1)">
    <g
       id="g391"
       clip-path="url(#clipPath24382)">
      <g
         id="g389"
         transform="translate(194.25,1130.3)">
        <path
           id="path387"
           fill-rule="evenodd"
           fill="#fff"
           d="m0 0c20.173-11.579 43.841 2 51.309 14.862 7.467 12.861 5.032 31.138-10.468 37.638s-45.487 6.611-54.5-9-6.515-31.922 13.659-43.5" />
      </g>
    </g>
  </g>
  <g
     id="g401"
     image-rendering="optimizeSpeed"
     transform="matrix(.35276 0 0 -.35276 163.57 284.1)">
    <g
       id="g399"
       clip-path="url(#clipPath24650)">
      <g
         id="g397"
         transform="translate(473.86,1057.5)">
        <path
           id="path395"
           fill-rule="evenodd"
           fill="#fff"
           d="m0 0c1.657 0 3 1.501 3 3.353s-1.343 3.353-3 3.353c-1.656 0-3-1.501-3-3.353s1.344-3.353 3-3.353" />
      </g>
    </g>
  </g>
  <g
     id="g409"
     image-rendering="optimizeSpeed"
     transform="matrix(.35276 0 0 -.35276 163.57 284.1)">
    <g
       id="g407"
       clip-path="url(#clipPath24700)">
      <g
         id="g405"
         transform="translate(493,1069.8)">
        <path
           id="path403"
           fill-rule="evenodd"
           fill="#fff"
           d="m0 0c1.657 0 3 1.501 3 3.353s-1.343 3.353-3 3.353-3-1.501-3-3.353 1.343-3.353 3-3.353" />
      </g>
    </g>
  </g>
  <g
     id="g417"
     image-rendering="optimizeSpeed"
     transform="matrix(.35276 0 0 -.35276 163.57 284.1)">
    <g
       id="g415"
       clip-path="url(#clipPath24750)">
      <g
         id="g413"
         transform="translate(510,1048.8)">
        <path
           id="path411"
           fill-rule="evenodd"
           fill="#fff"
           d="m0 0c1.657 0 3 1.501 3 3.353s-1.343 3.353-3 3.353-3-1.501-3-3.353 1.343-3.353 3-3.353" />
      </g>
    </g>
  </g>
  <g
     id="g425"
     image-rendering="optimizeSpeed"
     transform="matrix(.35276 0 0 -.35276 163.57 284.1)">
    <g
       id="g423"
       clip-path="url(#clipPath24864)">
      <g
         id="g421"
         transform="translate(806.5,1072.2)">
        <path
           id="path419"
           stroke-miterlimit="10"
           stroke-linecap="round"
           stroke="#fff"
           fill="none"
           d="m0 0c-3.667-14-9.5-21.833-17.5-23.5" />
      </g>
    </g>
  </g>
  <g
     id="g433"
     image-rendering="optimizeSpeed"
     transform="matrix(.35276 0 0 -.35276 163.57 284.1)">
    <g
       id="g431"
       clip-path="url(#clipPath24896)">
      <g
         id="g429"
         transform="translate(802,1066.2)">
        <path
           id="path427"
           fill-rule="evenodd"
           fill="#fff"
           d="m0 0c-4.971 0-9 4.029-9 9s4.029 9 9 9 9-4.029 9-9-4.029-9-9-9m0 6c1.657 0 3 1.343 3 3s-1.343 3-3 3-3-1.343-3-3 1.343-3 3-3" />
      </g>
    </g>
  </g>
  <g
     id="g441"
     image-rendering="optimizeSpeed"
     transform="matrix(.35276 0 0 -.35276 163.57 284.1)">
    <g
       id="g439"
       clip-path="url(#clipPath25070)">
      <g
         id="g437"
         transform="translate(122,495.24)">
        <path
           id="path435"
           fill-rule="evenodd"
           fill="#fff"
           d="m0 0h3c0.553 0 1-0.447 1-1v-2c0-0.553-0.447-1-1-1h-3c-0.553 0-1 0.447-1 1v2c0 0.553 0.447 1 1 1" />
      </g>
    </g>
  </g>
  <g
     id="g449"
     image-rendering="optimizeSpeed"
     transform="matrix(.35276 0 0 -.35276 163.57 284.1)">
    <g
       id="g447"
       clip-path="url(#clipPath25100)">
      <g
         id="g445"
         transform="translate(204,495.24)">
        <path
           id="path443"
           fill-rule="evenodd"
           fill="#fff"
           d="m0 0h3c0.553 0 1-0.447 1-1v-2c0-0.553-0.447-1-1-1h-3c-0.553 0-1 0.447-1 1v2c0 0.553 0.447 1 1 1" />
      </g>
    </g>
  </g>
  <g
     id="g457"
     image-rendering="optimizeSpeed"
     transform="matrix(.35276 0 0 -.35276 163.57 284.1)">
    <g
       id="g455"
       clip-path="url(#clipPath25502)">
      <g
         id="g453"
         transform="translate(805,482.24)">
        <path
           id="path451"
           fill-rule="evenodd"
           fill="#fff"
           d="m0 0c4.418 0 8 3.582 8 8s-3.582 8-8 8-8-3.582-8-8 3.582-8 8-8" />
      </g>
    </g>
  </g>
  <g
     id="g465"
     image-rendering="optimizeSpeed"
     transform="matrix(.35276 0 0 -.35276 163.57 284.1)">
    <g
       id="g463"
       clip-path="url(#clipPath25686)">
      <g
         id="g461"
         transform="translate(658,1075.7)">
        <path
           id="path459"
           fill="#fff"
           d="m0 0c0-4.694 3.806-8.5 8.5-8.5s8.5 3.806 8.5 8.5-3.806 8.5-8.5 8.5-8.5-3.806-8.5-8.5" />
      </g>
    </g>
  </g>
  <g
     id="g471"
     image-rendering="optimizeSpeed"
     transform="matrix(.35276 0 0 -.35276 163.57 284.1)">
    <g
       id="g469"
       clip-path="url(#clipPath25788)">
      <path
         id="path467"
         fill-rule="evenodd"
         fill="#fff"
         d="m465.44 1082.2h85.864v-75.319h-85.864zm64.45-25.106c-0.483 0.765-1.453 0.947-2.178 0.431l-15.504-11.01c-0.359-0.255-0.847-0.153-1.071 0.238l-18.271 31.869c-0.438 0.771-1.139 0.776-1.549-0.016l-1.807-3.514-21.07-47.452c13.336-18.44 48.336-26.94 73.836-3.44 0.841 0 6.477 6.246 6 7z" />
    </g>
  </g>
  <g
     id="g479"
     image-rendering="optimizeSpeed"
     transform="matrix(.35276 0 0 -.35276 163.57 284.1)">
    <g
       id="g477"
       clip-path="url(#clipPath26420)">
      <g
         id="g475"
         transform="translate(-23,837.24)">
        <path
           id="path473"
           stroke-width="8"
           stroke-miterlimit="10"
           stroke="#fff"
           fill="none"
           d="m0 0c18.778 0 34 15.222 34 34s-15.222 34-34 34-34-15.222-34-34 15.222-34 34-34z" />
      </g>
    </g>
  </g>
  <g
     id="g485"
     image-rendering="optimizeSpeed"
     transform="matrix(.35276 0 0 -.35276 163.57 284.1)">
    <g
       id="g483"
       clip-path="url(#clipPath26860)">
      <path
         id="path481"
         fill-rule="evenodd"
         fill="#fff"
         d="m644 721.24h82v-82h-82zm41-81c22.092 0 40 17.908 40 40s-17.908 40-40 40-40-17.908-40-40 17.908-40 40-40" />
    </g>
  </g>
  <g
     id="g493"
     image-rendering="optimizeSpeed"
     transform="matrix(.35276 0 0 -.35276 163.57 284.1)">
    <g
       id="g491"
       clip-path="url(#clipPath27506)">
      <g
         id="g489"
         transform="translate(613.88,476.03)">
        <path
           id="path487"
           fill="#fff"
           d="m0 0c0.187-0.771 0.148-1.502-0.116-2.193-0.266-0.692-0.678-1.303-1.239-1.833-0.561-0.531-1.247-0.949-2.057-1.255-0.81-0.305-1.683-0.457-2.617-0.457-5.889-0.033-11.156-0.049-15.798-0.049h-15.891c-1.122 0-2.111 0.209-2.968 0.627s-1.543 0.932-2.056 1.543c-0.515 0.611-0.858 1.279-1.029 2.002s-0.148 1.375 0.071 1.953c0.186 0.451 0.373 0.917 0.56 1.398 0.157 0.418 0.343 0.893 0.561 1.424 0.219 0.53 0.452 1.069 0.701 1.615l1.776 4.438h5.329l-2.01-6.077h30.099l-2.009 6.077h5.094c0.655-1.64 1.246-3.119 1.777-4.438 0.218-0.578 0.435-1.14 0.654-1.687 0.218-0.547 0.412-1.037 0.584-1.472 0.171-0.433 0.312-0.804 0.421-1.109 0.108-0.306 0.163-0.474 0.163-0.507m-22.922 9.236c-0.601 0.698-1.289 1.571-2.064 2.618-0.776 1.046-1.575 2.125-2.398 3.235-0.822 1.11-1.637 2.204-2.443 3.283-0.808 1.079-1.527 2.015-2.16 2.808-0.728 0.856-1.013 1.562-0.855 2.117s0.696 0.832 1.614 0.832c0.506-0.031 1.187-0.024 2.041 0.024 0.855 0.048 1.567 0.072 2.136 0.072 0.633 0 1.029 0.19 1.187 0.57 0.158 0.381 0.237 0.889 0.237 1.523 0 0.698-8e-3 1.467-0.024 2.308s-0.024 1.705-0.024 2.593-8e-3 1.76-0.023 2.617c-0.016 0.856-0.024 1.65-0.024 2.379 0 0.318 0.024 0.65 0.071 1 0.047 0.348 0.158 0.666 0.333 0.951 0.173 0.285 0.426 0.523 0.758 0.714 0.332 0.19 0.784 0.285 1.353 0.285 0.665 0 1.274 9e-3 1.827 0.024 0.555 0.016 1.195 0.024 1.923 0.024 1.044 0 1.748-0.246 2.112-0.737 0.364-0.492 0.562-1.277 0.593-2.356v-1.855c0-0.73 8e-3 -1.507 0.023-2.331 0.017-0.826 0.025-1.651 0.025-2.475v-2.236c0-0.92 0.095-1.659 0.284-2.213 0.191-0.555 0.617-0.817 1.282-0.785 0.475 0 1.052-0.016 1.732-0.047 0.68-0.032 1.274-0.049 1.78-0.049 0.855 0 1.4-0.23 1.638-0.69 0.237-0.46 0.071-1.054-0.498-1.784-0.602-0.76-1.298-1.68-2.089-2.759-0.791-1.08-1.606-2.197-2.445-3.355-0.838-1.158-1.661-2.284-2.467-3.379-0.807-1.094-1.528-2.037-2.16-2.83-0.57-0.73-1.116-1.103-1.637-1.119-0.523-0.016-1.069 0.326-1.638 1.023" />
      </g>
    </g>
  </g>
  <g
     id="g501"
     image-rendering="optimizeSpeed"
     transform="matrix(.35276 0 0 -.35276 163.57 284.1)">
    <g
       id="g499"
       clip-path="url(#clipPath27772)">
      <g
         id="g497"
         transform="translate(588.67,331.24)">
        <path
           id="path495"
           fill="#fff"
           d="m0 0h-49.301c-2.41 0-4.367-1.941-4.367-4.299v-49.402c0-2.393 1.957-4.299 4.367-4.299h49.301c2.41 0 4.332 1.941 4.332 4.299v49.367c0 2.393-1.957 4.334-4.332 4.334m-33.403-53.008h-8.839v6.795h8.839zm-8.91 24.58h8.84v-6.795h-8.84zm8.945-15.566h-8.84v6.795h8.84zm12.998-9.014h-8.84v6.795h8.84zm-8.91 24.58h8.84v-6.795h-8.84zm8.944-15.566h-8.839v6.795h8.839zm13.277-9.014h-8.84v6.795h8.84zm-8.909 24.58h8.84v-6.795h-8.84zm8.945-15.566h-8.84v6.795h8.84zm5.276 24.441c0-2.392-1.957-4.299-4.368-4.299h-37.77c-2.411-0.035-4.367 1.907-4.367 4.299v10.054c0 2.392 1.956 4.333 4.332 4.333h37.805c2.411 0 4.368-1.941 4.368-4.333z" />
      </g>
    </g>
  </g>
  <g
     id="g509"
     image-rendering="optimizeSpeed"
     transform="matrix(.35276 0 0 -.35276 163.57 284.1)">
    <g
       id="g507"
       clip-path="url(#clipPath27864)">
      <g
         id="g505"
         transform="translate(609.3,312.46)">
        <path
           id="path503"
           fill="#fff"
           d="m0 0h-0.72c-0.206 0-0.377 0-0.514-0.212-0.103-0.142-0.103-0.283-0.103-0.46v-0.566c0-0.178 0-0.319 0.103-0.461 0.137-0.212 0.308-0.212 0.514-0.212h0.72c0.205 0 0.376 0 0.514 0.212 0.102 0.142 0.102 0.283 0.102 0.461v0.566c0 0.213 0 0.318-0.102 0.46-0.138 0.212-0.275 0.212-0.514 0.212m-5.003 4.779h-2.947c-0.548 0-0.993-0.46-0.993-1.026v-2.407h0.993v2.407h2.947v-2.407h0.993v2.407c0 0.566-0.445 1.026-0.993 1.026m0-6.973h-2.947v2.407h-0.993v-2.407c0-0.567 0.411-1.027 0.993-1.027h2.947c0.582 0 0.993 0.46 0.993 1.027v2.407h-0.993zm-14.357 0h-2.947v2.584h-0.994v-2.584c0-0.567 0.411-1.027 0.994-1.027h2.947c0.583 0 0.994 0.46 0.994 1.027v2.584h-0.994zm0 6.973h-2.947c-0.548 0-0.994-0.46-0.994-1.026v-2.231h0.994v2.231h2.947v-2.231h0.994v2.231c0 0.566-0.446 1.026-0.994 1.026m7.195 0h-2.946c-0.549 0-0.994-0.46-0.994-1.026v-2.231h0.994v2.231h2.946v-2.231h0.994v2.231c0 0.566-0.445 1.026-0.994 1.026m0-6.973h-2.946v2.584h-0.994v-2.584c0-0.567 0.445-1.027 0.994-1.027h2.946c0.583 0 0.994 0.46 0.994 1.027v2.584h-0.994zm18.675 6.973h-2.947c-0.548 0-0.994-0.46-0.994-1.026v-2.584h0.994v2.584h2.947v-2.584h0.994v2.584c0 0.566-0.445 1.026-0.994 1.026m0-6.973h-2.947v2.23h-0.994v-2.23c0-0.567 0.446-1.027 0.994-1.027h2.947c0.583 0 0.994 0.46 0.994 1.027v2.23h-0.994zm7.195 0h-2.946v2.053h-0.994v-2.053c0-0.567 0.411-1.027 0.994-1.027h2.946c0.583 0 0.994 0.46 0.994 1.027v2.053h-0.994zm0 6.973h-2.946c-0.548 0-0.994-0.46-0.994-1.026v-2.761h0.994v2.761h2.946v-2.761h0.994v2.761c0 0.566-0.479 1.026-0.994 1.026" />
      </g>
    </g>
  </g>
  <g
     id="g517"
     image-rendering="optimizeSpeed"
     transform="matrix(.35276 0 0 -.35276 163.57 284.1)">
    <g
       id="g515"
       clip-path="url(#clipPath28028)">
      <g
         id="g513"
         transform="translate(766.75,130.24)">
        <path
           id="path511"
           fill="#fff"
           d="m0 0h-15.75v6.693c0 1.239-1.013 2.307-2.307 2.307h-13.386c-1.239 0-2.307-1.013-2.307-2.307v-6.693h-15.75c-1.237 0-2.25-1.013-2.25-2.25v-11.25l27-4.5 27 4.5v11.25c0 1.237-1.013 2.25-2.25 2.25m-29.25 4.5h9v-4.5h-9zm9-16.875c0-0.619-0.506-1.125-1.125-1.125h-6.75c-0.619 0-1.125 0.506-1.125 1.125v2.25c0 0.619 0.506 1.125 1.125 1.125h6.75c0.619 0 1.125-0.506 1.125-1.125zm-4.5-7.875 27 4.5v-27c0-1.237-1.013-2.25-2.25-2.25h-49.5c-1.237 0-2.25 1.013-2.25 2.25v27z" />
      </g>
    </g>
  </g>
  <g
     id="g525"
     image-rendering="optimizeSpeed"
     transform="matrix(.35276 0 0 -.35276 163.57 284.1)">
    <g
       id="g523"
       clip-path="url(#clipPath28200)">
      <g
         id="g521"
         transform="translate(392,82.24)">
        <path
           id="path519"
           fill="#fff"
           d="M 0,0 -4.35,3.941 C -19.8,17.953 -30,27.2 -30,38.516 -30,47.762 -22.755,55 -13.5,55 -8.28,55 -3.27,52.572 0,48.75 3.27,52.572 8.28,55 13.5,55 22.755,55 30,47.762 30,38.516 30,27.2 19.8,17.953 4.35,3.941 Z" />
      </g>
    </g>
  </g>
  <g
     id="g533"
     image-rendering="optimizeSpeed"
     transform="matrix(.35276 0 0 -.35276 163.57 284.1)">
    <g
       id="g531"
       clip-path="url(#clipPath28364)">
      <g
         id="g529"
         transform="translate(542.77,113.24)">
        <path
           id="path527"
           fill="#fff"
           d="m0 0c0 2.621 0.885 4.8 2.689 6.604s3.983 2.689 6.604 2.689c2.622 0 4.801-0.885 6.604-2.689 1.805-1.804 2.69-3.983 2.69-6.604s-0.885-4.834-2.69-6.639c-1.803-1.803-3.982-2.689-6.604-2.689-2.621 0-4.809 0.877-6.604 2.689-1.813 1.83-2.689 4.051-2.689 6.639m-13.141-6.06c0.545-1.94 1.363-3.846 2.35-5.617l-6.128-7.523 6.944-6.945 7.524 6.127c1.769-0.986 3.71-1.803 5.65-2.382l1.022-9.6h10.008l1.022 9.6c1.94 0.579 3.778 1.396 5.651 2.382l7.49-6.127 7.012 6.945-6.162 7.523c0.953 1.771 1.805 3.677 2.383 5.617l9.601 1.056v10.008l-9.601 1.021c-0.578 1.941-1.43 3.745-2.383 5.618l6.162 7.523-7.012 7.013-7.49-6.161c-1.907 0.953-3.711 1.803-5.651 2.382l-1.022 9.6h-10.008l-1.022-9.6c-2.008-0.579-3.88-1.429-5.65-2.382l-7.524 6.161-6.944-7.013 6.128-7.523c-0.953-1.873-1.771-3.677-2.35-5.618l-9.633-1.021v-10.008z" />
      </g>
    </g>
  </g>
  <g
     id="g539"
     image-rendering="optimizeSpeed"
     transform="matrix(.35276 0 0 -.35276 163.57 284.1)">
    <g
       id="g537"
       clip-path="url(#clipPath28984)">
      <path
         id="path535"
         fill-rule="evenodd"
         fill="#fff"
         d="m473 698.24h13v-13h-13zm6.5-12c3.037 0 5.5 2.463 5.5 5.5 0 3.038-2.463 5.5-5.5 5.5s-5.5-2.462-5.5-5.5c0-3.037 2.463-5.5 5.5-5.5" />
    </g>
  </g>
  <g
     id="g545"
     image-rendering="optimizeSpeed"
     transform="matrix(.35276 0 0 -.35276 163.57 284.1)">
    <g
       id="g543"
       clip-path="url(#clipPath29012)">
      <path
         id="path541"
         fill-rule="evenodd"
         fill="#fff"
         d="m473 676.24h13v-13h-13zm6.5-12c3.037 0 5.5 2.463 5.5 5.5 0 3.038-2.463 5.5-5.5 5.5s-5.5-2.462-5.5-5.5c0-3.037 2.463-5.5 5.5-5.5" />
    </g>
  </g>
  <g
     id="g551"
     image-rendering="optimizeSpeed"
     transform="matrix(.35276 0 0 -.35276 163.57 284.1)">
    <g
       id="g549"
       clip-path="url(#clipPath29040)">
      <path
         id="path547"
         fill-rule="evenodd"
         fill="#fff"
         d="m467 687.24h13v-13h-13zm6.5-12c3.037 0 5.5 2.463 5.5 5.5 0 3.038-2.463 5.5-5.5 5.5s-5.5-2.462-5.5-5.5c0-3.037 2.463-5.5 5.5-5.5" />
    </g>
  </g>
  <g
     id="g557"
     image-rendering="optimizeSpeed"
     transform="matrix(.35276 0 0 -.35276 163.57 284.1)">
    <g
       id="g555"
       clip-path="url(#clipPath29068)">
      <path
         id="path553"
         fill-rule="evenodd"
         fill="#fff"
         d="m486 698.24h13v-13h-13zm6.5-12c3.037 0 5.5 2.463 5.5 5.5 0 3.038-2.463 5.5-5.5 5.5s-5.5-2.462-5.5-5.5c0-3.037 2.463-5.5 5.5-5.5" />
    </g>
  </g>
  <g
     id="g563"
     image-rendering="optimizeSpeed"
     transform="matrix(.35276 0 0 -.35276 163.57 284.1)">
    <g
       id="g561"
       clip-path="url(#clipPath29096)">
      <path
         id="path559"
         fill-rule="evenodd"
         fill="#fff"
         d="m486 676.24h13v-13h-13zm6.5-12c3.037 0 5.5 2.463 5.5 5.5 0 3.038-2.463 5.5-5.5 5.5s-5.5-2.462-5.5-5.5c0-3.037 2.463-5.5 5.5-5.5" />
    </g>
  </g>
  <g
     id="g569"
     image-rendering="optimizeSpeed"
     transform="matrix(.35276 0 0 -.35276 163.57 284.1)">
    <g
       id="g567"
       clip-path="url(#clipPath29124)">
      <path
         id="path565"
         fill-rule="evenodd"
         fill="#fff"
         d="m480 687.24h13v-13h-13zm6.5-12c3.037 0 5.5 2.463 5.5 5.5 0 3.038-2.463 5.5-5.5 5.5s-5.5-2.462-5.5-5.5c0-3.037 2.463-5.5 5.5-5.5" />
    </g>
  </g>
  <g
     id="g575"
     image-rendering="optimizeSpeed"
     transform="matrix(.35276 0 0 -.35276 163.57 284.1)">
    <g
       id="g573"
       clip-path="url(#clipPath29152)">
      <path
         id="path571"
         fill-rule="evenodd"
         fill="#fff"
         d="m493 687.24h13v-13h-13zm6.5-12c3.037 0 5.5 2.463 5.5 5.5 0 3.038-2.463 5.5-5.5 5.5s-5.5-2.462-5.5-5.5c0-3.037 2.463-5.5 5.5-5.5" />
    </g>
  </g>
  <g
     id="g581"
     image-rendering="optimizeSpeed"
     transform="matrix(.35276 0 0 -.35276 163.57 284.1)">
    <g
       id="g579"
       clip-path="url(#clipPath29252)">
      <path
         id="path577"
         fill-rule="evenodd"
         fill="#fff"
         d="m161 327.24h73v-28h-73zm14-5h45c4.971 0 9-4.029 9-9 0-4.97-4.029-9-9-9h-45c-4.971 0-9 4.03-9 9 0 4.971 4.029 9 9 9" />
    </g>
  </g>
  <g
     id="g587"
     image-rendering="optimizeSpeed"
     transform="matrix(.35276 0 0 -.35276 163.57 284.1)">
    <g
       id="g585"
       clip-path="url(#clipPath29280)">
      <path
         id="path583"
         fill-rule="evenodd"
         fill="#fff"
         d="m162 302.24h73v-28h-73zm14-5h45c4.971 0 9-4.029 9-9 0-4.97-4.029-9-9-9h-45c-4.971 0-9 4.03-9 9 0 4.971 4.029 9 9 9" />
    </g>
  </g>
  <g
     id="g595"
     image-rendering="optimizeSpeed"
     transform="matrix(.35276 0 0 -.35276 163.57 284.1)">
    <g
       id="g593"
       clip-path="url(#clipPath29400)">
      <g
         id="g591"
         transform="translate(104.49,129.57)">
        <path
           id="path589"
           fill="#fff"
           d="m0 0c-4.298-0.338-8.165-0.637-11.604-0.898-1.458-0.113-2.906-0.225-4.344-0.336-1.44-0.114-2.747-0.207-3.924-0.282-1.178-0.074-2.168-0.149-2.972-0.224-0.803-0.074-1.28-0.113-1.428-0.113-0.188-0.037-0.403-0.065-0.645-0.084-0.244-0.018-0.459-0.065-0.645-0.139l-0.673-0.225-2.467 1.121c0.187 0.263 0.412 0.506 0.674 0.731 0.185 0.186 0.42 0.364 0.7 0.533 0.28 0.168 0.569 0.27 0.868 0.309 0.225 0.037 0.822 0.093 1.795 0.168 0.971 0.074 2.167 0.168 3.588 0.28 0 0.486 0.047 1.15 0.14 1.992 0.092 0.841 0.317 1.674 0.672 2.497 0.356 0.822 0.869 1.553 1.541 2.188 0.673 0.636 1.589 1.009 2.747 1.123 1.346 0.111 2.439-0.094 3.281-0.618 0.84-0.523 1.494-1.169 1.961-1.935 0.467-0.768 0.795-1.553 0.981-2.358 0.187-0.804 0.299-1.43 0.337-1.878 1.606 0.111 2.942 0.205 4.008 0.279 1.064 0.076 1.653 0.131 1.765 0.169 0.412 0.038 0.87-0.038 1.373-0.225 0.505-0.186 0.907-0.43 1.206-0.729 0.075-0.075 0.177-0.188 0.308-0.336 0.131-0.151 0.252-0.3 0.365-0.449 0.149-0.151 0.28-0.337 0.392-0.561m-15.528 6.676c-0.709-0.074-1.28-0.326-1.709-0.757-0.43-0.431-0.758-0.944-0.982-1.543-0.223-0.599-0.374-1.206-0.448-1.823-0.075-0.617-0.112-1.114-0.112-1.488 1.159 0.076 2.344 0.169 3.559 0.281s2.402 0.206 3.56 0.281c-0.037 0.336-0.121 0.804-0.252 1.402-0.131 0.599-0.346 1.178-0.645 1.74-0.299 0.561-0.691 1.028-1.176 1.403-0.487 0.373-1.084 0.542-1.795 0.504m21.919-41.24c0.186-1.047 0.159-1.917-0.084-2.61-0.244-0.691-0.925-1.168-2.046-1.43-0.374-0.113-1.187-0.299-2.439-0.562-1.252-0.262-2.747-0.579-4.485-0.953-1.737-0.374-3.597-0.777-5.577-1.207-1.982-0.43-3.878-0.832-5.691-1.205-1.812-0.375-3.437-0.711-4.877-1.011-1.438-0.3-2.457-0.505-3.054-0.617-1.383-0.3-2.402-0.206-3.055 0.28-0.654 0.486-0.982 1.217-0.982 2.189v34.452c0 0.934 0.197 1.691 0.589 2.271 0.393 0.58 0.962 0.889 1.709 0.926 0.299 0 0.664 0.02 1.094 0.057s0.85 0.074 1.261 0.112c0.485 0.037 0.991 0.075 1.514 0.112l0.504-8.023c-0.037-0.038-0.112-0.057-0.224-0.057-0.074 0-0.187-0.01-0.336-0.027-0.15-0.02-0.318-0.029-0.505-0.029-0.784-0.075-1.159-0.542-1.121-1.403 0.038-0.336 0.075-0.805 0.112-1.402 0.037-0.599 0.066-1.225 0.084-1.88 0.019-0.655 0.047-1.29 0.084-1.907s0.074-1.114 0.113-1.488c0.037-0.711 0.149-1.112 0.336-1.206 0.186-0.093 0.598-0.14 1.233-0.14h0.785c0.225 0 0.439 0.01 0.645 0.027 0.205 0.02 0.439 0.038 0.701 0.057 0.261 0.018 0.597 0.047 1.008 0.084 0.785 0.075 1.29 0.243 1.513 0.506 0.225 0.261 0.319 0.654 0.281 1.177 0 0.262-0.028 0.721-0.084 1.375-0.056 0.655-0.113 1.337-0.168 2.048-0.056 0.71-0.103 1.384-0.14 2.02-0.037 0.635-0.074 1.085-0.112 1.346-0.076 0.45-0.168 0.768-0.281 0.954-0.112 0.187-0.318 0.262-0.617 0.224-0.148 0-0.299-9e-3 -0.447-0.027-0.151-0.019-0.3-0.028-0.449-0.028h-0.449l-0.505 7.967c2.542 0.225 4.877 0.412 7.008 0.561 0.897 0.076 1.803 0.15 2.719 0.224 0.916 0.076 1.766 0.141 2.551 0.198 0.785 0.055 1.476 0.111 2.074 0.168 0.598 0.056 1.046 0.103 1.346 0.14 1.083 0.074 1.942-0.113 2.578-0.561 0.635-0.449 1.027-1.122 1.178-2.021 0.037-0.299 0.168-1.196 0.391-2.693 0.224-1.496 0.505-3.291 0.841-5.386s0.691-4.349 1.065-6.761c0.374-2.413 0.729-4.667 1.066-6.761 0.336-2.095 0.625-3.891 0.869-5.387 0.242-1.496 0.4-2.395 0.476-2.693m-35.261-4.881c0-0.525 0.028-0.983 0.084-1.375 0.057-0.393 0.122-0.701 0.197-0.926 0.074-0.299 0.168-0.524 0.279-0.674-0.933 0.486-1.831 0.973-2.69 1.459-0.747 0.412-1.495 0.832-2.242 1.263-0.747 0.43-1.383 0.795-1.906 1.094-0.972 0.561-1.635 1.235-1.99 2.02s-0.439 1.608-0.253 2.469c0.076 0.224 0.244 1.047 0.505 2.469 0.262 1.421 0.588 3.142 0.981 5.162 0.392 2.019 0.803 4.189 1.233 6.508 0.43 2.32 0.831 4.49 1.205 6.509 0.374 2.02 0.701 3.76 0.982 5.218 0.28 1.459 0.439 2.319 0.476 2.581 0.15 0.823 0.42 1.459 0.813 1.908 0.392 0.449 0.849 0.561 1.373 0.336 0.299-0.149 0.543-0.317 0.728-0.504 0.114-0.113 0.188-0.207 0.225-0.281z" />
      </g>
    </g>
  </g>
  <g
     id="g605"
     stroke-width=".26458"
     image-rendering="optimizeSpeed"
     fill="#5e4aa6"
     transform="translate(-21.833 .89722)">
    <circle
       id="circle597"
       r="0"
       cy="-328.38"
       cx="-330.35" />
    <circle
       id="circle599"
       r="0"
       cy="-326.25"
       cx="-312.11" />
    <circle
       id="circle601"
       r="0"
       cy="-333.07"
       cx="-306.02" />
    <circle
       id="circle603"
       r="0"
       cy="-326.01"
       cx="-308.84" />
  </g>
  <rect
     style="filter:url(#filter861-3)"
     id="rect1593"
     stroke-width="0.083153"
     stroke-opacity="0.95294"
     opacity="0.3"
     filter="url(#filter861)"
     ry="3.4395001"
     height="14.552"
     width="14.552"
     y="1.1905"
     x="1.1905" />
  <path
     transform="scale(0.26457812)"
     d="M 5.2363281 50.660156 L 21.169922 50.660156 C 21.868172 49.44195 22.637966 48.35575 23.462891 47.410156 C 24.287815 46.464563 25.167699 45.659963 26.089844 45.007812 C 27.011988 44.355662 27.974934 43.855456 28.964844 43.517578 C 29.954754 43.179701 30.971778 43.004727 32 43.001953 C 33.028762 43.004032 34.046631 43.178077 35.037109 43.515625 C 36.027588 43.853173 36.991369 44.353694 37.914062 45.005859 C 38.836756 45.658024 39.717562 46.462273 40.542969 47.408203 C 41.368375 48.354134 42.137321 49.441312 42.835938 50.660156 L 58.763672 50.660156 C 59.206569 49.34825 59.5 47.965105 59.5 46.5 L 59.5 17.5 C 59.5 10.298033 53.701967 4.5 46.5 4.5 L 17.5 4.5 C 10.298033 4.5 4.5 10.298033 4.5 17.5 L 4.5 46.5 C 4.5 47.965105 4.7934307 49.34825 5.2363281 50.660156 z "
     style="fill:#b2b2b2;fill-opacity:1;stroke-width:0.314285;stroke-opacity:0.95294"
     id="path2173" />
  <path
     transform="scale(0.26457812)"
     d="M 5.2363281 50.660156 C 6.9705669 55.797143 11.763138 59.5 17.5 59.5 L 46.5 59.5 C 52.236862 59.5 57.029433 55.797143 58.763672 50.660156 L 42.835938 50.660156 C 42.137321 49.441312 41.368375 48.354134 40.542969 47.408203 C 39.717562 46.462273 38.836756 45.658024 37.914062 45.005859 C 36.991369 44.353694 36.027588 43.853173 35.037109 43.515625 C 34.046631 43.178077 33.028762 43.004032 32 43.001953 C 30.971778 43.004727 29.954754 43.179701 28.964844 43.517578 C 27.974934 43.855456 27.011988 44.355662 26.089844 45.007812 C 25.167699 45.659963 24.287815 46.464563 23.462891 47.410156 C 22.637966 48.35575 21.868172 49.44195 21.169922 50.660156 L 5.2363281 50.660156 z "
     style="fill:url(#linearGradient2266);fill-opacity:1;stroke-width:0.314285;stroke-opacity:0.95294"
     id="rect1595" />
  <path
     id="path2197"
     style="paint-order:stroke fill markers"
     opacity="0.35"
     filter="url(#j-3)"
     fill-rule="evenodd"
     d="m 31.855,47 a 10.294,5.7981 0 0 0 -9.7715,4 h 2.502 A 10.294,5.7981 0 0 1 31.855,49.3008 10.294,5.7981 0 0 1 39.1128,51 h 2.5215 A 10.294,5.7981 0 0 0 31.855,47 Z"
     transform="matrix(0.31329078,0,0,0.31329078,-1.5146687,-2.5742608)" />
  <path
     d="m 8.465614,11.197414 a 4.012067,6.8743057 0 0 0 -2.9384749,2.206155 h 0.2601242 a 3.0536151,1.8257563 0 0 1 2.6783728,-0.949595 3.0536151,1.8257563 0 0 1 2.6748979,0.949595 h 0.265338 A 4.012067,6.8743057 0 0 0 8.4657156,11.197414 Z"
     fill="url(#g-5)"
     id="path2256"
     style="fill:url(#radialGradient2258);stroke-width:1.12113" />
  <path
     transform="scale(0.26457812)"
     id="path2176"
     style="fill:#d8d8d8;fill-opacity:1;stroke-width:0.314285;stroke-opacity:0.95294"
     d="M 5.2363281 50.660156 L 21.169922 50.660156 C 21.868172 49.44195 22.637966 48.35575 23.462891 47.410156 C 24.287815 46.464563 25.167699 45.659963 26.089844 45.007812 C 27.011988 44.355662 27.974934 43.855456 28.964844 43.517578 C 29.954754 43.179701 30.971778 43.004727 32 43.001953 C 33.028762 43.004032 34.046631 43.178077 35.037109 43.515625 C 36.027588 43.853173 36.991369 44.353694 37.914062 45.005859 C 38.836756 45.658024 39.717562 46.462273 40.542969 47.408203 C 41.368375 48.354134 42.137321 49.441312 42.835938 50.660156 L 58.763672 50.660156 C 59.206569 49.34825 59.5 47.965105 59.5 46.5 L 59.5 17.5 C 59.5 10.298033 53.701967 4.5 46.5 4.5 L 17.5 4.5 C 10.298033 4.5 4.5 10.298033 4.5 17.5 L 4.5 46.5 C 4.5 47.965105 4.7934307 49.34825 5.2363281 50.660156 z " />
  <path
     style="fill:url(#radialGradient2140);stroke-width:1.10501"
     id="path2120"
     fill="url(#d-5)"
     d="M 3.2040247,-0.05233847 C 3.0453471,-0.0526181 2.9078411,-0.02630421 2.7963231,0.02931658 2.6148931,0.09685384 2.5380181,0.2233879 2.4856971,0.42959206 L 0.57736106,12.634327 c -0.0062,0.06538 -0.0019,0.128437 0.01088,0.189011 0.0051,0.02423 0.01161,0.04809 0.01942,0.07136 0.0039,0.01161 0.0081,0.02291 0.01262,0.03427 0.01364,0.03403 0.03014,0.06691 0.04911,0.09821 0.03162,0.05216 0.06999,0.100372 0.114202,0.143325 0.0088,0.0086 0.01812,0.01701 0.02741,0.02513 0.04641,0.04086 0.09801,0.0764 0.153606,0.105641 0.01117,0.0058 0.02226,0.01118 0.03369,0.01656 0.10276704,0.04801 0.21740904,0.07481 0.33518004,0.07481 h 4.2369046 a 3.9543561,6.3823746 0 0 1 2.896207,-2.048228 3.9543561,6.3823746 0 0 1 2.8978643,2.048228 h 4.235247 c 0.274759,0 0.531273,-0.146412 0.664085,-0.365446 0.01898,-0.03128 0.03549,-0.06419 0.04911,-0.09821 0.0045,-0.01132 0.0092,-0.02266 0.01306,-0.03427 0.0077,-0.02324 0.01379,-0.04716 0.01884,-0.07136 0.01277,-0.06059 0.01699,-0.124185 0.01089,-0.189573 L 14.154847,0.43013375 C 14.10252,0.22391843 14.02564,0.09738481 13.844209,0.02985814 13.732692,-0.02575251 13.595187,-0.05207697 13.436508,-0.05179691 H 8.4664362 Z" />
  <path
     transform="matrix(0.27876021,0,0,0.27876021,-0.4546214,-0.9039184)"
     d="m 32,43.549 a 13.526,23.175 0 0 0 -9.9062,7.4375 h 0.29688 a 13.526,23.175 0 0 1 9.6094,-6.9199 13.526,23.175 0 0 1 9.6035,6.9199 h 0.30859 a 13.526,23.175 0 0 0 -9.9121,-7.4375 z"
     filter="url(#k-1)"
     opacity="0.15"
     stroke-width="3.7796"
     id="path2327" />
  <path
     d="m 1.1906019,9.9490676 v 2.3538154 c 0,1.9055 1.534015,3.439515 3.439515,3.439515 h 7.6727661 c 1.905499,0 3.439515,-1.534015 3.439515,-3.439515 V 9.9490676 c 0,1.9054994 -1.534016,3.4395154 -3.439515,3.4395154 H 4.6301169 c -1.9055,0 -3.439515,-1.534016 -3.439515,-3.4395154 z"
     style="opacity:1;fill:url(#linearGradient3010);fill-opacity:1;stroke-width:0.514869;stroke-linecap:round"
     id="rect3000" />
  <g
     transform="matrix(1.1955747,0,0,1.1955747,-4.2984283,-8.0081709)"
     id="g2187">
    <circle
       id="circle2124"
       style="fill:url(#radialGradient2142);fill-rule:evenodd;stroke-width:0.76149;paint-order:stroke fill markers"
       fill="url(#f-2)"
       r="0.30221254"
       cy="18.975212"
       cx="12.774895" />
    <circle
       id="circle2126"
       style="fill-rule:evenodd;paint-order:stroke fill markers"
       opacity="0.36"
       filter="url(#i-7)"
       fill="#ffffff"
       r="0.27002999"
       cy="14.328"
       cx="14.155"
       transform="matrix(0.76149,0,0,0.76149,1.9960038,7.9945254)" />
    <circle
       id="circle2128"
       style="fill:url(#radialGradient2144);fill-rule:evenodd;stroke-width:0.76149;paint-order:stroke fill markers"
       fill="url(#c)"
       r="0.20147504"
       cy="18.975212"
       cx="11.86796" />
    <circle
       id="circle2130"
       style="fill:url(#radialGradient2146);fill-rule:evenodd;stroke-width:0.76149;paint-order:stroke fill markers"
       fill="url(#b)"
       r="0.20147504"
       cy="18.975212"
       cx="11.062304" />
  </g>
</svg>
