<?xml version="1.0" encoding="UTF-8"?>
<svg width="64" height="64" version="1.1" xmlns="http://www.w3.org/2000/svg" xmlns:cc="http://creativecommons.org/ns#" xmlns:dc="http://purl.org/dc/elements/1.1/" xmlns:rdf="http://www.w3.org/1999/02/22-rdf-syntax-ns#">
 <metadata>
  <rdf:RDF>
   <cc:Work rdf:about="">
    <dc:format>image/svg+xml</dc:format>
    <dc:type rdf:resource="http://purl.org/dc/dcmitype/StillImage"/>
    <dc:title/>
   </cc:Work>
  </rdf:RDF>
 </metadata>
 <defs>
  <linearGradient id="b" x1="99.036" x2="99.036" y1="-.50472" y2="199.84" gradientTransform="matrix(4.6866,0,0,4.6866,42.84,72.198)" gradientUnits="userSpaceOnUse">
   <stop stop-color="#00b6ff" offset="0"/>
   <stop stop-color="#0194cf" offset="1"/>
  </linearGradient>
  <linearGradient id="a" x1="13.784" x2="13.784" y1=".40289" y2="23.336" gradientTransform="matrix(5.12,0,0,5.12,29.82,-127.64)" gradientUnits="userSpaceOnUse">
   <stop stop-color="#fff" offset="0"/>
   <stop stop-color="#d7d7d7" offset="1"/>
  </linearGradient>
  <filter id="d" x="-.034693" y="-.037409" width="1.0694" height="1.0748" color-interpolation-filters="sRGB">
   <feGaussianBlur stdDeviation="1.7822209"/>
  </filter>
  <filter id="c" x="-.036" y="-.036" width="1.072" height="1.072" color-interpolation-filters="sRGB">
   <feGaussianBlur stdDeviation="14.059863"/>
  </filter>
  <linearGradient id="linearGradient924" x1="23.713" x2="63.713" y1="11.713" y2="11.713" gradientTransform="matrix(1.3592 0 0 1.3592 46.672 -75.327)" gradientUnits="userSpaceOnUse">
   <stop stop-color="#29bdfd" offset="0"/>
   <stop stop-color="#3cc8ff" offset=".53334"/>
   <stop stop-color="#0eb5fe" offset="1"/>
  </linearGradient>
  <linearGradient id="linearGradient932" x1="18.713" x2="25.369" y1="11.713" y2="11.513" gradientTransform="matrix(1.3592 0 0 1.3592 46.672 -75.327)" gradientUnits="userSpaceOnUse">
   <stop stop-color="#2dbffe" offset="0"/>
   <stop stop-color="#51c9fc" offset="1"/>
  </linearGradient>
  <linearGradient id="linearGradient940" x1="59.862" x2="68.713" y1="11.314" y2="11.713" gradientTransform="matrix(1.3592 0 0 1.3592 46.672 -75.327)" gradientUnits="userSpaceOnUse">
   <stop stop-color="#38c1fc" offset="0"/>
   <stop stop-color="#09b4fb" offset="1"/>
  </linearGradient>
  <filter id="filter961" x="-.063645" y="-.05675" width="1.1273" height="1.1135" color-interpolation-filters="sRGB">
   <feGaussianBlur stdDeviation="0.7388099"/>
  </filter>
 </defs>
 <g transform="translate(-96.646 -988.36)">
  <g transform="matrix(.064012 0 0 .064012 -.74226 985.74)" stroke-width="15.622">
   <circle cx="511.5" cy="540.86" r="468.66" color="#000000" filter="url(#c)" opacity=".25"/>
   <circle cx="511.5" cy="540.86" r="468.66" color="#000000" fill="url(#b)"/>
   <g transform="matrix(5.2121,0,0,5.2121,30.023,907.5)" filter="url(#d)" opacity=".2" stroke-width="15.622">
    <g stroke-width="15.622">
     <path d="m147.73-58.551c1.7408 2.4627 3.0669 5.1354 3.9936 8.064 0.9216 2.9184 1.3875 5.9392 1.3875 9.0675 0 4.48-0.90624 8.6886-2.6982 12.631-1.7971 3.9322-4.2701 7.3984-7.424 10.409-3.1539 2.9798-6.825 5.3197-11.044 7.0195-4.2189 1.6998-8.6579 2.5344-13.379 2.5344-6.7226 0-12.754-1.5872-18.104-4.7565-1.4848 0.2048-2.9798 0.35328-4.4902 0.46592-1.5155 0.1024-3.0157 0.14336-4.5158 0.14336-7.8541 0-15.227-1.408-22.124-4.2138-6.8813-2.8211-12.908-6.6509-18.099-11.53-5.1763-4.8589-9.257-10.588-12.196-17.147-2.9645-6.5587-4.4442-13.568-4.4442-21.018 0-1.4438 0.07168-2.816 0.22528-4.0858 0.13824-1.2698 0.32768-2.5651 0.52224-3.8605-3.6864-5.1149-5.5194-10.609-5.5194-16.502 0-4.3827 0.90624-8.5248 2.7034-12.421 1.792-3.8912 4.2496-7.2755 7.4035-10.148 3.1539-2.8774 6.8454-5.1405 11.039-6.7994 4.2035-1.6589 8.663-2.4678 13.384-2.4678 3.3997 0 6.5894 0.39936 9.6205 1.2134 3.031 0.82432 5.8675 1.9712 8.4838 3.4714 1.4797-0.20992 2.9952-0.3584 4.4902-0.47616 1.5155-0.0922 3.031-0.14848 4.5107-0.14848 7.8797 0 15.278 1.3722 22.195 4.1011 6.9018 2.7085 12.943 6.4614 18.135 11.223 5.1917 4.7821 9.2826 10.317 12.252 16.614 2.9594 6.3078 4.439 13.076 4.439 20.285 5e-3 2.6573-0.24064 5.4374-0.74752 8.3302zm-29.164 16.394c2.4269-3.1949 3.625-6.9478 3.625-11.259 0-3.3946-0.67584-6.2464-2.007-8.5606-1.3875-2.304-3.3434-4.2342-5.8675-5.7754-2.3194-1.495-5.335-2.8211-9.0266-4.009-3.712-0.93184-7.6493-1.8432-11.812-2.775l-4.5619-1.0394c-1.2237-0.26112-2.1965-0.48128-2.9286-0.68096-0.81408-0.19968-1.5667-0.41984-2.2835-0.68096-0.67584-0.24064-1.3926-0.52224-2.1094-0.82944-1.3926-0.58368-2.56-1.3773-3.4867-2.3091-0.7168-0.80384-1.0752-1.8842-1.0752-3.2256 0-1.961 1.1674-3.712 3.4867-5.2634 2.6266-1.449 5.8368-2.1453 9.6512-2.0992 4.4083 0 7.5059 0.65024 9.2518 1.9558 2.1094 1.5462 3.7632 3.4509 4.9459 5.6986 1.0291 1.6486 2.0736 2.8774 3.1539 3.6864 1.0291 0.78848 2.4576 1.2134 4.2547 1.2698 2.0224 0 3.6966-0.67072 5.1046-2.0224 1.3773-1.2595 2.0378-2.6778 2.0019-4.2752 0-1.8483-0.52224-3.6659-1.5462-5.417-1.0138-1.6435-2.7187-3.3946-5.0688-5.2531-1.1878-0.79872-2.4934-1.5309-3.9014-2.2016-1.4131-0.67584-3.0003-1.2698-4.7258-1.7715-1.8074-0.49152-3.7069-0.8704-5.7088-1.1264-2.007-0.25088-4.1984-0.36864-6.6253-0.36864-6.1133 0-11.269 0.74752-15.468 2.2426-4.5107 1.5565-7.9258 3.6966-10.24 6.4717-2.3142 2.6419-3.4714 5.8163-3.4714 9.5232 0 3.9014 1.1213 7.0758 3.3331 9.5232 2.2272 2.647 5.2429 4.649 9.0573 6.0058 3.625 1.449 8.2586 2.7187 13.942 3.8144 2.1248 0.50176 3.9834 0.92672 5.6269 1.2493 1.6179 0.31744 3.0874 0.68096 4.3725 1.0752 2.4218 0.66048 4.3878 1.7664 5.888 3.3382 1.6026 1.3619 2.4064 3.113 2.4064 5.2736 0 2.985-1.4643 5.4016-4.3571 7.2448-2.7341 1.8893-6.4307 2.8211-11.085 2.7546-3.7274 0-6.4256-0.43008-8.1357-1.3005-2.1248-0.96768-3.6915-2.1965-4.7206-3.6608-1.3056-1.6691-2.3501-3.5226-3.1898-5.5245-0.73216-1.8995-1.7203-3.3331-3.0106-4.3008-1.2032-0.97792-2.6112-1.4643-4.265-1.4643-2.1094 0-3.8502 0.5888-5.2275 1.7459-1.3773 1.3158-2.0378 2.857-2.007 4.5875 0 3.0157 1.1162 6.0314 3.328 9.0522 2.1965 3.1078 5.0176 5.5347 8.4531 7.2806 5.033 2.601 11.356 3.9168 18.954 3.968 6.2003 0 11.725-0.9216 16.532-2.7597 4.7206-2.0941 8.2432-4.6899 10.542-7.808z" stroke-width="79.985"/>
    </g>
   </g>
   <g transform="matrix(5.2121,0,0,5.2121,30.023,897.54)" stroke-width="15.622">
    <g stroke-width="15.622">
     <path d="m147.73-58.551c1.7408 2.4627 3.0669 5.1354 3.9936 8.064 0.9216 2.9184 1.3875 5.9392 1.3875 9.0675 0 4.48-0.90624 8.6886-2.6982 12.631-1.7971 3.9322-4.2701 7.3984-7.424 10.409-3.1539 2.9798-6.825 5.3197-11.044 7.0195-4.2189 1.6998-8.6579 2.5344-13.379 2.5344-6.7226 0-12.754-1.5872-18.104-4.7565-1.4848 0.2048-2.9798 0.35328-4.4902 0.46592-1.5155 0.1024-3.0157 0.14336-4.5158 0.14336-7.8541 0-15.227-1.408-22.124-4.2138-6.8813-2.8211-12.908-6.6509-18.099-11.53-5.1763-4.8589-9.257-10.588-12.196-17.147-2.9645-6.5587-4.4442-13.568-4.4442-21.018 0-1.4438 0.07168-2.816 0.22528-4.0858 0.13824-1.2698 0.32768-2.5651 0.52224-3.8605-3.6864-5.1149-5.5194-10.609-5.5194-16.502 0-4.3827 0.90624-8.5248 2.7034-12.421 1.792-3.8912 4.2496-7.2755 7.4035-10.148 3.1539-2.8774 6.8454-5.1405 11.039-6.7994 4.2035-1.6589 8.663-2.4678 13.384-2.4678 3.3997 0 6.5894 0.39936 9.6205 1.2134 3.031 0.82432 5.8675 1.9712 8.4838 3.4714 1.4797-0.20992 2.9952-0.3584 4.4902-0.47616 1.5155-0.0922 3.031-0.14848 4.5107-0.14848 7.8797 0 15.278 1.3722 22.195 4.1011 6.9018 2.7085 12.943 6.4614 18.135 11.223 5.1917 4.7821 9.2826 10.317 12.252 16.614 2.9594 6.3078 4.439 13.076 4.439 20.285 5e-3 2.6573-0.24064 5.4374-0.74752 8.3302zm-29.164 16.394c2.4269-3.1949 3.625-6.9478 3.625-11.259 0-3.3946-0.67584-6.2464-2.007-8.5606-1.3875-2.304-3.3434-4.2342-5.8675-5.7754-2.3194-1.495-5.335-2.8211-9.0266-4.009-3.712-0.93184-7.6493-1.8432-11.812-2.775l-4.5619-1.0394c-1.2237-0.26112-2.1965-0.48128-2.9286-0.68096-0.81408-0.19968-1.5667-0.41984-2.2835-0.68096-0.67584-0.24064-1.3926-0.52224-2.1094-0.82944-1.3926-0.58368-2.56-1.3773-3.4867-2.3091-0.7168-0.80384-1.0752-1.8842-1.0752-3.2256 0-1.961 1.1674-3.712 3.4867-5.2634 2.6266-1.449 5.8368-2.1453 9.6512-2.0992 4.4083 0 7.5059 0.65024 9.2518 1.9558 2.1094 1.5462 3.7632 3.4509 4.9459 5.6986 1.0291 1.6486 2.0736 2.8774 3.1539 3.6864 1.0291 0.78848 2.4576 1.2134 4.2547 1.2698 2.0224 0 3.6966-0.67072 5.1046-2.0224 1.3773-1.2595 2.0378-2.6778 2.0019-4.2752 0-1.8483-0.52224-3.6659-1.5462-5.417-1.0138-1.6435-2.7187-3.3946-5.0688-5.2531-1.1878-0.79872-2.4934-1.5309-3.9014-2.2016-1.4131-0.67584-3.0003-1.2698-4.7258-1.7715-1.8074-0.49152-3.7069-0.8704-5.7088-1.1264-2.007-0.25088-4.1984-0.36864-6.6253-0.36864-6.1133 0-11.269 0.74752-15.468 2.2426-4.5107 1.5565-7.9258 3.6966-10.24 6.4717-2.3142 2.6419-3.4714 5.8163-3.4714 9.5232 0 3.9014 1.1213 7.0758 3.3331 9.5232 2.2272 2.647 5.2429 4.649 9.0573 6.0058 3.625 1.449 8.2586 2.7187 13.942 3.8144 2.1248 0.50176 3.9834 0.92672 5.6269 1.2493 1.6179 0.31744 3.0874 0.68096 4.3725 1.0752 2.4218 0.66048 4.3878 1.7664 5.888 3.3382 1.6026 1.3619 2.4064 3.113 2.4064 5.2736 0 2.985-1.4643 5.4016-4.3571 7.2448-2.7341 1.8893-6.4307 2.8211-11.085 2.7546-3.7274 0-6.4256-0.43008-8.1357-1.3005-2.1248-0.96768-3.6915-2.1965-4.7206-3.6608-1.3056-1.6691-2.3501-3.5226-3.1898-5.5245-0.73216-1.8995-1.7203-3.3331-3.0106-4.3008-1.2032-0.97792-2.6112-1.4643-4.265-1.4643-2.1094 0-3.8502 0.5888-5.2275 1.7459-1.3773 1.3158-2.0378 2.857-2.007 4.5875 0 3.0157 1.1162 6.0314 3.328 9.0522 2.1965 3.1078 5.0176 5.5347 8.4531 7.2806 5.033 2.601 11.356 3.9168 18.954 3.968 6.2003 0 11.725-0.9216 16.532-2.7597 4.7206-2.0941 8.2432-4.6899 10.542-7.808z" fill="url(#a)" stroke-width="79.985"/>
    </g>
   </g>
  </g>
 </g>
 <g transform="translate(-85.021 -1.0077)">
  <g stroke-width="1.3592">
   <circle transform="rotate(45)" cx="92.494" cy="-59.406" r="20.388" fill="url(#linearGradient932)"/>
   <circle transform="rotate(45)" cx="119.68" cy="-59.406" r="20.388" fill="url(#linearGradient940)"/>
   <circle transform="rotate(45)" cx="106.09" cy="-59.406" r="27.184" fill="url(#linearGradient924)"/>
  </g>
  <path transform="matrix(.92709 0 0 .92709 8.5316 3.6933)" d="m129.31 43.838c1.1005-1.4488 1.6438-3.1506 1.6438-5.1057 0-1.5394-0.30648-2.8326-0.91014-3.882-0.6292-1.0448-1.5162-1.9201-2.6608-2.619-1.0518-0.67796-2.4194-1.2793-4.0934-1.8181-1.6834-0.42258-3.4688-0.83585-5.3565-1.2584l-2.0687-0.47134c-0.55492-0.11841-0.99606-0.21825-1.3281-0.3088-0.36916-0.09055-0.71047-0.1904-1.0355-0.3088-0.30647-0.10913-0.63151-0.23683-0.95656-0.37613-0.63152-0.26469-1.1609-0.62458-1.5812-1.0471-0.32505-0.36452-0.48759-0.85445-0.48759-1.4628 0-0.88927 0.5294-1.6834 1.5812-2.3869 1.1911-0.65709 2.6469-0.97285 4.3766-0.95194 1.9991 0 3.4037 0.29486 4.1954 0.88692 0.95657 0.70117 1.7066 1.5648 2.2428 2.5842 0.46667 0.7476 0.94034 1.3048 1.4303 1.6717 0.46667 0.35756 1.1145 0.55026 1.9294 0.57583 0.91712 0 1.6763-0.30416 2.3149-0.91712 0.62458-0.57116 0.9241-1.2143 0.90782-1.9388 0-0.83816-0.23683-1.6624-0.70117-2.4565-0.45974-0.74529-1.2329-1.5394-2.2985-2.3821-0.53864-0.3622-1.1307-0.69422-1.7691-0.99839-0.64081-0.30647-1.3606-0.57582-2.143-0.80334-0.81962-0.2229-1.6811-0.39471-2.5889-0.5108-0.91013-0.11376-1.9038-0.16717-3.0044-0.16717-2.7722 0-5.1103 0.33898-7.0144 1.017-2.0455 0.70585-3.5941 1.6763-4.6436 2.9348-1.0494 1.1981-1.5742 2.6375-1.5742 4.3186 0 1.7693 0.50849 3.2087 1.5114 4.3186 1.01 1.2004 2.3775 2.1083 4.1072 2.7236 1.6438 0.65709 3.7451 1.2329 6.3224 1.7297 0.96357 0.22754 1.8064 0.42025 2.5518 0.56653 0.73368 0.14395 1.4001 0.3088 1.9828 0.48759 1.0982 0.29951 1.9897 0.80103 2.6701 1.5137 0.72674 0.61759 1.0912 1.4117 1.0912 2.3915 0 1.3536-0.66402 2.4496-1.9759 3.2853-1.2398 0.85676-2.9162 1.2793-5.0269 1.2492-1.6903 0-2.9139-0.19503-3.6894-0.58974-0.96357-0.43882-1.674-0.99606-2.1407-1.6601-0.59207-0.7569-1.0657-1.5975-1.4465-2.5053-0.33201-0.86138-0.78011-1.5114-1.3652-1.9503-0.54562-0.44347-1.1841-0.66402-1.9341-0.66402-0.95658 0-1.746 0.267-2.3706 0.79173-0.62458 0.59669-0.9241 1.2956-0.91013 2.0804 0 1.3675 0.50616 2.7351 1.5091 4.1049 0.99607 1.4094 2.2754 2.5099 3.8334 3.3016 2.2824 1.1795 5.1497 1.7762 8.5952 1.7994 2.8116 0 5.3171-0.41793 7.4969-1.2515 2.1407-0.94963 3.7381-2.1267 4.7806-3.5407z" filter="url(#filter961)" opacity=".3" stroke-width="36.272"/>
  <path d="m128.41 43.048c1.0203-1.3431 1.524-2.9209 1.524-4.7335 0-1.4272-0.28413-2.6261-0.84379-3.599-0.58333-0.96864-1.4056-1.7802-2.4668-2.4281-0.97511-0.62853-2.243-1.186-3.7949-1.6855-1.5606-0.39177-3.2159-0.77491-4.9659-1.1667l-1.9179-0.43698c-0.51447-0.10978-0.92344-0.20234-1.2312-0.28628-0.34225-0.08395-0.65868-0.17652-0.96003-0.28628-0.28413-0.10117-0.58547-0.21956-0.88682-0.34871-0.58548-0.24539-1.0763-0.57904-1.4659-0.97078-0.30136-0.33795-0.45204-0.79215-0.45204-1.3561 0-0.82444 0.4908-1.5606 1.4659-2.2129 1.1043-0.60918 2.4539-0.90192 4.0575-0.88254 1.8534 0 3.1556 0.27336 3.8896 0.82226 0.88682 0.65005 1.5822 1.4508 2.0793 2.3958 0.43265 0.6931 0.87179 1.2097 1.326 1.5498 0.43265 0.3315 1.0332 0.51014 1.7887 0.53384 0.85026 0 1.5541-0.28199 2.1461-0.85026 0.57905-0.52952 0.85673-1.1258 0.84163-1.7974 0-0.77706-0.21955-1.5412-0.65004-2.2774-0.42622-0.69095-1.143-1.4272-2.131-2.2085-0.49936-0.33579-1.0483-0.64361-1.6402-0.9256-0.59409-0.28413-1.2614-0.53384-1.9868-0.74477-0.75986-0.20664-1.5585-0.36593-2.4001-0.47356-0.84378-0.10547-1.765-0.15498-2.7853-0.15498-2.5701 0-4.7377 0.31427-6.503 0.94284-1.8963 0.65438-3.3321 1.5541-4.305 2.7208-0.97293 1.1107-1.4594 2.4452-1.4594 4.0037 0 1.6403 0.47141 2.9747 1.4012 4.0037 0.93634 1.1128 2.2042 1.9545 3.8078 2.525 1.524 0.60918 3.4721 1.143 5.8615 1.6036 0.89332 0.21095 1.6747 0.38961 2.3657 0.52522 0.68018 0.13346 1.298 0.28628 1.8382 0.45204 1.0182 0.27768 1.8447 0.74263 2.4755 1.4034 0.67375 0.57257 1.0117 1.3087 1.0117 2.2172 0 1.255-0.6156 2.271-1.8318 3.0458-1.1495 0.79429-2.7036 1.186-4.6604 1.1581-1.5671 0-2.7014-0.18081-3.4204-0.54675-0.89332-0.40682-1.552-0.92344-1.9847-1.5391-0.5489-0.70171-0.98803-1.481-1.341-2.3226-0.3078-0.79858-0.72323-1.4012-1.2656-1.8081-0.50584-0.41114-1.0978-0.61561-1.7931-0.61561-0.88684 0-1.6187 0.24754-2.1978 0.73401-0.57905 0.55319-0.85672 1.2011-0.84377 1.9287 0 1.2678 0.46925 2.5357 1.3991 3.8056 0.92345 1.3066 2.1095 2.3269 3.5539 3.0609 2.116 1.0935 4.7743 1.6467 7.9685 1.6683 2.6066 0 4.9294-0.38746 6.9504-1.1602 1.9847-0.8804 3.4655-1.9717 4.432-3.2826z" fill="#fff" stroke-width="33.627"/>
 </g>
</svg>
