<?xml version="1.0" encoding="UTF-8" standalone="no"?>
<svg
   xmlns:dc="http://purl.org/dc/elements/1.1/"
   xmlns:cc="http://creativecommons.org/ns#"
   xmlns:rdf="http://www.w3.org/1999/02/22-rdf-syntax-ns#"
   xmlns:svg="http://www.w3.org/2000/svg"
   xmlns="http://www.w3.org/2000/svg"
   xmlns:xlink="http://www.w3.org/1999/xlink"
   xmlns:sodipodi="http://sodipodi.sourceforge.net/DTD/sodipodi-0.dtd"
   xmlns:inkscape="http://www.inkscape.org/namespaces/inkscape"
   inkscape:version="1.0 (4035a4fb49, 2020-05-01)"
   sodipodi:docname="software-store.svg"
   id="svg20"
   viewBox="0 0 16.933 16.933"
   version="1.1"
   height="64"
   width="64">
  <sodipodi:namedview
     inkscape:document-rotation="0"
     inkscape:current-layer="svg20"
     inkscape:window-maximized="1"
     inkscape:window-y="36"
     inkscape:window-x="0"
     inkscape:cy="39.488022"
     inkscape:cx="57.407712"
     inkscape:zoom="7.375"
     showgrid="false"
     id="namedview22"
     inkscape:window-height="932"
     inkscape:window-width="1920"
     inkscape:pageshadow="2"
     inkscape:pageopacity="0"
     guidetolerance="10"
     gridtolerance="10"
     objecttolerance="10"
     borderopacity="1"
     bordercolor="#666666"
     pagecolor="#ffffff">
    <inkscape:grid
       id="grid840"
       type="xygrid" />
  </sodipodi:namedview>
  <defs
     id="defs10">
    <linearGradient
       id="linearGradient1054"
       inkscape:collect="always">
      <stop
         id="stop1050"
         offset="0"
         style="stop-color:#1eaff0;stop-opacity:1" />
      <stop
         id="stop1052"
         offset="1"
         style="stop-color:#1464c8;stop-opacity:1" />
    </linearGradient>
    <linearGradient
       gradientUnits="userSpaceOnUse"
       gradientTransform="matrix(.91667 0 0 .91667 .70544 -16.228)"
       y2="0.56832188"
       y1="13.415262"
       x2="3.9686999"
       x1="3.9686999"
       id="linearGradient1448">
      <stop
         style="stop-color:#1eaff0;stop-opacity:1"
         id="stop2"
         offset="0"
         stop-color="#144bb4" />
      <stop
         style="stop-color:#1464c8;stop-opacity:1"
         id="stop4"
         offset="1"
         stop-color="#00c8ff" />
    </linearGradient>
    <filter
       color-interpolation-filters="sRGB"
       height="1.054"
       width="1.054"
       y="-.027"
       x="-.027"
       id="filter861">
      <feGaussianBlur
         id="feGaussianBlur7"
         stdDeviation="0.16371" />
    </filter>
    <linearGradient
       gradientUnits="userSpaceOnUse"
       y2="-15.816832"
       x2="3.8558533"
       y1="-3.8941278"
       x1="3.8558533"
       id="linearGradient1056"
       xlink:href="#linearGradient1054"
       inkscape:collect="always" />
    <filter
       height="1.1797767"
       y="-0.089888326"
       width="1.1586254"
       x="-0.079312688"
       id="filter845"
       style="color-interpolation-filters:sRGB"
       inkscape:collect="always">
      <feGaussianBlur
         id="feGaussianBlur847"
         stdDeviation="0.30481716"
         inkscape:collect="always" />
    </filter>
  </defs>
  <metadata
     id="metadata12">
    <rdf:RDF>
      <cc:Work
         rdf:about="">
        <dc:format>image/svg+xml</dc:format>
        <dc:type
           rdf:resource="http://purl.org/dc/dcmitype/StillImage" />
        <dc:title></dc:title>
      </cc:Work>
    </rdf:RDF>
  </metadata>
  <rect
     style="opacity:0.3;stroke-width:0.083153;stroke-opacity:0.95293998;filter:url(#filter861)"
     x="1.1904995"
     y="1.1905"
     width="14.552"
     height="14.552"
     ry="3.4395001"
     id="rect910" />
  <rect
     transform="scale(1,-1)"
     x="1.1904995"
     y="-15.742"
     width="14.552"
     height="14.552"
     ry="3.4395001"
     id="rect912"
     style="fill:url(#linearGradient1056);stroke-width:0.083153;stroke-opacity:0.95293998;fill-opacity:1" />
  <path
     inkscape:connector-curvature="0"
     style="opacity:0.3;fill:#000000;fill-opacity:1;filter:url(#filter845)"
     id="path914"
     d="m 7.686399,4.3973 c -0.12525,0 -0.15344,0.00548 -0.23599,0.046009 -0.1196,0.058724 -0.22066,0.15992 -0.27377,0.27411 -0.05641,0.12129 -0.06663,0.30684 -0.02319,0.42095 0.01651,0.04336 0.16753,0.31626 0.33561,0.60646 0.16808,0.2902 0.30599,0.53854 0.30648,0.55186 4.87e-4,0.013323 -0.41379,0.74235 -0.92061,1.62 l -0.9215,1.5958 -1.6731,0.00918 -0.09461,0.044131 c -0.12323,0.057498 -0.2309,0.16468 -0.28652,0.28523 -0.03768,0.081676 -0.04447,0.11677 -0.04453,0.23038 0,0.11386 0.0066,0.14826 0.0441,0.22863 0.07472,0.16007 0.2225,0.28348 0.38544,0.32188 0.03296,0.0078 1.2443,0.01464 2.7333,0.01552 l 2.6741,0.0016 0.03006,-0.03326 c 0.02532,-0.02802 0.0299,-0.05714 0.02916,-0.18527 -0.0022,-0.3886 -0.22635,-0.75958 -0.53311,-0.88246 -0.05732,-0.02296 -0.1797,-0.027101 -1.0121,-0.034152 l -0.94694,-0.00801 0.2703,-0.46514 c 1.6818,-2.8939 2.225,-3.8358 2.2507,-3.9024 0.02374,-0.061515 0.02903,-0.10655 0.02396,-0.20498 -0.01149,-0.22319 -0.12245,-0.39268 -0.32083,-0.49008 -0.0825,-0.040506 -0.11077,-0.046009 -0.23565,-0.046009 -0.12337,0 -0.15486,0.00597 -0.2411,0.045793 -0.13676,0.063152 -0.21946,0.16035 -0.3884,0.45652 -0.07738,0.13566 -0.1456,0.24664 -0.15161,0.24664 -0.006,0 -0.07394,-0.11077 -0.15099,-0.24615 -0.16975,-0.29827 -0.24024,-0.38168 -0.38125,-0.4511 -0.0952,-0.046869 -0.11841,-0.051706 -0.24729,-0.051706 z m 1.621,2.2159 c -0.0334,-0.00102 -0.1199,0.083969 -0.17994,0.17686 -0.20807,0.32193 -0.291,0.98412 -0.17523,1.3994 0.02199,0.078851 0.29498,0.56316 1.1864,2.1049 0.63683,1.1014 1.1822,2.0295 1.2119,2.0625 0.15936,0.177 0.4229,0.22895 0.64834,0.12777 0.21296,-0.09557 0.3459,-0.32229 0.32616,-0.5563 -0.0048,-0.05747 -0.02312,-0.13642 -0.04059,-0.17544 -0.01747,-0.03902 -0.16562,-0.30155 -0.32921,-0.5834 l -0.29743,-0.51244 0.99501,-0.0158 0.0946,-0.04416 c 0.12323,-0.0575 0.2309,-0.16468 0.28652,-0.28523 0.03768,-0.08168 0.04444,-0.11674 0.0445,-0.23035 0,-0.11383 -0.0065,-0.14827 -0.04404,-0.22863 -0.05746,-0.12315 -0.1647,-0.23087 -0.28526,-0.28659 l -0.09632,-0.044498 -1.6563,-0.00918 -0.83534,-1.4494 c -0.45944,-0.79716 -0.84367,-1.4496 -0.85385,-1.45 z m -3.9456,4.2958 c -0.08946,1.87e-4 -0.16513,0.0079 -0.19672,0.02414 -0.03382,0.01734 -0.09413,0.10668 -0.23399,0.34661 -0.28111,0.48226 -0.30236,0.53044 -0.30198,0.6849 5.76e-4,0.24456 0.13365,0.43762 0.36632,0.5315 0.1062,0.04285 0.32681,0.03337 0.43595,-0.01873 0.14561,-0.0695 0.21358,-0.15991 0.52107,-0.69312 l 0.28643,-0.49667 -0.02534,-0.04512 C 6.146109,11.12245 5.944469,11.00323 5.710709,10.94522 5.614599,10.92137 5.476839,10.90883 5.361819,10.909 Z" />
  <path
     inkscape:connector-curvature="0"
     d="m 7.686399,4.3973 c -0.12525,0 -0.15344,0.00548 -0.23599,0.046009 -0.1196,0.058724 -0.22066,0.15992 -0.27377,0.27411 -0.05641,0.12129 -0.06663,0.30684 -0.02319,0.42095 0.01651,0.04336 0.16753,0.31626 0.33561,0.60646 0.16808,0.2902 0.30599,0.53854 0.30648,0.55186 4.87e-4,0.013323 -0.41379,0.74235 -0.92061,1.62 l -0.9215,1.5958 -1.6731,0.00918 -0.09461,0.044131 c -0.12323,0.057498 -0.2309,0.16468 -0.28652,0.28523 -0.03768,0.081676 -0.04447,0.11677 -0.04453,0.23038 0,0.11386 0.0066,0.14826 0.0441,0.22863 0.07472,0.16007 0.2225,0.28348 0.38544,0.32188 0.03296,0.0078 1.2443,0.01464 2.7333,0.01552 l 2.6741,0.0016 0.03006,-0.03326 c 0.02532,-0.02802 0.0299,-0.05714 0.02916,-0.18527 -0.0022,-0.3886 -0.22635,-0.75958 -0.53311,-0.88246 -0.05732,-0.02296 -0.1797,-0.027101 -1.0121,-0.034152 l -0.94694,-0.00801 0.2703,-0.46514 c 1.6818,-2.8939 2.225,-3.8358 2.2507,-3.9024 0.02374,-0.061515 0.02903,-0.10655 0.02396,-0.20498 -0.01149,-0.22319 -0.12245,-0.39268 -0.32083,-0.49008 -0.0825,-0.040506 -0.11077,-0.046009 -0.23565,-0.046009 -0.12337,0 -0.15486,0.00597 -0.2411,0.045793 -0.13676,0.063152 -0.21946,0.16035 -0.3884,0.45652 -0.07738,0.13566 -0.1456,0.24664 -0.15161,0.24664 -0.006,0 -0.07394,-0.11077 -0.15099,-0.24615 -0.16975,-0.29827 -0.24024,-0.38168 -0.38125,-0.4511 -0.0952,-0.046869 -0.11841,-0.051706 -0.24729,-0.051706 z m 1.621,2.2159 c -0.0334,-0.00102 -0.1199,0.083969 -0.17994,0.17686 -0.20807,0.32193 -0.291,0.98412 -0.17523,1.3994 0.02199,0.078851 0.29498,0.56316 1.1864,2.1049 0.63683,1.1014 1.1822,2.0295 1.2119,2.0625 0.15936,0.177 0.4229,0.22895 0.64834,0.12777 0.21296,-0.09557 0.3459,-0.32229 0.32616,-0.5563 -0.0048,-0.05747 -0.02312,-0.13642 -0.04059,-0.17544 -0.01747,-0.03902 -0.16562,-0.30155 -0.32921,-0.5834 l -0.29743,-0.51244 0.99501,-0.0158 0.0946,-0.04416 c 0.12323,-0.0575 0.2309,-0.16468 0.28652,-0.28523 0.03768,-0.08168 0.04444,-0.11674 0.0445,-0.23035 0,-0.11383 -0.0065,-0.14827 -0.04404,-0.22863 -0.05746,-0.12315 -0.1647,-0.23087 -0.28526,-0.28659 l -0.09632,-0.044498 -1.6563,-0.00918 -0.83534,-1.4494 c -0.45944,-0.79716 -0.84367,-1.4496 -0.85385,-1.45 z m -3.9456,4.2958 c -0.08946,1.87e-4 -0.16513,0.0079 -0.19672,0.02414 -0.03382,0.01734 -0.09413,0.10668 -0.23399,0.34661 -0.28111,0.48226 -0.30236,0.53044 -0.30198,0.6849 5.76e-4,0.24456 0.13365,0.43762 0.36632,0.5315 0.1062,0.04285 0.32681,0.03337 0.43595,-0.01873 0.14561,-0.0695 0.21358,-0.15991 0.52107,-0.69312 l 0.28643,-0.49667 -0.02534,-0.04512 C 6.146109,11.12245 5.944469,11.00323 5.710709,10.94522 5.614599,10.92137 5.476839,10.90883 5.361819,10.909 Z"
     id="path916"
     style="fill:#ffffff;fill-opacity:1" />
</svg>
