<?xml version="1.0" encoding="UTF-8" standalone="no"?>
<svg
   xmlns:dc="http://purl.org/dc/elements/1.1/"
   xmlns:cc="http://creativecommons.org/ns#"
   xmlns:rdf="http://www.w3.org/1999/02/22-rdf-syntax-ns#"
   xmlns:svg="http://www.w3.org/2000/svg"
   xmlns="http://www.w3.org/2000/svg"
   xmlns:xlink="http://www.w3.org/1999/xlink"
   xmlns:sodipodi="http://sodipodi.sourceforge.net/DTD/sodipodi-0.dtd"
   xmlns:inkscape="http://www.inkscape.org/namespaces/inkscape"
   inkscape:version="1.0 (4035a4fb49, 2020-05-01)"
   sodipodi:docname="usb-creator.svg"
   id="svg74"
   version="1.1"
   height="64"
   width="64">
  <metadata
     id="metadata78">
    <rdf:RDF>
      <cc:Work
         rdf:about="">
        <dc:format>image/svg+xml</dc:format>
        <dc:type
           rdf:resource="http://purl.org/dc/dcmitype/StillImage" />
        <dc:title></dc:title>
      </cc:Work>
    </rdf:RDF>
  </metadata>
  <sodipodi:namedview
     inkscape:current-layer="svg74"
     inkscape:window-maximized="1"
     inkscape:window-y="0"
     inkscape:window-x="0"
     inkscape:cy="44.974299"
     inkscape:cx="14.257131"
     inkscape:zoom="3.1875"
     showgrid="false"
     id="namedview76"
     inkscape:window-height="985"
     inkscape:window-width="1920"
     inkscape:pageshadow="2"
     inkscape:pageopacity="0"
     guidetolerance="10"
     gridtolerance="10"
     objecttolerance="10"
     borderopacity="1"
     bordercolor="#666666"
     pagecolor="#ffffff" />
  <defs
     id="defs48">
    <linearGradient
       id="linearGradient1615"
       inkscape:collect="always">
      <stop
         id="stop1611"
         offset="0"
         style="stop-color:#1e1e1e;stop-opacity:1" />
      <stop
         style="stop-color:#2c2c2e;stop-opacity:1"
         offset="0.12742133"
         id="stop1619" />
      <stop
         id="stop1621"
         offset="0.28099197"
         style="stop-color:#2b2b2d;stop-opacity:1" />
      <stop
         style="stop-color:#2b2b2d;stop-opacity:1"
         offset="0.7395497"
         id="stop1623" />
      <stop
         id="stop1625"
         offset="0.89140087"
         style="stop-color:#303030;stop-opacity:1" />
      <stop
         id="stop1613"
         offset="1"
         style="stop-color:#1b1b1b;stop-opacity:1" />
    </linearGradient>
    <linearGradient
       gradientUnits="userSpaceOnUse"
       gradientTransform="matrix(2.1429 0 0 2.1429 -826.34 -1107.5)"
       y2="517.8"
       y1="545.8"
       x2="399.57"
       x1="399.57"
       id="b">
      <stop
         id="stop2"
         offset="0"
         stop-color="#3889e9" />
      <stop
         id="stop4"
         offset="1"
         stop-color="#5ea5fb" />
    </linearGradient>
    <clipPath
       id="clipPath953">
      <rect
         id="rect7"
         stroke-width=".99482"
         opacity="0"
         ry=".98744"
         rx="0"
         height="48"
         width="48"
         y="16"
         x="7.0117e-15" />
    </clipPath>
    <filter
       color-interpolation-filters="sRGB"
       height="1.1228"
       width="1.1173"
       y="-.061414"
       x="-.058649"
       id="filter943-7">
      <feGaussianBlur
         id="feGaussianBlur10"
         stdDeviation="1.0747504" />
    </filter>
    <linearGradient
       gradientUnits="userSpaceOnUse"
       gradientTransform="translate(0,14)"
       y2="7"
       y1="35"
       x2="26"
       x1="26"
       id="linearGradient885-9">
      <stop
         id="stop13"
         offset="0"
         stop-color="#b6b9bf" />
      <stop
         id="stop15"
         offset="1"
         stop-color="#dddfe2" />
    </linearGradient>
    <linearGradient
       gradientUnits="userSpaceOnUse"
       gradientTransform="translate(0,14)"
       y2="42"
       y1="42"
       x2="45"
       x1="3"
       id="linearGradient893-0">
      <stop
         id="stop18"
         offset="0"
         stop-color="#1a1a1a" />
      <stop
         id="stop20"
         offset=".11054"
         stop-color="#2c2c2e" />
      <stop
         id="stop22"
         offset=".29001"
         stop-color="#2b2b2d" />
      <stop
         id="stop24"
         offset=".51187"
         stop-color="#2a2b2d" />
      <stop
         id="stop26"
         offset=".75173"
         stop-color="#2b2b2d" />
      <stop
         id="stop28"
         offset=".89659"
         stop-color="#323232" />
      <stop
         id="stop30"
         offset="1"
         stop-color="#171717" />
    </linearGradient>
    <linearGradient
       gradientUnits="userSpaceOnUse"
       gradientTransform="matrix(0.88172,0,0,2.6012,-374.83,-1358.6)"
       y2="543.43"
       y1="544.2"
       x2="450.06"
       x1="450.06"
       id="c-20">
      <stop
         id="stop33"
         offset="0"
         stop-color="#24785a" />
      <stop
         id="stop35"
         offset="1"
         stop-color="#67e5b8" />
    </linearGradient>
    <linearGradient
       gradientUnits="userSpaceOnUse"
       gradientTransform="matrix(1.8844,0,0,1.8844,-841.23,-972.74)"
       y2="544.72"
       y1="546.85"
       x2="467.17"
       x1="467.17"
       id="b-7">
      <stop
         id="stop38"
         offset="0"
         stop-color="#040404" />
      <stop
         id="stop40"
         offset="1"
         stop-opacity=".90816"
         stop-color="#121212" />
    </linearGradient>
    <linearGradient
       gradientUnits="userSpaceOnUse"
       gradientTransform="matrix(3.7796,0,0,3.7796,-95.440021,0)"
       y2="1.852"
       y1="15.081"
       x2="7.9373"
       x1="7.9373"
       id="linearGradient862-3">
      <stop
         id="stop43"
         offset="0"
         stop-color="#4d4d4d" />
      <stop
         id="stop45"
         offset="1"
         stop-color="#808080" />
    </linearGradient>
    <linearGradient
       id="linearGradient4261">
      <stop
         stop-color="#586c71"
         offset="0"
         id="stop903" />
      <stop
         stop-color="#597075"
         offset="1"
         id="stop905" />
    </linearGradient>
    <linearGradient
       id="linearGradient4251">
      <stop
         stop-color="#3b3f40"
         offset="0"
         id="stop908" />
      <stop
         stop-color="#4d5253"
         offset="1"
         id="stop910" />
    </linearGradient>
    <linearGradient
       id="linearGradient4178">
      <stop
         stop-color="#8ba4aa"
         offset="0"
         id="stop913" />
      <stop
         stop-color="#6f8c92"
         offset="1"
         id="stop915" />
    </linearGradient>
    <linearGradient
       id="linearGradient1448"
       x1="3.9687"
       x2="3.9687"
       y1="16.404"
       y2="2.6458"
       gradientTransform="matrix(3.4646478,0,0,3.4646478,2.6662814,2.6662814)"
       gradientUnits="userSpaceOnUse">
      <stop
         stop-color="#737878"
         offset="0"
         id="stop918" />
      <stop
         stop-color="#d2e1e6"
         offset="1"
         id="stop920" />
    </linearGradient>
    <filter
       id="filter861"
       x="-.027"
       y="-.027"
       width="1.054"
       height="1.054"
       color-interpolation-filters="sRGB">
      <feGaussianBlur
         stdDeviation="0.16371"
         id="feGaussianBlur923" />
    </filter>
    <linearGradient
       id="linearGradient2226"
       x1="52.326"
       x2="31.113"
       y1="973.87"
       y2="967.86"
       gradientTransform="matrix(0.26708,0,0,0.254,-10.452,-246.31)"
       gradientUnits="userSpaceOnUse">
      <stop
         stop-color="#121212"
         offset="0"
         id="stop926" />
      <stop
         stop-color="#3f3e3e"
         offset="1"
         id="stop928" />
    </linearGradient>
    <linearGradient
       id="linearGradient2228"
       x1="57.188"
       x2="57.188"
       y1="977.17"
       y2="966.55"
       gradientTransform="matrix(0.27718,0,0,0.31268,-10.918,-303.33)"
       gradientUnits="userSpaceOnUse">
      <stop
         stop-color="#b6c4c8"
         offset="0"
         id="stop931" />
      <stop
         stop-color="#ddecee"
         offset="1"
         id="stop933" />
    </linearGradient>
    <linearGradient
       id="linearGradient2230"
       x1="69.75"
       x2="69.75"
       y1="1001.1"
       y2="972.11"
       gradientTransform="matrix(0.26458,0,0,0.26458,-10.439,-256.58)"
       gradientUnits="userSpaceOnUse">
      <stop
         stop-color="#a5b2b5"
         offset="0"
         id="stop936" />
      <stop
         stop-color="#b9cacd"
         offset=".35345"
         id="stop938" />
      <stop
         stop-color="#cad8db"
         offset="1"
         id="stop940" />
    </linearGradient>
    <linearGradient
       id="linearGradient2232"
       x1="42.073"
       x2="42.073"
       y1="980.1"
       y2="964.86"
       gradientTransform="matrix(0.25355,0,0,0.23345,-10.02,-226.07)"
       gradientUnits="userSpaceOnUse">
      <stop
         stop-color="#88969a"
         offset="0"
         id="stop943" />
      <stop
         stop-color="#c0cfd4"
         offset=".28696"
         id="stop945" />
      <stop
         stop-color="#b9c9ce"
         offset=".6087"
         id="stop947" />
      <stop
         stop-color="#d2e1e5"
         offset="1"
         id="stop949" />
    </linearGradient>
    <linearGradient
       id="linearGradient2234"
       x1="53.033"
       x2="55.685"
       y1="1010.3"
       y2="998.62"
       gradientUnits="userSpaceOnUse">
      <stop
         stop-color="#797e81"
         offset="0"
         id="stop952" />
      <stop
         stop-color="#b0b7bb"
         offset=".34201"
         id="stop954" />
      <stop
         stop-color="#b8c5c8"
         offset="1"
         id="stop956" />
    </linearGradient>
    <linearGradient
       id="linearGradient2236"
       x1="48.79"
       x2="48.79"
       y1="1009.7"
       y2="1001.2"
       gradientTransform="matrix(0.90295,0,0,0.80113,4.6586,197.89)"
       gradientUnits="userSpaceOnUse">
      <stop
         stop-color="#909b9f"
         offset="0"
         id="stop959" />
      <stop
         stop-color="#bbc8cb"
         offset="1"
         id="stop961" />
    </linearGradient>
    <radialGradient
       id="radialGradient2238"
       cx="-75.884"
       cy="44.052"
       r="29.714"
       gradientTransform="matrix(0.25548,8.737e-4,0,0.17338,21.709,2.53)"
       gradientUnits="userSpaceOnUse">
      <stop
         stop-opacity="0"
         offset="0"
         id="stop964" />
      <stop
         stop-opacity="0"
         offset=".81612"
         id="stop966" />
      <stop
         stop-opacity=".023529"
         offset=".90911"
         id="stop968" />
      <stop
         stop-opacity=".2"
         offset="1"
         id="stop970" />
    </radialGradient>
    <linearGradient
       id="linearGradient2240"
       x1="50.912"
       x2="50.912"
       y1="1025.5"
       y2="988.02"
       gradientTransform="matrix(0.25243,0,0,0.24421,-9.8559,-236.15)"
       gradientUnits="userSpaceOnUse">
      <stop
         stop-color="#7d8385"
         offset="0"
         id="stop973" />
      <stop
         stop-color="#bccdd1"
         offset="1"
         id="stop975" />
    </linearGradient>
    <linearGradient
       id="linearGradient2242"
       x1="69.75"
       x2="69.75"
       y1="1001.1"
       y2="972.11"
       gradientTransform="matrix(0.26458,0,0,0.26458,-9.9097,-255.94)"
       gradientUnits="userSpaceOnUse">
      <stop
         stop-color="#d2dde0"
         offset="0"
         id="stop978" />
      <stop
         stop-color="#e0e8ea"
         offset=".35345"
         id="stop980" />
      <stop
         stop-color="#dbe5e7"
         offset="1"
         id="stop982" />
    </linearGradient>
    <linearGradient
       id="linearGradient2244"
       x1="53.49"
       x2="69.711"
       y1="1029.6"
       y2="983.83"
       gradientTransform="matrix(0.26458,0,0,0.26458,-10.439,-256.58)"
       gradientUnits="userSpaceOnUse">
      <stop
         stop-color="#83898b"
         offset="0"
         id="stop985" />
      <stop
         stop-color="#6f7677"
         offset=".1904"
         id="stop987" />
      <stop
         stop-color="#c2cfd3"
         offset=".39515"
         id="stop989" />
      <stop
         stop-color="#e6eef0"
         offset="1"
         id="stop991" />
    </linearGradient>
    <linearGradient
       gradientTransform="matrix(3.779602,0,0,3.779602,-59.800649,-1.011042e-6)"
       id="linearGradient2363"
       x1="1.1906"
       x2="15.742"
       y1="12.846"
       y2="12.846"
       gradientUnits="userSpaceOnUse">
      <stop
         stop-color="#5f6469"
         offset="0"
         id="stop994" />
      <stop
         stop-color="#737373"
         offset=".12512"
         id="stop996" />
      <stop
         stop-color="#373737"
         offset=".27172"
         id="stop998" />
      <stop
         stop-color="#646969"
         offset=".75536"
         id="stop1000" />
      <stop
         stop-color="#5f5f5f"
         offset=".87327"
         id="stop1002" />
      <stop
         stop-color="#6e7378"
         offset="1"
         id="stop1004" />
    </linearGradient>
    <linearGradient
       id="linearGradient2375"
       x1="69.191"
       x2="69.191"
       y1="87.105"
       y2="87.729"
       gradientTransform="matrix(0.72727102,0,0,0.80596233,-5.8084934,-13.064951)"
       gradientUnits="userSpaceOnUse">
      <stop
         offset="0"
         id="stop1007" />
      <stop
         stop-color="#2f2f2f"
         offset="1"
         id="stop1009" />
    </linearGradient>
    <radialGradient
       id="radialGradient2379"
       cx="-18.219"
       cy="85.049"
       r="3.266"
       gradientTransform="matrix(0.088165,-0.088165,0.085923,0.085923,-3.2881,-5.6025)"
       gradientUnits="userSpaceOnUse"
       xlink:href="#linearGradient4178" />
    <radialGradient
       id="radialGradient2385"
       cx="-18.219"
       cy="85.049"
       r="3.266"
       gradientTransform="matrix(0.088165,-0.088165,0.085923,0.085923,8.8368,-5.6025)"
       gradientUnits="userSpaceOnUse"
       xlink:href="#linearGradient4178" />
    <radialGradient
       id="radialGradient2389"
       cx="-18.219"
       cy="85.049"
       r="3.266"
       gradientTransform="matrix(0.088165,-0.088165,0.085923,0.085923,-3.2881,-1.7161)"
       gradientUnits="userSpaceOnUse"
       xlink:href="#linearGradient4261" />
    <radialGradient
       id="radialGradient2393"
       cx="-18.219"
       cy="85.049"
       r="3.266"
       gradientTransform="matrix(0.088165,-0.088165,0.085923,0.085923,8.8368,-1.7161)"
       gradientUnits="userSpaceOnUse"
       xlink:href="#linearGradient4261" />
    <radialGradient
       id="radialGradient2397"
       cx="-18.219"
       cy="85.049"
       r="3.266"
       gradientTransform="matrix(0.088165,-0.088165,0.085923,0.085923,-3.2881,2.1703)"
       gradientUnits="userSpaceOnUse"
       xlink:href="#linearGradient4251" />
    <radialGradient
       id="radialGradient2401"
       cx="-18.219"
       cy="85.049"
       r="3.266"
       gradientTransform="matrix(0.088165,-0.088165,0.085923,0.085923,8.8368,2.1703)"
       gradientUnits="userSpaceOnUse"
       xlink:href="#linearGradient4251" />
    <linearGradient
       y2="544.72"
       x2="467.17"
       y1="546.85"
       x1="467.17"
       gradientTransform="matrix(1.8844,0,0,1.8844,-834.03983,-973.71296)"
       gradientUnits="userSpaceOnUse"
       id="linearGradient1594"
       xlink:href="#b-7"
       inkscape:collect="always" />
    <linearGradient
       y2="543.43"
       x2="450.06"
       y1="544.2"
       x1="450.06"
       gradientTransform="matrix(0.88172,0,0,2.6012,-367.63983,-1359.573)"
       gradientUnits="userSpaceOnUse"
       id="linearGradient1596"
       xlink:href="#c-20"
       inkscape:collect="always" />
    <linearGradient
       gradientTransform="translate(-144.99805)"
       gradientUnits="userSpaceOnUse"
       y2="52.210312"
       x2="204.5739"
       y1="52.210312"
       x1="149.5919"
       id="linearGradient1617"
       xlink:href="#linearGradient1615"
       inkscape:collect="always" />
  </defs>
  <circle
     id="circle70"
     stroke-width="1.5715"
     fill="url(#b)"
     r="0"
     cy="31.998"
     cx="32.017" />
  <rect
     transform="matrix(3.779602,0,0,3.779602,-1.011042e-6,-1.011042e-6)"
     id="rect1022"
     stroke-width="0.083153"
     stroke-opacity="0.95294"
     opacity="0.3"
     filter="url(#filter861)"
     ry="3.4395001"
     height="14.552"
     width="14.552"
     y="1.1905"
     x="1.1905" />
  <rect
     id="rect1024"
     stroke-width="0.314285"
     stroke-opacity="0.95294"
     fill="url(#linearGradient1448)"
     ry="12.999942"
     height="55.000767"
     width="55.000767"
     y="4.4996152"
     x="4.4996152"
     style="fill:url(#linearGradient1448)" />
  <path
     d="M 4.5,37.603516 V 46.5 c 0,7.202032 5.79797,13 13,13 h 29 c 7.20203,0 13,-5.797968 13,-13 v -8.896484 c 0,7.202032 -5.79797,13 -13,13 h -29 c -7.20203,0 -13,-5.797968 -13,-13 z"
     style="fill:url(#linearGradient1617);fill-opacity:1;stroke-width:1.946;stroke-linecap:round"
     id="rect1607" />
  <g
     transform="translate(-1.6901674)"
     id="g1601">
    <rect
       style="fill:url(#linearGradient1596)"
       id="rect1588"
       stroke-width="2.005"
       fill="url(#c-20)"
       ry="1"
       height="2"
       width="20"
       y="54.027039"
       x="19.190165" />
    <circle
       style="fill:url(#linearGradient1594)"
       id="circle1590"
       stroke-width="1.7736"
       opacity="0.452"
       fill="url(#b-7)"
       r="2"
       cy="55.027039"
       cx="46.19017" />
    <path
       id="path1592"
       fill="#ffffff"
       d="m 46.193168,54.102037 c -0.0402,0 -0.0761,0.01492 -0.10547,0.04492 -0.0294,0.0288 -0.043,0.06272 -0.043,0.10352 v 0.74414 c 0,0.0396 0.0136,0.07472 0.043,0.10352 0.0294,0.0288 0.0652,0.04492 0.10547,0.04492 0.0402,0 0.0742,-0.01492 0.10352,-0.04492 0.0294,-0.0288 0.0449,-0.06392 0.0449,-0.10352 v -0.74414 c 0,-0.0408 -0.0155,-0.07352 -0.0449,-0.10352 -0.0294,-0.0288 -0.0633,-0.04492 -0.10352,-0.04492 z m -0.42773,0.21875 c -0.0406,0 -0.0761,4.97e-4 -0.10938,0.0293 -0.11298,0.084 -0.20139,0.18795 -0.26367,0.3125 -0.0623,0.12455 -0.0937,0.25768 -0.0937,0.39844 0,0.12072 0.0251,0.23578 0.0723,0.3457 0.0472,0.1104 0.10975,0.20537 0.18945,0.28516 0.0797,0.0792 0.17529,0.14229 0.28516,0.18945 0.10987,0.0468 0.22501,0.07031 0.3457,0.07031 0.12069,0 0.23583,-0.02351 0.3457,-0.07031 0.10987,-0.0468 0.20353,-0.10965 0.2832,-0.18945 0.0797,-0.0792 0.1442,-0.17525 0.19141,-0.28516 0.0472,-0.1104 0.0703,-0.22498 0.0703,-0.3457 0,-0.14076 -0.0315,-0.27388 -0.0937,-0.39844 -0.0623,-0.12456 -0.14877,-0.22827 -0.26172,-0.3125 -0.0325,-0.0252 -0.0703,-0.0353 -0.11133,-0.0293 -0.041,0 -0.0737,0.02424 -0.0977,0.05664 -0.0247,0.0324 -0.0331,0.06977 -0.0273,0.10938 0.006,0.0408 0.0242,0.07441 0.0566,0.09961 0.0758,0.0576 0.13441,0.12619 0.17578,0.20898 0.0414,0.0828 0.0625,0.17204 0.0625,0.26562 0,0.0804 -0.0155,0.15728 -0.0469,0.23047 -0.0313,0.0732 -0.0736,0.13605 -0.12695,0.18945 -0.0534,0.0528 -0.11632,0.09587 -0.18945,0.12695 -0.0731,0.0312 -0.15001,0.04687 -0.23047,0.04687 -0.0805,0 -0.15735,-0.01568 -0.23047,-0.04687 -0.0731,-0.0312 -0.13606,-0.07307 -0.18945,-0.12695 -0.0534,-0.0528 -0.0976,-0.11613 -0.12891,-0.18945 -0.0313,-0.0732 -0.0469,-0.14996 -0.0469,-0.23047 0,-0.0936 0.0211,-0.18284 0.0625,-0.26562 0.0414,-0.0828 0.0999,-0.15163 0.17578,-0.20898 0.0325,-0.0252 0.0528,-0.05881 0.0586,-0.09961 0.006,-0.0408 -0.005,-0.07697 -0.0293,-0.10938 -0.024,-0.0336 -0.057,-0.05184 -0.0977,-0.05664 z" />
  </g>
  <path
     d="m 38.529075,19.278 -2.8027,-0.0043 c -0.10679,6.4e-5 -0.20905,0.0338 -0.28455,0.09446 -0.07555,0.06068 -0.11806,0.14276 -0.11847,0.22884 l -0.0042,2.2591 c -9.05e-4,0.17893 0.1789,0.32433 0.40098,0.32426 l 0.3907,3.54e-4 -0.004,1.7213 -2.9711,1.605 0.01373,-6.5768 1.0333,0.0012 c 0.11084,1.53e-4 0.21392,-0.04636 0.27135,-0.12245 0.0579,-0.07649 0.06226,-0.17134 0.01144,-0.25079 l -2.0379,-3.1825 c -0.05455,-0.08462 -0.1633,-0.13806 -0.28183,-0.13839 -0.11866,2.11e-4 -0.22725,0.05291 -0.28207,0.13778 l -2.0516,3.1765 c -0.05092,0.07912 -0.04737,0.17437 0.01,0.25076 0.05757,0.07663 0.16054,0.12307 0.27132,0.12323 l 1.0341,0.0015 -0.01952,9.1092 -3.198,-1.7408 0.0028,-1.3668 c 0.49624,-0.26373 0.82458,-0.71587 0.82572,-1.2305 0.0024,-0.81658 -0.81762,-1.4795 -1.831803,-1.4806 -1.0123,-0.0019 -1.8341,0.6593 -1.8362,1.4759 -0.002,0.51499 0.32539,0.96796 0.82055,1.2331 l -0.004,1.7997 c -7.8e-4,0.27144 0.16599,0.52497 0.44544,0.67656 l 4.771403,2.5967 -0.0063,2.8093 c -0.6729,0.29068 -1.1363,0.85608 -1.1377,1.5147 -0.0012,0.95462 0.95627,1.73 2.1408,1.732 1.1859,0.0016 2.1478,-0.77083 2.1498,-1.7258 0.0017,-0.65848 -0.45939,-1.2244 -1.1311,-1.5173 l 0.01144,-5.3418 4.5485,-2.4571 c 0.05458,-0.02956 0.10514,-0.06308 0.15081,-0.09974 0.18789,-0.15088 0.29682,-0.35745 0.29718,-0.57573 l 0.0044,-2.1545 0.391,5.48e-4 c 0.10678,-6.3e-5 0.20879,-0.03403 0.28434,-0.0947 0.0755,-0.06065 0.1178,-0.14288 0.1182,-0.22899 l 0.0041,-2.2586 c 6.69e-4,-0.17912 -0.17869,-0.32416 -0.40089,-0.32428 z"
     opacity="0.15"
     stroke-width="1.7349"
     id="path1627" />
</svg>
