<?xml version="1.0" encoding="UTF-8" standalone="no"?>
<svg
   xmlns:dc="http://purl.org/dc/elements/1.1/"
   xmlns:cc="http://creativecommons.org/ns#"
   xmlns:rdf="http://www.w3.org/1999/02/22-rdf-syntax-ns#"
   xmlns:svg="http://www.w3.org/2000/svg"
   xmlns="http://www.w3.org/2000/svg"
   xmlns:sodipodi="http://sodipodi.sourceforge.net/DTD/sodipodi-0.dtd"
   xmlns:inkscape="http://www.inkscape.org/namespaces/inkscape"
   inkscape:version="1.0 (4035a4fb49, 2020-05-01)"
   sodipodi:docname="wine-winefile.svg"
   id="svg56"
   viewBox="0 0 16.933 16.933"
   version="1.1"
   height="64"
   width="64">
  <metadata
     id="metadata60">
    <rdf:RDF>
      <cc:Work
         rdf:about="">
        <dc:format>image/svg+xml</dc:format>
        <dc:type
           rdf:resource="http://purl.org/dc/dcmitype/StillImage" />
        <dc:title></dc:title>
      </cc:Work>
    </rdf:RDF>
  </metadata>
  <sodipodi:namedview
     inkscape:current-layer="svg56"
     inkscape:window-maximized="1"
     inkscape:window-y="0"
     inkscape:window-x="0"
     inkscape:cy="36.673905"
     inkscape:cx="-25.8513"
     inkscape:zoom="4.5078057"
     showgrid="false"
     id="namedview58"
     inkscape:window-height="985"
     inkscape:window-width="1920"
     inkscape:pageshadow="2"
     inkscape:pageopacity="0"
     guidetolerance="10"
     gridtolerance="10"
     objecttolerance="10"
     borderopacity="1"
     bordercolor="#666666"
     pagecolor="#ffffff" />
  <defs
     id="defs36">
    <filter
       color-interpolation-filters="sRGB"
       height="1.0799"
       width="1.0656"
       y="-.039926"
       x="-.032777"
       id="filter956">
      <feGaussianBlur
         id="feGaussianBlur2"
         stdDeviation="0.20235586" />
    </filter>
    <linearGradient
       gradientUnits="userSpaceOnUse"
       gradientTransform="matrix(.99998 0 0 .99998 1.0774e-8 -280.06)"
       y2="283.77"
       y1="285.36"
       x2="6.8792"
       x1="6.8792"
       id="linearGradient897">
      <stop
         id="stop5"
         offset="0" />
      <stop
         id="stop7"
         offset="1"
         stop-opacity="0" />
    </linearGradient>
    <linearGradient
       gradientUnits="userSpaceOnUse"
       gradientTransform="matrix(0.38956,0,0,0.38184,-164.98061,-66.696455)"
       y2="200.07"
       y1="179.28"
       x2="445.28"
       x1="445.28"
       id="linearGradient1769">
      <stop
         id="stop10"
         offset="0"
         stop-color="#60c0f0" />
      <stop
         id="stop12"
         offset="1"
         stop-color="#83d4fb" />
    </linearGradient>
    <linearGradient
       gradientUnits="userSpaceOnUse"
       gradientTransform="translate(1.0774e-8 -280.07)"
       y2="292.77"
       y1="293.3"
       x2="8.4667"
       x1="8.4667"
       id="linearGradient860">
      <stop
         id="stop15"
         offset="0"
         stop-opacity=".25"
         stop-color="#008ea2" />
      <stop
         id="stop17"
         offset="1"
         stop-opacity=".15"
         stop-color="#fff" />
    </linearGradient>
    <linearGradient
       gradientUnits="userSpaceOnUse"
       gradientTransform="matrix(.99998 0 0 .99998 1.0774e-8 -280.06)"
       y2="293.56"
       y1="294.62"
       x2="8.4667"
       x1="8.4667"
       id="linearGradient868">
      <stop
         id="stop20"
         offset="0"
         stop-opacity=".25098"
         stop-color="#008ea2" />
      <stop
         id="stop22"
         offset=".75678"
         stop-opacity=".15"
         stop-color="#008ea2" />
      <stop
         id="stop24"
         offset="1"
         stop-opacity=".15"
         stop-color="#fff" />
    </linearGradient>
    <linearGradient
       gradientUnits="userSpaceOnUse"
       gradientTransform="translate(1.0774e-8 -280.07)"
       y2="289.59"
       y1="289.59"
       x2="15.875"
       x1="1.0583"
       id="linearGradient907">
      <stop
         id="stop27"
         offset="0"
         stop-opacity=".5"
         stop-color="#46a2d7" />
      <stop
         id="stop29"
         offset=".10783"
         stop-opacity="0"
         stop-color="#46a2d7" />
      <stop
         id="stop31"
         offset=".89398"
         stop-opacity=".095808"
         stop-color="#46a2d7" />
      <stop
         id="stop33"
         offset="1"
         stop-opacity=".5"
         stop-color="#46a2d7" />
    </linearGradient>
    <linearGradient
       id="linearGradient1011"
       x1="3.9687"
       x2="3.9687"
       y1="-12.171"
       y2="-6.879"
       gradientTransform="matrix(1 0 0 .99894 1.0583 14.153)"
       gradientUnits="userSpaceOnUse">
      <stop
         stop-color="#059bff"
         offset="0"
         id="stop4" />
      <stop
         stop-color="#005aff"
         offset="1"
         id="stop6" />
    </linearGradient>
    <linearGradient
       id="linearGradient921"
       x1="7.9373"
       x2="7.9373"
       y1="1.0583"
       y2="-8.2019"
       gradientTransform="translate(1.0583,14.42)"
       gradientUnits="userSpaceOnUse">
      <stop
         stop-color="#005aff"
         offset="0"
         id="stop9" />
      <stop
         stop-color="#059bff"
         offset="1"
         id="stop11" />
    </linearGradient>
    <style
       type="text/css"
       id="current-color-scheme">.ColorScheme-Text {
        color:#4d4d4d;
      }</style>
    <style
       id="style848"
       type="text/css">.ColorScheme-Text {
        color:#4d4d4d;
      }</style>
    <linearGradient
       gradientUnits="userSpaceOnUse"
       gradientTransform="matrix(0.26458,0,0,0.26458,-0.79373,-39.158)"
       y2="166"
       y1="155"
       x2="25"
       x1="25"
       id="linearGradient1387">
      <stop
         id="stop850"
         offset="0"
         stop-color="#3296d7" />
      <stop
         id="stop852"
         offset="1"
         stop-color="#0a7db4" />
    </linearGradient>
    <linearGradient
       gradientUnits="userSpaceOnUse"
       gradientTransform="matrix(0.26458,0,0,0.26458,-0.79374,-39.158)"
       y2="185"
       y1="185"
       x2="65"
       x1="5"
       id="linearGradient1401">
      <stop
         id="stop855"
         offset="0"
         stop-color="#3492cb" />
      <stop
         id="stop857"
         offset=".083713"
         stop-color="#6ec8fa" />
      <stop
         id="stop859"
         offset=".91237"
         stop-color="#6ec8fa" />
      <stop
         id="stop861"
         offset="1"
         stop-color="#3492cb" />
    </linearGradient>
    <linearGradient
       gradientUnits="userSpaceOnUse"
       gradientTransform="matrix(0.18168,0,0,0.40956,9.2005,-451.88)"
       y2="1140.2"
       y1="1138.4"
       x2="-9.617"
       x1="-9.617"
       id="linearGradient1438">
      <stop
         id="stop864"
         offset="0"
         stop-opacity="0"
         stop-color="#1482be" />
      <stop
         id="stop866"
         offset="1"
         stop-color="#1482be" />
    </linearGradient>
    <filter
       color-interpolation-filters="sRGB"
       height="1.0264"
       width="1.022"
       y="-.0132"
       x="-.011"
       id="filter1733">
      <feGaussianBlur
         id="feGaussianBlur869"
         stdDeviation="0.072761339" />
    </filter>
    <filter
       color-interpolation-filters="sRGB"
       height="1.297"
       width="1.0297"
       y="-.1485"
       x="-.01485"
       id="filter935">
      <feGaussianBlur
         id="feGaussianBlur872"
         stdDeviation="0.098224626" />
    </filter>
    <style
       type="text/css"
       id="style14" />
    <style
       type="text/css"
       id="current-color-scheme-3">.ColorScheme-Text {
        color:#4d4d4d;
      }</style>
    <style
       id="style874"
       type="text/css">.ColorScheme-Text {
        color:#4d4d4d;
      }</style>
    <linearGradient
       gradientUnits="userSpaceOnUse"
       gradientTransform="matrix(0.26458,0,0,0.26458,-0.79373,-39.158)"
       y2="166"
       y1="155"
       x2="25"
       x1="25"
       id="linearGradient1387-5">
      <stop
         id="stop876"
         offset="0"
         stop-color="#3296d7" />
      <stop
         id="stop878"
         offset="1"
         stop-color="#0a7db4" />
    </linearGradient>
    <linearGradient
       gradientUnits="userSpaceOnUse"
       gradientTransform="matrix(0.26458,0,0,0.26458,-0.79374,-39.158)"
       y2="185"
       y1="185"
       x2="65"
       x1="5"
       id="linearGradient1401-6">
      <stop
         id="stop881"
         offset="0"
         stop-color="#3492cb" />
      <stop
         id="stop883"
         offset=".083713"
         stop-color="#6ec8fa" />
      <stop
         id="stop885"
         offset=".91237"
         stop-color="#6ec8fa" />
      <stop
         id="stop887"
         offset="1"
         stop-color="#3492cb" />
    </linearGradient>
    <linearGradient
       gradientUnits="userSpaceOnUse"
       gradientTransform="matrix(0.18168,0,0,0.40956,9.2005,-451.88)"
       y2="1140.2"
       y1="1138.4"
       x2="-9.617"
       x1="-9.617"
       id="linearGradient1438-2">
      <stop
         id="stop890"
         offset="0"
         stop-opacity="0"
         stop-color="#1482be" />
      <stop
         id="stop892"
         offset="1"
         stop-color="#1482be" />
    </linearGradient>
    <filter
       color-interpolation-filters="sRGB"
       height="1.0264"
       width="1.022"
       y="-.0132"
       x="-.011"
       id="filter1733-9">
      <feGaussianBlur
         id="feGaussianBlur895"
         stdDeviation="0.072761339" />
    </filter>
    <filter
       color-interpolation-filters="sRGB"
       height="1.297"
       width="1.0297"
       y="-.1485"
       x="-.01485"
       id="filter935-1">
      <feGaussianBlur
         id="feGaussianBlur898"
         stdDeviation="0.098224626" />
    </filter>
  </defs>
  <g
     id="g905"
     transform="matrix(1.0358943,0,0,1.0358943,-0.30389943,-0.30385011)">
    <g
       id="g891"
       transform="translate(-0.79373,-39.158)"
       style="opacity:0.5;filter:url(#filter1733)">
      <g
         id="g885"
         style="stroke-opacity:0.95294">
        <path
           id="path879"
           d="m 10,155 c -2.77,0 -5,2.23 -5,5 v 40 c 0,2.77 2.23,5 5,5 h 50 c 2.77,0 5,-2.23 5,-5 v -36 c 0,-0.831 -0.3347,-1.5808 -0.87695,-2.123 -0.54225,-0.5422 -1.292,-0.87695 -2.123,-0.87695 h -31 c -0.75,0 -1.5,-0.25001 -2.2188,-0.64062 -0.71875,-0.39063 -1.4062,-0.92188 -2.0312,-1.4844 -1.25,-1.125 -2.25,-2.375 -2.75,-2.875 -0.43528,-0.43528 -1.1061,-0.68419 -1.7754,-0.82617 -0.64042,-0.13585 -1.26,-0.16683 -1.6875,-0.17383 h -0.53711 z"
           transform="scale(0.26458)"
           inkscape:connector-curvature="0"
           style="opacity:1;stroke-width:0.20101" />
        <path
           id="path881"
           d="M 7.4004,165 C 6.0708,165 5,166.0708 5,167.4004 v 32.6 c 0,2.77 2.23,5 5,5 h 50 c 2.77,0 5,-2.23 5,-5 v -32.6 C 65,166.0708 63.9292,165 62.5996,165 Z"
           transform="scale(0.26458)"
           inkscape:connector-curvature="0"
           style="opacity:1;stroke-width:0.17979" />
        <path
           id="path883"
           d="M 7.4004,165 C 6.0708,165 5,166.0708 5,167.4004 v 1 C 5,167.0708 6.0708,166 7.4004,166 h 55.199 c 1.3296,0 2.4004,1.0708 2.4004,2.4004 v -1 C 64.9998,166.0708 63.929,165 62.5994,165 Z"
           transform="scale(0.26458)"
           inkscape:connector-curvature="0"
           style="opacity:1;stroke-width:0.17979" />
      </g>
      <path
         id="path887"
         style="color:#000000;text-indent:0;text-transform:none;opacity:0.5;stroke-width:0.27278"
         d="m 1.3229,52.916 c 0.037387,0.72117 0.52916,1.3229 1.3188,1.3229 h 13.233 c 0.79328,0 1.3224,-0.64408 1.3224,-1.3229 z"
         inkscape:connector-curvature="0" />
      <path
         id="path889"
         style="color:#000000;text-indent:0;text-transform:none;opacity:0.15;stroke-width:0.095585"
         d="m 1.3237,52.916 3.337e-4,0.26458 H 17.198034 L 17.1977,52.916 H 1.3226997 Z m 0.26376,0.79373 h 15.346 c 0.05347,-0.07329 0.11377,-0.15529 0.15166,-0.26458 h -15.653 c 0.046511,0.1129 0.09263,0.17706 0.15532,0.26458 z"
         inkscape:connector-curvature="0" />
    </g>
    <path
       id="path893"
       d="m 1.852,1.852 c -0.73288,0 -1.3229,0.59001 -1.3229,1.3229 v 10.583 c 0,0.73288 0.59001,1.3229 1.3229,1.3229 h 13.229 c 0.73288,0 1.3229,-0.59001 1.3229,-1.3229 V 4.2331 c 0,-0.21986 -0.08855,-0.41825 -0.23202,-0.56171 C 16.02841,3.52792 15.83003,3.43937 15.61017,3.43937 H 7.40827 C 7.20984,3.43937 7.0114,3.373223 6.82124,3.26988 6.63107,3.16653 6.44918,3.02597 6.28382,2.87715 5.9531,2.5795 5.68852,2.24878 5.55623,2.11649 5.44106,2.00132 5.26359,1.93547 5.0865,1.8979 4.91706,1.861957 4.75314,1.85376 4.64002,1.851908 H 4.49791 Z"
       inkscape:connector-curvature="0"
       style="fill:url(#linearGradient1387);stroke-width:0.053182" />
    <path
       id="path895"
       d="M 1.852,4.3131 C 1.66878,4.3131 1.49466,4.350202 1.33628,4.41697 1.1779,4.483736 1.0352,4.58008 0.91564,4.69963 0.79608,4.81919 0.69922,4.96189 0.63246,5.12027 0.56569,5.27865 0.52911,5.45277 0.52911,5.63599 v 0.26458 c 0,-0.18322 0.03658,-0.35734 0.10335,-0.51572 C 0.69922,5.22647 0.79608,5.08377 0.91564,4.96421 1.0352,4.84465 1.1779,4.74831 1.33628,4.68155 1.49466,4.614785 1.66878,4.57768 1.852,4.57768 h 13.229 c 0.18322,0 0.35734,0.037103 0.51572,0.10387 0.15838,0.066765 0.30108,0.16311 0.42064,0.28266 0.11956,0.11956 0.21642,0.26226 0.28318,0.42064 0.06676,0.15838 0.10335,0.3325 0.10335,0.51572 V 5.63599 c 0,-0.18322 -0.03659,-0.35734 -0.10335,-0.51572 C 16.23377,4.96189 16.13692,4.81919 16.01736,4.69963 15.8978,4.58007 15.7551,4.48373 15.59672,4.41697 15.43834,4.350205 15.26422,4.3131 15.081,4.3131 Z"
       inkscape:connector-curvature="0"
       style="opacity:0.1;stroke-width:0.047568;filter:url(#filter935)" />
    <path
       id="path897"
       d="M 1.8521,4.4979 C 1.66888,4.4979 1.49476,4.535002 1.33638,4.60177 1.178,4.668537 1.03529,4.76488 0.91575,4.88445 0.79619,5.00401 0.69933,5.14671 0.63257,5.30508 0.565809,5.46344 0.52922,5.63758 0.52922,5.8208 v 7.9374 c 0,0.73289 0.59001,1.3229 1.3229,1.3229 h 13.229 c 0.73289,0 1.3229,-0.59001 1.3229,-1.3229 V 5.8208 c 0,-0.18322 -0.03659,-0.35734 -0.10335,-0.51572 C 16.2339,5.1467 16.13705,5.00399 16.01749,4.88445 15.89793,4.76489 15.75523,4.66855 15.59686,4.60177 15.43848,4.535006 15.26436,4.4979 15.08114,4.4979 h -13.229 z"
       inkscape:connector-curvature="0"
       style="fill:url(#linearGradient1401);stroke-width:0.047569" />
    <path
       id="path899"
       style="color:#000000;text-indent:0;text-transform:none;fill:url(#linearGradient1438);stroke-width:0.27278"
       d="m 0.52916,13.758 c 0.037387,0.72117 0.52916,1.3229 1.3188,1.3229 h 13.233 c 0.79328,0 1.3224,-0.64408 1.3224,-1.3229 z"
       inkscape:connector-curvature="0" />
    <path
       id="path901"
       style="color:#000000;text-indent:0;text-transform:none;opacity:0.25;fill:#1482be;stroke-width:0.095585"
       d="m 0.52997,13.758 3.337e-4,0.26458 H 16.404304 L 16.40397,13.758 H 0.5289697 Z m 0.26376,0.79373 h 15.346 c 0.05347,-0.07329 0.11377,-0.15529 0.15166,-0.26458 h -15.653 c 0.046511,0.1129 0.09263,0.17706 0.15532,0.26458 z"
       inkscape:connector-curvature="0" />
    <path
       id="path903"
       d="M 1.852,4.4978 C 1.66878,4.4978 1.49466,4.534902 1.33628,4.60167 1.1779,4.668436 1.0352,4.76478 0.91564,4.88433 0.79608,5.00389 0.69922,5.14659 0.63246,5.30497 0.56569,5.46335 0.52911,5.63747 0.52911,5.82069 v 0.26458 c 0,-0.18322 0.036581,-0.35735 0.10335,-0.51572 C 0.699225,5.41117 0.79608,5.26847 0.91564,5.14891 1.0352,5.02935 1.1779,4.93301 1.33628,4.86625 1.49466,4.799484 1.66878,4.76238 1.852,4.76238 h 13.229 c 0.18322,0 0.35734,0.037103 0.51572,0.10387 0.15838,0.066765 0.30108,0.16311 0.42064,0.28266 0.11956,0.11956 0.21642,0.26226 0.28318,0.42064 0.06676,0.15838 0.10335,0.3325 0.10335,0.51572 V 5.82069 c 0,-0.18322 -0.03659,-0.35734 -0.10335,-0.51572 C 16.23377,5.14659 16.13691,5.00389 16.01736,4.88433 15.8978,4.76477 15.7551,4.66843 15.59672,4.60167 15.43834,4.534905 15.26422,4.4978 15.081,4.4978 Z"
       inkscape:connector-curvature="0"
       style="fill:#80cbff;stroke-width:0.047568" />
  </g>
  <path
     d="M 11.359548,6.3937991 8.274009,6.8867825 v 2.4706016 h 3.085539 z m -3.472071,0.5544771 -2.3150585,0.344675 0.00207,2.0644329 2.3129917,-5.17e-4 z m -2.3129917,2.831296 v 2.0866528 l 2.3140251,0.348293 -0.00103,-10e-4 V 9.7795722 Z m 2.6995237,0.00103 V 12.26774 l 3.085539,0.475931 10e-4,-2.9630688 z"
     style="opacity:0.7;fill:#328cc3;fill-opacity:1;stroke-width:0.514869;stroke-linecap:round"
     id="rect1119" />
</svg>
