<?xml version="1.0" encoding="UTF-8" standalone="no"?>
<svg
   xmlns:dc="http://purl.org/dc/elements/1.1/"
   xmlns:cc="http://creativecommons.org/ns#"
   xmlns:rdf="http://www.w3.org/1999/02/22-rdf-syntax-ns#"
   xmlns:svg="http://www.w3.org/2000/svg"
   xmlns="http://www.w3.org/2000/svg"
   xmlns:xlink="http://www.w3.org/1999/xlink"
   xmlns:sodipodi="http://sodipodi.sourceforge.net/DTD/sodipodi-0.dtd"
   xmlns:inkscape="http://www.inkscape.org/namespaces/inkscape"
   inkscape:version="1.0 (4035a4fb49, 2020-05-01)"
   sodipodi:docname="Zoom.svg"
   id="svg30"
   version="1.1"
   height="64"
   width="64">
  <metadata
     id="metadata34">
    <rdf:RDF>
      <cc:Work
         rdf:about="">
        <dc:format>image/svg+xml</dc:format>
        <dc:type
           rdf:resource="http://purl.org/dc/dcmitype/StillImage" />
        <dc:title></dc:title>
      </cc:Work>
    </rdf:RDF>
  </metadata>
  <sodipodi:namedview
     inkscape:current-layer="svg30"
     inkscape:window-maximized="1"
     inkscape:window-y="36"
     inkscape:window-x="0"
     inkscape:cy="-2.0635176"
     inkscape:cx="-128.47"
     inkscape:zoom="2.1075097"
     showgrid="false"
     id="namedview32"
     inkscape:window-height="932"
     inkscape:window-width="1920"
     inkscape:pageshadow="2"
     inkscape:pageopacity="0"
     guidetolerance="10"
     gridtolerance="10"
     objecttolerance="10"
     borderopacity="1"
     bordercolor="#666666"
     pagecolor="#ffffff" />
  <defs
     id="defs10">
    <linearGradient
       gradientUnits="userSpaceOnUse"
       gradientTransform="matrix(3.7796,0,0,3.7796,-85.674408,0)"
       y2="1.852"
       y1="15.081"
       x2="7.9373"
       x1="7.9373"
       id="linearGradient862-3">
      <stop
         id="stop2"
         offset="0"
         stop-color="#6083f1" />
      <stop
         id="stop4"
         offset="1"
         stop-color="#85b6ff" />
    </linearGradient>
    <filter
       color-interpolation-filters="sRGB"
       height="1.297"
       width="1.1697"
       y="-.1485"
       x="-.084859"
       id="filter981">
      <feGaussianBlur
         id="feGaussianBlur7"
         stdDeviation="1.237486" />
    </filter>
    <linearGradient
       gradientTransform="rotate(-90,23.999998,24)"
       gradientUnits="userSpaceOnUse"
       x2="47"
       x1="1"
       id="linearGradient3764">
      <stop
         id="stop2-36"
         style="stop-color:#bdc7db;stop-opacity:1" />
      <stop
         id="stop4-7"
         style="stop-color:#cad2e2;stop-opacity:1"
         offset="1" />
    </linearGradient>
    <linearGradient
       gradientUnits="userSpaceOnUse"
       gradientTransform="matrix(2.1429,0,0,2.1429,-826.36,-1107.5)"
       y2="517.8"
       y1="545.8"
       x2="399.57"
       x1="399.57"
       id="b">
      <stop
         id="stop2-3"
         offset="0"
         stop-color="#3889e9" />
      <stop
         id="stop4-6"
         offset="1"
         stop-color="#5ea5fb" />
    </linearGradient>
    <linearGradient
       gradientUnits="userSpaceOnUse"
       gradientTransform="translate(-61,1)"
       y2="13"
       y1="43"
       x2="90"
       x1="90"
       id="linearGradient914">
      <stop
         id="stop7"
         offset="0"
         stop-color="#3cd1fb" />
      <stop
         id="stop9"
         offset="1"
         stop-color="#87e2fd" />
    </linearGradient>
    <linearGradient
       gradientUnits="userSpaceOnUse"
       gradientTransform="translate(-58,8)"
       y2="13"
       y1="43"
       x2="90"
       x1="90"
       id="linearGradient929">
      <stop
         id="stop12"
         offset="0"
         stop-color="#3e9e9b" />
      <stop
         id="stop14"
         offset=".46385"
         stop-color="#5e91a8" />
      <stop
         id="stop16"
         offset="1"
         stop-color="#d9d1a1" />
    </linearGradient>
    <filter
       color-interpolation-filters="sRGB"
       height="1.1861"
       width="1.1438"
       y="-.093049"
       x="-.071902"
       id="filter955">
      <feGaussianBlur
         id="feGaussianBlur19"
         stdDeviation="1.3182" />
    </filter>
    <filter
       color-interpolation-filters="sRGB"
       height="1.1861"
       width="1.1438"
       y="-.093049"
       x="-.071902"
       id="filter961">
      <feGaussianBlur
         id="feGaussianBlur22"
         stdDeviation="1.3182" />
    </filter>
    <linearGradient
       gradientUnits="userSpaceOnUse"
       y2="8"
       y1="57"
       x2="30"
       x1="30"
       id="linearGradient971">
      <stop
         id="stop25"
         offset="0"
         stop-color="#1f1f1f" />
      <stop
         id="stop27"
         offset="1"
         stop-color="#525252" />
    </linearGradient>
    <style
       type="text/css"
       id="current-color-scheme">.ColorScheme-Text { color:#363636; }</style>
    <style
       id="style31"
       type="text/css">.ColorScheme-Text { color:#363636; }</style>
    <filter
       id="filter861-9"
       x="-0.027000001"
       y="-0.027000001"
       width="1.054"
       height="1.054"
       color-interpolation-filters="sRGB">
      <feGaussianBlur
         stdDeviation="0.16371"
         id="feGaussianBlur9-1" />
    </filter>
    <linearGradient
       inkscape:collect="always"
       xlink:href="#linearGradient1729"
       id="linearGradient1723"
       x1="35"
       y1="9.1279182"
       x2="35"
       y2="55.037815"
       gradientUnits="userSpaceOnUse" />
    <linearGradient
       inkscape:collect="always"
       id="linearGradient1729">
      <stop
         style="stop-color:#329ef8;stop-opacity:1"
         offset="0"
         id="stop1725" />
      <stop
         style="stop-color:#367ef7;stop-opacity:1"
         offset="1"
         id="stop1727" />
    </linearGradient>
    <filter
       id="filter955-3"
       x="-0.071901999"
       y="-0.093048997"
       width="1.1438"
       height="1.1861"
       color-interpolation-filters="sRGB">
      <feGaussianBlur
         stdDeviation="1.3182"
         id="feGaussianBlur1161" />
    </filter>
    <filter
       id="filter961-6"
       x="-0.071901999"
       y="-0.093048997"
       width="1.1438"
       height="1.1861"
       color-interpolation-filters="sRGB">
      <feGaussianBlur
         stdDeviation="1.3182"
         id="feGaussianBlur1164" />
    </filter>
  </defs>
  <circle
     style="fill:url(#b)"
     id="circle39"
     stroke-width="1.5715"
     fill="url(#b)"
     r="0"
     cy="32.043999"
     cx="32.02" />
  <rect
     transform="scale(3.779602)"
     id="rect58"
     ry="3.4395001"
     height="14.552"
     width="14.552"
     y="1.1905"
     x="1.1905"
     style="opacity:0.3;stroke-width:0.083153;stroke-opacity:0.95294;filter:url(#filter861-9)" />
  <rect
     ry="13"
     y="4.5000005"
     x="4.4999995"
     height="55"
     width="55"
     id="rect1713"
     style="fill:url(#linearGradient1723);fill-opacity:1;stroke-width:1.375;stroke-linecap:round" />
  <g
     transform="translate(85.175234)"
     id="g997">
    <path
       id="path991"
       opacity="0.15"
       filter="url(#filter981)"
       d="m -68.508408,23 c -1.2003,0 -2.166,0.95547 -2.166,2.1426 v 12.143 c 0,3.1656 2.5765,5.7148 5.7773,5.7148 h 18.057 c 1.2003,0 2.166,-0.95547 2.166,-2.1426 v -12.143 c 0,-3.1656 -2.5765,-5.7148 -5.7773,-5.7148 h -14.445 z m 31.564,0.0039 c -0.42486,-0.03143 -0.90846,0.17568 -1.3691,0.63477 -1.6201,1.6144 -3.5196,2.9767 -4.8477,4.9062 -0.54689,0.7946 -0.50937,1.8466 -0.51367,2.8359 -0.002,0.54283 0.003,1.0835 0,1.6191 0.003,0.53569 -0.002,1.0763 0,1.6191 0.004,0.98936 -0.0332,2.0413 0.51367,2.8359 1.328,1.9296 3.2276,3.2918 4.8477,4.9062 0.46068,0.45908 0.94428,0.66619 1.3691,0.63477 0.70809,-0.05239 1.252,-0.77105 1.252,-2.1035 0,-2.6086 0.0382,-5.2482 0,-7.8926 0.0382,-2.6443 0,-5.284 0,-7.8926 0,-1.3325 -0.54386,-2.0511 -1.252,-2.1035 z" />
    <path
       id="path993"
       fill="#ffffff"
       d="m -68.508408,22 c -1.2003,0 -2.166,0.95547 -2.166,2.1426 v 12.143 c 0,3.1656 2.5765,5.7148 5.7773,5.7148 h 18.057 c 1.2003,0 2.166,-0.95547 2.166,-2.1426 v -12.143 c 0,-3.1656 -2.5765,-5.7148 -5.7773,-5.7148 h -14.445 z m 31.564,0.0039 c -0.42486,-0.03143 -0.90846,0.17568 -1.3691,0.63477 -1.6201,1.6144 -3.5196,2.9767 -4.8477,4.9062 -0.54689,0.7946 -0.50937,1.8466 -0.51367,2.8359 -0.002,0.54283 0.003,1.0835 0,1.6191 0.003,0.53569 -0.002,1.0763 0,1.6191 0.004,0.98936 -0.0332,2.0413 0.51367,2.8359 1.328,1.9296 3.2276,3.2918 4.8477,4.9062 0.46068,0.45908 0.94428,0.66619 1.3691,0.63477 0.70809,-0.05239 1.252,-0.77105 1.252,-2.1035 0,-2.6086 0.0382,-5.2482 0,-7.8926 0.0382,-2.6443 0,-5.284 0,-7.8926 0,-1.3325 -0.54386,-2.0511 -1.252,-2.1035 z" />
  </g>
</svg>
